<svg width="111" height="144" viewBox="0 0 111 144" fill="none" xmlns="http://www.w3.org/2000/svg">
<path opacity="0.2" d="M1.48828 144V116L48.4883 85C59.6883 77.5333 67.4883 71.2 71.8883 66C76.2883 60.6667 78.4883 54.6667 78.4883 48C78.4883 41.8667 76.555 37 72.6883 33.4C68.8216 29.8 63.4216 28 56.4883 28C47.2883 28 40.4216 31.3333 35.8883 38C33.8883 41.0667 32.4883 44.4 31.6883 48H0.488281C1.82162 39.2 4.75495 31.2 9.28828 24C19.4216 7.99999 35.1549 -5.72205e-06 56.4883 -5.72205e-06C72.6216 -5.72205e-06 85.6216 4.53333 95.4883 13.6C105.488 22.5333 110.488 33.6667 110.488 47C110.488 55.2667 108.955 62.5333 105.888 68.8C102.955 74.9333 98.955 80.3333 93.8883 85C88.9549 89.5333 81.6883 95.0667 72.0883 101.6L56.4883 112L46.4883 116V117L59.4883 116H110.488V144H1.48828Z" fill="url(#paint0_linear_136_534)"/>
<defs>
<linearGradient id="paint0_linear_136_534" x1="56.5" y1="-46" x2="56.5" y2="212" gradientUnits="userSpaceOnUse">
<stop stop-color="white"/>
<stop offset="1" stop-color="white" stop-opacity="0"/>
</linearGradient>
</defs>
</svg>
