<svg width="116" height="144" viewBox="0 0 116 144" fill="none" xmlns="http://www.w3.org/2000/svg">
<path opacity="0.2" d="M0.0117188 98H31.0117C32.0784 101.467 33.6784 104.467 35.8117 107C40.7451 113 48.1451 116 58.0117 116C66.2784 116 72.6784 114.133 77.2117 110.4C81.7451 106.667 84.0117 101.867 84.0117 96C84.0117 89.8667 81.9451 85 77.8117 81.4C73.8117 77.8 67.8784 76 60.0117 76H26.0117V54L63.0117 29V28H7.01172V-9.53674e-06H106.012V28L69.0117 51L67.0117 51.8V53H72.0117C84.0117 53 94.1451 57.2 102.412 65.6C110.812 73.8667 115.012 84 115.012 96C115.012 109.467 109.745 120.867 99.2117 130.2C88.8117 139.4 75.0784 144 58.0117 144C35.8784 144 19.6784 136.333 9.41172 121C4.74505 114.333 1.61172 106.667 0.0117188 98Z" fill="url(#paint0_linear_136_535)"/>
<defs>
<linearGradient id="paint0_linear_136_535" x1="58" y1="-50" x2="58" y2="208" gradientUnits="userSpaceOnUse">
<stop stop-color="white"/>
<stop offset="1" stop-color="white" stop-opacity="0"/>
</linearGradient>
</defs>
</svg>
