<svg width="177" height="58" viewBox="0 0 177 58" fill="none" xmlns="http://www.w3.org/2000/svg">
<path d="M76.256 34.1522C74.7453 32.6122 73.99 30.6615 73.99 28.3002C73.99 25.9389 74.7453 23.9955 76.256 22.4702C77.7813 20.9302 79.7027 20.1602 82.02 20.1602C84.616 20.1602 86.662 21.0989 88.158 22.9762C88.818 23.7829 89.302 24.7142 89.61 25.7702H87.63C87.322 25.0369 86.9333 24.4135 86.464 23.9002C85.3053 22.6535 83.824 22.0302 82.02 22.0302C80.2453 22.0302 78.7933 22.6095 77.664 23.7682C76.5347 24.9269 75.97 26.4375 75.97 28.3002C75.97 30.1629 76.5347 31.6735 77.664 32.8322C78.7933 33.9909 80.2453 34.5702 82.02 34.5702C83.8533 34.5702 85.3713 33.8955 86.574 32.5462C87.058 31.9889 87.4467 31.3069 87.74 30.5002H89.72C89.368 31.6442 88.8547 32.6342 88.18 33.4702C86.64 35.4502 84.5867 36.4402 82.02 36.4402C79.7027 36.4402 77.7813 35.6775 76.256 34.1522ZM92.3557 36.0002V20.6002H94.3357V34.1302H102.366V36.0002H92.3557ZM105.733 34.1522C104.222 32.6122 103.467 30.6615 103.467 28.3002C103.467 25.9389 104.222 23.9955 105.733 22.4702C107.258 20.9302 109.179 20.1602 111.497 20.1602C113.814 20.1602 115.728 20.9302 117.239 22.4702C118.764 23.9955 119.527 25.9389 119.527 28.3002C119.527 30.6615 118.764 32.6122 117.239 34.1522C115.728 35.6775 113.814 36.4402 111.497 36.4402C109.179 36.4402 107.258 35.6775 105.733 34.1522ZM107.141 23.7682C106.011 24.9269 105.447 26.4375 105.447 28.3002C105.447 30.1629 106.011 31.6735 107.141 32.8322C108.27 33.9909 109.722 34.5702 111.497 34.5702C113.271 34.5702 114.723 33.9909 115.853 32.8322C116.982 31.6735 117.547 30.1629 117.547 28.3002C117.547 26.4375 116.982 24.9269 115.853 23.7682C114.723 22.6095 113.271 22.0302 111.497 22.0302C109.722 22.0302 108.27 22.6095 107.141 23.7682ZM122.283 36.0002V20.6002H128.883C130.599 20.6002 131.963 21.0549 132.975 21.9642C133.987 22.8735 134.493 24.0322 134.493 25.4402C134.493 26.5989 134.134 27.5889 133.415 28.4102C132.711 29.2315 131.714 29.7815 130.423 30.0602L134.383 36.0002H132.073L128.333 30.2802H124.263V36.0002H122.283ZM124.263 28.4102H128.883C130.071 28.4102 130.973 28.1462 131.589 27.6182C132.205 27.0755 132.513 26.3495 132.513 25.4402C132.513 24.5309 132.205 23.8122 131.589 23.2842C130.973 22.7415 130.071 22.4702 128.883 22.4702H124.263V28.4102ZM137.344 36.0002V20.6002H148.124V22.4702H139.324V27.3102H146.474V29.1802H139.324V34.1302H148.124V36.0002H137.344ZM150.376 35.9562C150.126 35.7069 150.002 35.3915 150.002 35.0102C150.002 34.6289 150.126 34.3135 150.376 34.0642C150.625 33.8149 150.94 33.6902 151.322 33.6902C151.703 33.6902 152.018 33.8149 152.268 34.0642C152.517 34.3135 152.642 34.6289 152.642 35.0102C152.642 35.3915 152.517 35.7069 152.268 35.9562C152.018 36.2055 151.703 36.3302 151.322 36.3302C150.94 36.3302 150.625 36.2055 150.376 35.9562ZM154.071 36.0002L158.031 20.6002H164.081L168.041 36.0002H166.061L164.851 31.4902H157.261L156.051 36.0002H154.071ZM157.701 29.6202H164.411L162.541 22.4702H159.571L157.701 29.6202ZM170.237 36.0002V20.6002H172.217V36.0002H170.237Z" fill="white"/>
<path d="M44.4184 4.37736C40.0135 1.64151 36.1593 0.36478 30.2862 0C24.7801 5.10692 24.9636 15.5031 30.2862 20.2453C32.4886 11.4906 37.6276 6.74843 44.4184 4.37736Z" fill="white"/>
<path d="M50.842 9.30189C42.5829 8.93711 36.1592 16.4151 36.1592 23.7107C42.95 19.1509 50.842 18.9686 57.4493 22.6164C56.3481 16.7799 54.265 13.7032 50.842 9.30189Z" fill="white"/>
<path d="M57.9999 30.0953C52.8609 24.6236 42.7665 25.1708 37.811 30.2777C45.9036 32.231 50.2914 35.9318 53.9621 44.1394C56.7644 39.5423 57.9999 36.1142 57.9999 30.0953Z" fill="white"/>
<path d="M48.8233 50.5221C48.2727 41.7674 42.299 36.6174 34.324 36.1133C38.4517 43.2873 39.2795 49.9749 35.6088 57.2705C41.0884 55.7794 44.2349 54.3523 48.8233 50.5221Z" fill="white"/>
<path d="M27.7167 57.9992C33.0393 52.7099 33.4063 44.1376 27.7167 37.7539C25.5143 46.691 20.7424 51.2508 13.5845 53.8042C18.5138 56.7931 21.7146 57.4676 27.7167 57.9992Z" fill="white"/>
<path d="M7.52776 48.6986C16.1019 47.9025 21.66 42.315 21.66 34.1074C16.3374 38.3024 7.34422 38.8496 0.369873 35.7489C2.31753 41.4151 3.86636 44.3777 7.52776 48.6986Z" fill="white"/>
<path d="M0.0027776 27.7223C4.59117 32.6468 14.135 33.3764 20.1917 27.7223C11.5655 25.716 6.51304 20.6637 4.22409 14.043C1.65487 17.8732 -0.0790589 23.1646 0.0027776 27.7223Z" fill="white"/>
<path d="M9.17993 7.66129C10.4647 16.416 15.2366 21.1581 23.6792 21.8877C19.4178 14.8849 19.0908 8.20846 22.2109 0.730469C16.1543 2.18959 12.9513 4.20019 9.17993 7.66129Z" fill="white"/>
</svg>
