<svg width="86" height="88" viewBox="0 0 86 88" fill="none" xmlns="http://www.w3.org/2000/svg">
<path d="M11.4037 74.6799V86M11.4037 74.6799L1 69.0199M11.4037 74.6799L21.422 69.0199M11.4037 86L1 80.34V69.0199M11.4037 86L21.422 80.34V69.0199M1 69.0199L11.4037 62.974L21.422 69.0199M43.5138 74.6799V86M43.5138 74.6799L33.1101 69.0199M43.5138 74.6799L53.5321 69.0199M43.5138 86L33.1101 80.34V69.0199M43.5138 86L53.5321 80.34V69.0199M33.1101 69.0199L43.5138 62.974L53.5321 69.0199M74.9817 74.6799V86M74.9817 74.6799L64.578 69.0199M74.9817 74.6799L85 69.0199M74.9817 86L64.578 80.34V69.0199M74.9817 86L85 80.34V69.0199M64.578 69.0199L74.9817 62.974L85 69.0199M43.5138 17.4364V32.3583M43.5138 17.4364L56.3578 9.9755M43.5138 17.4364L30.0275 9.9755M43.5138 32.3583L56.3578 24.7688V9.9755M43.5138 32.3583L30.0275 24.7688V9.9755M56.3578 9.9755L43.5138 2L30.0275 9.9755M11.4037 58.343V49.2098H43.5138M74.9817 58.343V49.2098H43.5138M43.5138 49.2098V40.3338V57.6998" stroke="white" stroke-width="2"/>
</svg>
