<svg width="124" height="124" viewBox="0 0 124 124" fill="none" xmlns="http://www.w3.org/2000/svg">
<path fill-rule="evenodd" clip-rule="evenodd" d="M86.6879 0.324116C80.7441 1.6467 75.3017 7.10609 69.7418 17.3228C68.6931 19.2499 67.7498 20.7141 67.5928 20.6587C67.4388 20.6042 65.7348 20.0648 63.806 19.4603L60.2994 18.3613L58.762 19.0147C57.7375 19.4501 57.1701 19.5812 57.0616 19.4078C56.9719 19.2646 56.2599 18.1159 55.4789 16.8551C54.6978 15.5943 53.0577 13.3216 51.8344 11.8045C47.0529 5.87578 42.1963 2.86854 37.4027 2.86854C34.2807 2.86854 31.9252 3.79539 28.8639 6.22792C25.9959 8.5069 23.0294 12.2368 21.2185 15.8401C19.5341 19.192 19.1161 20.9335 19.1282 24.5443C19.1379 27.3612 19.2101 27.8923 19.8155 29.5888C20.1875 30.6317 20.4552 31.5203 20.4104 31.5634C20.2752 31.6927 10.0111 34.032 4.95007 35.087C2.3531 35.6283 0.136113 36.1633 0.0234958 36.2759C-0.364246 36.6636 4.16805 59.9337 4.69457 60.259C4.85368 60.3573 5.85053 60.6356 6.90986 60.8775C8.47463 61.235 8.85607 61.412 8.94399 61.8216C9.00357 62.0989 10.2031 71.8072 11.61 83.3959C13.0169 94.9846 14.2498 104.617 14.3501 104.8C14.5269 105.125 15.9803 105.656 27.0492 109.435L32.3168 111.234V112.233C32.3168 113.931 34.2693 116.086 36.8384 117.225C38.4313 117.932 41.0363 118.082 42.7967 117.571C44.1166 117.187 44.1585 117.149 44.2307 116.252L44.3051 115.329L56.6566 119.558C63.45 121.885 69.1717 123.794 69.3715 123.802C69.5713 123.809 73.3639 121.233 77.7993 118.077C82.235 114.92 85.9131 112.337 85.9732 112.337C86.0332 112.337 86.0824 112.664 86.0824 113.064C86.0824 113.561 86.2018 113.79 86.4602 113.79C87.234 113.79 90.9596 111.805 92.8288 110.397C95.6345 108.283 96.8963 106.798 97.0998 105.373L97.2637 104.224L102.927 100.228C107.795 96.7932 108.609 96.1296 108.724 95.5053C108.796 95.1057 109.892 87.2043 111.158 77.9467C112.423 68.689 113.593 60.2016 113.757 59.0856L114.055 57.0565L116.761 55.5899L119.468 54.1229L120.207 51.5642C121.886 45.757 122.957 40.8455 123.501 36.4505C123.982 32.5607 123.977 31.0575 123.481 30.8671C123.27 30.7862 121.88 30.7191 120.393 30.7179C118.905 30.717 116.435 30.6089 114.903 30.4784C112.1 30.2394 105.392 29.4803 105.272 29.3886C105.236 29.3614 105.532 28.6419 105.928 27.7894C107.005 25.475 107.413 23.6187 107.42 20.99C107.434 15.7805 105.223 10.962 100.619 6.16931C97.2504 2.66268 94.0889 0.721303 90.9261 0.217069C88.9785 -0.0936577 88.5123 -0.0817905 86.6879 0.324116ZM85.598 1.71088C83.608 2.40887 82.2696 3.20421 80.2135 4.91018C76.3491 8.11626 71.7655 14.9258 68.3129 22.5903C66.4998 26.6145 66.4984 26.6233 67.519 27.1725C67.9774 27.4191 68.7626 28.041 69.2642 28.5545L70.1758 29.4881L71.5366 27.1372C78.4247 15.2404 85.8078 9.58343 93.0981 10.6173C95.1373 10.9067 96.8123 11.5183 98.502 12.5909C100.03 13.5611 102.309 15.6546 102.309 16.0886C102.309 16.8135 101.728 16.6492 100.617 15.6098C98.9106 14.0138 96.6447 12.6212 94.8537 12.068C92.2996 11.2792 92.3793 11.2204 92.3793 13.8975C92.3793 18.8604 91.4614 23.5024 89.901 26.43C88.9763 28.165 87.1848 29.8199 85.6746 30.3345C84.3563 30.7838 81.9386 30.8356 80.3166 30.4496C79.1236 30.1657 74.8568 28.2011 73.6039 27.359L72.8716 26.8669L71.8774 28.6518L70.883 30.4367L71.4521 31.3912C72.1118 32.4973 73.3898 36.188 73.6265 37.6702C73.8071 38.8026 73.7306 38.7653 76.7582 39.1908C79.0081 39.5071 83.8889 39.5021 86.2466 39.1807C93.1165 38.2446 99.0695 35.2807 102.627 31.0248C104.087 29.2784 105.819 25.7509 106.203 23.7412C106.593 21.6998 106.356 18.1888 105.692 16.1889C104.439 12.4115 102.171 9.01937 98.6778 5.69462C96.945 4.04557 96.0087 3.37398 94.1705 2.46142C91.9523 1.36019 91.7474 1.30643 89.5113 1.23426C87.568 1.17153 86.9058 1.25218 85.598 1.71088ZM34.7658 4.20444C30.8409 5.30712 27.041 8.5752 23.5777 13.8268C20.9381 17.8294 19.6509 22.4911 20.1517 26.2341C21.1161 33.4408 26.7666 38.7954 35.6573 40.9273C40.6403 42.122 47.7398 41.851 53.3263 40.2528C54.2909 39.9767 54.621 39.7619 54.6951 39.3611C54.7487 39.071 54.924 37.9615 55.0843 36.8959C55.2449 35.8303 55.5697 34.3362 55.8063 33.576L56.2362 32.1933L55.1238 30.367C54.5121 29.3624 53.9267 28.5404 53.8228 28.5404C53.7189 28.5404 52.8974 29.0471 51.9969 29.6666C46.1496 33.6888 41.3378 34.1347 38.1671 30.9482C35.6251 28.3939 33.7699 22.0401 33.7699 15.8893V14.6723L32.8617 14.819C31.0911 15.1051 28.5425 16.6083 26.4164 18.6209C24.6842 20.2605 24.3379 20.493 24.0839 20.1866C23.8349 19.8868 24.071 19.5318 25.5028 18.0554C31.373 12.0014 38.7275 11.9053 46.0779 17.7863C49.0372 20.1542 52.9642 24.8485 55.5246 29.079C56.1471 30.1078 56.7135 30.9526 56.7833 30.956C56.8528 30.9594 57.1173 30.577 57.3708 30.1062C57.6244 29.6351 58.319 28.8008 58.9143 28.2522L59.9969 27.2544L58.9668 25.1728C54.374 15.891 48.8766 8.84015 43.8873 5.83243C41.0082 4.09691 37.4252 3.4573 34.7658 4.20444ZM88.3263 11.9607C83.8148 13.1756 78.9006 17.5047 74.7529 23.9175L73.4351 25.9551L74.0067 26.3903C74.3213 26.6298 75.5594 27.3181 76.7582 27.9197C85.53 32.3219 90.2529 28.6644 91.1746 16.7556C91.3069 15.0452 91.3473 13.1826 91.2642 12.6166C91.1228 11.652 91.0657 11.5883 90.3536 11.6033C89.9358 11.612 89.0235 11.7728 88.3263 11.9607ZM34.9494 14.7963C34.8392 15.8573 35.0644 19.5557 35.3519 21.4061C35.9908 25.5194 36.9956 28.089 38.6788 29.9151C40.3443 31.722 42.0333 32.2977 44.5027 31.9C46.7628 31.536 50.4012 29.7727 52.4927 28.0277L53.2522 27.3941L51.8955 25.5915C47.5077 19.7618 43.523 16.4499 39.2671 15.0951C37.2191 14.4432 35.0019 14.2896 34.9494 14.7963ZM58.8058 20.112L57.8063 20.6146L59.3887 23.7412C60.6445 26.222 61.0509 26.8327 61.357 26.6986C61.5689 26.6056 62.6023 26.4644 63.6529 26.3845L65.5633 26.2396L66.5003 24.0737C67.0157 22.8827 67.355 21.835 67.254 21.7456C66.9622 21.4877 60.7464 19.5778 60.2521 19.5945C60.0063 19.6027 59.3553 19.8357 58.8058 20.112ZM61.8026 27.6751C58.4491 28.8717 56.4871 32.8 55.786 39.722C55.6285 41.2761 55.5636 42.714 55.6416 42.9171C55.861 43.4894 58.8426 44.3022 61.2788 44.4541C62.8842 44.5541 63.9973 44.479 65.396 44.1763C67.5865 43.7023 70.8311 42.2041 72.1661 41.0501L73.0738 40.2654L72.58 37.9724C71.0786 31.001 68.0271 27.3055 63.8012 27.3413C63.2017 27.3467 62.3025 27.4966 61.8026 27.6751ZM103.485 31.6128C101.656 33.9833 97.6638 36.8106 94.2582 38.1468C92.7937 38.7212 92.6391 38.8363 93.1356 38.9826C93.4522 39.0758 96.021 39.8697 98.8442 40.7469L103.977 42.3415L108.168 40.0087C110.474 38.7256 112.575 37.5277 112.838 37.3464C113.508 36.8838 113.934 36.9368 113.934 37.4832C113.934 37.9356 111.615 39.3785 106.261 42.2574L104.521 43.1928L104.381 44.8881C104.303 45.8205 104.024 49.199 103.759 52.3959C103.494 55.5928 103.206 58.9621 103.118 59.8829L102.958 61.5576L109.112 58.3956C112.497 56.6564 116.021 54.8132 116.944 54.299L118.623 53.3646L119.667 49.6107C121.232 43.985 122.246 38.6539 122.764 33.3236L122.899 31.931H122.179C119.985 31.931 112.382 31.3353 108.706 30.8751L104.464 30.3442L103.485 31.6128ZM16.2556 33.6416C13.6158 34.272 9.20192 35.2541 6.44704 35.824C3.69191 36.3936 1.33761 36.9465 1.21482 37.0523C0.991519 37.2451 2.62871 46.386 4.43785 55.049L5.34605 59.3973L17.289 62.3837C23.8579 64.026 29.2897 65.3122 29.3602 65.2417C29.4822 65.1197 28.8317 51.9042 28.5222 48.216L28.3747 46.4579L25.5624 45.5928C15.3552 42.4526 13.4262 41.7755 13.4262 41.333C13.4262 41.0906 13.5899 40.892 13.7897 40.892C13.9897 40.892 15.8153 41.4267 17.8463 42.0804C19.8775 42.7341 23.1909 43.7694 25.2095 44.3812L28.8794 45.4935L30.4166 44.6217C31.2618 44.1419 32.7135 43.3654 33.6423 42.8961L35.331 42.0424L33.1993 41.3475C28.8126 39.9179 24.8111 37.3384 22.6581 34.5525C22.1098 33.8433 21.5249 33.0901 21.3583 32.879C21.0851 32.5331 20.5801 32.6084 16.2556 33.6416ZM88.6254 39.8222C84.793 40.667 79.4961 40.7377 74.8812 40.0053C74.0338 39.8709 73.973 39.9022 73.973 40.472C73.973 40.9564 73.6214 41.3228 72.2712 42.2456C71.1704 42.9976 70.6786 43.4664 70.8786 43.5728C71.154 43.7193 80.4789 46.5052 88.0199 48.6938L90.8051 49.5022L90.738 51.1912C90.2909 62.4689 87.5665 108.211 87.1575 111.308C87.0565 112.073 87.1044 112.337 87.3449 112.337C87.9155 112.337 91.3885 110.23 93.1102 108.839C95.9438 106.549 95.8021 106.914 97.0641 98.6537C100.217 78.0181 101.99 62.6501 103.345 44.2179L103.412 43.3054L100.136 42.2417C95.0935 40.6045 91.0453 39.4355 90.5379 39.4703C90.2853 39.4878 89.4246 39.6459 88.6254 39.8222ZM52.5394 41.5267C48.6475 42.5955 42.8277 43.0656 39.1377 42.6096L36.8769 42.3301L33.4463 44.1785C31.5597 45.1949 29.8939 46.1518 29.7447 46.3051C29.5495 46.5054 29.5331 47.6015 29.6861 50.2162C29.8031 52.2142 30.172 58.5353 30.5059 64.2631C31.7607 85.794 33.2896 110.809 33.427 112.062C33.5498 113.181 33.714 113.505 34.6171 114.408C36.651 116.442 39.7033 117.386 42.1254 116.731L43.0941 116.469L43.0152 90.4869C42.9718 76.1971 43.0113 61.2178 43.1031 57.1999L43.2699 49.8943L47.4203 47.9546C49.7029 46.8876 52.4426 45.618 53.5082 45.1334C55.1064 44.4064 55.3716 44.2099 55.0219 44.013C54.6993 43.8312 54.598 43.4589 54.598 42.4541C54.598 40.9603 54.5997 40.961 52.5394 41.5267ZM67.0707 44.8106C64.976 45.5018 61.2594 45.6604 58.8055 45.1632L56.8572 44.7684L51.0766 47.4204C47.8974 48.8791 45.4545 50.128 45.6482 50.1961C46.4063 50.462 53.9591 52.4303 63.3199 54.801C71.3879 56.8444 73.2385 57.2406 73.734 57.0313C74.6102 56.661 84.1359 52.2632 86.6731 51.0576L88.8382 50.0287L86.4309 49.3247C85.1071 48.9374 80.7395 47.6444 76.7253 46.4516C72.711 45.2586 69.2235 44.2935 68.9753 44.3068C68.727 44.3201 67.8699 44.5468 67.0707 44.8106ZM86.809 52.1195C85.4103 52.8149 81.8989 54.4688 79.0057 55.795L73.7454 58.2062L73.4906 59.4184C72.0479 66.2754 71.9682 66.5639 71.5148 66.5639C70.9207 66.5639 70.9372 66.3134 71.7933 62.3256C72.1929 60.4644 72.5199 58.7698 72.5199 58.5603C72.5199 58.2651 71.3586 57.8943 67.3734 56.9166C64.543 56.2222 58.2204 54.6041 53.3236 53.3213C48.4268 52.0384 44.3797 51.0329 44.33 51.0869C44.2801 51.1409 44.1997 55.212 44.1513 60.1338L44.0629 69.0828L56.4144 72.1693C63.2078 73.867 68.997 75.262 69.2797 75.2693C70.5206 75.3015 78.6637 72.4526 85.2829 69.6704L88.722 68.225L88.8465 67.2127C88.915 66.6561 89.086 63.7484 89.2265 60.7514C89.3672 57.7543 89.5493 54.2941 89.6319 53.0619C89.7159 51.804 89.6874 50.8289 89.5667 50.8384C89.4486 50.8476 88.2076 51.4242 86.809 52.1195ZM107.599 60.3476L102.838 62.8099L102.697 64.0209C101.133 77.4819 97.9939 100.852 97.565 102.226C97.4921 102.459 97.4899 102.65 97.5597 102.65C97.6297 102.65 99.9176 101.067 102.644 99.1318C106.604 96.3217 107.628 95.481 107.735 94.954C107.966 93.8184 112.723 58.9262 112.723 58.3716C112.723 58.082 112.641 57.8541 112.541 57.8652C112.441 57.8761 110.217 58.9933 107.599 60.3476ZM10.1075 62.6283C10.1813 63.1279 11.3545 72.6367 12.7146 83.7592C14.075 94.8816 15.2723 104.076 15.3755 104.191C15.5705 104.408 31.5197 109.915 31.953 109.915C32.115 109.915 32.1441 108.982 32.0378 107.191C30.8225 86.7126 29.5779 66.667 29.5173 66.599C29.4318 66.5035 10.5226 61.7375 10.1862 61.7269C10.0692 61.7232 10.0338 62.1289 10.1075 62.6283ZM87.3776 69.9373C84.4823 71.2519 78.4712 73.5546 74.3065 74.9445L69.6037 76.5139L56.8659 73.3553C49.8601 71.6181 44.0861 70.1967 44.035 70.1967C43.8769 70.1967 43.9357 110.905 44.0963 112.605L44.2474 114.204L56.806 118.488L69.3644 122.772L77.5816 116.938C82.1011 113.73 85.9005 110.974 86.0248 110.813C86.149 110.652 86.4324 107.796 86.6542 104.466C86.9858 99.4885 88.7406 70.2713 88.7453 69.6517C88.7472 69.3798 88.4849 69.4345 87.3776 69.9373Z" fill="white"/>
</svg>
