<svg width="87" height="126" viewBox="0 0 87 126" fill="none" xmlns="http://www.w3.org/2000/svg">
<path d="M14.3119 54.6031C14.3119 50.7905 16.1669 47.1958 19.2221 44.7994M14.3119 54.6031V101.334C14.3118 107.543 14.3122 109.504 16.9307 110.92M14.3119 54.6031L1.00001 46.8691M19.2221 44.7994L47.3736 23.8848C49.665 22.1419 51.3017 21.1616 53.8113 20.2901L80.9807 9.39712C82.458 8.90557 83.5679 8.81734 84.3633 9.20765M19.2221 44.7994L6.12838 36.9564M16.9307 110.92L44.9731 124.1C49.3376 126.279 51.8473 124.318 54.2478 120.179L83.5995 72.5766C85.7801 69.2485 86 67.239 86 63.3175V14.0811C86 11.3187 85.5067 9.76873 84.3633 9.20765M16.9307 110.92L2.74583 102.859C1.00011 101.77 0.999747 98.393 1.00001 92.184V46.8691M1.00001 46.8691C1.00001 44.7268 2.02568 39.745 6.12838 36.9564M6.12838 36.9564L32.9705 16.6954C36.0257 14.0811 36.4621 13.7544 40.2811 12.2293L67.0141 1.66308C69.1269 0.594237 70.0693 0.900613 71.8152 1.98987L84.3633 9.20765M63.1951 30.2028L72.2516 26.6081C73.3428 26.1724 73.3428 26.3903 73.3428 27.3706V34.9958M73.3428 38.2637V43.0566M21.6226 56.5639C21.7348 54.0765 22.0263 52.6951 24.5687 50.3549L49.8832 31.0743C51.9564 29.2225 54.5004 27.6337 57.7394 26.6081L73.9974 20.2901C77.0526 18.983 78.4711 20.2901 78.4711 23.4492V62.664C78.4711 65.9319 78.4711 66.9123 76.5071 69.7444L49.8832 112.881C47.7009 116.693 47.3736 116.802 44.2093 115.495L24.0231 106.018C21.8408 104.82 21.8408 104.82 21.8408 101.334L21.6226 56.5639Z" stroke="white"/>
</svg>
