<svg width="124" height="124" viewBox="0 0 124 124" fill="none" xmlns="http://www.w3.org/2000/svg">
<path fill-rule="evenodd" clip-rule="evenodd" d="M71.8947 3.12737C71.5423 3.24168 70.6048 3.68125 69.8111 4.10411L68.3682 4.8733L67.0611 4.08207C64.5944 2.58874 65.2042 2.34728 51.4649 10.2605C38.7118 17.6061 37.9351 18.1459 36.8269 20.4353C36.544 21.0195 36.2316 21.9727 36.1325 22.5535L35.9521 23.6094L30.2672 26.9053C27.1404 28.7181 24.0551 30.6706 23.4111 31.2444C20.9551 33.432 18.697 37.4952 18.1908 40.6379C18.0339 41.6124 17.9941 54.3791 18.0775 77.0747C18.217 115.091 18.1651 113.76 19.5652 115.28C20.2608 116.034 27.4617 120.342 28.8197 120.815C29.9006 121.192 30.7715 121.166 32.0936 120.717C32.7041 120.509 40.3086 116.242 48.992 111.234C57.6756 106.225 64.9448 102.091 65.1461 102.047C65.3733 101.997 65.833 102.481 66.3595 103.324C66.8257 104.07 67.6431 105.034 68.1759 105.464C69.4779 106.517 74.7099 109.596 76.0564 110.103C77.5619 110.669 81.277 110.668 83.1915 110.101C85.1191 109.53 88.0907 108.033 90.0672 106.637C92.3418 105.03 96.4716 100.781 98.3815 98.084C100.149 95.5878 102.735 90.7365 103.739 88.0352C107.468 78.0004 106.455 68.8047 101.208 65.0579C98.668 63.2444 94.5935 61.0572 92.987 60.6452C91.2404 60.1972 88.8403 60.2892 86.8849 60.8789L85.7345 61.226L85.7035 54.4079C85.6865 50.6579 85.6047 39.307 85.5218 29.1836C85.3726 10.9461 85.3663 10.7684 84.8498 9.80859C84.091 8.39834 83.6141 8.0353 79.1307 5.45213C75.6946 3.47249 74.875 3.09782 73.8026 3.0162C73.1056 2.96317 72.247 3.01306 71.8947 3.12737ZM72.1705 4.58558C71.8365 4.6873 71.2006 4.95782 70.7571 5.18717L69.9509 5.60422L70.8409 6.37438C71.7668 7.17529 72.1385 8.26005 72.1613 10.2281L72.172 11.1319L74.17 9.95197C75.2691 9.30315 76.8585 8.42159 77.7028 7.99267L79.2373 7.21331L78.5354 6.78634C74.854 4.54756 73.6566 4.13366 72.1705 4.58558ZM52.3063 11.4886C41.7971 17.5293 38.4929 19.6419 38.5125 20.3079C38.5152 20.3941 39.24 20.8877 40.1238 21.4045L41.7302 22.3442L42.5653 21.3389C43.4732 20.2457 43.8556 20.0112 58.004 11.8703C62.9325 9.03456 67.1146 6.57588 67.2977 6.40659C67.5738 6.15108 67.4089 5.97186 66.3289 5.35235C65.613 4.94184 64.8611 4.6052 64.6579 4.60374C64.4544 4.60253 58.8962 7.70084 52.3063 11.4886ZM68.3951 7.74031C66.8029 8.46542 44.7406 21.2883 44.1814 21.8136C43.8932 22.0844 43.3434 22.8727 42.9596 23.5651L42.2618 24.8242V31.5362C42.2618 37.6108 42.3023 38.2884 42.6866 38.673C43.0358 39.0222 43.234 39.0513 43.8024 38.8367C45.2216 38.3012 67.9034 25.0594 68.607 24.3558C69.0097 23.9531 69.5941 23.0761 69.9056 22.4074C70.4539 21.2302 70.472 20.988 70.4742 14.818C70.4757 11.1489 70.3769 8.25811 70.2413 8.00478C69.8818 7.33344 69.4306 7.26877 68.3951 7.74031ZM78.8275 9.17164C78.2923 9.4148 76.5863 10.3416 75.0366 11.2317L72.2187 12.8495L72.1349 17.1415C72.0523 21.3605 72.038 21.4605 71.3008 23.0078C70.8881 23.8736 70.1252 24.9916 69.6055 25.4919C69.0729 26.0046 63.4266 29.428 56.672 33.3332C47.6016 38.5778 44.4357 40.2942 43.665 40.3853C42.7472 40.494 42.3737 40.3477 39.8935 38.9074C38.3795 38.0283 36.9419 37.0893 36.699 36.821C36.4466 36.542 36.2076 35.8132 36.141 35.1196C36.0768 34.4524 35.9628 33.9062 35.8877 33.9062C35.8124 33.9062 34.9817 34.3623 34.0415 34.9196C31.2062 36.6003 29.1597 39.0828 27.6446 42.6785L27.004 44.1992V80.5273V116.855L27.5288 117.836C28.2455 119.174 29.3731 119.758 30.8221 119.541C31.9904 119.365 32.4062 119.135 54.1535 106.586L64.816 100.433L64.4803 99.1988C63.7005 96.3308 63.8465 91.1468 64.8146 87.3423C65.0131 86.5617 65.1422 85.8942 65.1015 85.8589C65.0609 85.8235 62.0427 87.5249 58.3949 89.6396C54.7468 91.7542 51.5708 93.4844 51.3368 93.4844C50.9004 93.4844 50.5197 92.8695 50.7376 92.5168C50.8047 92.4081 54.2353 90.3744 58.361 87.9976L65.8623 83.6758L66.3941 82.3438C69.8169 73.7674 76.2281 65.9803 82.6609 62.5866L84.3097 61.7164L84.1653 37.2157C84.0859 23.7402 83.9675 12.2947 83.9021 11.7812C83.5606 9.09995 81.4143 7.99631 78.8275 9.17164ZM61.5552 17.9197C59.4465 20.0284 59.8533 23.3985 62.0725 22.2033C63.6918 21.3314 64.8158 18.4125 63.8892 17.4859C63.3653 16.9621 62.3183 17.1566 61.5552 17.9197ZM37.6896 22.1713C37.6067 22.3868 37.5392 25.4302 37.5392 28.9344C37.5392 36.1293 37.4418 35.7396 39.5372 36.9309L40.6876 37.5851V31.2809C40.6876 27.8138 40.7912 24.7046 40.9177 24.3716C41.1286 23.8172 41.0521 23.7106 40.0095 23.1047C39.3834 22.7409 38.6392 22.2938 38.3556 22.1115C37.9078 21.8233 37.8201 21.8313 37.6896 22.1713ZM50.7178 24.0853C48.7636 24.9187 47.713 28.2858 49.1649 29.0627C50.4381 29.7443 52.6744 27.2013 52.508 25.2611C52.407 24.0839 51.7432 23.6479 50.7178 24.0853ZM30.6969 28.3246C27.9333 29.9167 25.2339 31.5713 24.6984 32.0017C23.7425 32.7699 21.6374 35.2954 21.8234 35.4509C21.8754 35.4943 23.2445 36.3 24.8657 37.2412L27.8136 38.9525L28.4256 38.0276C29.5201 36.3737 31.4549 34.666 33.794 33.2894L36.086 31.9404V28.6852C36.086 26.8947 36.0039 25.4297 35.9039 25.4297C35.8036 25.4297 33.4605 26.7324 30.6969 28.3246ZM63.7632 42.0827C56.6741 46.1772 50.8122 49.6828 50.7367 49.8732C50.6614 50.0633 50.7621 50.3815 50.9612 50.5804C51.3523 50.9715 51.1653 51.074 69.9923 40.1796C76.3906 36.4773 77.379 35.8287 77.379 35.333C77.379 35.0128 77.2189 34.7336 77.0157 34.6992C76.8159 34.6655 70.8523 37.9881 63.7632 42.0827ZM20.3836 38.1501C20.1021 38.8859 19.759 40.1663 19.6209 40.9958C19.4502 42.0229 19.4289 53.7024 19.5543 77.6211C19.7696 118.695 19.3126 113.799 23.1375 116.015C24.4649 116.784 25.5523 117.397 25.5543 117.377C25.556 117.356 25.47 102.028 25.3627 83.3125C25.2556 64.5975 25.2157 48.2396 25.2738 46.9618C25.3542 45.2024 25.5591 44.1186 26.1181 42.4971C26.524 41.3194 26.8115 40.2835 26.757 40.1951C26.6555 40.0312 21.1716 36.8125 20.9936 36.8125C20.9396 36.8125 20.665 37.4143 20.3836 38.1501ZM39.8392 48.3375C37.1756 49.8812 34.8426 51.2706 34.6552 51.4254C34.4675 51.5804 34.1156 52.143 33.8732 52.6758C33.4934 53.5108 33.4319 54.3333 33.4273 58.6372C33.4222 63.3877 33.4474 63.6621 33.9441 64.2938C34.3677 64.8321 34.6075 64.9343 35.2156 64.8358C36.024 64.7043 44.5529 59.8763 45.502 59.0126C46.6197 57.9954 46.7423 57.2853 46.7423 51.825C46.7423 46.7279 46.7413 46.7192 46.1477 46.1258C45.8208 45.7989 45.3575 45.5312 45.1179 45.5312C44.8784 45.5312 42.503 46.794 39.8392 48.3375ZM40.5098 49.6075C38.0812 51.0287 35.847 52.4394 35.545 52.7426C35.0148 53.275 34.9938 53.4663 34.9218 58.4047C34.8523 63.1828 34.8749 63.5049 35.2696 63.3536C35.5019 63.2645 37.6946 62.0329 40.1424 60.6169C43.3228 58.777 44.6924 57.8501 44.9411 57.3691C45.2097 56.8494 45.2892 55.5886 45.2892 51.8402C45.2892 49.1694 45.2073 46.9931 45.1075 47.004C45.0077 47.0149 42.9387 48.1863 40.5098 49.6075ZM41.3294 52.8574C41.1434 53.1572 40.6166 54.081 40.1587 54.9104C39.3459 56.3832 39.3137 56.4096 38.7847 56.0393C38.1294 55.5801 37.5392 55.7557 37.5392 56.4098C37.5392 56.9688 38.9475 58.1267 39.6205 58.1211C40.1914 58.1163 42.9477 53.2885 42.7195 52.6935C42.5055 52.1359 41.7196 52.2287 41.3294 52.8574ZM63.9376 63.3168C56.9444 67.3613 51.0806 70.7999 50.9069 70.9585C50.5405 71.2927 50.6197 71.681 51.1181 71.9953C51.3736 72.1566 54.983 70.1867 64.4239 64.7331C75.9254 58.0892 77.379 57.1834 77.379 56.6612C77.379 56.3243 77.2238 56.0497 77.0157 56.0182C76.8159 55.9882 70.9308 59.2725 63.9376 63.3168ZM87.5201 62.2214C79.5739 64.3766 71.5033 73.076 67.4946 83.8073C64.9834 90.5302 64.8763 98.083 67.2355 102.109C67.8339 103.13 70.1931 105.474 70.4072 105.26C70.465 105.202 70.3497 104.84 70.1507 104.455C68.8533 101.946 68.465 95.7159 69.3466 91.5469C70.9455 83.9848 75.3194 75.9953 80.8663 70.5037C84.9604 66.4507 89.7451 63.7849 93.8565 63.2666L95.3009 63.0845L93.9957 62.5209C92.1696 61.7326 89.7373 61.6202 87.5201 62.2214ZM92.7579 65.0215C90.5068 65.5212 86.6911 67.5376 84.2085 69.5398C77.8178 74.6933 72.4321 83.8058 70.8109 92.208C70.2684 95.0194 70.2662 99.3986 70.8065 101.477C73.0005 109.917 80.3458 111.563 89.0289 105.561C92.3568 103.26 96.1766 99.0479 98.9916 94.5742C101.114 91.2018 103.263 85.7305 104.055 81.6826C104.604 78.8722 104.613 74.2651 104.071 72.2361C102.537 66.4853 98.3096 63.7895 92.7579 65.0215ZM41.038 68.6861C39.047 69.8323 36.8373 71.1009 36.1277 71.5049C35.375 71.9333 34.5675 72.6466 34.1902 73.2164C33.5525 74.1789 33.5419 74.2634 33.4629 78.9347C33.3721 84.2878 33.5489 85.3682 34.5784 85.7598C35.0311 85.9318 35.4081 85.9228 35.8371 85.7295C37.0557 85.1805 44.9402 80.56 45.502 80.0655C46.6205 79.0812 46.7423 78.3668 46.7423 72.7851C46.7423 67.8932 46.7122 67.5403 46.2579 67.0859C45.9915 66.8195 45.5226 66.6016 45.2158 66.6016C44.9089 66.6016 43.0291 67.5396 41.038 68.6861ZM40.451 70.6752C37.2255 72.5482 35.8225 73.5017 35.4256 74.0907C34.9003 74.8701 34.8751 75.1215 34.8751 79.5801C34.8751 82.15 34.957 84.3028 35.0567 84.3643C35.3997 84.5748 44.598 79.0805 44.9419 78.4598C45.1891 78.0127 45.2741 76.6339 45.2807 72.959C45.2853 70.2617 45.2073 68.0595 45.1075 68.0656C45.0077 68.0716 42.9121 69.2458 40.451 70.6752ZM41.0206 74.0488C39.1761 77.2825 39.3829 77.0442 38.784 76.6247C38.1252 76.1631 37.5392 76.3431 37.5392 77.0064C37.5392 77.5589 39.3345 78.9924 39.8017 78.8131C40.2788 78.63 42.8789 73.6947 42.7186 73.277C42.434 72.5356 41.6912 72.8732 41.0206 74.0488ZM86.9539 77.484C86.8161 77.7417 86.7032 78.2973 86.7032 78.7184C86.7032 79.3275 86.4635 79.7 85.5342 80.5358C83.4545 82.4055 82.1339 85.753 82.821 87.4122C83.2191 88.3732 84.1525 88.7264 85.4957 88.4246C86.0789 88.2936 86.6436 88.2405 86.7507 88.3066C86.8577 88.3728 86.9454 89.4532 86.9454 90.7072C86.9454 92.9874 86.9454 92.9876 86.2309 93.357C85.8379 93.5602 84.965 93.8447 84.291 93.9893C83.0365 94.2584 82.586 94.6965 82.586 95.6481C82.586 96.2855 83.0629 96.2891 85.0469 95.6672C85.8912 95.4025 86.6637 95.1845 86.7638 95.1828C86.8638 95.1811 86.9454 95.5611 86.9454 96.0273C86.9454 96.4936 87.0326 96.875 87.1392 96.875C87.5923 96.875 87.9142 96.2271 87.9158 95.3129C87.9173 94.4575 88.0299 94.2555 88.796 93.7336C91.5995 91.8239 93.204 87.3694 91.6487 85.8143C91.1101 85.2757 90.8848 85.2098 90.0139 85.3374C89.4586 85.419 88.7589 85.5542 88.4591 85.6382C87.9185 85.7896 87.9142 85.7702 87.9142 83.2079V80.6247L88.9435 80.1575C89.5094 79.9006 90.1636 79.6879 90.3966 79.685C90.9715 79.6777 91.7892 78.8216 91.7892 78.2266C91.7892 77.5889 90.987 77.5886 89.3094 78.2263C88.6085 78.4927 88.0079 78.7107 87.9747 78.7107C87.9415 78.7109 87.9142 78.3295 87.9142 77.8633C87.9142 76.9083 87.3758 76.6957 86.9539 77.484ZM85.5109 82.5188C84.6282 83.5896 84.1801 84.8136 84.3797 85.6084C84.5354 86.2292 84.9895 86.4072 86.0372 86.2585L86.7032 86.1638V83.8906C86.7032 82.6402 86.6022 81.6172 86.4787 81.6172C86.3552 81.6172 85.9197 82.0229 85.5109 82.5188ZM88.7618 87.6418L88.0353 87.7966L87.9655 90.0351C87.9272 91.2662 87.9585 92.2734 88.0348 92.2734C88.4661 92.2734 89.4661 91.3437 89.9827 90.4619C90.624 89.3677 90.7553 88.188 90.2876 87.7203C89.9761 87.4089 89.8785 87.4038 88.7618 87.6418ZM39.7188 90.4522C36.776 92.1705 34.768 93.504 34.3907 93.9903C33.7908 94.7634 33.7845 94.8215 33.7119 100.331C33.608 108.2 33.5336 108.157 40.4084 104.212C42.893 102.787 45.2703 101.281 45.6912 100.868C46.8501 99.7287 47.0312 98.6405 46.9421 93.3555C46.8241 86.3704 46.7561 86.343 39.7188 90.4522ZM40.5665 91.659C38.1688 93.048 35.962 94.4691 35.6622 94.8166C35.1352 95.4279 35.1173 95.6132 35.1173 100.426C35.1173 105.066 35.1461 105.392 35.5411 105.243C35.7743 105.154 37.9426 103.941 40.3602 102.547C44.0341 100.427 44.8198 99.8755 45.1487 99.1823C45.4766 98.4914 45.5311 97.5987 45.4761 93.8196C45.4362 91.0688 45.3151 89.256 45.1681 89.2095C45.0349 89.1676 42.9642 90.2698 40.5665 91.659ZM40.7099 95.9668C39.2347 98.6565 39.4055 98.4754 38.7666 98.0278C38.0826 97.5488 37.5375 97.7214 37.5442 98.4146C37.5501 98.9978 39.3025 100.384 39.7949 100.195C39.9598 100.132 40.7297 98.9205 41.5059 97.503C42.6602 95.3945 42.8629 94.8607 42.6202 94.5684C42.0741 93.9104 41.6791 94.1996 40.7099 95.9668Z" fill="white"/>
</svg>
