<svg width="89" height="85" viewBox="0 0 89 85" fill="none" xmlns="http://www.w3.org/2000/svg">
<path d="M0 84H9.23875M89 84H82.2249M82.2249 84H69.9066M82.2249 84V67.2906M42.8062 33.2528H54.2007V16.234L82.2249 2V16.234M42.8062 33.2528L42.8738 44.3925M42.8062 33.2528H28.9481M42.8062 33.2528V21.9585M42.8062 10.6642H47.1176V5.09434H6.46713V10.6642H9.23875M42.8062 10.6642H28.9481M42.8062 10.6642V21.9585M9.23875 10.6642H23.0969M9.23875 10.6642V21.9585M9.23875 84H19.0934M9.23875 84V67.2906M19.0934 84V72.5509H15.09H26.1765M19.0934 84H26.1765M26.1765 72.5509V84M26.1765 72.5509H36.955H33.2595V84M26.1765 84H33.2595M33.2595 84H43.1142M55.4325 84V72.5509H62.6696M55.4325 84H62.6696M55.4325 84H43.1142M69.9066 84V72.5509H62.6696M69.9066 84H62.6696M62.6696 84V72.5509M43.1142 84L43.0128 67.2906M82.2249 67.2906H65.2872V61.4113M82.2249 67.2906V61.4113M82.2249 16.234H65.2872V21.8038M82.2249 16.234V21.8038M82.2249 21.8038H65.2872M82.2249 21.8038V27.683M65.2872 21.8038V27.683M65.2872 27.683H82.2249M65.2872 27.683V33.2528M82.2249 27.683V33.2528M82.2249 33.2528H65.2872M82.2249 33.2528V38.8226M65.2872 33.2528V38.8226M65.2872 38.8226H82.2249M65.2872 38.8226V44.7019M82.2249 38.8226V44.7019M82.2249 44.7019H65.2872M82.2249 44.7019V50.2717M65.2872 44.7019V50.2717M65.2872 50.2717H82.2249M65.2872 50.2717V55.8415M82.2249 50.2717V55.8415M82.2249 55.8415H65.2872M82.2249 55.8415V61.4113M65.2872 55.8415V61.4113M65.2872 61.4113H82.2249M43.0128 67.2906H28.9481M43.0128 67.2906L42.9433 55.8415M9.23875 67.2906H23.0969M9.23875 67.2906V55.8415M23.0969 67.2906H28.9481M23.0969 67.2906V55.8415M23.0969 10.6642H28.9481M23.0969 10.6642V21.9585M28.9481 10.6642V21.9585M28.9481 67.2906V55.8415M28.9481 55.8415H42.9433M28.9481 55.8415V44.3925M42.9433 55.8415L42.8738 44.3925M23.0969 55.8415H9.23875M23.0969 55.8415V44.3925M9.23875 55.8415V44.3925M9.23875 44.3925H23.0969M9.23875 44.3925V33.2528M23.0969 44.3925V33.2528M28.9481 44.3925H42.8738M28.9481 44.3925V33.2528M28.9481 33.2528V21.9585M23.0969 33.2528H9.23875M23.0969 33.2528V21.9585M9.23875 33.2528V21.9585M9.23875 21.9585H23.0969M28.9481 21.9585H42.8062M48.6574 39.1321V44.3925H54.2007V39.1321H48.6574ZM48.6574 50.2717H54.2007V55.8415H48.6574V50.2717ZM48.6574 61.4113H54.2007V66.9811H48.6574V61.4113Z" stroke="white" stroke-width="2"/>
</svg>
