<svg width="105" height="105" viewBox="0 0 105 105" fill="none" xmlns="http://www.w3.org/2000/svg">
<path d="M18.5522 65.5855C17.3024 64.9561 16.1934 65.2933 15.1395 66.3404L8.94294 72.4976C7.68573 73.5685 7.68565 75.1747 8.94294 76.3347L24.2997 91.5937C26.3653 93.5569 28.0716 93.3785 29.9574 91.5937L34.8069 86.7751C36.3545 85.2388 36.6999 84.2071 36.0783 83.0275M18.5522 65.5855C18.8999 65.7605 19.2585 66.0103 19.6298 66.3404L34.8069 81.421C35.3886 82.0143 35.8182 82.5339 36.0783 83.0275M18.5522 65.5855C24.2424 56.762 33.1906 54.1156 43.5182 57.9525C45.8531 58.82 47.9259 59.761 53.1274 59.5588C53.3429 59.5588 64.7123 59.5588 70.3701 59.5588C73.3288 59.5588 75.1954 60.6331 76.0278 62.0286M49.3556 68.3038H70.3701C75.5614 68.3038 77.5703 64.6147 76.0278 62.0286M76.0278 62.0286L87.5229 48.94C91.3846 44.3891 98.12 48.94 93.3603 54.7402L78.5424 73.4795C76.4768 76.2457 74.8603 77.0488 72.7948 77.0488L48.9065 77.5842C45.6735 77.5842 43.5182 77.5842 40.4648 79.8151L36.0783 83.0275M17.9235 71.0698C13.972 71.0698 13.4332 77.5839 17.9235 77.5839C22.4138 77.5839 22.2342 71.0698 17.9235 71.0698ZM30.7658 27.7916C15.1395 27.7916 16.5765 49.8324 30.7658 49.8324C46.2124 49.8324 45.2245 27.7916 30.7658 27.7916ZM51.5109 7C35.8846 7 37.3216 29.0408 51.5109 29.0408C66.9574 29.0408 65.9696 7 51.5109 7ZM76.0278 23.2406C60.4015 23.2406 61.8385 45.2815 76.0278 45.2815C91.4744 45.2815 90.4865 23.2406 76.0278 23.2406Z" stroke="white" stroke-width="2"/>
</svg>
