<svg width="98" height="92" viewBox="0 0 98 92" fill="none" xmlns="http://www.w3.org/2000/svg">
<path d="M24.5714 16.0718H15.5714C13.4286 16.0718 11.7142 17.3636 11.7143 20.378V25.5455M24.5714 16.0718V4.44498C24.5714 2.29187 25.4286 1 28 1H70C72.1429 1 73.4286 1.86124 73.4286 4.44498V16.0718M24.5714 16.0718H73.4286M73.4286 16.0718H82C85 16.0718 86.2857 17.3636 86.2857 20.378V25.1148M86.2857 25.1148H92.2857C95.2857 25.1148 97 26.8373 97 29.8517V78.0813C97 81.0957 94.8571 82.8182 92.2857 82.8182H86.2857M86.2857 25.1148V82.8182M86.2857 82.8182V86.6938C86.2857 89.7081 85 91 82 91H16C13.8571 91 11.7143 90.1388 11.7143 87.555V82.8182M11.7143 82.8182H5.28571C2.71429 82.8182 1 81.0957 1 78.512V29.8517C1 27.2679 2.71429 25.5455 5.28571 25.5455H11.7143M11.7143 82.8182V25.5455M25.4286 29.8517L73 77.6507M25.4286 77.6507L73 29.8517M49.4286 26.4067C11.7264 27.3658 13.4286 80.6651 49.4286 80.6651C86.2857 80.6651 83.2857 25.5455 49.4286 26.4067ZM49.4286 38.8947C28 38.8947 30.5714 68.177 49.4286 68.177C68.2857 68.177 68.7143 38.8947 49.4286 38.8947ZM45.1429 5.73684H52.8571V11.3349H45.1429V5.73684ZM58.4286 4.44498H61.8571V7.02871H58.4286V4.44498ZM58.4286 9.61244H61.8571V12.1962H58.4286V9.61244ZM36.1429 4.44498H39.5714V7.02871H36.1429V4.44498ZM36.1429 9.61244H39.5714V12.1962H36.1429V9.61244Z" stroke="white" stroke-width="2"/>
</svg>
