<svg width="108" height="104" viewBox="0 0 108 104" fill="none" xmlns="http://www.w3.org/2000/svg">
<path d="M71.3621 83.875H80.5C84.1552 83.875 85.069 85.2411 85.069 88.4286V98.9018C85.069 101.179 83.2414 103 80.0431 103H62.2241C59.0259 103 57.6552 101.179 57.6552 98.9018V88.4286C57.6552 85.2411 59.4828 83.875 62.2241 83.875H71.3621ZM71.3621 83.875V74.3125C71.3621 67.0268 67.7069 61.5625 58.569 61.5625H53.5431M53.5431 61.5625V64.75C53.5431 67.9375 51.7155 69.7589 48.5172 69.7589H6.93966C2.37069 69.7589 1 67.9375 1 63.8393V37.8839C1 35.6071 2.37069 34.2411 5.56897 34.2411H48.0603C51.7155 34.2411 53.5431 36.0625 53.5431 40.1607V42.4375M53.5431 61.5625V52.2277M79.5862 52.2277V46.9911C79.5862 43.8036 81.4138 42.4375 84.1552 42.4375H102.431C106.086 42.4375 107 43.8036 107 46.9911V57.4643C107 59.7411 105.172 61.5625 101.974 61.5625H84.1552C80.9569 61.5625 79.5862 59.7411 79.5862 57.4643V52.2277ZM79.5862 52.2277H53.5431M53.5431 52.2277V42.4375M53.5431 42.4375H58.569C65.4224 42.4375 71.819 37.8839 71.819 29.6875V20.125M71.819 20.125H62.681C59.4828 20.125 58.1121 18.3036 58.1121 16.0268V5.55357C58.1121 2.36607 59.9397 1 62.681 1H80.9569C84.6121 1 85.5259 2.36607 85.5259 5.55357V16.0268C85.5259 18.3036 83.6983 20.125 80.5 20.125H71.819Z" stroke="white" stroke-width="2"/>
</svg>
