<svg width="81" height="100" viewBox="0 0 81 100" fill="none" xmlns="http://www.w3.org/2000/svg">
<path d="M1 99C1 94.131 1.66789 89.7098 2.88085 85.7362M80 99C80 96.025 79.7507 93.2171 79.28 90.5764M2.88085 85.7362C8.16224 85.5407 11.0195 86.5106 12.9463 90.286C14.4126 92.5688 15.6798 93.4259 19.4012 93.5774C23.5439 93.7459 25.6634 95.6103 26.6268 99M2.88085 85.7362C8.00631 68.9455 22.8643 60.1485 38.1878 59.3452M38.1878 59.3452C30.5768 69.5698 32.6963 74.2164 39.922 75.9589C44.45 77.0508 45.7024 80.7023 43.872 84.8649C40.9347 91.5445 43.872 96.3847 50.8085 92.0285C55.0755 89.2495 57.4735 88.2903 61.7915 90.8668C63.8493 92.217 65.4809 92.2743 69.5951 90.5764C72.7744 89.2644 75.4719 89.6084 79.28 90.5764M38.1878 59.3452C38.9898 59.3031 39.7931 59.283 40.5963 59.2847M79.28 90.5764C75.5685 69.7534 58.095 59.3229 40.5963 59.2847M40.5963 59.2847V51.6189M40.5963 28.6213C49.1199 29.2224 57.0707 23.6843 56.2037 13.2294C50.7548 13.2294 47.0893 14.8239 44.6813 17.392M40.5963 28.6213C29.6134 25.33 27.1085 13.2294 33.0817 2C39.7293 5.29136 42.6962 8.75225 44.6813 17.392M40.5963 28.6213C40.897 24.2489 42.0227 20.2272 44.6813 17.392M40.5963 28.6213V43.953M40.5963 43.953L33.6598 37.0433M40.5963 43.953V51.6189M33.6598 37.0433C33.6598 31.0414 30.0204 26.0377 23.3512 26.8788C22.7732 32.7839 26.2415 38.205 33.6598 37.0433ZM40.5963 51.6189L44.0646 47.924M51.0976 40.4315C51.5188 34.4603 54.8549 29.9766 62.1768 29.9766C63.1402 36.4625 57.4561 41.5932 51.0976 40.4315ZM51.0976 40.4315L44.0646 47.924M44.0646 47.924C49.1707 43.953 53.9878 43.953 58.0341 48.6599C54.4695 54.4682 44.9379 52.3742 44.0646 47.924Z" stroke="white" stroke-width="2"/>
</svg>
