<svg width="26" height="19" viewBox="0 0 26 19" fill="none" xmlns="http://www.w3.org/2000/svg">
<path fill-rule="evenodd" clip-rule="evenodd" d="M8.96737 0.0472717C7.25363 0.308811 5.30952 1.10486 3.85141 2.14212C3.55807 2.35081 3.52905 2.38178 3.35219 2.67561C2.93796 3.36379 2.31309 4.72183 1.90891 5.81231C0.964836 8.35953 0.310731 11.4473 0.0691195 14.4972C0.0422143 14.8368 0.0135132 15.1841 0.00535346 15.269C-0.00945386 15.423 -0.00888669 15.4241 0.217886 15.6774C0.911183 16.4519 2.01779 17.2719 3.08521 17.802C4.38029 18.4452 6.01693 18.8955 7.36553 18.9797L7.69142 19L8.15738 18.3714C8.41364 18.0256 8.6263 17.731 8.62995 17.7168C8.63358 17.7026 8.42391 17.6061 8.16399 17.5023C6.98332 17.0309 5.86552 16.3709 4.94804 15.6034C4.59452 15.3077 4.3617 15.0872 3.89508 14.6063C3.59597 14.298 3.6001 14.2976 4.0211 14.5952C5.78027 15.8388 7.90493 16.6723 10.1836 17.013C12.5508 17.3669 15.151 17.2565 17.3319 16.7095C18.996 16.2922 20.6302 15.5486 21.9789 14.5952C22.3999 14.2976 22.404 14.298 22.1049 14.6063C21.6383 15.0872 21.4055 15.3077 21.052 15.6034C20.1345 16.3709 19.0167 17.0309 17.836 17.5023C17.5761 17.6061 17.3634 17.6986 17.3634 17.7079C17.3634 17.7173 17.5761 18.0118 17.836 18.3625L18.3086 19L18.6345 18.9797C19.9831 18.8955 21.6197 18.4452 22.9148 17.802C23.9822 17.2719 25.0888 16.4519 25.7821 15.6774C26.0089 15.4241 26.0095 15.423 25.9946 15.269C25.9865 15.1841 25.9578 14.8368 25.9309 14.4972C25.6893 11.4473 25.0352 8.35953 24.0911 5.81231C23.6873 4.72271 23.0621 3.36379 22.6486 2.67704C22.4821 2.4004 22.4345 2.34701 22.2125 2.18794C21.5402 1.70637 20.3123 1.03732 19.5283 0.725469C18.7192 0.403642 17.8726 0.168479 17.1273 0.0584802C16.5054 -0.0332485 16.5659 -0.0514546 16.3943 0.279079C16.3132 0.435116 16.2571 0.568672 16.2696 0.575891C16.2821 0.583079 16.5049 0.64707 16.7648 0.71806C18.1514 1.09682 19.2796 1.60251 20.2934 2.29964C20.6615 2.55282 21.319 3.07745 21.5834 3.32905L21.7426 3.48056L21.2907 3.2561C18.9651 2.10108 17.3626 1.57623 15.3996 1.32676C14.5843 1.22315 14.0106 1.19057 13 1.19057C9.90571 1.19057 7.76347 1.72492 4.70926 3.2586C4.3375 3.44529 4.27134 3.47017 4.33615 3.39903C4.4552 3.26832 5.2887 2.60244 5.62785 2.36709C6.74527 1.59165 8.05464 0.999388 9.36909 0.674902C9.55478 0.629085 9.71712 0.585105 9.72988 0.577189C9.74261 0.569273 9.68675 0.435116 9.60572 0.279079C9.43645 -0.0468634 9.48014 -0.0310001 8.96737 0.0472717ZM8.71533 8.37274C7.98829 8.56465 7.40693 9.18924 7.18388 10.0181C7.10042 10.3282 7.10042 11.0353 7.18388 11.3454C7.45677 12.3595 8.2506 13.042 9.15514 13.0402C9.68978 13.0392 10.0975 12.8591 10.512 12.4409C10.8083 12.142 10.9882 11.8397 11.1069 11.4417C11.2436 10.9831 11.2437 10.3784 11.1072 9.92183C10.8783 9.15704 10.2674 8.53099 9.59422 8.3715C9.34297 8.31201 8.94336 8.31254 8.71533 8.37274ZM16.3913 8.37299C15.8972 8.49322 15.3407 8.9518 15.0883 9.44688C14.6843 10.2393 14.6847 11.1289 15.0893 11.9166C15.2632 12.2551 15.6616 12.6626 15.9805 12.8281C17.1258 13.4225 18.4424 12.7341 18.8161 11.3454C18.8996 11.0353 18.8996 10.3282 18.8161 10.0181C18.591 9.18151 18.0068 8.55898 17.2702 8.37081C17.0397 8.31191 16.6383 8.31289 16.3913 8.37299Z" fill="#151419"/>
</svg>
