<svg width="278" height="58" viewBox="0 0 278 58" fill="none" xmlns="http://www.w3.org/2000/svg">
<g opacity="0.6">
<path d="M17.0058 24.3709L27.8043 13.1108L38.6072 24.3801L44.8869 17.8247L27.8043 0L10.7217 17.8201L17.0058 24.3709Z" fill="white"/>
<path d="M0 29.001L6.28182 22.448L12.5636 29.001L6.28182 35.554L0 29.001Z" fill="white"/>
<path d="M17.0058 33.6291L27.8043 44.8938L38.6072 33.6245L44.8913 40.1708L27.8043 58L10.7129 40.1753L17.0058 33.6291Z" fill="white"/>
<path d="M43.0336 29.0026L49.3154 22.4496L55.5972 29.0026L49.3154 35.5556L43.0336 29.0026Z" fill="white"/>
<path d="M34.1762 28.9977L27.8043 22.3461L23.0923 27.2615L22.5478 27.825L21.4236 28.9977L21.4324 29.0114L27.8043 35.6539L34.1806 28.9977H34.1762Z" fill="white"/>
<path d="M65.3985 14.0545H79.0646C82.4547 14.0545 85.0193 14.9707 86.7583 16.8031C87.4135 17.48 87.93 18.2887 88.2765 19.1801C88.623 20.0715 88.7922 21.0271 88.774 21.9888V22.0758C88.7858 22.8637 88.6806 23.6487 88.4622 24.403C88.2676 25.0523 87.9852 25.6693 87.6234 26.2354C87.2862 26.7691 86.8781 27.2503 86.4114 27.6646C85.9554 28.0741 85.4559 28.4276 84.9227 28.7183C86.4604 29.277 87.8431 30.2208 88.9496 31.4669C89.9274 32.6274 90.4164 34.2307 90.4164 36.2769V36.364C90.4441 37.6419 90.1776 38.9081 89.6391 40.0562C89.1173 41.1141 88.3523 42.0207 87.4126 42.6949C86.3503 43.4379 85.1673 43.9734 83.9215 44.2753C82.4413 44.6415 80.9239 44.8184 79.4027 44.8022H65.3985V14.0545ZM77.6944 26.4873C78.8768 26.5469 80.0534 26.2815 81.1066 25.7177C81.5173 25.4675 81.8526 25.1022 82.0745 24.6634C82.2965 24.2246 82.3963 23.7297 82.3625 23.2348V23.1478C82.3842 22.6918 82.2955 22.2374 82.1043 21.8266C81.9132 21.4159 81.6259 21.062 81.269 20.7977C80.5401 20.2572 79.4876 19.9869 78.1116 19.9869H71.7177V26.4873H77.6944ZM79.4202 38.8789C80.5982 38.9478 81.7707 38.6666 82.8016 38.0681C83.2032 37.7989 83.5283 37.4224 83.743 36.9776C83.9578 36.5329 84.0542 36.0362 84.0225 35.5394V35.4523C84.0383 34.9801 83.9429 34.511 83.7446 34.0861C83.5463 33.6612 83.2512 33.2935 82.8851 33.0152C82.1298 32.4044 80.909 32.099 79.2226 32.099H71.7177V38.8789H79.4202Z" fill="white"/>
<path d="M98.558 14.0545H105.044V44.8113H98.558V14.0545Z" fill="white"/>
<path d="M114.859 14.0545H120.84L134.664 32.9832V14.0545H141.067V44.8113H135.547L121.27 25.2596V44.8113H114.859V14.0545Z" fill="white"/>
<path d="M160.705 13.8346H166.678L179.312 44.8113H172.54L169.844 37.9123H157.377L154.68 44.8113H148.067L160.705 13.8346ZM167.53 31.9387L163.604 21.9613L159.695 31.9387H167.53Z" fill="white"/>
<path d="M186.325 14.0545H192.306L206.121 32.9832V14.0545H212.524V44.8113H207.004L192.728 25.2596V44.8113H186.325V14.0545Z" fill="white"/>
<path d="M235.869 45.3519C233.802 45.3703 231.752 44.9527 229.844 44.1242C228.047 43.3502 226.417 42.209 225.05 40.7676C223.682 39.3263 222.605 37.6141 221.882 35.7318C221.119 33.7629 220.733 31.6573 220.745 29.5337V29.4466C220.711 25.2607 222.255 21.2283 225.044 18.2186C226.416 16.7485 228.059 15.5829 229.874 14.792C231.849 13.9389 233.969 13.5134 236.106 13.5414C237.37 13.5316 238.632 13.6497 239.874 13.8942C240.936 14.1038 241.975 14.4277 242.974 14.8608C243.88 15.2587 244.742 15.7595 245.543 16.3542C246.325 16.9341 247.059 17.5807 247.739 18.2873L243.615 23.2531C242.562 22.2391 241.379 21.3805 240.102 20.7015C238.847 20.0756 237.47 19.762 236.08 19.7853C234.922 19.7724 233.775 20.0166 232.715 20.5015C231.655 20.9865 230.706 21.7011 229.932 22.5981C229.163 23.4927 228.562 24.5289 228.157 25.6536C227.734 26.8421 227.522 28.1009 227.529 29.3688V29.4558C227.525 30.7218 227.738 31.9784 228.157 33.1664C228.557 34.2951 229.152 35.3372 229.914 36.2403C230.683 37.1483 231.629 37.8735 232.69 38.3666C233.751 38.8598 234.901 39.1095 236.062 39.0988C237.541 39.1474 239.008 38.8154 240.335 38.1322C241.598 37.4142 242.766 36.5271 243.808 35.4936L247.936 39.8455C247.208 40.6707 246.419 41.4365 245.578 42.136C244.752 42.8175 243.855 43.3999 242.904 43.8722C241.89 44.3698 240.823 44.7375 239.724 44.9671C238.455 45.2325 237.163 45.3614 235.869 45.3519Z" fill="white"/>
<path d="M255.591 14.0545H277.78V20.0739H261.971V26.3132H275.892V32.3327H261.993V38.7919H278V44.8113H255.604L255.591 14.0545Z" fill="white"/>
</g>
</svg>
