<svg width="1920" height="294" viewBox="0 0 1920 294" fill="none" xmlns="http://www.w3.org/2000/svg">
<path d="M0 54.5003C0 54.5003 243.625 0.85285 402 1.0003C644.141 1.22575 778.899 184.932 1021 180.5C1220.9 176.841 1404.81 37.3881 1604.5 27.5C1764.65 19.5697 1920 54.5003 1920 54.5003" stroke="#505050" stroke-width="0.5"/>
<path d="M0 108.046C0 108.046 346.625 293.398 505 293.546C747.141 293.771 887.899 85.4775 1130 81.0459C1329.9 77.3868 1413.56 293.546 1613.5 293.546C1781.5 293.546 1911.5 199.046 1911.5 199.046" stroke="#505050" stroke-width="0.5"/>
<path d="M0 46.929C0 46.929 248.53 4.6625 406.905 4.80996C649.046 5.0354 784.09 170.075 1026.19 165.643C1226.09 161.984 1405.23 39.465 1604.93 30.0478C1765.45 22.4951 1919.6 51.2623 1919.6 51.2623" stroke="#505050" stroke-width="0.5"/>
<path d="M0 39.3577C0 39.3577 253.435 8.47209 411.81 8.61954C653.951 8.84499 789.28 155.217 1031.38 150.786C1231.28 147.127 1405.64 41.5419 1605.36 32.5955C1766.26 25.4205 1919.19 48.0243 1919.19 48.0243" stroke="#505050" stroke-width="0.5"/>
<path d="M0 31.7866C0 31.7866 258.339 12.282 416.714 12.4294C658.855 12.6549 794.471 140.361 1036.57 135.929C1236.47 132.27 1406.06 43.619 1605.79 35.1435C1767.06 28.3461 1918.79 44.7865 1918.79 44.7865" stroke="#505050" stroke-width="0.5"/>
<path d="M0 24.2163C0 24.2163 263.244 16.0926 421.619 16.24C663.76 16.4655 799.661 125.505 1041.76 121.073C1241.66 117.414 1406.48 45.6969 1606.21 37.6922C1767.86 31.2724 1918.38 41.5495 1918.38 41.5495" stroke="#505050" stroke-width="0.5"/>
<path d="M0 20.0476C0 20.0476 268.149 23.3048 426.524 23.4523C668.665 23.6777 804.852 114.05 1046.95 109.619C1246.85 105.96 1406.89 51.1764 1606.64 43.6426C1768.66 37.6005 1917.98 41.7142 1917.98 41.7142" stroke="#505050" stroke-width="0.5"/>
<path d="M0 23.8572C0 23.8572 273.054 38.4953 431.429 38.6428C673.57 38.8682 810.042 110.574 1052.14 106.143C1252.05 102.483 1407.31 64.6341 1607.07 57.5712C1769.47 51.9067 1917.57 49.857 1917.57 49.857" stroke="#505050" stroke-width="0.5"/>
<path d="M0 27.6666C0 27.6666 277.958 53.6857 436.333 53.8332C678.474 54.0586 815.233 107.098 1057.33 102.666C1257.24 99.0072 1407.73 78.0918 1607.5 71.4997C1770.27 66.2128 1917.17 57.9998 1917.17 57.9998" stroke="#505050" stroke-width="0.5"/>
<path d="M0 31.4762C0 31.4762 282.863 68.8762 441.238 69.0237C683.379 69.2491 820.423 103.622 1062.52 99.1902C1262.43 95.5311 1408.14 91.5495 1607.93 85.4283C1771.07 80.5191 1916.76 66.1427 1916.76 66.1427" stroke="#505050" stroke-width="0.5"/>
<path d="M0 35.2858C0 35.2858 287.768 84.0667 446.143 84.2142C688.284 84.4396 825.614 100.146 1067.71 95.714C1267.62 92.0549 1408.56 105.007 1608.36 99.3569C1771.87 94.8253 1916.36 74.2856 1916.36 74.2856" stroke="#505050" stroke-width="0.5"/>
<path d="M0 39.0952C0 39.0952 292.673 99.2571 451.048 99.4046C693.189 99.63 830.804 96.6693 1072.9 92.2378C1272.81 88.5787 1408.98 118.465 1608.79 113.285C1772.67 109.131 1915.95 82.4283 1915.95 82.4283" stroke="#505050" stroke-width="0.5"/>
<path d="M0 42.9048C0 42.9048 297.578 114.448 455.952 114.595C698.093 114.821 835.995 93.1932 1078.1 88.7616C1278 85.1025 1409.39 131.923 1609.21 127.214C1773.48 123.438 1915.55 90.5712 1915.55 90.5712" stroke="#505050" stroke-width="0.5"/>
<path d="M0 46.7142C0 46.7142 302.482 129.638 460.857 129.785C702.998 130.011 841.185 89.7169 1083.29 85.2854C1283.19 81.6263 1409.81 145.38 1609.64 141.143C1774.28 137.744 1915.14 98.714 1915.14 98.714" stroke="#505050" stroke-width="0.5"/>
<path d="M0 50.5238C0 50.5238 307.387 144.829 465.762 144.976C707.903 145.201 846.376 86.2408 1088.48 81.8092C1288.38 78.1501 1410.23 158.838 1610.07 155.071C1775.08 152.05 1914.74 106.857 1914.74 106.857" stroke="#505050" stroke-width="0.5"/>
<path d="M0 54.3334C0 54.3334 312.292 160.019 470.667 160.166C712.808 160.392 851.566 82.7646 1093.67 78.3331C1293.57 74.674 1410.65 172.296 1610.5 169C1775.88 166.356 1914.33 115 1914.33 115" stroke="#505050" stroke-width="0.5"/>
<path d="M0 58.1428C0 58.1428 317.197 175.209 475.571 175.357C717.713 175.582 856.757 79.2883 1098.86 74.8568C1298.76 71.1977 1411.06 185.754 1610.93 182.928C1776.69 180.662 1913.93 123.142 1913.93 123.142" stroke="#505050" stroke-width="0.5"/>
<path d="M0 61.9524C0 61.9524 322.101 190.4 480.476 190.547C722.617 190.773 861.947 75.8122 1104.05 71.3807C1303.95 67.7216 1411.48 199.211 1611.36 196.857C1777.49 194.969 1913.52 131.285 1913.52 131.285" stroke="#505050" stroke-width="0.5"/>
<path d="M0 65.762C0 65.762 327.006 205.59 485.381 205.738C727.522 205.963 867.137 72.3361 1109.24 67.9045C1309.14 64.2454 1411.9 212.669 1611.79 210.786C1778.29 209.275 1913.12 139.428 1913.12 139.428" stroke="#505050" stroke-width="0.5"/>
<path d="M0 74.7744C0 74.7744 331.911 225.984 490.286 226.131C732.427 226.357 872.328 74.0628 1114.43 69.6313C1314.33 65.9722 1412.31 231.33 1612.21 229.917C1779.09 228.784 1912.71 152.774 1912.71 152.774" stroke="#505050" stroke-width="0.5"/>
<path d="M0 85.8642C0 85.8642 336.816 248.455 495.19 248.602C737.332 248.827 877.518 77.8669 1119.62 73.4353C1319.52 69.7762 1412.73 252.068 1612.64 251.126C1779.9 250.371 1912.31 168.197 1912.31 168.197" stroke="#505050" stroke-width="0.5"/>
<path d="M0 96.9548C0 96.9548 341.72 270.926 500.095 271.074C742.236 271.299 882.709 81.6717 1124.81 77.2402C1324.71 73.5811 1413.15 272.806 1613.07 272.336C1780.7 271.958 1911.9 183.621 1911.9 183.621" stroke="#505050" stroke-width="0.5"/>
</svg>
