<svg width="490" height="167" viewBox="0 0 490 167" fill="none" xmlns="http://www.w3.org/2000/svg">
<path d="M1 107.024C121.172 64.414 239.756 7.67695 364.5 1.49999C407.301 -0.619387 449.759 0.322515 489 2.84081" stroke="#505050" stroke-width="0.5"/>
<path d="M1 77.0536C51.5569 98.4637 95.453 132.545 139.78 166" stroke="#505050" stroke-width="0.5"/>
<path d="M1 98.7184C121.044 60.9863 238.89 9.99125 364.929 4.04772C407.668 2.03686 449.955 2.6006 489 4.51053" stroke="#505050" stroke-width="0.5"/>
<path d="M1 90.1197C120.941 57.3091 237.993 12.3009 365.357 6.59549C408.034 4.69242 450.149 4.8843 489 6.19369" stroke="#505050" stroke-width="0.5"/>
<path d="M1 81.221C120.865 53.3694 237.066 14.6058 365.786 9.14345C408.398 7.34743 450.344 7.17373 489 7.89043" stroke="#505050" stroke-width="0.5"/>
<path d="M1 72.0157C120.82 49.1541 236.107 16.9064 366.214 11.6922C408.761 10.0025 450.537 9.4695 489 9.60138" stroke="#505050" stroke-width="0.5"/>
<path d="M1 65.8974C120.808 48.0494 235.117 22.6032 366.643 17.6426C409.123 16.0584 450.729 15.1724 489 14.7273" stroke="#505050" stroke-width="0.5"/>
<path d="M1 67.4363C120.835 54.6169 234.094 36.2728 367.071 31.5711C409.483 30.0918 450.921 28.859 489 27.8448" stroke="#505050" stroke-width="0.5"/>
<path d="M1 68.6479C120.903 60.8625 233.039 49.9367 367.5 45.4997C409.843 44.1244 451.112 42.551 489 40.9757" stroke="#505050" stroke-width="0.5"/>
<path d="M1 69.5265C121.018 66.7696 231.95 63.5946 367.929 59.4283C410.201 58.1562 451.302 56.2486 489 54.1201" stroke="#505050" stroke-width="0.5"/>
<path d="M489 67.2778C451.491 69.9516 410.558 72.1874 368.357 73.3569C230.827 77.2463 121.183 72.3213 1 70.0672" stroke="#505050" stroke-width="0.5"/>
<path d="M489 80.4488C451.679 83.6599 410.914 86.2177 368.786 87.2854C229.672 90.8916 121.405 77.4997 1 70.266" stroke="#505050" stroke-width="0.5"/>
<path d="M1 70.1198C121.689 82.2865 228.482 104.53 369.214 101.214C411.268 100.247 451.867 97.3738 489 93.6333" stroke="#505050" stroke-width="0.5"/>
<path d="M1 69.6264C122.041 86.6629 227.259 118.162 369.643 115.143C411.621 114.276 452.054 111.093 489 106.831" stroke="#505050" stroke-width="0.5"/>
<path d="M1 68.7854C122.467 90.6098 226.002 131.787 370.071 129.071C411.973 128.304 452.24 124.818 489 120.042" stroke="#505050" stroke-width="0.5"/>
<path d="M1 67.5974C122.973 94.1077 224.713 145.404 370.5 143C412.324 142.331 452.425 138.547 489 133.267" stroke="#505050" stroke-width="0.5"/>
<path d="M1 66.0648C123.568 97.1368 223.391 159.014 370.929 156.928C412.673 156.358 452.609 152.283 489 146.504" stroke="#505050" stroke-width="0.5"/>
<path d="M1 64.1917C103.825 93.7953 188.921 149.464 301 166.085" stroke="#505050" stroke-width="0.5"/>
<path d="M1 61.9843C87.4085 89.6561 160.016 139.052 247.203 166" stroke="#505050" stroke-width="0.5"/>
<path d="M1 64.6537C74.4369 90.3754 136.937 134.34 207.045 166" stroke="#505050" stroke-width="0.5"/>
<path d="M1 69.0845C64.4818 93.0585 119.039 132.682 177.36 166" stroke="#505050" stroke-width="0.5"/>
<path d="M1 73.2129C57.1835 95.8071 105.767 132.319 156.025 166" stroke="#505050" stroke-width="0.5"/>
</svg>
