<svg width="490" height="167" viewBox="0 0 490 167" fill="none" xmlns="http://www.w3.org/2000/svg">
<path d="M1205 28.5002C1205 28.5002 1049.65 -6.43033 889.5 1.49993C689.809 11.3881 505.902 150.841 306 154.5C186.87 156.681 93.7314 113.307 1 68.6568" stroke="#505050" stroke-width="0.5"/>
<path d="M97 166.072C194.568 112.505 291.625 57.3042 415 55.0459C441.533 54.5602 466.019 57.9472 489 64.1874" stroke="#505050" stroke-width="0.5"/>
<path d="M1204.6 25.2622C1204.6 25.2622 1050.45 -3.50497 889.929 4.04765C690.226 13.4649 511.093 135.984 311.19 139.643C189.899 141.863 95.4789 101.547 1 60.7296" stroke="#505050" stroke-width="0.5"/>
<path d="M1204.19 22.0243C1204.19 22.0243 1051.26 -0.579566 890.357 6.59543C690.643 15.5418 516.283 121.127 316.381 124.786C192.932 127.046 97.2436 90.0951 1 53.3043" stroke="#505050" stroke-width="0.5"/>
<path d="M1203.79 18.7865C1203.79 18.7865 1052.06 2.34603 890.786 9.14339C691.06 17.6189 521.474 106.27 321.571 109.929C195.968 112.228 99.0257 78.961 1 46.3814" stroke="#505050" stroke-width="0.5"/>
<path d="M1203.38 15.5495C1203.38 15.5495 1052.86 5.27243 891.214 11.6922C691.476 19.6968 526.664 91.414 326.762 95.0731C199.008 97.4116 100.826 68.1534 1 39.9607" stroke="#505050" stroke-width="0.5"/>
<path d="M1 37.4417C102.644 61.081 202.052 85.9964 331.952 83.6187C386.751 82.6156 438.554 77.7709 489 71.1108" stroke="#505050" stroke-width="0.5"/>
<path d="M1 43.3987C104.48 62.3286 205.102 82.5594 337.143 80.1425C390.365 79.1683 440.424 75.7705 489 71.1754" stroke="#505050" stroke-width="0.5"/>
<path d="M1 49.8504C106.336 63.9256 208.156 79.1224 342.333 76.6663C393.95 75.7215 442.273 73.6262 489 70.9239" stroke="#505050" stroke-width="0.5"/>
<path d="M1 56.7932C108.21 65.8796 211.216 75.6852 347.524 73.1901C397.506 72.2752 444.101 71.3402 489 70.3566" stroke="#505050" stroke-width="0.5"/>
<path d="M1 64.2225C110.104 68.1978 214.282 72.2479 352.714 69.7139C401.033 68.8295 445.907 68.9155 489 69.4748" stroke="#505050" stroke-width="0.5"/>
<path d="M1 72.1331C112.017 70.8875 217.353 68.8105 357.905 66.2377C404.532 65.3843 447.691 66.3558 489 68.2817" stroke="#505050" stroke-width="0.5"/>
<path d="M1 80.519C113.95 73.9555 220.431 65.3729 363.095 62.7615C408.003 61.9395 449.454 63.6651 489 66.7817" stroke="#505050" stroke-width="0.5"/>
<path d="M1 89.3736C115.903 77.4087 223.516 61.9353 368.286 59.2854C411.449 58.4953 451.195 60.8481 489 64.9808" stroke="#505050" stroke-width="0.5"/>
<path d="M1 98.6897C117.875 81.2536 226.607 58.4975 373.476 55.8092C414.869 55.0515 452.915 57.9103 489 62.8869" stroke="#505050" stroke-width="0.5"/>
<path d="M1 108.459C119.868 85.4964 229.706 55.0596 378.667 52.333C418.265 51.6081 454.614 54.8576 489 60.5095" stroke="#505050" stroke-width="0.5"/>
<path d="M1 118.674C121.881 90.1434 232.812 51.6216 383.857 48.8568C421.64 48.1652 456.293 51.6966 489 57.8603" stroke="#505050" stroke-width="0.5"/>
<path d="M1 129.325C123.914 95.2004 235.925 48.1834 389.048 45.3806C424.994 44.7226 457.953 48.4347 489 54.9527" stroke="#505050" stroke-width="0.5"/>
<path d="M1 140.402C125.967 100.673 239.047 44.7451 394.238 41.9044C428.33 41.2804 459.596 45.0795 489 51.8021" stroke="#505050" stroke-width="0.5"/>
<path d="M1 157.098C128.041 111.77 242.176 46.5096 399.429 43.6312C431.649 43.0414 461.222 46.8426 489 53.6286" stroke="#505050" stroke-width="0.5"/>
<path d="M26.1904 166C145.4 115.861 255.739 50.1604 404.619 47.4352C434.954 46.88 462.833 50.6069 489 57.3257" stroke="#505050" stroke-width="0.5"/>
<path d="M65.1328 166C171.907 113.479 275.134 53.7054 409.809 51.2402C438.248 50.7196 464.431 54.3052 489 60.8379" stroke="#505050" stroke-width="0.5"/>
</svg>
