<svg width="490" height="193" viewBox="0 0 490 193" fill="none" xmlns="http://www.w3.org/2000/svg">
<path d="M-182 54.5003C-182 54.5003 61.6251 0.85285 220 1.0003C462.141 1.22575 596.899 184.932 839 180.5C1038.9 176.841 1222.81 37.3881 1422.5 27.5C1582.65 19.5697 1738 54.5003 1738 54.5003" stroke="#505050" stroke-width="0.5"/>
<path d="M-182 108.046C-182 108.046 164.625 293.398 323 293.546C565.141 293.771 705.899 85.4775 948 81.0459C1147.9 77.3868 1231.56 293.546 1431.5 293.546C1599.5 293.546 1729.5 199.046 1729.5 199.046" stroke="#505050" stroke-width="0.5"/>
<path d="M489 67.466C409.278 34.0254 326.522 4.9045 224.905 4.80989C157.863 4.74748 74.6662 12.2853 1.00488 21" stroke="#505050" stroke-width="0.5"/>
<path d="M489 62.3175C410.758 33.4775 329.3 8.71221 229.809 8.61958C161.866 8.55632 76.4267 14.2046 1.0083 20.6754" stroke="#505050" stroke-width="0.5"/>
<path d="M489 57.6617C412.23 33.2246 332.085 12.5201 234.714 12.4294C165.886 12.3653 78.1785 16.0129 1 20.1581" stroke="#505050" stroke-width="0.5"/>
<path d="M489 53.4933C413.692 33.2576 334.877 16.3288 239.619 16.2401C169.93 16.1752 79.9362 17.7118 1 19.4531" stroke="#505050" stroke-width="0.5"/>
<path d="M489 53.2064C415.147 36.9671 337.676 23.539 244.524 23.4523C173.994 23.3866 81.6932 22.7042 1 21.9674" stroke="#505050" stroke-width="0.5"/>
<path d="M489 61.3706C416.595 48.9199 340.483 38.7275 249.429 38.6428C178.077 38.5763 83.449 35.5687 1 32.2835" stroke="#505050" stroke-width="0.5"/>
<path d="M489.003 70C418.038 61.1282 343.298 53.9161 254.333 53.8332C182.179 53.7661 85.2035 48.3289 1 42.4286" stroke="#505050" stroke-width="0.5"/>
<path d="M489 79.085C419.471 73.5816 346.12 69.1046 259.238 69.0237C186.299 68.9558 86.9561 60.9865 1 52.4082" stroke="#505050" stroke-width="0.5"/>
<path d="M489 88.6177C420.902 86.271 348.951 84.2931 264.143 84.2141C190.437 84.1455 88.7068 73.5436 1 62.2273" stroke="#505050" stroke-width="0.5"/>
<path d="M1 71.8913C90.4551 86.0019 194.592 99.3353 269.048 99.4046C351.79 99.4816 422.328 99.1866 489 98.588" stroke="#505050" stroke-width="0.5"/>
<path d="M1 81.4049C92.2009 98.3634 198.764 114.525 273.952 114.595C354.639 114.67 423.75 112.319 489 108.986" stroke="#505050" stroke-width="0.5"/>
<path d="M1 90.7732C93.9438 110.63 202.952 129.715 278.857 129.786C357.496 129.859 425.17 125.658 489 119.801" stroke="#505050" stroke-width="0.5"/>
<path d="M1 100.001C95.6838 122.803 207.155 144.905 283.762 144.976C360.362 145.047 426.587 139.196 489 131.021" stroke="#505050" stroke-width="0.5"/>
<path d="M1 109.092C97.4204 134.885 211.374 160.095 288.667 160.166C363.237 160.236 428.002 152.922 489 142.636" stroke="#505050" stroke-width="0.5"/>
<path d="M1 118.051C99.1537 146.878 215.607 175.284 293.571 175.357C366.121 175.424 429.416 166.827 489 154.633" stroke="#505050" stroke-width="0.5"/>
<path d="M1 126.883C100.883 158.782 219.854 190.474 298.476 190.547C369.014 190.613 430.827 180.904 488.997 167" stroke="#505050" stroke-width="0.5"/>
<path d="M1 135.591C63.3447 157.072 133.18 178.573 196.153 192M437.587 192C455.117 188.427 472.214 184.283 489 179.723" stroke="#505050" stroke-width="0.5"/>
<path d="M1 149.383C41.4543 164.321 85.0856 179.315 128 192.035" stroke="#505050" stroke-width="0.5"/>
<path d="M72.5565 192C48.1421 183.311 24.0515 174.206 1 165.136" stroke="#505050" stroke-width="0.5"/>
<path d="M1 180.778C9.96824 184.52 19.0949 188.27 28.3382 192" stroke="#505050" stroke-width="0.5"/>
</svg>
