<svg width="640" height="78" viewBox="0 0 640 78" fill="none" xmlns="http://www.w3.org/2000/svg">
<path d="M0 20.795C0 20.795 81.2084 0.945555 134 1.00011C214.714 1.08353 259.633 69.0544 340.333 67.4147C406.967 66.0609 468.27 14.4636 534.833 10.805C588.217 7.87078 640 20.795 640 20.795" stroke="#505050" stroke-width="0.5"/>
<path d="M0 40.6067C0 40.6067 115.542 109.187 168.333 109.241C249.047 109.325 295.966 32.2563 376.667 30.6166C443.301 29.2627 471.188 109.241 537.833 109.241C593.833 109.241 637.167 74.2764 637.167 74.2764" stroke="#505050" stroke-width="0.5"/>
<path d="M0 17.9933C0 17.9933 82.8433 2.35476 135.635 2.40932C216.349 2.49274 261.363 63.557 342.063 61.9173C408.698 60.5635 468.408 15.2316 534.976 11.7473C588.485 8.95282 639.865 19.5966 639.865 19.5966" stroke="#505050" stroke-width="0.5"/>
<path d="M0 15.1926C0 15.1926 84.4782 3.76497 137.27 3.81953C217.984 3.90294 263.093 58.0605 343.794 56.4209C410.428 55.067 468.548 16.0007 535.119 12.6906C588.752 10.0358 639.73 18.3992 639.73 18.3992" stroke="#505050" stroke-width="0.5"/>
<path d="M0 12.391C0 12.391 86.1131 5.17427 138.905 5.22882C219.618 5.31224 264.824 52.5632 345.524 50.9235C412.158 49.5697 468.687 16.7689 535.262 13.633C589.02 11.118 639.595 17.2009 639.595 17.2009" stroke="#505050" stroke-width="0.5"/>
<path d="M0 9.58963C0 9.58963 87.7481 6.58387 140.54 6.63843C221.253 6.72184 266.554 47.0662 347.254 45.4265C413.888 44.0727 468.826 17.5374 535.405 14.5757C589.287 12.2004 639.46 16.0029 639.46 16.0029" stroke="#505050" stroke-width="0.5"/>
<path d="M0 8.04785C0 8.04785 89.383 9.25302 142.175 9.30758C222.888 9.39099 268.284 42.8287 348.984 41.189C415.618 39.8352 468.964 19.5655 535.548 16.778C589.554 14.5424 639.325 16.0644 639.325 16.0644" stroke="#505050" stroke-width="0.5"/>
<path d="M0 9.45703C0 9.45703 91.0179 14.8731 143.81 14.9277C224.523 15.0111 270.014 41.5422 350.714 39.9025C417.348 38.5486 469.103 24.5444 535.69 21.9312C589.822 19.8353 639.19 19.0769 639.19 19.0769" stroke="#505050" stroke-width="0.5"/>
<path d="M0 10.8662C0 10.8662 92.6528 20.4932 145.444 20.5478C226.158 20.6312 271.744 40.2556 352.444 38.616C419.079 37.2621 469.242 29.5234 535.833 27.0844C590.089 25.1283 639.055 22.0894 639.055 22.0894" stroke="#505050" stroke-width="0.5"/>
<path d="M0 12.2764C0 12.2764 94.2877 26.1143 147.079 26.1689C227.793 26.2523 273.474 38.9701 354.175 37.3304C420.809 35.9766 469.381 34.5034 535.976 32.2386C590.357 30.4222 638.921 25.1029 638.921 25.1029" stroke="#505050" stroke-width="0.5"/>
<path d="M0 13.6855C0 13.6855 95.9227 31.7344 148.714 31.789C229.428 31.8724 275.205 37.6836 355.905 36.0439C422.539 34.6901 469.52 39.4824 536.119 37.3918C590.624 35.7151 638.786 28.1154 638.786 28.1154" stroke="#505050" stroke-width="0.5"/>
<path d="M0 15.0947C0 15.0947 97.5576 37.3545 150.349 37.4091C231.063 37.4925 276.935 36.3971 357.635 34.7574C424.269 33.4035 469.659 44.4614 536.262 42.545C590.892 41.008 638.651 31.1279 638.651 31.1279" stroke="#505050" stroke-width="0.5"/>
<path d="M0 16.5049C0 16.5049 99.1925 42.9756 151.984 43.0302C232.698 43.1136 278.665 35.1115 359.365 33.4719C425.999 32.118 469.798 49.4414 536.405 47.6992C591.159 46.302 638.516 34.1414 638.516 34.1414" stroke="#505050" stroke-width="0.5"/>
<path d="M0 17.9141C0 17.9141 100.827 48.5957 153.619 48.6503C234.333 48.7337 280.395 33.825 361.095 32.1853C427.729 30.8315 469.937 54.4204 536.548 52.8524C591.426 51.5949 638.381 37.1539 638.381 37.1539" stroke="#505050" stroke-width="0.5"/>
<path d="M0 19.3232C0 19.3232 102.462 54.2159 155.254 54.2704C235.968 54.3538 282.125 32.5385 362.825 30.8988C429.46 29.5449 470.076 59.3994 536.691 58.0056C591.694 56.8878 638.246 40.1664 638.246 40.1664" stroke="#505050" stroke-width="0.5"/>
<path d="M0 20.7334C0 20.7334 104.097 59.8369 156.889 59.8915C237.603 59.9749 283.855 31.2529 364.556 29.6133C431.19 28.2594 470.215 64.3793 536.833 63.1598C591.961 62.1817 638.111 43.1799 638.111 43.1799" stroke="#505050" stroke-width="0.5"/>
<path d="M0 22.1426C0 22.1426 105.732 65.4571 158.524 65.5116C239.238 65.595 285.586 29.9664 366.286 28.3267C432.92 26.9729 470.354 69.3583 536.976 68.313C592.229 67.4747 637.976 46.1924 637.976 46.1924" stroke="#505050" stroke-width="0.5"/>
<path d="M0 23.5527C0 23.5527 107.367 71.0781 160.159 71.1327C240.872 71.2161 287.316 28.6808 368.016 27.0412C434.65 25.6873 470.493 74.3383 537.119 73.4672C592.496 72.7686 637.841 49.2058 637.841 49.2058" stroke="#505050" stroke-width="0.5"/>
<path d="M0 24.9619C0 24.9619 109.002 76.6982 161.794 76.7528C242.507 76.8362 289.046 27.3943 369.746 25.7547C436.38 24.4008 470.632 79.3173 537.262 78.6204C592.764 78.0615 637.706 52.2183 637.706 52.2183" stroke="#505050" stroke-width="0.5"/>
<path d="M0 28.2962C0 28.2962 110.637 84.2434 163.429 84.298C244.142 84.3814 290.776 28.0329 371.476 26.3932C438.11 25.0394 470.771 86.2214 537.405 85.6987C593.031 85.2795 637.571 57.1559 637.571 57.1559" stroke="#505050" stroke-width="0.5"/>
<path d="M0 32.4C0 32.4 112.272 92.5582 165.063 92.6128C245.777 92.6962 292.506 29.441 373.206 27.8014C439.84 26.4475 470.91 93.8951 537.548 93.5466C593.298 93.2671 637.436 62.8631 637.436 62.8631" stroke="#505050" stroke-width="0.5"/>
<path d="M0 36.5032C0 36.5032 113.907 100.872 166.698 100.927C247.412 101.01 294.236 30.8485 374.937 29.2089C441.571 27.855 471.049 101.568 537.69 101.394C593.566 101.254 637.302 68.5696 637.302 68.5696" stroke="#505050" stroke-width="0.5"/>
</svg>
