<svg width="286" height="53" viewBox="0 0 286 53" fill="none" xmlns="http://www.w3.org/2000/svg">
<path opacity="0.6" fill-rule="evenodd" clip-rule="evenodd" d="M-0.000488281 21.7436V43.4878L13.1295 43.2964C26.1789 43.1066 26.2772 43.0967 29.1408 41.69C30.7253 40.9115 32.552 39.5548 33.2005 38.6757C35.9227 34.9837 36.6574 29.2367 34.9019 25.3627C33.8999 23.1504 31.1194 20.4307 29.8595 20.4307C28.755 20.4307 28.9495 19.9855 30.6982 18.5099C32.9337 16.624 33.8011 14.6452 33.7881 11.4626C33.7678 6.4967 31.2333 2.89119 26.5195 1.1205C25.2783 0.654364 20.7735 0.367594 12.3495 0.218472L-0.000488281 0V21.7436ZM37.9595 21.716V43.3725H43.4252H48.891L48.7552 21.8646L48.6195 0.356644L43.2895 0.208042L37.9595 0.0594393V21.716ZM168.48 21.7342V43.3725H173.42H178.36V41.168V38.9635L179.926 40.8693C181.884 43.251 184.289 44.0686 188.54 43.797C192.966 43.5144 195.682 41.6488 197.848 37.4035C199.235 34.6828 199.429 33.7297 199.592 28.8207C199.749 24.091 199.608 22.8495 198.61 20.17C195.507 11.8338 186.727 8.9374 180.685 14.2562L178.88 15.846V7.97124V0.0959415H173.68H168.48V21.7342ZM11.4395 13.0794V16.7809L15.2095 16.8633C20.5234 16.9801 20.9493 16.905 21.9695 15.676C23.1551 14.2479 23.1239 12.5069 21.8858 10.973C20.9976 9.8728 20.3898 9.72264 16.1658 9.55996L11.4395 9.37746V13.0794ZM135.46 11.803C135.174 11.9099 134.29 12.1409 133.497 12.3166C132.702 12.4923 131.123 13.5685 129.987 14.7083L127.92 16.7809V14.6953V12.6097H122.712H117.504L117.642 27.8607L117.78 43.1118L123.11 43.2604L128.44 43.409V34.2495C128.44 27.4744 128.633 24.6239 129.185 23.3C129.959 21.4433 131.421 20.7118 133.703 21.0392C135.877 21.351 136.223 23.0743 136.232 33.6144L136.24 43.409L141.493 43.2604L146.745 43.1118L146.67 35.2626C146.555 23.3167 147.273 20.9521 151.016 20.9521C153.969 20.9521 154.152 21.5888 154.439 32.8923L154.7 43.1118H159.9H165.1V31.3802C165.1 20.0903 165.053 19.5542 163.867 17.1375C161.64 12.6029 156.97 10.755 151.654 12.3046C149.667 12.8839 148.341 13.6858 147.182 15.0097C145.62 16.7939 145.497 16.8414 144.803 15.9237C144.401 15.3913 144.065 14.799 144.056 14.6077C143.995 13.3219 137.269 11.1273 135.46 11.803ZM212.24 12.3589C208.719 13.3422 205.923 15.3517 203.91 18.3446C199.444 24.9868 200.664 35.4268 206.492 40.4287C209.664 43.1509 212.882 44.0644 218.327 43.7876C224.626 43.4674 228.222 41.3995 230.56 36.7507C232.125 33.6389 231.921 33.4658 226.668 33.4658C222.082 33.4658 221.892 33.5138 220.48 35.0301C217.919 37.7789 213.905 36.8508 212.364 33.1535C211.966 32.1967 211.64 31.289 211.64 31.1362C211.64 30.9834 216.188 30.8588 221.749 30.8588C227.309 30.8588 231.96 30.6831 232.083 30.4678C232.564 29.632 231.388 22.9423 230.323 20.461C229.067 17.5343 225.66 14.0941 222.852 12.9178C219.975 11.7123 215.413 11.472 212.24 12.3589ZM263.35 12.5502C260.583 13.8104 257.767 17.173 256.698 20.4928C255.695 23.6066 255.559 30.4078 256.448 32.9971C259.205 41.0288 268.24 44.2751 274.093 39.3374L275.753 37.9364L275.492 40.6597C275.189 43.8256 274.086 45.3043 271.691 45.7548C269.95 46.0823 266.759 44.8695 266.759 43.8804C266.759 43.5847 264.588 43.3725 261.56 43.3725C255.502 43.3725 255.313 43.5999 257.929 47.7357C259.138 49.6466 260.184 50.5392 262.479 51.618C265.133 52.8652 266.057 53.0164 270.919 52.9987C277.261 52.9758 280.231 51.8991 282.91 48.6523C285.695 45.2757 286 43.1556 286 27.1141V12.6097H280.741H275.481L275.71 14.1739C275.836 15.0342 275.881 15.7381 275.81 15.7381C275.738 15.7381 274.999 15.0561 274.168 14.2229C271.537 11.5846 267.009 10.8843 263.35 12.5502ZM60.5197 12.9314C57.394 14.043 54.3468 16.9128 52.6812 20.3139C51.4078 22.9142 51.2195 23.9028 51.2195 27.9911C51.2195 32.0794 51.4078 33.068 52.6812 35.6683C55.6114 41.6519 60.3783 44.1682 68.0831 43.799C71.786 43.6212 73.0325 43.3334 74.9159 42.2202C80.2574 39.0631 82.3805 35.028 82.4039 27.9911C82.4174 23.8845 82.237 22.9256 80.9578 20.3139C79.2423 16.8106 76.2263 14.0331 72.9061 12.8985C69.9457 11.887 63.4078 11.9047 60.5197 12.9314ZM92.1768 13.6483C86.6076 16.4691 84.0627 20.9454 84.0221 27.9911C83.9935 33.0701 85.3346 36.6991 88.3626 39.7352C91.3323 42.7135 94.5173 43.8939 99.5795 43.8939C106.405 43.8939 110.998 41.2212 113.718 35.6683C114.997 33.0565 115.177 32.0977 115.164 27.9911C115.146 22.642 114.009 19.3634 111.123 16.344C108.254 13.3422 105.893 12.435 100.36 12.2082C95.6561 12.0153 95.264 12.0846 92.1768 13.6483ZM249.34 12.8114C247.73 13.5419 246.012 15.2198 245.006 17.0416C244.526 17.9123 244.429 17.6329 244.415 15.347L244.4 12.6097H239.2H233.999V27.9911V43.3725H239.46H244.92L244.931 35.4211C244.94 28.8123 245.105 27.111 245.905 25.3444C247.047 22.8219 249.449 21.4735 252.798 21.4735L255.06 21.4741L254.976 16.9112L254.893 12.349L252.896 12.2264C251.798 12.1586 250.198 12.4219 249.34 12.8114ZM214.92 19.3931C213.702 19.8848 212.487 21.5184 211.919 23.4288C211.573 24.5879 211.629 24.602 216.545 24.602C219.813 24.602 221.52 24.4054 221.52 24.0289C221.52 22.4527 219.75 19.938 218.28 19.4244C216.442 18.7815 216.433 18.7815 214.92 19.3931ZM64.336 20.0397C61.0262 22.5409 61.152 34.2871 64.5081 36.088C69.4611 38.7461 73.1999 31.8417 71.1745 23.7766C70.2536 20.1101 66.7654 18.2038 64.336 20.0397ZM96.7975 20.608C95.3649 22.1373 94.6385 24.6233 94.6426 27.9875C94.6484 33.493 96.395 36.5943 99.489 36.5943C102.614 36.5943 104.52 33.335 104.52 27.9911C104.52 22.7171 102.608 19.3879 99.5795 19.3879C98.5338 19.3879 97.5271 19.8295 96.7975 20.608ZM182.028 20.0485C178.967 21.6018 177.687 28.0464 179.552 32.5117C180.515 34.8158 181.929 35.6662 184.44 35.4514C187.202 35.2152 188.416 33.3073 188.67 28.804C188.908 24.5754 188.151 21.8896 186.312 20.4391C184.779 19.2299 183.815 19.1418 182.028 20.0485ZM268.71 20.4724C266.185 21.9464 265.369 28.1173 267.282 31.2629C270.924 37.2523 277.409 31.764 275.53 24.2823C274.623 20.67 271.428 18.8853 268.71 20.4724ZM11.5487 29.425L11.6995 33.7265L14.5595 33.8923C21.3091 34.2844 24.1561 32.9205 24.1561 29.2946C24.1561 25.8116 22.9024 25.1234 16.561 25.1234H11.3974L11.5487 29.425Z" fill="white"/>
</svg>
