<svg width="294" height="115" viewBox="0 0 294 115" fill="none" xmlns="http://www.w3.org/2000/svg">
<rect width="294" height="115" rx="30" fill="#191919"/>
<path d="M64.0203 58.1921C64.0203 58.1921 63.0935 46.9374 73.7533 39.0581C78.1669 41.8312 85.3463 46.1569 85.3463 46.1569L64.0203 58.1921Z" fill="white"/>
<path d="M64.0203 58.1921C64.0203 58.1921 63.0935 46.9374 73.7533 39.0581C78.1669 41.8312 85.3463 46.1569 85.3463 46.1569L64.0203 58.1921Z" fill="white"/>
<path d="M75.0332 38.2673L95.9106 51.0131V36.9768C95.9106 36.9768 86.0673 31.7646 75.0332 38.2673Z" fill="white"/>
<path d="M97.3008 37.646V62.4736L109.417 55.7428C109.417 55.7428 108.865 43.6705 97.3008 37.646Z" fill="white"/>
<path d="M87.9883 69.2277L99.7732 76.4664C99.7732 76.4664 110.43 69.4111 109.458 57.2285" fill="white"/>
<path d="M77.3726 64.4556V78.4961C77.3726 78.4961 87.535 83.8631 98.4758 77.2416C95.9805 75.7113 77.3726 64.4556 77.3726 64.4556Z" fill="white"/>
<path d="M75.9154 77.7015V53.0723L64 59.6927C64 59.6927 64.6819 71.8785 75.9154 77.7015Z" fill="white"/>
<path d="M86.641 46.9814L77.3726 52.3665V63.004L86.641 68.3668L95.9105 63.092V52.3665L86.641 46.9814ZM93.4163 61.6795L86.641 65.6297L79.8222 61.724V53.8013L86.641 49.8511L93.4163 53.8013V61.6795Z" fill="white"/>
<path d="M77.3726 52.3665L86.641 46.9814L95.9105 52.3665L93.4163 53.8013L86.641 49.85L79.8222 53.8013L77.3726 52.3665Z" fill="white"/>
<path d="M77.3726 63.0037V52.3662L79.8222 53.801V61.7237L86.641 65.6294V68.3665L77.3726 63.0037Z" fill="white"/>
<path d="M86.641 49.85L79.8222 53.8013L77.3726 52.3665L86.641 46.9814L95.9105 52.3665L93.4163 53.8013L86.641 49.85Z" fill="white"/>
<path d="M93.4164 53.801L95.9106 52.3662V63.0917L86.6411 68.3665V65.6294L93.4164 61.6792V53.801Z" fill="white"/>
<path d="M89.0128 55.4224C89.0129 55.0009 88.8992 54.5872 88.6837 54.225C88.4681 53.8628 88.1587 53.5656 87.7882 53.3647C87.4176 53.1639 86.9997 53.0669 86.5786 53.084C86.1574 53.101 85.7487 53.2316 85.3957 53.4618C85.0426 53.692 84.7583 54.0133 84.5728 54.3918C84.3873 54.7702 84.3074 55.1918 84.3418 55.6119C84.3761 56.032 84.5232 56.435 84.7677 56.7783C85.0122 57.1217 85.3449 57.3926 85.7306 57.5624L84.7868 62.3176H88.6268L87.5843 57.5762C88.0077 57.3973 88.3689 57.0975 88.623 56.7145C88.877 56.3314 89.0126 55.8821 89.0128 55.4224Z" fill="white"/>
<path d="M130.089 63.1459C131.195 63.8101 132.46 64.166 133.75 64.1766C135.836 64.1766 137.055 63.0759 137.055 61.482C137.055 60.0058 136.206 59.1617 134.078 58.3409C131.5 57.4279 129.906 56.0917 129.906 53.8658C129.906 51.4044 131.946 49.5762 135.016 49.5762C136.633 49.5762 137.805 49.9516 138.508 50.3503L137.946 52.0142C137.023 51.5188 135.992 51.2612 134.946 51.2644C132.79 51.2644 131.969 52.5529 131.969 53.6314C131.969 55.1076 132.93 55.834 135.11 56.677C137.781 57.7089 139.14 58.9973 139.14 61.3176C139.14 63.7567 137.337 65.8872 133.608 65.8872C132.086 65.8872 130.427 65.4184 129.579 64.8564L130.089 63.1459Z" fill="white"/>
<path d="M149.891 62.9113C149.891 63.8955 149.938 64.8562 150.079 65.6293H148.204L148.04 64.1998H147.97C147.333 65.0906 146.118 65.887 144.501 65.887C142.205 65.887 141.033 64.2709 141.033 62.6303C141.033 59.888 143.472 58.3885 147.853 58.4118V58.1774C147.853 57.24 147.595 55.5528 145.275 55.5528C144.231 55.5576 143.209 55.8512 142.322 56.4011L141.853 55.0427C142.79 54.4329 144.15 54.0342 145.579 54.0342C149.048 54.0342 149.891 56.4011 149.891 58.6748L149.891 62.9113ZM147.9 59.836C145.649 59.7893 143.096 60.187 143.096 62.3907C143.096 63.7258 143.986 64.3589 145.041 64.3589C146.517 64.3589 147.454 63.4214 147.782 62.4606C147.855 62.2494 147.895 62.0278 147.9 61.8042L147.9 59.836Z" fill="white"/>
<path d="M153.43 65.6296V55.8574H151.839V54.2868H153.43V53.7449C153.43 52.1542 153.782 50.6982 154.743 49.7841C155.516 49.0344 156.546 48.73 157.509 48.73C158.11 48.7281 158.706 48.8392 159.266 49.0577L158.985 50.6484C158.571 50.4672 158.123 50.3792 157.672 50.3907C155.915 50.3907 155.469 51.9368 155.469 53.6718V54.2805H158.212V55.851H155.469V65.6232L153.43 65.6296Z" fill="white"/>
<path d="M160.907 60.3338C160.954 63.1228 162.735 64.2713 164.798 64.2713C166.274 64.2713 167.164 64.0136 167.938 63.6848L168.29 65.161C167.563 65.4897 166.32 65.8874 164.517 65.8874C161.024 65.8874 158.938 63.5682 158.938 60.1461C158.938 56.7239 160.953 54.0293 164.259 54.0293C167.961 54.0293 168.946 57.287 168.946 59.373C168.942 59.6944 168.919 60.0153 168.875 60.3338H160.907ZM166.951 58.8576C166.975 57.5447 166.413 55.5065 164.088 55.5065C162.002 55.5065 161.088 57.4281 160.925 58.8576H166.951Z" fill="white"/>
<path d="M181.336 51.6049H176.86V65.9212H173.228V51.6049H168.751V48.3472H181.336V51.6049Z" fill="white"/>
<path d="M188.152 54.2066V57.3509C187.817 57.2523 187.47 57.1971 187.121 57.1865C186.309 57.1865 185.652 57.4601 185.152 58.0073C184.651 58.5545 184.401 59.2968 184.402 60.2342V65.9289H180.863V54.2066H184.402V55.8471C184.694 55.31 185.112 54.8518 185.621 54.512C186.102 54.2003 186.664 54.0372 187.238 54.0433C187.551 54.0288 187.863 54.0846 188.152 54.2066Z" fill="white"/>
<path d="M200.788 54.2062V65.9243H197.272V64.7292C196.413 65.6829 195.241 66.1594 193.756 66.1587C192.739 66.1668 191.739 65.8866 190.874 65.3506C189.996 64.8084 189.277 64.0443 188.788 63.1353C188.281 62.1916 188.015 61.1368 188.015 60.0653C188.015 58.9938 188.281 57.9389 188.788 56.9952C189.277 56.0865 189.996 55.3227 190.874 54.781C191.739 54.2446 192.739 53.9641 193.756 53.9718C195.241 53.9718 196.413 54.4487 197.272 55.4024V54.2062L200.788 54.2062ZM196.582 62.1395C196.858 61.8707 197.077 61.5479 197.224 61.1911C197.372 60.8343 197.444 60.4511 197.437 60.0653C197.445 59.6743 197.374 59.2858 197.23 58.9225C197.085 58.5591 196.87 58.2283 196.596 57.9492C196.322 57.6701 195.995 57.4484 195.635 57.297C195.274 57.1457 194.887 57.0677 194.496 57.0677C194.105 57.0677 193.718 57.1457 193.358 57.297C192.997 57.4484 192.67 57.6701 192.396 57.9492C192.123 58.2283 191.907 58.5591 191.763 58.9225C191.618 59.2858 191.548 59.6743 191.555 60.0653C191.554 60.4503 191.629 60.8318 191.775 61.1878C191.922 61.5438 192.138 61.8672 192.41 62.1396C192.682 62.4119 193.006 62.6277 193.361 62.7745C193.717 62.9214 194.099 62.9964 194.484 62.9953C194.873 63.0035 195.261 62.9319 195.621 62.7847C195.982 62.6375 196.309 62.4179 196.582 62.1395Z" fill="white"/>
<path d="M215.202 47.1753V65.9243H211.663V64.7737C210.82 65.6963 209.664 66.1558 208.195 66.1523C207.177 66.1606 206.177 65.8804 205.312 65.3442C204.434 64.8021 203.714 64.0379 203.226 63.1289C202.718 62.1852 202.453 61.1304 202.453 60.0589C202.453 58.9874 202.718 57.9326 203.226 56.9888C203.714 56.0801 204.434 55.3163 205.312 54.7746C206.177 54.2381 207.177 53.9576 208.195 53.9655C209.663 53.9655 210.819 54.425 211.663 55.3441V47.1753L215.202 47.1753ZM211.019 62.1395C211.296 61.8705 211.514 61.5476 211.661 61.1909C211.808 60.8341 211.881 60.451 211.874 60.0652C211.878 59.6763 211.805 59.2903 211.658 58.9301C211.512 58.5698 211.294 58.2425 211.019 57.9675C210.744 57.6924 210.417 57.4751 210.057 57.3284C209.696 57.1816 209.31 57.1084 208.921 57.1129C208.536 57.1062 208.153 57.1785 207.796 57.3255C207.439 57.4725 207.116 57.6911 206.847 57.9676C206.569 58.2403 206.349 58.5671 206.202 58.9279C206.055 59.2886 205.983 59.6757 205.991 60.0652C205.99 60.4503 206.065 60.8319 206.212 61.1879C206.359 61.5438 206.575 61.8673 206.847 62.1396C207.119 62.4119 207.443 62.6277 207.799 62.7745C208.155 62.9214 208.536 62.9964 208.921 62.9953C209.311 63.0034 209.698 62.9317 210.059 62.7845C210.42 62.6373 210.746 62.4178 211.019 62.1395Z" fill="white"/>
<path d="M229.077 60.7442H220.452C220.561 61.5417 220.87 62.1705 221.378 62.6308C221.879 63.0897 222.538 63.3374 223.217 63.3222C223.77 63.3324 224.316 63.1952 224.799 62.9245C225.261 62.657 225.633 62.2569 225.865 61.776L228.729 62.9425C228.289 63.9294 227.546 64.7503 226.608 65.2862C225.617 65.8676 224.487 66.1672 223.338 66.1525C221.948 66.1525 220.769 65.8871 219.8 65.3561C218.868 64.8657 218.104 64.1093 217.604 63.1832C217.101 62.2222 216.846 61.1504 216.862 60.0655C216.848 58.9796 217.119 57.9091 217.648 56.9604C218.17 56.0325 218.941 55.2694 219.875 54.7579C220.836 54.2177 221.941 53.948 223.191 53.9487C224.348 53.9487 225.373 54.1962 226.266 54.6911C227.15 55.1772 227.878 55.9047 228.365 56.7887C228.872 57.6957 229.126 58.7505 229.126 59.9531L229.077 60.7442ZM220.663 58.4472H225.467C225.076 57.292 224.287 56.7144 223.1 56.7144C221.912 56.7144 221.1 57.2924 220.663 58.4483V58.4472Z" fill="white"/>
</svg>
