<svg width="295" height="115" viewBox="0 0 295 115" fill="none" xmlns="http://www.w3.org/2000/svg">
<rect width="295" height="115" rx="30" fill="#191919"/>
<path d="M96.8877 40.9595H97.0094C98.287 41.0001 99.5443 41.1422 100.781 41.4468C103.377 42.0357 105.79 43.2542 107.838 44.9397C109.603 46.483 111.022 48.3716 112.036 50.4835C113.111 52.6767 113.659 55.0932 113.638 57.5301C113.071 57.5504 112.503 57.4691 111.935 57.5097C111.225 57.5097 110.495 57.4691 109.785 57.5097C109.197 57.4894 108.589 57.4691 108.001 57.4894C107.413 57.5097 106.845 57.4691 106.277 57.4894C105.628 57.4488 104.959 57.4691 104.31 57.4691C103.661 57.4691 102.992 57.4894 102.343 57.4488C101.856 57.4285 101.349 57.4691 100.862 57.4285C100.295 57.4285 99.7268 57.4488 99.1387 57.4285C98.4086 57.4082 97.6583 57.4488 96.9283 57.4082C96.9283 55.7836 96.9283 54.1388 96.9283 52.5142L96.9688 52.4939C100.518 52.4939 104.067 52.4939 107.636 52.4939C107.372 51.9456 107.068 51.4379 106.743 50.9302C105.506 49.1229 103.783 47.7014 101.755 46.8485C100.254 46.1987 98.6317 45.8535 96.9891 45.8332C96.9485 44.168 96.8877 42.5637 96.8877 40.9595Z" fill="white"/>
<path d="M89.9726 41.6099C91.3719 41.3663 92.832 42.2598 93.3998 43.5594C93.7446 44.3717 93.7243 45.2652 93.3795 46.0775C92.9131 47.0116 92.0411 47.6818 91.0271 47.8645C90.1957 48.0473 89.344 47.8645 88.6545 47.3771C88.33 47.0928 87.9853 46.8492 87.7622 46.4836C87.3769 45.8744 87.2146 45.1434 87.2958 44.4326C87.4174 43.3767 88.0664 42.3613 89.0398 41.9145C89.3237 41.7724 89.6482 41.6709 89.9726 41.6099Z" fill="white"/>
<path d="M80.3801 56.7789C80.5221 52.6159 82.2661 48.6764 85.2472 45.7725C86.3828 46.9097 87.5184 48.0672 88.6338 49.2247C87.6807 50.3009 86.9101 51.5194 86.322 52.8393C85.4297 54.8903 84.9835 57.185 85.4094 59.3985C85.6527 60.8809 86.2003 62.3024 86.9912 63.5818C87.5996 64.5159 88.3296 65.3688 89.1611 66.1202C89.7289 66.6278 90.3373 67.0543 90.9862 67.4401C92.0813 68.1103 93.2575 68.6382 94.4742 68.9835C94.4742 70.5674 94.4134 72.1514 94.4134 73.7353L94.3931 73.7759C92.5477 73.4307 90.7631 72.8012 89.0799 71.928C87.417 71.0345 85.8961 69.877 84.6185 68.4961C84.1115 67.9275 83.6451 67.3183 83.199 66.7091C81.3535 64.0285 80.4207 60.7591 80.3599 57.51L80.3801 56.7789Z" fill="white"/>
<path d="M124.183 48.4128C124.568 48.3112 124.954 48.3519 125.319 48.5143C125.664 48.6971 125.927 49.0017 126.049 49.3672C126.171 50.2201 126.171 51.0933 126.049 51.9462C125.907 52.2508 125.664 52.5148 125.38 52.6773C124.994 52.921 124.528 52.8803 124.102 52.7788C123.859 52.6976 123.595 52.6163 123.473 52.393C123.352 52.1899 123.271 51.9462 123.291 51.7025C123.21 50.9512 123.23 50.1998 123.352 49.4687C123.453 49.022 123.757 48.6362 124.183 48.4128Z" fill="white"/>
<path d="M148.519 48.5748C151.236 48.5545 153.933 48.656 156.651 48.8794C157.928 49.1637 159.145 49.712 160.179 50.504C161.619 51.6006 162.572 53.2454 163.018 54.9715C163.16 55.5198 163.262 56.0884 163.302 56.657C163.424 58.1801 163.363 59.7234 162.876 61.1855C162.471 62.4039 161.781 63.4802 160.869 64.3737C159.51 65.6734 157.746 66.445 155.961 66.9527C155.414 67.1152 154.825 67.1152 154.258 67.1761C152.656 67.2776 151.053 67.3792 149.431 67.3385C148.6 67.3385 147.789 67.2979 146.957 67.2573C146.43 67.1558 146.024 66.7496 145.882 66.242C145.761 60.6575 145.761 55.0934 145.882 49.5089C146.045 49.1231 146.328 48.8185 146.693 48.5951C147.322 48.5951 147.91 48.5951 148.519 48.5748ZM149.107 51.5396C149.107 54.6872 149.107 57.8145 149.107 60.9418C149.107 62.0384 149.086 63.135 149.127 64.1909C150.709 64.2316 152.291 64.191 153.893 64.13C155.19 64.1503 156.468 63.8254 157.604 63.2365C158.597 62.6679 159.348 61.7744 159.733 60.6778C160.159 59.5406 160.139 58.3019 160.159 57.1038C160.159 55.8041 159.774 54.4435 158.861 53.4688C158.03 52.5753 156.894 52.0676 155.738 51.7833C154.521 51.7427 153.325 51.7021 152.108 51.6615C151.094 51.6615 150.1 51.6006 149.107 51.5396Z" fill="white"/>
<path d="M128.523 48.5947C129.131 48.5541 129.76 48.5947 130.368 48.6759C133.228 51.8845 136.026 55.1336 138.804 58.4233C139.758 59.5402 140.69 60.6774 141.643 61.7943C141.684 61.51 141.623 61.2257 141.643 60.9414C141.542 57.1846 141.562 53.4481 141.664 49.6913C141.704 49.2852 141.948 48.8993 142.292 48.6759C142.901 48.5338 143.55 48.5338 144.158 48.6759C144.3 48.8384 144.462 48.9806 144.604 49.143C144.908 54.7071 144.969 60.2916 144.787 65.876C144.827 66.4243 144.523 66.9523 144.016 67.196C143.631 67.3788 143.185 67.3382 142.759 67.2975C142.414 67.2163 141.988 67.196 141.765 66.8711C139.392 64.0484 137.04 61.2054 134.647 58.3827C133.491 57.0222 132.335 55.6413 131.179 54.2807C131.119 58.2406 131.058 62.2208 130.997 66.201C130.794 66.7086 130.368 67.1148 129.841 67.2772C129.334 67.4397 128.786 67.3382 128.361 67.0539C128.178 66.932 128.016 66.7696 127.874 66.5868C127.854 64.7998 127.813 63.0127 127.793 61.2054C127.752 57.2455 127.793 53.306 127.874 49.3461C128.138 49.1227 128.34 48.879 128.523 48.5947Z" fill="white"/>
<path d="M171.84 48.677C172.631 48.5551 173.421 48.6364 174.212 48.6567C175.429 48.7176 176.646 48.941 177.822 49.2862C178.978 49.6111 180.053 50.1594 180.986 50.9311C181.898 51.6824 182.628 52.6369 183.074 53.7334C183.683 55.1549 183.865 56.7389 183.845 58.2619C183.804 59.3382 183.703 60.4145 183.541 61.4704C183.155 62.4452 182.608 63.3793 181.939 64.1916C181.188 65.0851 180.256 65.8162 179.221 66.3441C178.106 66.9331 176.869 67.197 175.652 67.4204C174.111 67.6641 172.549 67.6235 171.029 67.2783C168.879 66.7503 166.912 65.6334 165.371 64.0494C164.6 62.8919 164.032 61.5923 163.728 60.2317C163.262 58.1401 163.444 55.9469 164.255 53.9568C164.438 53.5101 164.58 53.043 164.904 52.6775C166.547 50.4234 169.082 48.9613 171.84 48.677ZM171.961 51.7433C171.069 51.9261 170.217 52.2307 169.426 52.6369C169.001 52.8399 168.615 53.0836 168.271 53.3882C167.885 53.7334 167.581 54.1599 167.378 54.6473C166.932 56.414 166.628 58.2822 167.013 60.0896C167.257 61.2877 167.926 62.3436 168.899 63.0544C169.974 63.8261 171.292 64.151 172.59 64.2728C173.482 64.354 174.354 64.3744 175.247 64.3134C175.835 64.2728 176.423 64.151 176.97 63.9276C178.106 63.5012 179.1 62.7295 179.789 61.7344C179.85 61.6329 179.891 61.5111 179.911 61.3892C180.134 60.6582 180.296 59.9068 180.438 59.1554C180.661 57.8152 180.722 56.3734 180.235 55.0737C179.85 54.0177 179.1 53.1648 178.106 52.6369C177.031 52.048 175.814 51.8246 174.598 51.723C173.746 51.6621 172.854 51.6621 171.961 51.7433Z" fill="white"/>
<path d="M184.453 49.5493C184.615 49.2041 184.838 48.8792 185.122 48.6152C189.949 48.5746 194.775 48.6152 199.602 48.7167C201.467 50.788 203.333 52.8797 205.178 54.9916C205.3 55.1541 205.442 55.2962 205.584 55.418C207.51 53.2452 209.437 51.0926 211.364 48.9198C212.195 48.5339 213.128 48.5339 213.959 48.9401C214.243 49.3259 214.345 49.793 214.243 50.26C214.122 50.6459 213.898 51.0114 213.615 51.2957C211.668 53.4483 209.68 55.6008 207.713 57.7331C208.261 58.4032 208.869 59.053 209.437 59.7028C211.1 61.5914 212.743 63.4597 214.405 65.3482C214.487 65.5919 214.547 65.8559 214.568 66.1402V66.2823C214.547 66.4854 214.487 66.6885 214.365 66.8509C214.142 67.1758 213.756 67.2977 213.391 67.3586C212.824 67.4398 212.256 67.3383 211.749 67.0946C211.201 66.5057 210.674 65.8965 210.147 65.2873C208.646 63.6221 207.186 61.896 205.706 60.2105C203.515 62.6474 201.264 65.0233 198.912 67.2977C196.986 67.3789 195.059 67.3992 193.132 67.3992C190.415 67.3992 187.698 67.2977 185.001 67.1149C184.777 66.9728 184.595 66.7494 184.514 66.4854C184.331 60.7994 184.331 55.1744 184.453 49.5493ZM187.475 51.58C187.475 53.103 187.475 54.6261 187.475 56.1491C190.719 56.1491 193.964 56.1897 197.209 56.2506C197.594 56.5755 197.858 57.0223 197.918 57.53C197.939 58.0174 197.736 58.4844 197.371 58.8296C197.29 58.8906 197.249 59.0327 197.148 59.0327C195.444 59.0733 193.721 59.1139 192.017 59.1139C190.516 59.1139 188.996 59.1545 187.495 59.1139H187.475C187.475 60.8197 187.475 62.5255 187.475 64.2313C189.198 64.2719 190.922 64.2313 192.646 64.2313C194.37 64.2313 196.053 64.1704 197.756 64.1501C199.662 62.0178 201.528 59.8653 203.434 57.7534C203.434 57.6721 203.353 57.6315 203.292 57.5706C201.974 56.21 200.697 54.8088 199.439 53.4076C198.872 52.7984 198.365 52.1486 197.817 51.5597C196.844 51.6206 195.87 51.6612 194.917 51.7222C193.883 51.7425 192.849 51.7628 191.835 51.7425C190.395 51.7425 188.935 51.6409 187.495 51.5597L187.475 51.58Z" fill="white"/>
<path d="M124.305 53.0221C124.974 52.9815 125.623 53.2455 126.049 53.7532C126.171 58.038 126.171 62.3431 126.049 66.6279C125.684 67.0137 125.197 67.3386 124.65 67.3386C124.082 67.3183 123.636 66.8716 123.311 66.4451C123.19 62.2822 123.19 58.0989 123.311 53.936C123.555 53.5298 123.9 53.2252 124.305 53.0221Z" fill="white"/>
<path d="M108.629 58.7083C110.292 58.3225 111.955 57.9163 113.618 57.5508C113.598 60.3329 112.908 63.054 111.59 65.5112C110.657 67.2373 109.42 68.7603 107.92 70.0396C107.372 70.4864 106.804 70.9128 106.216 71.2987C103.539 73.0045 100.437 73.9386 97.2729 74.0198H96.9688C96.9688 72.4359 96.9688 70.8519 96.9688 69.268L96.989 69.2477C98.6114 69.2274 100.213 68.9024 101.694 68.2932C102.647 67.8871 103.56 67.3388 104.35 66.689C105.141 66.0391 105.831 65.2878 106.399 64.4349C107.575 62.7088 108.203 60.6984 108.629 58.7083Z" fill="white"/>
</svg>
