<svg width="293" height="115" viewBox="0 0 293 115" fill="none" xmlns="http://www.w3.org/2000/svg">
<rect width="293" height="115" rx="30" fill="#191919"/>
<path fill-rule="evenodd" clip-rule="evenodd" d="M104.354 43.0069C104.148 43.0763 103.103 44.3353 102.033 45.8049L100.087 48.4764H98.5432H97V51.0096V53.5428H98.4196H99.8391V61.9058V70.2689L100.81 71.0887C101.724 71.861 101.975 71.9075 105.147 71.8942C107.068 71.886 108.875 71.716 109.353 71.4984C110.138 71.1416 114.35 66.1053 114.35 65.5239C114.35 64.8865 115.051 65.3611 115.944 66.6046C117.69 69.0333 117.968 69.413 118.913 70.6675L119.848 71.9085H122.777C124.934 71.9085 125.707 71.8024 125.707 71.5067C125.707 71.2856 124.563 69.5757 123.165 67.7069L120.623 64.3089H118.118C116.739 64.3089 115.612 64.2215 115.612 64.1151C115.612 64.0084 116.428 62.8723 117.426 61.5908C118.423 60.309 119.63 58.7346 120.107 58.0921L120.975 56.924V58.2416V59.5592H123.498H126.022V54.0178V48.4764H120.502H114.981V50.9906V53.5045L116.059 53.603L117.136 53.7011L115.95 55.1808L114.764 56.6609L113.532 55.0387C112.854 54.1463 111.548 52.4162 110.629 51.1933C109.71 49.9707 108.787 48.8615 108.578 48.7282C108.369 48.5952 107.459 48.484 106.555 48.4812L104.91 48.4764L104.82 45.6785C104.755 43.6899 104.62 42.9173 104.354 43.0069ZM134.75 48.6876C134.634 48.8035 134.539 50.086 134.539 51.5375V54.1761H133.12H131.7V56.076V57.9759H133.092H134.484L134.591 62.9631C134.689 67.546 134.757 68.0473 135.439 69.1476C136.461 70.7974 138.267 71.6571 141.101 71.8429L143.404 71.994L143.309 69.9722L143.215 67.9504L141.637 67.8576C140.628 67.7981 139.918 67.5764 139.666 67.2427C139.394 66.8839 139.271 65.3573 139.271 62.3485V57.9759H141.322H143.372V56.076V54.1761H141.322H139.271V51.3263V48.4764H137.116C135.93 48.4764 134.865 48.5714 134.75 48.6876ZM163.562 60.1925V71.9085H165.16C166.933 71.9085 167.978 71.4934 167.978 70.7891C167.978 70.185 168.074 70.1983 169.647 71.0155C172.421 72.4579 177.027 71.6245 179.265 69.2752C181.09 67.3601 181.701 65.7158 181.698 62.7257C181.697 60.4496 181.579 59.8384 180.939 58.7675C179.042 55.595 176.883 54.166 173.631 53.9317C171.619 53.7866 170.957 53.9627 168.215 55.3737C168.084 55.4408 167.978 53.9161 167.978 51.9859V48.4764H165.77H163.562V60.1925ZM182.804 50.693V52.9095H185.17H187.536V50.693V48.4764H185.17H182.804V50.693ZM188.483 51.3123V54.1761H185.638H182.794L182.878 62.9631L182.962 71.7502H185.17H187.379L187.464 64.863C187.536 59.031 187.62 57.9759 188.016 57.9759C188.407 57.9759 188.483 58.7403 188.483 62.7051C188.483 67.6198 188.688 68.7125 189.844 69.9595C190.956 71.1577 192.191 71.6349 194.671 71.823L197 72V69.8959V67.792H195.486C194.653 67.792 193.801 67.6211 193.593 67.4121C193.334 67.1521 193.215 65.6037 193.215 62.504V57.9759H195.107H197V56.076V54.1761L195.028 54.1767L193.057 54.1771V51.4061V48.6347L190.77 48.5417L188.483 48.4486V51.3123ZM104.886 60.1925V66.8421H105.939C106.883 66.8421 107.203 66.5723 109.015 64.2475C110.128 62.8206 111.155 61.4603 111.298 61.2247C111.474 60.9353 111.013 60.1095 109.874 58.6738C108.948 57.5063 107.695 55.8784 107.09 55.0567C106.485 54.2347 105.742 53.558 105.438 53.5526C104.93 53.5434 104.886 54.0669 104.886 60.1925ZM144.634 54.6169C144.634 54.8591 145.068 55.6074 145.599 56.2793C148.416 59.846 150.628 62.8077 150.628 63.0129C150.628 63.1405 150.162 63.8051 149.593 64.4894C149.023 65.174 148.349 66.0324 148.094 66.3972C147.839 66.7623 146.896 68.0387 145.997 69.2338C145.098 70.4288 144.432 71.5196 144.517 71.6577C144.602 71.7954 145.692 71.9082 146.94 71.9079C148.998 71.9075 149.252 71.8363 149.681 71.1412C149.942 70.7201 150.85 69.4573 151.7 68.3351L153.246 66.2946L154.076 67.281C154.533 67.8234 155.51 69.0865 156.247 70.0878L157.588 71.9085H159.925C161.211 71.9085 162.328 71.8015 162.409 71.671C162.489 71.5402 162.205 71.0057 161.778 70.4836C160.238 68.6017 155.991 63.0129 155.991 62.8681C155.991 62.7098 159.591 57.9148 161.086 56.083C162.474 54.3819 162.318 54.1761 159.65 54.1761C157.351 54.1761 157.305 54.1923 156.702 55.2052C156.365 55.7714 155.49 56.9895 154.758 57.9126L153.427 59.5911L151.704 57.4807C150.756 56.3198 149.837 55.1014 149.662 54.773C149.394 54.2702 148.973 54.1761 146.989 54.1761C145.187 54.1761 144.634 54.2797 144.634 54.6169ZM170.659 58.2796C167.75 59.4958 167.091 64.5543 169.57 66.648C171.471 68.2531 174.673 67.9928 176.18 66.1106C176.854 65.2683 176.968 64.8016 176.968 62.884C176.968 60.9692 176.853 60.4971 176.18 59.6469C174.985 58.139 172.48 57.5187 170.659 58.2796Z" fill="white"/>
</svg>
