<svg width="293" height="115" viewBox="0 0 293 115" fill="none" xmlns="http://www.w3.org/2000/svg">
<rect width="293" height="115" rx="30" fill="#191919"/>
<path d="M88.1287 43L93.4281 50.1542L82.8293 63.4027H86.8039L88.3937 61.0179L90.5134 63.1377L88.3937 66.0523H77.5299L89.9835 50.1542L86.5389 45.9147H82.8293L86.5389 50.9491L84.9491 52.8039L77 43H88.1287Z" fill="white"/>
<path d="M100.582 45.9147L89.9835 59.1631L95.2829 66.0523H106.412L98.7275 56.2485L96.6077 58.8982L100.582 63.4027H96.8727L93.4281 59.1631L106.677 43H96.0778L93.1631 45.9147L95.0179 47.7695L96.8727 45.9147H100.582Z" fill="white"/>
<path d="M118.335 61.8128L122.575 54.3937L118.865 47.2395C117.439 45.0284 120.455 43 121.78 45.9147L124.43 50.6841L127.609 45.6497C128.669 43.5299 131.584 44.8548 130.259 47.2395L126.284 54.3937L130.789 61.8128C132.114 64.4625 129.464 65.5224 128.139 63.4027L124.43 57.5733L120.985 63.4027C119.395 65.5224 117.275 63.6676 118.335 61.8128Z" fill="white"/>
<path d="M148.277 58.1033L135.558 58.3682C135.374 61.5491 140.328 62.8727 144.037 60.223C145.362 59.1631 148.012 60.6205 146.422 62.6077C145.362 63.9326 143.772 64.9925 141.388 65.2574H139.003C133.439 65.2574 131.584 59.4281 132.114 55.9835C132.644 52.5389 136.088 49.3593 139.798 49.3593H141.918C146.687 49.6242 148.542 55.4536 148.277 58.1033Z" fill="white"/>
<path d="M152.781 50.9491C155.431 48.0956 160.73 48.2994 163.38 50.9491V49.6242H166.825V65.7874C166.825 69.7619 163.38 72.4116 158.346 72.4116C156.491 72.4116 155.431 68.967 158.346 68.967H159.935C162.055 68.4371 163.645 66.0523 163.38 63.1377C161.26 65.2574 155.816 65.2574 153.311 63.1377C149.867 60.223 149.337 54.6587 152.781 50.9491Z" fill="white"/>
<path d="M171.064 50.9491C173.714 48.0956 179.013 48.2994 181.663 50.9491V49.6242H185.108V65.7874C185.108 69.7619 181.663 72.4116 176.629 72.4116C174.774 72.4116 173.714 68.967 176.629 68.967H178.218C180.338 68.4371 181.928 66.0523 181.663 63.1377C179.543 65.2574 174.099 65.2574 171.594 63.1377C168.15 60.223 167.62 54.6587 171.064 50.9491Z" fill="white"/>
<path d="M203.125 58.1033L190.407 58.3682C190.223 61.5491 195.176 62.8727 198.886 60.223C200.211 59.1631 202.861 60.6205 201.271 62.6077C200.211 63.9326 198.621 64.9925 196.236 65.2574H193.852C188.287 65.2574 186.432 59.4281 186.962 55.9835C187.492 52.5389 190.937 49.3593 194.646 49.3593H196.766C201.536 49.6242 203.39 55.4536 203.125 58.1033Z" fill="white"/>
<path d="M204.185 61.8128L208.425 54.3937L204.715 47.2395C203.289 45.0284 206.305 43 207.63 45.9147L210.28 50.6841L213.459 45.6497C214.519 43.5299 217.434 44.8548 216.109 47.2395L212.134 54.3937L216.639 61.8128C217.964 64.4625 215.314 65.5224 213.989 63.4027L210.28 57.5733L206.835 63.4027C205.245 65.5224 203.125 63.6676 204.185 61.8128Z" fill="white"/>
<path d="M135.559 55.7182C137.148 51.4791 143.508 51.479 145.097 55.7182H135.559Z" fill="#191919"/>
<path d="M158.611 52.2739C151.722 52.2739 151.987 61.5479 158.611 61.5479C165.235 61.5479 164.44 52.2739 158.611 52.2739Z" fill="#191919"/>
<path d="M176.894 52.2739C170.005 52.2739 170.27 61.5479 176.894 61.5479C183.518 61.5479 182.723 52.2739 176.894 52.2739Z" fill="#191919"/>
<path d="M190.407 55.7182C191.997 51.4791 198.356 51.479 199.946 55.7182H190.407Z" fill="#191919"/>
</svg>
