<svg width="271" height="84" viewBox="0 0 271 84" fill="none" xmlns="http://www.w3.org/2000/svg">
<path opacity="0.6" fill-rule="evenodd" clip-rule="evenodd" d="M86.1851 0.114014C84.8775 0.259932 83.2817 0.669155 82.1927 1.13765C78.3802 2.77793 76.3769 5.95905 76.5879 10.0376C76.7923 13.9895 78.6094 16.5556 82.5396 18.4427C83.0676 18.6962 84.9257 19.4318 86.6688 20.0773C88.4118 20.7228 90.2667 21.4549 90.7908 21.7043C93.2466 22.8724 94.114 24.1041 93.9928 26.2502C93.926 27.4314 93.6878 28.016 92.9603 28.7837C92.003 29.7937 90.4019 30.3769 88.2567 30.497C84.7339 30.6942 80.7293 29.4634 77.8145 27.2878C77.4326 27.0027 77.0633 26.7345 76.9939 26.6918C76.8974 26.6322 76.8677 27.3299 76.8677 29.6632V32.7126L77.6883 33.2044C81.3264 35.3852 86.9528 36.2525 91.2673 35.2978C95.6739 34.3226 98.5959 31.679 99.3581 27.978C99.5728 26.9351 99.5762 24.829 99.3649 23.6201C98.8302 20.56 97.0315 18.3596 93.7025 16.6929C93.2075 16.4451 91.1587 15.627 89.1497 14.8749C84.5857 13.1664 84.1088 12.9395 83.2106 12.0498C82.3394 11.1868 82.1146 10.6187 82.1167 9.28619C82.118 8.47525 82.1555 8.30059 82.4614 7.68047C83.014 6.56036 83.987 5.85138 85.572 5.41384C86.0973 5.26887 86.6518 5.23094 88.1968 5.23422C89.9663 5.23802 90.2664 5.26613 91.3034 5.5251C93.2757 6.01769 95.1142 6.89055 96.954 8.20792C97.3857 8.51688 97.7597 8.76972 97.7853 8.76972C97.8108 8.76972 97.8318 7.43734 97.8318 5.8089V2.84809L97.3288 2.52656C95.8574 1.58608 93.3781 0.681834 91.3138 0.332732C89.7911 0.0753427 87.433 -0.0252461 86.1851 0.114014ZM222.939 0.112113C219.38 0.524294 216.427 2.14671 214.874 4.5433C213.894 6.05615 213.506 7.49313 213.521 9.56218C213.551 13.7835 215.414 16.5135 219.607 18.4801C220.211 18.7633 221.896 19.4328 223.351 19.9678C226.597 21.1608 227.608 21.5713 228.453 22.0393C229.386 22.5567 230.222 23.3575 230.573 24.0704C230.847 24.6271 230.869 24.7653 230.869 25.9396C230.869 27.1138 230.847 27.252 230.573 27.8087C230.037 28.8982 228.83 29.7761 227.337 30.162C224.397 30.9224 220.469 30.3804 217.21 28.7647C216.359 28.3423 214.877 27.4043 214.219 26.8713L213.769 26.5065V29.579V32.6516L214.373 33.0367C217.234 34.8632 221.881 35.9087 225.8 35.6076C232.896 35.0626 237.011 30.8632 236.439 24.7506C236.378 24.0989 236.251 23.2679 236.156 22.9038C235.435 20.1262 233.572 18.0575 230.471 16.5901C229.874 16.3079 227.838 15.5002 225.945 14.7952C221.685 13.2085 220.902 12.8406 220.117 12.057C219.333 11.2746 219.063 10.582 219.063 9.35085C219.063 8.1495 219.336 7.42773 220.062 6.70279C221.142 5.62527 222.669 5.1518 225.045 5.15804C228.129 5.16628 230.664 6.0049 233.57 7.9779L234.733 8.76814V5.77647V2.78479L233.966 2.34757C230.734 0.506754 226.661 -0.318877 222.939 0.112113ZM257.286 0.110633C254.641 0.437336 252.251 1.47524 250.639 2.99686C248.788 4.74353 247.968 6.73819 247.968 9.49318C247.968 12.3948 248.796 14.4837 250.64 16.2306C252.187 17.6975 253.502 18.3762 258.08 20.0718C262.225 21.6072 263.243 22.099 264.172 23.0176C265.094 23.929 265.361 24.5754 265.375 25.9396C265.4 28.2482 264.061 29.6696 261.28 30.2871C260.225 30.5211 257.552 30.5227 256.28 30.2901C253.595 29.799 251.211 28.7642 249.006 27.1328L248.18 26.5215V29.5778V32.634L248.979 33.1311C252.962 35.6084 259.449 36.3725 264.009 34.9015C267.467 33.7859 269.837 31.449 270.624 28.3793C270.742 27.9196 270.849 27.3728 270.863 27.1642C270.876 26.9556 270.913 28.6392 270.944 30.9056C270.975 33.172 271 27.2524 271 17.7509C270.998 1.36165 270.996 1.10141 270.945 12.6792C270.915 19.3912 270.857 24.5649 270.816 24.1763C270.702 23.0982 270.448 22.2303 269.94 21.1848C269.058 19.3702 267.58 17.9649 265.346 16.8188C264.647 16.4604 262.558 15.6085 260.515 14.8489C258.535 14.1129 256.516 13.3126 256.028 13.0705C254.333 12.2302 253.59 11.212 253.498 9.60243C253.436 8.51011 253.621 7.80663 254.169 7.05348C255.604 5.08217 259.845 4.5395 263.782 5.82349C265.384 6.34587 267.276 7.36243 268.749 8.49173L269.144 8.79476V5.78016V2.76556L268.311 2.28629C266.715 1.36725 264.686 0.652143 262.688 0.303675C261.286 0.0591766 258.506 -0.0401442 257.286 0.110633ZM136.266 17.5798V35.0792H138.966H141.666V23.8792C141.666 17.7192 141.701 12.6792 141.745 12.6792C141.789 12.6792 147.006 17.8499 153.339 24.1695L164.853 35.66V18.0941V0.528204H162.101H159.348L159.322 11.5499L159.295 22.5716L150.189 13.6577C145.181 8.75514 139.999 3.69464 138.675 2.41213L136.266 0.08052V17.5798ZM-0.000488281 17.8565V35.0792H7.29469C14.0319 35.0792 14.6817 35.0635 15.7917 34.8741C19.376 34.2626 21.8197 32.6271 23.1421 29.9547C23.8104 28.604 24.0416 27.616 24.111 25.8133C24.1613 24.5056 24.1386 24.1831 23.9331 23.2956C23.3548 20.7986 21.7911 18.7917 19.5522 17.6735L18.7552 17.2754L19.3615 16.9821C21.7374 15.8324 23.2152 12.7922 23.0454 9.40369C22.8357 5.22323 20.5779 2.40769 16.486 1.2244C14.5824 0.673909 13.9174 0.633864 6.68281 0.633864H-0.000488281V17.8565ZM36.4535 12.2301C36.4976 24.6924 36.477 24.2059 37.0539 26.4269C38.2356 30.9763 41.3002 34.041 45.82 35.1929C48.3788 35.845 51.4609 35.8459 54.0148 35.195C59.1348 33.8902 62.197 30.3468 63.1711 24.6C63.3373 23.6192 63.3598 22.3567 63.3938 12.0716L63.4316 0.633864H60.5721H57.7126L57.6736 11.8603C57.6398 21.6 57.6123 23.195 57.4663 23.9044C56.7615 27.3305 55.2299 29.2728 52.5685 30.116C51.5316 30.4445 49.21 30.5278 47.9524 30.2817C46.6427 30.0254 45.4302 29.4009 44.5663 28.5375C43.4975 27.4693 42.908 26.2875 42.4269 24.249C42.2069 23.3166 42.2019 23.0767 42.1669 11.966L42.1313 0.633864H39.2719H36.4124L36.4535 12.2301ZM114.243 17.8565V35.0792H117.102H119.96V17.8565V0.633864H117.102H114.243V17.8565ZM180.1 17.9094V35.1848H190.264H200.429V32.5433V29.9018H193.07H185.711V24.566V19.2301H192.329H198.946V16.6414V14.0527H192.329H185.711V9.93199V5.81123H193.07H200.429V3.22255V0.633864H190.264H180.1V17.9094ZM5.46997 5.67038C5.43111 5.70905 5.39934 7.84868 5.39934 10.4251V15.1094H8.98536C13.0939 15.1094 13.9682 15.0137 15.2104 14.4289C16.8399 13.6618 17.5714 12.3797 17.5742 10.2865C17.5779 7.43819 16.0409 6.00395 12.6651 5.70578C11.3461 5.58924 5.57966 5.56081 5.46997 5.67038ZM5.39934 25.0497V30.1297L9.71392 30.0878C13.739 30.0487 14.0843 30.0305 14.86 29.8169C15.9575 29.5147 16.6892 29.0826 17.3987 28.318C18.3333 27.3104 18.7546 25.7882 18.5321 24.2224C18.2849 22.4831 17.4327 21.288 15.9441 20.5927C14.7222 20.0221 14.2268 19.9735 9.60804 19.9715L5.39934 19.9697V25.0497ZM20.8577 67.2V84H24.0341H27.2104V67.2V50.4H24.0341H20.8577V67.2ZM95.8201 50.4703C91.8332 50.863 88.6622 52.5709 87.138 55.1464C86.4323 56.339 86.1616 57.3235 86.1043 58.9056C86.0026 61.7114 86.7698 63.7839 88.5325 65.465C90.037 66.9 91.7823 67.7728 96.1906 69.2946C99.8041 70.5421 100.792 70.9494 101.761 71.593C103.054 72.4501 103.562 73.3711 103.563 74.8528C103.563 75.8176 103.388 76.4161 102.92 77.052C102.265 77.9406 101.181 78.5416 99.5788 78.9046C98.4984 79.1494 95.4603 79.1381 94.126 78.8843C91.8122 78.4442 89.3706 77.4447 87.4194 76.1389C86.8463 75.7553 86.3579 75.4415 86.3342 75.4415C86.3104 75.4415 86.291 76.7232 86.291 78.2896V81.1378L87.0263 81.5737C88.6175 82.5171 91.1589 83.3524 93.6496 83.7506C95.0745 83.9786 98.6403 84.0135 99.8435 83.8115C104.77 82.984 107.879 80.6518 108.867 77.0408C109.168 75.9424 109.188 73.653 108.908 72.4302C108.428 70.3377 107.356 68.7305 105.565 67.42C104.111 66.3558 103.371 66.027 98.8906 64.4523C94.5738 62.9352 94.0678 62.7325 93.2771 62.2039C92.4402 61.6444 91.9593 60.993 91.7333 60.1127C91.1796 57.9555 92.3866 56.223 94.9383 55.5129C95.9056 55.2437 98.6169 55.1916 99.9708 55.4163C102.128 55.7743 104.235 56.6215 106.249 57.9401L107.308 58.6334L107.336 55.8769C107.355 54.0855 107.326 53.074 107.255 52.9881C107.047 52.738 104.977 51.7814 103.841 51.41C101.372 50.6032 98.2197 50.234 95.8201 50.4703ZM123.878 67.2V84H127.001H130.125V67.2V50.4H127.001H123.878V67.2ZM146.96 67.2V84L153.868 83.9999C161.011 83.9998 162.343 83.9428 164.106 83.562C168.832 82.5418 172.351 79.9218 174.422 75.8819C175.997 72.8084 176.652 69.0312 176.284 65.1396C175.72 59.1695 172.848 54.6337 168.095 52.2093C166.409 51.3491 164.193 50.7303 162.01 50.5104C161.368 50.4458 158.019 50.4 153.936 50.4H146.96V67.2ZM186.876 67.2V84H197.411H207.946V81.4641V78.9283H200.323H192.699V73.6981V68.4679H199.529H206.358V65.9849V63.5019H199.529H192.699V59.4875V55.473L200.296 55.446L207.893 55.4188L207.921 52.9094L207.95 50.4H197.413H186.876V67.2ZM224.675 67.2V84H227.481H230.286V77.1849V70.3698L232.272 70.3704L234.257 70.3711L239.974 77.183L245.692 83.995L248.855 83.9975C251.791 83.9998 252.007 83.9874 251.872 83.8244C251.792 83.7279 249.144 80.6274 245.987 76.9345C242.831 73.2416 240.261 70.2069 240.277 70.1907C240.294 70.1745 240.78 70.0427 241.358 69.8977C241.937 69.7526 242.862 69.4126 243.415 69.1412C244.251 68.7317 244.576 68.4939 245.332 67.7392C246.794 66.2803 247.475 64.6755 247.758 62.0226C248.047 59.3076 247.527 56.6219 246.366 54.8282C244.824 52.4473 242.308 51.0094 238.891 50.5555C238.008 50.4382 236.279 50.4037 231.213 50.4021L224.675 50.4V67.2ZM44.0452 66.9758V83.4717H46.8505H49.6557L49.6827 72.9029L49.7097 62.3341L61.5153 73.1132C68.0083 79.0417 73.3564 83.8928 73.4002 83.8933C73.4439 83.8939 73.4796 76.477 73.4796 67.4113V50.9283H70.6214H67.7632L67.7362 61.2932L67.7092 71.6582L63.8446 68.1936C61.7191 66.288 56.4773 61.5881 52.1961 57.7494C47.915 53.9106 44.3297 50.7045 44.2287 50.6248C44.0547 50.4873 44.0452 51.34 44.0452 66.9758ZM230.286 60.4986V65.6311L234.178 65.5874C238.374 65.5402 238.565 65.5175 239.782 64.9236C241.548 64.0611 242.551 61.9869 242.273 59.7687C242.06 58.0593 241.227 56.7962 239.838 56.0757C238.559 55.4123 238.179 55.366 234.012 55.366H230.286V60.4986ZM152.677 67.1931V78.9283L156.621 78.928C158.847 78.9279 160.98 78.8769 161.518 78.8111C165.084 78.3751 167.874 76.5019 169.291 73.5924C170.702 70.6939 171.037 66.6307 170.152 63.135C169.174 59.2712 166.806 56.8235 163.066 55.8106C162.053 55.5362 162.024 55.5346 157.362 55.4964L152.677 55.4578V67.1931Z" fill="white"/>
</svg>
