<svg width="278" height="289" viewBox="0 0 278 289" fill="none" xmlns="http://www.w3.org/2000/svg">
<path d="M155.775 69.1681V95.3866L133.227 82.2773V55.5345L155.775 69.1681Z" fill="#150F0F" stroke="white" stroke-width="0.5"/>
<path d="M102.814 28.2672V54.4857L80.2656 41.3765V14.6336L102.814 28.2672Z" fill="#150F0F" stroke="white" stroke-width="0.5"/>
<path d="M177.274 82.2773L155.775 95.3865V69.1681L133.227 55.5344L155.775 41.9008L177.274 55.5344V82.2773Z" fill="#161616" stroke="white" stroke-width="0.5"/>
<path d="M124.313 41.3765L102.814 54.4857V28.2672L80.2656 14.6336L102.814 1L124.313 14.6336V41.3765Z" fill="#161616" stroke="white" stroke-width="0.5"/>
<path d="M233.382 129.471L211.358 142.58V116.361L200.346 109.545V101.155L196.151 98.5328L211.358 89.0941L233.382 102.728V129.471Z" fill="#161616" stroke="white" stroke-width="0.5"/>
<path d="M211.358 116.361L200.346 109.545V135.763L211.358 142.58V116.361Z" fill="#150F0F"/>
<path d="M178.323 113.739V137.336L154.726 124.751V110.069L155.775 110.593V99.5815L178.323 113.739Z" fill="#150F0F" stroke="white" stroke-width="0.5"/>
<path d="M177.798 86.9966L155.775 99.5815L178.323 113.739V137.336V176.664L200.346 163.03V101.155L177.798 86.9966Z" fill="#161616" stroke="white" stroke-width="0.5"/>
<path opacity="0.2" d="M178.323 113.739L200.346 101.155" stroke="white" stroke-width="0.5"/>
<path d="M178.323 176.664L200.346 163.03V101.155L177.798 86.9966L155.775 99.5815V110.593L154.726 110.069" stroke="white" stroke-width="0.5"/>
<path d="M99.6672 102.203L77.1193 88.5697L55.6201 102.391L77.1193 115.837V142.58L88.6555 135.763V122.129L99.6672 115.313V102.203Z" fill="#161616"/>
<path d="M55.0957 128.422V102.203L77.1192 115.837V142.58L55.0957 128.422Z" fill="#150F0F"/>
<path d="M154.202 268.953C143.19 274.721 134.275 275.245 123.264 268.953L13.6703 203.407C9.47538 199.212 8.96013 193.448 13.6704 190.822L123.264 125.8C133.751 119.508 143.19 120.032 154.202 125.8L258.027 186.103C270.612 192.919 266.941 200.26 255.929 207.602L154.202 268.953Z" fill="#0F0E0E" stroke="white" stroke-width="0.5"/>
<path d="M187.761 217.565H178.322V227.003H197.724V209.175H187.761V217.565Z" fill="white"/>
<path d="M62.9612 161.457V169.847H54.0469V161.457H62.9612Z" fill="white"/>
<path d="M197.724 73.8874V65.4975H206.638V73.8874H197.724Z" fill="white"/>
<path d="M116.447 61.3025V79.1311H107.008V88.0454H98.6183V79.1311H107.008V61.3025H116.447Z" fill="white"/>
<g filter="url(#filter0_f_132_453)">
<path d="M134.275 218.613L111.728 231.723L60.3394 201.309L91.2772 181.908L61.3881 162.506L114.349 131.044L187.761 179.286L178.847 185.578L203.492 201.834L154.202 231.723L134.275 218.613Z" fill="#222222"/>
</g>
<path d="M110.155 107.971L131.13 94.8622L154.726 108.496V124.751L178.323 137.336V201.309L155.251 215.467V151.494L133.227 138.385V121.605L110.155 107.971Z" fill="#161616"/>
<path d="M86.0337 181.383L66.6321 192.919M64.5346 194.492L60.864 196.59M59.2909 197.639L57.7178 198.687M108.057 222.284L94.948 230.15M92.3262 231.198L90.2287 232.771M88.6556 233.82L87.0825 234.869" stroke="white" stroke-width="0.5"/>
<path d="M237.052 127.897L249.113 120.032M251.21 118.983L255.405 116.361M256.978 115.313L259.6 113.739M213.455 87.521L225.516 80.1798M228.138 78.6067L231.808 75.9849M233.382 74.9361L234.955 73.8874M177.798 51.8639V36.1328M177.798 33.5109V29.8403M177.798 27.7429V26.1697" stroke="white" stroke-width="0.5"/>
<path d="M155.25 215.467L178.323 201.309V177.188" stroke="white" stroke-width="0.5"/>
<path opacity="0.2" d="M178.323 177.188V137.336M178.323 137.336L155.251 151.494L133.227 138.385M178.323 137.336L154.726 124.751M133.227 138.385L154.726 124.751M133.227 138.385V121.605L154.726 108.496V124.751" stroke="white" stroke-width="0.5"/>
<path d="M178.323 177.188V137.336L154.726 124.751V108.496" stroke="white" stroke-width="0.5"/>
<path d="M110.154 135.239L88.6553 122.129L110.154 109.02V135.239Z" fill="#161616"/>
<path d="M111.728 192.919V219.138L134.275 205.504V202.882L133.227 201.309V178.237L112.252 165.652L89.1797 179.286L111.728 192.919Z" fill="#161616"/>
<path d="M111.728 192.919V219.138L134.275 205.504V202.882L133.227 201.309V178.237L112.252 165.652L89.1797 179.286L111.728 192.919Z" fill="#161616"/>
<g filter="url(#filter1_d_132_453)">
<path d="M261.173 188.2C268.292 195.076 266.575 199.254 256.978 207.077V222.284L265.368 217.565C267.691 215.48 268.072 214.048 267.99 211.272V199.736C267.916 192.868 266.008 190.72 261.173 188.2Z" fill="#F73737"/>
</g>
<g filter="url(#filter2_d_132_453)">
<path d="M40.9378 219.138V234.344L13.1462 217.565C10.5243 215.467 10.0001 213.37 10 209.699V196.59C11.0487 199.212 12.6218 202.358 14.195 202.882L40.9378 219.138Z" fill="#F73737"/>
</g>
<path d="M112.252 165.652V155.689L133.227 167.225L124.312 172.993L112.252 165.652Z" fill="#222222" stroke="#222222" stroke-width="0.5"/>
<path d="M133.227 201.834C140.393 206.203 154.831 215.048 155.25 215.467V151.494L133.227 138.385V121.605L110.154 107.971V135.239L88.6553 122.129V167.225L100.191 172.993L112.252 165.652V155.689L133.227 167.225V201.834Z" fill="#150F0F" stroke="white" stroke-width="0.5"/>
<path d="M196.676 98.0084L211.358 89.0941L233.382 102.728M233.382 102.728V129.471L211.358 142.58M233.382 102.728L211.358 116.361M211.358 142.58V116.361M211.358 142.58L200.346 135.763M211.358 116.361L200.871 109.545" stroke="white" stroke-width="0.5"/>
<path opacity="0.2" d="M124.312 172.993L133.227 167.225" stroke="white" stroke-width="0.5"/>
<path d="M99.6671 115.837V102.203M99.6671 102.203L77.1192 88.5697L55.0957 102.203M99.6671 102.203L77.1192 115.837M55.0957 102.203V128.422L77.1192 142.58M55.0957 102.203L77.1192 115.837M77.1192 142.58L88.6554 135.763M77.1192 142.58V115.837" stroke="white" stroke-width="0.5"/>
<path d="M155.775 41.9008L133.227 55.5344V82.2773L155.775 95.3865L177.274 82.2773V55.5344L155.775 41.9008Z" stroke="white" stroke-width="0.5"/>
<path d="M102.814 1L80.2656 14.6336V41.3765L102.814 54.4857L124.313 41.3765V14.6336L102.814 1Z" stroke="white" stroke-width="0.5"/>
<path opacity="0.2" d="M133.227 55.5345L155.775 69.1681M155.775 69.1681V95.3866M155.775 69.1681L177.274 55.5345" stroke="white" stroke-width="0.5"/>
<path opacity="0.2" d="M80.2656 14.6336L102.814 28.2672M102.814 28.2672V54.4857M102.814 28.2672L124.313 14.6336" stroke="white" stroke-width="0.5"/>
<g filter="url(#filter3_d_132_453)">
<path d="M54.0469 242.21V227.528L62.4368 232.771V247.454L54.0469 242.21Z" fill="#F73737"/>
</g>
<path d="M40.938 234.345L122.74 283.635M122.74 283.635V268.763M122.74 283.635C132.273 289.431 144.763 289.403 154.202 283.635M154.202 283.635L156.6 282.204M154.202 283.635V281.538M154.202 268.953V272.624M243.869 230.109L256.978 207.077V211.272M243.869 230.109L247.54 227.918M243.869 230.109L240.288 232.247M247.54 227.918L256.978 211.272M247.54 227.918L251.21 225.727M256.978 211.272V214.943M256.978 214.943L251.21 225.727M256.978 214.943V218.613M251.21 225.727L254.094 224.006M254.094 224.006L256.978 222.284V218.613M254.094 224.006L256.978 218.613M240.288 232.247L252.783 209.699M240.288 232.247L237.052 234.179M237.052 234.179L248.588 212.321M237.052 234.179L232.857 236.683M232.857 236.683L243.345 215.467M232.857 236.683L228.662 239.187M228.662 239.187L238.625 218.089M228.662 239.187L224.992 241.378M224.992 241.378L233.906 220.711M224.992 241.378L220.5 244.059M220.5 244.059L229.187 223.857M220.5 244.059L215.692 246.929M215.692 246.929L224.467 226.479M215.692 246.929L211.883 249.203M211.883 249.203L219.748 229.625M211.883 249.203L208.212 251.395M208.212 251.395L215.692 231.723M208.212 251.395L204.541 253.586M204.541 253.586L210.834 234.869M204.541 253.586L200.759 255.844M200.759 255.844L206.639 237.491M200.759 255.844L197.2 257.968M197.2 257.968L202.444 240.113M197.2 257.968L194.054 259.846M194.054 259.846L198.249 242.734M194.054 259.846L190.383 262.037M190.383 262.037L194.054 244.832M190.383 262.037L185.825 264.758M185.825 264.758L190.383 246.929M185.825 264.758L181.469 267.358M181.469 267.358L185.825 249.823M181.469 267.358L177.041 270.002M177.041 270.002L181.469 252.697M177.041 270.002L172.649 272.624M172.649 272.624C172.574 272.204 175.701 260.913 177.274 255.319M172.649 272.624L167.835 275.497M167.835 275.497L172.03 258.466M167.835 275.497L163.865 277.867M163.865 277.867L168.36 260.563M163.865 277.867L159.97 280.192M159.97 280.192L164.165 263.185M159.97 280.192L156.6 282.204M156.6 282.204L160.494 265.282M154.202 281.538L157.348 267.358M154.202 281.538V272.624M154.202 272.624L155.251 268.429" stroke="white" stroke-width="0.5"/>
<path d="M89.1797 179.286V206.029L111.728 219.138" stroke="white" stroke-width="0.5"/>
<path d="M111.728 192.919V219.138L89.1797 206.029V179.286L111.728 192.919Z" fill="#150F0F" stroke="white" stroke-width="0.5"/>
<path opacity="0.2" d="M111.728 192.919L133.227 179.286" stroke="white" stroke-width="0.5"/>
<path d="M89.1797 179.286L99.6671 172.993M112.252 165.652L133.227 178.237M111.728 219.138L134.275 205.504V202.358" stroke="white" stroke-width="0.5"/>
<path d="M88.6553 122.129L110.154 109.02" stroke="white" stroke-width="0.5"/>
<path d="M110.155 107.971L131.13 94.8622L154.726 108.496" stroke="white" stroke-width="0.5"/>
<path d="M132.178 51.8639V38.2302M132.178 35.6084V32.4622M132.178 30.3647V27.7429M71.8756 85.4235C71.4561 85.004 63.3109 80.005 59.2908 77.558M56.6689 75.9849L53.5227 73.8874M51.9496 72.8387L50.3765 71.7899" stroke="white" stroke-width="0.5"/>
<path d="M48.2789 125.8L35.1697 117.41M33.0722 116.361L30.4503 114.264M28.8772 113.215L26.2554 111.118" stroke="white" stroke-width="0.5"/>
<defs>
<filter id="filter0_f_132_453" x="50.3394" y="121.044" width="163.153" height="120.679" filterUnits="userSpaceOnUse" color-interpolation-filters="sRGB">
<feFlood flood-opacity="0" result="BackgroundImageFix"/>
<feBlend mode="normal" in="SourceGraphic" in2="BackgroundImageFix" result="shape"/>
<feGaussianBlur stdDeviation="5" result="effect1_foregroundBlur_132_453"/>
</filter>
<filter id="filter1_d_132_453" x="246.978" y="178.2" width="31.022" height="54.084" filterUnits="userSpaceOnUse" color-interpolation-filters="sRGB">
<feFlood flood-opacity="0" result="BackgroundImageFix"/>
<feColorMatrix in="SourceAlpha" type="matrix" values="0 0 0 0 0 0 0 0 0 0 0 0 0 0 0 0 0 0 127 0" result="hardAlpha"/>
<feOffset/>
<feGaussianBlur stdDeviation="5"/>
<feComposite in2="hardAlpha" operator="out"/>
<feColorMatrix type="matrix" values="0 0 0 0 0.966667 0 0 0 0 0.2175 0 0 0 0 0.2175 0 0 0 1 0"/>
<feBlend mode="normal" in2="BackgroundImageFix" result="effect1_dropShadow_132_453"/>
<feBlend mode="normal" in="SourceGraphic" in2="effect1_dropShadow_132_453" result="shape"/>
</filter>
<filter id="filter2_d_132_453" x="0" y="186.59" width="50.938" height="57.7546" filterUnits="userSpaceOnUse" color-interpolation-filters="sRGB">
<feFlood flood-opacity="0" result="BackgroundImageFix"/>
<feColorMatrix in="SourceAlpha" type="matrix" values="0 0 0 0 0 0 0 0 0 0 0 0 0 0 0 0 0 0 127 0" result="hardAlpha"/>
<feOffset/>
<feGaussianBlur stdDeviation="5"/>
<feComposite in2="hardAlpha" operator="out"/>
<feColorMatrix type="matrix" values="0 0 0 0 0.966667 0 0 0 0 0.2175 0 0 0 0 0.2175 0 0 0 1 0"/>
<feBlend mode="normal" in2="BackgroundImageFix" result="effect1_dropShadow_132_453"/>
<feBlend mode="normal" in="SourceGraphic" in2="effect1_dropShadow_132_453" result="shape"/>
</filter>
<filter id="filter3_d_132_453" x="44.0469" y="217.528" width="28.3901" height="39.926" filterUnits="userSpaceOnUse" color-interpolation-filters="sRGB">
<feFlood flood-opacity="0" result="BackgroundImageFix"/>
<feColorMatrix in="SourceAlpha" type="matrix" values="0 0 0 0 0 0 0 0 0 0 0 0 0 0 0 0 0 0 127 0" result="hardAlpha"/>
<feOffset/>
<feGaussianBlur stdDeviation="5"/>
<feComposite in2="hardAlpha" operator="out"/>
<feColorMatrix type="matrix" values="0 0 0 0 0.966667 0 0 0 0 0.2175 0 0 0 0 0.2175 0 0 0 1 0"/>
<feBlend mode="normal" in2="BackgroundImageFix" result="effect1_dropShadow_132_453"/>
<feBlend mode="normal" in="SourceGraphic" in2="effect1_dropShadow_132_453" result="shape"/>
</filter>
</defs>
</svg>
