<svg width="304" height="266" viewBox="0 0 304 266" fill="none" xmlns="http://www.w3.org/2000/svg">
<path d="M168.102 261.1C157.937 266.985 144.988 266.948 137.07 261.1M168.102 261.1V260.565M168.102 261.1L172.383 258.589M282.601 169.608C283.671 188.334 281.531 193.684 279.391 195.825L270.295 201.16M282.601 169.608C282.368 175.419 282.066 178.703 271.365 184.054L266.55 186.943M282.601 169.608C280.461 163.187 251.034 151.416 165.962 98.4472C157.37 93.0972 150.265 93.0894 141.35 98.4472L108.713 116.639L82.4957 132.69L25.2463 166.397C22.5711 168.003 21.1866 172.013 21.501 174.958M168.102 246.119C156.866 252.539 145.631 252.004 137.07 246.119M168.102 246.119V249.864M168.102 246.119L171.313 244.189M137.07 246.119V261.1M137.07 246.119L23.1061 178.168C21.6021 176.879 21.6938 176.764 21.501 174.958M137.07 261.1L24.7113 194.22C21.501 191.544 21.501 187.264 21.501 174.958M168.102 249.864L171.313 244.189M168.102 249.864V253.074M171.313 244.189L175.224 241.838M168.102 253.074L175.224 241.838M168.102 253.074V257.087M175.224 241.838L179.675 239.163M168.102 257.087L179.675 239.163M168.102 257.087V260.565M179.675 239.163L184.154 236.471M168.102 260.565L184.154 236.471M184.154 236.471L188.811 233.672M172.383 258.589L188.811 233.672M172.383 258.589L177.733 255.451M188.811 233.672L193.784 230.602M177.733 255.451L193.784 230.602M177.733 255.451L184.154 251.685M193.784 230.602L199.67 227.071M184.154 251.685L199.67 227.071M184.154 251.685L189.504 248.547M199.67 227.071L204.485 224.182M189.504 248.547L204.485 224.182M189.504 248.547L194.556 245.584M204.485 224.182L208.765 221.614M194.556 245.584L208.765 221.614M194.556 245.584L199.67 242.584M208.765 221.614L213.402 218.831M199.67 242.584L213.402 218.831M199.67 242.584L205.02 239.446M213.402 218.831L217.861 216.156M205.02 239.446L217.861 216.156M205.02 239.446L210.092 236.471M217.861 216.156L222.32 213.481M210.092 236.471L222.32 213.481M210.092 236.471L215.537 233.278M222.32 213.481L227.28 210.505M215.537 233.278L227.28 210.505M215.537 233.278L220.536 230.345M227.28 210.505L231.772 207.81M220.536 230.345L231.772 207.81M220.536 230.345L225.352 227.521M231.772 207.81L236.588 204.92M225.352 227.521L236.588 204.92M225.352 227.521L230.132 224.717M236.588 204.92L241.046 202.245M230.132 224.717L241.046 202.245M230.132 224.717L235.423 221.614M241.046 202.245L245.505 199.57M235.423 221.614L245.505 199.57M235.423 221.614L240.697 218.52M245.505 199.57L249.964 196.895M240.697 218.52L249.964 196.895M240.697 218.52L245.505 215.7M249.964 196.895L254.779 194.006M245.505 215.7L254.779 194.006M245.505 215.7L250.499 212.771M254.779 194.006L263.072 189.03M250.499 212.771L258.926 191.518M250.499 212.771L255.314 209.947M255.314 209.947L263.072 189.03M255.314 209.947L260.664 206.808M263.072 189.03L266.55 186.943M260.664 206.808L266.55 186.943M260.664 206.808L265.48 203.984M265.48 203.984L270.295 185.124M265.48 203.984L270.295 201.16M270.295 201.16L272.435 189.03" stroke="white" stroke-width="0.5"/>
<path d="M271.365 184.054C282.066 178.703 282.368 175.419 282.601 169.608C280.461 163.187 251.034 151.416 165.962 98.4472C157.37 93.0972 150.265 93.0894 141.35 98.4472L108.713 116.639L82.4957 132.69L25.2463 166.397C22.5711 168.003 21.1866 172.013 21.501 174.958C21.6938 176.764 21.6021 176.879 23.1061 178.168L137.07 246.119C145.631 252.004 156.866 252.539 168.102 246.119L271.365 184.054Z" fill="#0F0E0E" stroke="white" stroke-width="0.5"/>
<g filter="url(#filter0_f_132_247)">
<path d="M152.586 206.526V216.157L225.352 172.818L212.511 170.143L152.586 206.526Z" fill="#222222"/>
</g>
<g filter="url(#filter1_f_132_247)">
<path d="M113.528 162.118L121.554 155.162L153.656 174.959L177.198 159.977L187.364 166.398L153.656 187.799L113.528 162.118Z" fill="#222222"/>
</g>
<path d="M152.586 206.526L92.6612 170.143L81.4253 172.818" stroke="white" stroke-width="0.5"/>
<path d="M81.4253 172.818L152.586 216.157L224.816 172.818L152.586 128.41L81.4253 172.818Z" stroke="white" stroke-width="0.5"/>
<g filter="url(#filter2_d_132_247)">
<path d="M272.435 200.105V183.519C282.167 178.108 282.473 175.242 282.601 170.143L283.136 184.589C283.136 192.08 281.462 195.612 272.435 200.105Z" fill="#F63737"/>
<path d="M272.435 200.105V183.519C282.167 178.108 282.473 175.242 282.601 170.143L283.136 184.589C283.136 192.08 281.462 195.612 272.435 200.105Z" stroke="#F63737" stroke-width="0.5"/>
</g>
<g filter="url(#filter3_d_132_247)">
<path d="M66.9792 219.367V204.386L75.0049 209.201V224.182L66.9792 219.367Z" fill="#F63737"/>
<path d="M66.9792 219.367V204.386L75.0049 209.201V224.182L66.9792 219.367Z" stroke="#F63737" stroke-width="0.5"/>
</g>
<g filter="url(#filter4_d_132_247)">
<path d="M21.5008 172.818C22.0359 178.169 23.106 178.169 54.1384 196.677V212.411L24.1761 194.755C20.9658 193.15 20.4307 181.914 21.5008 172.818Z" fill="#F73737"/>
<path d="M21.5008 172.818C22.0359 178.169 23.106 178.169 54.1384 196.677V212.411L24.1761 194.755C20.9658 193.15 20.4307 181.914 21.5008 172.818Z" stroke="#F63737" stroke-width="0.5"/>
</g>
<path d="M145.63 197.43L185.223 172.855M192.179 168.538L185.223 172.855M185.223 172.855L181.478 170.143L192.179 177.099M172.917 174.958L184.153 182.449M164.892 180.309L176.663 187.264M156.866 185.124L168.102 192.08M160.076 197.43L112.458 168.003M112.458 177.634L124.229 170.143M121.018 182.449L132.789 175.494M129.579 186.729L140.815 179.774M137.07 192.08L148.306 185.124" stroke="white" stroke-width="0.5"/>
<path d="M152.586 201.711V206.526L213.046 169.608M152.586 201.711L101.757 172.283L92.6614 170.143M152.586 201.711L201.275 173.353L213.046 169.608M213.046 169.608L190.039 155.697" stroke="white" stroke-width="0.5"/>
<path d="M87.846 177.099L73.935 186.729H55.7436M97.4768 182.984L80.8905 193.685H68.5845M107.108 188.335L84.1007 202.781M116.203 194.22L93.7315 208.131M125.834 200.105L112.993 207.749M103.362 213.481L112.993 207.749M112.993 207.749L112.458 219.902M135.465 205.991L123.694 213.481V226.858M144.56 211.341L136.535 216.157V235.418M161.147 211.341L169.172 216.692V234.883M170.777 205.456L182.013 212.946V227.393M179.873 200.105L193.249 208.131M193.249 208.131V220.972M193.249 208.131L201.81 214.017M189.504 194.22L211.976 208.131M220.536 202.246L198.6 188.87M207.695 182.984C208.123 183.412 220.001 190.653 225.887 194.22H238.193M217.326 177.634L231.772 186.194H250.499M217.861 168.538L231.237 159.442H250.499M208.765 162.653L225.352 151.952H237.658M199.135 156.767L221.071 143.391M188.969 150.882C189.397 150.454 204.485 141.786 211.976 137.506M178.803 144.461C179.088 144.461 186.179 140.987 193.205 137.506M202.88 132.69C200.254 134.003 196.738 135.755 193.205 137.506M166.497 136.971L180.408 125.2L182.013 118.244M162.217 134.295L169.172 128.945L168.637 111.289M87.846 168.538L73.935 159.977L54.1384 158.907M97.4768 162.653L80.3555 151.417H67.5145M107.108 156.767L83.5657 142.856M116.203 151.417L92.6614 137.506M126.369 144.461L123.229 142.856M102.292 132.155L112.76 137.506M112.76 137.506V125.735M112.76 137.506L123.229 142.856M193.205 137.506V125.2M123.229 142.856C123.601 142.428 123.384 126.27 123.229 118.244" stroke="white" stroke-width="0.5"/>
<ellipse cx="53.6032" cy="186.729" rx="3.74529" ry="3.21025" fill="white"/>
<ellipse cx="66.4443" cy="194.22" rx="3.74529" ry="3.21025" fill="white"/>
<ellipse cx="82.4955" cy="202.781" rx="3.74529" ry="3.21025" fill="white"/>
<ellipse cx="92.1262" cy="209.201" rx="3.74529" ry="3.21025" fill="white"/>
<ellipse cx="100.687" cy="214.552" rx="3.74529" ry="3.21025" fill="white"/>
<ellipse cx="112.458" cy="222.042" rx="3.74529" ry="3.21025" fill="white"/>
<ellipse cx="123.159" cy="228.463" rx="3.74529" ry="3.21025" fill="white"/>
<ellipse cx="136" cy="237.023" rx="3.74529" ry="3.21025" fill="white"/>
<ellipse cx="169.172" cy="237.023" rx="3.74529" ry="3.21025" fill="white"/>
<ellipse cx="182.013" cy="228.463" rx="3.74529" ry="3.21025" fill="white"/>
<ellipse cx="192.714" cy="222.042" rx="3.74529" ry="3.21025" fill="white"/>
<ellipse cx="203.415" cy="214.552" rx="3.74529" ry="3.21025" fill="white"/>
<ellipse cx="214.116" cy="209.201" rx="3.74529" ry="3.21025" fill="white"/>
<ellipse cx="222.676" cy="203.851" rx="3.74529" ry="3.21025" fill="white"/>
<ellipse cx="238.727" cy="194.22" rx="3.74529" ry="3.21025" fill="white"/>
<ellipse cx="251.569" cy="186.729" rx="3.74529" ry="3.21025" fill="white"/>
<path d="M153.121 174.424L119.948 155.162V148.741M153.121 174.424V167.468M153.121 174.424L186.293 154.627V147.671M153.121 167.468L119.948 148.741M153.121 167.468L186.293 147.671M119.948 148.741L153.121 128.41L186.293 147.671" stroke="white" stroke-width="0.5"/>
<ellipse cx="251.569" cy="159.977" rx="3.74529" ry="3.21025" fill="white"/>
<ellipse cx="239.798" cy="151.417" rx="3.74529" ry="3.21025" fill="white"/>
<ellipse cx="222.676" cy="141.786" rx="3.74529" ry="3.21025" fill="white"/>
<ellipse cx="213.046" cy="136.436" rx="3.74529" ry="3.21025" fill="white"/>
<ellipse cx="204.485" cy="131.085" rx="3.74529" ry="3.21025" fill="white"/>
<ellipse cx="192.714" cy="123.595" rx="3.74529" ry="3.21025" fill="white"/>
<ellipse cx="182.013" cy="117.174" rx="3.74529" ry="3.21025" fill="white"/>
<ellipse cx="168.102" cy="109.683" rx="3.74529" ry="3.21025" fill="white"/>
<ellipse cx="123.159" cy="117.174" rx="3.74529" ry="3.21025" fill="white"/>
<ellipse cx="112.458" cy="124.665" rx="3.74529" ry="3.21025" fill="white"/>
<ellipse cx="101.757" cy="131.085" rx="3.74529" ry="3.21025" fill="white"/>
<ellipse cx="92.1262" cy="136.436" rx="3.74529" ry="3.21025" fill="white"/>
<ellipse cx="82.4955" cy="141.786" rx="3.74529" ry="3.21025" fill="white"/>
<ellipse cx="66.4443" cy="151.417" rx="3.74529" ry="3.21025" fill="white"/>
<ellipse cx="53.6032" cy="158.907" rx="3.74529" ry="3.21025" fill="white"/>
<path opacity="0.6" d="M152.051 149.812C112.993 219.367 115.133 117.174 152.051 27.2871C91.0561 100.053 78.04 199.223 152.051 149.812Z" stroke="white" stroke-width="0.5"/>
<path opacity="0.6" d="M152.051 27.2871C65.3741 83.4664 54.1383 178.169 152.051 149.812" stroke="white" stroke-width="0.5"/>
<path opacity="0.6" d="M152.051 149.812C191.547 202.611 190.574 120.384 152.051 27.8222" stroke="white" stroke-width="0.5"/>
<path opacity="0.6" d="M152.051 149.812C224.817 196.895 213.046 103.798 152.051 27.2871" stroke="white" stroke-width="0.5"/>
<path opacity="0.6" d="M152.051 27.2871C220.001 66.8802 267.085 176.029 152.051 149.812" stroke="white" stroke-width="0.5"/>
<path opacity="0.5" d="M152.051 149.812C234.982 166.398 280.461 72.2306 152.051 27.2871" stroke="white" stroke-width="0.5"/>
<path opacity="0.4" d="M152.051 27.2871C267.62 39.5931 262.805 133.76 152.051 149.812" stroke="white" stroke-width="0.5"/>
<path opacity="0.4" d="M152.051 27.2871C58.9538 27.2871 22.036 130.55 152.051 149.812" stroke="white" stroke-width="0.5"/>
<path opacity="0.3" d="M152.051 150.347C32.7367 96.3074 65.3742 9.6308 152.051 27.2872" stroke="white" stroke-width="0.5"/>
<path opacity="0.3" d="M152.051 27.2871C259.594 14.9812 254.244 105.403 152.051 149.812" stroke="white" stroke-width="0.5"/>
<path opacity="0.2" d="M152.051 27.2867C89.451 -8.56115 46.6477 75.9759 152.051 149.811" stroke="white" stroke-width="0.5"/>
<path opacity="0.2" d="M152.051 149.812C232.307 100.053 243.008 -8.56063 152.051 27.2871" stroke="white" stroke-width="0.5"/>
<path opacity="0.1" d="M152.051 27.2872C202.681 -15.4181 231.772 45.4785 152.051 149.812" stroke="white" stroke-width="0.5"/>
<path opacity="0.1" d="M152.051 27.2874C98.0118 -31.5675 85.1708 72.7656 152.051 149.812" stroke="white" stroke-width="0.5"/>
<path opacity="0.05" d="M152.051 149.812C186.829 76.5109 182.421 -41.3149 152.051 27.2879" stroke="white" stroke-width="0.5"/>
<path opacity="0.05" d="M152.051 149.811C116.203 23.5418 134.93 -25.1469 152.051 27.2868" stroke="white" stroke-width="0.5"/>
<path d="M152.051 0V169.073" stroke="white" stroke-width="0.5"/>
<path opacity="0.5" d="M152 27.5C42.5 64.5 49.4999 155.5 152 150" stroke="white" stroke-width="0.5"/>
<defs>
<filter id="filter0_f_132_247" x="142.586" y="160.143" width="92.7656" height="66.0135" filterUnits="userSpaceOnUse" color-interpolation-filters="sRGB">
<feFlood flood-opacity="0" result="BackgroundImageFix"/>
<feBlend mode="normal" in="SourceGraphic" in2="BackgroundImageFix" result="shape"/>
<feGaussianBlur stdDeviation="5" result="effect1_foregroundBlur_132_247"/>
</filter>
<filter id="filter1_f_132_247" x="103.528" y="145.162" width="93.8357" height="52.6375" filterUnits="userSpaceOnUse" color-interpolation-filters="sRGB">
<feFlood flood-opacity="0" result="BackgroundImageFix"/>
<feBlend mode="normal" in="SourceGraphic" in2="BackgroundImageFix" result="shape"/>
<feGaussianBlur stdDeviation="5" result="effect1_foregroundBlur_132_247"/>
</filter>
<filter id="filter2_d_132_247" x="252.185" y="150.134" width="51.2009" height="70.3753" filterUnits="userSpaceOnUse" color-interpolation-filters="sRGB">
<feFlood flood-opacity="0" result="BackgroundImageFix"/>
<feColorMatrix in="SourceAlpha" type="matrix" values="0 0 0 0 0 0 0 0 0 0 0 0 0 0 0 0 0 0 127 0" result="hardAlpha"/>
<feOffset/>
<feGaussianBlur stdDeviation="10"/>
<feComposite in2="hardAlpha" operator="out"/>
<feColorMatrix type="matrix" values="0 0 0 0 0.964706 0 0 0 0 0.215686 0 0 0 0 0.215686 0 0 0 1 0"/>
<feBlend mode="normal" in2="BackgroundImageFix" result="effect1_dropShadow_132_247"/>
<feBlend mode="normal" in="SourceGraphic" in2="effect1_dropShadow_132_247" result="shape"/>
</filter>
<filter id="filter3_d_132_247" x="46.7292" y="183.944" width="48.5256" height="60.6796" filterUnits="userSpaceOnUse" color-interpolation-filters="sRGB">
<feFlood flood-opacity="0" result="BackgroundImageFix"/>
<feColorMatrix in="SourceAlpha" type="matrix" values="0 0 0 0 0 0 0 0 0 0 0 0 0 0 0 0 0 0 127 0" result="hardAlpha"/>
<feOffset/>
<feGaussianBlur stdDeviation="10"/>
<feComposite in2="hardAlpha" operator="out"/>
<feColorMatrix type="matrix" values="0 0 0 0 0.964706 0 0 0 0 0.215686 0 0 0 0 0.215686 0 0 0 1 0"/>
<feBlend mode="normal" in2="BackgroundImageFix" result="effect1_dropShadow_132_247"/>
<feBlend mode="normal" in="SourceGraphic" in2="effect1_dropShadow_132_247" result="shape"/>
</filter>
<filter id="filter4_d_132_247" x="0.75" y="152.789" width="73.6384" height="80.0598" filterUnits="userSpaceOnUse" color-interpolation-filters="sRGB">
<feFlood flood-opacity="0" result="BackgroundImageFix"/>
<feColorMatrix in="SourceAlpha" type="matrix" values="0 0 0 0 0 0 0 0 0 0 0 0 0 0 0 0 0 0 127 0" result="hardAlpha"/>
<feOffset/>
<feGaussianBlur stdDeviation="10"/>
<feComposite in2="hardAlpha" operator="out"/>
<feColorMatrix type="matrix" values="0 0 0 0 0.964706 0 0 0 0 0.215686 0 0 0 0 0.215686 0 0 0 1 0"/>
<feBlend mode="normal" in2="BackgroundImageFix" result="effect1_dropShadow_132_247"/>
<feBlend mode="normal" in="SourceGraphic" in2="effect1_dropShadow_132_247" result="shape"/>
</filter>
</defs>
</svg>
