<svg width="302" height="280" viewBox="0 0 302 280" fill="none" xmlns="http://www.w3.org/2000/svg">
<path d="M33.7021 205.565L55.2083 217.947L128.85 263.566C147.25 274.833 156.819 273.478 173.166 263.566L278.09 199.7C281.549 197.706 282.004 196.164 282 193.183" stroke="white" stroke-width="0.5"/>
<path d="M131.973 26.3202L29.0046 88.8835C15.9698 96.0523 18.3904 106.142 30.7226 113.298L135.232 174.908C145.007 180.773 155.434 181.425 167.165 174.908L273.392 109.086C281.491 104.053 283.819 96.0523 273.392 88.8836L171.727 26.3202C156.208 16.7986 147.492 16.2413 131.973 26.3202Z" fill="#0F0E0E" stroke="white"/>
<path d="M134.715 154.08C144.491 160.598 157.525 160.597 169.255 153.429L277.437 86.9551C282.651 83.6966 283.303 75.8762 277.437 71.966L167.952 6.14428C156.221 -0.372476 143.641 -1.04871 133.412 6.14428L30.443 68.7078C18.4921 75.2254 16.4463 81.0907 27.8362 88.2588L134.715 154.08Z" stroke="white" stroke-width="0.5"/>
<path d="M33.7021 185.362L134.716 246.622C147.067 252.854 156.222 253.139 168.604 246.622L271.573 183.407" stroke="white" stroke-width="0.5"/>
<path d="M271.573 159.294L168.604 221.857C155.57 229.678 145.817 229.301 132.109 221.206L33.7021 160.597" stroke="white" stroke-width="0.5"/>
<path d="M33.7021 168.418L39.5675 163.856" stroke="white" stroke-width="0.5"/>
<path d="M33.7021 172.98L42.826 166.463" stroke="white" stroke-width="0.5"/>
<path d="M33.7021 177.542L46.7362 169.07" stroke="white" stroke-width="0.5"/>
<path d="M33.7021 182.104L51.2981 171.676" stroke="white" stroke-width="0.5"/>
<path d="M34.354 186.014L54.5567 173.631" stroke="white" stroke-width="0.5"/>
<path d="M38.2642 187.969L59.1186 176.238" stroke="white" stroke-width="0.5"/>
<path d="M41.5225 189.924L61.7252 178.193" stroke="white" stroke-width="0.5"/>
<path d="M65.6357 180.149L44.7812 192.531" stroke="white" stroke-width="0.5"/>
<path d="M68.8941 182.104L48.6914 194.486" stroke="white" stroke-width="0.5"/>
<path d="M51.9502 196.441L72.1529 184.059" stroke="white" stroke-width="0.5"/>
<path d="M76.7144 186.666L56.5117 199.048" stroke="white" stroke-width="0.5"/>
<path d="M60.4219 201.655L79.3212 188.621" stroke="white" stroke-width="0.5"/>
<path d="M63.6807 203.61L82.58 191.227" stroke="white" stroke-width="0.5"/>
<path d="M67.5908 206.217L87.1418 193.183" stroke="white" stroke-width="0.5"/>
<path d="M90.4006 195.789L70.8496 208.172" stroke="white" stroke-width="0.5"/>
<path d="M74.7593 210.127L94.3103 197.744" stroke="white" stroke-width="0.5"/>
<path d="M98.2209 200.351L78.6699 212.082" stroke="white" stroke-width="0.5"/>
<path d="M81.9282 214.689L101.479 202.306" stroke="white" stroke-width="0.5"/>
<path d="M104.737 204.913L85.8379 216.644" stroke="white" stroke-width="0.5"/>
<path d="M89.0967 219.251L108.648 206.868" stroke="white" stroke-width="0.5"/>
<path d="M112.558 209.475L93.0068 221.206" stroke="white" stroke-width="0.5"/>
<path d="M96.917 223.812L115.816 211.43" stroke="white" stroke-width="0.5"/>
<path d="M100.176 225.767L119.075 213.385" stroke="white" stroke-width="0.5"/>
<path d="M122.985 215.992L104.086 228.374" stroke="white" stroke-width="0.5"/>
<path d="M107.996 230.329L126.244 217.947" stroke="white" stroke-width="0.5"/>
<path d="M111.906 232.285L130.806 219.902" stroke="white" stroke-width="0.5"/>
<path d="M115.165 234.891L133.412 221.857" stroke="white" stroke-width="0.5"/>
<path d="M119.075 236.846L137.975 224.464" stroke="white" stroke-width="0.5"/>
<path d="M122.333 238.802L141.885 225.768" stroke="white" stroke-width="0.5"/>
<path d="M126.244 241.408L146.446 227.071" stroke="white" stroke-width="0.5"/>
<path d="M129.502 243.363L154.267 227.071" stroke="white" stroke-width="0.5"/>
<path d="M133.412 245.97L209.661 197.093" stroke="white" stroke-width="0.5"/>
<path d="M145.795 250.532L271.573 174.283" stroke="white" stroke-width="0.5"/>
<path d="M271.572 178.845L152.963 251.184" stroke="white" stroke-width="0.5"/>
<path d="M136.671 247.925L271.573 165.159" stroke="white" stroke-width="0.5"/>
<path d="M141.233 249.229L271.573 169.721" stroke="white" stroke-width="0.5"/>
<path d="M33.7021 137.136L134.716 199.048C145.795 204.913 154.918 205.565 167.301 199.048L271.573 135.181" stroke="white" stroke-width="0.5"/>
<path d="M33.7021 131.923L150.357 203.61" stroke="white" stroke-width="0.5"/>
<path d="M34.354 128.013L157.525 202.958" stroke="white" stroke-width="0.5"/>
<path d="M161.435 201.655L33.7021 123.451" stroke="white" stroke-width="0.5"/>
<path d="M34.354 118.889L165.997 199.7" stroke="white" stroke-width="0.5"/>
<path d="M169.908 197.744L122.124 167.148" stroke="white" stroke-width="0.5"/>
<path d="M173.818 195.138L148.401 179.497" stroke="white" stroke-width="0.5"/>
<path d="M177.076 192.531L155.57 179.497" stroke="white" stroke-width="0.5"/>
<path d="M161.436 178.193L180.987 190.576" stroke="white" stroke-width="0.5"/>
<path d="M165.346 176.238L184.245 188.621" stroke="white" stroke-width="0.5"/>
<path d="M188.155 186.014L168.604 174.283" stroke="white" stroke-width="0.5"/>
<path d="M171.863 171.676L191.414 184.059" stroke="white" stroke-width="0.5"/>
<path d="M175.773 169.721L195.324 181.452" stroke="white" stroke-width="0.5"/>
<path d="M245.505 150.822L226.605 138.44" stroke="white" stroke-width="0.5"/>
<path d="M229.864 136.485L249.415 148.867" stroke="white" stroke-width="0.5"/>
<path d="M252.673 146.26L233.774 134.53" stroke="white" stroke-width="0.5"/>
<path d="M256.584 144.305L237.685 131.923" stroke="white" stroke-width="0.5"/>
<path d="M260.494 141.698L241.594 129.316" stroke="white" stroke-width="0.5"/>
<path d="M244.201 127.361L263.752 139.743" stroke="white" stroke-width="0.5"/>
<path d="M267.662 137.788L248.111 125.406" stroke="white" stroke-width="0.5"/>
<path d="M252.021 122.799L270.921 135.181" stroke="white" stroke-width="0.5"/>
<path d="M255.932 120.192L271.573 131.271" stroke="white" stroke-width="0.5"/>
<path d="M259.842 117.585L271.573 125.406" stroke="white" stroke-width="0.5"/>
<path d="M263.752 115.63L271.573 120.844" stroke="white" stroke-width="0.5"/>
<path d="M179.683 167.766L199.234 179.497" stroke="white" stroke-width="0.5"/>
<path d="M183.593 165.159L201.841 177.542" stroke="white" stroke-width="0.5"/>
<path d="M205.751 174.935L186.852 163.204" stroke="white" stroke-width="0.5"/>
<path d="M209.01 172.98L190.11 160.597" stroke="white" stroke-width="0.5"/>
<path d="M194.021 158.642L213.572 170.373" stroke="white" stroke-width="0.5"/>
<path d="M197.931 156.036L216.83 168.418" stroke="white" stroke-width="0.5"/>
<path d="M220.088 166.463L201.841 154.081" stroke="white" stroke-width="0.5"/>
<path d="M205.1 151.474L223.999 164.508" stroke="white" stroke-width="0.5"/>
<path d="M209.01 149.519L227.257 161.901" stroke="white" stroke-width="0.5"/>
<path d="M212.268 147.564L231.167 159.946" stroke="white" stroke-width="0.5"/>
<path d="M235.078 157.339L216.178 144.957" stroke="white" stroke-width="0.5"/>
<path d="M219.438 143.002L238.989 154.732" stroke="white" stroke-width="0.5"/>
<path d="M223.347 140.395L242.898 152.777" stroke="white" stroke-width="0.5"/>
<g filter="url(#filter0_d_65_9502)">
<path d="M20.0166 189.924V79.135C20.6682 85.0003 28.4887 88.9105 33.7023 92.169V205.565L23.2751 199.048C20.0167 197.093 19.9368 193.536 20.0166 189.924Z" fill="#F73737"/>
</g>
<g filter="url(#filter1_d_65_9502)">
<path d="M38.916 208.524V95.4275L47.3881 100.641V213.385L38.916 208.524Z" fill="#F73737"/>
</g>
<g filter="url(#filter2_d_65_9502)">
<path d="M52.6016 215.992V103.9L55.2084 105.203V217.947L52.6016 215.992Z" fill="#F73737"/>
</g>
<g filter="url(#filter3_d_65_9502)">
<path d="M280.045 198.396L271.573 203.61V90.8656C278.61 87.323 281.043 84.9367 282 79.7867V193.183C281.963 196.505 281.332 197.287 280.045 198.396Z" fill="#F73737"/>
</g>
<g filter="url(#filter4_d_65_9502)">
<path d="M137.322 259.656V161.901H134.063V259.656H137.322Z" fill="#F63737"/>
<path d="M168.604 259.656V161.901H165.345V259.656H168.604Z" fill="#F63737"/>
</g>
<g filter="url(#filter5_f_65_9502)">
<ellipse cx="150.306" cy="111.838" rx="41.6114" ry="24.6213" fill="#222222"/>
</g>
<path d="M126.045 83.2477C132.616 79.7061 136.179 78.6245 142.404 77.6764C138.5 83.4334 138.669 88.6782 143.52 94.2046C132.236 93.9947 126.603 88.6333 126.045 83.2477Z" fill="white"/>
<path d="M152.071 92.7189C145.751 88.4476 146.308 80.462 153.187 76.5621C161.213 76.7521 164.988 77.5747 170.848 79.9049C161.339 82.3722 156.77 84.6436 152.071 92.7189Z" fill="white"/>
<path d="M178.47 83.9905C170.848 83.6191 160.623 88.6333 159.879 95.3188C169.775 92.0361 175.505 91.3804 186.278 93.8332C185.271 89.7974 182.188 86.4048 178.47 83.9905Z" fill="white"/>
<path d="M187.021 100.519C179.771 96.2474 171.151 96.1801 161.924 100.519C173.59 102.795 176.978 105.424 180.7 111.104C184.873 107.066 185.855 104.726 187.021 100.519Z" fill="white"/>
<path d="M174.008 116.118C174.008 109.433 165.78 105.507 157.091 105.533C162.07 111.7 162.172 115.201 157.834 121.504C164.779 120.289 168.34 119.17 174.008 116.118Z" fill="white"/>
<path d="M147.796 122.061C155.418 116.304 154.302 111.104 148.353 107.019C144.181 113.839 140.07 116.34 130.692 119.275C136.558 121.157 140.145 121.921 147.796 122.061Z" fill="white"/>
<path d="M114.705 105.904C125.702 107.972 131.414 107.554 140.917 104.419C139.616 110.733 131.808 115.561 122.699 115.004C118.262 112.056 116.619 110.014 114.705 105.904Z" fill="white"/>
<path d="M113.589 99.5902C124.075 103.466 131.436 102.747 138.872 99.033C128.517 97.1535 124.215 94.8636 119.166 88.4476C115.257 92.3686 113.993 94.7991 113.589 99.5902Z" fill="white"/>
<defs>
<filter id="filter0_d_65_9502" x="0" y="59.135" width="53.7021" height="166.43" filterUnits="userSpaceOnUse" color-interpolation-filters="sRGB">
<feFlood flood-opacity="0" result="BackgroundImageFix"/>
<feColorMatrix in="SourceAlpha" type="matrix" values="0 0 0 0 0 0 0 0 0 0 0 0 0 0 0 0 0 0 127 0" result="hardAlpha"/>
<feOffset/>
<feGaussianBlur stdDeviation="10"/>
<feComposite in2="hardAlpha" operator="out"/>
<feColorMatrix type="matrix" values="0 0 0 0 0.966667 0 0 0 0 0.2175 0 0 0 0 0.2175 0 0 0 1 0"/>
<feBlend mode="normal" in2="BackgroundImageFix" result="effect1_dropShadow_65_9502"/>
<feBlend mode="normal" in="SourceGraphic" in2="effect1_dropShadow_65_9502" result="shape"/>
</filter>
<filter id="filter1_d_65_9502" x="18.916" y="75.4275" width="48.4722" height="157.958" filterUnits="userSpaceOnUse" color-interpolation-filters="sRGB">
<feFlood flood-opacity="0" result="BackgroundImageFix"/>
<feColorMatrix in="SourceAlpha" type="matrix" values="0 0 0 0 0 0 0 0 0 0 0 0 0 0 0 0 0 0 127 0" result="hardAlpha"/>
<feOffset/>
<feGaussianBlur stdDeviation="10"/>
<feComposite in2="hardAlpha" operator="out"/>
<feColorMatrix type="matrix" values="0 0 0 0 0.966667 0 0 0 0 0.2175 0 0 0 0 0.2175 0 0 0 1 0"/>
<feBlend mode="normal" in2="BackgroundImageFix" result="effect1_dropShadow_65_9502"/>
<feBlend mode="normal" in="SourceGraphic" in2="effect1_dropShadow_65_9502" result="shape"/>
</filter>
<filter id="filter2_d_65_9502" x="32.6016" y="83.8996" width="42.6069" height="154.048" filterUnits="userSpaceOnUse" color-interpolation-filters="sRGB">
<feFlood flood-opacity="0" result="BackgroundImageFix"/>
<feColorMatrix in="SourceAlpha" type="matrix" values="0 0 0 0 0 0 0 0 0 0 0 0 0 0 0 0 0 0 127 0" result="hardAlpha"/>
<feOffset/>
<feGaussianBlur stdDeviation="10"/>
<feComposite in2="hardAlpha" operator="out"/>
<feColorMatrix type="matrix" values="0 0 0 0 0.966667 0 0 0 0 0.2175 0 0 0 0 0.2175 0 0 0 1 0"/>
<feBlend mode="normal" in2="BackgroundImageFix" result="effect1_dropShadow_65_9502"/>
<feBlend mode="normal" in="SourceGraphic" in2="effect1_dropShadow_65_9502" result="shape"/>
</filter>
<filter id="filter3_d_65_9502" x="251.573" y="59.7867" width="50.4272" height="163.823" filterUnits="userSpaceOnUse" color-interpolation-filters="sRGB">
<feFlood flood-opacity="0" result="BackgroundImageFix"/>
<feColorMatrix in="SourceAlpha" type="matrix" values="0 0 0 0 0 0 0 0 0 0 0 0 0 0 0 0 0 0 127 0" result="hardAlpha"/>
<feOffset/>
<feGaussianBlur stdDeviation="10"/>
<feComposite in2="hardAlpha" operator="out"/>
<feColorMatrix type="matrix" values="0 0 0 0 0.966667 0 0 0 0 0.2175 0 0 0 0 0.2175 0 0 0 1 0"/>
<feBlend mode="normal" in2="BackgroundImageFix" result="effect1_dropShadow_65_9502"/>
<feBlend mode="normal" in="SourceGraphic" in2="effect1_dropShadow_65_9502" result="shape"/>
</filter>
<filter id="filter4_d_65_9502" x="114.063" y="141.901" width="74.54" height="137.755" filterUnits="userSpaceOnUse" color-interpolation-filters="sRGB">
<feFlood flood-opacity="0" result="BackgroundImageFix"/>
<feColorMatrix in="SourceAlpha" type="matrix" values="0 0 0 0 0 0 0 0 0 0 0 0 0 0 0 0 0 0 127 0" result="hardAlpha"/>
<feOffset/>
<feGaussianBlur stdDeviation="10"/>
<feComposite in2="hardAlpha" operator="out"/>
<feColorMatrix type="matrix" values="0 0 0 0 0.966667 0 0 0 0 0.2175 0 0 0 0 0.2175 0 0 0 1 0"/>
<feBlend mode="normal" in2="BackgroundImageFix" result="effect1_dropShadow_65_9502"/>
<feBlend mode="normal" in="SourceGraphic" in2="effect1_dropShadow_65_9502" result="shape"/>
</filter>
<filter id="filter5_f_65_9502" x="98.6943" y="77.2169" width="103.223" height="69.2425" filterUnits="userSpaceOnUse" color-interpolation-filters="sRGB">
<feFlood flood-opacity="0" result="BackgroundImageFix"/>
<feBlend mode="normal" in="SourceGraphic" in2="BackgroundImageFix" result="shape"/>
<feGaussianBlur stdDeviation="5" result="effect1_foregroundBlur_65_9502"/>
</filter>
</defs>
</svg>
