<svg width="1429" height="494" viewBox="0 0 1429 494" fill="none" xmlns="http://www.w3.org/2000/svg">
<g opacity="0.4">
<path d="M718.5 493.474C854.631 493.474 964.987 383.118 964.987 246.987C964.987 110.856 854.631 0.5 718.5 0.5C582.369 0.5 472.013 110.856 472.013 246.987C472.013 383.118 582.369 493.474 718.5 493.474Z" stroke="#505050"/>
<path d="M797.206 246.987C797.206 315.153 788.344 376.846 774.031 421.48C766.873 443.8 758.36 461.827 748.932 474.262C739.497 486.706 729.208 493.474 718.5 493.474C707.791 493.474 697.502 486.706 688.067 474.262C678.639 461.827 670.126 443.8 662.969 421.48C648.655 376.846 639.793 315.153 639.793 246.987C639.793 178.821 648.655 117.128 662.969 72.4935C670.126 50.1735 678.639 32.1472 688.067 19.7115C697.502 7.26788 707.791 0.5 718.5 0.5C729.208 0.5 739.497 7.26788 748.932 19.7115C758.36 32.1472 766.873 50.1735 774.031 72.4935C788.344 117.128 797.206 178.821 797.206 246.987Z" stroke="#505050"/>
<path d="M718.499 325.693C650.333 325.693 588.64 316.832 544.006 302.518C521.686 295.36 503.66 286.848 491.224 277.419C478.78 267.984 472.013 257.696 472.013 246.987C472.013 236.278 478.78 225.989 491.224 216.555C503.66 207.126 521.686 198.614 544.006 191.456C588.64 177.142 650.333 168.281 718.499 168.281C786.666 168.281 848.359 177.142 892.993 191.456C915.313 198.614 933.339 207.126 945.775 216.555C958.218 225.989 964.986 236.278 964.986 246.987C964.986 257.696 958.218 267.984 945.775 277.419C933.339 286.848 915.313 295.36 892.993 302.518C848.359 316.832 786.666 325.693 718.499 325.693Z" stroke="#505050"/>
<path d="M662.846 191.333C711.047 143.132 760.936 105.775 802.619 84.3348C823.463 73.6135 842.228 66.8862 857.689 64.76C873.159 62.6323 885.22 65.1219 892.792 72.6942C900.364 80.2664 902.854 92.3272 900.726 107.798C898.6 123.258 891.873 142.024 881.152 162.868C859.712 204.55 822.354 254.44 774.153 302.64C725.953 350.841 676.063 388.199 634.381 409.639C613.537 420.36 594.771 427.087 579.311 429.214C563.84 431.341 551.779 428.852 544.207 421.279C536.635 413.707 534.145 401.646 536.273 386.176C538.399 370.716 545.127 351.95 555.848 331.106C577.288 289.423 614.645 239.534 662.846 191.333Z" stroke="#505050"/>
<path d="M757.853 178.825C816.887 212.908 865.884 251.429 897.381 286.142C913.132 303.501 924.487 319.886 930.542 334.269C936.601 348.662 937.318 360.956 931.964 370.23C926.61 379.504 915.604 385.031 900.11 386.98C884.626 388.927 864.759 387.286 841.85 382.325C796.039 372.404 738.181 349.231 679.147 315.148C620.113 281.065 571.116 242.545 539.619 207.831C523.868 190.473 512.513 174.087 506.458 159.704C500.399 145.312 499.682 133.017 505.036 123.743C510.39 114.469 521.396 108.943 536.89 106.994C552.374 105.046 572.241 106.688 595.15 111.649C640.961 121.57 698.819 144.742 757.853 178.825Z" stroke="#505050"/>
</g>
<path d="M750.9 196.07C741.786 190.401 733.812 187.756 721.661 187C710.269 197.582 710.649 219.123 721.661 228.949C726.218 210.809 736.85 200.983 750.9 196.07Z" fill="white"/>
<path d="M764.19 206.274C747.102 205.518 733.812 221.013 733.812 236.129C747.862 226.681 764.19 226.304 777.861 233.862C775.582 221.769 771.272 215.394 764.19 206.274Z" fill="white"/>
<path d="M779 249.356C768.368 238.018 747.483 239.152 737.23 249.734C753.973 253.781 763.052 261.449 770.646 278.455C776.444 268.93 779 261.827 779 249.356Z" fill="white"/>
<path d="M760.014 291.682C758.875 273.543 746.515 262.872 730.015 261.827C738.555 276.692 740.268 290.549 732.673 305.665C744.01 302.576 750.52 299.619 760.014 291.682Z" fill="white"/>
<path d="M716.345 307.177C727.357 296.218 728.117 278.456 716.345 265.229C711.788 283.746 701.915 293.194 687.106 298.485C697.305 304.678 703.927 306.076 716.345 307.177Z" fill="white"/>
<path d="M674.575 287.903C692.314 286.254 703.814 274.676 703.814 257.67C692.801 266.362 674.195 267.496 659.765 261.071C663.795 272.812 666.999 278.95 674.575 287.903Z" fill="white"/>
<path d="M659.006 244.443C668.499 254.646 688.245 256.158 700.776 244.443C682.929 240.286 672.475 229.817 667.74 216.099C662.424 224.035 658.836 234.999 659.006 244.443Z" fill="white"/>
<path d="M677.993 202.872C680.651 221.012 690.524 230.838 707.992 232.349C699.175 217.839 698.498 204.006 704.954 188.511C692.423 191.535 685.796 195.701 677.993 202.872Z" fill="white"/>
<path opacity="0.2" d="M28.643 297C14.243 282.867 7.04297 265.2 7.04297 244C7.04297 222.8 14.243 205.2 28.643 191.2C43.1763 177.067 61.643 170 84.043 170C109.243 170 128.576 178.867 142.043 196.6C148.176 204.467 152.51 213.267 155.043 223H124.043C122.31 218.467 119.643 214.333 116.043 210.6C107.643 202.2 96.9763 198 84.043 198C70.9763 198 60.1763 202.333 51.643 211C43.243 219.533 39.043 230.533 39.043 244C39.043 258 43.1096 269.2 51.243 277.6C59.5096 285.867 70.443 290 84.043 290C97.643 290 108.576 285.333 116.843 276C120.576 271.6 123.31 266.933 125.043 262H156.043C152.976 272.533 148.376 281.867 142.243 290C127.843 308.667 108.443 318 84.043 318C61.643 318 43.1763 311 28.643 297Z" fill="white"/>
<path opacity="0.2" d="M366.469 314V174H396.469V286H465.469V314H366.469Z" fill="white"/>
<path opacity="0.2" d="M983.492 314V174H1049.49C1066.16 174 1079.49 178.533 1089.49 187.6C1099.49 196.533 1104.49 207.667 1104.49 221C1104.49 231.4 1101.56 240.267 1095.69 247.6C1089.83 254.933 1082.09 260.4 1072.49 264L1104.49 314H1070.49L1041.49 268H1013.49V314H983.492ZM1013.49 240H1048.49C1056.76 240 1062.96 238.333 1067.09 235C1071.36 231.533 1073.49 226.867 1073.49 221C1073.49 215.133 1071.36 210.533 1067.09 207.2C1062.96 203.733 1056.76 202 1048.49 202H1013.49V240Z" fill="white"/>
<path opacity="0.2" d="M1316.01 314V174H1421.01V202H1346.01V230H1406.01V256H1346.01V286H1421.01V314H1316.01Z" fill="white"/>
</svg>
