<svg width="177" height="58" viewBox="0 0 177 58" fill="none" xmlns="http://www.w3.org/2000/svg">
<path d="M76.256 34.1519C74.7453 32.6119 73.99 30.6612 73.99 28.2999C73.99 25.9386 74.7453 23.9952 76.256 22.4699C77.7813 20.9299 79.7027 20.1599 82.02 20.1599C84.616 20.1599 86.662 21.0986 88.158 22.9759C88.818 23.7826 89.302 24.7139 89.61 25.7699H87.63C87.322 25.0366 86.9333 24.4132 86.464 23.8999C85.3053 22.6532 83.824 22.0299 82.02 22.0299C80.2453 22.0299 78.7933 22.6092 77.664 23.7679C76.5347 24.9266 75.97 26.4372 75.97 28.2999C75.97 30.1626 76.5347 31.6732 77.664 32.8319C78.7933 33.9906 80.2453 34.5699 82.02 34.5699C83.8533 34.5699 85.3713 33.8952 86.574 32.5459C87.058 31.9886 87.4467 31.3066 87.74 30.4999H89.72C89.368 31.6439 88.8547 32.6339 88.18 33.4699C86.64 35.4499 84.5867 36.4399 82.02 36.4399C79.7027 36.4399 77.7813 35.6772 76.256 34.1519ZM92.3557 35.9999V20.5999H94.3357V34.1299H102.366V35.9999H92.3557ZM105.733 34.1519C104.222 32.6119 103.467 30.6612 103.467 28.2999C103.467 25.9386 104.222 23.9952 105.733 22.4699C107.258 20.9299 109.179 20.1599 111.497 20.1599C113.814 20.1599 115.728 20.9299 117.239 22.4699C118.764 23.9952 119.527 25.9386 119.527 28.2999C119.527 30.6612 118.764 32.6119 117.239 34.1519C115.728 35.6772 113.814 36.4399 111.497 36.4399C109.179 36.4399 107.258 35.6772 105.733 34.1519ZM107.141 23.7679C106.011 24.9266 105.447 26.4372 105.447 28.2999C105.447 30.1626 106.011 31.6732 107.141 32.8319C108.27 33.9906 109.722 34.5699 111.497 34.5699C113.271 34.5699 114.723 33.9906 115.853 32.8319C116.982 31.6732 117.547 30.1626 117.547 28.2999C117.547 26.4372 116.982 24.9266 115.853 23.7679C114.723 22.6092 113.271 22.0299 111.497 22.0299C109.722 22.0299 108.27 22.6092 107.141 23.7679ZM122.283 35.9999V20.5999H128.883C130.599 20.5999 131.963 21.0546 132.975 21.9639C133.987 22.8732 134.493 24.0319 134.493 25.4399C134.493 26.5986 134.134 27.5886 133.415 28.4099C132.711 29.2312 131.714 29.7812 130.423 30.0599L134.383 35.9999H132.073L128.333 30.2799H124.263V35.9999H122.283ZM124.263 28.4099H128.883C130.071 28.4099 130.973 28.1459 131.589 27.6179C132.205 27.0752 132.513 26.3492 132.513 25.4399C132.513 24.5306 132.205 23.8119 131.589 23.2839C130.973 22.7412 130.071 22.4699 128.883 22.4699H124.263V28.4099ZM137.344 35.9999V20.5999H148.124V22.4699H139.324V27.3099H146.474V29.1799H139.324V34.1299H148.124V35.9999H137.344ZM150.376 35.9559C150.126 35.7066 150.002 35.3912 150.002 35.0099C150.002 34.6286 150.126 34.3132 150.376 34.0639C150.625 33.8146 150.94 33.6899 151.322 33.6899C151.703 33.6899 152.018 33.8146 152.268 34.0639C152.517 34.3132 152.642 34.6286 152.642 35.0099C152.642 35.3912 152.517 35.7066 152.268 35.9559C152.018 36.2052 151.703 36.3299 151.322 36.3299C150.94 36.3299 150.625 36.2052 150.376 35.9559ZM154.071 35.9999L158.031 20.5999H164.081L168.041 35.9999H166.061L164.851 31.4899H157.261L156.051 35.9999H154.071ZM157.701 29.6199H164.411L162.541 22.4699H159.571L157.701 29.6199ZM170.237 35.9999V20.5999H172.217V35.9999H170.237Z" fill="#F73737"/>
<path d="M44.4184 4.37736C40.0135 1.64151 36.1593 0.36478 30.2862 0C24.7801 5.10692 24.9636 15.5031 30.2862 20.2453C32.4886 11.4906 37.6276 6.74843 44.4184 4.37736Z" fill="#F73737"/>
<path d="M50.842 9.30189C42.5829 8.93711 36.1592 16.4151 36.1592 23.7107C42.95 19.1509 50.842 18.9686 57.4493 22.6164C56.3481 16.7799 54.265 13.7032 50.842 9.30189Z" fill="#F73737"/>
<path d="M57.9999 30.0944C52.8609 24.6227 42.7665 25.1699 37.811 30.2768C45.9036 32.2301 50.2914 35.9309 53.9621 44.1385C56.7644 39.5414 57.9999 36.1133 57.9999 30.0944Z" fill="#F73737"/>
<path d="M48.8233 50.522C48.2727 41.7673 42.299 36.6173 34.324 36.1132C38.4517 43.2872 39.2795 49.9748 35.6088 57.2704C41.0884 55.7793 44.2349 54.3522 48.8233 50.522Z" fill="#F73737"/>
<path d="M27.7167 57.9999C33.0393 52.7106 33.4063 44.1383 27.7167 37.7546C25.5143 46.6917 20.7424 51.2515 13.5845 53.8049C18.5138 56.7938 21.7146 57.4683 27.7167 57.9999Z" fill="#F73737"/>
<path d="M7.52776 48.6981C16.1019 47.902 21.66 42.3145 21.66 34.1069C16.3374 38.3019 7.34422 38.8491 0.369873 35.7484C2.31753 41.4146 3.86636 44.3772 7.52776 48.6981Z" fill="#F73737"/>
<path d="M0.0027776 27.7232C4.59117 32.6477 14.135 33.3773 20.1917 27.7232C11.5655 25.7169 6.51304 20.6646 4.22409 14.0439C1.65487 17.8741 -0.0790589 23.1655 0.0027776 27.7232Z" fill="#F73737"/>
<path d="M9.17993 7.66043C10.4647 16.4152 15.2366 21.1573 23.6792 21.8869C19.4178 14.8841 19.0908 8.2076 22.2109 0.729614C16.1543 2.18873 12.9513 4.19933 9.17993 7.66043Z" fill="#F73737"/>
</svg>
