<svg width="209" height="86" viewBox="0 0 209 86" fill="none" xmlns="http://www.w3.org/2000/svg">
<path opacity="0.6" fill-rule="evenodd" clip-rule="evenodd" d="M-0.000488281 18.0671V36.1342H11.5164H23.0333L22.7324 18.3785L22.4314 0.622815L11.2155 0.311403L-0.000488281 0V18.0671ZM74.955 1.11888C73.7513 1.61604 71.5377 3.34354 70.0353 4.95739C67.7046 7.46176 67.2472 9.14227 66.9156 16.4259C66.6267 22.7852 66.9955 25.9441 68.3644 28.8232C73.5478 39.7323 91.9157 37.6158 91.9157 26.1101C91.9157 23.8112 92.4081 21.9296 93.01 21.9296C93.6118 21.9296 94.1042 21.4379 94.1042 20.837C94.1042 20.236 91.3544 19.7443 87.9951 19.7443C83.5689 19.7443 82.0238 20.1213 82.3871 21.1102C82.6628 21.8619 83.4419 22.3536 84.1193 22.2028C84.8885 22.0324 85.3503 23.7653 85.3503 26.8258C85.3503 31.2129 85.0483 31.7974 82.4451 32.4498C76.0033 34.0647 73.1189 29.0101 73.5478 16.8532C73.9023 6.77994 75.8096 3.35446 81.0652 3.35446C84.3348 3.35446 87.5388 5.82605 87.5388 8.349C87.5388 9.20783 88.2774 9.91041 89.1801 9.91041C90.2809 9.91041 90.8215 8.81119 90.8215 6.5767C90.8215 3.80572 90.1814 2.9753 87.0267 1.65974C82.8631 -0.0775818 78.3417 -0.279718 74.955 1.11888ZM26.2613 2.2618C26.2613 2.86276 26.7537 3.35446 27.3555 3.35446C28.0307 3.35446 28.4498 9.02098 28.4498 18.1698C28.4498 27.7688 28.0646 32.747 27.3555 32.3099C26.7537 31.9384 26.2613 32.4017 26.2613 33.3381C26.2613 34.74 27.8217 35.0415 35.0699 35.0415C49.271 35.0415 52.9334 31.5691 52.9334 18.1053C52.9334 9.81425 50.9966 4.84485 46.9523 2.75678C43.3927 0.918928 26.2613 0.509178 26.2613 2.2618ZM53.6173 2.14488C53.6173 2.68138 54.3559 3.40363 55.2587 3.75C57.6846 4.67876 57.6846 31.5319 55.2587 32.4607C51.7702 33.7981 53.8799 35.0415 59.6356 35.0415C64.3573 35.0415 65.654 34.6744 65.654 33.3381C65.654 32.4017 65.1616 31.9384 64.5597 32.3099C63.8507 32.747 63.4655 27.7688 63.4655 18.1698C63.4655 9.02098 63.8846 3.35446 64.5597 3.35446C65.1616 3.35446 65.654 2.86276 65.654 2.2618C65.654 1.66084 62.9457 1.16914 59.6356 1.16914C56.3256 1.16914 53.6173 1.60839 53.6173 2.14488ZM93.01 2.2618C93.01 2.86276 93.7486 3.35446 94.6513 3.35446C96.029 3.35446 96.2927 5.72225 96.2927 18.1053C96.2927 28.4648 95.9261 32.7754 95.0617 32.5831C94.3843 32.4323 93.6052 32.9251 93.3295 33.6757C92.9618 34.6744 94.6393 35.0415 99.5754 35.0415C104.512 35.0415 106.189 34.6744 105.821 33.6757C105.546 32.9251 104.767 32.4323 104.089 32.5831C103.225 32.7754 102.858 28.4648 102.858 18.1053C102.858 5.72225 103.122 3.35446 104.5 3.35446C105.402 3.35446 106.141 2.86276 106.141 2.2618C106.141 1.65428 103.223 1.16914 99.5754 1.16914C95.9283 1.16914 93.01 1.65428 93.01 2.2618ZM106.805 2.89773C105.694 5.78781 106.057 7.72509 107.709 7.72509C108.571 7.72509 109.589 6.7417 109.971 5.53978C110.415 4.14336 111.626 3.35446 113.327 3.35446H115.989V18.1053C115.989 27.2105 115.57 32.8562 114.895 32.8562C114.293 32.8562 113.801 33.3479 113.801 33.9489C113.801 34.5498 116.509 35.0415 119.819 35.0415C125.544 35.0415 127.816 33.5457 124.196 32.1591C122.854 31.6445 122.554 28.9565 122.554 17.4421V3.35446H125.281C126.822 3.35446 128.601 4.30398 129.374 5.53978C131.012 8.15888 134.042 8.53366 133.067 5.99651C132.701 5.04589 132.403 3.5708 132.403 2.71853C132.403 0.293924 107.74 0.465473 106.805 2.89773ZM136.817 17.0127C133.803 26.9045 131.451 32.8562 130.554 32.8562C129.766 32.8562 129.12 33.3479 129.12 33.9489C129.12 34.5498 130.896 35.0415 133.067 35.0415C136.287 35.0415 136.886 34.7094 136.32 33.2354C135.938 32.2421 136.17 29.7837 136.834 27.7721C137.918 24.4974 138.468 24.115 142.11 24.115C145.93 24.115 146.247 24.3805 147.343 28.4856C147.987 30.8894 148.089 32.8562 147.57 32.8562C147.051 32.8562 146.628 33.3479 146.628 33.9489C146.628 34.5498 149.09 35.0415 152.099 35.0415C155.108 35.0415 157.57 34.5498 157.57 33.9489C157.57 33.3479 157.113 32.8562 156.554 32.8562C155.994 32.8562 153.176 25.7266 150.289 17.0127C146.533 5.66652 144.561 1.16914 143.344 1.16914C142.107 1.16914 140.328 5.48733 136.817 17.0127ZM159.759 2.2618C159.759 2.86276 160.251 3.35446 160.853 3.35446C161.528 3.35446 161.947 9.00022 161.947 18.1053C161.947 27.2105 161.528 32.8562 160.853 32.8562C160.251 32.8562 159.759 33.3479 159.759 33.9489C159.759 34.611 164.5 35.0415 171.795 35.0415C181.456 35.0415 183.832 34.7356 183.832 33.4921C183.832 32.6399 184.131 31.1648 184.496 30.2142C185.49 27.6289 181.961 28.0376 180.549 30.6709C179.619 32.406 178.258 32.8562 173.945 32.8562H168.513V18.1053C168.513 9.00022 168.932 3.35446 169.607 3.35446C170.209 3.35446 170.701 2.86276 170.701 2.2618C170.701 1.66084 168.239 1.16914 165.23 1.16914C162.221 1.16914 159.759 1.66084 159.759 2.2618ZM35.0152 18.2419V33.1294L38.5715 32.4432C43.1772 31.5549 45.6622 28.4637 46.5562 22.5164C48.1078 12.1842 44.0733 3.35446 37.8001 3.35446H35.0152V18.2419ZM140.472 16.3505C139.315 20.6753 139.365 20.837 141.856 20.837C144.731 20.837 144.975 19.5903 143.006 14.9847L141.671 11.8641L140.472 16.3505ZM27.8096 42.5995C26.8697 43.5402 27.4059 44.8755 28.7233 44.8744C30.856 44.8722 30.0266 80.2655 27.8523 82.0673C25.2776 84.2013 25.8466 86.6631 28.7233 85.8359C35.6882 83.832 37.6326 76.9767 37.0144 56.6194C36.7332 47.3776 36.9684 44.8711 38.1152 44.8733C38.9184 44.8744 39.3889 44.3204 39.1635 43.6429C38.7816 42.4989 28.8229 41.5833 27.8096 42.5995ZM47.0519 42.995C42.2536 45.389 40.3354 50.8217 40.7053 60.9714C41.0117 69.3761 41.2568 70.188 44.4333 73.36C50.7406 79.6569 61.7902 77.5547 65.1988 69.41C67.3074 64.3696 67.1804 53.2168 64.9591 48.5435C61.9915 42.299 53.6359 39.7094 47.0519 42.995ZM67.2056 42.5995C66.189 43.6102 66.8467 44.8755 68.3896 44.8755C69.753 44.8755 70.0309 46.9908 70.0309 57.3569C70.0309 69.1915 70.1775 70.0132 72.8639 73.2004C75.2505 76.0326 76.4683 76.5625 80.5958 76.5625C90.5381 76.5625 93.01 72.4552 93.01 55.9277C93.01 48.2201 93.4083 44.9159 94.3778 44.5695C96.3255 43.8757 95.2028 43.1086 91.0951 42.3285C88.3846 41.8127 87.5388 42.0356 87.5388 43.2638C87.5388 44.1499 88.0312 44.8755 88.633 44.8755C90.0993 44.8755 90.0435 62.8158 88.5608 68.148C87.0551 73.561 83.3478 75.4666 79.3768 72.8683C77.5538 71.6751 76.581 70.023 76.5515 68.0693C76.5274 66.4303 76.4049 60.5409 76.2779 54.9825C76.1018 47.1733 76.3808 44.8744 77.5079 44.8755C78.311 44.8755 78.7673 44.2778 78.5244 43.5479C78.1152 42.323 68.3097 41.5013 67.2056 42.5995ZM105.32 42.4651C100.957 42.641 97.3869 43.2561 97.3869 43.8309C97.3869 44.4056 97.8793 44.8755 98.4812 44.8755C99.1541 44.8755 99.5754 50.3387 99.5754 59.08C99.5754 67.8213 99.1541 73.2846 98.4812 73.2846C97.8793 73.2846 97.3869 74.0221 97.3869 74.9236C97.3869 76.1615 98.7241 76.5625 102.858 76.5625C106.992 76.5625 108.329 76.1615 108.329 74.9236C108.329 74.0221 107.837 73.2846 107.235 73.2846C106.633 73.2846 106.141 70.5442 106.141 67.1952C106.141 59.1434 108.004 59.5706 113.636 68.9139C117.689 75.636 118.16 76.0337 122.425 76.3517C127.475 76.7286 128.7 74.587 124.5 72.724C123.162 72.1307 120.652 69.3466 118.921 66.5363L115.773 61.427L119.346 58.2387C123.723 54.3346 124.152 49.445 120.462 45.5234C117.532 42.4093 115.722 42.0444 105.32 42.4651ZM131.582 42.3875C128.422 42.7797 126.347 44.8755 129.12 44.8755C129.793 44.8755 130.214 50.3387 130.214 59.08C130.214 67.8213 129.793 73.2846 129.12 73.2846C128.518 73.2846 128.026 74.0221 128.026 74.9236C128.026 76.0687 129.181 76.5625 131.856 76.5625C134.43 76.5625 135.685 76.0555 135.685 75.0142C135.685 74.1631 135.173 73.2966 134.548 73.0879C133.835 72.8508 133.53 68.6943 133.728 61.9351L134.044 51.1615L141.157 63.8375C151.122 81.5964 152.099 81.3178 152.099 60.719C152.099 50.8851 152.514 44.8755 153.193 44.8755C153.795 44.8755 154.287 44.2363 154.287 43.4561C154.287 42.4771 153.099 42.1744 150.458 42.4825C148.351 42.7284 146.628 43.3676 146.628 43.9019C146.628 44.4373 147.12 44.8755 147.722 44.8755C148.369 44.8755 148.812 48.7839 148.805 54.4362L148.794 63.997L142.215 52.7972C138.596 46.6368 135.523 41.6762 135.387 41.7723C135.25 41.8685 133.537 42.146 131.582 42.3875ZM167.758 42.9087C167.145 43.6899 164.785 50.4753 162.513 57.9874C160.241 65.4994 157.707 72.1919 156.882 72.8584C154.254 74.9837 155.246 76.5625 159.212 76.5625C161.886 76.5625 163.041 76.0687 163.041 74.9236C163.041 74.0221 162.595 73.2846 162.05 73.2846C161.492 73.2846 161.572 71.6117 162.233 69.4603C163.302 65.9823 163.778 65.636 167.495 65.636C171.03 65.636 171.732 66.0676 172.699 68.8396C173.315 70.601 173.552 73.0595 173.227 74.3029C172.685 76.3702 173.112 76.5625 178.233 76.5625C183.59 76.5625 185.699 75.0241 182.186 73.6779C181.213 73.3053 178.693 67.1766 176.023 58.6878C171.222 43.4266 169.672 40.4677 167.758 42.9087ZM184.925 43.5096C184.926 44.2614 185.419 44.8755 186.02 44.8755C186.693 44.8755 187.115 50.3387 187.115 59.08C187.115 67.8213 186.693 73.2846 186.02 73.2846C185.419 73.2846 184.926 74.0221 184.926 74.9236C184.926 76.2806 186.993 76.5625 196.963 76.5625H208.999V73.2846C208.999 69.8536 207.195 68.8287 206.113 71.6456C205.66 72.8224 203.817 73.2846 199.581 73.2846H193.68V59.08C193.68 49.6099 194.075 44.8755 194.865 44.8755C195.517 44.8755 195.865 44.3204 195.64 43.6429C195.052 41.8849 184.924 41.7592 184.925 43.5096ZM49.1003 46.6816C47.0584 49.1379 46.3953 65.7868 48.1702 70.0656C49.9822 74.4319 54.1196 75.4535 57.2666 72.3121C59.1848 70.3956 59.6936 68.384 60.0077 61.4598C60.5154 50.3125 58.4823 44.8755 53.8066 44.8755C52.0449 44.8755 49.9264 45.6884 49.1003 46.6816ZM106.141 51.4314C106.141 57.9513 106.158 57.9874 109.346 57.9874C114.252 57.9874 116.733 54.7509 116.043 49.2461C115.74 46.8193 112.702 44.8755 109.215 44.8755C106.187 44.8755 106.141 44.9749 106.141 51.4314ZM166.355 57.3602C164.716 61.6652 164.931 62.358 167.909 62.358C170.447 62.358 170.525 62.1722 169.388 58.8069C167.771 54.0221 167.648 53.9631 166.355 57.3602Z" fill="white"/>
</svg>
