<svg width="363" height="393" viewBox="0 0 363 393" fill="none" xmlns="http://www.w3.org/2000/svg">
<path d="M196.789 85.2583L182.165 93.8998V110.518L196.789 101.212V85.2583Z" fill="#161616" stroke="white" stroke-width="0.5"/>
<path d="M182.165 93.8999L173.524 88.582M182.165 110.518L167.541 101.877V96.5588" stroke="white" stroke-width="0.5"/>
<path d="M190.806 81.9347L196.789 85.2583L182.165 93.8998L173.523 88.582V81.2699L178.177 77.9463L188.147 83.2641L190.806 81.9347Z" fill="#161616" stroke="white" stroke-width="0.5"/>
<path d="M182.165 107.859L167.541 99.2176M182.165 105.2L167.541 96.5587M182.165 102.541L169.535 95.2293M182.165 99.8824L171.529 93.8998M182.165 97.2235L173.524 92.5704M182.165 95.2293L173.524 90.5762" stroke="white" stroke-width="0.5"/>
<path d="M200.778 159.042C185.139 150.574 175.738 149.396 156.905 159.042L93.7562 196.267C85.1142 200.92 87.2575 210.193 93.7562 215.544L155.576 252.769C170.2 262.076 186.818 262.076 201.442 252.769L260.603 218.203C271.198 211.148 274.562 201.586 260.603 194.937L200.778 159.042Z" fill="#0F0E0E" stroke="white" stroke-width="0.5"/>
<path d="M201.71 366.675C187.07 374.344 175.219 375.041 160.579 366.675L14.8794 279.534C9.30234 273.957 8.61735 266.294 14.8795 262.803L160.579 176.359C174.522 167.994 187.07 168.691 201.71 176.359L339.741 256.529C356.472 265.592 351.592 275.351 336.952 285.111L201.71 366.675Z" fill="#0F0E0E" stroke="white" stroke-width="0.5"/>
<g filter="url(#filter0_d_212_101)">
<path d="M343.924 259.318C353.388 268.46 351.106 274.014 338.347 284.415V304.632L349.501 298.357C352.589 295.587 353.096 293.683 352.986 289.992V274.655C352.888 265.524 350.352 262.669 343.924 259.318Z" fill="#F73737"/>
</g>
<g filter="url(#filter1_d_212_101)">
<path d="M51.1305 300.448V320.665L14.1828 298.357C10.6971 295.568 10.0001 292.78 10 287.9V270.472C11.3943 273.957 13.4856 278.14 15.577 278.837L51.1305 300.448Z" fill="#F73737"/>
</g>
<g filter="url(#filter2_d_212_101)">
<path d="M68.5586 331.122V311.603L79.7126 318.574V338.093L68.5586 331.122Z" fill="#F73737"/>
</g>
<path d="M51.1299 320.665L159.882 386.195M159.882 386.195V366.422M159.882 386.195C172.555 393.899 189.161 393.863 201.709 386.195M201.709 386.195L204.898 384.291M201.709 386.195V383.406M201.709 366.675V371.555M320.918 315.034L338.346 284.414V289.991M320.918 315.034L325.798 312.121M320.918 315.034L316.158 317.876M325.798 312.121L338.346 289.991M325.798 312.121L330.678 309.208M338.346 289.991V294.871M338.346 294.871L330.678 309.208M338.346 294.871V299.751M330.678 309.208L334.512 306.92M334.512 306.92L338.346 304.631V299.751M334.512 306.92L338.346 299.751M316.158 317.876L332.769 287.9M316.158 317.876L311.856 320.444M311.856 320.444L327.192 291.385M311.856 320.444L306.279 323.773M306.279 323.773L320.221 295.568M306.279 323.773L300.702 327.102M300.702 327.102L313.947 299.054M300.702 327.102L295.822 330.015M295.822 330.015L307.673 302.539M295.822 330.015L289.85 333.58M289.85 333.58L301.399 306.722M289.85 333.58L283.458 337.396M283.458 337.396L295.125 310.208M283.458 337.396L278.393 340.419M278.393 340.419L288.85 314.391M278.393 340.419L273.514 343.332M273.514 343.332L283.458 317.179M273.514 343.332L268.634 346.245M268.634 346.245L276.999 321.362M268.634 346.245L263.605 349.247M263.605 349.247L271.422 324.847M263.605 349.247L258.874 352.071M258.874 352.071L265.845 328.333M258.874 352.071L254.691 354.568M254.691 354.568L260.268 331.819M254.691 354.568L249.811 357.481M249.811 357.481L254.691 334.607M249.811 357.481L243.752 361.098M243.752 361.098L249.811 337.396M243.752 361.098L237.96 364.555M237.96 364.555L243.752 341.243M237.96 364.555L232.073 368.069M232.073 368.069L237.96 345.064M232.073 368.069L226.234 371.555M226.234 371.555C226.134 370.997 230.292 355.986 232.383 348.55M226.234 371.555L219.835 375.375M219.835 375.375L225.412 352.733M219.835 375.375L214.556 378.526M214.556 378.526L220.532 355.521M214.556 378.526L209.378 381.617M209.378 381.617L214.955 359.007M209.378 381.617L204.898 384.291M204.898 384.291L210.075 361.795M201.709 383.406L205.892 364.555M201.709 383.406V371.555M201.709 371.555L203.104 365.978" stroke="white" stroke-width="0.5"/>
<path d="M208.754 130.46L194.794 122.483V139.102L208.754 147.078V130.46Z" stroke="white" stroke-width="0.5"/>
<path d="M162.223 144.419V127.801L152.024 121.973L148.264 124.478V136.443L162.223 144.419Z" stroke="white" stroke-width="0.5"/>
<path d="M124.998 154.39L111.039 146.414V163.032L124.998 171.009V154.39Z" stroke="white" stroke-width="0.5"/>
<path d="M222.713 123.148L208.754 130.46V147.078L222.713 138.437V123.148Z" fill="#161616" stroke="white" stroke-width="0.5"/>
<path d="M176.182 120.489L162.223 127.801V144.42L176.182 135.778V120.489Z" fill="#161616" stroke="white" stroke-width="0.5"/>
<path d="M208.754 113.177L194.794 122.483L208.754 130.46L222.713 123.148L208.754 113.177Z" fill="#161616" stroke="white" stroke-width="0.5"/>
<path d="M138.957 147.078L124.998 154.39V171.008L138.957 162.367V147.078Z" fill="#161616" stroke="white" stroke-width="0.5"/>
<path d="M194.794 137.107L208.754 145.084M194.794 135.113L208.754 142.425M194.794 133.119L208.754 140.431M208.754 138.437L194.794 131.125M194.794 129.13L208.754 136.442M208.754 134.448L194.794 127.136M208.754 132.454L194.794 125.142" stroke="white" stroke-width="0.5"/>
<path d="M176.182 120.489L162.223 110.518L158.235 113.177V118.495L152.252 121.818L162.223 127.801L176.182 120.489Z" fill="#161616" stroke="white" stroke-width="0.5"/>
<path d="M124.998 137.107L111.039 146.414L124.998 154.39L138.957 147.078L124.998 137.107Z" fill="#161616" stroke="white" stroke-width="0.5"/>
<path d="M148.264 134.448L162.223 142.425M148.264 132.454L162.223 139.766M148.264 130.46L162.223 137.772M162.223 135.778L148.264 128.466M148.264 126.472L162.223 133.784M162.223 131.789L148.264 124.477M162.223 129.795L150.258 123.148" stroke="white" stroke-width="0.5"/>
<path d="M99.0737 218.869V276.036L157.57 309.937C172.194 319.243 186.153 318.578 199.448 309.937L259.273 274.706V219.534L198.118 254.765C186.818 261.412 170.2 261.412 158.899 254.765L99.0737 218.869Z" fill="#161616"/>
<path d="M111.039 161.037L124.998 169.014M111.039 159.043L124.998 166.355M111.039 157.049L124.998 164.361M124.998 162.367L111.039 155.055M111.039 153.061L124.998 160.373M124.998 158.378L111.039 151.066M124.998 156.384L111.039 149.072" stroke="white" stroke-width="0.5"/>
<path d="M158.235 102.542V118.495L140.952 128.466C115.692 111.848 127.657 48.6988 175.518 23.439C198.783 14.1324 219.39 22.109 219.39 48.6988L203.436 58.005V75.2879L188.147 83.2647V67.9759L173.523 75.2879V92.5709L158.235 102.542Z" fill="#150F0F" stroke="white" stroke-width="0.5"/>
<path d="M146.269 117.83C132.886 105.476 132.31 79.2756 154.91 50.6922M174.188 34.074C194.13 26.0976 205.43 30.0859 209.418 48.0333" stroke="white" stroke-width="0.5"/>
<path d="M150.258 37.3979L141.616 32.0801M144.94 44.7099L135.634 39.3921M138.957 52.6867L130.316 47.3688M132.31 59.9987L125.663 55.3456M127.657 67.3107L121.674 63.3223M123.669 75.9522L118.351 72.6285M119.68 85.2584L116.357 82.5995M118.351 94.5646L115.692 92.5704" stroke="white" stroke-width="0.5"/>
<g filter="url(#filter3_d_212_101)">
<path d="M118.351 115.171C119.68 119.824 133.621 126.188 140.952 128.466C133.982 122.568 132.357 119.412 130.316 113.842C123.612 110.628 119.84 108.006 113.033 101.212L118.351 115.171Z" fill="#F73737"/>
</g>
<g filter="url(#filter4_d_212_101)">
<path d="M145.604 23.4389L160.229 33.4098C162.129 31.8179 163.207 31.1801 164.882 30.0862L150.258 20.1152C148.357 21.0294 147.314 21.6559 145.604 23.4389Z" fill="#F73737"/>
</g>
<g filter="url(#filter5_d_212_101)">
<path d="M156.24 16.1272L170.864 26.0982C185.604 19.1649 193.628 17.1523 206.76 22.7745C183.207 4.72712 173.57 9.02771 156.24 16.1272Z" fill="#F73737"/>
</g>
<path d="M156.241 16.1265C124.334 34.0741 107.716 71.299 113.033 101.212" stroke="white" stroke-width="0.5"/>
<path d="M188.147 83.2643L173.523 75.2876" stroke="white" stroke-width="0.5"/>
<path d="M188.147 80.6054L176.182 73.9581M188.147 78.6112L178.176 73.2934M188.147 76.617L180.171 71.9639M188.147 74.6228L182.165 71.2992M188.147 72.6286L183.494 69.9697" stroke="white" stroke-width="0.5"/>
<g filter="url(#filter6_f_212_101)">
<path d="M193.046 337.855H179.552L83.6667 283.468L75.1436 271.751L80.1154 258.246L88.4381 254.692V271.751L153.582 307.278L179.552 318.579L207.425 307.278L245.979 283.468L267.25 271.751L274.016 254.692L282.539 276.727L193.046 337.855Z" fill="#222222"/>
</g>
<path d="M100.403 276.7L163.553 313.925C172.859 317.914 182.83 318.578 193.465 313.925L265.921 270.718" stroke="white" stroke-width="0.5"/>
<g filter="url(#filter7_d_212_101)">
<path d="M87.7734 202.916C87.7734 212.222 91.654 214.901 101.732 220.198V278.03L91.7618 272.047C89.1029 270.053 87.7734 266.73 87.7734 260.082V202.916Z" fill="#F73737"/>
<path d="M107.715 281.354V224.187L114.363 228.84V285.342L107.715 281.354Z" fill="#F73737"/>
<path d="M120.345 288.666V232.164L123.004 234.158V290.66L120.345 288.666Z" fill="#F73737"/>
<path d="M158.899 258.088H156.241V307.278H158.899V258.088Z" fill="#F73737"/>
<path d="M201.442 258.088H198.783V307.278H201.442V258.088Z" fill="#F73737"/>
<path d="M269.909 204.245C269.909 211.557 265.294 216.621 255.285 221.528V278.03L265.921 271.383C268.58 269.388 269.909 266.73 269.909 261.412V204.245Z" fill="#F73737"/>
</g>
<path d="M254.62 221.53C269.909 214.883 275.891 202.253 261.267 194.941L201.442 159.046C184.159 149.737 172.819 150.212 155.576 159.046L91.0965 198.93C85.7791 203.583 87.7735 212.224 95.7496 216.877L158.899 254.767C172.193 261.414 184.823 261.414 198.118 254.767L254.62 221.53Z" fill="#0F0E0E" stroke="white" stroke-width="0.5"/>
<g filter="url(#filter8_f_212_101)">
<ellipse cx="178.841" cy="214.216" rx="26.5892" ry="15.9535" fill="#222222"/>
</g>
<path d="M163.029 195.913C167.312 193.636 169.635 192.941 173.692 192.332C171.147 196.032 171.257 199.404 174.419 202.956C167.064 202.821 163.393 199.375 163.029 195.913Z" fill="white"/>
<path d="M179.992 202.001C175.873 199.256 176.236 194.122 180.719 191.615C185.951 191.737 188.411 192.266 192.23 193.764C186.033 195.35 183.055 196.81 179.992 202.001Z" fill="white"/>
<path d="M197.198 196.39C192.23 196.152 185.566 199.375 185.081 203.673C191.531 201.562 195.266 201.141 202.287 202.718C201.631 200.123 199.621 197.942 197.198 196.39Z" fill="white"/>
<path d="M202.772 207.015C198.046 204.27 192.428 204.226 186.414 207.015C194.018 208.479 196.226 210.168 198.652 213.82C201.372 211.224 202.012 209.72 202.772 207.015Z" fill="white"/>
<path d="M194.29 217.043C194.29 212.745 188.927 210.222 183.264 210.238C186.509 214.203 186.576 216.454 183.749 220.505C188.275 219.724 190.596 219.005 194.29 217.043Z" fill="white"/>
<path d="M177.206 220.863C182.173 217.163 181.446 213.82 177.569 211.194C174.85 215.578 172.17 217.186 166.058 219.073C169.882 220.282 172.219 220.774 177.206 220.863Z" fill="white"/>
<path d="M155.638 210.477C162.806 211.806 166.529 211.538 172.723 209.522C171.874 213.581 166.785 216.685 160.848 216.327C157.956 214.432 156.886 213.119 155.638 210.477Z" fill="white"/>
<path d="M154.911 206.418C161.745 208.91 166.543 208.448 171.39 206.06C164.641 204.852 161.837 203.38 158.546 199.256C155.998 201.776 155.174 203.338 154.911 206.418Z" fill="white"/>
<path d="M178.841 171.673L164.882 163.696V180.315L178.841 188.291V171.673Z" stroke="white" stroke-width="0.5"/>
<path d="M192.801 164.361L178.841 171.673V188.292L192.801 179.65V164.361Z" stroke="white" stroke-width="0.5"/>
<path d="M178.841 154.39L164.882 163.696L178.841 171.673L192.8 164.361L178.841 154.39Z" stroke="white" stroke-width="0.5"/>
<path d="M164.882 178.321L178.841 186.297M164.882 176.326L178.841 183.638M164.882 174.332L178.841 181.644M178.841 179.65L164.882 172.338M164.882 170.344L178.841 177.656M178.841 175.662L164.882 168.35M178.841 173.667L164.882 166.355" stroke="white" stroke-width="0.5"/>
<defs>
<filter id="filter0_d_212_101" x="328.347" y="249.318" width="34.6533" height="65.3135" filterUnits="userSpaceOnUse" color-interpolation-filters="sRGB">
<feFlood flood-opacity="0" result="BackgroundImageFix"/>
<feColorMatrix in="SourceAlpha" type="matrix" values="0 0 0 0 0 0 0 0 0 0 0 0 0 0 0 0 0 0 127 0" result="hardAlpha"/>
<feOffset/>
<feGaussianBlur stdDeviation="5"/>
<feComposite in2="hardAlpha" operator="out"/>
<feColorMatrix type="matrix" values="0 0 0 0 0.966667 0 0 0 0 0.2175 0 0 0 0 0.2175 0 0 0 1 0"/>
<feBlend mode="normal" in2="BackgroundImageFix" result="effect1_dropShadow_212_101"/>
<feBlend mode="normal" in="SourceGraphic" in2="effect1_dropShadow_212_101" result="shape"/>
</filter>
<filter id="filter1_d_212_101" x="0" y="260.472" width="61.1304" height="70.1934" filterUnits="userSpaceOnUse" color-interpolation-filters="sRGB">
<feFlood flood-opacity="0" result="BackgroundImageFix"/>
<feColorMatrix in="SourceAlpha" type="matrix" values="0 0 0 0 0 0 0 0 0 0 0 0 0 0 0 0 0 0 127 0" result="hardAlpha"/>
<feOffset/>
<feGaussianBlur stdDeviation="5"/>
<feComposite in2="hardAlpha" operator="out"/>
<feColorMatrix type="matrix" values="0 0 0 0 0.966667 0 0 0 0 0.2175 0 0 0 0 0.2175 0 0 0 1 0"/>
<feBlend mode="normal" in2="BackgroundImageFix" result="effect1_dropShadow_212_101"/>
<feBlend mode="normal" in="SourceGraphic" in2="effect1_dropShadow_212_101" result="shape"/>
</filter>
<filter id="filter2_d_212_101" x="58.5586" y="301.603" width="31.1538" height="46.4907" filterUnits="userSpaceOnUse" color-interpolation-filters="sRGB">
<feFlood flood-opacity="0" result="BackgroundImageFix"/>
<feColorMatrix in="SourceAlpha" type="matrix" values="0 0 0 0 0 0 0 0 0 0 0 0 0 0 0 0 0 0 127 0" result="hardAlpha"/>
<feOffset/>
<feGaussianBlur stdDeviation="5"/>
<feComposite in2="hardAlpha" operator="out"/>
<feColorMatrix type="matrix" values="0 0 0 0 0.966667 0 0 0 0 0.2175 0 0 0 0 0.2175 0 0 0 1 0"/>
<feBlend mode="normal" in2="BackgroundImageFix" result="effect1_dropShadow_212_101"/>
<feBlend mode="normal" in="SourceGraphic" in2="effect1_dropShadow_212_101" result="shape"/>
</filter>
<filter id="filter3_d_212_101" x="103.033" y="91.2119" width="47.9185" height="47.2539" filterUnits="userSpaceOnUse" color-interpolation-filters="sRGB">
<feFlood flood-opacity="0" result="BackgroundImageFix"/>
<feColorMatrix in="SourceAlpha" type="matrix" values="0 0 0 0 0 0 0 0 0 0 0 0 0 0 0 0 0 0 127 0" result="hardAlpha"/>
<feOffset/>
<feGaussianBlur stdDeviation="5"/>
<feComposite in2="hardAlpha" operator="out"/>
<feColorMatrix type="matrix" values="0 0 0 0 0.966667 0 0 0 0 0.2175 0 0 0 0 0.2175 0 0 0 1 0"/>
<feBlend mode="normal" in2="BackgroundImageFix" result="effect1_dropShadow_212_101"/>
<feBlend mode="normal" in="SourceGraphic" in2="effect1_dropShadow_212_101" result="shape"/>
</filter>
<filter id="filter4_d_212_101" x="135.604" y="10.1152" width="39.2773" height="33.2944" filterUnits="userSpaceOnUse" color-interpolation-filters="sRGB">
<feFlood flood-opacity="0" result="BackgroundImageFix"/>
<feColorMatrix in="SourceAlpha" type="matrix" values="0 0 0 0 0 0 0 0 0 0 0 0 0 0 0 0 0 0 127 0" result="hardAlpha"/>
<feOffset/>
<feGaussianBlur stdDeviation="5"/>
<feComposite in2="hardAlpha" operator="out"/>
<feColorMatrix type="matrix" values="0 0 0 0 0.966667 0 0 0 0 0.2175 0 0 0 0 0.2175 0 0 0 1 0"/>
<feBlend mode="normal" in2="BackgroundImageFix" result="effect1_dropShadow_212_101"/>
<feBlend mode="normal" in="SourceGraphic" in2="effect1_dropShadow_212_101" result="shape"/>
</filter>
<filter id="filter5_d_212_101" x="146.24" y="0" width="70.5195" height="36.0981" filterUnits="userSpaceOnUse" color-interpolation-filters="sRGB">
<feFlood flood-opacity="0" result="BackgroundImageFix"/>
<feColorMatrix in="SourceAlpha" type="matrix" values="0 0 0 0 0 0 0 0 0 0 0 0 0 0 0 0 0 0 127 0" result="hardAlpha"/>
<feOffset/>
<feGaussianBlur stdDeviation="5"/>
<feComposite in2="hardAlpha" operator="out"/>
<feColorMatrix type="matrix" values="0 0 0 0 0.966667 0 0 0 0 0.2175 0 0 0 0 0.2175 0 0 0 1 0"/>
<feBlend mode="normal" in2="BackgroundImageFix" result="effect1_dropShadow_212_101"/>
<feBlend mode="normal" in="SourceGraphic" in2="effect1_dropShadow_212_101" result="shape"/>
</filter>
<filter id="filter6_f_212_101" x="65.1436" y="244.692" width="227.396" height="103.164" filterUnits="userSpaceOnUse" color-interpolation-filters="sRGB">
<feFlood flood-opacity="0" result="BackgroundImageFix"/>
<feBlend mode="normal" in="SourceGraphic" in2="BackgroundImageFix" result="shape"/>
<feGaussianBlur stdDeviation="5" result="effect1_foregroundBlur_212_101"/>
</filter>
<filter id="filter7_d_212_101" x="77.7734" y="192.916" width="202.136" height="124.362" filterUnits="userSpaceOnUse" color-interpolation-filters="sRGB">
<feFlood flood-opacity="0" result="BackgroundImageFix"/>
<feColorMatrix in="SourceAlpha" type="matrix" values="0 0 0 0 0 0 0 0 0 0 0 0 0 0 0 0 0 0 127 0" result="hardAlpha"/>
<feOffset/>
<feGaussianBlur stdDeviation="5"/>
<feComposite in2="hardAlpha" operator="out"/>
<feColorMatrix type="matrix" values="0 0 0 0 0.966667 0 0 0 0 0.2175 0 0 0 0 0.2175 0 0 0 1 0"/>
<feBlend mode="normal" in2="BackgroundImageFix" result="effect1_dropShadow_212_101"/>
<feBlend mode="normal" in="SourceGraphic" in2="effect1_dropShadow_212_101" result="shape"/>
</filter>
<filter id="filter8_f_212_101" x="148.252" y="194.262" width="61.1782" height="39.9072" filterUnits="userSpaceOnUse" color-interpolation-filters="sRGB">
<feFlood flood-opacity="0" result="BackgroundImageFix"/>
<feBlend mode="normal" in="SourceGraphic" in2="BackgroundImageFix" result="shape"/>
<feGaussianBlur stdDeviation="2" result="effect1_foregroundBlur_212_101"/>
</filter>
</defs>
</svg>
