<svg width="165" height="49" viewBox="0 0 165 49" fill="none" xmlns="http://www.w3.org/2000/svg">
<path fill-rule="evenodd" clip-rule="evenodd" d="M21.3818 0.0640283C20.4299 0.184303 19.3407 0.535273 18.607 0.958363L18.0184 1.29769V10.4732V19.6486L18.5774 20.2069C20.5925 22.2198 24.3118 22.2307 26.3151 20.2296L26.8767 19.6686L26.848 10.4529L26.8193 1.23721L25.9784 0.818378C24.606 0.134805 22.96 -0.13531 21.3818 0.0640283ZM6.24661 8.0772C4.92088 8.84667 3.56196 9.6634 3.22674 9.89219C2.4424 10.4275 1.43148 11.7019 0.868788 12.8645C0.0443112 14.5677 0.0706576 14.152 0.105413 24.897L0.136468 34.4976L0.439172 35.3256C0.897152 36.5784 1.70761 37.8318 2.60855 38.6805C3.2227 39.2591 3.98989 39.7655 6.05019 40.952C7.50844 41.7918 8.72934 42.4512 8.76331 42.4171C8.85872 42.3219 8.83652 6.66795 8.74111 6.67344C8.69492 6.67612 7.57234 7.30785 6.24661 8.0772ZM36.1807 24.5374C36.1807 34.3578 36.2147 42.3927 36.2561 42.3927C36.2977 42.3927 37.4929 41.7249 38.912 40.9089C42.3016 38.9596 43.2223 38.1067 44.1549 36.052C44.8222 34.582 44.81 34.7942 44.81 24.5867C44.81 14.0438 44.8462 14.5409 43.9464 12.716C43.504 11.8188 43.2628 11.4942 42.4074 10.6442C41.4649 9.70763 41.2085 9.5317 38.7869 8.15918L36.1807 6.68217V24.5374ZM79.6675 11.4147C79.0387 11.6391 78.5883 12.0108 78.2514 12.5833C77.8382 13.2855 77.8125 14.5322 78.1965 15.2572C78.8486 16.4886 80.5267 16.9958 81.8746 16.3689C83.1027 15.7976 83.6686 14.4316 83.2522 13.0432C82.8481 11.6963 81.1015 10.9028 79.6675 11.4147ZM135.877 13.0515C132.104 13.5836 129.188 15.797 127.809 19.1737C126.557 22.2412 126.634 26.3395 127.998 29.2535C129.267 31.9646 131.223 33.6149 134.223 34.5072C135.571 34.9081 138.178 35.0136 139.697 34.7287C142.609 34.1827 144.834 32.7174 146.256 30.4085C147.555 28.301 148.138 25.453 147.854 22.6138C147.559 19.6611 146.544 17.4388 144.687 15.6776C143.341 14.4001 141.825 13.6284 139.839 13.2097C138.852 13.0015 136.81 12.92 135.877 13.0515ZM155.244 13.062C151.9 13.492 149.568 15.5449 149.17 18.4082C148.895 20.3935 149.476 22.0972 150.871 23.3864C151.826 24.2701 152.635 24.6999 155.01 25.5865C157.143 26.3824 158.277 26.9477 158.664 27.4069C159.323 28.1892 159.315 29.412 158.646 30.0417C158.05 30.6038 157.256 30.7906 155.525 30.7762C153.802 30.762 152.656 30.5514 151.32 30.0033C150.796 29.7883 150.3 29.6028 150.217 29.5912C150.117 29.5773 149.842 30.1984 149.407 31.4179C149.044 32.4342 148.746 33.2816 148.745 33.301C148.735 33.4169 150.58 34.1518 151.457 34.3812C153.143 34.8225 154.168 34.9219 156.398 34.8605C157.994 34.8167 158.634 34.7524 159.33 34.5661C161.817 33.9004 163.382 32.4844 163.938 30.3954C164.148 29.6095 164.143 27.7438 163.929 26.8368C163.503 25.0352 162.427 23.8527 160.256 22.8021C159.503 22.4381 158.182 21.8785 157.318 21.5585C156.455 21.2385 155.572 20.8738 155.356 20.7483C154.32 20.145 153.912 19.4221 154.111 18.5389C154.321 17.6024 155.012 17.2201 156.672 17.1208C158.064 17.0375 159.141 17.2056 160.444 17.7093C161.006 17.9268 161.536 18.1142 161.621 18.126C161.794 18.1499 163.139 14.679 163.048 14.443C162.985 14.278 161.519 13.7012 160.383 13.3942C158.819 12.9715 156.909 12.8481 155.244 13.062ZM56.1642 23.9987L56.1928 34.4976H58.5472H60.9015L60.9308 30.0461L60.9602 25.5946H64.8815H68.8029L68.8323 30.0461L68.8615 34.4976H71.2159H73.5703L73.5988 23.9987L73.6274 13.4999H71.2165H68.8055V17.4754V21.451H64.8815H60.9576V17.4754V13.4999H58.5466H56.1356L56.1642 23.9987ZM136.101 17.3652C135.143 17.5733 134.395 18.0057 133.656 18.7798C132.511 19.9786 131.925 21.7368 131.925 23.9707C131.925 27.0164 133.002 29.1508 135.05 30.1616L135.893 30.578H137.418H138.944L139.787 30.1616C141.835 29.1508 142.912 27.0164 142.912 23.9707C142.912 20.3735 141.345 17.9236 138.683 17.3602C137.755 17.1638 137.023 17.1652 136.101 17.3652ZM108.942 18.3212C107.514 18.6905 106.536 19.2463 105.507 20.2746C104.753 21.0274 104.506 21.3702 104.084 22.2424C103.388 23.6852 103.221 24.3842 103.15 26.1545C103.073 28.0567 103.321 29.4099 104.006 30.8364C104.641 32.157 105.806 33.3214 107.148 33.975C108.554 34.6602 109.187 34.7968 111.24 34.8591C113.093 34.9152 114.851 34.7142 116.287 34.2818C117.286 33.9811 117.26 34.0664 116.941 32.1458C116.788 31.2219 116.644 30.4073 116.622 30.3356C116.592 30.2422 116.379 30.2678 115.872 30.4258C114.95 30.7132 113.239 30.969 112.249 30.9674C111.352 30.9659 110.135 30.7348 109.617 30.4676C108.794 30.042 108.087 29.1819 107.891 28.3663L107.816 28.0583H112.918H118.019L118.091 27.7722C118.13 27.6148 118.137 26.7455 118.106 25.8404C118.042 23.9986 117.819 22.9492 117.224 21.6978C116.714 20.6258 115.447 19.3788 114.323 18.8439C112.744 18.0925 110.623 17.8864 108.942 18.3212ZM78.3623 26.5185L78.3911 34.4976L80.6614 34.5279L82.9317 34.5582V26.5488V18.5393H80.6326H78.3336L78.3623 26.5185ZM85.8466 18.6564C85.8466 18.7207 86.2816 20.0939 86.8131 21.708C88.2652 26.1165 89.6749 29.6962 91.2881 33.0714L91.9992 34.5591L93.8805 34.5283L95.7617 34.4976L96.015 34.0496C96.499 33.1936 97.7719 30.3404 98.7128 28.0023C99.4558 26.1561 101.991 18.8851 101.991 18.6002C101.991 18.5668 100.919 18.5397 99.6084 18.54L97.226 18.5406L96.7356 20.3038C96.0065 22.926 94.0222 28.8786 93.9138 28.7693C93.7676 28.6219 92.2309 23.9056 91.4564 21.227C91.0734 19.9028 90.7409 18.7564 90.7173 18.6793C90.6614 18.4967 85.8466 18.474 85.8466 18.6564ZM109.81 22.0588C108.878 22.3911 108.201 23.2247 107.947 24.354L107.845 24.8106H110.763H113.681L113.612 24.3064C113.574 24.029 113.442 23.606 113.32 23.3664C113.04 22.8179 112.274 22.1561 111.752 22.0112C111.199 21.8579 110.313 21.8796 109.81 22.0588ZM21.3818 27.1783C20.4552 27.3313 19.4407 27.8572 18.6869 28.5753L18.0184 29.2122V38.5366V47.861L18.551 48.1596C18.8439 48.3238 19.4455 48.5802 19.888 48.7291C20.6015 48.9693 20.889 49 22.4268 49C24.3571 49 25.167 48.8316 26.2867 48.1972L26.8753 47.8637V38.5262V29.1888L26.294 28.6083C25.5948 27.9097 24.4317 27.3307 23.3998 27.1674C22.5631 27.0351 22.2398 27.0367 21.3818 27.1783Z" fill="white"/>
</svg>
