<svg width="92" height="106" viewBox="0 0 92 106" fill="none" xmlns="http://www.w3.org/2000/svg">
<path fill-rule="evenodd" clip-rule="evenodd" d="M76.0283 0.0358367C73.8403 0.37877 72.0204 1.71617 71.1355 3.63151C69.7325 6.66807 70.8579 10.221 73.7414 11.8585C75.8626 13.0632 78.4159 12.9589 80.4707 11.5837C81.0201 11.2161 81.814 10.4083 82.1812 9.84353C83.1836 8.30167 83.4848 6.43302 83.0166 4.66026C82.4183 2.39457 80.6168 0.659194 78.3153 0.131519C77.7961 0.0124943 76.5184 -0.0409724 76.0283 0.0358367ZM44.4 8.86898C39.113 9.08306 33.8654 10.3071 28.9756 12.4667C27.9978 12.8986 26.1707 13.826 25.1928 14.3868C17.4072 18.8518 11.2496 25.6707 7.63305 33.8325C7.21315 34.78 6.69956 36.052 6.72611 36.0785C6.73442 36.0869 7.03608 35.7712 7.39642 35.3772C8.58173 34.0808 10.2133 32.6245 11.8894 31.367C22.9665 23.0565 40.1999 19.4848 56.7604 22.0673C60.1953 22.6029 63.4905 23.4071 66.8544 24.5305C73.8946 26.8819 79.9143 30.4439 84.1531 34.7667C84.5736 35.1955 85.0418 35.6853 85.1934 35.855L85.4691 36.1637L85.3427 35.8288C83.874 31.9364 81.5306 27.8573 78.8681 24.5586C77.4631 22.8179 75.213 20.4758 73.7025 19.1817C69.6316 15.6939 65.409 13.1961 60.5806 11.4196C56.3726 9.87139 52.2671 9.06492 47.5864 8.86699C46.2152 8.80905 45.8754 8.80926 44.4 8.86898ZM7.78062 10.0216C5.90208 10.2869 4.40675 11.6319 3.92224 13.4921C3.77493 14.0576 3.76047 15.0097 3.89043 15.5857C4.28205 17.3212 5.68412 18.721 7.41382 19.1034C7.91962 19.2152 8.89107 19.213 9.35812 19.0991C10.2708 18.8765 10.9658 18.4866 11.6248 17.8276C12.2833 17.1691 12.6718 16.4768 12.8969 15.5609C13.0279 15.0283 13.0138 14.0128 12.8679 13.4657C12.3371 11.4755 10.6349 10.0905 8.60675 9.99872C8.33032 9.98616 7.95853 9.99652 7.78062 10.0216ZM61.3342 40.0671L60.2039 40.3433L60.1776 42.0193L60.1513 43.6952L59.0604 43.7094L57.9695 43.7236V44.6426V45.5615H59.0473H60.125V49.8747C60.125 53.6005 60.1363 54.2427 60.2081 54.5899C60.4065 55.551 60.8824 56.4848 61.3867 56.9028C61.756 57.209 62.4137 57.5265 62.8851 57.6262C63.603 57.7781 64.7776 57.7182 65.6639 57.4847L66.077 57.3759L66.0462 56.9495C66.0293 56.7149 66.0002 56.2909 65.9815 56.0072C65.9561 55.6203 65.9309 55.498 65.8804 55.5173C65.6807 55.594 64.8953 55.6651 64.447 55.6471C64.0174 55.6298 63.8839 55.6024 63.6338 55.48C63.1329 55.2349 62.8484 54.7995 62.6838 54.0258C62.6398 53.8192 62.6222 52.5737 62.6222 49.6622V45.5878L64.4229 45.574L66.2235 45.5602V44.6408V43.7215H64.4097H62.596V41.75C62.596 40.2046 62.5818 39.7798 62.5302 39.7847C62.4941 39.7881 61.9559 39.9152 61.3342 40.0671ZM90.0653 43.4107C88.5367 43.6363 87.2556 44.6401 86.7399 46.0163C86.6604 46.2281 86.5718 46.3939 86.5429 46.3846C86.5102 46.3741 86.485 45.8678 86.4763 45.0446L86.4623 43.7215H85.3514H84.2404L84.2751 44.1552C84.2941 44.3938 84.3251 45.3519 84.3439 46.2844C84.3696 47.5561 84.3628 47.9799 84.317 47.9799C84.2711 47.9799 84.256 49.1483 84.256 52.6852V57.3904H85.4915H86.7269L86.7272 53.5395C86.7274 49.9983 86.7356 49.6326 86.8297 48.9932C86.9869 47.9249 87.268 47.3369 87.9168 46.7192C88.6611 46.0106 89.417 45.7213 90.5526 45.7109L91.0925 45.706L91.0783 44.5429L91.0642 43.3797L90.7225 43.372C90.5345 43.3677 90.2388 43.3851 90.0653 43.4107ZM34.2302 43.4796C33.3953 43.6386 32.7999 43.8788 32.1219 44.3299C31.6352 44.6538 30.993 45.282 30.6876 45.7331C30.4874 46.0288 30.4819 46.0326 30.4543 45.8908C30.4388 45.8109 30.4101 45.2901 30.3907 44.7335L30.3553 43.7215H29.2266H28.098L28.1328 43.9975C28.152 44.1493 28.1793 48.5024 28.1936 53.6709L28.2195 63.0683H29.4518H30.6842L30.6859 59.3225L30.6875 55.5767L30.8022 55.7344C31.0622 56.0919 31.6306 56.6297 32.0292 56.8951C33.031 57.5624 33.9936 57.7958 35.3621 57.7031C36.8901 57.5996 38.1724 57.0288 39.2215 55.9852C40.4472 54.7659 41.13 53.0143 41.2306 50.8308C41.3019 49.2842 41.0097 47.8027 40.3921 46.5791C39.6094 45.0286 38.3037 43.9582 36.7038 43.5552C36.1577 43.4178 34.7766 43.3755 34.2302 43.4796ZM73.978 43.5189C71.474 43.8388 69.4982 45.6549 68.7481 48.3261C68.431 49.4556 68.2986 51.2614 68.4563 52.3074C68.8168 54.6987 70.413 56.6302 72.69 57.4303C73.5179 57.7212 73.9949 57.7742 75.5159 57.7442C76.9257 57.7164 77.2949 57.6729 78.3277 57.4127C78.761 57.3036 79.7162 56.9914 79.7809 56.9378C79.8064 56.9166 79.4124 55.1681 79.3713 55.12C79.3543 55.1001 79.1057 55.1658 78.8187 55.266C77.8617 55.6002 77.1707 55.7133 75.8903 55.7455C74.6535 55.7767 74.307 55.7344 73.6325 55.4701C72.6657 55.0912 71.8408 54.3409 71.3533 53.3971C71.0489 52.8077 70.9059 52.2863 70.8662 51.6206L70.8341 51.0817H75.6861H80.5382L80.5081 49.9908C80.4499 47.8789 80.0432 46.5677 79.0501 45.2902C77.9938 43.9314 76.0535 43.2538 73.978 43.5189ZM4.6601 49.8857C4.65958 57.0692 4.62751 57.993 4.34135 59.0627C4.1381 59.8227 3.82009 60.2918 3.25377 60.667C2.66632 61.0562 2.06042 61.2688 1.28276 61.3586C1.11647 61.3778 0.980469 61.4136 0.980469 61.4381C0.980469 61.5117 1.19123 62.9794 1.22136 63.1155C1.24912 63.241 1.25138 63.2414 1.78515 63.2102C3.01877 63.138 4.42873 62.5802 5.36531 61.7938C5.85882 61.3795 6.55693 60.1474 6.86243 59.1516C7.19617 58.0637 7.18408 58.3836 7.18408 50.6542V43.6163H5.92232H4.66057L4.6601 49.8857ZM20.9465 48.2296C20.9314 52.8379 20.9313 52.8432 20.8157 53.1465C20.4326 54.1524 19.8514 54.8159 18.9867 55.2346C18.2679 55.5827 17.4416 55.6859 16.6744 55.5234C15.5091 55.2765 14.8221 54.4783 14.4806 52.9743C14.3703 52.4885 14.3666 52.3552 14.3478 48.0982L14.3285 43.7215H13.0661H11.8038L11.8253 48.3348C11.8461 52.7889 11.8508 52.9686 11.96 53.5446C12.3097 55.3878 13.0751 56.5755 14.334 57.2281C15.8938 58.0367 18.0231 57.8967 19.5484 56.8852C20.0181 56.5737 20.663 55.9451 20.9322 55.5365C21.042 55.3697 21.1392 55.2407 21.1481 55.2497C21.1571 55.2586 21.1897 55.6552 21.2206 56.1311C21.2515 56.6068 21.2893 57.0967 21.3047 57.2196L21.3327 57.443H22.4396H23.5465L23.5038 57.0881C23.4803 56.8929 23.4681 53.7819 23.4767 50.1748L23.4925 43.6163H22.227H20.9615L20.9465 48.2296ZM42.9862 43.6968C42.9862 43.713 44.1613 46.6292 45.5975 50.1772C47.9239 55.9245 48.2092 56.6603 48.213 56.9227C48.2167 57.1769 48.1799 57.2922 47.9445 57.7639C47.043 59.5702 45.7363 60.7781 43.8617 61.538C43.7793 61.5714 43.7229 61.6278 43.7364 61.6632C43.7499 61.6987 43.8871 62.1595 44.0414 62.6872C44.2604 63.4364 44.3411 63.6466 44.4097 63.6466C44.553 63.6466 45.2855 63.3934 45.7114 63.1966C46.378 62.8886 47.0993 62.3688 47.7389 61.7355C48.632 60.8512 49.208 60.0133 49.9988 58.4484C50.8801 56.704 51.457 55.2987 53.9505 48.821L55.9035 43.7478L54.6137 43.7337C53.9043 43.7259 53.3066 43.7378 53.2854 43.76C53.2161 43.8325 50.3177 52.3947 50.0061 53.4475C49.8392 54.0113 49.6862 54.4908 49.6662 54.513C49.6461 54.5351 49.5652 54.334 49.4865 54.0661C49.1456 52.9066 48.6263 51.4435 47.2238 47.6907L45.7307 43.6952L44.3585 43.6811C43.6037 43.6735 42.9862 43.6805 42.9862 43.6968ZM73.9975 45.1887C72.7963 45.5129 71.7902 46.3533 71.2684 47.4683C71.0758 47.8802 70.9025 48.5495 70.9025 48.882V49.1365H74.5826H78.2627L78.2618 48.6765C78.2605 48.0613 78.1524 47.5862 77.8905 47.045C77.6082 46.4618 76.955 45.7852 76.3955 45.4963C75.6219 45.0969 74.7515 44.9853 73.9975 45.1887ZM33.9643 45.5034C32.293 45.9145 31.0282 47.3001 30.7336 49.0427C30.6423 49.5835 30.6969 52.5454 30.8051 52.9137C31.1986 54.2534 32.1817 55.2454 33.4968 55.6296C34.3911 55.8907 35.5179 55.7955 36.3505 55.3883C37.3727 54.8883 38.1906 53.7878 38.5355 52.4486C39.1724 49.9745 38.5124 47.3245 36.9676 46.1534C36.0999 45.4958 34.9806 45.2535 33.9643 45.5034ZM6.87179 65.1737C10.6447 74.8677 17.9472 82.8818 27.2407 87.5276C35.3845 91.5988 44.598 92.9304 53.5008 91.3231C61.9674 89.7945 69.7285 85.7414 75.7928 79.6817C79.9994 75.4781 83.1211 70.6706 85.3687 64.9347L85.4716 64.6718L85.3449 64.8032C85.2752 64.8755 84.9216 65.2547 84.5592 65.6459C83.4169 66.8789 81.9116 68.2103 80.2494 69.4578C76.4622 72.3003 71.9477 74.604 66.8018 76.3201C61.8077 77.9855 56.8731 78.9605 51.2665 79.3897C47.8671 79.6499 43.7818 79.6306 40.2525 79.3378C27.0461 78.242 15.0969 73.3109 7.94349 66.0048C7.5371 65.5897 7.08161 65.1093 6.93125 64.9371L6.65787 64.624L6.87179 65.1737Z" fill="white"/>
<circle cx="14.7809" cy="97.3722" r="7.75451" fill="white"/>
</svg>
