<svg width="1039" height="110" viewBox="0 0 1039 110" fill="none" xmlns="http://www.w3.org/2000/svg">
<path opacity="0.2" d="M0.885938 87V2.99999H18.8859V70.2H60.2859V87H0.885938ZM74.0034 79.44C67.6834 73.12 64.5234 65.44 64.5234 56.4C64.5234 47.36 67.6834 39.72 74.0034 33.48C80.4034 27.16 88.2434 24 97.5234 24C106.963 24 114.723 27.12 120.803 33.36C126.883 39.6 129.923 47.28 129.923 56.4V60H81.9234C82.5634 64 84.3634 67.4 87.3234 70.2C90.2834 73 93.6834 74.4 97.5234 74.4C101.763 74.4 105.403 73.2 108.443 70.8C109.643 69.76 110.603 68.56 111.323 67.2H129.323C127.963 71.28 125.963 74.88 123.323 78C116.923 85.2 108.323 88.8 97.5234 88.8C88.2434 88.8 80.4034 85.68 74.0034 79.44ZM82.5234 49.8H111.923C111.283 46.6 109.643 43.92 107.003 41.76C104.443 39.52 101.283 38.4 97.5234 38.4C93.7634 38.4 90.5634 39.48 87.9234 41.64C85.2834 43.8 83.4834 46.52 82.5234 49.8ZM145.237 78.72C139.797 72.8 137.077 65.16 137.077 55.8C137.077 46.44 139.797 38.8 145.237 32.88C150.677 26.96 157.357 24 165.277 24C170.557 24 175.397 25.64 179.797 28.92C181.637 30.44 183.197 32.04 184.477 33.72H185.077V25.8H201.877V109.8H146.077V95.4H185.077V77.88H184.477C183.117 79.8 181.557 81.44 179.797 82.8C175.477 86 170.637 87.6 165.277 87.6C157.357 87.6 150.677 84.64 145.237 78.72ZM158.797 43.08C155.917 46.2 154.477 50.44 154.477 55.8C154.477 61.16 155.917 65.4 158.797 68.52C161.677 71.64 165.437 73.2 170.077 73.2C174.477 73.2 178.077 71.64 180.877 68.52C183.677 65.4 185.077 61.16 185.077 55.8C185.077 50.44 183.677 46.2 180.877 43.08C178.077 39.96 174.477 38.4 170.077 38.4C165.437 38.4 161.677 39.96 158.797 43.08ZM220.117 79.92C214.757 73.92 212.077 66.08 212.077 56.4C212.077 46.72 214.757 38.92 220.117 33C225.557 27 232.277 24 240.277 24C245.637 24 250.477 25.6 254.797 28.8C256.637 30.32 258.197 31.92 259.477 33.6H260.077V25.8H276.877V87H260.077V79.2H259.477C258.197 80.88 256.637 82.48 254.797 84C250.477 87.2 245.637 88.8 240.277 88.8C232.277 88.8 225.557 85.84 220.117 79.92ZM233.677 43.2C230.877 46.4 229.477 50.8 229.477 56.4C229.477 62 230.877 66.4 233.677 69.6C236.477 72.8 240.077 74.4 244.477 74.4C249.117 74.4 252.877 72.84 255.757 69.72C258.637 66.52 260.077 62.08 260.077 56.4C260.077 50.72 258.637 46.32 255.757 43.2C252.877 40 249.117 38.4 244.477 38.4C240.077 38.4 236.477 40 233.677 43.2ZM290.077 87V2.99999H306.877V72.6H320.677V87H290.077ZM368.027 79.44C361.707 73.12 358.547 65.44 358.547 56.4C358.547 47.36 361.707 39.72 368.027 33.48C374.427 27.16 382.267 24 391.547 24C402.667 24 411.147 28 416.987 36C419.627 39.44 421.547 43.44 422.747 48H405.347C404.627 46.24 403.667 44.64 402.467 43.2C399.427 40 395.787 38.4 391.547 38.4C387.307 38.4 383.627 40.08 380.507 43.44C377.467 46.8 375.947 51.12 375.947 56.4C375.947 61.68 377.467 66 380.507 69.36C383.627 72.72 387.307 74.4 391.547 74.4C395.787 74.4 399.427 72.8 402.467 69.6C403.667 68.16 404.627 66.56 405.347 64.8H422.747C421.627 69.44 419.787 73.44 417.227 76.8C411.387 84.8 402.827 88.8 391.547 88.8C382.267 88.8 374.427 85.68 368.027 79.44ZM438.342 79.44C431.942 73.12 428.742 65.44 428.742 56.4C428.742 47.36 431.942 39.72 438.342 33.48C444.742 27.16 452.742 24 462.342 24C471.862 24 479.822 27.16 486.222 33.48C492.702 39.72 495.942 47.36 495.942 56.4C495.942 65.44 492.702 73.12 486.222 79.44C479.822 85.68 471.862 88.8 462.342 88.8C452.742 88.8 444.742 85.68 438.342 79.44ZM450.822 43.44C447.702 46.8 446.142 51.12 446.142 56.4C446.142 61.68 447.702 66 450.822 69.36C453.942 72.72 457.782 74.4 462.342 74.4C466.902 74.4 470.742 72.72 473.862 69.36C476.982 66 478.542 61.68 478.542 56.4C478.542 51.12 476.982 46.8 473.862 43.44C470.742 40.08 466.902 38.4 462.342 38.4C457.782 38.4 453.942 40.08 450.822 43.44ZM505.584 87V25.8H522.384V34.2H522.984C524.104 32.2 525.464 30.52 527.064 29.16C530.984 25.72 535.624 24 540.984 24C547.384 24 552.744 25.92 557.064 29.76C558.824 31.44 560.264 33.32 561.384 35.4H561.984C563.104 33.32 564.544 31.44 566.304 29.76C570.624 25.92 575.784 24 581.784 24C589.144 24 594.864 26.24 598.944 30.72C603.104 35.12 605.184 41.48 605.184 49.8V87H588.384V51.6C588.384 42.8 584.584 38.4 576.984 38.4C573.304 38.4 570.184 39.84 567.624 42.72C565.064 45.6 563.784 49.36 563.784 54V87H546.984V51.6C546.984 42.8 543.184 38.4 535.584 38.4C531.904 38.4 528.784 39.84 526.224 42.72C523.664 45.6 522.384 49.36 522.384 54V87H505.584ZM617.733 109.8V25.8H634.533V33.6H635.133C636.413 31.92 637.973 30.32 639.813 28.8C644.133 25.6 648.973 24 654.333 24C662.333 24 669.013 27 674.373 33C679.813 38.92 682.533 46.72 682.533 56.4C682.533 66.08 679.813 73.92 674.373 79.92C669.013 85.84 662.333 88.8 654.333 88.8C648.973 88.8 644.133 87.2 639.813 84C637.973 82.48 636.413 80.88 635.133 79.2H634.533V109.8H617.733ZM638.853 43.2C635.973 46.32 634.533 50.72 634.533 56.4C634.533 62.08 635.973 66.52 638.853 69.72C641.733 72.84 645.493 74.4 650.133 74.4C654.533 74.4 658.133 72.8 660.933 69.6C663.733 66.4 665.133 62 665.133 56.4C665.133 50.8 663.733 46.4 660.933 43.2C658.133 40 654.533 38.4 650.133 38.4C645.493 38.4 641.733 40 638.853 43.2ZM692.733 87V2.99999H709.533V72.6H723.333V87H692.733ZM732.73 15.36C730.89 13.52 729.97 11.4 729.97 9C729.97 6.6 730.89 4.52 732.73 2.76C734.65 0.919997 736.93 -2.86102e-06 739.57 -2.86102e-06C742.21 -2.86102e-06 744.45 0.919997 746.29 2.76C748.21 4.52 749.17 6.6 749.17 9C749.17 11.4 748.21 13.52 746.29 15.36C744.45 17.12 742.21 18 739.57 18C736.93 18 734.65 17.12 732.73 15.36ZM731.17 87V25.8H747.97V87H731.17ZM767.05 79.44C760.73 73.12 757.57 65.44 757.57 56.4C757.57 47.36 760.73 39.72 767.05 33.48C773.45 27.16 781.29 24 790.57 24C800.01 24 807.77 27.12 813.85 33.36C819.93 39.6 822.97 47.28 822.97 56.4V60H774.97C775.61 64 777.41 67.4 780.37 70.2C783.33 73 786.73 74.4 790.57 74.4C794.81 74.4 798.45 73.2 801.49 70.8C802.69 69.76 803.65 68.56 804.37 67.2H822.37C821.01 71.28 819.01 74.88 816.37 78C809.97 85.2 801.37 88.8 790.57 88.8C781.29 88.8 773.45 85.68 767.05 79.44ZM775.57 49.8H804.97C804.33 46.6 802.69 43.92 800.05 41.76C797.49 39.52 794.33 38.4 790.57 38.4C786.81 38.4 783.61 39.48 780.97 41.64C778.33 43.8 776.53 46.52 775.57 49.8ZM833.123 87V25.8H849.923V34.2H850.523C851.563 32.36 853.043 30.68 854.963 29.16C859.363 25.72 864.283 24 869.723 24C877.323 24 883.203 26.2 887.363 30.6C891.603 35 893.723 41.4 893.723 49.8V87H876.923V52.2C876.923 47.72 875.803 44.32 873.563 42C871.403 39.6 868.323 38.4 864.323 38.4C860.323 38.4 856.923 39.92 854.123 42.96C851.323 46 849.923 49.88 849.923 54.6V87H833.123ZM912.246 79.44C905.926 73.12 902.766 65.44 902.766 56.4C902.766 47.36 905.926 39.72 912.246 33.48C918.646 27.16 926.486 24 935.766 24C946.886 24 955.366 28 961.206 36C963.846 39.44 965.766 43.44 966.966 48H949.566C948.846 46.24 947.886 44.64 946.686 43.2C943.646 40 940.006 38.4 935.766 38.4C931.526 38.4 927.846 40.08 924.726 43.44C921.686 46.8 920.166 51.12 920.166 56.4C920.166 61.68 921.686 66 924.726 69.36C927.846 72.72 931.526 74.4 935.766 74.4C940.006 74.4 943.646 72.8 946.686 69.6C947.886 68.16 948.846 66.56 949.566 64.8H966.966C965.846 69.44 964.006 73.44 961.446 76.8C955.606 84.8 947.046 88.8 935.766 88.8C926.486 88.8 918.646 85.68 912.246 79.44ZM982.441 79.44C976.121 73.12 972.961 65.44 972.961 56.4C972.961 47.36 976.121 39.72 982.441 33.48C988.841 27.16 996.681 24 1005.96 24C1015.4 24 1023.16 27.12 1029.24 33.36C1035.32 39.6 1038.36 47.28 1038.36 56.4V60H990.361C991.001 64 992.801 67.4 995.761 70.2C998.721 73 1002.12 74.4 1005.96 74.4C1010.2 74.4 1013.84 73.2 1016.88 70.8C1018.08 69.76 1019.04 68.56 1019.76 67.2H1037.76C1036.4 71.28 1034.4 74.88 1031.76 78C1025.36 85.2 1016.76 88.8 1005.96 88.8C996.681 88.8 988.841 85.68 982.441 79.44ZM990.961 49.8H1020.36C1019.72 46.6 1018.08 43.92 1015.44 41.76C1012.88 39.52 1009.72 38.4 1005.96 38.4C1002.2 38.4 999.001 39.48 996.361 41.64C993.721 43.8 991.921 46.52 990.961 49.8Z" fill="url(#paint0_linear_856_86)"/>
<defs>
<linearGradient id="paint0_linear_856_86" x1="517.5" y1="-27" x2="517.5" y2="128" gradientUnits="userSpaceOnUse">
<stop stop-color="white"/>
<stop offset="1" stop-color="white" stop-opacity="0"/>
</linearGradient>
</defs>
</svg>
