<svg width="289" height="42" viewBox="0 0 289 42" fill="none" xmlns="http://www.w3.org/2000/svg">
<path opacity="0.6" fill-rule="evenodd" clip-rule="evenodd" d="M199.257 3.71803C193.392 7.19403 190.855 9.74903 194.754 8.25303C196.687 7.51102 197.016 6.89302 189.086 18.908L185.507 24.329L185.217 16.158L184.926 7.98603H181.473C178.245 7.98603 177.645 8.55002 172.264 16.644L166.507 25.302L166.218 16.644L165.929 7.98603H162.468H159.007V24.486V40.986H162C164.651 40.986 165.653 39.995 170.75 32.328L176.507 23.67L176.796 32.328L177.085 40.986L180.296 40.944C183.322 40.905 184.142 39.953 194.507 24.47C201.189 14.488 206.152 8.02703 207.151 8.01203C208.57 7.99003 208.656 7.43903 207.779 3.98603C207.221 1.78603 206.481 -0.00797335 206.135 2.66524e-05C205.79 0.00702665 202.695 1.68003 199.257 3.71803ZM10.6865 23.736C4.80451 32.398 -0.00448579 39.824 -0.000485788 40.236C0.00351421 40.648 1.91851 40.977 4.25651 40.967C8.48751 40.948 8.53152 40.909 14.2495 32.217L19.9925 23.486L19.9995 32.236L20.0065 40.986H23.3805C26.5015 40.986 27.1575 40.37 32.1305 32.784L37.5065 24.582L38.0065 32.534L38.5065 40.486L42.2565 40.796L46.0065 41.107V24.546V7.98603H42.7105C39.6665 7.98603 38.9805 8.65503 33.7355 16.736L28.0565 25.486L28.0315 16.736L28.0065 7.98603H24.6935C21.5365 7.98603 20.8795 8.72403 10.6865 23.736ZM94.7075 22.782C91.2495 41.722 91.2185 40.986 95.4875 40.986C98.4715 40.986 99.0555 40.593 99.5745 38.236C101.257 30.614 101.438 30.503 103.383 35.91C105.201 40.966 105.226 40.986 109.607 40.986C112.027 40.986 114.007 40.748 114.007 40.457C114.007 40.167 112.62 37.181 110.924 33.823L107.842 27.716L113.14 22.351L118.439 16.986H114.015C110.294 16.986 109.012 17.552 105.944 20.547L102.297 24.108L103.615 17.297C105.461 7.75902 105.52 7.98603 101.208 7.98603H97.4095L94.7075 22.782ZM269.512 10.236C268.768 13.378 264.027 39.307 264.017 40.296C264.01 40.742 265.694 40.967 267.757 40.796L271.507 40.486L273.168 32.6C274.812 24.793 276.1 22.732 279.007 23.262C280.685 23.569 280.812 26.256 279.57 35.236L278.776 40.986H282.372C285.294 40.986 286.056 40.565 286.441 38.736C289.622 23.6 289.703 20.682 287.007 17.986C284.767 15.747 279.108 15.285 277.207 17.186C275.73 18.662 275.655 17.206 276.926 11.736L277.796 7.98603H273.921C270.725 7.98603 269.952 8.38103 269.512 10.236ZM146.399 12.559C146.044 13.974 144.686 15.538 143.38 16.034C142.075 16.53 141.007 17.586 141.007 18.379C141.007 19.173 140.734 20.534 140.4 21.404C139.973 22.518 140.378 22.986 141.768 22.986C143.716 22.986 143.72 23.104 142.013 31.457C141.061 36.116 140.52 40.166 140.811 40.457C141.906 41.552 147.814 40.932 148.297 39.672C148.575 38.949 149.36 34.899 150.042 30.672C151.16 23.74 151.502 22.986 153.528 22.986C155.012 22.986 155.978 22.223 156.377 20.736C157.297 17.3 157.172 16.986 154.876 16.986C152.999 16.986 152.813 16.569 153.313 13.486C153.87 10.058 153.811 9.98603 150.463 9.98603C147.625 9.98603 146.935 10.423 146.399 12.559ZM231.674 10.653C231.307 11.019 231.007 12.155 231.007 13.177C231.007 14.239 229.936 15.443 228.507 15.986C227.132 16.509 226.001 17.285 225.993 17.711C225.986 18.137 225.708 19.499 225.377 20.736C224.933 22.39 225.202 22.986 226.39 22.986C228.317 22.986 228.327 23.463 226.574 32.486C225.826 36.336 225.419 39.824 225.67 40.236C225.92 40.648 227.615 40.986 229.436 40.986C232.706 40.986 232.761 40.909 233.915 34.736C234.557 31.299 235.326 27.249 235.624 25.736C236.028 23.687 236.754 22.986 238.473 22.986C240.272 22.986 240.877 22.325 241.22 19.986C241.599 17.406 241.343 16.986 239.397 16.986C237.368 16.986 237.192 16.623 237.701 13.486C238.243 10.145 238.134 9.98603 235.305 9.98603C233.674 9.98603 232.04 10.286 231.674 10.653ZM56.3735 17.904C45.6355 24.452 46.2305 41.006 57.2035 40.998C58.4705 40.997 62.5435 40.994 66.2565 40.991C69.9695 40.988 73.0065 40.848 73.0065 40.679C73.0065 40.51 73.9065 35.473 75.0065 29.486C76.1065 23.499 77.0065 18.203 77.0065 17.718C77.0065 17.232 74.9965 16.959 72.5395 17.11C70.0815 17.261 67.7565 17.07 67.3725 16.685C65.9925 15.305 59.4455 16.03 56.3735 17.904ZM89.6535 16.672C89.2765 17.049 87.0085 17.256 84.6125 17.132L80.2565 16.907L78.5405 26.696C77.5965 32.081 76.5915 37.499 76.3065 38.736C75.8375 40.778 76.1565 40.986 79.7565 40.986H83.7235L85.0055 33.492C86.3235 25.785 87.0725 24.467 90.4915 23.833C93.1835 23.333 94.6115 15.986 92.0155 15.986C91.0935 15.986 90.0315 16.295 89.6535 16.672ZM124.007 16.69C121.69 17.533 116.984 22.187 115.418 25.186C110.943 33.752 117.403 42.609 127.09 41.187C130.164 40.736 137.007 35.481 137.007 33.572C137.007 32.317 131.845 32.757 126.406 34.477C125.016 34.916 123.685 34.522 122.473 33.314C120.698 31.543 120.925 31.477 129.717 31.2C137.991 30.939 138.841 30.727 139.345 28.801C140.985 22.529 135.714 15.925 129.18 16.065C127.16 16.108 124.832 16.39 124.007 16.69ZM203.248 17.981C196.003 22.398 193.42 33.49 198.462 38.531C200.723 40.793 202.983 41.581 205.507 40.988C206.057 40.859 209.495 40.795 213.147 40.846L219.788 40.939L221.897 29.619C223.058 23.393 224.007 17.97 224.007 17.567C224.007 17.164 221.997 16.959 219.54 17.11C217.082 17.261 214.757 17.07 214.373 16.685C212.97 15.282 206.423 16.045 203.248 17.981ZM247.418 17.877C238.402 23.375 236.413 34.93 243.665 39.681C246.641 41.631 252.965 41.575 256.854 39.565C259.512 38.19 264.007 33.174 264.007 31.582C264.007 30.244 256.182 31.07 254.965 32.537C253.352 34.48 249.056 34.041 247.646 31.789C246.038 29.219 248.021 24.705 251.26 23.566C253.505 22.776 254.397 23.004 256.388 24.875C258.003 26.392 259.737 27.031 261.643 26.812C265.77 26.339 265.785 23.564 261.685 19.464C257.591 15.37 252.464 14.8 247.418 17.877ZM59.1745 24.581C57.3825 25.836 56.9625 26.955 57.2015 29.831C57.4475 32.777 57.9545 33.549 59.8145 33.813C63.3365 34.312 67.0065 31.43 67.0065 28.163C67.0065 23.193 63.4675 21.574 59.1745 24.581ZM124.049 24.435C122.917 25.799 123.33 25.986 127.468 25.986C130.785 25.986 132.053 25.617 131.763 24.736C131.142 22.843 125.551 22.625 124.049 24.435ZM206.702 24.097C204.134 25.591 202.769 29.673 204.042 32.051C206.381 36.421 214.007 33.211 214.007 27.857C214.007 23.521 210.656 21.797 206.702 24.097Z" fill="white"/>
</svg>
