<svg width="148" height="148" viewBox="0 0 148 148" fill="none" xmlns="http://www.w3.org/2000/svg">
<path d="M53.8363 81.8406V136.37M53.8363 81.8406L100.418 54.9573M53.8363 81.8406L7.63624 54.9573M53.8363 136.37L100.418 109.868M53.8363 136.37L25.4051 117.681M147 28.074V83.3659L100.418 109.868M147 28.074L100.418 54.9573M147 28.074L100.418 1L53.8363 28.074M100.418 54.9573V109.868M100.418 54.9573L53.8363 28.074M53.8363 28.074L7.63624 54.9573M7.63624 54.9573V106.002M9.54533 133.319V124.167V118.066C9.54533 115.217 10.6023 112.016 12.8359 109.419M9.54533 133.319V134.845C9.54533 137.895 3.81806 137.895 3.81806 134.845V133.319M9.54533 133.319C20.2362 141.708 -7.63649 142.09 3.81806 133.319M3.81806 133.319V118.066C3.81806 113.515 4.66805 109.388 7.63624 106.002M22.909 96.021L23.6726 95.5682C27.109 94.0429 29.3574 98.6219 27.4908 100.144L26.3453 100.798M22.909 96.021C26.3453 88.3231 34.3635 101.669 26.3453 100.798M22.909 96.021L20.2362 97.6059M26.3453 100.798L24.8181 101.669M22.909 140.564V131.413V125.311C22.909 122.824 23.7145 120.069 25.4051 117.681M22.909 140.564V142.09C22.909 145.14 17.1817 145.14 17.1817 142.09V140.564M22.909 140.564C33.5999 148.953 5.72715 149.335 17.1817 140.564M17.1817 140.564V125.311C17.1817 121.202 17.8744 117.439 20.1929 114.255M36.2726 103.266L37.0362 102.813C40.4726 101.288 42.721 105.867 40.8544 107.389L39.709 108.043M36.2726 103.266C39.709 95.5682 47.7272 108.915 39.709 108.043M36.2726 103.266L31.309 106.21M39.709 108.043L37.3226 109.405M17.5635 99.1908L11.4544 102.813C9.90282 103.782 8.64677 104.849 7.63624 106.002M17.5635 99.1908L20.2362 97.6059M17.5635 99.1908C12.807 93.1044 14.0685 87.3648 17.5635 86.5614M34.9362 110.767L30.1635 113.49C28.1431 114.577 26.5656 116.042 25.4051 117.681M34.9362 110.767L41.6181 115.016C44.8614 116.365 47.0524 115.288 48.0558 113.109M34.9362 110.767L37.3226 109.405M48.0558 113.109C49.8874 109.132 47.7615 101.486 40.8544 98.2375L20.9999 87.1791C19.7318 86.5037 18.5574 86.333 17.5635 86.5614M48.0558 113.109C45.0544 114.253 42.7635 113.109 37.3226 109.405M31.309 106.21L24.8181 101.669M31.309 106.21L29.3195 107.389M24.8181 101.669L22.5272 102.977M29.3195 107.389L24.8181 110.059C22.8233 111.304 21.317 112.711 20.1929 114.255M29.3195 107.389L22.5272 102.977M22.5272 102.977L16.7999 106.245C15.2078 107.101 13.8906 108.193 12.8359 109.419M20.2362 97.6059C17.0545 94.0496 15.2726 90.9923 17.5635 86.5614M20.1929 114.255L12.8359 109.419M93.1637 68.4942V105.483C80.7876 112.184 73.8488 115.941 61.4727 122.642V86.4164C73.8488 79.4174 80.7876 75.4933 93.1637 68.4942ZM75.9819 85.2725C94.691 75.3581 90.8728 102.432 75.9819 109.868C61.4728 117.685 63.3819 91.9495 75.9819 85.2725ZM77.1273 95.5682C78.6546 94.8056 79.4182 97.0935 77.1273 98.2375C75.9819 98.8095 75.6001 96.7122 77.1273 95.5682ZM77.891 91.755C77.9403 89.8102 78.3034 88.7278 79.4182 86.7978C75.4677 88.1542 73.9222 89.6055 74.4546 95.5682C73.0884 94.976 72.5603 94.4709 72.5455 92.8989C69.491 95.9495 67.9637 101.288 73.691 100.144C72.4167 101.719 71.6469 102.471 69.8727 102.813C69.4909 106.245 73.691 107.389 77.1273 101.424C77.112 103.431 76.8729 104.561 74.4546 106.627C78.5974 105.241 81.1033 104.691 80.5637 97.4748C81.6047 97.5513 82.1345 97.9717 82.8546 100.144C86.291 95.5682 86.291 91.3737 80.1819 93.2803C81.6082 91.6403 82.5808 90.8738 85.1455 90.2297C84.0001 86.4164 80.9455 86.4164 77.891 91.755ZM122.95 58.1985C141.659 48.2841 137.841 75.3581 122.95 82.7939C108.441 90.611 110.35 64.8756 122.95 58.1985ZM124.095 68.4942C125.623 67.7316 126.386 70.0195 124.095 71.1635C122.95 71.7355 122.568 69.6382 124.095 68.4942ZM124.859 64.681C124.908 62.7362 125.271 61.6539 126.386 59.7238C122.436 61.0802 120.89 62.5315 121.423 68.4942C120.056 67.9021 119.528 67.3969 119.514 65.825C116.459 68.8756 114.932 74.2141 120.659 73.0701C119.385 74.6453 118.615 75.3969 116.841 75.7394C116.459 79.1713 120.659 80.3153 124.095 74.3503C124.08 76.3566 123.841 77.4874 121.423 79.5526C125.565 78.1673 128.071 77.6166 127.532 70.4009C128.573 70.4773 129.103 70.8978 129.823 73.0701C133.259 68.4942 133.259 64.2997 127.15 66.2063C128.576 64.5663 129.549 63.7998 132.114 63.1557C130.968 59.3425 127.914 59.3425 124.859 64.681ZM139.37 41.8016V78.79C126.994 85.4912 120.055 89.2483 107.679 95.9495V59.7238C120.055 52.7248 126.994 48.8007 139.37 41.8016Z" stroke="white"/>
</svg>
