<svg width="183" height="82" viewBox="0 0 183 82" fill="none" xmlns="http://www.w3.org/2000/svg">
<path fill-rule="evenodd" clip-rule="evenodd" d="M61.4519 6.8955C61.354 6.99201 61.2739 12.1162 61.2739 18.2826V29.494L64.5419 29.4289L67.8098 29.3637L67.8723 20.8497L67.9346 12.3359L71.1997 12.4212C75.0647 12.5224 75.9319 12.8213 76.8522 14.3692C77.6179 15.6571 77.8965 18.4016 77.9046 24.7441L77.9108 29.4945L81.0599 29.4291L84.209 29.3637L84.2772 22.5705C84.3186 18.4597 84.2444 15.1933 84.0894 14.2987C83.5785 11.3472 82.1707 9.2319 79.9839 8.12999C77.7857 7.02223 77.0002 6.92759 69.1168 6.82124C64.9992 6.76549 61.5499 6.79899 61.4519 6.8955ZM85.369 7.09836C85.2963 7.28506 86.4861 11.2643 88.0129 15.9413C89.5397 20.6181 91.1594 25.5799 91.6121 26.9676L92.4354 29.4905L97.1993 29.4272L101.963 29.3637L105.515 18.6021C107.468 12.6833 109.035 7.62354 108.997 7.35814C108.931 6.9044 108.749 6.87184 105.931 6.81047C103.721 6.76245 102.87 6.82382 102.684 7.04472C102.48 7.28717 101.171 11.495 97.7281 22.9805C97.3732 24.1646 96.8936 22.9523 94.6712 15.2502C93.3792 10.773 92.2077 7.03254 92.0682 6.9379C91.9287 6.84327 90.3938 6.76432 88.6579 6.76222C86.1175 6.7594 85.4755 6.82499 85.369 7.09836ZM112.006 7.05151C111.944 7.21267 111.92 12.2987 111.954 18.354L112.016 29.3637H115.225H118.433L118.495 18.2521C118.544 9.51816 118.493 7.10047 118.257 6.95312C117.739 6.62869 112.137 6.71677 112.006 7.05151ZM122.381 7.17894C122.099 7.69804 121.986 28.4036 122.261 29.1103C122.388 29.4357 123.18 29.4804 128.738 29.4762C132.221 29.4736 135.815 29.3654 136.726 29.2356C141.967 28.4891 144.465 24.9486 144.455 18.2802C144.447 13.3057 142.724 9.80183 139.485 8.17333C137.426 7.13771 136.089 6.96226 129.214 6.82452C122.741 6.69475 122.641 6.6999 122.381 7.17894ZM147.422 7.04472C147.358 7.2094 147.333 12.2987 147.367 18.354L147.429 29.3637H150.637H153.846V18.1198V6.87582L150.692 6.81047C148.3 6.76081 147.51 6.8175 147.422 7.04472ZM165.428 7.05151C164.974 7.60293 156.568 28.8793 156.685 29.1803C156.772 29.4033 157.592 29.4809 159.868 29.4809H162.934L163.646 27.5483L164.358 25.6158L169.59 25.5527L174.823 25.4897L175.505 27.4267L176.187 29.3637L179.46 29.4289C182.287 29.4853 182.753 29.4429 182.879 29.1173C183.039 28.7071 174.508 7.2265 174.071 6.9379C173.593 6.6226 165.695 6.72637 165.428 7.05151ZM128.891 12.1785C128.821 12.3587 128.792 15.1921 128.827 18.4751L128.891 24.4445L131.215 24.4152C134.028 24.3796 135.302 23.9601 136.471 22.6837C138.088 20.9207 138.484 17.5955 137.373 15.1205C136.375 12.8972 134.958 12.1436 131.45 11.971C129.504 11.8752 128.993 11.9166 128.891 12.1785ZM169.356 12.1952C169.292 12.3615 168.519 14.3713 167.64 16.6613C166.76 18.9514 166.1 20.9807 166.174 21.1706C166.36 21.6487 172.927 21.6858 173.113 21.2098C173.262 20.8254 170.046 12.0811 169.715 11.9724C169.581 11.9283 169.42 12.0286 169.356 12.1952Z" fill="white"/>
<path d="M20.5972 5.1311C20.3287 4.76137 20.3435 1.29611 20.6153 0.905458L20.8112 0.623596H36.9078C51.3733 0.623596 53.0245 0.643756 53.2024 0.822788C53.3803 1.00195 53.4001 2.74561 53.4001 18.1211C53.4001 33.4965 53.3803 35.2402 53.2024 35.4194C53.0245 35.5984 51.3765 35.6185 36.9421 35.6185C22.1726 35.6185 20.8611 35.6017 20.6495 35.4087C20.4495 35.2264 20.4193 34.9876 20.4193 33.5899C20.4193 32.2157 20.4514 31.9526 20.6396 31.7875C20.8124 31.6357 21.3614 31.5778 23.1887 31.5187C26.579 31.4089 29.5102 30.9326 33.8886 29.7798C39.2451 28.3695 44.4124 26.223 47.5467 24.1063C48.8251 23.2429 49.0784 22.9031 48.7451 22.4985C48.5 22.201 43.7594 19.5158 43.4792 19.5158C43.3331 19.5158 42.7155 19.9308 42.1071 20.438C35.4166 26.015 30.4109 28.3856 24.2463 28.8963C22.4 29.0494 20.966 28.9605 20.6396 28.6729C20.4641 28.5184 20.4193 28.272 20.4193 27.4624C20.4193 26.0047 20.449 25.9823 22.3735 25.9823C24.2198 25.9823 25.6936 25.7415 27.4686 25.1496C31.2209 23.8987 34.9654 21.3613 38.8923 17.4086C40.3738 15.9174 40.812 15.4019 40.812 15.1499C40.812 14.9031 40.452 14.4583 39.3329 13.3226C36.1926 10.1355 32.7725 7.92258 28.9304 6.59176C26.7409 5.83328 25.2263 5.55155 22.8316 5.45721C20.9981 5.38494 20.7558 5.34956 20.5972 5.1311Z" fill="white"/>
<path d="M6.57237 10.6761C10.8601 7.802 15.4874 5.94663 19.7269 5.40155C20.6101 5.28794 20.5452 5.19576 20.5452 6.56424V7.81354L22.339 7.88911C24.8619 7.99536 26.5929 8.45815 28.9048 9.64469C31.3258 10.8871 33.8764 12.9974 35.5094 15.109C35.6607 15.3046 35.5961 15.4361 34.9492 16.2501C34.5469 16.7561 33.5632 17.8306 32.7629 18.6378C28.7271 22.7088 24.7014 24.4648 21.269 23.6513L20.5452 23.4797V24.7139V25.9483L19.7846 25.7713C15.8445 24.8544 12.5999 21.8777 10.7384 17.4718C10.4549 16.8008 10.2229 16.19 10.2229 16.1146C10.2229 16.0391 10.6052 15.6462 11.0726 15.2412C13.3373 13.279 16.402 11.7534 19.0346 11.2779C19.4846 11.1966 19.9802 11.1045 20.1361 11.073C20.4107 11.0176 20.4193 10.9702 20.4193 9.50876V8.0017L19.8843 8.06256C16.8181 8.41137 13.6347 9.58294 11.0846 11.3011C9.76471 12.1903 7.81078 13.9216 7.01131 14.91C6.29266 15.7987 6.29467 15.8179 7.3381 17.9943C9.40494 22.3049 12.3417 25.5177 15.8287 27.2828C16.7494 27.7489 18.7448 28.4357 19.6011 28.5814C20.611 28.7532 20.5452 28.642 20.5452 30.1749C20.5452 31.2789 20.5093 31.5612 20.3688 31.5612C19.8503 31.5612 17.1898 31.0237 16.2879 30.7366C12.902 29.6593 10.1469 27.9345 7.3809 25.1606C5.28712 23.0609 3.96864 21.3175 2.58445 18.8184C1.9456 17.665 0.907715 15.4323 0.907715 15.2113C0.907715 14.9027 4.20379 12.2637 6.57237 10.6761Z" fill="white"/>
<path d="M20.5449 11.1614L21.1429 11.1065C24.2918 10.8178 27.5138 12.01 29.9547 14.3671L30.8911 15.2714L28.7101 17.1226L26.5292 18.9736L25.6232 17.4962C24.1733 15.1317 23.1111 14.246 21.3237 13.9113L20.5449 13.7653V12.4633V11.1614Z" fill="black"/>
<path d="M17.5869 14.3852C17.8639 14.2685 18.402 14.0961 18.7828 14.002C19.6762 13.7813 20.2856 13.7685 20.3619 13.9688C20.3952 14.0563 20.4076 16.1933 20.3894 18.7176L20.3563 23.3072L19.601 22.9204C18.531 22.3724 17.6926 21.6913 16.8937 20.7213C16.0211 19.6618 15.3518 18.5519 14.9219 17.4516L14.5862 16.5921L15.0166 16.1423C15.5287 15.6072 16.8817 14.6821 17.5869 14.3852Z" fill="black"/>
<path d="M66.5125 74.5913C62.9712 74.5913 60.3578 73.6633 58.6725 71.8073C56.9872 69.9513 56.1445 67.0606 56.1445 63.1353C56.1445 55.5406 59.6218 51.7433 66.5765 51.7433C67.3018 51.7433 68.0058 51.7966 68.6885 51.9033C69.3925 52.01 70.0325 52.1486 70.6085 52.3193C71.2058 52.49 71.6965 52.6926 72.0805 52.9273C72.6138 53.226 72.8805 53.5246 72.8805 53.8233C72.8805 54.0153 72.7952 54.2926 72.6245 54.6553C72.4752 54.9966 72.2938 55.306 72.0805 55.5833C71.8672 55.8606 71.6752 55.9993 71.5045 55.9993C71.3765 55.9993 71.1205 55.8926 70.7365 55.6793C70.3738 55.466 69.8512 55.2526 69.1685 55.0393C68.4858 54.826 67.6325 54.7193 66.6085 54.7193C64.2405 54.7193 62.4912 55.402 61.3605 56.7673C60.2298 58.1113 59.6645 60.2446 59.6645 63.1673C59.6645 66.0473 60.2192 68.1806 61.3285 69.5673C62.4592 70.954 64.1872 71.6473 66.5125 71.6473C67.5792 71.6473 68.4858 71.5193 69.2325 71.2633C69.9792 71.0073 70.5765 70.762 71.0245 70.5273C71.4938 70.2713 71.7925 70.1433 71.9205 70.1433C72.1338 70.1433 72.3365 70.282 72.5285 70.5593C72.7418 70.8366 72.9125 71.1353 73.0405 71.4553C73.1898 71.7753 73.2645 72.01 73.2645 72.1593C73.2645 72.3513 73.1685 72.554 72.9765 72.7673C72.8058 72.9806 72.5498 73.1726 72.2085 73.3433C71.8032 73.578 71.2912 73.7913 70.6725 73.9833C70.0752 74.154 69.4138 74.2926 68.6885 74.3993C67.9845 74.5273 67.2592 74.5913 66.5125 74.5913ZM85.621 74.5913C82.7623 74.5913 80.565 73.93 79.029 72.6073C77.493 71.2846 76.725 69.45 76.725 67.1033V52.7033C76.725 52.17 77.2157 51.9033 78.197 51.9033H78.677C79.6583 51.9033 80.149 52.17 80.149 52.7033V67.0713C80.149 67.9673 80.3837 68.7673 80.853 69.4713C81.3223 70.154 81.973 70.6873 82.805 71.0713C83.637 71.4553 84.5757 71.6473 85.621 71.6473C86.6877 71.6473 87.6263 71.4553 88.437 71.0713C89.269 70.666 89.9197 70.122 90.389 69.4393C90.8583 68.7566 91.093 67.9673 91.093 67.0713V52.7033C91.093 52.17 91.5837 51.9033 92.565 51.9033H93.045C94.0263 51.9033 94.517 52.17 94.517 52.7033V67.1033C94.517 69.45 93.7383 71.2846 92.181 72.6073C90.645 73.93 88.4583 74.5913 85.621 74.5913ZM100.978 74.3673C100.274 74.3673 99.9223 74.0153 99.9223 73.3113V53.0233C99.9223 52.3193 100.274 51.9673 100.978 51.9673H107.538C109.48 51.9673 111.197 52.3513 112.69 53.1193C114.205 53.866 115.389 55.0606 116.242 56.7033C117.096 58.346 117.522 60.5006 117.522 63.1673C117.522 65.1726 117.277 66.89 116.786 68.3193C116.296 69.7273 115.602 70.8793 114.706 71.7753C113.832 72.65 112.786 73.3006 111.57 73.7273C110.354 74.154 109.01 74.3673 107.538 74.3673H100.978ZM103.346 71.4233H107.378C108.68 71.4233 109.821 71.146 110.802 70.5913C111.805 70.0153 112.584 69.13 113.138 67.9353C113.714 66.7193 114.002 65.13 114.002 63.1673C114.002 61.2046 113.714 59.626 113.138 58.4313C112.584 57.2153 111.805 56.33 110.802 55.7753C109.821 55.1993 108.68 54.9113 107.378 54.9113H103.346V71.4233ZM121.084 74.4313C120.06 74.4313 119.548 74.2393 119.548 73.8553C119.548 73.77 119.559 73.6953 119.58 73.6313C119.602 73.546 119.623 73.45 119.644 73.3433L127.068 52.4473C127.196 52.0846 127.676 51.9033 128.508 51.9033H129.628C130.482 51.9033 130.962 52.0846 131.068 52.4473L138.492 73.3753C138.556 73.546 138.588 73.706 138.588 73.8553C138.588 74.2393 138.108 74.4313 137.148 74.4313H136.572C136.21 74.4313 135.9 74.3886 135.644 74.3033C135.388 74.218 135.218 74.0793 135.132 73.8873L133.436 69.0233H124.572L122.908 73.8873C122.823 74.0793 122.663 74.218 122.428 74.3033C122.194 74.3886 121.906 74.4313 121.564 74.4313H121.084ZM125.596 66.0793H132.412L129.5 57.6313C129.415 57.3326 129.34 57.0233 129.276 56.7033C129.212 56.362 129.148 56.0313 129.084 55.7113H129.02C128.956 56.0313 128.882 56.362 128.796 56.7033C128.732 57.0233 128.647 57.3326 128.54 57.6313L125.596 66.0793Z" fill="white"/>
</svg>
