<svg width="303" height="537" viewBox="0 0 303 537" fill="none" xmlns="http://www.w3.org/2000/svg">
<g opacity="0.3">
<path d="M133.107 39.1504L125.277 26.1006" stroke="white" stroke-width="0.5"/>
<path d="M119.685 35.8867L125.278 26.0994L109.618 22.8369" stroke="white" stroke-width="0.5"/>
<path d="M99.8306 16.3115L103.093 7.8291" stroke="white" stroke-width="0.5"/>
<path d="M103.093 7.8291L92.6532 15.0065" stroke="white" stroke-width="0.5"/>
<path d="M86.7808 13.049L103.093 7.8291" stroke="white" stroke-width="0.5"/>
<path d="M73.0781 1.95703L66.5532 34.5816" stroke="white" stroke-width="0.5"/>
<path d="M49.5885 34.5816L73.0781 1.95703" stroke="white" stroke-width="0.5"/>
<path d="M31.3188 32.6244L26.7514 26.752" stroke="white" stroke-width="0.5"/>
<path d="M15.659 50.2416L26.0989 26.752" stroke="white" stroke-width="0.5"/>
<path d="M15.6592 50.2412L5.87182 59.3761" stroke="white" stroke-width="0.5"/>
<path d="M15.6597 50.2413L31.9719 32.624" stroke="white" stroke-width="0.5"/>
<path d="M48.9358 64.5957L26.7511 79.603" stroke="white" stroke-width="0.5"/>
<path d="M79.6033 52.8516L69.1634 56.7665" stroke="white" stroke-width="0.5"/>
<path d="M124.625 50.2412L128.54 56.7661" stroke="white" stroke-width="0.5"/>
<path d="M124.625 50.2425L105.703 48.9375" stroke="white" stroke-width="0.5"/>
<path d="M132.455 43.7168L137.023 52.1992" stroke="white" stroke-width="0.5"/>
<path d="M155.292 85.4756L193.136 150.072" stroke="white" stroke-width="0.5"/>
<path d="M193.136 150.073L205.534 201.62" stroke="white" stroke-width="0.5"/>
<path d="M205.534 201.619V245.336" stroke="white" stroke-width="0.5"/>
<path d="M205.534 245.336L198.356 266.868" stroke="white" stroke-width="0.5"/>
<path d="M198.356 266.868L205.534 222.499" stroke="white" stroke-width="0.5"/>
<path d="M205.534 222.5L201.619 176.825" stroke="white" stroke-width="0.5"/>
<path d="M201.619 176.825L193.137 150.073" stroke="white" stroke-width="0.5"/>
<path d="M193.136 150.073L173.562 122.016" stroke="white" stroke-width="0.5"/>
<path d="M173.562 122.015L155.293 85.4756" stroke="white" stroke-width="0.5"/>
<path d="M135.065 99.1787L125.278 115.491" stroke="white" stroke-width="0.5"/>
<path d="M125.278 115.49L135.718 145.505" stroke="white" stroke-width="0.5"/>
<path d="M135.717 145.506L155.292 189.223" stroke="white" stroke-width="0.5"/>
<path d="M155.292 189.223L158.554 223.805" stroke="white" stroke-width="0.5"/>
<path d="M158.554 223.805L142.895 255.124" stroke="white" stroke-width="0.5"/>
<path d="M142.895 255.124L135.718 276.004" stroke="white" stroke-width="0.5"/>
<path d="M135.718 276.004L145.505 289.706" stroke="white" stroke-width="0.5"/>
<path d="M145.505 289.705L159.86 300.145" stroke="white" stroke-width="0.5"/>
<path d="M159.86 300.145L161.817 319.067" stroke="white" stroke-width="0.5"/>
<path d="M161.817 319.067L150.072 339.295" stroke="white" stroke-width="0.5"/>
<path d="M150.073 339.296L152.683 343.863" stroke="white" stroke-width="0.5"/>
<path d="M152.683 343.861L141.59 352.996" stroke="white" stroke-width="0.5"/>
<path d="M141.59 352.997L138.327 367.352" stroke="white" stroke-width="0.5"/>
<path d="M138.327 367.352L152.029 384.643" stroke="white" stroke-width="0.5"/>
<path d="M152.03 384.316L168.342 386.926" stroke="white" stroke-width="0.5"/>
<path d="M168.342 386.927L181.391 399.324" stroke="white" stroke-width="0.5"/>
<path d="M180.739 398.998L185.959 418.899" stroke="white" stroke-width="0.5"/>
<path d="M185.96 418.899L197.052 431.297" stroke="white" stroke-width="0.5"/>
<path d="M197.052 431.297L225.109 443.694" stroke="white" stroke-width="0.5"/>
<path d="M225.108 443.694L244.683 439.779" stroke="white" stroke-width="0.5"/>
<path d="M244.683 439.779L258.386 441.084" stroke="white" stroke-width="0.5"/>
<path d="M258.386 441.083L269.478 452.828" stroke="white" stroke-width="0.5"/>
<path d="M269.478 452.829L275.351 465.879" stroke="white" stroke-width="0.5"/>
<path d="M275.351 465.878L295.578 467.183" stroke="white" stroke-width="0.5"/>
<path d="M295.578 467.184L301.45 476.318" stroke="white" stroke-width="0.5"/>
<path d="M301.45 476.317L296.883 499.155" stroke="white" stroke-width="0.5"/>
<path d="M286.443 516.772L301.45 476.317" stroke="white" stroke-width="0.5"/>
<path d="M301.45 476.318L291.663 453.48" stroke="white" stroke-width="0.5"/>
<path d="M291.663 453.48L270.131 436.516" stroke="white" stroke-width="0.5"/>
<path d="M269.478 436.517L242.074 406.502" stroke="white" stroke-width="0.5"/>
<path d="M242.074 406.502L228.371 390.842" stroke="white" stroke-width="0.5"/>
<path d="M228.372 390.841L206.839 379.749" stroke="white" stroke-width="0.5"/>
<path d="M206.839 379.748V360.826" stroke="white" stroke-width="0.5"/>
<path d="M206.839 360.827L181.391 338.643" stroke="white" stroke-width="0.5"/>
<path d="M181.391 338.642L173.561 309.607L166.058 304.713" stroke="white" stroke-width="0.5"/>
<path d="M173.562 309.932L165.732 287.095" stroke="white" stroke-width="0.5"/>
<path d="M165.732 287.095L161.817 272.74" stroke="white" stroke-width="0.5"/>
<path d="M161.817 272.74L156.597 276.655" stroke="white" stroke-width="0.5"/>
<path d="M156.597 276.655L159.86 287.095" stroke="white" stroke-width="0.5"/>
<path d="M159.86 287.095L165.732 304.059" stroke="white" stroke-width="0.5"/>
<path d="M156.597 276.655L144.852 289.705" stroke="white" stroke-width="0.5"/>
<path d="M156.597 276.656L152.03 262.954" stroke="white" stroke-width="0.5"/>
<path d="M152.029 262.953L142.242 258.386" stroke="white" stroke-width="0.5"/>
<path d="M161.817 272.741L159.86 253.818" stroke="white" stroke-width="0.5"/>
<path d="M159.86 253.818L149.42 243.378" stroke="white" stroke-width="0.5"/>
<path d="M161.817 272.741L156.597 259.039" stroke="white" stroke-width="0.5"/>
<path d="M156.597 259.037L146.157 249.25" stroke="white" stroke-width="0.5"/>
<path d="M145.505 289.705L138.328 296.23" stroke="white" stroke-width="0.5"/>
<path d="M138.328 296.23L142.243 306.67" stroke="white" stroke-width="0.5"/>
<path d="M142.242 306.67L150.072 319.067" stroke="white" stroke-width="0.5"/>
<path d="M150.072 317.763V339.295" stroke="white" stroke-width="0.5"/>
<path d="M148.115 313.849L154.64 303.409" stroke="white" stroke-width="0.5"/>
<path d="M142.894 307.324L152.029 299.494" stroke="white" stroke-width="0.5"/>
<path d="M139.632 300.798L146.81 296.23" stroke="white" stroke-width="0.5"/>
<path d="M150.072 323.635L157.902 310.585" stroke="white" stroke-width="0.5"/>
<path d="M150.072 330.16L158.554 317.763" stroke="white" stroke-width="0.5"/>
<path d="M150.072 339.296L144.852 336.686" stroke="white" stroke-width="0.5"/>
<path d="M144.852 336.685L150.072 322.982" stroke="white" stroke-width="0.5"/>
<path d="M152.682 343.862L163.122 330.16" stroke="white" stroke-width="0.5"/>
<path d="M141.59 370.615L159.86 345.82" stroke="white" stroke-width="0.5"/>
<path d="M149.42 381.054L164.427 354.302" stroke="white" stroke-width="0.5"/>
<path d="M156.597 385.623L165.08 366.048" stroke="white" stroke-width="0.5"/>
<path d="M172.91 357.564L174.867 377.139" stroke="white" stroke-width="0.5"/>
<path d="M172.91 357.565L168.342 336.686" stroke="white" stroke-width="0.5"/>
<path d="M165.732 304.06L168.342 336.684" stroke="white" stroke-width="0.5"/>
<path d="M168.342 333.422L181.391 343.862" stroke="white" stroke-width="0.5"/>
<path d="M180.087 349.736L168.342 337.339" stroke="white" stroke-width="0.5"/>
<path d="M206.839 360.827L178.782 352.997" stroke="white" stroke-width="0.5"/>
<path d="M206.839 366.699L184.654 357.564" stroke="white" stroke-width="0.5"/>
<path d="M206.839 376.487L187.916 368.657" stroke="white" stroke-width="0.5"/>
<path d="M172.909 357.564L189.222 386.274" stroke="white" stroke-width="0.5"/>
<path d="M189.222 386.274L228.372 397.041" stroke="white" stroke-width="0.5"/>
<path d="M189.222 386.274L225.109 420.204" stroke="white" stroke-width="0.5"/>
<path d="M225.435 420.529L250.556 435.863" stroke="white" stroke-width="0.5"/>
<path d="M258.386 441.084L242.073 418.899" stroke="white" stroke-width="0.5"/>
<path d="M242.074 418.9L240.116 404.545" stroke="white" stroke-width="0.5"/>
<path d="M296.883 499.156L286.443 516.773" stroke="white" stroke-width="0.5"/>
<path d="M286.443 516.772L283.181 535.695" stroke="white" stroke-width="0.5"/>
<path d="M49.5891 34.5818L26.7519 26.752" stroke="white" stroke-width="0.5"/>
<path d="M159.208 58.7236L155.293 85.4757" stroke="white" stroke-width="0.5"/>
<path d="M155.292 85.4767L152.03 63.292" stroke="white" stroke-width="0.5"/>
<path d="M152.029 63.5529L131.911 67.2068L112.88 59.377" stroke="white" stroke-width="0.5"/>
<path d="M112.881 59.377L89.2752 69.1643L64.5966 64.8144" stroke="white" stroke-width="0.5"/>
<path d="M64.5964 65.249L47.8368 77.0405L26.752 79.6038" stroke="white" stroke-width="0.5"/>
<path d="M26.7522 79.6035L15.0074 92.6533" stroke="white" stroke-width="0.5"/>
<path d="M15.0071 92.6535L1.30478 92.001" stroke="white" stroke-width="0.5"/>
<path d="M26.0997 79.6034L26.7522 67.2061" stroke="white" stroke-width="0.5"/>
<path d="M64.5964 65.2482L48.9367 64.5957" stroke="white" stroke-width="0.5"/>
<path d="M64.5965 64.5965L69.8164 56.7666" stroke="white" stroke-width="0.5"/>
<path d="M112.881 59.3773L105.703 48.9375" stroke="white" stroke-width="0.5"/>
<path d="M63.2915 65.2497L78.2988 53.5049" stroke="white" stroke-width="0.5"/>
<path d="M112.227 59.3761C112.678 58.9462 120.68 53.1071 124.625 50.2412" stroke="white" stroke-width="0.5"/>
<path d="M112.228 58.7241L128.54 56.7666" stroke="white" stroke-width="0.5"/>
<path d="M152.029 64.5965L150.072 56.7666" stroke="white" stroke-width="0.5"/>
<path d="M155.292 85.4756L142.242 100.483" stroke="white" stroke-width="0.5"/>
<path d="M135.065 99.179L152.029 63.292" stroke="white" stroke-width="0.5"/>
<path d="M135.065 99.1787L142.895 101.789" stroke="white" stroke-width="0.5"/>
<path d="M135.065 99.1787L110.271 101.789" stroke="white" stroke-width="0.5"/>
<path d="M135.065 99.1787L108.966 108.966" stroke="white" stroke-width="0.5"/>
<path d="M39.1492 118.102L68.5112 118.754" stroke="white" stroke-width="0.5"/>
<path d="M39.1494 118.101L15.0073 109.618" stroke="white" stroke-width="0.5"/>
<path d="M15.0071 109.618L1.30478 92.001" stroke="white" stroke-width="0.5"/>
<path d="M159.208 58.7244L144.853 42.4121" stroke="white" stroke-width="0.5"/>
<path d="M144.852 42.4128L125.278 26.1006" stroke="white" stroke-width="0.5"/>
<path d="M125.278 26.0988L103.093 7.8291" stroke="white" stroke-width="0.5"/>
<path d="M103.093 7.82945L73.0785 1.95703" stroke="white" stroke-width="0.5"/>
<path d="M73.0781 1.95703L26.0988 26.7517" stroke="white" stroke-width="0.5"/>
<path d="M26.0989 26.752L5.21918 59.3765" stroke="white" stroke-width="0.5"/>
<path d="M5.21948 59.377L1.30454 92.0015" stroke="white" stroke-width="0.5"/>
<path d="M1.30478 92.0019L21.532 61.9873" stroke="white" stroke-width="0.5"/>
<path d="M21.5319 61.9861L60.0288 45.6738" stroke="white" stroke-width="0.5"/>
<path d="M60.0284 45.6742L93.3054 39.8018" stroke="white" stroke-width="0.5"/>
<path d="M93.306 39.8018L131.803 43.7167" stroke="white" stroke-width="0.5"/>
<path d="M131.803 43.7168L159.208 58.0716" stroke="white" stroke-width="0.5"/>
<path d="M84.823 336.686L82.8655 309.934" stroke="white" stroke-width="0.5"/>
<path d="M82.866 309.934L89.3909 279.919" stroke="white" stroke-width="0.5"/>
<path d="M89.3909 279.919L86.1284 217.28" stroke="white" stroke-width="0.5"/>
<path d="M86.1282 217.28L74.3833 168.343" stroke="white" stroke-width="0.5"/>
<path d="M73.0781 168.343L50.8934 138.328" stroke="white" stroke-width="0.5"/>
<path d="M50.894 138.328L30.0143 121.363" stroke="white" stroke-width="0.5"/>
<path d="M22.1848 98.5254L26.7522 123.973" stroke="white" stroke-width="0.5"/>
<path d="M20.8792 105.051L15.0067 92.6533" stroke="white" stroke-width="0.5"/>
<path d="M15.0072 92.6533L22.1846 98.5257" stroke="white" stroke-width="0.5"/>
<path d="M22.1838 98.5254L38.4961 118.1" stroke="white" stroke-width="0.5"/>
<path d="M22.1842 98.5254L29.3616 121.363" stroke="white" stroke-width="0.5"/>
<path d="M122.667 73.0793L152.029 63.292" stroke="white" stroke-width="0.5"/>
<path d="M122.667 73.0786L133.107 66.5537" stroke="white" stroke-width="0.5"/>
<path d="M122.668 73.0781C123.103 73.0781 133.724 75.2531 138.98 76.3406" stroke="white" stroke-width="0.5"/>
<path d="M28.0562 125.277L74.3831 168.342" stroke="white" stroke-width="0.5"/>
<path d="M82.8655 217.28L74.3831 168.343" stroke="white" stroke-width="0.5"/>
<path d="M82.8656 217.28L90.043 249.252" stroke="white" stroke-width="0.5"/>
<path d="M90.043 249.25V279.917" stroke="white" stroke-width="0.5"/>
<path d="M36.5388 86.1284L26.7515 79.6035" stroke="white" stroke-width="0.5"/>
<path d="M36.5385 86.1289L48.9358 98.5262" stroke="white" stroke-width="0.5"/>
<path d="M48.936 98.5254L52.1985 105.05" stroke="white" stroke-width="0.5"/>
<path d="M52.199 105.051L68.5112 118.753" stroke="white" stroke-width="0.5"/>
<path d="M48.9358 88.7384L26.0986 79.6035" stroke="white" stroke-width="0.5"/>
<path d="M48.9359 89.3906L67.8582 118.753" stroke="white" stroke-width="0.5"/>
<path d="M65.2485 103.094L58.0711 82.2139" stroke="white" stroke-width="0.5"/>
<path d="M65.2482 103.094L76.3406 126.583" stroke="white" stroke-width="0.5"/>
<path d="M76.3406 126.584L67.8582 118.754" stroke="white" stroke-width="0.5"/>
<path d="M75.0356 80.2568L76.3406 97.2216" stroke="white" stroke-width="0.5"/>
<path d="M76.3406 97.2217L81.5605 153.336" stroke="white" stroke-width="0.5"/>
<path d="M118.1 78.9502L132.455 84.8226" stroke="white" stroke-width="0.5"/>
<path d="M131.803 84.8242L135.065 99.179" stroke="white" stroke-width="0.5"/>
<path d="M110.27 70.4688L102.44 93.3059" stroke="white" stroke-width="0.5"/>
<path d="M102.441 93.3066L108.313 121.364" stroke="white" stroke-width="0.5"/>
<path d="M108.313 121.363L123.321 152.03" stroke="white" stroke-width="0.5"/>
<path d="M116.795 135.717L122.667 150.724" stroke="white" stroke-width="0.5"/>
<path d="M108.965 137.023L127.887 176.173" stroke="white" stroke-width="0.5"/>
<path d="M99.1781 129.845L105.051 146.809" stroke="white" stroke-width="0.5"/>
<path d="M105.051 146.81L121.363 175.519" stroke="white" stroke-width="0.5"/>
<path d="M91.3479 120.057L85.4755 81.5605" stroke="white" stroke-width="0.5"/>
<path d="M86.1282 109.618L85.4757 81.5605" stroke="white" stroke-width="0.5"/>
<path d="M97.8735 150.073L104.398 190.528" stroke="white" stroke-width="0.5"/>
<path d="M104.398 189.875L94.6111 174.868" stroke="white" stroke-width="0.5"/>
<path d="M94.6106 174.867L88.0857 130.498" stroke="white" stroke-width="0.5"/>
<path d="M88.0857 130.498L86.1282 108.966" stroke="white" stroke-width="0.5"/>
<path d="M84.8232 133.76L86.1282 166.384" stroke="white" stroke-width="0.5"/>
<path d="M86.1282 166.385L81.5607 153.335" stroke="white" stroke-width="0.5"/>
<path d="M86.1282 166.386L94.6106 174.868" stroke="white" stroke-width="0.5"/>
<path d="M76.3406 126.583L81.5605 153.335" stroke="white" stroke-width="0.5"/>
<path d="M38.4967 118.102L71.7737 142.896" stroke="white" stroke-width="0.5"/>
<path d="M71.7731 142.896L82.8655 179.435" stroke="white" stroke-width="0.5"/>
<path d="M82.8655 179.436L91.3479 212.06" stroke="white" stroke-width="0.5"/>
<path d="M91.3481 212.06L108.965 248.599" stroke="white" stroke-width="0.5"/>
<path d="M108.966 248.6L126.583 285.792" stroke="white" stroke-width="0.5"/>
<path d="M126.583 285.138V324.287" stroke="white" stroke-width="0.5"/>
<path d="M126.583 324.288L113.533 359.523" stroke="white" stroke-width="0.5"/>
<path d="M142.242 101.789L161.817 122.669" stroke="white" stroke-width="0.5"/>
<path d="M161.817 122.669L174.867 163.123" stroke="white" stroke-width="0.5"/>
<path d="M174.867 163.122L179.434 204.881" stroke="white" stroke-width="0.5"/>
<path d="M179.434 204.883L186.612 235.55" stroke="white" stroke-width="0.5"/>
<path d="M186.612 235.55L211.407 267.522" stroke="white" stroke-width="0.5"/>
<path d="M211.406 267.521L225.761 299.494" stroke="white" stroke-width="0.5"/>
<path d="M225.762 299.494L228.372 345.821" stroke="white" stroke-width="0.5"/>
<path d="M228.372 345.82L215.974 380.402" stroke="white" stroke-width="0.5"/>
<path d="M215.974 380.403L229.677 347.778" stroke="white" stroke-width="0.5"/>
<path d="M229.677 347.778L225.762 299.494" stroke="white" stroke-width="0.5"/>
<path d="M211.407 267.521L183.35 222.499" stroke="white" stroke-width="0.5"/>
<path d="M135.065 99.1787L139.632 130.498" stroke="white" stroke-width="0.5"/>
<path d="M139.632 130.498L167.037 176.172" stroke="white" stroke-width="0.5"/>
<path d="M167.037 176.172L195.747 210.754" stroke="white" stroke-width="0.5"/>
<path d="M195.747 210.755L223.151 258.387" stroke="white" stroke-width="0.5"/>
<path d="M223.477 258.712L241.421 294.273" stroke="white" stroke-width="0.5"/>
<path d="M241.421 294.272L245.336 357.564" stroke="white" stroke-width="0.5"/>
<path d="M258.386 441.083L255.123 426.729" stroke="white" stroke-width="0.5"/>
<path d="M266.216 449.567L261.649 435.864" stroke="white" stroke-width="0.5"/>
<path d="M276.003 465.878V454.786" stroke="white" stroke-width="0.5"/>
<path d="M276.003 454.785L269.478 441.083" stroke="white" stroke-width="0.5"/>
<path d="M292.315 460.005L270.131 436.516" stroke="white" stroke-width="0.5"/>
<path d="M228.372 443.041L219.889 422.161" stroke="white" stroke-width="0.5"/>
<path d="M210.101 437.168L206.186 415.636" stroke="white" stroke-width="0.5"/>
<path d="M202.924 433.907L199.662 422.814" stroke="white" stroke-width="0.5"/>
<path d="M197.704 430.97L195.747 405.85" stroke="white" stroke-width="0.5"/>
<path d="M189.222 422.813L187.917 396.714" stroke="white" stroke-width="0.5"/>
<path d="M180.739 398.672L180.087 382.359" stroke="white" stroke-width="0.5"/>
<path d="M156.597 369.309L125.278 344.515" stroke="white" stroke-width="0.5"/>
<path d="M125.278 344.514L97.8735 315.152" stroke="white" stroke-width="0.5"/>
<path d="M97.8733 315.154L75.0361 280.572" stroke="white" stroke-width="0.5"/>
<path d="M75.0364 280.572L61.9866 240.117" stroke="white" stroke-width="0.5"/>
<path d="M61.334 240.117L52.8516 196.4" stroke="white" stroke-width="0.5"/>
<path d="M52.851 196.4L55.4609 158.556" stroke="white" stroke-width="0.5"/>
<path d="M55.4616 158.555L58.0715 114.838" stroke="white" stroke-width="0.5"/>
<path d="M52.1991 105.051L58.0715 114.838" stroke="white" stroke-width="0.5"/>
<path d="M58.0715 114.838L52.1991 156.597" stroke="white" stroke-width="0.5"/>
<path d="M52.1985 156.599L54.156 196.401" stroke="white" stroke-width="0.5"/>
<path d="M54.1563 196.4L54.8088 227.067" stroke="white" stroke-width="0.5"/>
<path d="M54.8091 227.066L61.334 240.116" stroke="white" stroke-width="0.5"/>
<path d="M61.334 240.117L66.554 266.869" stroke="white" stroke-width="0.5"/>
<path d="M66.554 266.868L75.0364 280.57" stroke="white" stroke-width="0.5"/>
<path d="M75.0359 280.572L94.6106 315.154" stroke="white" stroke-width="0.5"/>
<path d="M94.611 315.152L125.278 344.514" stroke="white" stroke-width="0.5"/>
<path d="M135.718 276.004L137.023 257.082" stroke="white" stroke-width="0.5"/>
<path d="M137.023 257.082L142.243 258.387" stroke="white" stroke-width="0.5"/>
<path d="M137.023 257.081L123.32 245.336" stroke="white" stroke-width="0.5"/>
<path d="M131.15 251.862L126.582 235.55" stroke="white" stroke-width="0.5"/>
<path d="M123.321 245.336L122.016 222.499" stroke="white" stroke-width="0.5"/>
<path d="M122.015 222.499L115.49 210.102" stroke="white" stroke-width="0.5"/>
<path d="M122.015 233.592L108.966 219.237" stroke="white" stroke-width="0.5"/>
<path d="M108.965 219.236L104.398 190.526" stroke="white" stroke-width="0.5"/>
<path d="M104.399 189.875L121.363 207.492" stroke="white" stroke-width="0.5"/>
<path d="M121.363 207.491L132.455 212.711" stroke="white" stroke-width="0.5"/>
<path d="M132.455 212.712C132.888 212.19 149.6 211.19 157.902 210.755" stroke="white" stroke-width="0.5"/>
<path d="M157.902 210.755L166.385 219.237" stroke="white" stroke-width="0.5"/>
<path d="M157.902 210.755L139.633 196.4" stroke="white" stroke-width="0.5"/>
<path d="M139.632 196.4L133.107 183.351" stroke="white" stroke-width="0.5"/>
<path d="M133.107 183.351L121.362 196.4" stroke="white" stroke-width="0.5"/>
<path d="M121.363 196.4V207.493" stroke="white" stroke-width="0.5"/>
<path d="M133.107 183.351L138.327 174.868" stroke="white" stroke-width="0.5"/>
<path d="M138.327 174.867L134.412 165.732" stroke="white" stroke-width="0.5"/>
<path d="M138.327 174.867L124.625 159.207" stroke="white" stroke-width="0.5"/>
<path d="M122.015 196.399L120.058 180.739" stroke="white" stroke-width="0.5"/>
<path d="M121.363 207.493L115.491 191.833" stroke="white" stroke-width="0.5"/>
<path d="M131.15 215.975L119.405 212.06" stroke="white" stroke-width="0.5"/>
<path d="M155.292 239.464L144.852 233.592" stroke="white" stroke-width="0.5"/>
<path d="M144.852 233.593L132.455 212.713" stroke="white" stroke-width="0.5"/>
<path d="M139.633 212.713L176.825 258.387" stroke="white" stroke-width="0.5"/>
<path d="M176.825 258.386L174.867 244.031" stroke="white" stroke-width="0.5"/>
<path d="M174.867 244.032L151.378 217.28" stroke="white" stroke-width="0.5"/>
<path d="M176.824 258.386L177.477 271.762" stroke="white" stroke-width="0.5"/>
<path d="M178.13 273.394L168.343 253.167" stroke="white" stroke-width="0.5"/>
<path d="M178.129 273.394L182.697 286.443" stroke="white" stroke-width="0.5"/>
<path d="M182.697 286.444L184.654 296.884" stroke="white" stroke-width="0.5"/>
<path d="M184.654 296.885L173.562 280.572" stroke="white" stroke-width="0.5"/>
<path d="M173.562 280.57L166.385 258.386" stroke="white" stroke-width="0.5"/>
<path d="M166.385 258.387L161.817 245.989" stroke="white" stroke-width="0.5"/>
<path d="M184.654 296.884L195.747 310.586" stroke="white" stroke-width="0.5"/>
<path d="M195.747 310.585L202.272 325.592" stroke="white" stroke-width="0.5"/>
<path d="M201.433 326.247L203.576 339.296M173.562 280.572L185.889 303.953" stroke="white" stroke-width="0.5"/>
<path d="M195.747 310.584L185.959 304.06" stroke="white" stroke-width="0.5"/>
<path d="M143.547 255.123L135.064 238.811" stroke="white" stroke-width="0.5"/>
<path d="M138.327 257.082L132.455 242.074" stroke="white" stroke-width="0.5"/>
<path d="M139.633 130.498L149.42 153.335" stroke="white" stroke-width="0.5"/>
<path d="M150.072 153.335L167.037 176.172" stroke="white" stroke-width="0.5"/>
<circle cx="1.30498" cy="1.30498" r="1.30498" transform="matrix(-1 0 0 1 146.157 39.8018)" fill="white"/>
<circle cx="1.30498" cy="1.30498" r="1.30498" transform="matrix(-1 0 0 1 126.583 23.4902)" fill="white"/>
<circle cx="1.30498" cy="1.30498" r="1.30498" transform="matrix(-1 0 0 1 105.703 5.2207)" fill="white"/>
<circle cx="1.30498" cy="1.30498" r="1.30498" transform="matrix(-1 0 0 1 75.0364 0)" fill="white"/>
<circle cx="1.30498" cy="1.30498" r="1.30498" transform="matrix(-1 0 0 1 33.2764 30.0146)" fill="white"/>
<circle cx="1.30498" cy="1.30498" r="1.30498" transform="matrix(-1 0 0 1 28.7095 24.7939)" fill="white"/>
<circle cx="1.30498" cy="1.30498" r="1.30498" transform="matrix(-1 0 0 1 7.82983 56.7666)" fill="white"/>
<circle cx="1.30498" cy="1.30498" r="1.30498" transform="matrix(-1 0 0 1 18.2698 48.9375)" fill="white"/>
<circle cx="1.30498" cy="1.30498" r="1.30498" transform="matrix(-1 0 0 1 2.61011 89.3906)" fill="white"/>
<circle cx="1.30498" cy="1.30498" r="1.30498" transform="matrix(-1 0 0 1 61.9861 43.0654)" fill="white"/>
<circle cx="1.30498" cy="1.30498" r="1.30498" transform="matrix(-1 0 0 1 68.5112 32.624)" fill="white"/>
<circle cx="1.30498" cy="1.30498" r="1.30498" transform="matrix(-1 0 0 1 51.5464 32.624)" fill="white"/>
<circle cx="1.30498" cy="1.30498" r="1.30498" transform="matrix(-1 0 0 1 88.0857 11.7441)" fill="white"/>
<circle cx="1.30498" cy="1.30498" r="1.30498" transform="matrix(-1 0 0 1 93.3054 13.7012)" fill="white"/>
<circle cx="1.30498" cy="1.30498" r="1.30498" transform="matrix(-1 0 0 1 110.27 21.5332)" fill="white"/>
<circle cx="1.30498" cy="1.30498" r="1.30498" transform="matrix(-1 0 0 1 120.058 34.583)" fill="white"/>
<circle cx="1.30498" cy="1.30498" r="1.30498" transform="matrix(-1 0 0 1 135.065 37.8447)" fill="white"/>
<circle cx="1.30498" cy="1.30498" r="1.30498" transform="matrix(-1 0 0 1 101.136 15.0078)" fill="white"/>
<circle cx="1.30498" cy="1.30498" r="1.30498" transform="matrix(-1 0 0 1 24.1416 59.377)" fill="white"/>
<circle cx="1.30498" cy="1.30498" r="1.30498" transform="matrix(-1 0 0 1 95.916 37.8447)" fill="white"/>
<circle cx="1.30498" cy="1.30498" r="1.30498" transform="matrix(-1 0 0 1 138.98 50.2412)" fill="white"/>
<circle cx="1.30498" cy="1.30498" r="1.30498" transform="matrix(-1 0 0 1 135.065 42.4121)" fill="white"/>
<circle cx="1.30498" cy="1.30498" r="1.30498" transform="matrix(-1 0 0 1 153.335 61.9873)" fill="white"/>
<circle cx="1.30498" cy="1.30498" r="1.30498" transform="matrix(-1 0 0 1 115.49 56.7666)" fill="white"/>
<circle cx="1.30498" cy="1.30498" r="1.30498" transform="matrix(-1 0 0 1 135.065 65.249)" fill="white"/>
<circle cx="1.30498" cy="1.30498" r="1.30498" transform="matrix(-1 0 0 1 66.554 62.6387)" fill="white"/>
<circle cx="1.30498" cy="1.30498" r="1.30498" transform="matrix(-1 0 0 1 50.894 75.6885)" fill="white"/>
<circle cx="1.30498" cy="1.30498" r="1.30498" transform="matrix(-1 0 0 1 91.3479 66.5537)" fill="white"/>
<circle cx="1.30498" cy="1.30498" r="1.30498" transform="matrix(-1 0 0 1 28.7095 78.2998)" fill="white"/>
<circle cx="1.30498" cy="1.30498" r="1.30498" transform="matrix(-1 0 0 1 17.6165 90.043)" fill="white"/>
<circle cx="1.30498" cy="1.30498" r="1.30498" transform="matrix(-1 0 0 1 41.1067 115.49)" fill="white"/>
<circle cx="1.30498" cy="1.30498" r="1.30498" transform="matrix(-1 0 0 1 69.8164 116.144)" fill="white"/>
<circle cx="1.30498" cy="1.30498" r="1.30498" transform="matrix(-1 0 0 1 17.6165 108.312)" fill="white"/>
<circle cx="1.30498" cy="1.30498" r="1.30498" transform="matrix(-1 0 0 1 156.597 82.8672)" fill="white"/>
<circle cx="1.30498" cy="1.30498" r="1.30498" transform="matrix(-1 0 0 1 161.817 56.1133)" fill="white"/>
<circle cx="1.30498" cy="1.30498" r="1.30498" transform="matrix(-1 0 0 1 144.852 99.1787)" fill="white"/>
<circle cx="1.30498" cy="1.30498" r="1.30498" transform="matrix(-1 0 0 1 136.37 96.5684)" fill="white"/>
<circle cx="1.30498" cy="1.30498" r="1.30498" transform="matrix(-1 0 0 1 110.27 106.355)" fill="white"/>
<circle cx="1.30498" cy="1.30498" r="1.30498" transform="matrix(-1 0 0 1 112.228 99.1787)" fill="white"/>
<circle cx="1.30498" cy="1.30498" r="1.30498" transform="matrix(-1 0 0 1 175.519 122.016)" fill="white"/>
<path d="M160.512 122.668C160.512 123.389 161.097 123.973 161.817 123.973C162.538 123.973 163.122 123.389 163.122 122.668C163.122 121.948 162.538 121.363 161.817 121.363C161.097 121.363 160.512 121.948 160.512 122.668Z" fill="white"/>
<path d="M137.675 131.15C137.675 131.87 138.26 132.455 138.98 132.455C139.701 132.455 140.285 131.87 140.285 131.15C140.285 130.429 139.701 129.845 138.98 129.845C138.26 129.845 137.675 130.429 137.675 131.15Z" fill="white"/>
<path d="M194.442 211.407C194.442 212.127 195.026 212.712 195.747 212.712C196.468 212.712 197.052 212.127 197.052 211.407C197.052 210.686 196.468 210.102 195.747 210.102C195.026 210.102 194.442 210.686 194.442 211.407Z" fill="white"/>
<path d="M221.846 257.734C221.846 258.454 222.43 259.039 223.151 259.039C223.872 259.039 224.456 258.454 224.456 257.734C224.456 257.013 223.872 256.429 223.151 256.429C222.43 256.429 221.846 257.013 221.846 257.734Z" fill="white"/>
<path d="M238.811 294.274C238.811 294.994 239.395 295.579 240.116 295.579C240.837 295.579 241.421 294.994 241.421 294.274C241.421 293.553 240.837 292.969 240.116 292.969C239.395 292.969 238.811 293.553 238.811 294.274Z" fill="white"/>
<path d="M243.379 358.217C243.379 358.938 243.963 359.522 244.684 359.522C245.404 359.522 245.989 358.938 245.989 358.217C245.989 357.496 245.404 356.912 244.684 356.912C243.963 356.912 243.379 357.496 243.379 358.217Z" fill="white"/>
<path d="M165.732 176.173C165.732 176.894 166.317 177.478 167.037 177.478C167.758 177.478 168.342 176.894 168.342 176.173C168.342 175.452 167.758 174.868 167.037 174.868C166.317 174.868 165.732 175.452 165.732 176.173Z" fill="white"/>
<path d="M172.909 163.122C172.909 163.843 173.494 164.427 174.214 164.427C174.935 164.427 175.519 163.843 175.519 163.122C175.519 162.402 174.935 161.817 174.214 161.817C173.494 161.817 172.909 162.402 172.909 163.122Z" fill="white"/>
<path d="M178.781 204.881C178.781 205.602 179.366 206.186 180.086 206.186C180.807 206.186 181.391 205.602 181.391 204.881C181.391 204.16 180.807 203.576 180.086 203.576C179.366 203.576 178.781 204.16 178.781 204.881Z" fill="white"/>
<path d="M183.349 223.804C183.349 224.525 183.934 225.109 184.654 225.109C185.375 225.109 185.959 224.525 185.959 223.804C185.959 223.083 185.375 222.499 184.654 222.499C183.934 222.499 183.349 223.083 183.349 223.804Z" fill="white"/>
<path d="M185.307 235.55C185.307 236.271 185.891 236.855 186.612 236.855C187.332 236.855 187.917 236.271 187.917 235.55C187.917 234.829 187.332 234.245 186.612 234.245C185.891 234.245 185.307 234.829 185.307 235.55Z" fill="white"/>
<path d="M209.449 266.869C209.449 267.59 210.033 268.174 210.754 268.174C211.475 268.174 212.059 267.59 212.059 266.869C212.059 266.149 211.475 265.564 210.754 265.564C210.033 265.564 209.449 266.149 209.449 266.869Z" fill="white"/>
<path d="M223.804 300.146C223.804 300.867 224.388 301.451 225.109 301.451C225.83 301.451 226.414 300.867 226.414 300.146C226.414 299.425 225.83 298.841 225.109 298.841C224.388 298.841 223.804 299.425 223.804 300.146Z" fill="white"/>
<path d="M227.067 345.166C227.067 345.887 227.651 346.471 228.372 346.471C229.092 346.471 229.677 345.887 229.677 345.166C229.677 344.446 229.092 343.861 228.372 343.861C227.651 343.861 227.067 344.446 227.067 345.166Z" fill="white"/>
<path d="M227.719 348.43C227.719 349.151 228.303 349.735 229.024 349.735C229.745 349.735 230.329 349.151 230.329 348.43C230.329 347.709 229.745 347.125 229.024 347.125C228.303 347.125 227.719 347.709 227.719 348.43Z" fill="white"/>
<path d="M214.017 381.054C214.017 381.775 214.601 382.359 215.321 382.359C216.042 382.359 216.626 381.775 216.626 381.054C216.626 380.333 216.042 379.749 215.321 379.749C214.601 379.749 214.017 380.333 214.017 381.054Z" fill="white"/>
<circle cx="1.30498" cy="1.30498" r="1.30498" transform="matrix(-1 0 0 1 195.094 148.116)" fill="white"/>
<circle cx="1.30498" cy="1.30498" r="1.30498" transform="matrix(-1 0 0 1 202.272 176.172)" fill="white"/>
<circle cx="1.30498" cy="1.30498" r="1.30498" transform="matrix(-1 0 0 1 206.839 199.662)" fill="white"/>
<path d="M203.577 221.846C203.577 222.567 204.161 223.151 204.882 223.151C205.602 223.151 206.187 222.567 206.187 221.846C206.187 221.125 205.602 220.541 204.882 220.541C204.161 220.541 203.577 221.125 203.577 221.846Z" fill="white"/>
<path d="M204.229 244.683C204.229 245.404 204.813 245.988 205.534 245.988C206.254 245.988 206.839 245.404 206.839 244.683C206.839 243.962 206.254 243.378 205.534 243.378C204.813 243.378 204.229 243.962 204.229 244.683Z" fill="white"/>
<path d="M197.052 267.52C197.052 268.241 197.636 268.825 198.357 268.825C199.077 268.825 199.662 268.241 199.662 267.52C199.662 266.799 199.077 266.215 198.357 266.215C197.636 266.215 197.052 266.799 197.052 267.52Z" fill="white"/>
<circle cx="1.30498" cy="1.30498" r="1.30498" transform="matrix(-1 0 0 1 125.93 48.9375)" fill="white"/>
<circle cx="1.30498" cy="1.30498" r="1.30498" transform="matrix(-1 0 0 1 129.845 55.4629)" fill="white"/>
<circle cx="1.30498" cy="1.30498" r="1.30498" transform="matrix(-1 0 0 1 152.029 55.4629)" fill="white"/>
<circle cx="1.30498" cy="1.30498" r="1.30498" transform="matrix(-1 0 0 1 107.661 46.9795)" fill="white"/>
<circle cx="1.30498" cy="1.30498" r="1.30498" transform="matrix(-1 0 0 1 80.9082 52.1992)" fill="white"/>
<circle cx="1.30498" cy="1.30498" r="1.30498" transform="matrix(-1 0 0 1 71.1208 55.4629)" fill="white"/>
<circle cx="1.30498" cy="1.30498" r="1.30498" transform="matrix(-1 0 0 1 50.894 62.6387)" fill="white"/>
<circle cx="1.30498" cy="1.30498" r="1.30498" transform="matrix(-1 0 0 1 28.7095 65.9023)" fill="white"/>
<circle cx="1.30498" cy="1.30498" r="1.30498" transform="matrix(-1 0 0 1 119.405 76.3418)" fill="white"/>
<circle cx="1.30498" cy="1.30498" r="1.30498" transform="matrix(-1 0 0 1 112.228 69.1641)" fill="white"/>
<circle cx="1.30498" cy="1.30498" r="1.30498" transform="matrix(-1 0 0 1 86.7803 79.6035)" fill="white"/>
<circle cx="1.30498" cy="1.30498" r="1.30498" transform="matrix(-1 0 0 1 78.2988 95.915)" fill="white"/>
<circle cx="1.30498" cy="1.30498" r="1.30498" transform="matrix(-1 0 0 1 133.107 82.8672)" fill="white"/>
<circle cx="1.30498" cy="1.30498" r="1.30498" transform="matrix(-1 0 0 1 139.632 75.6885)" fill="white"/>
<circle cx="1.30498" cy="1.30498" r="1.30498" transform="matrix(-1 0 0 1 123.321 72.4277)" fill="white"/>
<circle cx="1.30498" cy="1.30498" r="1.30498" transform="matrix(-1 0 0 1 58.7236 80.2568)" fill="white"/>
<circle cx="1.30498" cy="1.30498" r="1.30498" transform="matrix(-1 0 0 1 66.554 102.44)" fill="white"/>
<circle cx="1.30498" cy="1.30498" r="1.30498" transform="matrix(-1 0 0 1 78.2988 125.277)" fill="white"/>
<circle cx="1.30498" cy="1.30498" r="1.30498" transform="matrix(-1 0 0 1 50.894 86.7812)" fill="white"/>
<circle cx="1.30498" cy="1.30498" r="1.30498" transform="matrix(-1 0 0 1 54.156 103.094)" fill="white"/>
<circle cx="1.30498" cy="1.30498" r="1.30498" transform="matrix(-1 0 0 1 50.894 95.915)" fill="white"/>
<circle cx="1.30498" cy="1.30498" r="1.30498" transform="matrix(-1 0 0 1 37.844 85.4756)" fill="white"/>
<circle cx="1.30498" cy="1.30498" r="1.30498" transform="matrix(-1 0 0 1 24.1416 96.5684)" fill="white"/>
<circle cx="1.30498" cy="1.30498" r="1.30498" transform="matrix(-1 0 0 1 21.532 103.094)" fill="white"/>
<circle cx="1.30498" cy="1.30498" r="1.30498" transform="matrix(-1 0 0 1 31.3188 119.405)" fill="white"/>
<circle cx="1.30498" cy="1.30498" r="1.30498" transform="matrix(-1 0 0 1 28.7095 123.973)" fill="white"/>
<circle cx="1.30498" cy="1.30498" r="1.30498" transform="matrix(-1 0 0 1 51.5464 137.023)" fill="white"/>
<circle cx="1.30498" cy="1.30498" r="1.30498" transform="matrix(-1 0 0 1 75.0364 167.038)" fill="white"/>
<circle cx="1.30498" cy="1.30498" r="1.30498" transform="matrix(-1 0 0 1 86.7803 216.627)" fill="white"/>
<circle cx="1.30498" cy="1.30498" r="1.30498" transform="matrix(-1 0 0 1 91.3479 248.6)" fill="white"/>
<circle cx="1.30498" cy="1.30498" r="1.30498" transform="matrix(-1 0 0 1 73.0781 141.591)" fill="white"/>
<circle cx="1.30498" cy="1.30498" r="1.30498" transform="matrix(-1 0 0 1 83.5188 177.478)" fill="white"/>
<circle cx="1.30498" cy="1.30498" r="1.30498" transform="matrix(-1 0 0 1 92.6533 210.102)" fill="white"/>
<circle cx="1.30498" cy="1.30498" r="1.30498" transform="matrix(-1 0 0 1 109.618 246.643)" fill="white"/>
<circle cx="1.30498" cy="1.30498" r="1.30498" transform="matrix(-1 0 0 1 128.54 283.18)" fill="white"/>
<circle cx="1.30498" cy="1.30498" r="1.30498" transform="matrix(-1 0 0 1 128.54 323.635)" fill="white"/>
<circle cx="1.30498" cy="1.30498" r="1.30498" transform="matrix(-1 0 0 1 115.49 357.564)" fill="white"/>
<circle cx="1.30498" cy="1.30498" r="1.30498" transform="matrix(-1 0 0 1 91.3479 278.613)" fill="white"/>
<circle cx="1.30498" cy="1.30498" r="1.30498" transform="matrix(-1 0 0 1 84.823 308.628)" fill="white"/>
<circle cx="1.30498" cy="1.30498" r="1.30498" transform="matrix(-1 0 0 1 86.1282 335.38)" fill="white"/>
<circle cx="1.30498" cy="1.30498" r="1.30498" transform="matrix(-1 0 0 1 92.6533 118.754)" fill="white"/>
<circle cx="1.30498" cy="1.30498" r="1.30498" transform="matrix(-1 0 0 1 101.136 128.541)" fill="white"/>
<circle cx="1.30498" cy="1.30498" r="1.30498" transform="matrix(-1 0 0 1 109.618 135.717)" fill="white"/>
<circle cx="1.30498" cy="1.30498" r="1.30498" transform="matrix(-1 0 0 1 86.1282 132.455)" fill="white"/>
<circle cx="1.30498" cy="1.30498" r="1.30498" transform="matrix(-1 0 0 1 82.8655 152.031)" fill="white"/>
<circle cx="1.30498" cy="1.30498" r="1.30498" transform="matrix(-1 0 0 1 99.1782 148.768)" fill="white"/>
<circle cx="1.30498" cy="1.30498" r="1.30498" transform="matrix(-1 0 0 1 105.703 145.506)" fill="white"/>
<circle cx="1.30498" cy="1.30498" r="1.30498" transform="matrix(-1 0 0 1 122.015 174.868)" fill="white"/>
<circle cx="1.30498" cy="1.30498" r="1.30498" transform="matrix(-1 0 0 1 128.54 174.868)" fill="white"/>
<path d="M85.4757 166.384C85.4757 167.105 86.06 167.689 86.7807 167.689C87.5014 167.689 88.0857 167.105 88.0857 166.384C88.0857 165.663 87.5014 165.079 86.7807 165.079C86.06 165.079 85.4757 165.663 85.4757 166.384Z" fill="white"/>
<circle cx="1.30498" cy="1.30498" r="1.30498" transform="matrix(-1 0 0 1 95.916 172.91)" fill="white"/>
<circle cx="1.30498" cy="1.30498" r="1.30498" transform="matrix(-1 0 0 1 105.703 188.569)" fill="white"/>
<circle cx="1.30498" cy="1.30498" r="1.30498" transform="matrix(-1 0 0 1 86.7803 108.312)" fill="white"/>
<circle cx="1.30498" cy="1.30498" r="1.30498" transform="matrix(-1 0 0 1 76.3406 79.6035)" fill="white"/>
<circle cx="1.30498" cy="1.30498" r="1.30498" transform="matrix(-1 0 0 1 109.618 119.405)" fill="white"/>
<circle cx="1.30498" cy="1.30498" r="1.30498" transform="matrix(-1 0 0 1 123.321 150.073)" fill="white"/>
<path d="M147.462 153.987C147.462 154.707 148.046 155.292 148.767 155.292C149.488 155.292 150.072 154.707 150.072 153.987C150.072 153.266 149.488 152.682 148.767 152.682C148.046 152.682 147.462 153.266 147.462 153.987Z" fill="white"/>
<path d="M132.455 165.079C132.455 165.8 133.04 166.384 133.76 166.384C134.481 166.384 135.065 165.8 135.065 165.079C135.065 164.359 134.481 163.774 133.76 163.774C133.04 163.774 132.455 164.359 132.455 165.079Z" fill="white"/>
<path d="M122.668 158.555C122.668 159.276 123.252 159.86 123.973 159.86C124.694 159.86 125.278 159.276 125.278 158.555C125.278 157.834 124.694 157.25 123.973 157.25C123.252 157.25 122.668 157.834 122.668 158.555Z" fill="white"/>
<path d="M136.37 174.867C136.37 175.587 136.955 176.171 137.675 176.171C138.396 176.171 138.98 175.587 138.98 174.867C138.98 174.146 138.396 173.562 137.675 173.562C136.955 173.562 136.37 174.146 136.37 174.867Z" fill="white"/>
<path d="M132.455 183.349C132.455 184.07 133.04 184.654 133.76 184.654C134.481 184.654 135.065 184.07 135.065 183.349C135.065 182.628 134.481 182.044 133.76 182.044C133.04 182.044 132.455 182.628 132.455 183.349Z" fill="white"/>
<path d="M119.405 181.392C119.405 182.113 119.99 182.697 120.71 182.697C121.431 182.697 122.015 182.113 122.015 181.392C122.015 180.671 121.431 180.087 120.71 180.087C119.99 180.087 119.405 180.671 119.405 181.392Z" fill="white"/>
<path d="M114.186 191.831C114.186 192.552 114.77 193.136 115.491 193.136C116.211 193.136 116.796 192.552 116.796 191.831C116.796 191.111 116.211 190.526 115.491 190.526C114.77 190.526 114.186 191.111 114.186 191.831Z" fill="white"/>
<path d="M120.058 196.4C120.058 197.12 120.642 197.705 121.362 197.705C122.083 197.705 122.667 197.12 122.667 196.4C122.667 195.679 122.083 195.095 121.362 195.095C120.642 195.095 120.058 195.679 120.058 196.4Z" fill="white"/>
<path d="M120.058 207.492C120.058 208.213 120.642 208.797 121.362 208.797C122.083 208.797 122.667 208.213 122.667 207.492C122.667 206.772 122.083 206.188 121.362 206.188C120.642 206.188 120.058 206.772 120.058 207.492Z" fill="white"/>
<path d="M130.497 212.06C130.497 212.781 131.081 213.365 131.802 213.365C132.523 213.365 133.107 212.781 133.107 212.06C133.107 211.339 132.523 210.755 131.802 210.755C131.081 210.755 130.497 211.339 130.497 212.06Z" fill="white"/>
<path d="M129.845 217.279C129.845 217.999 130.429 218.584 131.15 218.584C131.871 218.584 132.455 217.999 132.455 217.279C132.455 216.558 131.871 215.974 131.15 215.974C130.429 215.974 129.845 216.558 129.845 217.279Z" fill="white"/>
<path d="M117.448 212.06C117.448 212.781 118.032 213.365 118.753 213.365C119.474 213.365 120.058 212.781 120.058 212.06C120.058 211.339 119.474 210.755 118.753 210.755C118.032 210.755 117.448 211.339 117.448 212.06Z" fill="white"/>
<path d="M137.022 212.06C137.022 212.781 137.607 213.365 138.327 213.365C139.048 213.365 139.632 212.781 139.632 212.06C139.632 211.339 139.048 210.755 138.327 210.755C137.607 210.755 137.022 211.339 137.022 212.06Z" fill="white"/>
<path d="M113.533 210.753C113.533 211.474 114.117 212.058 114.838 212.058C115.559 212.058 116.143 211.474 116.143 210.753C116.143 210.033 115.559 209.448 114.838 209.448C114.117 209.448 113.533 210.033 113.533 210.753Z" fill="white"/>
<path d="M120.058 223.804C120.058 224.525 120.642 225.109 121.362 225.109C122.083 225.109 122.667 224.525 122.667 223.804C122.667 223.083 122.083 222.499 121.362 222.499C120.642 222.499 120.058 223.083 120.058 223.804Z" fill="white"/>
<path d="M120.711 234.243C120.711 234.964 121.295 235.548 122.016 235.548C122.736 235.548 123.321 234.964 123.321 234.243C123.321 233.523 122.736 232.938 122.016 232.938C121.295 232.938 120.711 233.523 120.711 234.243Z" fill="white"/>
<path d="M107.008 219.889C107.008 220.61 107.592 221.194 108.313 221.194C109.034 221.194 109.618 220.61 109.618 219.889C109.618 219.168 109.034 218.584 108.313 218.584C107.592 218.584 107.008 219.168 107.008 219.889Z" fill="white"/>
<path d="M122.015 244.683C122.015 245.404 122.599 245.988 123.32 245.988C124.04 245.988 124.625 245.404 124.625 244.683C124.625 243.962 124.04 243.378 123.32 243.378C122.599 243.378 122.015 243.962 122.015 244.683Z" fill="white"/>
<path d="M125.93 234.897C125.93 235.617 126.515 236.202 127.235 236.202C127.956 236.202 128.54 235.617 128.54 234.897C128.54 234.176 127.956 233.592 127.235 233.592C126.515 233.592 125.93 234.176 125.93 234.897Z" fill="white"/>
<path d="M130.497 243.379C130.497 244.1 131.081 244.684 131.802 244.684C132.523 244.684 133.107 244.1 133.107 243.379C133.107 242.658 132.523 242.074 131.802 242.074C131.081 242.074 130.497 242.658 130.497 243.379Z" fill="white"/>
<path d="M133.76 238.158C133.76 238.879 134.344 239.463 135.065 239.463C135.786 239.463 136.37 238.879 136.37 238.158C136.37 237.438 135.786 236.854 135.065 236.854C134.344 236.854 133.76 237.438 133.76 238.158Z" fill="white"/>
<path d="M136.37 257.734C136.37 258.454 136.955 259.039 137.675 259.039C138.396 259.039 138.98 258.454 138.98 257.734C138.98 257.013 138.396 256.429 137.675 256.429C136.955 256.429 136.37 257.013 136.37 257.734Z" fill="white"/>
<path d="M140.285 257.734C140.285 258.454 140.869 259.039 141.59 259.039C142.311 259.039 142.895 258.454 142.895 257.734C142.895 257.013 142.311 256.429 141.59 256.429C140.869 256.429 140.285 257.013 140.285 257.734Z" fill="white"/>
<path d="M142.242 254.472C142.242 255.193 142.827 255.777 143.547 255.777C144.268 255.777 144.852 255.193 144.852 254.472C144.852 253.751 144.268 253.167 143.547 253.167C142.827 253.167 142.242 253.751 142.242 254.472Z" fill="white"/>
<path d="M145.505 249.905C145.505 250.625 146.089 251.21 146.81 251.21C147.53 251.21 148.115 250.625 148.115 249.905C148.115 249.184 147.53 248.6 146.81 248.6C146.089 248.6 145.505 249.184 145.505 249.905Z" fill="white"/>
<path d="M147.462 243.379C147.462 244.1 148.046 244.684 148.767 244.684C149.488 244.684 150.072 244.1 150.072 243.379C150.072 242.658 149.488 242.074 148.767 242.074C148.046 242.074 147.462 242.658 147.462 243.379Z" fill="white"/>
<path d="M159.207 253.82C159.207 254.54 159.791 255.125 160.512 255.125C161.233 255.125 161.817 254.54 161.817 253.82C161.817 253.099 161.233 252.515 160.512 252.515C159.791 252.515 159.207 253.099 159.207 253.82Z" fill="white"/>
<path d="M155.944 259.691C155.944 260.411 156.529 260.996 157.249 260.996C157.97 260.996 158.554 260.411 158.554 259.691C158.554 258.97 157.97 258.386 157.249 258.386C156.529 258.386 155.944 258.97 155.944 259.691Z" fill="white"/>
<path d="M150.073 263.606C150.073 264.326 150.657 264.911 151.378 264.911C152.098 264.911 152.683 264.326 152.683 263.606C152.683 262.885 152.098 262.301 151.378 262.301C150.657 262.301 150.073 262.885 150.073 263.606Z" fill="white"/>
<path d="M160.512 272.088C160.512 272.809 161.097 273.393 161.817 273.393C162.538 273.393 163.122 272.809 163.122 272.088C163.122 271.367 162.538 270.783 161.817 270.783C161.097 270.783 160.512 271.367 160.512 272.088Z" fill="white"/>
<path d="M155.944 277.309C155.944 278.03 156.529 278.614 157.249 278.614C157.97 278.614 158.554 278.03 158.554 277.309C158.554 276.588 157.97 276.004 157.249 276.004C156.529 276.004 155.944 276.588 155.944 277.309Z" fill="white"/>
<path d="M143.548 290.359C143.548 291.079 144.132 291.664 144.852 291.664C145.573 291.664 146.157 291.079 146.157 290.359C146.157 289.638 145.573 289.054 144.852 289.054C144.132 289.054 143.548 289.638 143.548 290.359Z" fill="white"/>
<path d="M133.76 276.656C133.76 277.376 134.344 277.961 135.065 277.961C135.786 277.961 136.37 277.376 136.37 276.656C136.37 275.935 135.786 275.351 135.065 275.351C134.344 275.351 133.76 275.935 133.76 276.656Z" fill="white"/>
<path d="M136.37 295.577C136.37 296.298 136.955 296.882 137.675 296.882C138.396 296.882 138.98 296.298 138.98 295.577C138.98 294.857 138.396 294.272 137.675 294.272C136.955 294.272 136.37 294.857 136.37 295.577Z" fill="white"/>
<path d="M138.98 300.799C138.98 301.52 139.564 302.104 140.285 302.104C141.005 302.104 141.59 301.52 141.59 300.799C141.59 300.078 141.005 299.494 140.285 299.494C139.564 299.494 138.98 300.078 138.98 300.799Z" fill="white"/>
<path d="M145.505 296.883C145.505 297.604 146.089 298.188 146.81 298.188C147.53 298.188 148.115 297.604 148.115 296.883C148.115 296.162 147.53 295.578 146.81 295.578C146.089 295.578 145.505 296.162 145.505 296.883Z" fill="white"/>
<path d="M150.073 300.146C150.073 300.867 150.657 301.451 151.378 301.451C152.098 301.451 152.683 300.867 152.683 300.146C152.683 299.425 152.098 298.841 151.378 298.841C150.657 298.841 150.073 299.425 150.073 300.146Z" fill="white"/>
<path d="M152.682 304.061C152.682 304.782 153.266 305.366 153.987 305.366C154.708 305.366 155.292 304.782 155.292 304.061C155.292 303.34 154.708 302.756 153.987 302.756C153.266 302.756 152.682 303.34 152.682 304.061Z" fill="white"/>
<path d="M146.157 313.848C146.157 314.569 146.741 315.153 147.462 315.153C148.183 315.153 148.767 314.569 148.767 313.848C148.767 313.127 148.183 312.543 147.462 312.543C146.741 312.543 146.157 313.127 146.157 313.848Z" fill="white"/>
<path d="M147.462 318.414C147.462 319.135 148.046 319.719 148.767 319.719C149.488 319.719 150.072 319.135 150.072 318.414C150.072 317.694 149.488 317.109 148.767 317.109C148.046 317.109 147.462 317.694 147.462 318.414Z" fill="white"/>
<path d="M155.944 311.89C155.944 312.611 156.529 313.195 157.249 313.195C157.97 313.195 158.554 312.611 158.554 311.89C158.554 311.169 157.97 310.585 157.249 310.585C156.529 310.585 155.944 311.169 155.944 311.89Z" fill="white"/>
<path d="M156.598 318.414C156.598 319.135 157.182 319.719 157.903 319.719C158.624 319.719 159.208 319.135 159.208 318.414C159.208 317.694 158.624 317.109 157.903 317.109C157.182 317.109 156.598 317.694 156.598 318.414Z" fill="white"/>
<path d="M158.555 300.146C158.555 300.867 159.139 301.451 159.86 301.451C160.581 301.451 161.165 300.867 161.165 300.146C161.165 299.425 160.581 298.841 159.86 298.841C159.139 298.841 158.555 299.425 158.555 300.146Z" fill="white"/>
<path d="M147.462 323.636C147.462 324.357 148.046 324.941 148.767 324.941C149.488 324.941 150.072 324.357 150.072 323.636C150.072 322.915 149.488 322.331 148.767 322.331C148.046 322.331 147.462 322.915 147.462 323.636Z" fill="white"/>
<path d="M142.895 337.991C142.895 338.711 143.479 339.296 144.2 339.296C144.921 339.296 145.505 338.711 145.505 337.991C145.505 337.27 144.921 336.686 144.2 336.686C143.479 336.686 142.895 337.27 142.895 337.991Z" fill="white"/>
<path d="M149.419 330.16C149.419 330.881 150.004 331.465 150.724 331.465C151.445 331.465 152.029 330.881 152.029 330.16C152.029 329.44 151.445 328.855 150.724 328.855C150.004 328.855 149.419 329.44 149.419 330.16Z" fill="white"/>
<path d="M148.767 339.948C148.767 340.668 149.352 341.253 150.072 341.253C150.793 341.253 151.377 340.668 151.377 339.948C151.377 339.227 150.793 338.643 150.072 338.643C149.352 338.643 148.767 339.227 148.767 339.948Z" fill="white"/>
<path d="M150.725 344.516C150.725 345.237 151.309 345.821 152.03 345.821C152.75 345.821 153.335 345.237 153.335 344.516C153.335 343.795 152.75 343.211 152.03 343.211C151.309 343.211 150.725 343.795 150.725 344.516Z" fill="white"/>
<path d="M160.512 331.465C160.512 332.186 161.097 332.77 161.817 332.77C162.538 332.77 163.122 332.186 163.122 331.465C163.122 330.744 162.538 330.16 161.817 330.16C161.097 330.16 160.512 330.744 160.512 331.465Z" fill="white"/>
<path d="M159.207 345.82C159.207 346.54 159.791 347.125 160.512 347.125C161.233 347.125 161.817 346.54 161.817 345.82C161.817 345.099 161.233 344.515 160.512 344.515C159.791 344.515 159.207 345.099 159.207 345.82Z" fill="white"/>
<path d="M140.937 352.344C140.937 353.065 141.521 353.649 142.242 353.649C142.963 353.649 143.547 353.065 143.547 352.344C143.547 351.623 142.963 351.039 142.242 351.039C141.521 351.039 140.937 351.623 140.937 352.344Z" fill="white"/>
<path d="M146.157 362.131C146.157 362.852 146.741 363.436 147.462 363.436C148.183 363.436 148.767 362.852 148.767 362.131C148.767 361.41 148.183 360.826 147.462 360.826C146.741 360.826 146.157 361.41 146.157 362.131Z" fill="white"/>
<path d="M139.633 356.912C139.633 357.633 140.217 358.217 140.938 358.217C141.659 358.217 142.243 357.633 142.243 356.912C142.243 356.192 141.659 355.607 140.938 355.607C140.217 355.607 139.633 356.192 139.633 356.912Z" fill="white"/>
<path d="M96.5683 315.154C96.5683 315.874 97.1525 316.459 97.8732 316.459C98.594 316.459 99.1782 315.874 99.1782 315.154C99.1782 314.433 98.594 313.849 97.8732 313.849C97.1525 313.849 96.5683 314.433 96.5683 315.154Z" fill="white"/>
<path d="M93.3061 315.154C93.3061 315.874 93.8903 316.459 94.611 316.459C95.3318 316.459 95.916 315.874 95.916 315.154C95.916 314.433 95.3318 313.849 94.611 313.849C93.8903 313.849 93.3061 314.433 93.3061 315.154Z" fill="white"/>
<path d="M73.7306 279.918C73.7306 280.639 74.3149 281.223 75.0356 281.223C75.7563 281.223 76.3406 280.639 76.3406 279.918C76.3406 279.198 75.7563 278.613 75.0356 278.613C74.3149 278.613 73.7306 279.198 73.7306 279.918Z" fill="white"/>
<path d="M65.9013 267.52C65.9013 268.241 66.4855 268.825 67.2062 268.825C67.927 268.825 68.5112 268.241 68.5112 267.52C68.5112 266.799 67.927 266.215 67.2062 266.215C66.4855 266.215 65.9013 266.799 65.9013 267.52Z" fill="white"/>
<path d="M60.6813 240.769C60.6813 241.49 61.2656 242.074 61.9863 242.074C62.707 242.074 63.2913 241.49 63.2913 240.769C63.2913 240.048 62.707 239.464 61.9863 239.464C61.2656 239.464 60.6813 240.048 60.6813 240.769Z" fill="white"/>
<path d="M52.851 227.718C52.851 228.439 53.4352 229.023 54.156 229.023C54.8767 229.023 55.4609 228.439 55.4609 227.718C55.4609 226.997 54.8767 226.413 54.156 226.413C53.4352 226.413 52.851 226.997 52.851 227.718Z" fill="white"/>
<path d="M52.1989 196.4C52.1989 197.12 52.7831 197.705 53.5039 197.705C54.2246 197.705 54.8088 197.12 54.8088 196.4C54.8088 195.679 54.2246 195.095 53.5039 195.095C52.7831 195.095 52.1989 195.679 52.1989 196.4Z" fill="white"/>
<path d="M51.546 156.598C51.546 157.319 52.1303 157.903 52.851 157.903C53.5717 157.903 54.156 157.319 54.156 156.598C54.156 155.877 53.5717 155.293 52.851 155.293C52.1303 155.293 51.546 155.877 51.546 156.598Z" fill="white"/>
<path d="M56.1137 114.185C56.1137 114.906 56.6979 115.49 57.4187 115.49C58.1394 115.49 58.7236 114.906 58.7236 114.185C58.7236 113.464 58.1394 112.88 57.4187 112.88C56.6979 112.88 56.1137 113.464 56.1137 114.185Z" fill="white"/>
<path d="M163.775 365.395C163.775 366.116 164.359 366.7 165.08 366.7C165.801 366.7 166.385 366.116 166.385 365.395C166.385 364.674 165.801 364.09 165.08 364.09C164.359 364.09 163.775 364.674 163.775 365.395Z" fill="white"/>
<path d="M162.47 354.955C162.47 355.676 163.054 356.26 163.775 356.26C164.496 356.26 165.08 355.676 165.08 354.955C165.08 354.235 164.496 353.65 163.775 353.65C163.054 353.65 162.47 354.235 162.47 354.955Z" fill="white"/>
<path d="M155.292 368.657C155.292 369.377 155.877 369.962 156.597 369.962C157.318 369.962 157.902 369.377 157.902 368.657C157.902 367.936 157.318 367.352 156.597 367.352C155.877 367.352 155.292 367.936 155.292 368.657Z" fill="white"/>
<path d="M172.909 377.792C172.909 378.513 173.494 379.097 174.214 379.097C174.935 379.097 175.519 378.513 175.519 377.792C175.519 377.072 174.935 376.487 174.214 376.487C173.494 376.487 172.909 377.072 172.909 377.792Z" fill="white"/>
<path d="M178.781 381.707C178.781 382.428 179.366 383.012 180.086 383.012C180.807 383.012 181.391 382.428 181.391 381.707C181.391 380.987 180.807 380.402 180.086 380.402C179.366 380.402 178.781 380.987 178.781 381.707Z" fill="white"/>
<path d="M167.037 386.927C167.037 387.648 167.622 388.232 168.342 388.232C169.063 388.232 169.647 387.648 169.647 386.927C169.647 386.206 169.063 385.622 168.342 385.622C167.622 385.622 167.037 386.206 167.037 386.927Z" fill="white"/>
<path d="M155.292 385.621C155.292 386.342 155.877 386.926 156.597 386.926C157.318 386.926 157.902 386.342 157.902 385.621C157.902 384.901 157.318 384.316 156.597 384.316C155.877 384.316 155.292 384.901 155.292 385.621Z" fill="white"/>
<path d="M150.725 384.318C150.725 385.038 151.309 385.623 152.03 385.623C152.75 385.623 153.335 385.038 153.335 384.318C153.335 383.597 152.75 383.013 152.03 383.013C151.309 383.013 150.725 383.597 150.725 384.318Z" fill="white"/>
<path d="M137.022 367.353C137.022 368.074 137.607 368.658 138.327 368.658C139.048 368.658 139.632 368.074 139.632 367.353C139.632 366.632 139.048 366.048 138.327 366.048C137.607 366.048 137.022 366.632 137.022 367.353Z" fill="white"/>
<path d="M140.285 371.267C140.285 371.988 140.869 372.572 141.59 372.572C142.311 372.572 142.895 371.988 142.895 371.267C142.895 370.546 142.311 369.962 141.59 369.962C140.869 369.962 140.285 370.546 140.285 371.267Z" fill="white"/>
<path d="M148.115 381.054C148.115 381.775 148.7 382.359 149.42 382.359C150.141 382.359 150.725 381.775 150.725 381.054C150.725 380.333 150.141 379.749 149.42 379.749C148.7 379.749 148.115 380.333 148.115 381.054Z" fill="white"/>
<path d="M179.435 398.672C179.435 399.393 180.019 399.977 180.74 399.977C181.46 399.977 182.045 399.393 182.045 398.672C182.045 397.951 181.46 397.367 180.74 397.367C180.019 397.367 179.435 397.951 179.435 398.672Z" fill="white"/>
<path d="M186.612 396.714C186.612 397.435 187.196 398.019 187.917 398.019C188.637 398.019 189.222 397.435 189.222 396.714C189.222 395.993 188.637 395.409 187.917 395.409C187.196 395.409 186.612 395.993 186.612 396.714Z" fill="white"/>
<path d="M184.654 418.898C184.654 419.618 185.239 420.203 185.959 420.203C186.68 420.203 187.264 419.618 187.264 418.898C187.264 418.177 186.68 417.593 185.959 417.593C185.239 417.593 184.654 418.177 184.654 418.898Z" fill="white"/>
<path d="M187.917 422.815C187.917 423.535 188.501 424.12 189.222 424.12C189.943 424.12 190.527 423.535 190.527 422.815C190.527 422.094 189.943 421.51 189.222 421.51C188.501 421.51 187.917 422.094 187.917 422.815Z" fill="white"/>
<path d="M196.4 430.644C196.4 431.365 196.984 431.949 197.705 431.949C198.425 431.949 199.01 431.365 199.01 430.644C199.01 429.923 198.425 429.339 197.705 429.339C196.984 429.339 196.4 429.923 196.4 430.644Z" fill="white"/>
<path d="M201.619 433.906C201.619 434.626 202.204 435.211 202.924 435.211C203.645 435.211 204.229 434.626 204.229 433.906C204.229 433.185 203.645 432.601 202.924 432.601C202.204 432.601 201.619 433.185 201.619 433.906Z" fill="white"/>
<path d="M198.357 423.466C198.357 424.187 198.941 424.771 199.662 424.771C200.383 424.771 200.967 424.187 200.967 423.466C200.967 422.745 200.383 422.161 199.662 422.161C198.941 422.161 198.357 422.745 198.357 423.466Z" fill="white"/>
<path d="M204.882 414.984C204.882 415.704 205.466 416.289 206.187 416.289C206.908 416.289 207.492 415.704 207.492 414.984C207.492 414.263 206.908 413.679 206.187 413.679C205.466 413.679 204.882 414.263 204.882 414.984Z" fill="white"/>
<path d="M194.442 405.85C194.442 406.571 195.026 407.155 195.747 407.155C196.468 407.155 197.052 406.571 197.052 405.85C197.052 405.129 196.468 404.545 195.747 404.545C195.026 404.545 194.442 405.129 194.442 405.85Z" fill="white"/>
<path d="M217.931 421.509C217.931 422.23 218.516 422.814 219.236 422.814C219.957 422.814 220.541 422.23 220.541 421.509C220.541 420.788 219.957 420.204 219.236 420.204C218.516 420.204 217.931 420.788 217.931 421.509Z" fill="white"/>
<path d="M223.804 420.204C223.804 420.925 224.388 421.509 225.109 421.509C225.83 421.509 226.414 420.925 226.414 420.204C226.414 419.484 225.83 418.899 225.109 418.899C224.388 418.899 223.804 419.484 223.804 420.204Z" fill="white"/>
<path d="M223.804 443.694C223.804 444.414 224.388 444.999 225.109 444.999C225.83 444.999 226.414 444.414 226.414 443.694C226.414 442.973 225.83 442.389 225.109 442.389C224.388 442.389 223.804 442.973 223.804 443.694Z" fill="white"/>
<path d="M208.797 437.169C208.797 437.89 209.381 438.474 210.102 438.474C210.822 438.474 211.407 437.89 211.407 437.169C211.407 436.449 210.822 435.864 210.102 435.864C209.381 435.864 208.797 436.449 208.797 437.169Z" fill="white"/>
<path d="M227.067 443.694C227.067 444.414 227.651 444.999 228.372 444.999C229.092 444.999 229.677 444.414 229.677 443.694C229.677 442.973 229.092 442.389 228.372 442.389C227.651 442.389 227.067 442.973 227.067 443.694Z" fill="white"/>
<path d="M242.073 440.431C242.073 441.152 242.657 441.736 243.378 441.736C244.099 441.736 244.683 441.152 244.683 440.431C244.683 439.71 244.099 439.126 243.378 439.126C242.657 439.126 242.073 439.71 242.073 440.431Z" fill="white"/>
<path d="M249.251 435.863C249.251 436.583 249.835 437.168 250.556 437.168C251.276 437.168 251.861 436.583 251.861 435.863C251.861 435.142 251.276 434.558 250.556 434.558C249.835 434.558 249.251 435.142 249.251 435.863Z" fill="white"/>
<path d="M255.776 441.084C255.776 441.805 256.36 442.389 257.081 442.389C257.801 442.389 258.386 441.805 258.386 441.084C258.386 440.364 257.801 439.779 257.081 439.779C256.36 439.779 255.776 440.364 255.776 441.084Z" fill="white"/>
<path d="M253.818 427.381C253.818 428.102 254.403 428.686 255.123 428.686C255.844 428.686 256.428 428.102 256.428 427.381C256.428 426.66 255.844 426.076 255.123 426.076C254.403 426.076 253.818 426.66 253.818 427.381Z" fill="white"/>
<path d="M260.343 435.863C260.343 436.583 260.928 437.168 261.648 437.168C262.369 437.168 262.953 436.583 262.953 435.863C262.953 435.142 262.369 434.558 261.648 434.558C260.928 434.558 260.343 435.142 260.343 435.863Z" fill="white"/>
<path d="M240.768 418.898C240.768 419.618 241.352 420.203 242.073 420.203C242.794 420.203 243.378 419.618 243.378 418.898C243.378 418.177 242.794 417.593 242.073 417.593C241.352 417.593 240.768 418.177 240.768 418.898Z" fill="white"/>
<path d="M238.811 404.544C238.811 405.265 239.395 405.849 240.116 405.849C240.837 405.849 241.421 405.265 241.421 404.544C241.421 403.824 240.837 403.239 240.116 403.239C239.395 403.239 238.811 403.824 238.811 404.544Z" fill="white"/>
<path d="M227.067 391.493C227.067 392.214 227.651 392.798 228.372 392.798C229.092 392.798 229.677 392.214 229.677 391.493C229.677 390.773 229.092 390.188 228.372 390.188C227.651 390.188 227.067 390.773 227.067 391.493Z" fill="white"/>
<path d="M205.534 380.403C205.534 381.123 206.118 381.708 206.839 381.708C207.56 381.708 208.144 381.123 208.144 380.403C208.144 379.682 207.56 379.098 206.839 379.098C206.118 379.098 205.534 379.682 205.534 380.403Z" fill="white"/>
<path d="M227.067 397.367C227.067 398.088 227.651 398.672 228.372 398.672C229.092 398.672 229.677 398.088 229.677 397.367C229.677 396.647 229.092 396.062 228.372 396.062C227.651 396.062 227.067 396.647 227.067 397.367Z" fill="white"/>
<path d="M188.569 386.927C188.569 387.648 189.153 388.232 189.874 388.232C190.595 388.232 191.179 387.648 191.179 386.927C191.179 386.206 190.595 385.622 189.874 385.622C189.153 385.622 188.569 386.206 188.569 386.927Z" fill="white"/>
<path d="M205.534 377.139C205.534 377.86 206.118 378.444 206.839 378.444C207.56 378.444 208.144 377.86 208.144 377.139C208.144 376.418 207.56 375.834 206.839 375.834C206.118 375.834 205.534 376.418 205.534 377.139Z" fill="white"/>
<path d="M186.612 368.657C186.612 369.377 187.196 369.962 187.917 369.962C188.637 369.962 189.222 369.377 189.222 368.657C189.222 367.936 188.637 367.352 187.917 367.352C187.196 367.352 186.612 367.936 186.612 368.657Z" fill="white"/>
<path d="M205.534 367.353C205.534 368.074 206.118 368.658 206.839 368.658C207.56 368.658 208.144 368.074 208.144 367.353C208.144 366.632 207.56 366.048 206.839 366.048C206.118 366.048 205.534 366.632 205.534 367.353Z" fill="white"/>
<path d="M205.534 360.827C205.534 361.548 206.118 362.132 206.839 362.132C207.56 362.132 208.144 361.548 208.144 360.827C208.144 360.107 207.56 359.522 206.839 359.522C206.118 359.522 205.534 360.107 205.534 360.827Z" fill="white"/>
<path d="M176.824 352.344C176.824 353.065 177.408 353.649 178.129 353.649C178.85 353.649 179.434 353.065 179.434 352.344C179.434 351.623 178.85 351.039 178.129 351.039C177.408 351.039 176.824 351.623 176.824 352.344Z" fill="white"/>
<path d="M183.349 358.217C183.349 358.938 183.934 359.522 184.654 359.522C185.375 359.522 185.959 358.938 185.959 358.217C185.959 357.496 185.375 356.912 184.654 356.912C183.934 356.912 183.349 357.496 183.349 358.217Z" fill="white"/>
<path d="M179.435 351.04C179.435 351.761 180.019 352.345 180.74 352.345C181.46 352.345 182.045 351.761 182.045 351.04C182.045 350.32 181.46 349.735 180.74 349.735C180.019 349.735 179.435 350.32 179.435 351.04Z" fill="white"/>
<path d="M180.087 344.516C180.087 345.237 180.671 345.821 181.392 345.821C182.113 345.821 182.697 345.237 182.697 344.516C182.697 343.795 182.113 343.211 181.392 343.211C180.671 343.211 180.087 343.795 180.087 344.516Z" fill="white"/>
<path d="M179.435 337.991C179.435 338.711 180.019 339.296 180.74 339.296C181.46 339.296 182.045 338.711 182.045 337.991C182.045 337.27 181.46 336.686 180.74 336.686C180.019 336.686 179.435 337.27 179.435 337.991Z" fill="white"/>
<path d="M167.037 337.991C167.037 338.711 167.622 339.296 168.342 339.296C169.063 339.296 169.647 338.711 169.647 337.991C169.647 337.27 169.063 336.686 168.342 336.686C167.622 336.686 167.037 337.27 167.037 337.991Z" fill="white"/>
<path d="M166.384 333.422C166.384 334.143 166.969 334.727 167.689 334.727C168.41 334.727 168.994 334.143 168.994 333.422C168.994 332.701 168.41 332.117 167.689 332.117C166.969 332.117 166.384 332.701 166.384 333.422Z" fill="white"/>
<path d="M164.427 304.714C164.427 305.435 165.011 306.019 165.732 306.019C166.453 306.019 167.037 305.435 167.037 304.714C167.037 303.993 166.453 303.409 165.732 303.409C165.011 303.409 164.427 303.993 164.427 304.714Z" fill="white"/>
<path d="M172.257 309.282C172.257 310.002 172.841 310.587 173.562 310.587C174.283 310.587 174.867 310.002 174.867 309.282C174.867 308.561 174.283 307.977 173.562 307.977C172.841 307.977 172.257 308.561 172.257 309.282Z" fill="white"/>
<path d="M163.775 287.749C163.775 288.47 164.359 289.054 165.08 289.054C165.801 289.054 166.385 288.47 166.385 287.749C166.385 287.029 165.801 286.444 165.08 286.444C164.359 286.444 163.775 287.029 163.775 287.749Z" fill="white"/>
<path d="M268.173 436.516C268.173 437.237 268.757 437.821 269.478 437.821C270.198 437.821 270.783 437.237 270.783 436.516C270.783 435.795 270.198 435.211 269.478 435.211C268.757 435.211 268.173 435.795 268.173 436.516Z" fill="white"/>
<path d="M267.52 441.084C267.52 441.805 268.105 442.389 268.825 442.389C269.546 442.389 270.13 441.805 270.13 441.084C270.13 440.364 269.546 439.779 268.825 439.779C268.105 439.779 267.52 440.364 267.52 441.084Z" fill="white"/>
<path d="M274.698 454.785C274.698 455.506 275.282 456.09 276.003 456.09C276.724 456.09 277.308 455.506 277.308 454.785C277.308 454.065 276.724 453.48 276.003 453.48C275.282 453.48 274.698 454.065 274.698 454.785Z" fill="white"/>
<path d="M268.173 452.827C268.173 453.548 268.757 454.132 269.478 454.132C270.198 454.132 270.783 453.548 270.783 452.827C270.783 452.107 270.198 451.522 269.478 451.522C268.757 451.522 268.173 452.107 268.173 452.827Z" fill="white"/>
<path d="M264.258 448.913C264.258 449.634 264.842 450.218 265.563 450.218C266.284 450.218 266.868 449.634 266.868 448.913C266.868 448.193 266.284 447.608 265.563 447.608C264.842 447.608 264.258 448.193 264.258 448.913Z" fill="white"/>
<path d="M274.046 465.225C274.046 465.946 274.63 466.53 275.351 466.53C276.072 466.53 276.656 465.946 276.656 465.225C276.656 464.504 276.072 463.92 275.351 463.92C274.63 463.92 274.046 464.504 274.046 465.225Z" fill="white"/>
<path d="M290.358 453.481C290.358 454.201 290.942 454.786 291.663 454.786C292.383 454.786 292.968 454.201 292.968 453.481C292.968 452.76 292.383 452.176 291.663 452.176C290.942 452.176 290.358 452.76 290.358 453.481Z" fill="white"/>
<path d="M291.011 460.658C291.011 461.379 291.595 461.963 292.316 461.963C293.036 461.963 293.621 461.379 293.621 460.658C293.621 459.938 293.036 459.354 292.316 459.354C291.595 459.354 291.011 459.938 291.011 460.658Z" fill="white"/>
<path d="M293.62 467.183C293.62 467.904 294.204 468.488 294.925 468.488C295.646 468.488 296.23 467.904 296.23 467.183C296.23 466.462 295.646 465.878 294.925 465.878C294.204 465.878 293.62 466.462 293.62 467.183Z" fill="white"/>
<path d="M300.145 476.971C300.145 477.692 300.729 478.276 301.45 478.276C302.171 478.276 302.755 477.692 302.755 476.971C302.755 476.25 302.171 475.666 301.45 475.666C300.729 475.666 300.145 476.25 300.145 476.971Z" fill="white"/>
<path d="M295.578 499.155C295.578 499.875 296.162 500.46 296.883 500.46C297.603 500.46 298.188 499.875 298.188 499.155C298.188 498.434 297.603 497.85 296.883 497.85C296.162 497.85 295.578 498.434 295.578 499.155Z" fill="white"/>
<path d="M285.138 516.773C285.138 517.493 285.722 518.078 286.443 518.078C287.163 518.078 287.748 517.493 287.748 516.773C287.748 516.052 287.163 515.468 286.443 515.468C285.722 515.468 285.138 516.052 285.138 516.773Z" fill="white"/>
<path d="M281.875 535.696C281.875 536.416 282.459 537.001 283.18 537.001C283.901 537.001 284.485 536.416 284.485 535.696C284.485 534.975 283.901 534.391 283.18 534.391C282.459 534.391 281.875 534.975 281.875 535.696Z" fill="white"/>
<path d="M159.859 319.068C159.859 319.788 160.444 320.373 161.164 320.373C161.885 320.373 162.469 319.788 162.469 319.068C162.469 318.347 161.885 317.763 161.164 317.763C160.444 317.763 159.859 318.347 159.859 319.068Z" fill="white"/>
<path d="M150.073 237.507C150.073 238.228 150.657 238.812 151.378 238.812C152.098 238.812 152.683 238.228 152.683 237.507C152.683 236.786 152.098 236.202 151.378 236.202C150.657 236.202 150.073 236.786 150.073 237.507Z" fill="white"/>
<path d="M153.335 240.116C153.335 240.836 153.919 241.421 154.64 241.421C155.361 241.421 155.945 240.836 155.945 240.116C155.945 239.395 155.361 238.811 154.64 238.811C153.919 238.811 153.335 239.395 153.335 240.116Z" fill="white"/>
<path d="M142.895 234.243C142.895 234.964 143.479 235.548 144.2 235.548C144.921 235.548 145.505 234.964 145.505 234.243C145.505 233.523 144.921 232.938 144.2 232.938C143.479 232.938 142.895 233.523 142.895 234.243Z" fill="white"/>
<path d="M157.25 224.457C157.25 225.178 157.834 225.762 158.555 225.762C159.276 225.762 159.86 225.178 159.86 224.457C159.86 223.737 159.276 223.152 158.555 223.152C157.834 223.152 157.25 223.737 157.25 224.457Z" fill="white"/>
<path d="M150.073 217.932C150.073 218.653 150.657 219.237 151.378 219.237C152.098 219.237 152.683 218.653 152.683 217.932C152.683 217.211 152.098 216.627 151.378 216.627C150.657 216.627 150.073 217.211 150.073 217.932Z" fill="white"/>
<path d="M153.987 231.633C153.987 232.354 154.571 232.938 155.292 232.938C156.013 232.938 156.597 232.354 156.597 231.633C156.597 230.912 156.013 230.328 155.292 230.328C154.571 230.328 153.987 230.912 153.987 231.633Z" fill="white"/>
<path d="M173.562 244.033C173.562 244.753 174.146 245.338 174.867 245.338C175.587 245.338 176.172 244.753 176.172 244.033C176.172 243.312 175.587 242.728 174.867 242.728C174.146 242.728 173.562 243.312 173.562 244.033Z" fill="white"/>
<path d="M175.52 257.734C175.52 258.454 176.104 259.039 176.825 259.039C177.546 259.039 178.13 258.454 178.13 257.734C178.13 257.013 177.546 256.429 176.825 256.429C176.104 256.429 175.52 257.013 175.52 257.734Z" fill="white"/>
<path d="M159.859 246.641C159.859 247.362 160.444 247.946 161.164 247.946C161.885 247.946 162.469 247.362 162.469 246.641C162.469 245.92 161.885 245.336 161.164 245.336C160.444 245.336 159.859 245.92 159.859 246.641Z" fill="white"/>
<path d="M167.037 253.82C167.037 254.54 167.622 255.125 168.342 255.125C169.063 255.125 169.647 254.54 169.647 253.82C169.647 253.099 169.063 252.515 168.342 252.515C167.622 252.515 167.037 253.099 167.037 253.82Z" fill="white"/>
<path d="M165.732 257.734C165.732 258.454 166.317 259.039 167.037 259.039C167.758 259.039 168.342 258.454 168.342 257.734C168.342 257.013 167.758 256.429 167.037 256.429C166.317 256.429 165.732 257.013 165.732 257.734Z" fill="white"/>
<path d="M176.172 272.088C176.172 272.809 176.756 273.393 177.477 273.393C178.198 273.393 178.782 272.809 178.782 272.088C178.782 271.367 178.198 270.783 177.477 270.783C176.756 270.783 176.172 271.367 176.172 272.088Z" fill="white"/>
<path d="M172.257 280.571C172.257 281.291 172.841 281.876 173.562 281.876C174.283 281.876 174.867 281.291 174.867 280.571C174.867 279.85 174.283 279.266 173.562 279.266C172.841 279.266 172.257 279.85 172.257 280.571Z" fill="white"/>
<path d="M181.392 286.443C181.392 287.163 181.976 287.748 182.697 287.748C183.418 287.748 184.002 287.163 184.002 286.443C184.002 285.722 183.418 285.138 182.697 285.138C181.976 285.138 181.392 285.722 181.392 286.443Z" fill="white"/>
<path d="M183.349 296.883C183.349 297.604 183.934 298.188 184.654 298.188C185.375 298.188 185.959 297.604 185.959 296.883C185.959 296.162 185.375 295.578 184.654 295.578C183.934 295.578 183.349 296.162 183.349 296.883Z" fill="white"/>
<path d="M194.442 310.586C194.442 311.307 195.026 311.891 195.747 311.891C196.468 311.891 197.052 311.307 197.052 310.586C197.052 309.866 196.468 309.281 195.747 309.281C195.026 309.281 194.442 309.866 194.442 310.586Z" fill="white"/>
<path d="M200.314 325.593C200.314 326.314 200.899 326.898 201.619 326.898C202.34 326.898 202.924 326.314 202.924 325.593C202.924 324.872 202.34 324.288 201.619 324.288C200.899 324.288 200.314 324.872 200.314 325.593Z" fill="white"/>
<path d="M202.924 339.948C202.924 340.668 203.508 341.253 204.229 341.253C204.949 341.253 205.534 340.668 205.534 339.948C205.534 339.227 204.949 338.643 204.229 338.643C203.508 338.643 202.924 339.227 202.924 339.948Z" fill="white"/>
<path d="M184.654 304.061C184.654 304.782 185.239 305.366 185.959 305.366C186.68 305.366 187.264 304.782 187.264 304.061C187.264 303.34 186.68 302.756 185.959 302.756C185.239 302.756 184.654 303.34 184.654 304.061Z" fill="white"/>
<path d="M129.193 251.208C129.193 251.929 129.777 252.513 130.498 252.513C131.219 252.513 131.803 251.929 131.803 251.208C131.803 250.488 131.219 249.903 130.498 249.903C129.777 249.903 129.193 250.488 129.193 251.208Z" fill="white"/>
<circle cx="1.30498" cy="1.30498" r="1.30498" transform="matrix(-1 0 0 1 118.753 135.066)" fill="white"/>
<circle cx="1.30498" cy="1.30498" r="1.30498" transform="matrix(-1 0 0 1 104.398 92.001)" fill="white"/>
</g>
</svg>
