<svg width="416" height="738" viewBox="0 0 416 738" fill="none" xmlns="http://www.w3.org/2000/svg">
<g opacity="0.2">
<path d="M183.113 53.743L172.364 35.8286" stroke="white" stroke-width="0.5"/>
<path d="M164.687 49.2645L172.364 35.8287L150.867 31.3501" stroke="white" stroke-width="0.5"/>
<path d="M137.432 22.3929L141.91 10.7485" stroke="white" stroke-width="0.5"/>
<path d="M141.91 10.7485L127.579 20.6014" stroke="white" stroke-width="0.5"/>
<path d="M119.517 17.9143L141.91 10.7485" stroke="white" stroke-width="0.5"/>
<path d="M100.707 2.68701L91.7498 47.473" stroke="white" stroke-width="0.5"/>
<path d="M68.4611 47.473L100.707 2.68701" stroke="white" stroke-width="0.5"/>
<path d="M43.3813 44.7861L37.1113 36.7246" stroke="white" stroke-width="0.5"/>
<path d="M21.8838 68.97L36.2153 36.7241" stroke="white" stroke-width="0.5"/>
<path d="M21.8838 68.9707L8.448 81.5108" stroke="white" stroke-width="0.5"/>
<path d="M21.8839 68.9701L44.2769 44.7856" stroke="white" stroke-width="0.5"/>
<path d="M67.5654 88.6758L37.111 109.277" stroke="white" stroke-width="0.5"/>
<path d="M109.664 72.5532L95.3326 77.9275" stroke="white" stroke-width="0.5"/>
<path d="M171.468 68.9707L176.843 77.9279" stroke="white" stroke-width="0.5"/>
<path d="M171.469 68.9706L145.493 67.1792" stroke="white" stroke-width="0.5"/>
<path d="M182.217 60.0132L188.487 71.6575" stroke="white" stroke-width="0.5"/>
<path d="M213.568 117.339L265.52 206.016" stroke="white" stroke-width="0.5"/>
<path d="M265.519 206.015L282.538 276.777" stroke="white" stroke-width="0.5"/>
<path d="M282.538 276.777V336.791" stroke="white" stroke-width="0.5"/>
<path d="M282.538 336.79L272.685 366.349" stroke="white" stroke-width="0.5"/>
<path d="M272.685 366.349L282.538 305.44" stroke="white" stroke-width="0.5"/>
<path d="M282.538 305.44L277.163 242.74" stroke="white" stroke-width="0.5"/>
<path d="M277.164 242.74L265.52 206.015" stroke="white" stroke-width="0.5"/>
<path d="M265.52 206.015L238.648 167.5" stroke="white" stroke-width="0.5"/>
<path d="M238.647 167.5L213.567 117.339" stroke="white" stroke-width="0.5"/>
<path d="M185.8 136.149L172.365 158.542" stroke="white" stroke-width="0.5"/>
<path d="M172.364 158.542L186.696 199.745" stroke="white" stroke-width="0.5"/>
<path d="M186.696 199.745L213.568 259.758" stroke="white" stroke-width="0.5"/>
<path d="M213.567 259.758L218.046 307.231" stroke="white" stroke-width="0.5"/>
<path d="M218.046 307.232L196.549 350.226" stroke="white" stroke-width="0.5"/>
<path d="M196.549 350.226L186.696 378.889" stroke="white" stroke-width="0.5"/>
<path d="M186.696 378.889L200.132 397.699" stroke="white" stroke-width="0.5"/>
<path d="M200.132 397.699L219.837 412.031" stroke="white" stroke-width="0.5"/>
<path d="M219.837 412.031L222.524 438.007" stroke="white" stroke-width="0.5"/>
<path d="M222.524 438.006L206.401 465.774" stroke="white" stroke-width="0.5"/>
<path d="M206.402 465.774L209.985 472.044" stroke="white" stroke-width="0.5"/>
<path d="M209.985 472.044L194.758 484.584" stroke="white" stroke-width="0.5"/>
<path d="M194.757 484.584L190.279 504.29" stroke="white" stroke-width="0.5"/>
<path d="M190.279 504.29L209.089 528.026" stroke="white" stroke-width="0.5"/>
<path d="M209.089 527.579L231.482 531.161" stroke="white" stroke-width="0.5"/>
<path d="M231.482 531.162L249.396 548.18" stroke="white" stroke-width="0.5"/>
<path d="M248.501 547.732L255.667 575.052" stroke="white" stroke-width="0.5"/>
<path d="M255.666 575.052L270.894 592.07" stroke="white" stroke-width="0.5"/>
<path d="M270.894 592.07L309.41 609.089" stroke="white" stroke-width="0.5"/>
<path d="M309.409 609.089L336.281 603.714" stroke="white" stroke-width="0.5"/>
<path d="M336.281 603.714L355.091 605.506" stroke="white" stroke-width="0.5"/>
<path d="M355.091 605.506L370.318 621.629" stroke="white" stroke-width="0.5"/>
<path d="M370.318 621.629L378.38 639.543" stroke="white" stroke-width="0.5"/>
<path d="M378.38 639.543L406.147 641.335" stroke="white" stroke-width="0.5"/>
<path d="M406.147 641.335L414.208 653.875" stroke="white" stroke-width="0.5"/>
<path d="M414.208 653.875L407.938 685.225" stroke="white" stroke-width="0.5"/>
<path d="M393.607 709.41L414.208 653.875" stroke="white" stroke-width="0.5"/>
<path d="M414.208 653.875L400.773 622.525" stroke="white" stroke-width="0.5"/>
<path d="M400.772 622.525L371.214 599.236" stroke="white" stroke-width="0.5"/>
<path d="M370.318 599.236L332.698 558.033" stroke="white" stroke-width="0.5"/>
<path d="M332.698 558.033L313.888 536.536" stroke="white" stroke-width="0.5"/>
<path d="M313.888 536.536L284.329 521.309" stroke="white" stroke-width="0.5"/>
<path d="M284.329 521.308V495.333" stroke="white" stroke-width="0.5"/>
<path d="M284.329 495.333L249.396 464.878" stroke="white" stroke-width="0.5"/>
<path d="M249.396 464.878L238.648 425.019L228.347 418.301" stroke="white" stroke-width="0.5"/>
<path d="M238.647 425.466L227.899 394.116" stroke="white" stroke-width="0.5"/>
<path d="M227.899 394.116L222.525 374.41" stroke="white" stroke-width="0.5"/>
<path d="M222.524 374.41L215.359 379.784" stroke="white" stroke-width="0.5"/>
<path d="M215.359 379.785L219.837 394.116" stroke="white" stroke-width="0.5"/>
<path d="M219.837 394.116L227.899 417.405" stroke="white" stroke-width="0.5"/>
<path d="M215.359 379.785L199.236 397.699" stroke="white" stroke-width="0.5"/>
<path d="M215.359 379.785L209.089 360.975" stroke="white" stroke-width="0.5"/>
<path d="M209.089 360.975L195.653 354.705" stroke="white" stroke-width="0.5"/>
<path d="M222.524 374.41L219.837 348.435" stroke="white" stroke-width="0.5"/>
<path d="M219.837 348.435L205.506 334.103" stroke="white" stroke-width="0.5"/>
<path d="M222.524 374.411L215.359 355.601" stroke="white" stroke-width="0.5"/>
<path d="M215.359 355.6L201.028 342.165" stroke="white" stroke-width="0.5"/>
<path d="M200.132 397.699L190.279 406.656" stroke="white" stroke-width="0.5"/>
<path d="M190.279 406.657L195.653 420.988" stroke="white" stroke-width="0.5"/>
<path d="M195.653 420.988L206.402 438.007" stroke="white" stroke-width="0.5"/>
<path d="M206.402 436.215V465.774" stroke="white" stroke-width="0.5"/>
<path d="M203.715 430.841L212.672 416.509" stroke="white" stroke-width="0.5"/>
<path d="M196.549 421.884L209.089 411.135" stroke="white" stroke-width="0.5"/>
<path d="M192.07 412.927L201.923 406.657" stroke="white" stroke-width="0.5"/>
<path d="M206.401 444.276L217.15 426.362" stroke="white" stroke-width="0.5"/>
<path d="M206.402 453.234L218.046 436.215" stroke="white" stroke-width="0.5"/>
<path d="M206.402 465.774L199.236 462.191" stroke="white" stroke-width="0.5"/>
<path d="M199.236 462.191L206.402 443.381" stroke="white" stroke-width="0.5"/>
<path d="M209.984 472.044L224.316 453.234" stroke="white" stroke-width="0.5"/>
<path d="M194.757 508.769L219.837 474.731" stroke="white" stroke-width="0.5"/>
<path d="M205.506 523.099L226.107 486.375" stroke="white" stroke-width="0.5"/>
<path d="M215.359 529.37L227.003 502.498" stroke="white" stroke-width="0.5"/>
<path d="M237.752 490.854L240.439 517.726" stroke="white" stroke-width="0.5"/>
<path d="M237.752 490.854L231.482 462.191" stroke="white" stroke-width="0.5"/>
<path d="M227.899 417.405L231.482 462.191" stroke="white" stroke-width="0.5"/>
<path d="M231.482 457.712L249.396 472.044" stroke="white" stroke-width="0.5"/>
<path d="M247.605 480.106L231.482 463.087" stroke="white" stroke-width="0.5"/>
<path d="M284.329 495.333L245.813 484.584" stroke="white" stroke-width="0.5"/>
<path d="M284.329 503.394L253.875 490.854" stroke="white" stroke-width="0.5"/>
<path d="M284.329 516.83L258.353 506.081" stroke="white" stroke-width="0.5"/>
<path d="M237.752 490.854L260.145 530.266" stroke="white" stroke-width="0.5"/>
<path d="M260.145 530.266L313.888 545.045" stroke="white" stroke-width="0.5"/>
<path d="M260.145 530.266L309.41 576.843" stroke="white" stroke-width="0.5"/>
<path d="M309.857 577.291L344.342 598.34" stroke="white" stroke-width="0.5"/>
<path d="M355.091 605.506L332.698 575.052" stroke="white" stroke-width="0.5"/>
<path d="M332.698 575.052L330.011 555.346" stroke="white" stroke-width="0.5"/>
<path d="M407.938 685.225L393.607 709.41" stroke="white" stroke-width="0.5"/>
<path d="M393.607 709.409L389.128 735.385" stroke="white" stroke-width="0.5"/>
<path d="M68.4609 47.4727L37.1108 36.7241" stroke="white" stroke-width="0.5"/>
<path d="M218.941 80.6147L213.567 117.339" stroke="white" stroke-width="0.5"/>
<path d="M213.568 117.339L209.089 86.8843" stroke="white" stroke-width="0.5"/>
<path d="M209.089 87.2433L181.471 92.2594L155.346 81.5107" stroke="white" stroke-width="0.5"/>
<path d="M155.346 81.5107L122.941 94.9465L89.063 88.9751" stroke="white" stroke-width="0.5"/>
<path d="M89.0625 89.5718L66.0553 105.759L37.1108 109.278" stroke="white" stroke-width="0.5"/>
<path d="M37.1108 109.278L20.9879 127.192" stroke="white" stroke-width="0.5"/>
<path d="M20.9878 127.192L2.17769 126.296" stroke="white" stroke-width="0.5"/>
<path d="M36.2151 109.277L37.1108 92.2588" stroke="white" stroke-width="0.5"/>
<path d="M89.0625 89.5715L67.5652 88.6758" stroke="white" stroke-width="0.5"/>
<path d="M89.0628 88.6764L96.2285 77.9277" stroke="white" stroke-width="0.5"/>
<path d="M155.346 81.5107L145.493 67.1792" stroke="white" stroke-width="0.5"/>
<path d="M87.271 89.5722L107.873 73.4492" stroke="white" stroke-width="0.5"/>
<path d="M154.45 81.5108C155.069 80.9206 166.054 72.9048 171.469 68.9707" stroke="white" stroke-width="0.5"/>
<path d="M154.45 80.6149L176.843 77.9277" stroke="white" stroke-width="0.5"/>
<path d="M209.089 88.6764L206.402 77.9277" stroke="white" stroke-width="0.5"/>
<path d="M213.568 117.339L195.653 137.941" stroke="white" stroke-width="0.5"/>
<path d="M185.8 136.149L209.089 86.8843" stroke="white" stroke-width="0.5"/>
<path d="M185.8 136.149L196.549 139.732" stroke="white" stroke-width="0.5"/>
<path d="M185.8 136.149L151.763 139.732" stroke="white" stroke-width="0.5"/>
<path d="M185.8 136.149L149.972 149.585" stroke="white" stroke-width="0.5"/>
<path d="M54.1297 162.125L94.437 163.021" stroke="white" stroke-width="0.5"/>
<path d="M54.1294 162.125L20.9878 150.48" stroke="white" stroke-width="0.5"/>
<path d="M20.9878 150.481L2.17769 126.296" stroke="white" stroke-width="0.5"/>
<path d="M218.941 80.6147L199.236 58.2217" stroke="white" stroke-width="0.5"/>
<path d="M199.236 58.2216L172.365 35.8286" stroke="white" stroke-width="0.5"/>
<path d="M172.364 35.8287L141.91 10.7485" stroke="white" stroke-width="0.5"/>
<path d="M141.91 10.7485L100.707 2.68701" stroke="white" stroke-width="0.5"/>
<path d="M100.707 2.68701L36.2153 36.7243" stroke="white" stroke-width="0.5"/>
<path d="M36.2153 36.7241L7.55232 81.5101" stroke="white" stroke-width="0.5"/>
<path d="M7.55225 81.5107L2.17793 126.297" stroke="white" stroke-width="0.5"/>
<path d="M2.17802 126.297L29.9453 85.0938" stroke="white" stroke-width="0.5"/>
<path d="M29.9451 85.0932L82.7925 62.7002" stroke="white" stroke-width="0.5"/>
<path d="M82.7925 62.7001L128.474 54.6387" stroke="white" stroke-width="0.5"/>
<path d="M128.474 54.6387L181.322 60.013" stroke="white" stroke-width="0.5"/>
<path d="M181.321 60.0132L218.941 79.719" stroke="white" stroke-width="0.5"/>
<path d="M116.83 462.191L114.142 425.467" stroke="white" stroke-width="0.5"/>
<path d="M114.142 425.466L123.1 384.263" stroke="white" stroke-width="0.5"/>
<path d="M123.1 384.263L118.621 298.274" stroke="white" stroke-width="0.5"/>
<path d="M118.621 298.275L102.498 231.096" stroke="white" stroke-width="0.5"/>
<path d="M100.707 231.096L70.2526 189.893" stroke="white" stroke-width="0.5"/>
<path d="M70.2524 189.892L41.5894 166.604" stroke="white" stroke-width="0.5"/>
<path d="M30.8408 135.254L37.1108 170.187" stroke="white" stroke-width="0.5"/>
<path d="M29.0493 144.211L20.9878 127.192" stroke="white" stroke-width="0.5"/>
<path d="M20.9879 127.192L30.8408 135.254" stroke="white" stroke-width="0.5"/>
<path d="M30.8404 135.254L53.2334 162.125" stroke="white" stroke-width="0.5"/>
<path d="M30.8409 135.254L40.6938 166.604" stroke="white" stroke-width="0.5"/>
<path d="M168.782 100.32L209.089 86.8843" stroke="white" stroke-width="0.5"/>
<path d="M168.781 100.32L183.113 91.3633" stroke="white" stroke-width="0.5"/>
<path d="M168.781 100.32C169.378 100.32 183.959 103.306 191.174 104.799" stroke="white" stroke-width="0.5"/>
<path d="M38.902 171.978L102.498 231.095" stroke="white" stroke-width="0.5"/>
<path d="M114.143 298.275L102.498 231.096" stroke="white" stroke-width="0.5"/>
<path d="M114.143 298.274L123.996 342.165" stroke="white" stroke-width="0.5"/>
<path d="M123.996 342.165V384.263" stroke="white" stroke-width="0.5"/>
<path d="M50.5464 118.235L37.1106 109.278" stroke="white" stroke-width="0.5"/>
<path d="M50.5468 118.235L67.5654 135.254" stroke="white" stroke-width="0.5"/>
<path d="M67.5654 135.254L72.0439 144.211" stroke="white" stroke-width="0.5"/>
<path d="M72.044 144.21L94.437 163.021" stroke="white" stroke-width="0.5"/>
<path d="M67.5654 121.818L36.2153 109.278" stroke="white" stroke-width="0.5"/>
<path d="M67.5657 122.713L93.5415 163.021" stroke="white" stroke-width="0.5"/>
<path d="M89.9585 141.523L80.1056 112.86" stroke="white" stroke-width="0.5"/>
<path d="M89.9578 141.524L105.185 173.77" stroke="white" stroke-width="0.5"/>
<path d="M105.185 173.77L93.5407 163.021" stroke="white" stroke-width="0.5"/>
<path d="M103.394 110.173L105.185 133.462" stroke="white" stroke-width="0.5"/>
<path d="M105.185 133.462L112.351 210.494" stroke="white" stroke-width="0.5"/>
<path d="M162.511 108.382L182.217 116.443" stroke="white" stroke-width="0.5"/>
<path d="M181.322 116.443L185.8 136.149" stroke="white" stroke-width="0.5"/>
<path d="M151.763 96.7373L141.015 128.087" stroke="white" stroke-width="0.5"/>
<path d="M141.014 128.088L149.076 166.604" stroke="white" stroke-width="0.5"/>
<path d="M149.076 166.604L169.677 208.702" stroke="white" stroke-width="0.5"/>
<path d="M160.72 186.31L168.781 206.911" stroke="white" stroke-width="0.5"/>
<path d="M149.971 188.101L175.947 241.844" stroke="white" stroke-width="0.5"/>
<path d="M136.536 178.248L144.597 201.537" stroke="white" stroke-width="0.5"/>
<path d="M144.597 201.537L166.99 240.948" stroke="white" stroke-width="0.5"/>
<path d="M125.787 164.812L117.726 111.965" stroke="white" stroke-width="0.5"/>
<path d="M118.621 150.481L117.725 111.965" stroke="white" stroke-width="0.5"/>
<path d="M134.744 206.015L143.702 261.55" stroke="white" stroke-width="0.5"/>
<path d="M143.702 260.654L130.266 240.053" stroke="white" stroke-width="0.5"/>
<path d="M130.266 240.053L121.308 179.144" stroke="white" stroke-width="0.5"/>
<path d="M121.309 179.144L118.621 149.585" stroke="white" stroke-width="0.5"/>
<path d="M116.83 183.623L118.621 228.409" stroke="white" stroke-width="0.5"/>
<path d="M118.621 228.408L112.351 210.494" stroke="white" stroke-width="0.5"/>
<path d="M118.621 228.408L130.266 240.053" stroke="white" stroke-width="0.5"/>
<path d="M105.185 173.77L112.351 210.494" stroke="white" stroke-width="0.5"/>
<path d="M53.2339 162.125L98.9155 196.162" stroke="white" stroke-width="0.5"/>
<path d="M98.9154 196.163L114.143 246.323" stroke="white" stroke-width="0.5"/>
<path d="M114.143 246.323L125.787 291.109" stroke="white" stroke-width="0.5"/>
<path d="M125.787 291.109L149.972 341.269" stroke="white" stroke-width="0.5"/>
<path d="M149.971 341.269L174.156 392.325" stroke="white" stroke-width="0.5"/>
<path d="M174.156 391.429V445.172" stroke="white" stroke-width="0.5"/>
<path d="M174.156 445.172L156.241 493.541" stroke="white" stroke-width="0.5"/>
<path d="M195.653 139.732L222.524 168.395" stroke="white" stroke-width="0.5"/>
<path d="M222.525 168.395L240.439 223.93" stroke="white" stroke-width="0.5"/>
<path d="M240.439 223.93L246.709 281.256" stroke="white" stroke-width="0.5"/>
<path d="M246.709 281.256L256.562 323.355" stroke="white" stroke-width="0.5"/>
<path d="M256.562 323.354L290.599 367.245" stroke="white" stroke-width="0.5"/>
<path d="M290.599 367.245L310.305 411.135" stroke="white" stroke-width="0.5"/>
<path d="M310.305 411.135L313.888 474.731" stroke="white" stroke-width="0.5"/>
<path d="M313.888 474.731L296.87 522.205" stroke="white" stroke-width="0.5"/>
<path d="M296.87 522.204L315.68 477.418" stroke="white" stroke-width="0.5"/>
<path d="M315.68 477.418L310.305 411.135" stroke="white" stroke-width="0.5"/>
<path d="M290.599 367.245L252.083 305.44" stroke="white" stroke-width="0.5"/>
<path d="M185.8 136.149L192.07 179.144" stroke="white" stroke-width="0.5"/>
<path d="M192.07 179.144L229.69 241.844" stroke="white" stroke-width="0.5"/>
<path d="M229.69 241.844L269.102 289.317" stroke="white" stroke-width="0.5"/>
<path d="M269.102 289.317L306.722 354.705" stroke="white" stroke-width="0.5"/>
<path d="M307.17 355.152L331.803 403.969" stroke="white" stroke-width="0.5"/>
<path d="M331.802 403.969L337.177 490.854" stroke="white" stroke-width="0.5"/>
<path d="M355.091 605.506L350.613 585.8" stroke="white" stroke-width="0.5"/>
<path d="M365.84 617.151L359.57 598.341" stroke="white" stroke-width="0.5"/>
<path d="M379.276 639.544V624.316" stroke="white" stroke-width="0.5"/>
<path d="M379.276 624.316L370.319 605.506" stroke="white" stroke-width="0.5"/>
<path d="M401.668 631.482L371.214 599.236" stroke="white" stroke-width="0.5"/>
<path d="M313.888 608.193L302.244 579.53" stroke="white" stroke-width="0.5"/>
<path d="M288.808 600.131L283.433 570.573" stroke="white" stroke-width="0.5"/>
<path d="M278.955 595.653L274.476 580.426" stroke="white" stroke-width="0.5"/>
<path d="M271.79 591.622L269.102 557.137" stroke="white" stroke-width="0.5"/>
<path d="M260.145 580.425L258.354 544.597" stroke="white" stroke-width="0.5"/>
<path d="M248.5 547.285L247.605 524.892" stroke="white" stroke-width="0.5"/>
<path d="M215.359 506.977L172.365 472.94" stroke="white" stroke-width="0.5"/>
<path d="M172.364 472.94L134.744 432.632" stroke="white" stroke-width="0.5"/>
<path d="M134.744 432.632L103.394 385.159" stroke="white" stroke-width="0.5"/>
<path d="M103.395 385.159L85.4802 329.625" stroke="white" stroke-width="0.5"/>
<path d="M84.584 329.625L72.9396 269.611" stroke="white" stroke-width="0.5"/>
<path d="M72.9396 269.611L76.5225 217.66" stroke="white" stroke-width="0.5"/>
<path d="M76.5226 217.66L80.1055 157.646" stroke="white" stroke-width="0.5"/>
<path d="M72.044 144.21L80.1055 157.646" stroke="white" stroke-width="0.5"/>
<path d="M80.1055 157.646L72.044 214.973" stroke="white" stroke-width="0.5"/>
<path d="M72.0438 214.973L74.731 269.612" stroke="white" stroke-width="0.5"/>
<path d="M74.7312 269.611L75.627 311.71" stroke="white" stroke-width="0.5"/>
<path d="M75.6268 311.71L84.584 329.624" stroke="white" stroke-width="0.5"/>
<path d="M84.5842 329.625L91.75 366.349" stroke="white" stroke-width="0.5"/>
<path d="M91.7502 366.349L103.395 385.159" stroke="white" stroke-width="0.5"/>
<path d="M103.394 385.159L130.266 432.632" stroke="white" stroke-width="0.5"/>
<path d="M130.265 432.632L172.364 472.94" stroke="white" stroke-width="0.5"/>
<path d="M186.696 378.889L188.487 352.914" stroke="white" stroke-width="0.5"/>
<path d="M188.488 352.914L195.653 354.705" stroke="white" stroke-width="0.5"/>
<path d="M188.487 352.913L169.677 336.79" stroke="white" stroke-width="0.5"/>
<path d="M180.426 345.747L174.156 323.354" stroke="white" stroke-width="0.5"/>
<path d="M169.677 336.791L167.886 305.44" stroke="white" stroke-width="0.5"/>
<path d="M167.886 305.44L158.929 288.421" stroke="white" stroke-width="0.5"/>
<path d="M167.886 320.668L149.971 300.962" stroke="white" stroke-width="0.5"/>
<path d="M149.972 300.961L143.702 261.55" stroke="white" stroke-width="0.5"/>
<path d="M143.701 260.654L166.99 284.838" stroke="white" stroke-width="0.5"/>
<path d="M166.99 284.839L182.217 292.005" stroke="white" stroke-width="0.5"/>
<path d="M182.217 292.005C182.811 291.288 205.753 289.915 217.15 289.317" stroke="white" stroke-width="0.5"/>
<path d="M217.15 289.317L228.794 300.962" stroke="white" stroke-width="0.5"/>
<path d="M217.15 289.317L192.07 269.611" stroke="white" stroke-width="0.5"/>
<path d="M192.07 269.612L183.113 251.697" stroke="white" stroke-width="0.5"/>
<path d="M183.113 251.697L166.99 269.612" stroke="white" stroke-width="0.5"/>
<path d="M166.99 269.611V284.839" stroke="white" stroke-width="0.5"/>
<path d="M183.113 251.697L190.279 240.053" stroke="white" stroke-width="0.5"/>
<path d="M190.279 240.053L184.904 227.513" stroke="white" stroke-width="0.5"/>
<path d="M190.279 240.052L171.469 218.555" stroke="white" stroke-width="0.5"/>
<path d="M167.886 269.612L165.199 248.114" stroke="white" stroke-width="0.5"/>
<path d="M166.99 284.839L158.928 263.341" stroke="white" stroke-width="0.5"/>
<path d="M180.426 296.483L164.303 291.109" stroke="white" stroke-width="0.5"/>
<path d="M213.568 328.728L199.236 320.667" stroke="white" stroke-width="0.5"/>
<path d="M199.236 320.667L182.218 292.004" stroke="white" stroke-width="0.5"/>
<path d="M192.07 292.004L243.126 354.705" stroke="white" stroke-width="0.5"/>
<path d="M243.126 354.705L240.439 334.999" stroke="white" stroke-width="0.5"/>
<path d="M240.439 334.999L208.193 298.274" stroke="white" stroke-width="0.5"/>
<path d="M243.126 354.705L244.022 373.067" stroke="white" stroke-width="0.5"/>
<path d="M244.917 375.306L231.482 347.539" stroke="white" stroke-width="0.5"/>
<path d="M244.918 375.306L251.188 393.221" stroke="white" stroke-width="0.5"/>
<path d="M251.188 393.221L253.875 407.552" stroke="white" stroke-width="0.5"/>
<path d="M253.875 407.552L238.648 385.159" stroke="white" stroke-width="0.5"/>
<path d="M238.647 385.16L228.795 354.705" stroke="white" stroke-width="0.5"/>
<path d="M228.794 354.705L222.524 337.686" stroke="white" stroke-width="0.5"/>
<path d="M253.875 407.552L269.102 426.362" stroke="white" stroke-width="0.5"/>
<path d="M269.102 426.362L278.059 446.963" stroke="white" stroke-width="0.5"/>
<path d="M276.908 447.86L279.851 465.774M238.648 385.159L255.57 417.256" stroke="white" stroke-width="0.5"/>
<path d="M269.102 426.362L255.666 417.405" stroke="white" stroke-width="0.5"/>
<path d="M197.445 350.226L185.8 327.833" stroke="white" stroke-width="0.5"/>
<path d="M190.279 352.913L182.217 332.312" stroke="white" stroke-width="0.5"/>
<path d="M192.071 179.144L205.506 210.494" stroke="white" stroke-width="0.5"/>
<path d="M206.402 210.494L229.69 241.844" stroke="white" stroke-width="0.5"/>
<circle cx="1.79144" cy="1.79144" r="1.79144" transform="matrix(-1 0 0 1 201.027 54.6387)" fill="white"/>
<circle cx="1.79144" cy="1.79144" r="1.79144" transform="matrix(-1 0 0 1 174.156 32.2456)" fill="white"/>
<circle cx="1.79144" cy="1.79144" r="1.79144" transform="matrix(-1 0 0 1 145.493 7.16602)" fill="white"/>
<circle cx="1.79144" cy="1.79144" r="1.79144" transform="matrix(-1 0 0 1 103.395 0)" fill="white"/>
<circle cx="1.79144" cy="1.79144" r="1.79144" transform="matrix(-1 0 0 1 46.0684 41.2031)" fill="white"/>
<circle cx="1.79144" cy="1.79144" r="1.79144" transform="matrix(-1 0 0 1 39.7983 34.0371)" fill="white"/>
<circle cx="1.79144" cy="1.79144" r="1.79144" transform="matrix(-1 0 0 1 11.1348 77.9277)" fill="white"/>
<circle cx="1.79144" cy="1.79144" r="1.79144" transform="matrix(-1 0 0 1 25.4668 67.1792)" fill="white"/>
<circle cx="1.79144" cy="1.79144" r="1.79144" transform="matrix(-1 0 0 1 3.96924 122.713)" fill="white"/>
<circle cx="1.79144" cy="1.79144" r="1.79144" transform="matrix(-1 0 0 1 85.48 59.1177)" fill="white"/>
<circle cx="1.79144" cy="1.79144" r="1.79144" transform="matrix(-1 0 0 1 94.437 44.7856)" fill="white"/>
<circle cx="1.79144" cy="1.79144" r="1.79144" transform="matrix(-1 0 0 1 71.1479 44.7856)" fill="white"/>
<circle cx="1.79144" cy="1.79144" r="1.79144" transform="matrix(-1 0 0 1 121.309 16.123)" fill="white"/>
<circle cx="1.79144" cy="1.79144" r="1.79144" transform="matrix(-1 0 0 1 128.474 18.8101)" fill="white"/>
<circle cx="1.79144" cy="1.79144" r="1.79144" transform="matrix(-1 0 0 1 151.763 29.5591)" fill="white"/>
<circle cx="1.79144" cy="1.79144" r="1.79144" transform="matrix(-1 0 0 1 165.198 47.4731)" fill="white"/>
<circle cx="1.79144" cy="1.79144" r="1.79144" transform="matrix(-1 0 0 1 185.8 51.9517)" fill="white"/>
<circle cx="1.79144" cy="1.79144" r="1.79144" transform="matrix(-1 0 0 1 139.223 20.6016)" fill="white"/>
<circle cx="1.79144" cy="1.79144" r="1.79144" transform="matrix(-1 0 0 1 33.5283 81.5107)" fill="white"/>
<circle cx="1.79144" cy="1.79144" r="1.79144" transform="matrix(-1 0 0 1 132.057 51.9517)" fill="white"/>
<circle cx="1.79144" cy="1.79144" r="1.79144" transform="matrix(-1 0 0 1 191.174 68.9707)" fill="white"/>
<circle cx="1.79144" cy="1.79144" r="1.79144" transform="matrix(-1 0 0 1 185.8 58.2217)" fill="white"/>
<circle cx="1.79144" cy="1.79144" r="1.79144" transform="matrix(-1 0 0 1 210.88 85.0938)" fill="white"/>
<circle cx="1.79144" cy="1.79144" r="1.79144" transform="matrix(-1 0 0 1 158.929 77.9277)" fill="white"/>
<circle cx="1.79144" cy="1.79144" r="1.79144" transform="matrix(-1 0 0 1 185.8 89.5718)" fill="white"/>
<circle cx="1.79144" cy="1.79144" r="1.79144" transform="matrix(-1 0 0 1 91.75 85.9888)" fill="white"/>
<circle cx="1.79144" cy="1.79144" r="1.79144" transform="matrix(-1 0 0 1 70.2524 103.903)" fill="white"/>
<circle cx="1.79144" cy="1.79144" r="1.79144" transform="matrix(-1 0 0 1 125.787 91.3633)" fill="white"/>
<circle cx="1.79144" cy="1.79144" r="1.79144" transform="matrix(-1 0 0 1 39.7983 107.486)" fill="white"/>
<circle cx="1.79144" cy="1.79144" r="1.79144" transform="matrix(-1 0 0 1 24.5708 123.609)" fill="white"/>
<circle cx="1.79144" cy="1.79144" r="1.79144" transform="matrix(-1 0 0 1 56.8164 158.542)" fill="white"/>
<circle cx="1.79144" cy="1.79144" r="1.79144" transform="matrix(-1 0 0 1 96.2285 159.438)" fill="white"/>
<circle cx="1.79144" cy="1.79144" r="1.79144" transform="matrix(-1 0 0 1 24.5708 148.689)" fill="white"/>
<circle cx="1.79144" cy="1.79144" r="1.79144" transform="matrix(-1 0 0 1 215.359 113.756)" fill="white"/>
<circle cx="1.79144" cy="1.79144" r="1.79144" transform="matrix(-1 0 0 1 222.524 77.0322)" fill="white"/>
<circle cx="1.79144" cy="1.79144" r="1.79144" transform="matrix(-1 0 0 1 199.236 136.149)" fill="white"/>
<circle cx="1.79144" cy="1.79144" r="1.79144" transform="matrix(-1 0 0 1 187.592 132.566)" fill="white"/>
<circle cx="1.79144" cy="1.79144" r="1.79144" transform="matrix(-1 0 0 1 151.763 146.002)" fill="white"/>
<circle cx="1.79144" cy="1.79144" r="1.79144" transform="matrix(-1 0 0 1 154.45 136.149)" fill="white"/>
<circle cx="1.79144" cy="1.79144" r="1.79144" transform="matrix(-1 0 0 1 241.335 167.5)" fill="white"/>
<path d="M220.733 168.395C220.733 169.384 221.535 170.186 222.524 170.186C223.514 170.186 224.316 169.384 224.316 168.395C224.316 167.406 223.514 166.604 222.524 166.604C221.535 166.604 220.733 167.406 220.733 168.395Z" fill="white"/>
<path d="M189.383 180.039C189.383 181.029 190.185 181.831 191.174 181.831C192.164 181.831 192.966 181.029 192.966 180.039C192.966 179.05 192.164 178.248 191.174 178.248C190.185 178.248 189.383 179.05 189.383 180.039Z" fill="white"/>
<path d="M267.311 290.213C267.311 291.202 268.113 292.004 269.102 292.004C270.092 292.004 270.894 291.202 270.894 290.213C270.894 289.223 270.092 288.421 269.102 288.421C268.113 288.421 267.311 289.223 267.311 290.213Z" fill="white"/>
<path d="M304.931 353.809C304.931 354.798 305.733 355.6 306.722 355.6C307.712 355.6 308.514 354.798 308.514 353.809C308.514 352.82 307.712 352.018 306.722 352.018C305.733 352.018 304.931 352.82 304.931 353.809Z" fill="white"/>
<path d="M328.22 403.969C328.22 404.959 329.022 405.761 330.011 405.761C331.001 405.761 331.803 404.959 331.803 403.969C331.803 402.98 331.001 402.178 330.011 402.178C329.022 402.178 328.22 402.98 328.22 403.969Z" fill="white"/>
<path d="M334.489 491.749C334.489 492.739 335.291 493.541 336.281 493.541C337.27 493.541 338.072 492.739 338.072 491.749C338.072 490.76 337.27 489.958 336.281 489.958C335.291 489.958 334.489 490.76 334.489 491.749Z" fill="white"/>
<path d="M227.899 241.844C227.899 242.834 228.701 243.636 229.69 243.636C230.68 243.636 231.482 242.834 231.482 241.844C231.482 240.855 230.68 240.053 229.69 240.053C228.701 240.053 227.899 240.855 227.899 241.844Z" fill="white"/>
<path d="M237.752 223.93C237.752 224.919 238.554 225.721 239.544 225.721C240.533 225.721 241.335 224.919 241.335 223.93C241.335 222.94 240.533 222.138 239.544 222.138C238.554 222.138 237.752 222.94 237.752 223.93Z" fill="white"/>
<path d="M245.814 281.256C245.814 282.245 246.616 283.047 247.605 283.047C248.594 283.047 249.396 282.245 249.396 281.256C249.396 280.266 248.594 279.464 247.605 279.464C246.616 279.464 245.814 280.266 245.814 281.256Z" fill="white"/>
<path d="M252.084 307.232C252.084 308.221 252.886 309.023 253.875 309.023C254.864 309.023 255.667 308.221 255.667 307.232C255.667 306.242 254.864 305.44 253.875 305.44C252.886 305.44 252.084 306.242 252.084 307.232Z" fill="white"/>
<path d="M254.771 323.354C254.771 324.344 255.573 325.146 256.562 325.146C257.551 325.146 258.354 324.344 258.354 323.354C258.354 322.365 257.551 321.563 256.562 321.563C255.573 321.563 254.771 322.365 254.771 323.354Z" fill="white"/>
<path d="M287.912 366.349C287.912 367.338 288.714 368.14 289.704 368.14C290.693 368.14 291.495 367.338 291.495 366.349C291.495 365.36 290.693 364.558 289.704 364.558C288.714 364.558 287.912 365.36 287.912 366.349Z" fill="white"/>
<path d="M307.618 412.031C307.618 413.02 308.42 413.822 309.41 413.822C310.399 413.822 311.201 413.02 311.201 412.031C311.201 411.041 310.399 410.239 309.41 410.239C308.42 410.239 307.618 411.041 307.618 412.031Z" fill="white"/>
<path d="M312.097 473.835C312.097 474.825 312.899 475.627 313.888 475.627C314.878 475.627 315.68 474.825 315.68 473.835C315.68 472.846 314.878 472.044 313.888 472.044C312.899 472.044 312.097 472.846 312.097 473.835Z" fill="white"/>
<path d="M312.992 478.314C312.992 479.303 313.794 480.105 314.784 480.105C315.773 480.105 316.575 479.303 316.575 478.314C316.575 477.325 315.773 476.522 314.784 476.522C313.794 476.522 312.992 477.325 312.992 478.314Z" fill="white"/>
<path d="M294.182 523.1C294.182 524.089 294.984 524.891 295.974 524.891C296.963 524.891 297.765 524.089 297.765 523.1C297.765 522.111 296.963 521.309 295.974 521.309C294.984 521.309 294.182 522.111 294.182 523.1Z" fill="white"/>
<circle cx="1.79144" cy="1.79144" r="1.79144" transform="matrix(-1 0 0 1 268.207 203.328)" fill="white"/>
<circle cx="1.79144" cy="1.79144" r="1.79144" transform="matrix(-1 0 0 1 278.059 241.844)" fill="white"/>
<circle cx="1.79144" cy="1.79144" r="1.79144" transform="matrix(-1 0 0 1 284.329 274.09)" fill="white"/>
<path d="M279.851 304.545C279.851 305.534 280.653 306.336 281.642 306.336C282.632 306.336 283.434 305.534 283.434 304.545C283.434 303.555 282.632 302.753 281.642 302.753C280.653 302.753 279.851 303.555 279.851 304.545Z" fill="white"/>
<path d="M280.746 335.894C280.746 336.884 281.548 337.686 282.538 337.686C283.527 337.686 284.329 336.884 284.329 335.894C284.329 334.905 283.527 334.103 282.538 334.103C281.548 334.103 280.746 334.905 280.746 335.894Z" fill="white"/>
<path d="M270.893 367.245C270.893 368.234 271.695 369.036 272.685 369.036C273.674 369.036 274.476 368.234 274.476 367.245C274.476 366.256 273.674 365.454 272.685 365.454C271.695 365.454 270.893 366.256 270.893 367.245Z" fill="white"/>
<circle cx="1.79144" cy="1.79144" r="1.79144" transform="matrix(-1 0 0 1 173.26 67.1792)" fill="white"/>
<circle cx="1.79144" cy="1.79144" r="1.79144" transform="matrix(-1 0 0 1 178.634 76.1362)" fill="white"/>
<circle cx="1.79144" cy="1.79144" r="1.79144" transform="matrix(-1 0 0 1 209.089 76.1362)" fill="white"/>
<circle cx="1.79144" cy="1.79144" r="1.79144" transform="matrix(-1 0 0 1 148.18 64.4917)" fill="white"/>
<circle cx="1.79144" cy="1.79144" r="1.79144" transform="matrix(-1 0 0 1 111.456 71.6577)" fill="white"/>
<circle cx="1.79144" cy="1.79144" r="1.79144" transform="matrix(-1 0 0 1 98.02 76.1362)" fill="white"/>
<circle cx="1.79144" cy="1.79144" r="1.79144" transform="matrix(-1 0 0 1 70.2524 85.9888)" fill="white"/>
<circle cx="1.79144" cy="1.79144" r="1.79144" transform="matrix(-1 0 0 1 39.7983 90.4673)" fill="white"/>
<circle cx="1.79144" cy="1.79144" r="1.79144" transform="matrix(-1 0 0 1 164.303 104.799)" fill="white"/>
<circle cx="1.79144" cy="1.79144" r="1.79144" transform="matrix(-1 0 0 1 154.45 94.9463)" fill="white"/>
<circle cx="1.79144" cy="1.79144" r="1.79144" transform="matrix(-1 0 0 1 119.517 109.278)" fill="white"/>
<circle cx="1.79144" cy="1.79144" r="1.79144" transform="matrix(-1 0 0 1 107.873 131.671)" fill="white"/>
<circle cx="1.79144" cy="1.79144" r="1.79144" transform="matrix(-1 0 0 1 183.113 113.756)" fill="white"/>
<circle cx="1.79144" cy="1.79144" r="1.79144" transform="matrix(-1 0 0 1 192.07 103.903)" fill="white"/>
<circle cx="1.79144" cy="1.79144" r="1.79144" transform="matrix(-1 0 0 1 169.677 99.4248)" fill="white"/>
<circle cx="1.79144" cy="1.79144" r="1.79144" transform="matrix(-1 0 0 1 81.001 110.173)" fill="white"/>
<circle cx="1.79144" cy="1.79144" r="1.79144" transform="matrix(-1 0 0 1 91.75 140.627)" fill="white"/>
<circle cx="1.79144" cy="1.79144" r="1.79144" transform="matrix(-1 0 0 1 107.873 171.978)" fill="white"/>
<circle cx="1.79144" cy="1.79144" r="1.79144" transform="matrix(-1 0 0 1 70.2524 119.131)" fill="white"/>
<circle cx="1.79144" cy="1.79144" r="1.79144" transform="matrix(-1 0 0 1 74.731 141.524)" fill="white"/>
<circle cx="1.79144" cy="1.79144" r="1.79144" transform="matrix(-1 0 0 1 70.2524 131.671)" fill="white"/>
<circle cx="1.79144" cy="1.79144" r="1.79144" transform="matrix(-1 0 0 1 52.3379 117.339)" fill="white"/>
<circle cx="1.79144" cy="1.79144" r="1.79144" transform="matrix(-1 0 0 1 33.5283 132.566)" fill="white"/>
<circle cx="1.79144" cy="1.79144" r="1.79144" transform="matrix(-1 0 0 1 29.9453 141.524)" fill="white"/>
<circle cx="1.79144" cy="1.79144" r="1.79144" transform="matrix(-1 0 0 1 43.3813 163.917)" fill="white"/>
<circle cx="1.79144" cy="1.79144" r="1.79144" transform="matrix(-1 0 0 1 39.7983 170.187)" fill="white"/>
<circle cx="1.79144" cy="1.79144" r="1.79144" transform="matrix(-1 0 0 1 71.1479 188.101)" fill="white"/>
<circle cx="1.79144" cy="1.79144" r="1.79144" transform="matrix(-1 0 0 1 103.395 229.304)" fill="white"/>
<circle cx="1.79144" cy="1.79144" r="1.79144" transform="matrix(-1 0 0 1 119.517 297.379)" fill="white"/>
<circle cx="1.79144" cy="1.79144" r="1.79144" transform="matrix(-1 0 0 1 125.787 341.269)" fill="white"/>
<circle cx="1.79144" cy="1.79144" r="1.79144" transform="matrix(-1 0 0 1 100.707 194.371)" fill="white"/>
<circle cx="1.79144" cy="1.79144" r="1.79144" transform="matrix(-1 0 0 1 115.038 243.636)" fill="white"/>
<circle cx="1.79144" cy="1.79144" r="1.79144" transform="matrix(-1 0 0 1 127.579 288.421)" fill="white"/>
<circle cx="1.79144" cy="1.79144" r="1.79144" transform="matrix(-1 0 0 1 150.867 338.582)" fill="white"/>
<circle cx="1.79144" cy="1.79144" r="1.79144" transform="matrix(-1 0 0 1 176.843 388.742)" fill="white"/>
<circle cx="1.79144" cy="1.79144" r="1.79144" transform="matrix(-1 0 0 1 176.843 444.276)" fill="white"/>
<circle cx="1.79144" cy="1.79144" r="1.79144" transform="matrix(-1 0 0 1 158.929 490.854)" fill="white"/>
<circle cx="1.79144" cy="1.79144" r="1.79144" transform="matrix(-1 0 0 1 125.787 382.472)" fill="white"/>
<circle cx="1.79144" cy="1.79144" r="1.79144" transform="matrix(-1 0 0 1 116.83 423.675)" fill="white"/>
<circle cx="1.79144" cy="1.79144" r="1.79144" transform="matrix(-1 0 0 1 118.621 460.399)" fill="white"/>
<circle cx="1.79144" cy="1.79144" r="1.79144" transform="matrix(-1 0 0 1 127.579 163.021)" fill="white"/>
<circle cx="1.79144" cy="1.79144" r="1.79144" transform="matrix(-1 0 0 1 139.223 176.457)" fill="white"/>
<circle cx="1.79144" cy="1.79144" r="1.79144" transform="matrix(-1 0 0 1 150.867 186.31)" fill="white"/>
<circle cx="1.79144" cy="1.79144" r="1.79144" transform="matrix(-1 0 0 1 118.621 181.831)" fill="white"/>
<circle cx="1.79144" cy="1.79144" r="1.79144" transform="matrix(-1 0 0 1 114.143 208.702)" fill="white"/>
<circle cx="1.79144" cy="1.79144" r="1.79144" transform="matrix(-1 0 0 1 136.536 204.224)" fill="white"/>
<circle cx="1.79144" cy="1.79144" r="1.79144" transform="matrix(-1 0 0 1 145.493 199.745)" fill="white"/>
<circle cx="1.79144" cy="1.79144" r="1.79144" transform="matrix(-1 0 0 1 167.886 240.053)" fill="white"/>
<circle cx="1.79144" cy="1.79144" r="1.79144" transform="matrix(-1 0 0 1 176.843 240.053)" fill="white"/>
<path d="M117.726 228.408C117.726 229.398 118.528 230.2 119.517 230.2C120.507 230.2 121.309 229.398 121.309 228.408C121.309 227.419 120.507 226.617 119.517 226.617C118.528 226.617 117.726 227.419 117.726 228.408Z" fill="white"/>
<circle cx="1.79144" cy="1.79144" r="1.79144" transform="matrix(-1 0 0 1 132.057 237.366)" fill="white"/>
<circle cx="1.79144" cy="1.79144" r="1.79144" transform="matrix(-1 0 0 1 145.493 258.863)" fill="white"/>
<circle cx="1.79144" cy="1.79144" r="1.79144" transform="matrix(-1 0 0 1 119.517 148.689)" fill="white"/>
<circle cx="1.79144" cy="1.79144" r="1.79144" transform="matrix(-1 0 0 1 105.185 109.278)" fill="white"/>
<circle cx="1.79144" cy="1.79144" r="1.79144" transform="matrix(-1 0 0 1 150.867 163.917)" fill="white"/>
<circle cx="1.79144" cy="1.79144" r="1.79144" transform="matrix(-1 0 0 1 169.677 206.015)" fill="white"/>
<path d="M202.819 211.39C202.819 212.379 203.621 213.181 204.61 213.181C205.6 213.181 206.402 212.379 206.402 211.39C206.402 210.4 205.6 209.598 204.61 209.598C203.621 209.598 202.819 210.4 202.819 211.39Z" fill="white"/>
<path d="M182.217 226.617C182.217 227.607 183.019 228.409 184.009 228.409C184.998 228.409 185.8 227.607 185.8 226.617C185.8 225.628 184.998 224.826 184.009 224.826C183.019 224.826 182.217 225.628 182.217 226.617Z" fill="white"/>
<path d="M168.781 217.66C168.781 218.649 169.583 219.451 170.573 219.451C171.562 219.451 172.364 218.649 172.364 217.66C172.364 216.67 171.562 215.868 170.573 215.868C169.583 215.868 168.781 216.67 168.781 217.66Z" fill="white"/>
<path d="M187.591 240.053C187.591 241.042 188.393 241.844 189.383 241.844C190.372 241.844 191.174 241.042 191.174 240.053C191.174 239.063 190.372 238.261 189.383 238.261C188.393 238.261 187.591 239.063 187.591 240.053Z" fill="white"/>
<path d="M182.217 251.697C182.217 252.687 183.019 253.489 184.009 253.489C184.998 253.489 185.8 252.687 185.8 251.697C185.8 250.708 184.998 249.906 184.009 249.906C183.019 249.906 182.217 250.708 182.217 251.697Z" fill="white"/>
<path d="M164.303 249.01C164.303 250 165.105 250.802 166.094 250.802C167.084 250.802 167.886 250 167.886 249.01C167.886 248.021 167.084 247.219 166.094 247.219C165.105 247.219 164.303 248.021 164.303 249.01Z" fill="white"/>
<path d="M157.137 263.341C157.137 264.331 157.939 265.133 158.928 265.133C159.918 265.133 160.72 264.331 160.72 263.341C160.72 262.352 159.918 261.55 158.928 261.55C157.939 261.55 157.137 262.352 157.137 263.341Z" fill="white"/>
<path d="M165.198 269.611C165.198 270.601 166 271.403 166.99 271.403C167.979 271.403 168.781 270.601 168.781 269.611C168.781 268.622 167.979 267.82 166.99 267.82C166 267.82 165.198 268.622 165.198 269.611Z" fill="white"/>
<path d="M165.198 284.839C165.198 285.828 166 286.63 166.99 286.63C167.979 286.63 168.781 285.828 168.781 284.839C168.781 283.849 167.979 283.047 166.99 283.047C166 283.047 165.198 283.849 165.198 284.839Z" fill="white"/>
<path d="M179.53 291.109C179.53 292.098 180.332 292.9 181.321 292.9C182.311 292.9 183.113 292.098 183.113 291.109C183.113 290.119 182.311 289.317 181.321 289.317C180.332 289.317 179.53 290.119 179.53 291.109Z" fill="white"/>
<path d="M178.634 298.274C178.634 299.264 179.436 300.066 180.426 300.066C181.415 300.066 182.217 299.264 182.217 298.274C182.217 297.285 181.415 296.483 180.426 296.483C179.436 296.483 178.634 297.285 178.634 298.274Z" fill="white"/>
<path d="M161.615 291.109C161.615 292.098 162.417 292.9 163.407 292.9C164.396 292.9 165.198 292.098 165.198 291.109C165.198 290.119 164.396 289.317 163.407 289.317C162.417 289.317 161.615 290.119 161.615 291.109Z" fill="white"/>
<path d="M188.487 291.109C188.487 292.098 189.289 292.9 190.279 292.9C191.268 292.9 192.07 292.098 192.07 291.109C192.07 290.119 191.268 289.317 190.279 289.317C189.289 289.317 188.487 290.119 188.487 291.109Z" fill="white"/>
<path d="M156.242 289.317C156.242 290.307 157.044 291.109 158.033 291.109C159.023 291.109 159.825 290.307 159.825 289.317C159.825 288.328 159.023 287.526 158.033 287.526C157.044 287.526 156.242 288.328 156.242 289.317Z" fill="white"/>
<path d="M165.198 307.232C165.198 308.221 166 309.023 166.99 309.023C167.979 309.023 168.781 308.221 168.781 307.232C168.781 306.242 167.979 305.44 166.99 305.44C166 305.44 165.198 306.242 165.198 307.232Z" fill="white"/>
<path d="M166.094 321.563C166.094 322.552 166.896 323.354 167.886 323.354C168.875 323.354 169.677 322.552 169.677 321.563C169.677 320.574 168.875 319.771 167.886 319.771C166.896 319.771 166.094 320.574 166.094 321.563Z" fill="white"/>
<path d="M147.284 301.857C147.284 302.847 148.086 303.649 149.076 303.649C150.065 303.649 150.867 302.847 150.867 301.857C150.867 300.868 150.065 300.066 149.076 300.066C148.086 300.066 147.284 300.868 147.284 301.857Z" fill="white"/>
<path d="M167.886 335.894C167.886 336.884 168.688 337.686 169.677 337.686C170.667 337.686 171.469 336.884 171.469 335.894C171.469 334.905 170.667 334.103 169.677 334.103C168.688 334.103 167.886 334.905 167.886 335.894Z" fill="white"/>
<path d="M173.26 322.458C173.26 323.448 174.062 324.25 175.051 324.25C176.041 324.25 176.843 323.448 176.843 322.458C176.843 321.469 176.041 320.667 175.051 320.667C174.062 320.667 173.26 321.469 173.26 322.458Z" fill="white"/>
<path d="M179.53 334.103C179.53 335.092 180.332 335.894 181.321 335.894C182.311 335.894 183.113 335.092 183.113 334.103C183.113 333.114 182.311 332.312 181.321 332.312C180.332 332.312 179.53 333.114 179.53 334.103Z" fill="white"/>
<path d="M184.009 326.937C184.009 327.927 184.811 328.729 185.8 328.729C186.79 328.729 187.592 327.927 187.592 326.937C187.592 325.948 186.79 325.146 185.8 325.146C184.811 325.146 184.009 325.948 184.009 326.937Z" fill="white"/>
<path d="M187.591 353.809C187.591 354.798 188.393 355.6 189.383 355.6C190.372 355.6 191.174 354.798 191.174 353.809C191.174 352.82 190.372 352.018 189.383 352.018C188.393 352.018 187.591 352.82 187.591 353.809Z" fill="white"/>
<path d="M192.966 353.809C192.966 354.798 193.768 355.6 194.757 355.6C195.747 355.6 196.549 354.798 196.549 353.809C196.549 352.82 195.747 352.018 194.757 352.018C193.768 352.018 192.966 352.82 192.966 353.809Z" fill="white"/>
<path d="M195.653 349.331C195.653 350.32 196.456 351.122 197.445 351.122C198.434 351.122 199.236 350.32 199.236 349.331C199.236 348.341 198.434 347.539 197.445 347.539C196.456 347.539 195.653 348.341 195.653 349.331Z" fill="white"/>
<path d="M200.132 343.06C200.132 344.05 200.934 344.852 201.923 344.852C202.913 344.852 203.715 344.05 203.715 343.06C203.715 342.071 202.913 341.269 201.923 341.269C200.934 341.269 200.132 342.071 200.132 343.06Z" fill="white"/>
<path d="M202.819 334.103C202.819 335.092 203.621 335.894 204.61 335.894C205.6 335.894 206.402 335.092 206.402 334.103C206.402 333.114 205.6 332.312 204.61 332.312C203.621 332.312 202.819 333.114 202.819 334.103Z" fill="white"/>
<path d="M218.942 348.435C218.942 349.424 219.744 350.226 220.733 350.226C221.722 350.226 222.524 349.424 222.524 348.435C222.524 347.445 221.722 346.643 220.733 346.643C219.744 346.643 218.942 347.445 218.942 348.435Z" fill="white"/>
<path d="M214.463 356.497C214.463 357.486 215.265 358.288 216.254 358.288C217.244 358.288 218.046 357.486 218.046 356.497C218.046 355.507 217.244 354.705 216.254 354.705C215.265 354.705 214.463 355.507 214.463 356.497Z" fill="white"/>
<path d="M206.402 361.871C206.402 362.86 207.204 363.662 208.193 363.662C209.183 363.662 209.985 362.86 209.985 361.871C209.985 360.881 209.183 360.079 208.193 360.079C207.204 360.079 206.402 360.881 206.402 361.871Z" fill="white"/>
<path d="M220.733 373.515C220.733 374.504 221.535 375.306 222.524 375.306C223.514 375.306 224.316 374.504 224.316 373.515C224.316 372.525 223.514 371.723 222.524 371.723C221.535 371.723 220.733 372.525 220.733 373.515Z" fill="white"/>
<path d="M214.463 380.681C214.463 381.67 215.265 382.472 216.254 382.472C217.244 382.472 218.046 381.67 218.046 380.681C218.046 379.691 217.244 378.889 216.254 378.889C215.265 378.889 214.463 379.691 214.463 380.681Z" fill="white"/>
<path d="M197.444 398.595C197.444 399.585 198.247 400.387 199.236 400.387C200.225 400.387 201.027 399.585 201.027 398.595C201.027 397.606 200.225 396.804 199.236 396.804C198.247 396.804 197.444 397.606 197.444 398.595Z" fill="white"/>
<path d="M184.009 379.785C184.009 380.774 184.811 381.576 185.8 381.576C186.79 381.576 187.592 380.774 187.592 379.785C187.592 378.795 186.79 377.993 185.8 377.993C184.811 377.993 184.009 378.795 184.009 379.785Z" fill="white"/>
<path d="M187.591 405.761C187.591 406.75 188.393 407.552 189.383 407.552C190.372 407.552 191.174 406.75 191.174 405.761C191.174 404.771 190.372 403.969 189.383 403.969C188.393 403.969 187.591 404.771 187.591 405.761Z" fill="white"/>
<path d="M191.174 412.927C191.174 413.916 191.977 414.718 192.966 414.718C193.955 414.718 194.757 413.916 194.757 412.927C194.757 411.937 193.955 411.135 192.966 411.135C191.977 411.135 191.174 411.937 191.174 412.927Z" fill="white"/>
<path d="M200.132 407.552C200.132 408.542 200.934 409.344 201.923 409.344C202.913 409.344 203.715 408.542 203.715 407.552C203.715 406.563 202.913 405.761 201.923 405.761C200.934 405.761 200.132 406.563 200.132 407.552Z" fill="white"/>
<path d="M206.402 412.031C206.402 413.02 207.204 413.822 208.193 413.822C209.183 413.822 209.985 413.02 209.985 412.031C209.985 411.041 209.183 410.239 208.193 410.239C207.204 410.239 206.402 411.041 206.402 412.031Z" fill="white"/>
<path d="M209.985 417.405C209.985 418.395 210.787 419.197 211.776 419.197C212.766 419.197 213.568 418.395 213.568 417.405C213.568 416.416 212.766 415.614 211.776 415.614C210.787 415.614 209.985 416.416 209.985 417.405Z" fill="white"/>
<path d="M201.027 430.841C201.027 431.831 201.83 432.633 202.819 432.633C203.808 432.633 204.61 431.831 204.61 430.841C204.61 429.852 203.808 429.05 202.819 429.05C201.83 429.05 201.027 429.852 201.027 430.841Z" fill="white"/>
<path d="M202.819 437.111C202.819 438.1 203.621 438.902 204.61 438.902C205.6 438.902 206.402 438.1 206.402 437.111C206.402 436.121 205.6 435.319 204.61 435.319C203.621 435.319 202.819 436.121 202.819 437.111Z" fill="white"/>
<path d="M214.463 428.153C214.463 429.143 215.265 429.945 216.254 429.945C217.244 429.945 218.046 429.143 218.046 428.153C218.046 427.164 217.244 426.362 216.254 426.362C215.265 426.362 214.463 427.164 214.463 428.153Z" fill="white"/>
<path d="M215.359 437.111C215.359 438.1 216.161 438.902 217.15 438.902C218.139 438.902 218.941 438.1 218.941 437.111C218.941 436.121 218.139 435.319 217.15 435.319C216.161 435.319 215.359 436.121 215.359 437.111Z" fill="white"/>
<path d="M218.046 412.031C218.046 413.02 218.848 413.822 219.837 413.822C220.827 413.822 221.629 413.02 221.629 412.031C221.629 411.041 220.827 410.239 219.837 410.239C218.848 410.239 218.046 411.041 218.046 412.031Z" fill="white"/>
<path d="M202.819 444.276C202.819 445.266 203.621 446.068 204.61 446.068C205.6 446.068 206.402 445.266 206.402 444.276C206.402 443.287 205.6 442.485 204.61 442.485C203.621 442.485 202.819 443.287 202.819 444.276Z" fill="white"/>
<path d="M196.549 463.982C196.549 464.972 197.351 465.774 198.34 465.774C199.33 465.774 200.132 464.972 200.132 463.982C200.132 462.993 199.33 462.191 198.34 462.191C197.351 462.191 196.549 462.993 196.549 463.982Z" fill="white"/>
<path d="M205.506 453.234C205.506 454.223 206.308 455.025 207.297 455.025C208.287 455.025 209.089 454.223 209.089 453.234C209.089 452.244 208.287 451.442 207.297 451.442C206.308 451.442 205.506 452.244 205.506 453.234Z" fill="white"/>
<path d="M204.61 466.67C204.61 467.659 205.413 468.461 206.402 468.461C207.391 468.461 208.193 467.659 208.193 466.67C208.193 465.68 207.391 464.878 206.402 464.878C205.413 464.878 204.61 465.68 204.61 466.67Z" fill="white"/>
<path d="M207.297 472.94C207.297 473.929 208.1 474.731 209.089 474.731C210.078 474.731 210.88 473.929 210.88 472.94C210.88 471.95 210.078 471.148 209.089 471.148C208.1 471.148 207.297 471.95 207.297 472.94Z" fill="white"/>
<path d="M220.733 455.025C220.733 456.015 221.535 456.817 222.524 456.817C223.514 456.817 224.316 456.015 224.316 455.025C224.316 454.036 223.514 453.234 222.524 453.234C221.535 453.234 220.733 454.036 220.733 455.025Z" fill="white"/>
<path d="M218.942 474.731C218.942 475.721 219.744 476.523 220.733 476.523C221.722 476.523 222.524 475.721 222.524 474.731C222.524 473.742 221.722 472.94 220.733 472.94C219.744 472.94 218.942 473.742 218.942 474.731Z" fill="white"/>
<path d="M193.862 483.688C193.862 484.677 194.664 485.479 195.653 485.479C196.643 485.479 197.445 484.677 197.445 483.688C197.445 482.699 196.643 481.896 195.653 481.896C194.664 481.896 193.862 482.699 193.862 483.688Z" fill="white"/>
<path d="M201.027 497.124C201.027 498.113 201.83 498.915 202.819 498.915C203.808 498.915 204.61 498.113 204.61 497.124C204.61 496.135 203.808 495.333 202.819 495.333C201.83 495.333 201.027 496.135 201.027 497.124Z" fill="white"/>
<path d="M192.07 489.958C192.07 490.947 192.872 491.749 193.862 491.749C194.851 491.749 195.653 490.947 195.653 489.958C195.653 488.969 194.851 488.167 193.862 488.167C192.872 488.167 192.07 488.969 192.07 489.958Z" fill="white"/>
<path d="M132.953 432.632C132.953 433.622 133.755 434.424 134.744 434.424C135.734 434.424 136.536 433.622 136.536 432.632C136.536 431.643 135.734 430.841 134.744 430.841C133.755 430.841 132.953 431.643 132.953 432.632Z" fill="white"/>
<path d="M128.474 432.632C128.474 433.622 129.276 434.424 130.266 434.424C131.255 434.424 132.057 433.622 132.057 432.632C132.057 431.643 131.255 430.841 130.266 430.841C129.276 430.841 128.474 431.643 128.474 432.632Z" fill="white"/>
<path d="M101.602 384.263C101.602 385.253 102.404 386.055 103.394 386.055C104.383 386.055 105.185 385.253 105.185 384.263C105.185 383.274 104.383 382.472 103.394 382.472C102.404 382.472 101.602 383.274 101.602 384.263Z" fill="white"/>
<path d="M90.8541 367.245C90.8541 368.234 91.6562 369.036 92.6456 369.036C93.635 369.036 94.437 368.234 94.437 367.245C94.437 366.256 93.635 365.454 92.6456 365.454C91.6562 365.454 90.8541 366.256 90.8541 367.245Z" fill="white"/>
<path d="M83.6881 330.52C83.6881 331.51 84.4902 332.312 85.4796 332.312C86.4689 332.312 87.271 331.51 87.271 330.52C87.271 329.531 86.4689 328.729 85.4796 328.729C84.4902 328.729 83.6881 329.531 83.6881 330.52Z" fill="white"/>
<path d="M72.9396 312.605C72.9396 313.595 73.7416 314.397 74.731 314.397C75.7204 314.397 76.5225 313.595 76.5225 312.605C76.5225 311.616 75.7204 310.814 74.731 310.814C73.7416 310.814 72.9396 311.616 72.9396 312.605Z" fill="white"/>
<path d="M72.0441 269.611C72.0441 270.601 72.8461 271.403 73.8355 271.403C74.8249 271.403 75.627 270.601 75.627 269.611C75.627 268.622 74.8249 267.82 73.8355 267.82C72.8461 267.82 72.0441 268.622 72.0441 269.611Z" fill="white"/>
<path d="M71.1481 214.973C71.1481 215.962 71.9501 216.764 72.9395 216.764C73.9289 216.764 74.731 215.962 74.731 214.973C74.731 213.983 73.9289 213.181 72.9395 213.181C71.9501 213.181 71.1481 213.983 71.1481 214.973Z" fill="white"/>
<path d="M77.4181 156.751C77.4181 157.74 78.2202 158.542 79.2095 158.542C80.1989 158.542 81.001 157.74 81.001 156.751C81.001 155.762 80.1989 154.959 79.2095 154.959C78.2202 154.959 77.4181 155.762 77.4181 156.751Z" fill="white"/>
<path d="M225.212 501.602C225.212 502.592 226.014 503.394 227.003 503.394C227.992 503.394 228.794 502.592 228.794 501.602C228.794 500.613 227.992 499.811 227.003 499.811C226.014 499.811 225.212 500.613 225.212 501.602Z" fill="white"/>
<path d="M223.42 487.271C223.42 488.26 224.222 489.062 225.211 489.062C226.201 489.062 227.003 488.26 227.003 487.271C227.003 486.282 226.201 485.479 225.211 485.479C224.222 485.479 223.42 486.282 223.42 487.271Z" fill="white"/>
<path d="M213.567 506.081C213.567 507.07 214.369 507.872 215.358 507.872C216.348 507.872 217.15 507.07 217.15 506.081C217.15 505.092 216.348 504.29 215.358 504.29C214.369 504.29 213.567 505.092 213.567 506.081Z" fill="white"/>
<path d="M237.752 518.622C237.752 519.611 238.554 520.413 239.544 520.413C240.533 520.413 241.335 519.611 241.335 518.622C241.335 517.632 240.533 516.83 239.544 516.83C238.554 516.83 237.752 517.632 237.752 518.622Z" fill="white"/>
<path d="M245.814 523.996C245.814 524.985 246.616 525.787 247.605 525.787C248.594 525.787 249.396 524.985 249.396 523.996C249.396 523.006 248.594 522.204 247.605 522.204C246.616 522.204 245.814 523.006 245.814 523.996Z" fill="white"/>
<path d="M229.691 531.162C229.691 532.151 230.493 532.953 231.482 532.953C232.471 532.953 233.273 532.151 233.273 531.162C233.273 530.172 232.471 529.37 231.482 529.37C230.493 529.37 229.691 530.172 229.691 531.162Z" fill="white"/>
<path d="M213.567 529.37C213.567 530.359 214.369 531.161 215.358 531.161C216.348 531.161 217.15 530.359 217.15 529.37C217.15 528.381 216.348 527.579 215.358 527.579C214.369 527.579 213.567 528.381 213.567 529.37Z" fill="white"/>
<path d="M207.297 527.579C207.297 528.568 208.1 529.37 209.089 529.37C210.078 529.37 210.88 528.568 210.88 527.579C210.88 526.589 210.078 525.787 209.089 525.787C208.1 525.787 207.297 526.589 207.297 527.579Z" fill="white"/>
<path d="M188.487 504.289C188.487 505.279 189.289 506.081 190.279 506.081C191.268 506.081 192.07 505.279 192.07 504.289C192.07 503.3 191.268 502.498 190.279 502.498C189.289 502.498 188.487 503.3 188.487 504.289Z" fill="white"/>
<path d="M192.966 509.664C192.966 510.653 193.768 511.455 194.757 511.455C195.747 511.455 196.549 510.653 196.549 509.664C196.549 508.675 195.747 507.873 194.757 507.873C193.768 507.873 192.966 508.675 192.966 509.664Z" fill="white"/>
<path d="M203.715 523.1C203.715 524.089 204.517 524.891 205.506 524.891C206.496 524.891 207.298 524.089 207.298 523.1C207.298 522.111 206.496 521.309 205.506 521.309C204.517 521.309 203.715 522.111 203.715 523.1Z" fill="white"/>
<path d="M246.709 547.284C246.709 548.273 247.511 549.076 248.501 549.076C249.49 549.076 250.292 548.273 250.292 547.284C250.292 546.295 249.49 545.493 248.501 545.493C247.511 545.493 246.709 546.295 246.709 547.284Z" fill="white"/>
<path d="M256.562 544.597C256.562 545.586 257.364 546.389 258.354 546.389C259.343 546.389 260.145 545.586 260.145 544.597C260.145 543.608 259.343 542.806 258.354 542.806C257.364 542.806 256.562 543.608 256.562 544.597Z" fill="white"/>
<path d="M253.875 575.052C253.875 576.041 254.677 576.843 255.667 576.843C256.656 576.843 257.458 576.041 257.458 575.052C257.458 574.062 256.656 573.26 255.667 573.26C254.677 573.26 253.875 574.062 253.875 575.052Z" fill="white"/>
<path d="M258.354 580.426C258.354 581.416 259.156 582.218 260.145 582.218C261.134 582.218 261.937 581.416 261.937 580.426C261.937 579.437 261.134 578.635 260.145 578.635C259.156 578.635 258.354 579.437 258.354 580.426Z" fill="white"/>
<path d="M269.998 591.175C269.998 592.164 270.8 592.966 271.79 592.966C272.779 592.966 273.581 592.164 273.581 591.175C273.581 590.185 272.779 589.383 271.79 589.383C270.8 589.383 269.998 590.185 269.998 591.175Z" fill="white"/>
<path d="M277.163 595.653C277.163 596.642 277.965 597.444 278.955 597.444C279.944 597.444 280.746 596.642 280.746 595.653C280.746 594.663 279.944 593.861 278.955 593.861C277.965 593.861 277.163 594.663 277.163 595.653Z" fill="white"/>
<path d="M272.685 581.322C272.685 582.311 273.487 583.113 274.476 583.113C275.466 583.113 276.268 582.311 276.268 581.322C276.268 580.332 275.466 579.53 274.476 579.53C273.487 579.53 272.685 580.332 272.685 581.322Z" fill="white"/>
<path d="M281.642 569.677C281.642 570.667 282.444 571.469 283.434 571.469C284.423 571.469 285.225 570.667 285.225 569.677C285.225 568.688 284.423 567.886 283.434 567.886C282.444 567.886 281.642 568.688 281.642 569.677Z" fill="white"/>
<path d="M267.311 557.137C267.311 558.127 268.113 558.929 269.102 558.929C270.092 558.929 270.894 558.127 270.894 557.137C270.894 556.148 270.092 555.346 269.102 555.346C268.113 555.346 267.311 556.148 267.311 557.137Z" fill="white"/>
<path d="M299.557 578.635C299.557 579.624 300.359 580.426 301.348 580.426C302.338 580.426 303.14 579.624 303.14 578.635C303.14 577.645 302.338 576.843 301.348 576.843C300.359 576.843 299.557 577.645 299.557 578.635Z" fill="white"/>
<path d="M307.618 576.843C307.618 577.833 308.42 578.635 309.41 578.635C310.399 578.635 311.201 577.833 311.201 576.843C311.201 575.854 310.399 575.052 309.41 575.052C308.42 575.052 307.618 575.854 307.618 576.843Z" fill="white"/>
<path d="M307.618 609.089C307.618 610.078 308.42 610.88 309.41 610.88C310.399 610.88 311.201 610.078 311.201 609.089C311.201 608.099 310.399 607.297 309.41 607.297C308.42 607.297 307.618 608.099 307.618 609.089Z" fill="white"/>
<path d="M287.016 600.132C287.016 601.122 287.818 601.924 288.808 601.924C289.797 601.924 290.599 601.122 290.599 600.132C290.599 599.143 289.797 598.341 288.808 598.341C287.818 598.341 287.016 599.143 287.016 600.132Z" fill="white"/>
<path d="M312.097 609.089C312.097 610.078 312.899 610.88 313.888 610.88C314.878 610.88 315.68 610.078 315.68 609.089C315.68 608.099 314.878 607.297 313.888 607.297C312.899 607.297 312.097 608.099 312.097 609.089Z" fill="white"/>
<path d="M332.698 604.61C332.698 605.6 333.5 606.402 334.489 606.402C335.479 606.402 336.281 605.6 336.281 604.61C336.281 603.621 335.479 602.819 334.489 602.819C333.5 602.819 332.698 603.621 332.698 604.61Z" fill="white"/>
<path d="M342.551 598.34C342.551 599.33 343.353 600.132 344.342 600.132C345.332 600.132 346.134 599.33 346.134 598.34C346.134 597.351 345.332 596.549 344.342 596.549C343.353 596.549 342.551 597.351 342.551 598.34Z" fill="white"/>
<path d="M351.508 605.506C351.508 606.495 352.31 607.297 353.3 607.297C354.289 607.297 355.091 606.495 355.091 605.506C355.091 604.516 354.289 603.714 353.3 603.714C352.31 603.714 351.508 604.516 351.508 605.506Z" fill="white"/>
<path d="M348.821 586.696C348.821 587.686 349.623 588.488 350.612 588.488C351.602 588.488 352.404 587.686 352.404 586.696C352.404 585.707 351.602 584.905 350.612 584.905C349.623 584.905 348.821 585.707 348.821 586.696Z" fill="white"/>
<path d="M357.778 598.34C357.778 599.33 358.581 600.132 359.57 600.132C360.559 600.132 361.361 599.33 361.361 598.34C361.361 597.351 360.559 596.549 359.57 596.549C358.581 596.549 357.778 597.351 357.778 598.34Z" fill="white"/>
<path d="M330.906 575.052C330.906 576.041 331.708 576.843 332.698 576.843C333.687 576.843 334.489 576.041 334.489 575.052C334.489 574.062 333.687 573.26 332.698 573.26C331.708 573.26 330.906 574.062 330.906 575.052Z" fill="white"/>
<path d="M328.22 555.346C328.22 556.335 329.022 557.137 330.011 557.137C331.001 557.137 331.803 556.335 331.803 555.346C331.803 554.356 331.001 553.554 330.011 553.554C329.022 553.554 328.22 554.356 328.22 555.346Z" fill="white"/>
<path d="M312.097 537.431C312.097 538.42 312.899 539.223 313.888 539.223C314.878 539.223 315.68 538.42 315.68 537.431C315.68 536.442 314.878 535.64 313.888 535.64C312.899 535.64 312.097 536.442 312.097 537.431Z" fill="white"/>
<path d="M282.538 522.204C282.538 523.193 283.34 523.995 284.329 523.995C285.319 523.995 286.121 523.193 286.121 522.204C286.121 521.215 285.319 520.413 284.329 520.413C283.34 520.413 282.538 521.215 282.538 522.204Z" fill="white"/>
<path d="M312.097 545.493C312.097 546.482 312.899 547.284 313.888 547.284C314.878 547.284 315.68 546.482 315.68 545.493C315.68 544.503 314.878 543.701 313.888 543.701C312.899 543.701 312.097 544.503 312.097 545.493Z" fill="white"/>
<path d="M259.249 531.162C259.249 532.151 260.051 532.953 261.041 532.953C262.03 532.953 262.832 532.151 262.832 531.162C262.832 530.172 262.03 529.37 261.041 529.37C260.051 529.37 259.249 530.172 259.249 531.162Z" fill="white"/>
<path d="M282.538 517.726C282.538 518.715 283.34 519.517 284.329 519.517C285.319 519.517 286.121 518.715 286.121 517.726C286.121 516.736 285.319 515.934 284.329 515.934C283.34 515.934 282.538 516.736 282.538 517.726Z" fill="white"/>
<path d="M256.562 506.081C256.562 507.07 257.364 507.872 258.354 507.872C259.343 507.872 260.145 507.07 260.145 506.081C260.145 505.092 259.343 504.29 258.354 504.29C257.364 504.29 256.562 505.092 256.562 506.081Z" fill="white"/>
<path d="M282.538 504.289C282.538 505.279 283.34 506.081 284.329 506.081C285.319 506.081 286.121 505.279 286.121 504.289C286.121 503.3 285.319 502.498 284.329 502.498C283.34 502.498 282.538 503.3 282.538 504.289Z" fill="white"/>
<path d="M282.538 495.332C282.538 496.322 283.34 497.124 284.329 497.124C285.319 497.124 286.121 496.322 286.121 495.332C286.121 494.343 285.319 493.541 284.329 493.541C283.34 493.541 282.538 494.343 282.538 495.332Z" fill="white"/>
<path d="M243.126 483.688C243.126 484.677 243.928 485.479 244.918 485.479C245.907 485.479 246.709 484.677 246.709 483.688C246.709 482.699 245.907 481.896 244.918 481.896C243.928 481.896 243.126 482.699 243.126 483.688Z" fill="white"/>
<path d="M252.084 491.749C252.084 492.739 252.886 493.541 253.875 493.541C254.864 493.541 255.667 492.739 255.667 491.749C255.667 490.76 254.864 489.958 253.875 489.958C252.886 489.958 252.084 490.76 252.084 491.749Z" fill="white"/>
<path d="M246.709 481.897C246.709 482.886 247.511 483.688 248.501 483.688C249.49 483.688 250.292 482.886 250.292 481.897C250.292 480.908 249.49 480.105 248.501 480.105C247.511 480.105 246.709 480.908 246.709 481.897Z" fill="white"/>
<path d="M247.605 472.94C247.605 473.929 248.407 474.731 249.397 474.731C250.386 474.731 251.188 473.929 251.188 472.94C251.188 471.95 250.386 471.148 249.397 471.148C248.407 471.148 247.605 471.95 247.605 472.94Z" fill="white"/>
<path d="M246.709 463.982C246.709 464.972 247.511 465.774 248.501 465.774C249.49 465.774 250.292 464.972 250.292 463.982C250.292 462.993 249.49 462.191 248.501 462.191C247.511 462.191 246.709 462.993 246.709 463.982Z" fill="white"/>
<path d="M229.691 463.982C229.691 464.972 230.493 465.774 231.482 465.774C232.471 465.774 233.273 464.972 233.273 463.982C233.273 462.993 232.471 462.191 231.482 462.191C230.493 462.191 229.691 462.993 229.691 463.982Z" fill="white"/>
<path d="M228.795 457.712C228.795 458.702 229.597 459.504 230.586 459.504C231.575 459.504 232.377 458.702 232.377 457.712C232.377 456.723 231.575 455.921 230.586 455.921C229.597 455.921 228.795 456.723 228.795 457.712Z" fill="white"/>
<path d="M226.108 418.301C226.108 419.29 226.91 420.092 227.899 420.092C228.888 420.092 229.69 419.29 229.69 418.301C229.69 417.311 228.888 416.509 227.899 416.509C226.91 416.509 226.108 417.311 226.108 418.301Z" fill="white"/>
<path d="M236.856 424.571C236.856 425.561 237.658 426.363 238.648 426.363C239.637 426.363 240.439 425.561 240.439 424.571C240.439 423.582 239.637 422.78 238.648 422.78C237.658 422.78 236.856 423.582 236.856 424.571Z" fill="white"/>
<path d="M225.212 395.012C225.212 396.002 226.014 396.804 227.003 396.804C227.992 396.804 228.794 396.002 228.794 395.012C228.794 394.023 227.992 393.221 227.003 393.221C226.014 393.221 225.212 394.023 225.212 395.012Z" fill="white"/>
<path d="M368.527 599.236C368.527 600.225 369.329 601.027 370.318 601.027C371.308 601.027 372.11 600.225 372.11 599.236C372.11 598.246 371.308 597.444 370.318 597.444C369.329 597.444 368.527 598.246 368.527 599.236Z" fill="white"/>
<path d="M367.631 605.506C367.631 606.495 368.434 607.297 369.423 607.297C370.412 607.297 371.214 606.495 371.214 605.506C371.214 604.516 370.412 603.714 369.423 603.714C368.434 603.714 367.631 604.516 367.631 605.506Z" fill="white"/>
<path d="M377.485 624.316C377.485 625.306 378.287 626.108 379.276 626.108C380.265 626.108 381.067 625.306 381.067 624.316C381.067 623.327 380.265 622.525 379.276 622.525C378.287 622.525 377.485 623.327 377.485 624.316Z" fill="white"/>
<path d="M368.527 621.629C368.527 622.618 369.329 623.42 370.318 623.42C371.308 623.42 372.11 622.618 372.11 621.629C372.11 620.639 371.308 619.837 370.318 619.837C369.329 619.837 368.527 620.639 368.527 621.629Z" fill="white"/>
<path d="M363.152 616.255C363.152 617.244 363.955 618.046 364.944 618.046C365.933 618.046 366.735 617.244 366.735 616.255C366.735 615.265 365.933 614.463 364.944 614.463C363.955 614.463 363.152 615.265 363.152 616.255Z" fill="white"/>
<path d="M376.589 638.648C376.589 639.637 377.391 640.439 378.38 640.439C379.369 640.439 380.171 639.637 380.171 638.648C380.171 637.658 379.369 636.856 378.38 636.856C377.391 636.856 376.589 637.658 376.589 638.648Z" fill="white"/>
<path d="M398.981 622.525C398.981 623.514 399.783 624.316 400.773 624.316C401.762 624.316 402.564 623.514 402.564 622.525C402.564 621.535 401.762 620.733 400.773 620.733C399.783 620.733 398.981 621.535 398.981 622.525Z" fill="white"/>
<path d="M399.877 632.378C399.877 633.367 400.679 634.169 401.669 634.169C402.658 634.169 403.46 633.367 403.46 632.378C403.46 631.388 402.658 630.586 401.669 630.586C400.679 630.586 399.877 631.388 399.877 632.378Z" fill="white"/>
<path d="M403.46 641.335C403.46 642.324 404.262 643.126 405.252 643.126C406.241 643.126 407.043 642.324 407.043 641.335C407.043 640.346 406.241 639.543 405.252 639.543C404.262 639.543 403.46 640.346 403.46 641.335Z" fill="white"/>
<path d="M412.417 654.771C412.417 655.76 413.219 656.562 414.209 656.562C415.198 656.562 416 655.76 416 654.771C416 653.782 415.198 652.979 414.209 652.979C413.219 652.979 412.417 653.782 412.417 654.771Z" fill="white"/>
<path d="M406.147 685.225C406.147 686.214 406.949 687.016 407.939 687.016C408.928 687.016 409.73 686.214 409.73 685.225C409.73 684.236 408.928 683.434 407.939 683.434C406.949 683.434 406.147 684.236 406.147 685.225Z" fill="white"/>
<path d="M391.816 709.41C391.816 710.399 392.618 711.201 393.607 711.201C394.596 711.201 395.398 710.399 395.398 709.41C395.398 708.42 394.596 707.618 393.607 707.618C392.618 707.618 391.816 708.42 391.816 709.41Z" fill="white"/>
<path d="M387.337 735.385C387.337 736.375 388.139 737.177 389.128 737.177C390.117 737.177 390.919 736.375 390.919 735.385C390.919 734.396 390.117 733.594 389.128 733.594C388.139 733.594 387.337 734.396 387.337 735.385Z" fill="white"/>
<path d="M219.838 438.006C219.838 438.996 220.64 439.798 221.629 439.798C222.618 439.798 223.42 438.996 223.42 438.006C223.42 437.017 222.618 436.215 221.629 436.215C220.64 436.215 219.838 437.017 219.838 438.006Z" fill="white"/>
<path d="M206.402 326.041C206.402 327.031 207.204 327.833 208.193 327.833C209.183 327.833 209.985 327.031 209.985 326.041C209.985 325.052 209.183 324.25 208.193 324.25C207.204 324.25 206.402 325.052 206.402 326.041Z" fill="white"/>
<path d="M210.881 329.624C210.881 330.614 211.683 331.416 212.672 331.416C213.661 331.416 214.463 330.614 214.463 329.624C214.463 328.635 213.661 327.833 212.672 327.833C211.683 327.833 210.881 328.635 210.881 329.624Z" fill="white"/>
<path d="M196.549 321.563C196.549 322.552 197.351 323.354 198.34 323.354C199.33 323.354 200.132 322.552 200.132 321.563C200.132 320.574 199.33 319.771 198.34 319.771C197.351 319.771 196.549 320.574 196.549 321.563Z" fill="white"/>
<path d="M216.255 308.127C216.255 309.117 217.057 309.919 218.046 309.919C219.035 309.919 219.837 309.117 219.837 308.127C219.837 307.138 219.035 306.336 218.046 306.336C217.057 306.336 216.255 307.138 216.255 308.127Z" fill="white"/>
<path d="M206.402 299.17C206.402 300.16 207.204 300.962 208.193 300.962C209.183 300.962 209.985 300.16 209.985 299.17C209.985 298.181 209.183 297.379 208.193 297.379C207.204 297.379 206.402 298.181 206.402 299.17Z" fill="white"/>
<path d="M211.776 317.98C211.776 318.969 212.579 319.771 213.568 319.771C214.557 319.771 215.359 318.969 215.359 317.98C215.359 316.991 214.557 316.188 213.568 316.188C212.579 316.188 211.776 316.991 211.776 317.98Z" fill="white"/>
<path d="M238.648 334.999C238.648 335.988 239.45 336.79 240.439 336.79C241.428 336.79 242.23 335.988 242.23 334.999C242.23 334.01 241.428 333.208 240.439 333.208C239.45 333.208 238.648 334.01 238.648 334.999Z" fill="white"/>
<path d="M241.335 353.809C241.335 354.798 242.137 355.6 243.126 355.6C244.115 355.6 244.917 354.798 244.917 353.809C244.917 352.82 244.115 352.018 243.126 352.018C242.137 352.018 241.335 352.82 241.335 353.809Z" fill="white"/>
<path d="M219.838 338.581C219.838 339.571 220.64 340.373 221.629 340.373C222.618 340.373 223.42 339.571 223.42 338.581C223.42 337.592 222.618 336.79 221.629 336.79C220.64 336.79 219.838 337.592 219.838 338.581Z" fill="white"/>
<path d="M229.691 348.435C229.691 349.424 230.493 350.226 231.482 350.226C232.471 350.226 233.273 349.424 233.273 348.435C233.273 347.445 232.471 346.643 231.482 346.643C230.493 346.643 229.691 347.445 229.691 348.435Z" fill="white"/>
<path d="M227.899 353.809C227.899 354.798 228.701 355.6 229.69 355.6C230.68 355.6 231.482 354.798 231.482 353.809C231.482 352.82 230.68 352.018 229.69 352.018C228.701 352.018 227.899 352.82 227.899 353.809Z" fill="white"/>
<path d="M242.231 373.515C242.231 374.504 243.033 375.306 244.022 375.306C245.011 375.306 245.813 374.504 245.813 373.515C245.813 372.525 245.011 371.723 244.022 371.723C243.033 371.723 242.231 372.525 242.231 373.515Z" fill="white"/>
<path d="M236.856 385.159C236.856 386.148 237.658 386.951 238.648 386.951C239.637 386.951 240.439 386.148 240.439 385.159C240.439 384.17 239.637 383.368 238.648 383.368C237.658 383.368 236.856 384.17 236.856 385.159Z" fill="white"/>
<path d="M249.396 393.221C249.396 394.21 250.198 395.012 251.188 395.012C252.177 395.012 252.979 394.21 252.979 393.221C252.979 392.231 252.177 391.429 251.188 391.429C250.198 391.429 249.396 392.231 249.396 393.221Z" fill="white"/>
<path d="M252.084 407.552C252.084 408.542 252.886 409.344 253.875 409.344C254.864 409.344 255.667 408.542 255.667 407.552C255.667 406.563 254.864 405.761 253.875 405.761C252.886 405.761 252.084 406.563 252.084 407.552Z" fill="white"/>
<path d="M267.311 426.362C267.311 427.351 268.113 428.153 269.102 428.153C270.092 428.153 270.894 427.351 270.894 426.362C270.894 425.372 270.092 424.57 269.102 424.57C268.113 424.57 267.311 425.372 267.311 426.362Z" fill="white"/>
<path d="M275.372 446.964C275.372 447.953 276.174 448.755 277.163 448.755C278.153 448.755 278.955 447.953 278.955 446.964C278.955 445.974 278.153 445.172 277.163 445.172C276.174 445.172 275.372 445.974 275.372 446.964Z" fill="white"/>
<path d="M278.955 466.67C278.955 467.659 279.757 468.461 280.746 468.461C281.736 468.461 282.538 467.659 282.538 466.67C282.538 465.68 281.736 464.878 280.746 464.878C279.757 464.878 278.955 465.68 278.955 466.67Z" fill="white"/>
<path d="M253.875 417.405C253.875 418.395 254.677 419.197 255.667 419.197C256.656 419.197 257.458 418.395 257.458 417.405C257.458 416.416 256.656 415.614 255.667 415.614C254.677 415.614 253.875 416.416 253.875 417.405Z" fill="white"/>
<path d="M177.739 344.852C177.739 345.841 178.541 346.643 179.53 346.643C180.52 346.643 181.322 345.841 181.322 344.852C181.322 343.863 180.52 343.061 179.53 343.061C178.541 343.061 177.739 343.863 177.739 344.852Z" fill="white"/>
<circle cx="1.79144" cy="1.79144" r="1.79144" transform="matrix(-1 0 0 1 163.407 185.414)" fill="white"/>
<circle cx="1.79144" cy="1.79144" r="1.79144" transform="matrix(-1 0 0 1 143.702 126.296)" fill="white"/>
</g>
</svg>
