<svg width="329" height="650" viewBox="0 0 329 650" fill="none" xmlns="http://www.w3.org/2000/svg">
<g opacity="0.5">
<path d="M123.914 47.3276L114.448 31.5517" stroke="white" stroke-width="0.5"/>
<path d="M107.687 43.3837L114.448 31.5518L95.5172 27.6078" stroke="white" stroke-width="0.5"/>
<path d="M83.6854 19.7198L87.6294 9.46552" stroke="white" stroke-width="0.5"/>
<path d="M87.6294 9.46552L75.0087 18.1422" stroke="white" stroke-width="0.5"/>
<path d="M67.9096 15.7759L87.6294 9.46552" stroke="white" stroke-width="0.5"/>
<path d="M51.3447 2.36639L43.4568 41.806" stroke="white" stroke-width="0.5"/>
<path d="M22.9482 41.806L51.3447 2.36639" stroke="white" stroke-width="0.5"/>
<path d="M0.862061 39.4397L-4.65949 32.3405" stroke="white" stroke-width="0.5"/>
<path d="M-18.0689 60.737L1.65088 39.4396" stroke="white" stroke-width="0.5"/>
<path d="M22.1594 78.0905L-4.65954 96.2328" stroke="white" stroke-width="0.5"/>
<path d="M59.2327 63.8922L46.612 68.625" stroke="white" stroke-width="0.5"/>
<path d="M113.66 60.7371L118.392 68.625" stroke="white" stroke-width="0.5"/>
<path d="M113.659 60.7371L90.7844 59.1595" stroke="white" stroke-width="0.5"/>
<path d="M123.125 52.8491L128.646 63.1034" stroke="white" stroke-width="0.5"/>
<path d="M150.733 103.332L196.483 181.422" stroke="white" stroke-width="0.5"/>
<path d="M196.483 181.422L211.47 243.737" stroke="white" stroke-width="0.5"/>
<path d="M211.47 243.737V296.586" stroke="white" stroke-width="0.5"/>
<path d="M211.47 296.586L202.793 322.616" stroke="white" stroke-width="0.5"/>
<path d="M202.793 322.616L211.47 268.978" stroke="white" stroke-width="0.5"/>
<path d="M211.47 268.978L206.737 213.763" stroke="white" stroke-width="0.5"/>
<path d="M206.737 213.763L196.483 181.422" stroke="white" stroke-width="0.5"/>
<path d="M196.483 181.422L172.819 147.504" stroke="white" stroke-width="0.5"/>
<path d="M172.819 147.504L150.733 103.332" stroke="white" stroke-width="0.5"/>
<path d="M126.28 119.897L114.448 139.616" stroke="white" stroke-width="0.5"/>
<path d="M114.448 139.616L127.069 175.901" stroke="white" stroke-width="0.5"/>
<path d="M127.069 175.901L150.733 228.75" stroke="white" stroke-width="0.5"/>
<path d="M150.733 228.75L154.677 270.556" stroke="white" stroke-width="0.5"/>
<path d="M154.677 270.556L135.746 308.418" stroke="white" stroke-width="0.5"/>
<path d="M135.746 308.418L127.069 333.659" stroke="white" stroke-width="0.5"/>
<path d="M127.069 333.659L138.901 350.224" stroke="white" stroke-width="0.5"/>
<path d="M138.901 350.224L156.254 362.845" stroke="white" stroke-width="0.5"/>
<path d="M156.254 362.845L158.621 385.72" stroke="white" stroke-width="0.5"/>
<path d="M158.621 385.72L144.422 410.172" stroke="white" stroke-width="0.5"/>
<path d="M144.422 410.172L147.578 415.694" stroke="white" stroke-width="0.5"/>
<path d="M147.578 415.694L134.168 426.737" stroke="white" stroke-width="0.5"/>
<path d="M134.168 426.737L130.224 444.091" stroke="white" stroke-width="0.5"/>
<path d="M130.224 444.091L146.789 464.994" stroke="white" stroke-width="0.5"/>
<path d="M146.789 464.599L166.509 467.754" stroke="white" stroke-width="0.5"/>
<path d="M166.509 467.754L182.284 482.741" stroke="white" stroke-width="0.5"/>
<path d="M181.496 482.347L187.806 506.405" stroke="white" stroke-width="0.5"/>
<path d="M187.806 506.405L201.216 521.392" stroke="white" stroke-width="0.5"/>
<path d="M201.215 521.392L235.134 536.379" stroke="white" stroke-width="0.5"/>
<path d="M235.134 536.379L258.797 531.647" stroke="white" stroke-width="0.5"/>
<path d="M258.797 531.647L275.362 533.224" stroke="white" stroke-width="0.5"/>
<path d="M275.362 533.224L288.771 547.422" stroke="white" stroke-width="0.5"/>
<path d="M288.771 547.422L295.871 563.198" stroke="white" stroke-width="0.5"/>
<path d="M295.871 563.198L320.323 564.776" stroke="white" stroke-width="0.5"/>
<path d="M320.323 564.776L327.422 575.819" stroke="white" stroke-width="0.5"/>
<path d="M327.422 575.819L321.901 603.427" stroke="white" stroke-width="0.5"/>
<path d="M309.28 624.724L327.422 575.819" stroke="white" stroke-width="0.5"/>
<path d="M327.422 575.819L315.59 548.211" stroke="white" stroke-width="0.5"/>
<path d="M315.591 548.211L289.56 527.703" stroke="white" stroke-width="0.5"/>
<path d="M288.771 527.703L255.642 491.418" stroke="white" stroke-width="0.5"/>
<path d="M255.642 491.418L239.078 472.487" stroke="white" stroke-width="0.5"/>
<path d="M239.078 472.487L213.047 459.078" stroke="white" stroke-width="0.5"/>
<path d="M213.047 459.078V436.203" stroke="white" stroke-width="0.5"/>
<path d="M213.047 436.203L182.284 409.384" stroke="white" stroke-width="0.5"/>
<path d="M182.284 409.384L172.819 374.282L163.748 368.366" stroke="white" stroke-width="0.5"/>
<path d="M172.819 374.677L163.353 347.069" stroke="white" stroke-width="0.5"/>
<path d="M163.354 347.069L158.621 329.716" stroke="white" stroke-width="0.5"/>
<path d="M158.621 329.716L152.31 334.448" stroke="white" stroke-width="0.5"/>
<path d="M152.31 334.448L156.254 347.069" stroke="white" stroke-width="0.5"/>
<path d="M156.254 347.069L163.354 367.578" stroke="white" stroke-width="0.5"/>
<path d="M152.31 334.448L138.112 350.224" stroke="white" stroke-width="0.5"/>
<path d="M152.31 334.448L146.789 317.884" stroke="white" stroke-width="0.5"/>
<path d="M146.789 317.884L134.957 312.362" stroke="white" stroke-width="0.5"/>
<path d="M158.621 329.716L156.254 306.841" stroke="white" stroke-width="0.5"/>
<path d="M156.254 306.841L143.634 294.22" stroke="white" stroke-width="0.5"/>
<path d="M158.621 329.716L152.31 313.151" stroke="white" stroke-width="0.5"/>
<path d="M152.31 313.151L139.69 301.319" stroke="white" stroke-width="0.5"/>
<path d="M138.901 350.224L130.224 358.112" stroke="white" stroke-width="0.5"/>
<path d="M130.224 358.112L134.957 370.733" stroke="white" stroke-width="0.5"/>
<path d="M134.957 370.733L144.422 385.72" stroke="white" stroke-width="0.5"/>
<path d="M144.422 384.142V410.172" stroke="white" stroke-width="0.5"/>
<path d="M142.056 379.41L149.944 366.789" stroke="white" stroke-width="0.5"/>
<path d="M135.746 371.522L146.789 362.056" stroke="white" stroke-width="0.5"/>
<path d="M131.802 363.634L140.479 358.112" stroke="white" stroke-width="0.5"/>
<path d="M144.422 391.241L153.888 375.466" stroke="white" stroke-width="0.5"/>
<path d="M144.422 399.129L154.677 384.142" stroke="white" stroke-width="0.5"/>
<path d="M144.422 410.172L138.112 407.017" stroke="white" stroke-width="0.5"/>
<path d="M138.112 407.017L144.422 390.453" stroke="white" stroke-width="0.5"/>
<path d="M147.578 415.694L160.198 399.129" stroke="white" stroke-width="0.5"/>
<path d="M134.168 448.034L156.254 418.06" stroke="white" stroke-width="0.5"/>
<path d="M143.634 460.655L161.776 428.315" stroke="white" stroke-width="0.5"/>
<path d="M152.31 466.177L162.565 442.513" stroke="white" stroke-width="0.5"/>
<path d="M172.03 432.259L174.396 455.922" stroke="white" stroke-width="0.5"/>
<path d="M172.03 432.259L166.509 407.017" stroke="white" stroke-width="0.5"/>
<path d="M163.353 367.578L166.509 407.017" stroke="white" stroke-width="0.5"/>
<path d="M166.509 403.073L182.284 415.694" stroke="white" stroke-width="0.5"/>
<path d="M180.707 422.793L166.509 407.806" stroke="white" stroke-width="0.5"/>
<path d="M213.047 436.203L179.129 426.737" stroke="white" stroke-width="0.5"/>
<path d="M213.047 443.302L186.228 432.259" stroke="white" stroke-width="0.5"/>
<path d="M213.047 455.134L190.172 445.668" stroke="white" stroke-width="0.5"/>
<path d="M172.03 432.259L191.75 466.966" stroke="white" stroke-width="0.5"/>
<path d="M191.75 466.966L239.078 479.981" stroke="white" stroke-width="0.5"/>
<path d="M191.75 466.966L235.134 507.983" stroke="white" stroke-width="0.5"/>
<path d="M235.528 508.377L265.896 526.914" stroke="white" stroke-width="0.5"/>
<path d="M275.362 533.224L255.642 506.405" stroke="white" stroke-width="0.5"/>
<path d="M255.642 506.405L253.276 489.052" stroke="white" stroke-width="0.5"/>
<path d="M321.901 603.427L309.28 624.724" stroke="white" stroke-width="0.5"/>
<path d="M309.28 624.724L305.336 647.599" stroke="white" stroke-width="0.5"/>
<path d="M22.9482 41.806L-4.65952 32.3405" stroke="white" stroke-width="0.5"/>
<path d="M155.466 70.9914L150.733 103.332" stroke="white" stroke-width="0.5"/>
<path d="M150.733 103.332L146.789 76.5129" stroke="white" stroke-width="0.5"/>
<path d="M146.789 76.8284L122.468 81.2457L99.4612 71.7802" stroke="white" stroke-width="0.5"/>
<path d="M99.4612 71.7802L70.9244 83.612L41.0905 78.3534" stroke="white" stroke-width="0.5"/>
<path d="M41.0906 78.8793L20.8299 93.134L-4.65942 96.2328" stroke="white" stroke-width="0.5"/>
<path d="M41.0906 78.8793L22.1595 78.0905" stroke="white" stroke-width="0.5"/>
<path d="M41.0905 78.0905L47.4009 68.625" stroke="white" stroke-width="0.5"/>
<path d="M99.4612 71.7802L90.7845 59.1595" stroke="white" stroke-width="0.5"/>
<path d="M39.513 78.8793L57.6553 64.681" stroke="white" stroke-width="0.5"/>
<path d="M98.6724 71.7802C99.2173 71.2605 108.891 64.2016 113.659 60.7371" stroke="white" stroke-width="0.5"/>
<path d="M98.6725 70.9914L118.392 68.625" stroke="white" stroke-width="0.5"/>
<path d="M146.789 78.0905L144.422 68.625" stroke="white" stroke-width="0.5"/>
<path d="M150.733 103.332L134.957 121.474" stroke="white" stroke-width="0.5"/>
<path d="M126.28 119.897L146.789 76.5129" stroke="white" stroke-width="0.5"/>
<path d="M126.28 119.897L135.746 123.052" stroke="white" stroke-width="0.5"/>
<path d="M126.28 119.897L96.3061 123.052" stroke="white" stroke-width="0.5"/>
<path d="M126.28 119.897L94.7285 131.728" stroke="white" stroke-width="0.5"/>
<path d="M10.3276 142.772L45.8232 143.56" stroke="white" stroke-width="0.5"/>
<path d="M10.3276 142.772L-18.8577 132.517" stroke="white" stroke-width="0.5"/>
<path d="M155.466 70.9914L138.112 51.2715" stroke="white" stroke-width="0.5"/>
<path d="M138.112 51.2715L114.448 31.5517" stroke="white" stroke-width="0.5"/>
<path d="M114.448 31.5517L87.6293 9.46552" stroke="white" stroke-width="0.5"/>
<path d="M87.6294 9.46553L51.3449 2.36639" stroke="white" stroke-width="0.5"/>
<path d="M51.3447 2.36639L-5.44838 32.3405" stroke="white" stroke-width="0.5"/>
<path d="M-10.9699 74.9353L35.5688 55.2155" stroke="white" stroke-width="0.5"/>
<path d="M35.5689 55.2155L75.7974 48.1164" stroke="white" stroke-width="0.5"/>
<path d="M75.7974 48.1164L122.336 52.8492" stroke="white" stroke-width="0.5"/>
<path d="M122.336 52.8491L155.466 70.2026" stroke="white" stroke-width="0.5"/>
<path d="M65.543 407.017L63.1766 374.677" stroke="white" stroke-width="0.5"/>
<path d="M63.1768 374.677L71.0647 338.392" stroke="white" stroke-width="0.5"/>
<path d="M71.0647 338.392L67.1207 262.668" stroke="white" stroke-width="0.5"/>
<path d="M67.1206 262.668L52.9223 203.509" stroke="white" stroke-width="0.5"/>
<path d="M51.3447 203.509L24.5258 167.224" stroke="white" stroke-width="0.5"/>
<path d="M24.5259 167.224L-0.715499 146.716" stroke="white" stroke-width="0.5"/>
<path d="M-10.181 119.108L9.53882 142.772" stroke="white" stroke-width="0.5"/>
<path d="M111.293 88.3448L146.789 76.5129" stroke="white" stroke-width="0.5"/>
<path d="M111.293 88.3448L123.914 80.4569" stroke="white" stroke-width="0.5"/>
<path d="M111.293 88.3448C111.819 88.3448 124.659 90.9742 131.013 92.2888" stroke="white" stroke-width="0.5"/>
<path d="M-3.08195 151.448L52.9224 203.509" stroke="white" stroke-width="0.5"/>
<path d="M63.1768 262.668L52.9224 203.509" stroke="white" stroke-width="0.5"/>
<path d="M63.1768 262.668L71.8535 301.319" stroke="white" stroke-width="0.5"/>
<path d="M71.8535 301.319V338.392" stroke="white" stroke-width="0.5"/>
<path d="M7.17236 104.121L-4.65953 96.2328" stroke="white" stroke-width="0.5"/>
<path d="M7.17236 104.121L22.1594 119.108" stroke="white" stroke-width="0.5"/>
<path d="M22.1596 119.108L26.1035 126.996" stroke="white" stroke-width="0.5"/>
<path d="M26.1034 126.996L45.8232 143.56" stroke="white" stroke-width="0.5"/>
<path d="M22.1594 107.276L-5.44834 96.2328" stroke="white" stroke-width="0.5"/>
<path d="M22.1594 108.065L45.0344 143.56" stroke="white" stroke-width="0.5"/>
<path d="M41.8794 124.629L33.2027 99.3879" stroke="white" stroke-width="0.5"/>
<path d="M41.8793 124.629L55.2888 153.026" stroke="white" stroke-width="0.5"/>
<path d="M55.2888 153.026L45.0345 143.56" stroke="white" stroke-width="0.5"/>
<path d="M53.7112 97.0215L55.2888 117.53" stroke="white" stroke-width="0.5"/>
<path d="M55.2888 117.53L61.5991 185.366" stroke="white" stroke-width="0.5"/>
<path d="M105.772 95.444L123.125 102.543" stroke="white" stroke-width="0.5"/>
<path d="M122.336 102.543L126.28 119.897" stroke="white" stroke-width="0.5"/>
<path d="M96.3062 85.1896L86.8406 112.797" stroke="white" stroke-width="0.5"/>
<path d="M86.8406 112.797L93.9397 146.716" stroke="white" stroke-width="0.5"/>
<path d="M93.9395 146.716L112.082 183.789" stroke="white" stroke-width="0.5"/>
<path d="M104.194 164.069L111.293 182.211" stroke="white" stroke-width="0.5"/>
<path d="M94.7285 165.647L117.604 212.974" stroke="white" stroke-width="0.5"/>
<path d="M82.8965 156.97L89.9956 177.478" stroke="white" stroke-width="0.5"/>
<path d="M89.9957 177.478L109.716 212.185" stroke="white" stroke-width="0.5"/>
<path d="M73.4312 145.138L66.332 98.5991" stroke="white" stroke-width="0.5"/>
<path d="M67.1206 132.517L66.3318 98.5991" stroke="white" stroke-width="0.5"/>
<path d="M81.3189 181.422L89.2068 230.328" stroke="white" stroke-width="0.5"/>
<path d="M89.2068 229.539L77.3749 211.397" stroke="white" stroke-width="0.5"/>
<path d="M77.375 211.397L69.4871 157.759" stroke="white" stroke-width="0.5"/>
<path d="M69.4871 157.759L67.1207 131.728" stroke="white" stroke-width="0.5"/>
<path d="M65.543 161.703L67.1206 201.142" stroke="white" stroke-width="0.5"/>
<path d="M67.1206 201.142L61.5991 185.366" stroke="white" stroke-width="0.5"/>
<path d="M67.1207 201.142L77.375 211.397" stroke="white" stroke-width="0.5"/>
<path d="M55.2888 153.026L61.5991 185.366" stroke="white" stroke-width="0.5"/>
<path d="M9.53889 142.772L49.7673 172.746" stroke="white" stroke-width="0.5"/>
<path d="M49.7673 172.746L63.1768 216.918" stroke="white" stroke-width="0.5"/>
<path d="M63.1768 216.918L73.4312 256.358" stroke="white" stroke-width="0.5"/>
<path d="M73.4311 256.358L94.7285 300.53" stroke="white" stroke-width="0.5"/>
<path d="M94.7285 300.53L116.026 345.491" stroke="white" stroke-width="0.5"/>
<path d="M116.026 344.703V392.03" stroke="white" stroke-width="0.5"/>
<path d="M116.026 392.03L100.25 434.625" stroke="white" stroke-width="0.5"/>
<path d="M134.957 123.052L158.621 148.293" stroke="white" stroke-width="0.5"/>
<path d="M158.621 148.293L174.396 197.198" stroke="white" stroke-width="0.5"/>
<path d="M174.397 197.198L179.918 247.681" stroke="white" stroke-width="0.5"/>
<path d="M179.918 247.681L188.595 284.754" stroke="white" stroke-width="0.5"/>
<path d="M188.595 284.754L218.569 323.405" stroke="white" stroke-width="0.5"/>
<path d="M218.569 323.405L235.922 362.056" stroke="white" stroke-width="0.5"/>
<path d="M235.922 362.056L239.078 418.06" stroke="white" stroke-width="0.5"/>
<path d="M239.078 418.06L224.091 459.866" stroke="white" stroke-width="0.5"/>
<path d="M224.091 459.866L240.655 420.427" stroke="white" stroke-width="0.5"/>
<path d="M240.655 420.427L235.923 362.056" stroke="white" stroke-width="0.5"/>
<path d="M218.569 323.405L184.651 268.978" stroke="white" stroke-width="0.5"/>
<path d="M126.28 119.897L131.802 157.759" stroke="white" stroke-width="0.5"/>
<path d="M131.802 157.759L164.931 212.974" stroke="white" stroke-width="0.5"/>
<path d="M164.931 212.974L199.638 254.78" stroke="white" stroke-width="0.5"/>
<path d="M199.638 254.78L232.767 312.362" stroke="white" stroke-width="0.5"/>
<path d="M233.162 312.756L254.854 355.746" stroke="white" stroke-width="0.5"/>
<path d="M254.853 355.746L259.586 432.259" stroke="white" stroke-width="0.5"/>
<path d="M275.362 533.224L271.418 515.871" stroke="white" stroke-width="0.5"/>
<path d="M284.828 543.478L279.306 526.914" stroke="white" stroke-width="0.5"/>
<path d="M296.659 563.198V549.789" stroke="white" stroke-width="0.5"/>
<path d="M296.659 549.789L288.771 533.224" stroke="white" stroke-width="0.5"/>
<path d="M316.379 556.099L289.56 527.703" stroke="white" stroke-width="0.5"/>
<path d="M239.078 535.591L228.823 510.349" stroke="white" stroke-width="0.5"/>
<path d="M216.991 528.491L212.259 502.461" stroke="white" stroke-width="0.5"/>
<path d="M208.315 524.547L204.371 511.138" stroke="white" stroke-width="0.5"/>
<path d="M202.004 520.998L199.638 490.629" stroke="white" stroke-width="0.5"/>
<path d="M191.75 511.138L190.172 479.586" stroke="white" stroke-width="0.5"/>
<path d="M181.496 481.953L180.707 462.233" stroke="white" stroke-width="0.5"/>
<path d="M152.31 446.457L114.448 416.483" stroke="white" stroke-width="0.5"/>
<path d="M114.448 416.483L81.3189 380.987" stroke="white" stroke-width="0.5"/>
<path d="M81.3188 380.987L53.7111 339.181" stroke="white" stroke-width="0.5"/>
<path d="M53.7112 339.181L37.9353 290.276" stroke="white" stroke-width="0.5"/>
<path d="M37.1465 290.276L26.8922 237.427" stroke="white" stroke-width="0.5"/>
<path d="M26.8922 237.427L30.0474 191.677" stroke="white" stroke-width="0.5"/>
<path d="M30.0475 191.677L33.2026 138.828" stroke="white" stroke-width="0.5"/>
<path d="M26.1035 126.996L33.2026 138.828" stroke="white" stroke-width="0.5"/>
<path d="M33.2026 138.828L26.1035 189.31" stroke="white" stroke-width="0.5"/>
<path d="M26.1033 189.31L28.4697 237.427" stroke="white" stroke-width="0.5"/>
<path d="M28.4698 237.427L29.2585 274.5" stroke="white" stroke-width="0.5"/>
<path d="M29.2586 274.5L37.1465 290.276" stroke="white" stroke-width="0.5"/>
<path d="M37.1467 290.276L43.457 322.616" stroke="white" stroke-width="0.5"/>
<path d="M43.4569 322.616L53.7112 339.181" stroke="white" stroke-width="0.5"/>
<path d="M53.7112 339.181L77.375 380.987" stroke="white" stroke-width="0.5"/>
<path d="M77.375 380.987L114.448 416.483" stroke="white" stroke-width="0.5"/>
<path d="M127.069 333.659L128.646 310.784" stroke="white" stroke-width="0.5"/>
<path d="M128.646 310.784L134.957 312.362" stroke="white" stroke-width="0.5"/>
<path d="M128.646 310.784L112.082 296.586" stroke="white" stroke-width="0.5"/>
<path d="M121.547 304.474L116.026 284.754" stroke="white" stroke-width="0.5"/>
<path d="M112.082 296.586L110.504 268.978" stroke="white" stroke-width="0.5"/>
<path d="M110.504 268.978L102.616 253.991" stroke="white" stroke-width="0.5"/>
<path d="M110.504 282.388L94.7285 265.034" stroke="white" stroke-width="0.5"/>
<path d="M94.7285 265.034L89.207 230.328" stroke="white" stroke-width="0.5"/>
<path d="M89.207 229.539L109.716 250.836" stroke="white" stroke-width="0.5"/>
<path d="M109.716 250.836L123.125 257.147" stroke="white" stroke-width="0.5"/>
<path d="M123.125 257.147C123.649 256.515 143.852 255.306 153.888 254.78" stroke="white" stroke-width="0.5"/>
<path d="M153.888 254.78L164.142 265.034" stroke="white" stroke-width="0.5"/>
<path d="M153.888 254.78L131.802 237.427" stroke="white" stroke-width="0.5"/>
<path d="M131.802 237.427L123.914 221.651" stroke="white" stroke-width="0.5"/>
<path d="M123.914 221.651L109.716 237.427" stroke="white" stroke-width="0.5"/>
<path d="M109.716 237.427V250.836" stroke="white" stroke-width="0.5"/>
<path d="M123.914 221.651L130.224 211.397" stroke="white" stroke-width="0.5"/>
<path d="M130.224 211.397L125.491 200.353" stroke="white" stroke-width="0.5"/>
<path d="M130.224 211.397L113.659 192.466" stroke="white" stroke-width="0.5"/>
<path d="M110.504 237.427L108.138 218.496" stroke="white" stroke-width="0.5"/>
<path d="M109.716 250.836L102.616 231.905" stroke="white" stroke-width="0.5"/>
<path d="M121.547 261.091L107.349 256.358" stroke="white" stroke-width="0.5"/>
<path d="M150.733 289.487L138.112 282.388" stroke="white" stroke-width="0.5"/>
<path d="M138.112 282.388L123.125 257.147" stroke="white" stroke-width="0.5"/>
<path d="M131.802 257.147L176.763 312.362" stroke="white" stroke-width="0.5"/>
<path d="M176.763 312.362L174.397 295.009" stroke="white" stroke-width="0.5"/>
<path d="M174.396 295.009L146 262.668" stroke="white" stroke-width="0.5"/>
<path d="M176.763 312.362L177.552 328.532" stroke="white" stroke-width="0.5"/>
<path d="M178.341 330.504L166.509 306.052" stroke="white" stroke-width="0.5"/>
<path d="M178.341 330.504L183.862 346.28" stroke="white" stroke-width="0.5"/>
<path d="M183.862 346.28L186.229 358.901" stroke="white" stroke-width="0.5"/>
<path d="M186.229 358.901L172.819 339.181" stroke="white" stroke-width="0.5"/>
<path d="M172.819 339.181L164.142 312.362" stroke="white" stroke-width="0.5"/>
<path d="M164.142 312.362L158.621 297.375" stroke="white" stroke-width="0.5"/>
<path d="M186.228 358.901L199.638 375.466" stroke="white" stroke-width="0.5"/>
<path d="M199.638 375.466L207.526 393.608" stroke="white" stroke-width="0.5"/>
<path d="M206.512 394.397L209.104 410.172M172.819 339.181L187.722 367.446" stroke="white" stroke-width="0.5"/>
<path d="M199.638 375.466L187.806 367.578" stroke="white" stroke-width="0.5"/>
<path d="M136.534 308.418L126.28 288.698" stroke="white" stroke-width="0.5"/>
<path d="M130.224 310.784L123.125 292.642" stroke="white" stroke-width="0.5"/>
<path d="M131.802 157.759L143.634 185.366" stroke="white" stroke-width="0.5"/>
<path d="M144.423 185.366L164.931 212.974" stroke="white" stroke-width="0.5"/>
<circle cx="1.57759" cy="1.57759" r="1.57759" transform="matrix(-1 0 0 1 139.69 48.1164)" fill="white"/>
<circle cx="1.57759" cy="1.57759" r="1.57759" transform="matrix(-1 0 0 1 116.026 28.3965)" fill="white"/>
<circle cx="1.57759" cy="1.57759" r="1.57759" transform="matrix(-1 0 0 1 90.7844 6.31036)" fill="white"/>
<circle cx="1.57759" cy="1.57759" r="1.57759" transform="matrix(-1 0 0 1 53.7112 0)" fill="white"/>
<circle cx="1.57759" cy="1.57759" r="1.57759" transform="matrix(-1 0 0 1 3.22852 36.2845)" fill="white"/>
<circle cx="1.57759" cy="1.57759" r="1.57759" transform="matrix(-1 0 0 1 37.9353 52.0604)" fill="white"/>
<circle cx="1.57759" cy="1.57759" r="1.57759" transform="matrix(-1 0 0 1 45.8232 39.4396)" fill="white"/>
<circle cx="1.57759" cy="1.57759" r="1.57759" transform="matrix(-1 0 0 1 25.3147 39.4396)" fill="white"/>
<circle cx="1.57759" cy="1.57759" r="1.57759" transform="matrix(-1 0 0 1 69.4871 14.1983)" fill="white"/>
<circle cx="1.57759" cy="1.57759" r="1.57759" transform="matrix(-1 0 0 1 75.7974 16.5646)" fill="white"/>
<circle cx="1.57759" cy="1.57759" r="1.57759" transform="matrix(-1 0 0 1 96.3062 26.0302)" fill="white"/>
<circle cx="1.57759" cy="1.57759" r="1.57759" transform="matrix(-1 0 0 1 108.138 41.806)" fill="white"/>
<circle cx="1.57759" cy="1.57759" r="1.57759" transform="matrix(-1 0 0 1 126.28 45.75)" fill="white"/>
<circle cx="1.57759" cy="1.57759" r="1.57759" transform="matrix(-1 0 0 1 85.2629 18.1422)" fill="white"/>
<circle cx="1.57759" cy="1.57759" r="1.57759" transform="matrix(-1 0 0 1 78.9526 45.75)" fill="white"/>
<circle cx="1.57759" cy="1.57759" r="1.57759" transform="matrix(-1 0 0 1 131.013 60.7371)" fill="white"/>
<circle cx="1.57759" cy="1.57759" r="1.57759" transform="matrix(-1 0 0 1 126.28 51.2715)" fill="white"/>
<circle cx="1.57759" cy="1.57759" r="1.57759" transform="matrix(-1 0 0 1 148.366 74.9354)" fill="white"/>
<circle cx="1.57759" cy="1.57759" r="1.57759" transform="matrix(-1 0 0 1 102.616 68.625)" fill="white"/>
<circle cx="1.57759" cy="1.57759" r="1.57759" transform="matrix(-1 0 0 1 126.28 78.8793)" fill="white"/>
<circle cx="1.57759" cy="1.57759" r="1.57759" transform="matrix(-1 0 0 1 43.457 75.7241)" fill="white"/>
<circle cx="1.57759" cy="1.57759" r="1.57759" transform="matrix(-1 0 0 1 24.5259 91.5)" fill="white"/>
<circle cx="1.57759" cy="1.57759" r="1.57759" transform="matrix(-1 0 0 1 73.4312 80.4569)" fill="white"/>
<circle cx="1.57759" cy="1.57759" r="1.57759" transform="matrix(-1 0 0 1 12.6938 139.616)" fill="white"/>
<circle cx="1.57759" cy="1.57759" r="1.57759" transform="matrix(-1 0 0 1 47.4009 140.405)" fill="white"/>
<circle cx="1.57759" cy="1.57759" r="1.57759" transform="matrix(-1 0 0 1 152.31 100.177)" fill="white"/>
<circle cx="1.57759" cy="1.57759" r="1.57759" transform="matrix(-1 0 0 1 158.621 67.8362)" fill="white"/>
<circle cx="1.57759" cy="1.57759" r="1.57759" transform="matrix(-1 0 0 1 138.112 119.897)" fill="white"/>
<circle cx="1.57759" cy="1.57759" r="1.57759" transform="matrix(-1 0 0 1 127.858 116.741)" fill="white"/>
<circle cx="1.57759" cy="1.57759" r="1.57759" transform="matrix(-1 0 0 1 96.3062 128.573)" fill="white"/>
<circle cx="1.57759" cy="1.57759" r="1.57759" transform="matrix(-1 0 0 1 98.6724 119.897)" fill="white"/>
<circle cx="1.57759" cy="1.57759" r="1.57759" transform="matrix(-1 0 0 1 175.185 147.504)" fill="white"/>
<path d="M157.043 148.293C157.043 149.164 157.749 149.871 158.621 149.871C159.492 149.871 160.198 149.164 160.198 148.293C160.198 147.422 159.492 146.716 158.621 146.716C157.749 146.716 157.043 147.422 157.043 148.293Z" fill="white"/>
<path d="M129.435 158.547C129.435 159.419 130.142 160.125 131.013 160.125C131.884 160.125 132.591 159.419 132.591 158.547C132.591 157.676 131.884 156.97 131.013 156.97C130.142 156.97 129.435 157.676 129.435 158.547Z" fill="white"/>
<path d="M198.06 255.569C198.06 256.44 198.767 257.147 199.638 257.147C200.509 257.147 201.216 256.44 201.216 255.569C201.216 254.698 200.509 253.991 199.638 253.991C198.767 253.991 198.06 254.698 198.06 255.569Z" fill="white"/>
<path d="M231.19 311.573C231.19 312.445 231.896 313.151 232.767 313.151C233.638 313.151 234.345 312.445 234.345 311.573C234.345 310.702 233.638 309.996 232.767 309.996C231.896 309.996 231.19 310.702 231.19 311.573Z" fill="white"/>
<path d="M251.698 355.746C251.698 356.617 252.405 357.323 253.276 357.323C254.147 357.323 254.854 356.617 254.854 355.746C254.854 354.874 254.147 354.168 253.276 354.168C252.405 354.168 251.698 354.874 251.698 355.746Z" fill="white"/>
<path d="M257.22 433.047C257.22 433.919 257.926 434.625 258.797 434.625C259.669 434.625 260.375 433.919 260.375 433.047C260.375 432.176 259.669 431.47 258.797 431.47C257.926 431.47 257.22 432.176 257.22 433.047Z" fill="white"/>
<path d="M163.353 212.974C163.353 213.845 164.06 214.552 164.931 214.552C165.802 214.552 166.509 213.845 166.509 212.974C166.509 212.103 165.802 211.397 164.931 211.397C164.06 211.397 163.353 212.103 163.353 212.974Z" fill="white"/>
<path d="M172.03 197.198C172.03 198.07 172.736 198.776 173.608 198.776C174.479 198.776 175.185 198.07 175.185 197.198C175.185 196.327 174.479 195.621 173.608 195.621C172.736 195.621 172.03 196.327 172.03 197.198Z" fill="white"/>
<path d="M179.129 247.681C179.129 248.552 179.836 249.259 180.707 249.259C181.578 249.259 182.284 248.552 182.284 247.681C182.284 246.81 181.578 246.103 180.707 246.103C179.836 246.103 179.129 246.81 179.129 247.681Z" fill="white"/>
<path d="M184.651 270.556C184.651 271.427 185.357 272.134 186.229 272.134C187.1 272.134 187.806 271.427 187.806 270.556C187.806 269.685 187.1 268.978 186.229 268.978C185.357 268.978 184.651 269.685 184.651 270.556Z" fill="white"/>
<path d="M187.017 284.754C187.017 285.626 187.724 286.332 188.595 286.332C189.466 286.332 190.172 285.626 190.172 284.754C190.172 283.883 189.466 283.177 188.595 283.177C187.724 283.177 187.017 283.883 187.017 284.754Z" fill="white"/>
<path d="M216.202 322.616C216.202 323.488 216.909 324.194 217.78 324.194C218.651 324.194 219.358 323.488 219.358 322.616C219.358 321.745 218.651 321.039 217.78 321.039C216.909 321.039 216.202 321.745 216.202 322.616Z" fill="white"/>
<path d="M233.556 362.845C233.556 363.716 234.262 364.422 235.134 364.422C236.005 364.422 236.711 363.716 236.711 362.845C236.711 361.974 236.005 361.267 235.134 361.267C234.262 361.267 233.556 361.974 233.556 362.845Z" fill="white"/>
<path d="M237.5 417.272C237.5 418.143 238.206 418.849 239.078 418.849C239.949 418.849 240.655 418.143 240.655 417.272C240.655 416.4 239.949 415.694 239.078 415.694C238.206 415.694 237.5 416.4 237.5 417.272Z" fill="white"/>
<path d="M238.289 421.216C238.289 422.087 238.995 422.793 239.866 422.793C240.738 422.793 241.444 422.087 241.444 421.216C241.444 420.344 240.738 419.638 239.866 419.638C238.995 419.638 238.289 420.344 238.289 421.216Z" fill="white"/>
<path d="M221.724 460.655C221.724 461.526 222.431 462.233 223.302 462.233C224.173 462.233 224.879 461.526 224.879 460.655C224.879 459.784 224.173 459.078 223.302 459.078C222.431 459.078 221.724 459.784 221.724 460.655Z" fill="white"/>
<circle cx="1.57759" cy="1.57759" r="1.57759" transform="matrix(-1 0 0 1 198.849 179.056)" fill="white"/>
<circle cx="1.57759" cy="1.57759" r="1.57759" transform="matrix(-1 0 0 1 207.526 212.974)" fill="white"/>
<circle cx="1.57759" cy="1.57759" r="1.57759" transform="matrix(-1 0 0 1 213.047 241.371)" fill="white"/>
<path d="M209.103 268.19C209.103 269.061 209.81 269.767 210.681 269.767C211.552 269.767 212.259 269.061 212.259 268.19C212.259 267.318 211.552 266.612 210.681 266.612C209.81 266.612 209.103 267.318 209.103 268.19Z" fill="white"/>
<path d="M209.892 295.797C209.892 296.669 210.599 297.375 211.47 297.375C212.341 297.375 213.047 296.669 213.047 295.797C213.047 294.926 212.341 294.22 211.47 294.22C210.599 294.22 209.892 294.926 209.892 295.797Z" fill="white"/>
<path d="M201.215 323.405C201.215 324.276 201.922 324.983 202.793 324.983C203.664 324.983 204.371 324.276 204.371 323.405C204.371 322.534 203.664 321.828 202.793 321.828C201.922 321.828 201.215 322.534 201.215 323.405Z" fill="white"/>
<circle cx="1.57759" cy="1.57759" r="1.57759" transform="matrix(-1 0 0 1 115.237 59.1595)" fill="white"/>
<circle cx="1.57759" cy="1.57759" r="1.57759" transform="matrix(-1 0 0 1 119.97 67.0474)" fill="white"/>
<circle cx="1.57759" cy="1.57759" r="1.57759" transform="matrix(-1 0 0 1 146.789 67.0474)" fill="white"/>
<circle cx="1.57759" cy="1.57759" r="1.57759" transform="matrix(-1 0 0 1 93.1509 56.7931)" fill="white"/>
<circle cx="1.57759" cy="1.57759" r="1.57759" transform="matrix(-1 0 0 1 60.8103 63.1035)" fill="white"/>
<circle cx="1.57759" cy="1.57759" r="1.57759" transform="matrix(-1 0 0 1 48.9785 67.0474)" fill="white"/>
<circle cx="1.57759" cy="1.57759" r="1.57759" transform="matrix(-1 0 0 1 24.5259 75.7241)" fill="white"/>
<circle cx="1.57759" cy="1.57759" r="1.57759" transform="matrix(-1 0 0 1 107.349 92.2888)" fill="white"/>
<circle cx="1.57759" cy="1.57759" r="1.57759" transform="matrix(-1 0 0 1 98.6724 83.6121)" fill="white"/>
<circle cx="1.57759" cy="1.57759" r="1.57759" transform="matrix(-1 0 0 1 67.9094 96.2328)" fill="white"/>
<circle cx="1.57759" cy="1.57759" r="1.57759" transform="matrix(-1 0 0 1 57.6553 115.953)" fill="white"/>
<circle cx="1.57759" cy="1.57759" r="1.57759" transform="matrix(-1 0 0 1 123.914 100.177)" fill="white"/>
<circle cx="1.57759" cy="1.57759" r="1.57759" transform="matrix(-1 0 0 1 131.802 91.5)" fill="white"/>
<circle cx="1.57759" cy="1.57759" r="1.57759" transform="matrix(-1 0 0 1 112.082 87.556)" fill="white"/>
<circle cx="1.57759" cy="1.57759" r="1.57759" transform="matrix(-1 0 0 1 33.9915 97.0215)" fill="white"/>
<circle cx="1.57759" cy="1.57759" r="1.57759" transform="matrix(-1 0 0 1 43.457 123.841)" fill="white"/>
<circle cx="1.57759" cy="1.57759" r="1.57759" transform="matrix(-1 0 0 1 57.6553 151.448)" fill="white"/>
<circle cx="1.57759" cy="1.57759" r="1.57759" transform="matrix(-1 0 0 1 24.5259 104.909)" fill="white"/>
<circle cx="1.57759" cy="1.57759" r="1.57759" transform="matrix(-1 0 0 1 28.4697 124.629)" fill="white"/>
<circle cx="1.57759" cy="1.57759" r="1.57759" transform="matrix(-1 0 0 1 24.5259 115.953)" fill="white"/>
<circle cx="1.57759" cy="1.57759" r="1.57759" transform="matrix(-1 0 0 1 8.75 103.332)" fill="white"/>
<circle cx="1.57759" cy="1.57759" r="1.57759" transform="matrix(-1 0 0 1 0.862061 144.349)" fill="white"/>
<circle cx="1.57759" cy="1.57759" r="1.57759" transform="matrix(-1 0 0 1 25.3147 165.647)" fill="white"/>
<circle cx="1.57759" cy="1.57759" r="1.57759" transform="matrix(-1 0 0 1 53.7112 201.931)" fill="white"/>
<circle cx="1.57759" cy="1.57759" r="1.57759" transform="matrix(-1 0 0 1 67.9094 261.879)" fill="white"/>
<circle cx="1.57759" cy="1.57759" r="1.57759" transform="matrix(-1 0 0 1 73.4312 300.53)" fill="white"/>
<circle cx="1.57759" cy="1.57759" r="1.57759" transform="matrix(-1 0 0 1 51.3447 171.168)" fill="white"/>
<circle cx="1.57759" cy="1.57759" r="1.57759" transform="matrix(-1 0 0 1 63.9656 214.552)" fill="white"/>
<circle cx="1.57759" cy="1.57759" r="1.57759" transform="matrix(-1 0 0 1 75.0085 253.991)" fill="white"/>
<circle cx="1.57759" cy="1.57759" r="1.57759" transform="matrix(-1 0 0 1 95.5173 298.164)" fill="white"/>
<circle cx="1.57759" cy="1.57759" r="1.57759" transform="matrix(-1 0 0 1 118.392 342.336)" fill="white"/>
<circle cx="1.57759" cy="1.57759" r="1.57759" transform="matrix(-1 0 0 1 118.392 391.241)" fill="white"/>
<circle cx="1.57759" cy="1.57759" r="1.57759" transform="matrix(-1 0 0 1 102.616 432.259)" fill="white"/>
<circle cx="1.57759" cy="1.57759" r="1.57759" transform="matrix(-1 0 0 1 73.4312 336.815)" fill="white"/>
<circle cx="1.57759" cy="1.57759" r="1.57759" transform="matrix(-1 0 0 1 65.543 373.099)" fill="white"/>
<circle cx="1.57759" cy="1.57759" r="1.57759" transform="matrix(-1 0 0 1 67.1206 405.44)" fill="white"/>
<circle cx="1.57759" cy="1.57759" r="1.57759" transform="matrix(-1 0 0 1 75.0085 143.56)" fill="white"/>
<circle cx="1.57759" cy="1.57759" r="1.57759" transform="matrix(-1 0 0 1 85.2629 155.392)" fill="white"/>
<circle cx="1.57759" cy="1.57759" r="1.57759" transform="matrix(-1 0 0 1 95.5173 164.069)" fill="white"/>
<circle cx="1.57759" cy="1.57759" r="1.57759" transform="matrix(-1 0 0 1 67.1206 160.125)" fill="white"/>
<circle cx="1.57759" cy="1.57759" r="1.57759" transform="matrix(-1 0 0 1 63.1768 183.789)" fill="white"/>
<circle cx="1.57759" cy="1.57759" r="1.57759" transform="matrix(-1 0 0 1 82.8965 179.845)" fill="white"/>
<circle cx="1.57759" cy="1.57759" r="1.57759" transform="matrix(-1 0 0 1 90.7844 175.901)" fill="white"/>
<circle cx="1.57759" cy="1.57759" r="1.57759" transform="matrix(-1 0 0 1 110.504 211.397)" fill="white"/>
<circle cx="1.57759" cy="1.57759" r="1.57759" transform="matrix(-1 0 0 1 118.392 211.397)" fill="white"/>
<path d="M66.3319 201.142C66.3319 202.013 67.0382 202.72 67.9095 202.72C68.7808 202.72 69.4871 202.013 69.4871 201.142C69.4871 200.271 68.7808 199.565 67.9095 199.565C67.0382 199.565 66.3319 200.271 66.3319 201.142Z" fill="white"/>
<circle cx="1.57759" cy="1.57759" r="1.57759" transform="matrix(-1 0 0 1 78.9526 209.03)" fill="white"/>
<circle cx="1.57759" cy="1.57759" r="1.57759" transform="matrix(-1 0 0 1 90.7844 227.961)" fill="white"/>
<circle cx="1.57759" cy="1.57759" r="1.57759" transform="matrix(-1 0 0 1 67.9094 130.94)" fill="white"/>
<circle cx="1.57759" cy="1.57759" r="1.57759" transform="matrix(-1 0 0 1 55.2888 96.2328)" fill="white"/>
<circle cx="1.57759" cy="1.57759" r="1.57759" transform="matrix(-1 0 0 1 95.5173 144.349)" fill="white"/>
<circle cx="1.57759" cy="1.57759" r="1.57759" transform="matrix(-1 0 0 1 112.082 181.422)" fill="white"/>
<path d="M141.267 186.155C141.267 187.026 141.974 187.733 142.845 187.733C143.716 187.733 144.422 187.026 144.422 186.155C144.422 185.284 143.716 184.578 142.845 184.578C141.974 184.578 141.267 185.284 141.267 186.155Z" fill="white"/>
<path d="M123.125 199.565C123.125 200.436 123.831 201.142 124.703 201.142C125.574 201.142 126.28 200.436 126.28 199.565C126.28 198.693 125.574 197.987 124.703 197.987C123.831 197.987 123.125 198.693 123.125 199.565Z" fill="white"/>
<path d="M111.293 191.677C111.293 192.548 111.999 193.254 112.871 193.254C113.742 193.254 114.448 192.548 114.448 191.677C114.448 190.805 113.742 190.099 112.871 190.099C111.999 190.099 111.293 190.805 111.293 191.677Z" fill="white"/>
<path d="M127.858 211.397C127.858 212.268 128.564 212.974 129.435 212.974C130.307 212.974 131.013 212.268 131.013 211.397C131.013 210.525 130.307 209.819 129.435 209.819C128.564 209.819 127.858 210.525 127.858 211.397Z" fill="white"/>
<path d="M123.125 221.651C123.125 222.522 123.831 223.228 124.703 223.228C125.574 223.228 126.28 222.522 126.28 221.651C126.28 220.78 125.574 220.073 124.703 220.073C123.831 220.073 123.125 220.78 123.125 221.651Z" fill="white"/>
<path d="M107.349 219.284C107.349 220.156 108.056 220.862 108.927 220.862C109.798 220.862 110.504 220.156 110.504 219.284C110.504 218.413 109.798 217.707 108.927 217.707C108.056 217.707 107.349 218.413 107.349 219.284Z" fill="white"/>
<path d="M101.039 231.905C101.039 232.776 101.745 233.483 102.616 233.483C103.488 233.483 104.194 232.776 104.194 231.905C104.194 231.034 103.488 230.328 102.616 230.328C101.745 230.328 101.039 231.034 101.039 231.905Z" fill="white"/>
<path d="M108.138 237.427C108.138 238.298 108.844 239.004 109.716 239.004C110.587 239.004 111.293 238.298 111.293 237.427C111.293 236.555 110.587 235.849 109.716 235.849C108.844 235.849 108.138 236.555 108.138 237.427Z" fill="white"/>
<path d="M108.138 250.836C108.138 251.707 108.844 252.414 109.716 252.414C110.587 252.414 111.293 251.707 111.293 250.836C111.293 249.965 110.587 249.259 109.716 249.259C108.844 249.259 108.138 249.965 108.138 250.836Z" fill="white"/>
<path d="M120.759 256.358C120.759 257.229 121.465 257.935 122.336 257.935C123.208 257.935 123.914 257.229 123.914 256.358C123.914 255.486 123.208 254.78 122.336 254.78C121.465 254.78 120.759 255.486 120.759 256.358Z" fill="white"/>
<path d="M119.97 262.668C119.97 263.539 120.676 264.246 121.547 264.246C122.419 264.246 123.125 263.539 123.125 262.668C123.125 261.797 122.419 261.091 121.547 261.091C120.676 261.091 119.97 261.797 119.97 262.668Z" fill="white"/>
<path d="M104.983 256.358C104.983 257.229 105.689 257.935 106.56 257.935C107.432 257.935 108.138 257.229 108.138 256.358C108.138 255.486 107.432 254.78 106.56 254.78C105.689 254.78 104.983 255.486 104.983 256.358Z" fill="white"/>
<path d="M128.647 256.358C128.647 257.229 129.353 257.935 130.224 257.935C131.095 257.935 131.802 257.229 131.802 256.358C131.802 255.486 131.095 254.78 130.224 254.78C129.353 254.78 128.647 255.486 128.647 256.358Z" fill="white"/>
<path d="M100.25 254.78C100.25 255.651 100.956 256.358 101.828 256.358C102.699 256.358 103.405 255.651 103.405 254.78C103.405 253.909 102.699 253.203 101.828 253.203C100.956 253.203 100.25 253.909 100.25 254.78Z" fill="white"/>
<path d="M108.138 270.556C108.138 271.427 108.844 272.134 109.716 272.134C110.587 272.134 111.293 271.427 111.293 270.556C111.293 269.685 110.587 268.978 109.716 268.978C108.844 268.978 108.138 269.685 108.138 270.556Z" fill="white"/>
<path d="M108.927 283.177C108.927 284.048 109.633 284.754 110.504 284.754C111.375 284.754 112.082 284.048 112.082 283.177C112.082 282.305 111.375 281.599 110.504 281.599C109.633 281.599 108.927 282.305 108.927 283.177Z" fill="white"/>
<path d="M92.3622 265.823C92.3622 266.695 93.0685 267.401 93.9397 267.401C94.811 267.401 95.5173 266.695 95.5173 265.823C95.5173 264.952 94.811 264.246 93.9397 264.246C93.0685 264.246 92.3622 264.952 92.3622 265.823Z" fill="white"/>
<path d="M110.504 295.797C110.504 296.669 111.211 297.375 112.082 297.375C112.953 297.375 113.659 296.669 113.659 295.797C113.659 294.926 112.953 294.22 112.082 294.22C111.211 294.22 110.504 294.926 110.504 295.797Z" fill="white"/>
<path d="M115.237 283.966C115.237 284.837 115.943 285.543 116.815 285.543C117.686 285.543 118.392 284.837 118.392 283.966C118.392 283.094 117.686 282.388 116.815 282.388C115.943 282.388 115.237 283.094 115.237 283.966Z" fill="white"/>
<path d="M120.759 294.22C120.759 295.091 121.465 295.797 122.336 295.797C123.208 295.797 123.914 295.091 123.914 294.22C123.914 293.349 123.208 292.642 122.336 292.642C121.465 292.642 120.759 293.349 120.759 294.22Z" fill="white"/>
<path d="M124.702 287.909C124.702 288.781 125.409 289.487 126.28 289.487C127.151 289.487 127.858 288.781 127.858 287.909C127.858 287.038 127.151 286.332 126.28 286.332C125.409 286.332 124.702 287.038 124.702 287.909Z" fill="white"/>
<path d="M127.858 311.573C127.858 312.445 128.564 313.151 129.435 313.151C130.307 313.151 131.013 312.445 131.013 311.573C131.013 310.702 130.307 309.996 129.435 309.996C128.564 309.996 127.858 310.702 127.858 311.573Z" fill="white"/>
<path d="M132.59 311.573C132.59 312.445 133.297 313.151 134.168 313.151C135.039 313.151 135.746 312.445 135.746 311.573C135.746 310.702 135.039 309.996 134.168 309.996C133.297 309.996 132.59 310.702 132.59 311.573Z" fill="white"/>
<path d="M134.957 307.629C134.957 308.501 135.663 309.207 136.534 309.207C137.406 309.207 138.112 308.501 138.112 307.629C138.112 306.758 137.406 306.052 136.534 306.052C135.663 306.052 134.957 306.758 134.957 307.629Z" fill="white"/>
<path d="M138.901 302.108C138.901 302.979 139.607 303.685 140.479 303.685C141.35 303.685 142.056 302.979 142.056 302.108C142.056 301.236 141.35 300.53 140.479 300.53C139.607 300.53 138.901 301.236 138.901 302.108Z" fill="white"/>
<path d="M141.267 294.22C141.267 295.091 141.974 295.797 142.845 295.797C143.716 295.797 144.422 295.091 144.422 294.22C144.422 293.349 143.716 292.642 142.845 292.642C141.974 292.642 141.267 293.349 141.267 294.22Z" fill="white"/>
<path d="M155.465 306.841C155.465 307.712 156.172 308.418 157.043 308.418C157.914 308.418 158.621 307.712 158.621 306.841C158.621 305.969 157.914 305.263 157.043 305.263C156.172 305.263 155.465 305.969 155.465 306.841Z" fill="white"/>
<path d="M151.522 313.94C151.522 314.811 152.228 315.517 153.099 315.517C153.97 315.517 154.677 314.811 154.677 313.94C154.677 313.068 153.97 312.362 153.099 312.362C152.228 312.362 151.522 313.068 151.522 313.94Z" fill="white"/>
<path d="M144.422 318.672C144.422 319.544 145.129 320.25 146 320.25C146.871 320.25 147.578 319.544 147.578 318.672C147.578 317.801 146.871 317.095 146 317.095C145.129 317.095 144.422 317.801 144.422 318.672Z" fill="white"/>
<path d="M157.043 328.927C157.043 329.798 157.749 330.504 158.621 330.504C159.492 330.504 160.198 329.798 160.198 328.927C160.198 328.055 159.492 327.349 158.621 327.349C157.749 327.349 157.043 328.055 157.043 328.927Z" fill="white"/>
<path d="M151.522 335.237C151.522 336.108 152.228 336.815 153.099 336.815C153.97 336.815 154.677 336.108 154.677 335.237C154.677 334.366 153.97 333.659 153.099 333.659C152.228 333.659 151.522 334.366 151.522 335.237Z" fill="white"/>
<path d="M136.535 351.013C136.535 351.884 137.241 352.59 138.112 352.59C138.983 352.59 139.69 351.884 139.69 351.013C139.69 350.142 138.983 349.435 138.112 349.435C137.241 349.435 136.535 350.142 136.535 351.013Z" fill="white"/>
<path d="M124.702 334.448C124.702 335.32 125.409 336.026 126.28 336.026C127.151 336.026 127.858 335.32 127.858 334.448C127.858 333.577 127.151 332.871 126.28 332.871C125.409 332.871 124.702 333.577 124.702 334.448Z" fill="white"/>
<path d="M127.858 357.323C127.858 358.195 128.564 358.901 129.435 358.901C130.307 358.901 131.013 358.195 131.013 357.323C131.013 356.452 130.307 355.746 129.435 355.746C128.564 355.746 127.858 356.452 127.858 357.323Z" fill="white"/>
<path d="M131.013 363.634C131.013 364.505 131.719 365.211 132.591 365.211C133.462 365.211 134.168 364.505 134.168 363.634C134.168 362.762 133.462 362.056 132.591 362.056C131.719 362.056 131.013 362.762 131.013 363.634Z" fill="white"/>
<path d="M138.901 358.901C138.901 359.772 139.607 360.478 140.479 360.478C141.35 360.478 142.056 359.772 142.056 358.901C142.056 358.03 141.35 357.323 140.479 357.323C139.607 357.323 138.901 358.03 138.901 358.901Z" fill="white"/>
<path d="M144.422 362.845C144.422 363.716 145.129 364.422 146 364.422C146.871 364.422 147.578 363.716 147.578 362.845C147.578 361.974 146.871 361.267 146 361.267C145.129 361.267 144.422 361.974 144.422 362.845Z" fill="white"/>
<path d="M147.577 367.578C147.577 368.449 148.284 369.155 149.155 369.155C150.026 369.155 150.733 368.449 150.733 367.578C150.733 366.706 150.026 366 149.155 366C148.284 366 147.577 366.706 147.577 367.578Z" fill="white"/>
<path d="M139.69 379.409C139.69 380.281 140.396 380.987 141.267 380.987C142.138 380.987 142.845 380.281 142.845 379.409C142.845 378.538 142.138 377.832 141.267 377.832C140.396 377.832 139.69 378.538 139.69 379.409Z" fill="white"/>
<path d="M141.267 384.931C141.267 385.802 141.974 386.509 142.845 386.509C143.716 386.509 144.422 385.802 144.422 384.931C144.422 384.06 143.716 383.353 142.845 383.353C141.974 383.353 141.267 384.06 141.267 384.931Z" fill="white"/>
<path d="M151.522 377.043C151.522 377.914 152.228 378.621 153.099 378.621C153.97 378.621 154.677 377.914 154.677 377.043C154.677 376.172 153.97 375.466 153.099 375.466C152.228 375.466 151.522 376.172 151.522 377.043Z" fill="white"/>
<path d="M152.31 384.931C152.31 385.802 153.017 386.509 153.888 386.509C154.759 386.509 155.466 385.802 155.466 384.931C155.466 384.06 154.759 383.353 153.888 383.353C153.017 383.353 152.31 384.06 152.31 384.931Z" fill="white"/>
<path d="M154.677 362.845C154.677 363.716 155.383 364.422 156.254 364.422C157.125 364.422 157.832 363.716 157.832 362.845C157.832 361.974 157.125 361.267 156.254 361.267C155.383 361.267 154.677 361.974 154.677 362.845Z" fill="white"/>
<path d="M141.267 391.241C141.267 392.113 141.974 392.819 142.845 392.819C143.716 392.819 144.422 392.113 144.422 391.241C144.422 390.37 143.716 389.664 142.845 389.664C141.974 389.664 141.267 390.37 141.267 391.241Z" fill="white"/>
<path d="M135.746 408.595C135.746 409.466 136.452 410.172 137.323 410.172C138.195 410.172 138.901 409.466 138.901 408.595C138.901 407.724 138.195 407.017 137.323 407.017C136.452 407.017 135.746 407.724 135.746 408.595Z" fill="white"/>
<path d="M143.634 399.129C143.634 400.001 144.34 400.707 145.211 400.707C146.083 400.707 146.789 400.001 146.789 399.129C146.789 398.258 146.083 397.552 145.211 397.552C144.34 397.552 143.634 398.258 143.634 399.129Z" fill="white"/>
<path d="M142.845 410.961C142.845 411.832 143.551 412.539 144.422 412.539C145.294 412.539 146 411.832 146 410.961C146 410.09 145.294 409.384 144.422 409.384C143.551 409.384 142.845 410.09 142.845 410.961Z" fill="white"/>
<path d="M145.211 416.483C145.211 417.354 145.918 418.06 146.789 418.06C147.66 418.06 148.366 417.354 148.366 416.483C148.366 415.611 147.66 414.905 146.789 414.905C145.918 414.905 145.211 415.611 145.211 416.483Z" fill="white"/>
<path d="M157.043 400.707C157.043 401.578 157.749 402.284 158.621 402.284C159.492 402.284 160.198 401.578 160.198 400.707C160.198 399.836 159.492 399.129 158.621 399.129C157.749 399.129 157.043 399.836 157.043 400.707Z" fill="white"/>
<path d="M155.465 418.06C155.465 418.932 156.172 419.638 157.043 419.638C157.914 419.638 158.621 418.932 158.621 418.06C158.621 417.189 157.914 416.483 157.043 416.483C156.172 416.483 155.465 417.189 155.465 418.06Z" fill="white"/>
<path d="M133.379 425.948C133.379 426.82 134.086 427.526 134.957 427.526C135.828 427.526 136.534 426.82 136.534 425.948C136.534 425.077 135.828 424.371 134.957 424.371C134.086 424.371 133.379 425.077 133.379 425.948Z" fill="white"/>
<path d="M139.69 437.78C139.69 438.651 140.396 439.358 141.267 439.358C142.138 439.358 142.845 438.651 142.845 437.78C142.845 436.909 142.138 436.203 141.267 436.203C140.396 436.203 139.69 436.909 139.69 437.78Z" fill="white"/>
<path d="M131.802 431.47C131.802 432.341 132.508 433.047 133.379 433.047C134.25 433.047 134.957 432.341 134.957 431.47C134.957 430.599 134.25 429.892 133.379 429.892C132.508 429.892 131.802 430.599 131.802 431.47Z" fill="white"/>
<path d="M79.7413 380.987C79.7413 381.858 80.4476 382.565 81.3189 382.565C82.1902 382.565 82.8965 381.858 82.8965 380.987C82.8965 380.116 82.1902 379.409 81.3189 379.409C80.4476 379.409 79.7413 380.116 79.7413 380.987Z" fill="white"/>
<path d="M75.7975 380.987C75.7975 381.858 76.5038 382.565 77.3751 382.565C78.2463 382.565 78.9526 381.858 78.9526 380.987C78.9526 380.116 78.2463 379.409 77.3751 379.409C76.5038 379.409 75.7975 380.116 75.7975 380.987Z" fill="white"/>
<path d="M52.1336 338.392C52.1336 339.263 52.84 339.97 53.7112 339.97C54.5825 339.97 55.2888 339.263 55.2888 338.392C55.2888 337.521 54.5825 336.815 53.7112 336.815C52.84 336.815 52.1336 337.521 52.1336 338.392Z" fill="white"/>
<path d="M42.6681 323.405C42.6681 324.276 43.3744 324.983 44.2457 324.983C45.1169 324.983 45.8232 324.276 45.8232 323.405C45.8232 322.534 45.1169 321.828 44.2457 321.828C43.3744 321.828 42.6681 322.534 42.6681 323.405Z" fill="white"/>
<path d="M36.3578 291.065C36.3578 291.936 37.0641 292.642 37.9354 292.642C38.8066 292.642 39.5129 291.936 39.5129 291.065C39.5129 290.193 38.8066 289.487 37.9354 289.487C37.0641 289.487 36.3578 290.193 36.3578 291.065Z" fill="white"/>
<path d="M26.8922 275.289C26.8922 276.16 27.5985 276.866 28.4698 276.866C29.3411 276.866 30.0474 276.16 30.0474 275.289C30.0474 274.417 29.3411 273.711 28.4698 273.711C27.5985 273.711 26.8922 274.417 26.8922 275.289Z" fill="white"/>
<path d="M26.1034 237.427C26.1034 238.298 26.8097 239.004 27.681 239.004C28.5522 239.004 29.2585 238.298 29.2585 237.427C29.2585 236.555 28.5522 235.849 27.681 235.849C26.8097 235.849 26.1034 236.555 26.1034 237.427Z" fill="white"/>
<path d="M25.3146 189.31C25.3146 190.182 26.0209 190.888 26.8921 190.888C27.7634 190.888 28.4697 190.182 28.4697 189.31C28.4697 188.439 27.7634 187.733 26.8921 187.733C26.0209 187.733 25.3146 188.439 25.3146 189.31Z" fill="white"/>
<path d="M30.8363 138.039C30.8363 138.91 31.5426 139.616 32.4139 139.616C33.2851 139.616 33.9915 138.91 33.9915 138.039C33.9915 137.167 33.2851 136.461 32.4139 136.461C31.5426 136.461 30.8363 137.167 30.8363 138.039Z" fill="white"/>
<path d="M160.987 441.724C160.987 442.595 161.693 443.302 162.565 443.302C163.436 443.302 164.142 442.595 164.142 441.724C164.142 440.853 163.436 440.147 162.565 440.147C161.693 440.147 160.987 440.853 160.987 441.724Z" fill="white"/>
<path d="M159.41 429.103C159.41 429.975 160.116 430.681 160.987 430.681C161.858 430.681 162.565 429.975 162.565 429.103C162.565 428.232 161.858 427.526 160.987 427.526C160.116 427.526 159.41 428.232 159.41 429.103Z" fill="white"/>
<path d="M150.733 445.668C150.733 446.539 151.439 447.246 152.31 447.246C153.182 447.246 153.888 446.539 153.888 445.668C153.888 444.797 153.182 444.091 152.31 444.091C151.439 444.091 150.733 444.797 150.733 445.668Z" fill="white"/>
<path d="M172.03 456.711C172.03 457.582 172.736 458.289 173.608 458.289C174.479 458.289 175.185 457.582 175.185 456.711C175.185 455.84 174.479 455.134 173.608 455.134C172.736 455.134 172.03 455.84 172.03 456.711Z" fill="white"/>
<path d="M179.129 461.444C179.129 462.315 179.836 463.022 180.707 463.022C181.578 463.022 182.284 462.315 182.284 461.444C182.284 460.573 181.578 459.866 180.707 459.866C179.836 459.866 179.129 460.573 179.129 461.444Z" fill="white"/>
<path d="M164.931 467.754C164.931 468.626 165.637 469.332 166.509 469.332C167.38 469.332 168.086 468.626 168.086 467.754C168.086 466.883 167.38 466.177 166.509 466.177C165.637 466.177 164.931 466.883 164.931 467.754Z" fill="white"/>
<path d="M150.733 466.177C150.733 467.048 151.439 467.754 152.31 467.754C153.182 467.754 153.888 467.048 153.888 466.177C153.888 465.305 153.182 464.599 152.31 464.599C151.439 464.599 150.733 465.305 150.733 466.177Z" fill="white"/>
<path d="M145.211 464.599C145.211 465.47 145.918 466.177 146.789 466.177C147.66 466.177 148.366 465.47 148.366 464.599C148.366 463.728 147.66 463.022 146.789 463.022C145.918 463.022 145.211 463.728 145.211 464.599Z" fill="white"/>
<path d="M128.647 444.091C128.647 444.962 129.353 445.668 130.224 445.668C131.095 445.668 131.802 444.962 131.802 444.091C131.802 443.219 131.095 442.513 130.224 442.513C129.353 442.513 128.647 443.219 128.647 444.091Z" fill="white"/>
<path d="M132.59 448.823C132.59 449.695 133.297 450.401 134.168 450.401C135.039 450.401 135.746 449.695 135.746 448.823C135.746 447.952 135.039 447.246 134.168 447.246C133.297 447.246 132.59 447.952 132.59 448.823Z" fill="white"/>
<path d="M142.056 460.655C142.056 461.526 142.762 462.233 143.634 462.233C144.505 462.233 145.211 461.526 145.211 460.655C145.211 459.784 144.505 459.078 143.634 459.078C142.762 459.078 142.056 459.784 142.056 460.655Z" fill="white"/>
<path d="M179.918 481.953C179.918 482.824 180.624 483.53 181.496 483.53C182.367 483.53 183.073 482.824 183.073 481.953C183.073 481.081 182.367 480.375 181.496 480.375C180.624 480.375 179.918 481.081 179.918 481.953Z" fill="white"/>
<path d="M188.595 479.586C188.595 480.457 189.301 481.164 190.172 481.164C191.044 481.164 191.75 480.457 191.75 479.586C191.75 478.715 191.044 478.009 190.172 478.009C189.301 478.009 188.595 478.715 188.595 479.586Z" fill="white"/>
<path d="M186.228 506.405C186.228 507.276 186.935 507.983 187.806 507.983C188.677 507.983 189.384 507.276 189.384 506.405C189.384 505.534 188.677 504.828 187.806 504.828C186.935 504.828 186.228 505.534 186.228 506.405Z" fill="white"/>
<path d="M190.172 511.138C190.172 512.009 190.879 512.716 191.75 512.716C192.621 512.716 193.328 512.009 193.328 511.138C193.328 510.267 192.621 509.56 191.75 509.56C190.879 509.56 190.172 510.267 190.172 511.138Z" fill="white"/>
<path d="M200.427 520.603C200.427 521.475 201.133 522.181 202.004 522.181C202.875 522.181 203.582 521.475 203.582 520.603C203.582 519.732 202.875 519.026 202.004 519.026C201.133 519.026 200.427 519.732 200.427 520.603Z" fill="white"/>
<path d="M206.737 524.547C206.737 525.419 207.443 526.125 208.315 526.125C209.186 526.125 209.892 525.419 209.892 524.547C209.892 523.676 209.186 522.97 208.315 522.97C207.443 522.97 206.737 523.676 206.737 524.547Z" fill="white"/>
<path d="M202.793 511.927C202.793 512.798 203.499 513.504 204.371 513.504C205.242 513.504 205.948 512.798 205.948 511.927C205.948 511.055 205.242 510.349 204.371 510.349C203.499 510.349 202.793 511.055 202.793 511.927Z" fill="white"/>
<path d="M210.681 501.672C210.681 502.544 211.387 503.25 212.259 503.25C213.13 503.25 213.836 502.544 213.836 501.672C213.836 500.801 213.13 500.095 212.259 500.095C211.387 500.095 210.681 500.801 210.681 501.672Z" fill="white"/>
<path d="M198.06 490.629C198.06 491.501 198.767 492.207 199.638 492.207C200.509 492.207 201.216 491.501 201.216 490.629C201.216 489.758 200.509 489.052 199.638 489.052C198.767 489.052 198.06 489.758 198.06 490.629Z" fill="white"/>
<path d="M226.457 509.56C226.457 510.432 227.163 511.138 228.034 511.138C228.906 511.138 229.612 510.432 229.612 509.56C229.612 508.689 228.906 507.983 228.034 507.983C227.163 507.983 226.457 508.689 226.457 509.56Z" fill="white"/>
<path d="M233.556 507.983C233.556 508.854 234.262 509.56 235.134 509.56C236.005 509.56 236.711 508.854 236.711 507.983C236.711 507.111 236.005 506.405 235.134 506.405C234.262 506.405 233.556 507.111 233.556 507.983Z" fill="white"/>
<path d="M233.556 536.379C233.556 537.251 234.262 537.957 235.134 537.957C236.005 537.957 236.711 537.251 236.711 536.379C236.711 535.508 236.005 534.802 235.134 534.802C234.262 534.802 233.556 535.508 233.556 536.379Z" fill="white"/>
<path d="M215.414 528.491C215.414 529.363 216.12 530.069 216.991 530.069C217.863 530.069 218.569 529.363 218.569 528.491C218.569 527.62 217.863 526.914 216.991 526.914C216.12 526.914 215.414 527.62 215.414 528.491Z" fill="white"/>
<path d="M237.5 536.379C237.5 537.251 238.206 537.957 239.078 537.957C239.949 537.957 240.655 537.251 240.655 536.379C240.655 535.508 239.949 534.802 239.078 534.802C238.206 534.802 237.5 535.508 237.5 536.379Z" fill="white"/>
<path d="M255.642 532.435C255.642 533.307 256.349 534.013 257.22 534.013C258.091 534.013 258.797 533.307 258.797 532.435C258.797 531.564 258.091 530.858 257.22 530.858C256.349 530.858 255.642 531.564 255.642 532.435Z" fill="white"/>
<path d="M264.319 526.914C264.319 527.785 265.025 528.491 265.897 528.491C266.768 528.491 267.474 527.785 267.474 526.914C267.474 526.043 266.768 525.336 265.897 525.336C265.025 525.336 264.319 526.043 264.319 526.914Z" fill="white"/>
<path d="M272.207 533.224C272.207 534.095 272.913 534.802 273.784 534.802C274.656 534.802 275.362 534.095 275.362 533.224C275.362 532.353 274.656 531.647 273.784 531.647C272.913 531.647 272.207 532.353 272.207 533.224Z" fill="white"/>
<path d="M269.84 516.659C269.84 517.531 270.547 518.237 271.418 518.237C272.289 518.237 272.996 517.531 272.996 516.659C272.996 515.788 272.289 515.082 271.418 515.082C270.547 515.082 269.84 515.788 269.84 516.659Z" fill="white"/>
<path d="M277.728 526.914C277.728 527.785 278.435 528.491 279.306 528.491C280.177 528.491 280.884 527.785 280.884 526.914C280.884 526.043 280.177 525.336 279.306 525.336C278.435 525.336 277.728 526.043 277.728 526.914Z" fill="white"/>
<path d="M254.065 506.405C254.065 507.276 254.771 507.983 255.642 507.983C256.513 507.983 257.22 507.276 257.22 506.405C257.22 505.534 256.513 504.828 255.642 504.828C254.771 504.828 254.065 505.534 254.065 506.405Z" fill="white"/>
<path d="M251.698 489.052C251.698 489.923 252.405 490.629 253.276 490.629C254.147 490.629 254.854 489.923 254.854 489.052C254.854 488.18 254.147 487.474 253.276 487.474C252.405 487.474 251.698 488.18 251.698 489.052Z" fill="white"/>
<path d="M237.5 473.276C237.5 474.147 238.206 474.853 239.078 474.853C239.949 474.853 240.655 474.147 240.655 473.276C240.655 472.405 239.949 471.698 239.078 471.698C238.206 471.698 237.5 472.405 237.5 473.276Z" fill="white"/>
<path d="M211.47 459.866C211.47 460.738 212.176 461.444 213.047 461.444C213.919 461.444 214.625 460.738 214.625 459.866C214.625 458.995 213.919 458.289 213.047 458.289C212.176 458.289 211.47 458.995 211.47 459.866Z" fill="white"/>
<path d="M237.5 480.375C237.5 481.246 238.206 481.953 239.078 481.953C239.949 481.953 240.655 481.246 240.655 480.375C240.655 479.504 239.949 478.797 239.078 478.797C238.206 478.797 237.5 479.504 237.5 480.375Z" fill="white"/>
<path d="M190.961 467.754C190.961 468.626 191.668 469.332 192.539 469.332C193.41 469.332 194.116 468.626 194.116 467.754C194.116 466.883 193.41 466.177 192.539 466.177C191.668 466.177 190.961 466.883 190.961 467.754Z" fill="white"/>
<path d="M211.47 455.922C211.47 456.794 212.176 457.5 213.047 457.5C213.919 457.5 214.625 456.794 214.625 455.922C214.625 455.051 213.919 454.345 213.047 454.345C212.176 454.345 211.47 455.051 211.47 455.922Z" fill="white"/>
<path d="M188.595 445.668C188.595 446.539 189.301 447.246 190.172 447.246C191.044 447.246 191.75 446.539 191.75 445.668C191.75 444.797 191.044 444.091 190.172 444.091C189.301 444.091 188.595 444.797 188.595 445.668Z" fill="white"/>
<path d="M211.47 444.091C211.47 444.962 212.176 445.668 213.047 445.668C213.919 445.668 214.625 444.962 214.625 444.091C214.625 443.219 213.919 442.513 213.047 442.513C212.176 442.513 211.47 443.219 211.47 444.091Z" fill="white"/>
<path d="M211.47 436.203C211.47 437.074 212.176 437.78 213.047 437.78C213.919 437.78 214.625 437.074 214.625 436.203C214.625 435.331 213.919 434.625 213.047 434.625C212.176 434.625 211.47 435.331 211.47 436.203Z" fill="white"/>
<path d="M176.763 425.948C176.763 426.82 177.469 427.526 178.341 427.526C179.212 427.526 179.918 426.82 179.918 425.948C179.918 425.077 179.212 424.371 178.341 424.371C177.469 424.371 176.763 425.077 176.763 425.948Z" fill="white"/>
<path d="M184.651 433.047C184.651 433.919 185.357 434.625 186.229 434.625C187.1 434.625 187.806 433.919 187.806 433.047C187.806 432.176 187.1 431.47 186.229 431.47C185.357 431.47 184.651 432.176 184.651 433.047Z" fill="white"/>
<path d="M179.918 424.371C179.918 425.242 180.624 425.948 181.496 425.948C182.367 425.948 183.073 425.242 183.073 424.371C183.073 423.499 182.367 422.793 181.496 422.793C180.624 422.793 179.918 423.499 179.918 424.371Z" fill="white"/>
<path d="M180.707 416.483C180.707 417.354 181.413 418.06 182.284 418.06C183.156 418.06 183.862 417.354 183.862 416.483C183.862 415.611 183.156 414.905 182.284 414.905C181.413 414.905 180.707 415.611 180.707 416.483Z" fill="white"/>
<path d="M179.918 408.595C179.918 409.466 180.624 410.172 181.496 410.172C182.367 410.172 183.073 409.466 183.073 408.595C183.073 407.724 182.367 407.017 181.496 407.017C180.624 407.017 179.918 407.724 179.918 408.595Z" fill="white"/>
<path d="M164.931 408.595C164.931 409.466 165.637 410.172 166.509 410.172C167.38 410.172 168.086 409.466 168.086 408.595C168.086 407.724 167.38 407.017 166.509 407.017C165.637 407.017 164.931 407.724 164.931 408.595Z" fill="white"/>
<path d="M164.142 403.073C164.142 403.945 164.849 404.651 165.72 404.651C166.591 404.651 167.297 403.945 167.297 403.073C167.297 402.202 166.591 401.496 165.72 401.496C164.849 401.496 164.142 402.202 164.142 403.073Z" fill="white"/>
<path d="M161.776 368.366C161.776 369.238 162.482 369.944 163.354 369.944C164.225 369.944 164.931 369.238 164.931 368.366C164.931 367.495 164.225 366.789 163.354 366.789C162.482 366.789 161.776 367.495 161.776 368.366Z" fill="white"/>
<path d="M171.241 373.888C171.241 374.759 171.948 375.465 172.819 375.465C173.69 375.465 174.396 374.759 174.396 373.888C174.396 373.017 173.69 372.31 172.819 372.31C171.948 372.31 171.241 373.017 171.241 373.888Z" fill="white"/>
<path d="M160.987 347.858C160.987 348.729 161.693 349.435 162.565 349.435C163.436 349.435 164.142 348.729 164.142 347.858C164.142 346.986 163.436 346.28 162.565 346.28C161.693 346.28 160.987 346.986 160.987 347.858Z" fill="white"/>
<path d="M287.194 527.703C287.194 528.574 287.9 529.28 288.772 529.28C289.643 529.28 290.349 528.574 290.349 527.703C290.349 526.831 289.643 526.125 288.772 526.125C287.9 526.125 287.194 526.831 287.194 527.703Z" fill="white"/>
<path d="M286.405 533.224C286.405 534.095 287.111 534.802 287.983 534.802C288.854 534.802 289.56 534.095 289.56 533.224C289.56 532.353 288.854 531.647 287.983 531.647C287.111 531.647 286.405 532.353 286.405 533.224Z" fill="white"/>
<path d="M295.082 549.789C295.082 550.66 295.788 551.366 296.659 551.366C297.531 551.366 298.237 550.66 298.237 549.789C298.237 548.918 297.531 548.211 296.659 548.211C295.788 548.211 295.082 548.918 295.082 549.789Z" fill="white"/>
<path d="M287.194 547.422C287.194 548.294 287.9 549 288.772 549C289.643 549 290.349 548.294 290.349 547.422C290.349 546.551 289.643 545.845 288.772 545.845C287.9 545.845 287.194 546.551 287.194 547.422Z" fill="white"/>
<path d="M282.461 542.69C282.461 543.561 283.168 544.267 284.039 544.267C284.91 544.267 285.616 543.561 285.616 542.69C285.616 541.818 284.91 541.112 284.039 541.112C283.168 541.112 282.461 541.818 282.461 542.69Z" fill="white"/>
<path d="M294.293 562.409C294.293 563.281 294.999 563.987 295.871 563.987C296.742 563.987 297.448 563.281 297.448 562.409C297.448 561.538 296.742 560.832 295.871 560.832C294.999 560.832 294.293 561.538 294.293 562.409Z" fill="white"/>
<path d="M314.013 548.211C314.013 549.083 314.719 549.789 315.591 549.789C316.462 549.789 317.168 549.083 317.168 548.211C317.168 547.34 316.462 546.634 315.591 546.634C314.719 546.634 314.013 547.34 314.013 548.211Z" fill="white"/>
<path d="M314.802 556.888C314.802 557.759 315.508 558.466 316.379 558.466C317.25 558.466 317.957 557.759 317.957 556.888C317.957 556.017 317.25 555.31 316.379 555.31C315.508 555.31 314.802 556.017 314.802 556.888Z" fill="white"/>
<path d="M317.957 564.776C317.957 565.647 318.663 566.353 319.534 566.353C320.406 566.353 321.112 565.647 321.112 564.776C321.112 563.905 320.406 563.198 319.534 563.198C318.663 563.198 317.957 563.905 317.957 564.776Z" fill="white"/>
<path d="M325.845 576.608C325.845 577.479 326.551 578.185 327.422 578.185C328.294 578.185 329 577.479 329 576.608C329 575.737 328.294 575.03 327.422 575.03C326.551 575.03 325.845 575.737 325.845 576.608Z" fill="white"/>
<path d="M320.323 603.427C320.323 604.298 321.03 605.004 321.901 605.004C322.772 605.004 323.479 604.298 323.479 603.427C323.479 602.555 322.772 601.849 321.901 601.849C321.03 601.849 320.323 602.555 320.323 603.427Z" fill="white"/>
<path d="M307.702 624.724C307.702 625.595 308.409 626.302 309.28 626.302C310.151 626.302 310.858 625.595 310.858 624.724C310.858 623.853 310.151 623.147 309.28 623.147C308.409 623.147 307.702 623.853 307.702 624.724Z" fill="white"/>
<path d="M303.759 647.599C303.759 648.47 304.465 649.177 305.336 649.177C306.208 649.177 306.914 648.47 306.914 647.599C306.914 646.728 306.208 646.022 305.336 646.022C304.465 646.022 303.759 646.728 303.759 647.599Z" fill="white"/>
<path d="M156.254 385.72C156.254 386.591 156.961 387.297 157.832 387.297C158.703 387.297 159.409 386.591 159.409 385.72C159.409 384.849 158.703 384.142 157.832 384.142C156.961 384.142 156.254 384.849 156.254 385.72Z" fill="white"/>
<path d="M144.422 287.121C144.422 287.992 145.129 288.698 146 288.698C146.871 288.698 147.578 287.992 147.578 287.121C147.578 286.249 146.871 285.543 146 285.543C145.129 285.543 144.422 286.249 144.422 287.121Z" fill="white"/>
<path d="M148.366 290.276C148.366 291.147 149.073 291.853 149.944 291.853C150.815 291.853 151.521 291.147 151.521 290.276C151.521 289.405 150.815 288.698 149.944 288.698C149.073 288.698 148.366 289.405 148.366 290.276Z" fill="white"/>
<path d="M135.746 283.177C135.746 284.048 136.452 284.754 137.323 284.754C138.195 284.754 138.901 284.048 138.901 283.177C138.901 282.305 138.195 281.599 137.323 281.599C136.452 281.599 135.746 282.305 135.746 283.177Z" fill="white"/>
<path d="M153.099 271.345C153.099 272.216 153.806 272.922 154.677 272.922C155.548 272.922 156.254 272.216 156.254 271.345C156.254 270.474 155.548 269.767 154.677 269.767C153.806 269.767 153.099 270.474 153.099 271.345Z" fill="white"/>
<path d="M144.422 263.457C144.422 264.328 145.129 265.034 146 265.034C146.871 265.034 147.578 264.328 147.578 263.457C147.578 262.586 146.871 261.879 146 261.879C145.129 261.879 144.422 262.586 144.422 263.457Z" fill="white"/>
<path d="M149.155 280.022C149.155 280.893 149.861 281.599 150.733 281.599C151.604 281.599 152.31 280.893 152.31 280.022C152.31 279.15 151.604 278.444 150.733 278.444C149.861 278.444 149.155 279.15 149.155 280.022Z" fill="white"/>
<path d="M172.819 295.009C172.819 295.88 173.525 296.586 174.397 296.586C175.268 296.586 175.974 295.88 175.974 295.009C175.974 294.137 175.268 293.431 174.397 293.431C173.525 293.431 172.819 294.137 172.819 295.009Z" fill="white"/>
<path d="M175.185 311.573C175.185 312.445 175.892 313.151 176.763 313.151C177.634 313.151 178.341 312.445 178.341 311.573C178.341 310.702 177.634 309.996 176.763 309.996C175.892 309.996 175.185 310.702 175.185 311.573Z" fill="white"/>
<path d="M156.254 298.164C156.254 299.035 156.961 299.741 157.832 299.741C158.703 299.741 159.409 299.035 159.409 298.164C159.409 297.292 158.703 296.586 157.832 296.586C156.961 296.586 156.254 297.292 156.254 298.164Z" fill="white"/>
<path d="M164.931 306.841C164.931 307.712 165.637 308.418 166.509 308.418C167.38 308.418 168.086 307.712 168.086 306.841C168.086 305.969 167.38 305.263 166.509 305.263C165.637 305.263 164.931 305.969 164.931 306.841Z" fill="white"/>
<path d="M163.353 311.573C163.353 312.445 164.06 313.151 164.931 313.151C165.802 313.151 166.509 312.445 166.509 311.573C166.509 310.702 165.802 309.996 164.931 309.996C164.06 309.996 163.353 310.702 163.353 311.573Z" fill="white"/>
<path d="M175.974 328.927C175.974 329.798 176.681 330.504 177.552 330.504C178.423 330.504 179.129 329.798 179.129 328.927C179.129 328.055 178.423 327.349 177.552 327.349C176.681 327.349 175.974 328.055 175.974 328.927Z" fill="white"/>
<path d="M171.241 339.181C171.241 340.052 171.948 340.759 172.819 340.759C173.69 340.759 174.396 340.052 174.396 339.181C174.396 338.31 173.69 337.603 172.819 337.603C171.948 337.603 171.241 338.31 171.241 339.181Z" fill="white"/>
<path d="M182.285 346.28C182.285 347.151 182.991 347.858 183.862 347.858C184.733 347.858 185.44 347.151 185.44 346.28C185.44 345.409 184.733 344.703 183.862 344.703C182.991 344.703 182.285 345.409 182.285 346.28Z" fill="white"/>
<path d="M184.651 358.901C184.651 359.772 185.357 360.478 186.229 360.478C187.1 360.478 187.806 359.772 187.806 358.901C187.806 358.03 187.1 357.323 186.229 357.323C185.357 357.323 184.651 358.03 184.651 358.901Z" fill="white"/>
<path d="M198.06 375.466C198.06 376.337 198.767 377.043 199.638 377.043C200.509 377.043 201.216 376.337 201.216 375.466C201.216 374.594 200.509 373.888 199.638 373.888C198.767 373.888 198.06 374.594 198.06 375.466Z" fill="white"/>
<path d="M205.16 393.608C205.16 394.479 205.866 395.185 206.737 395.185C207.608 395.185 208.315 394.479 208.315 393.608C208.315 392.736 207.608 392.03 206.737 392.03C205.866 392.03 205.16 392.736 205.16 393.608Z" fill="white"/>
<path d="M208.315 410.961C208.315 411.832 209.021 412.539 209.892 412.539C210.763 412.539 211.47 411.832 211.47 410.961C211.47 410.09 210.763 409.384 209.892 409.384C209.021 409.384 208.315 410.09 208.315 410.961Z" fill="white"/>
<path d="M186.228 367.578C186.228 368.449 186.935 369.155 187.806 369.155C188.677 369.155 189.384 368.449 189.384 367.578C189.384 366.706 188.677 366 187.806 366C186.935 366 186.228 366.706 186.228 367.578Z" fill="white"/>
<path d="M119.181 303.685C119.181 304.557 119.887 305.263 120.759 305.263C121.63 305.263 122.336 304.557 122.336 303.685C122.336 302.814 121.63 302.108 120.759 302.108C119.887 302.108 119.181 302.814 119.181 303.685Z" fill="white"/>
<circle cx="1.57759" cy="1.57759" r="1.57759" transform="matrix(-1 0 0 1 106.56 163.28)" fill="white"/>
<circle cx="1.57759" cy="1.57759" r="1.57759" transform="matrix(-1 0 0 1 89.2068 111.22)" fill="white"/>
</g>
</svg>
