<svg width="464" height="823" viewBox="0 0 464 823" fill="none" xmlns="http://www.w3.org/2000/svg">
<path d="M260 60L272 40" stroke="white" stroke-width="0.5"/>
<path d="M280.571 55L272 40L296 35" stroke="white" stroke-width="0.5"/>
<path d="M311 25L306 12" stroke="white" stroke-width="0.5"/>
<path d="M306 12L322 23" stroke="white" stroke-width="0.5"/>
<path d="M331 20L306 12" stroke="white" stroke-width="0.5"/>
<path d="M352 3L362 53" stroke="white" stroke-width="0.5"/>
<path d="M388 53L352 3" stroke="white" stroke-width="0.5"/>
<path d="M416 50L423 41" stroke="white" stroke-width="0.5"/>
<path d="M440 77L424 41" stroke="white" stroke-width="0.5"/>
<path d="M440 77L455 91" stroke="white" stroke-width="0.5"/>
<path d="M440 77L415 50" stroke="white" stroke-width="0.5"/>
<path d="M389 99L423 122" stroke="white" stroke-width="0.5"/>
<path d="M342 81L358 87" stroke="white" stroke-width="0.5"/>
<path d="M273 77L267 87" stroke="white" stroke-width="0.5"/>
<path d="M273 77L302 75" stroke="white" stroke-width="0.5"/>
<path d="M261 67L254 80" stroke="white" stroke-width="0.5"/>
<path d="M226 131L168 230" stroke="white" stroke-width="0.5"/>
<path d="M168 230L149 309" stroke="white" stroke-width="0.5"/>
<path d="M149 309V376" stroke="white" stroke-width="0.5"/>
<path d="M149 376L160 409" stroke="white" stroke-width="0.5"/>
<path d="M160 409L149 341" stroke="white" stroke-width="0.5"/>
<path d="M149 341L155 271" stroke="white" stroke-width="0.5"/>
<path d="M155 271L168 230" stroke="white" stroke-width="0.5"/>
<path d="M168 230L198 187" stroke="white" stroke-width="0.5"/>
<path d="M198 187L226 131" stroke="white" stroke-width="0.5"/>
<path d="M257 152L272 177" stroke="white" stroke-width="0.5"/>
<path d="M272 177L256 223" stroke="white" stroke-width="0.5"/>
<path d="M256 223L226 290" stroke="white" stroke-width="0.5"/>
<path d="M226 290L221 343" stroke="white" stroke-width="0.5"/>
<path d="M221 343L245 391" stroke="white" stroke-width="0.5"/>
<path d="M245 391L256 423" stroke="white" stroke-width="0.5"/>
<path d="M256 423L241 444" stroke="white" stroke-width="0.5"/>
<path d="M241 444L219 460" stroke="white" stroke-width="0.5"/>
<path d="M219 460L216 489" stroke="white" stroke-width="0.5"/>
<path d="M216 489L234 520" stroke="white" stroke-width="0.5"/>
<path d="M234 520L230 527" stroke="white" stroke-width="0.5"/>
<path d="M230 527L247 541" stroke="white" stroke-width="0.5"/>
<path d="M247 541L252 563" stroke="white" stroke-width="0.5"/>
<path d="M252 563L231 589.5" stroke="white" stroke-width="0.5"/>
<path d="M231 589L206 593" stroke="white" stroke-width="0.5"/>
<path d="M206 593L186 612" stroke="white" stroke-width="0.5"/>
<path d="M187 611.5L179 642" stroke="white" stroke-width="0.5"/>
<path d="M179 642L162 661" stroke="white" stroke-width="0.5"/>
<path d="M162 661L119 680" stroke="white" stroke-width="0.5"/>
<path d="M119 680L89 674" stroke="white" stroke-width="0.5"/>
<path d="M89 674L68 676" stroke="white" stroke-width="0.5"/>
<path d="M68 676L51 694" stroke="white" stroke-width="0.5"/>
<path d="M51 694L42 714" stroke="white" stroke-width="0.5"/>
<path d="M42 714L11 716" stroke="white" stroke-width="0.5"/>
<path d="M11 716L2 730" stroke="white" stroke-width="0.5"/>
<path d="M2 730L9 765" stroke="white" stroke-width="0.5"/>
<path d="M25 792L2 730" stroke="white" stroke-width="0.5"/>
<path d="M2 730L17 695" stroke="white" stroke-width="0.5"/>
<path d="M17 695L50 669" stroke="white" stroke-width="0.5"/>
<path d="M51 669L93 623" stroke="white" stroke-width="0.5"/>
<path d="M93 623L114 599" stroke="white" stroke-width="0.5"/>
<path d="M114 599L147 582" stroke="white" stroke-width="0.5"/>
<path d="M147 582V553" stroke="white" stroke-width="0.5"/>
<path d="M147 553L186 519" stroke="white" stroke-width="0.5"/>
<path d="M186 519L198 474.5L209.5 467" stroke="white" stroke-width="0.5"/>
<path d="M198 475L210 440" stroke="white" stroke-width="0.5"/>
<path d="M210 440L216 418" stroke="white" stroke-width="0.5"/>
<path d="M216 418L224 424" stroke="white" stroke-width="0.5"/>
<path d="M224 424L219 440" stroke="white" stroke-width="0.5"/>
<path d="M219 440L210 466" stroke="white" stroke-width="0.5"/>
<path d="M224 424L242 444" stroke="white" stroke-width="0.5"/>
<path d="M224 424L231 403" stroke="white" stroke-width="0.5"/>
<path d="M231 403L246 396" stroke="white" stroke-width="0.5"/>
<path d="M216 418L219 389" stroke="white" stroke-width="0.5"/>
<path d="M219 389L235 373" stroke="white" stroke-width="0.5"/>
<path d="M216 418L224 397" stroke="white" stroke-width="0.5"/>
<path d="M224 397L240 382" stroke="white" stroke-width="0.5"/>
<path d="M241 444L252 454" stroke="white" stroke-width="0.5"/>
<path d="M252 454L246 470" stroke="white" stroke-width="0.5"/>
<path d="M246 470L234 489" stroke="white" stroke-width="0.5"/>
<path d="M234 487V520" stroke="white" stroke-width="0.5"/>
<path d="M237 481L227 465" stroke="white" stroke-width="0.5"/>
<path d="M245 471L231 459" stroke="white" stroke-width="0.5"/>
<path d="M250 461L239 454" stroke="white" stroke-width="0.5"/>
<path d="M234 496L222 476" stroke="white" stroke-width="0.5"/>
<path d="M234 506L221 487" stroke="white" stroke-width="0.5"/>
<path d="M234 520L242 516" stroke="white" stroke-width="0.5"/>
<path d="M242 516L234 495" stroke="white" stroke-width="0.5"/>
<path d="M230 527L214 506" stroke="white" stroke-width="0.5"/>
<path d="M247 568L219 530" stroke="white" stroke-width="0.5"/>
<path d="M235 584L212 543" stroke="white" stroke-width="0.5"/>
<path d="M224 591L211 561" stroke="white" stroke-width="0.5"/>
<path d="M199 548L196 578" stroke="white" stroke-width="0.5"/>
<path d="M199 548L206 516" stroke="white" stroke-width="0.5"/>
<path d="M210 466L206 516" stroke="white" stroke-width="0.5"/>
<path d="M206 511L186 527" stroke="white" stroke-width="0.5"/>
<path d="M188 536L206 517" stroke="white" stroke-width="0.5"/>
<path d="M147 553L190 541" stroke="white" stroke-width="0.5"/>
<path d="M147 562L181 548" stroke="white" stroke-width="0.5"/>
<path d="M147 577L176 565" stroke="white" stroke-width="0.5"/>
<path d="M199 548L174 592" stroke="white" stroke-width="0.5"/>
<path d="M174 592L114 608.5" stroke="white" stroke-width="0.5"/>
<path d="M174 592L119 644" stroke="white" stroke-width="0.5"/>
<path d="M118.5 644.5L80 668" stroke="white" stroke-width="0.5"/>
<path d="M68 676L93 642" stroke="white" stroke-width="0.5"/>
<path d="M93 642L96 620" stroke="white" stroke-width="0.5"/>
<path d="M9 765L25 792" stroke="white" stroke-width="0.5"/>
<path d="M25 792L30 821" stroke="white" stroke-width="0.5"/>
<path d="M388 53L423 41" stroke="white" stroke-width="0.5"/>
<path d="M220 90L226 131" stroke="white" stroke-width="0.5"/>
<path d="M226 131L231 97" stroke="white" stroke-width="0.5"/>
<path d="M231 97.4L261.833 103L291 91" stroke="white" stroke-width="0.5"/>
<path d="M291 91L327.178 106L365 99.3333" stroke="white" stroke-width="0.5"/>
<path d="M365 100L390.686 118.071L423 122" stroke="white" stroke-width="0.5"/>
<path d="M423 122L441 142" stroke="white" stroke-width="0.5"/>
<path d="M441 142L462 141" stroke="white" stroke-width="0.5"/>
<path d="M424 122L423 103" stroke="white" stroke-width="0.5"/>
<path d="M365 100L389 99" stroke="white" stroke-width="0.5"/>
<path d="M365 99L357 87" stroke="white" stroke-width="0.5"/>
<path d="M291 91L302 75" stroke="white" stroke-width="0.5"/>
<path d="M367 100L344 82" stroke="white" stroke-width="0.5"/>
<path d="M292 91C291.309 90.3412 279.045 81.3922 273 77" stroke="white" stroke-width="0.5"/>
<path d="M292 90L267 87" stroke="white" stroke-width="0.5"/>
<path d="M231 99L234 87" stroke="white" stroke-width="0.5"/>
<path d="M226 131L246 154" stroke="white" stroke-width="0.5"/>
<path d="M257 152L231 97" stroke="white" stroke-width="0.5"/>
<path d="M257 152L245 156" stroke="white" stroke-width="0.5"/>
<path d="M257 152L295 156" stroke="white" stroke-width="0.5"/>
<path d="M257 152L297 167" stroke="white" stroke-width="0.5"/>
<path d="M404 181L359 182" stroke="white" stroke-width="0.5"/>
<path d="M404 181L441 168" stroke="white" stroke-width="0.5"/>
<path d="M441 168L462 141" stroke="white" stroke-width="0.5"/>
<path d="M220 90L242 65" stroke="white" stroke-width="0.5"/>
<path d="M242 65L272 40" stroke="white" stroke-width="0.5"/>
<path d="M272 40L306 12" stroke="white" stroke-width="0.5"/>
<path d="M306 12L352 3" stroke="white" stroke-width="0.5"/>
<path d="M352 3L424 41" stroke="white" stroke-width="0.5"/>
<path d="M424 41L456 91" stroke="white" stroke-width="0.5"/>
<path d="M456 91L462 141" stroke="white" stroke-width="0.5"/>
<path d="M462 141L431 95" stroke="white" stroke-width="0.5"/>
<path d="M431 95L372 70" stroke="white" stroke-width="0.5"/>
<path d="M372 70L321 61" stroke="white" stroke-width="0.5"/>
<path d="M321 61L262 67" stroke="white" stroke-width="0.5"/>
<path d="M262 67L220 89" stroke="white" stroke-width="0.5"/>
<path d="M334 516L337 475" stroke="white" stroke-width="0.5"/>
<path d="M337 475L327 429" stroke="white" stroke-width="0.5"/>
<path d="M327 429L332 333" stroke="white" stroke-width="0.5"/>
<path d="M332 333L350 258" stroke="white" stroke-width="0.5"/>
<path d="M352 258L386 212" stroke="white" stroke-width="0.5"/>
<path d="M386 212L418 186" stroke="white" stroke-width="0.5"/>
<path d="M430 151L423 190" stroke="white" stroke-width="0.5"/>
<path d="M432 161L441 142" stroke="white" stroke-width="0.5"/>
<path d="M441 142L430 151" stroke="white" stroke-width="0.5"/>
<path d="M430 151L405 181" stroke="white" stroke-width="0.5"/>
<path d="M430 151L419 186" stroke="white" stroke-width="0.5"/>
<path d="M276 112L231 97" stroke="white" stroke-width="0.5"/>
<path d="M276 112L260 102" stroke="white" stroke-width="0.5"/>
<path d="M276 112C275.333 112 259.056 115.333 251 117" stroke="white" stroke-width="0.5"/>
<path d="M421 192L350 258" stroke="white" stroke-width="0.5"/>
<path d="M337 333L350 258" stroke="white" stroke-width="0.5"/>
<path d="M337 333L326 382" stroke="white" stroke-width="0.5"/>
<path d="M326 382V429" stroke="white" stroke-width="0.5"/>
<path d="M408 132L423 122" stroke="white" stroke-width="0.5"/>
<path d="M408 132L389 151" stroke="white" stroke-width="0.5"/>
<path d="M389 151L384 161" stroke="white" stroke-width="0.5"/>
<path d="M384 161L359 182" stroke="white" stroke-width="0.5"/>
<path d="M389 136L424 122" stroke="white" stroke-width="0.5"/>
<path d="M389 137L360 182" stroke="white" stroke-width="0.5"/>
<path d="M364 158L375 126" stroke="white" stroke-width="0.5"/>
<path d="M364 158L347 194" stroke="white" stroke-width="0.5"/>
<path d="M347 194L360 182" stroke="white" stroke-width="0.5"/>
<path d="M349 123L347 149" stroke="white" stroke-width="0.5"/>
<path d="M347 149L339 235" stroke="white" stroke-width="0.5"/>
<path d="M283 121L261 130" stroke="white" stroke-width="0.5"/>
<path d="M262 130L257 152" stroke="white" stroke-width="0.5"/>
<path d="M295 108L307 143" stroke="white" stroke-width="0.5"/>
<path d="M307 143L298 186" stroke="white" stroke-width="0.5"/>
<path d="M298 186L275 233" stroke="white" stroke-width="0.5"/>
<path d="M285 208L276 231" stroke="white" stroke-width="0.5"/>
<path d="M297 210L268 270" stroke="white" stroke-width="0.5"/>
<path d="M312 199L303 225" stroke="white" stroke-width="0.5"/>
<path d="M303 225L278 269" stroke="white" stroke-width="0.5"/>
<path d="M324 184L333 125" stroke="white" stroke-width="0.5"/>
<path d="M332 168L333 125" stroke="white" stroke-width="0.5"/>
<path d="M314 230L304 292" stroke="white" stroke-width="0.5"/>
<path d="M304 291L319 268" stroke="white" stroke-width="0.5"/>
<path d="M319 268L329 200" stroke="white" stroke-width="0.5"/>
<path d="M329 200L332 167" stroke="white" stroke-width="0.5"/>
<path d="M334 205L332 255" stroke="white" stroke-width="0.5"/>
<path d="M332 255L339 235" stroke="white" stroke-width="0.5"/>
<path d="M332 255L319 268" stroke="white" stroke-width="0.5"/>
<path d="M347 194L339 235" stroke="white" stroke-width="0.5"/>
<path d="M405 181L354 219" stroke="white" stroke-width="0.5"/>
<path d="M354 219L337 275" stroke="white" stroke-width="0.5"/>
<path d="M337 275L324 325" stroke="white" stroke-width="0.5"/>
<path d="M324 325L297 381" stroke="white" stroke-width="0.5"/>
<path d="M297 381L270 438" stroke="white" stroke-width="0.5"/>
<path d="M270 437V497" stroke="white" stroke-width="0.5"/>
<path d="M270 497L290 551" stroke="white" stroke-width="0.5"/>
<path d="M246 156L216 188" stroke="white" stroke-width="0.5"/>
<path d="M216 188L196 250" stroke="white" stroke-width="0.5"/>
<path d="M196 250L189 314" stroke="white" stroke-width="0.5"/>
<path d="M189 314L178 361" stroke="white" stroke-width="0.5"/>
<path d="M178 361L140 410" stroke="white" stroke-width="0.5"/>
<path d="M140 410L118 459" stroke="white" stroke-width="0.5"/>
<path d="M118 459L114 530" stroke="white" stroke-width="0.5"/>
<path d="M114 530L133 583" stroke="white" stroke-width="0.5"/>
<path d="M133 583L112 533" stroke="white" stroke-width="0.5"/>
<path d="M112 533L118 459" stroke="white" stroke-width="0.5"/>
<path d="M140 410L183 341" stroke="white" stroke-width="0.5"/>
<path d="M257 152L250 200" stroke="white" stroke-width="0.5"/>
<path d="M250 200L208 270" stroke="white" stroke-width="0.5"/>
<path d="M208 270L164 323" stroke="white" stroke-width="0.5"/>
<path d="M164 323L122 396" stroke="white" stroke-width="0.5"/>
<path d="M121.5 396.5L94 451" stroke="white" stroke-width="0.5"/>
<path d="M94 451L88 548" stroke="white" stroke-width="0.5"/>
<path d="M68 676L73 654" stroke="white" stroke-width="0.5"/>
<path d="M56 689L63 668" stroke="white" stroke-width="0.5"/>
<path d="M41 714V697" stroke="white" stroke-width="0.5"/>
<path d="M41 697L51 676" stroke="white" stroke-width="0.5"/>
<path d="M16 705L50 669" stroke="white" stroke-width="0.5"/>
<path d="M114 679L127 647" stroke="white" stroke-width="0.5"/>
<path d="M142 670L148 637" stroke="white" stroke-width="0.5"/>
<path d="M153 665L158 648" stroke="white" stroke-width="0.5"/>
<path d="M161 660.5L164 622" stroke="white" stroke-width="0.5"/>
<path d="M174 648L176 608" stroke="white" stroke-width="0.5"/>
<path d="M187 611L188 586" stroke="white" stroke-width="0.5"/>
<path d="M224 566L272 528" stroke="white" stroke-width="0.5"/>
<path d="M272 528L314 483" stroke="white" stroke-width="0.5"/>
<path d="M314 483L349 430" stroke="white" stroke-width="0.5"/>
<path d="M349 430L369 368" stroke="white" stroke-width="0.5"/>
<path d="M370 368L383 301" stroke="white" stroke-width="0.5"/>
<path d="M383 301L379 243" stroke="white" stroke-width="0.5"/>
<path d="M379 243L375 176" stroke="white" stroke-width="0.5"/>
<path d="M384 161L375 176" stroke="white" stroke-width="0.5"/>
<path d="M375 176L384 240" stroke="white" stroke-width="0.5"/>
<path d="M384 240L381 301" stroke="white" stroke-width="0.5"/>
<path d="M381 301L380 348" stroke="white" stroke-width="0.5"/>
<path d="M380 348L370 368" stroke="white" stroke-width="0.5"/>
<path d="M370 368L362 409" stroke="white" stroke-width="0.5"/>
<path d="M362 409L349 430" stroke="white" stroke-width="0.5"/>
<path d="M349 430L319 483" stroke="white" stroke-width="0.5"/>
<path d="M319 483L272 528" stroke="white" stroke-width="0.5"/>
<path d="M256 423L254 394" stroke="white" stroke-width="0.5"/>
<path d="M254 394L246 396" stroke="white" stroke-width="0.5"/>
<path d="M254 394L275 376" stroke="white" stroke-width="0.5"/>
<path d="M263 386L270 361" stroke="white" stroke-width="0.5"/>
<path d="M275 376L277 341" stroke="white" stroke-width="0.5"/>
<path d="M277 341L287 322" stroke="white" stroke-width="0.5"/>
<path d="M277 358L297 336" stroke="white" stroke-width="0.5"/>
<path d="M297 336L304 292" stroke="white" stroke-width="0.5"/>
<path d="M304 291L278 318" stroke="white" stroke-width="0.5"/>
<path d="M278 318L261 326" stroke="white" stroke-width="0.5"/>
<path d="M261 326C260.336 325.2 234.723 323.667 222 323" stroke="white" stroke-width="0.5"/>
<path d="M222 323L209 336" stroke="white" stroke-width="0.5"/>
<path d="M222 323L250 301" stroke="white" stroke-width="0.5"/>
<path d="M250 301L260 281" stroke="white" stroke-width="0.5"/>
<path d="M260 281L278 301" stroke="white" stroke-width="0.5"/>
<path d="M278 301V318" stroke="white" stroke-width="0.5"/>
<path d="M260 281L252 268" stroke="white" stroke-width="0.5"/>
<path d="M252 268L258 254" stroke="white" stroke-width="0.5"/>
<path d="M252 268L273 244" stroke="white" stroke-width="0.5"/>
<path d="M277 301L280 277" stroke="white" stroke-width="0.5"/>
<path d="M278 318L287 294" stroke="white" stroke-width="0.5"/>
<path d="M263 331L281 325" stroke="white" stroke-width="0.5"/>
<path d="M226 367L242 358" stroke="white" stroke-width="0.5"/>
<path d="M242 358L261 326" stroke="white" stroke-width="0.5"/>
<path d="M250 326L193 396" stroke="white" stroke-width="0.5"/>
<path d="M193 396L196 374" stroke="white" stroke-width="0.5"/>
<path d="M196 374L232 333" stroke="white" stroke-width="0.5"/>
<path d="M193 396L192 416.5" stroke="white" stroke-width="0.5"/>
<path d="M191 419L206 388" stroke="white" stroke-width="0.5"/>
<path d="M191 419L184 439" stroke="white" stroke-width="0.5"/>
<path d="M184 439L181 455" stroke="white" stroke-width="0.5"/>
<path d="M181 455L198 430" stroke="white" stroke-width="0.5"/>
<path d="M198 430L209 396" stroke="white" stroke-width="0.5"/>
<path d="M209 396L216 377" stroke="white" stroke-width="0.5"/>
<path d="M181 455L164 476" stroke="white" stroke-width="0.5"/>
<path d="M164 476L154 499" stroke="white" stroke-width="0.5"/>
<path d="M155.286 500L152 520M198 430L179.107 465.833" stroke="white" stroke-width="0.5"/>
<path d="M164 476L179 466" stroke="white" stroke-width="0.5"/>
<path d="M244 391L257 366" stroke="white" stroke-width="0.5"/>
<path d="M252 394L261 371" stroke="white" stroke-width="0.5"/>
<path d="M250 200L235 235" stroke="white" stroke-width="0.5"/>
<path d="M234 235L208 270" stroke="white" stroke-width="0.5"/>
<circle cx="242" cy="63" r="2" fill="white"/>
<circle cx="272" cy="38" r="2" fill="white"/>
<circle cx="304" cy="10" r="2" fill="white"/>
<circle cx="351" cy="2" r="2" fill="white"/>
<circle cx="415" cy="48" r="2" fill="white"/>
<circle cx="422" cy="40" r="2" fill="white"/>
<circle cx="454" cy="89" r="2" fill="white"/>
<circle cx="438" cy="77" r="2" fill="white"/>
<circle cx="462" cy="139" r="2" fill="white"/>
<circle cx="371" cy="68" r="2" fill="white"/>
<circle cx="361" cy="52" r="2" fill="white"/>
<circle cx="387" cy="52" r="2" fill="white"/>
<circle cx="331" cy="20" r="2" fill="white"/>
<circle cx="323" cy="23" r="2" fill="white"/>
<circle cx="297" cy="35" r="2" fill="white"/>
<circle cx="282" cy="55" r="2" fill="white"/>
<circle cx="259" cy="60" r="2" fill="white"/>
<circle cx="311" cy="25" r="2" fill="white"/>
<circle cx="429" cy="93" r="2" fill="white"/>
<circle cx="319" cy="60" r="2" fill="white"/>
<circle cx="253" cy="79" r="2" fill="white"/>
<circle cx="259" cy="67" r="2" fill="white"/>
<circle cx="231" cy="97" r="2" fill="white"/>
<circle cx="289" cy="89" r="2" fill="white"/>
<circle cx="259" cy="102" r="2" fill="white"/>
<circle cx="364" cy="98" r="2" fill="white"/>
<circle cx="388" cy="118" r="2" fill="white"/>
<circle cx="326" cy="104" r="2" fill="white"/>
<circle cx="422" cy="122" r="2" fill="white"/>
<circle cx="439" cy="140" r="2" fill="white"/>
<circle cx="403" cy="179" r="2" fill="white"/>
<circle cx="359" cy="180" r="2" fill="white"/>
<circle cx="439" cy="168" r="2" fill="white"/>
<circle cx="226" cy="129" r="2" fill="white"/>
<circle cx="218" cy="88" r="2" fill="white"/>
<circle cx="244" cy="154" r="2" fill="white"/>
<circle cx="257" cy="150" r="2" fill="white"/>
<circle cx="297" cy="165" r="2" fill="white"/>
<circle cx="294" cy="154" r="2" fill="white"/>
<circle cx="197" cy="189" r="2" fill="white"/>
<path d="M218 188C218 189.105 217.105 190 216 190C214.895 190 214 189.105 214 188C214 186.895 214.895 186 216 186C217.105 186 218 186.895 218 188Z" fill="white"/>
<path d="M253 201C253 202.105 252.105 203 251 203C249.895 203 249 202.105 249 201C249 199.895 249.895 199 251 199C252.105 199 253 199.895 253 201Z" fill="white"/>
<path d="M166 324C166 325.105 165.105 326 164 326C162.895 326 162 325.105 162 324C162 322.895 162.895 322 164 322C165.105 322 166 322.895 166 324Z" fill="white"/>
<path d="M124 395C124 396.105 123.105 397 122 397C120.895 397 120 396.105 120 395C120 393.895 120.895 393 122 393C123.105 393 124 393.895 124 395Z" fill="white"/>
<path d="M98 451C98 452.105 97.1046 453 96 453C94.8954 453 94 452.105 94 451C94 449.895 94.8954 449 96 449C97.1046 449 98 449.895 98 451Z" fill="white"/>
<path d="M91 549C91 550.105 90.1046 551 89 551C87.8954 551 87 550.105 87 549C87 547.895 87.8954 547 89 547C90.1046 547 91 547.895 91 549Z" fill="white"/>
<path d="M210 270C210 271.105 209.105 272 208 272C206.895 272 206 271.105 206 270C206 268.895 206.895 268 208 268C209.105 268 210 268.895 210 270Z" fill="white"/>
<path d="M199 250C199 251.105 198.105 252 197 252C195.895 252 195 251.105 195 250C195 248.895 195.895 248 197 248C198.105 248 199 248.895 199 250Z" fill="white"/>
<path d="M190 314C190 315.105 189.105 316 188 316C186.895 316 186 315.105 186 314C186 312.895 186.895 312 188 312C189.105 312 190 312.895 190 314Z" fill="white"/>
<path d="M183 343C183 344.105 182.105 345 181 345C179.895 345 179 344.105 179 343C179 341.895 179.895 341 181 341C182.105 341 183 341.895 183 343Z" fill="white"/>
<path d="M180 361C180 362.105 179.105 363 178 363C176.895 363 176 362.105 176 361C176 359.895 176.895 359 178 359C179.105 359 180 359.895 180 361Z" fill="white"/>
<path d="M143 409C143 410.105 142.105 411 141 411C139.895 411 139 410.105 139 409C139 407.895 139.895 407 141 407C142.105 407 143 407.895 143 409Z" fill="white"/>
<path d="M121 460C121 461.105 120.105 462 119 462C117.895 462 117 461.105 117 460C117 458.895 117.895 458 119 458C120.105 458 121 458.895 121 460Z" fill="white"/>
<path d="M116 529C116 530.105 115.105 531 114 531C112.895 531 112 530.105 112 529C112 527.895 112.895 527 114 527C115.105 527 116 527.895 116 529Z" fill="white"/>
<path d="M115 534C115 535.105 114.105 536 113 536C111.895 536 111 535.105 111 534C111 532.895 111.895 532 113 532C114.105 532 115 532.895 115 534Z" fill="white"/>
<path d="M136 584C136 585.105 135.105 586 134 586C132.895 586 132 585.105 132 584C132 582.895 132.895 582 134 582C135.105 582 136 582.895 136 584Z" fill="white"/>
<circle cx="167" cy="229" r="2" fill="white"/>
<circle cx="156" cy="272" r="2" fill="white"/>
<circle cx="149" cy="308" r="2" fill="white"/>
<path d="M152 340C152 341.105 151.105 342 150 342C148.895 342 148 341.105 148 340C148 338.895 148.895 338 150 338C151.105 338 152 338.895 152 340Z" fill="white"/>
<path d="M151 375C151 376.105 150.105 377 149 377C147.895 377 147 376.105 147 375C147 373.895 147.895 373 149 373C150.105 373 151 373.895 151 375Z" fill="white"/>
<path d="M162 410C162 411.105 161.105 412 160 412C158.895 412 158 411.105 158 410C158 408.895 158.895 408 160 408C161.105 408 162 408.895 162 410Z" fill="white"/>
<circle cx="273" cy="77" r="2" fill="white"/>
<circle cx="267" cy="87" r="2" fill="white"/>
<circle cx="233" cy="87" r="2" fill="white"/>
<circle cx="301" cy="74" r="2" fill="white"/>
<circle cx="342" cy="82" r="2" fill="white"/>
<circle cx="357" cy="87" r="2" fill="white"/>
<circle cx="388" cy="98" r="2" fill="white"/>
<circle cx="422" cy="103" r="2" fill="white"/>
<circle cx="283" cy="119" r="2" fill="white"/>
<circle cx="294" cy="108" r="2" fill="white"/>
<circle cx="333" cy="124" r="2" fill="white"/>
<circle cx="346" cy="149" r="2" fill="white"/>
<circle cx="262" cy="129" r="2" fill="white"/>
<circle cx="252" cy="118" r="2" fill="white"/>
<circle cx="277" cy="113" r="2" fill="white"/>
<circle cx="376" cy="125" r="2" fill="white"/>
<circle cx="364" cy="159" r="2" fill="white"/>
<circle cx="346" cy="194" r="2" fill="white"/>
<circle cx="388" cy="135" r="2" fill="white"/>
<circle cx="383" cy="160" r="2" fill="white"/>
<circle cx="388" cy="149" r="2" fill="white"/>
<circle cx="408" cy="133" r="2" fill="white"/>
<circle cx="429" cy="150" r="2" fill="white"/>
<circle cx="433" cy="160" r="2" fill="white"/>
<circle cx="418" cy="185" r="2" fill="white"/>
<circle cx="422" cy="192" r="2" fill="white"/>
<circle cx="387" cy="212" r="2" fill="white"/>
<circle cx="351" cy="258" r="2" fill="white"/>
<circle cx="333" cy="334" r="2" fill="white"/>
<circle cx="326" cy="383" r="2" fill="white"/>
<circle cx="354" cy="219" r="2" fill="white"/>
<circle cx="338" cy="274" r="2" fill="white"/>
<circle cx="324" cy="324" r="2" fill="white"/>
<circle cx="298" cy="380" r="2" fill="white"/>
<circle cx="269" cy="436" r="2" fill="white"/>
<circle cx="269" cy="498" r="2" fill="white"/>
<circle cx="289" cy="550" r="2" fill="white"/>
<circle cx="326" cy="429" r="2" fill="white"/>
<circle cx="336" cy="475" r="2" fill="white"/>
<circle cx="334" cy="516" r="2" fill="white"/>
<circle cx="324" cy="184" r="2" fill="white"/>
<circle cx="311" cy="199" r="2" fill="white"/>
<circle cx="298" cy="210" r="2" fill="white"/>
<circle cx="334" cy="205" r="2" fill="white"/>
<circle cx="339" cy="235" r="2" fill="white"/>
<circle cx="314" cy="230" r="2" fill="white"/>
<circle cx="304" cy="225" r="2" fill="white"/>
<circle cx="279" cy="270" r="2" fill="white"/>
<circle cx="269" cy="270" r="2" fill="white"/>
<path d="M333 255C333 256.105 332.105 257 331 257C329.895 257 329 256.105 329 255C329 253.895 329.895 253 331 253C332.105 253 333 253.895 333 255Z" fill="white"/>
<circle cx="319" cy="267" r="2" fill="white"/>
<circle cx="304" cy="291" r="2" fill="white"/>
<circle cx="333" cy="168" r="2" fill="white"/>
<circle cx="349" cy="124" r="2" fill="white"/>
<circle cx="298" cy="185" r="2" fill="white"/>
<circle cx="277" cy="232" r="2" fill="white"/>
<path d="M238 236C238 237.105 237.105 238 236 238C234.895 238 234 237.105 234 236C234 234.895 234.895 234 236 234C237.105 234 238 234.895 238 236Z" fill="white"/>
<path d="M261 253C261 254.105 260.105 255 259 255C257.895 255 257 254.105 257 253C257 251.895 257.895 251 259 251C260.105 251 261 251.895 261 253Z" fill="white"/>
<path d="M276 243C276 244.105 275.105 245 274 245C272.895 245 272 244.105 272 243C272 241.895 272.895 241 274 241C275.105 241 276 241.895 276 243Z" fill="white"/>
<path d="M255 268C255 269.105 254.105 270 253 270C251.895 270 251 269.105 251 268C251 266.895 251.895 266 253 266C254.105 266 255 266.895 255 268Z" fill="white"/>
<path d="M261 281C261 282.105 260.105 283 259 283C257.895 283 257 282.105 257 281C257 279.895 257.895 279 259 279C260.105 279 261 279.895 261 281Z" fill="white"/>
<path d="M281 278C281 279.105 280.105 280 279 280C277.895 280 277 279.105 277 278C277 276.895 277.895 276 279 276C280.105 276 281 276.895 281 278Z" fill="white"/>
<path d="M289 294C289 295.105 288.105 296 287 296C285.895 296 285 295.105 285 294C285 292.895 285.895 292 287 292C288.105 292 289 292.895 289 294Z" fill="white"/>
<path d="M280 301C280 302.105 279.105 303 278 303C276.895 303 276 302.105 276 301C276 299.895 276.895 299 278 299C279.105 299 280 299.895 280 301Z" fill="white"/>
<path d="M280 318C280 319.105 279.105 320 278 320C276.895 320 276 319.105 276 318C276 316.895 276.895 316 278 316C279.105 316 280 316.895 280 318Z" fill="white"/>
<path d="M264 325C264 326.105 263.105 327 262 327C260.895 327 260 326.105 260 325C260 323.895 260.895 323 262 323C263.105 323 264 323.895 264 325Z" fill="white"/>
<path d="M265 333C265 334.105 264.105 335 263 335C261.895 335 261 334.105 261 333C261 331.895 261.895 331 263 331C264.105 331 265 331.895 265 333Z" fill="white"/>
<path d="M284 325C284 326.105 283.105 327 282 327C280.895 327 280 326.105 280 325C280 323.895 280.895 323 282 323C283.105 323 284 323.895 284 325Z" fill="white"/>
<path d="M254 325C254 326.105 253.105 327 252 327C250.895 327 250 326.105 250 325C250 323.895 250.895 323 252 323C253.105 323 254 323.895 254 325Z" fill="white"/>
<path d="M290 323C290 324.105 289.105 325 288 325C286.895 325 286 324.105 286 323C286 321.895 286.895 321 288 321C289.105 321 290 321.895 290 323Z" fill="white"/>
<path d="M280 343C280 344.105 279.105 345 278 345C276.895 345 276 344.105 276 343C276 341.895 276.895 341 278 341C279.105 341 280 341.895 280 343Z" fill="white"/>
<path d="M279 359C279 360.105 278.105 361 277 361C275.895 361 275 360.105 275 359C275 357.895 275.895 357 277 357C278.105 357 279 357.895 279 359Z" fill="white"/>
<path d="M300 337C300 338.105 299.105 339 298 339C296.895 339 296 338.105 296 337C296 335.895 296.895 335 298 335C299.105 335 300 335.895 300 337Z" fill="white"/>
<path d="M277 375C277 376.105 276.105 377 275 377C273.895 377 273 376.105 273 375C273 373.895 273.895 373 275 373C276.105 373 277 373.895 277 375Z" fill="white"/>
<path d="M271 360C271 361.105 270.105 362 269 362C267.895 362 267 361.105 267 360C267 358.895 267.895 358 269 358C270.105 358 271 358.895 271 360Z" fill="white"/>
<path d="M264 373C264 374.105 263.105 375 262 375C260.895 375 260 374.105 260 373C260 371.895 260.895 371 262 371C263.105 371 264 371.895 264 373Z" fill="white"/>
<path d="M259 365C259 366.105 258.105 367 257 367C255.895 367 255 366.105 255 365C255 363.895 255.895 363 257 363C258.105 363 259 363.895 259 365Z" fill="white"/>
<path d="M255 395C255 396.105 254.105 397 253 397C251.895 397 251 396.105 251 395C251 393.895 251.895 393 253 393C254.105 393 255 393.895 255 395Z" fill="white"/>
<path d="M249 395C249 396.105 248.105 397 247 397C245.895 397 245 396.105 245 395C245 393.895 245.895 393 247 393C248.105 393 249 393.895 249 395Z" fill="white"/>
<path d="M246 390C246 391.105 245.105 392 244 392C242.895 392 242 391.105 242 390C242 388.895 242.895 388 244 388C245.105 388 246 388.895 246 390Z" fill="white"/>
<path d="M241 383C241 384.105 240.105 385 239 385C237.895 385 237 384.105 237 383C237 381.895 237.895 381 239 381C240.105 381 241 381.895 241 383Z" fill="white"/>
<path d="M238 373C238 374.105 237.105 375 236 375C234.895 375 234 374.105 234 373C234 371.895 234.895 371 236 371C237.105 371 238 371.895 238 373Z" fill="white"/>
<path d="M220 389C220 390.105 219.105 391 218 391C216.895 391 216 390.105 216 389C216 387.895 216.895 387 218 387C219.105 387 220 387.895 220 389Z" fill="white"/>
<path d="M225 398C225 399.105 224.105 400 223 400C221.895 400 221 399.105 221 398C221 396.895 221.895 396 223 396C224.105 396 225 396.895 225 398Z" fill="white"/>
<path d="M234 404C234 405.105 233.105 406 232 406C230.895 406 230 405.105 230 404C230 402.895 230.895 402 232 402C233.105 402 234 402.895 234 404Z" fill="white"/>
<path d="M218 417C218 418.105 217.105 419 216 419C214.895 419 214 418.105 214 417C214 415.895 214.895 415 216 415C217.105 415 218 415.895 218 417Z" fill="white"/>
<path d="M225 425C225 426.105 224.105 427 223 427C221.895 427 221 426.105 221 425C221 423.895 221.895 423 223 423C224.105 423 225 423.895 225 425Z" fill="white"/>
<path d="M244 445C244 446.105 243.105 447 242 447C240.895 447 240 446.105 240 445C240 443.895 240.895 443 242 443C243.105 443 244 443.895 244 445Z" fill="white"/>
<path d="M259 424C259 425.105 258.105 426 257 426C255.895 426 255 425.105 255 424C255 422.895 255.895 422 257 422C258.105 422 259 422.895 259 424Z" fill="white"/>
<path d="M255 453C255 454.105 254.105 455 253 455C251.895 455 251 454.105 251 453C251 451.895 251.895 451 253 451C254.105 451 255 451.895 255 453Z" fill="white"/>
<path d="M251 461C251 462.105 250.105 463 249 463C247.895 463 247 462.105 247 461C247 459.895 247.895 459 249 459C250.105 459 251 459.895 251 461Z" fill="white"/>
<path d="M241 455C241 456.105 240.105 457 239 457C237.895 457 237 456.105 237 455C237 453.895 237.895 453 239 453C240.105 453 241 453.895 241 455Z" fill="white"/>
<path d="M234 460C234 461.105 233.105 462 232 462C230.895 462 230 461.105 230 460C230 458.895 230.895 458 232 458C233.105 458 234 458.895 234 460Z" fill="white"/>
<path d="M230 466C230 467.105 229.105 468 228 468C226.895 468 226 467.105 226 466C226 464.895 226.895 464 228 464C229.105 464 230 464.895 230 466Z" fill="white"/>
<path d="M240 481C240 482.105 239.105 483 238 483C236.895 483 236 482.105 236 481C236 479.895 236.895 479 238 479C239.105 479 240 479.895 240 481Z" fill="white"/>
<path d="M238 488C238 489.105 237.105 490 236 490C234.895 490 234 489.105 234 488C234 486.895 234.895 486 236 486C237.105 486 238 486.895 238 488Z" fill="white"/>
<path d="M225 478C225 479.105 224.105 480 223 480C221.895 480 221 479.105 221 478C221 476.895 221.895 476 223 476C224.105 476 225 476.895 225 478Z" fill="white"/>
<path d="M224 488C224 489.105 223.105 490 222 490C220.895 490 220 489.105 220 488C220 486.895 220.895 486 222 486C223.105 486 224 486.895 224 488Z" fill="white"/>
<path d="M221 460C221 461.105 220.105 462 219 462C217.895 462 217 461.105 217 460C217 458.895 217.895 458 219 458C220.105 458 221 458.895 221 460Z" fill="white"/>
<path d="M238 496C238 497.105 237.105 498 236 498C234.895 498 234 497.105 234 496C234 494.895 234.895 494 236 494C237.105 494 238 494.895 238 496Z" fill="white"/>
<path d="M245 518C245 519.105 244.105 520 243 520C241.895 520 241 519.105 241 518C241 516.895 241.895 516 243 516C244.105 516 245 516.895 245 518Z" fill="white"/>
<path d="M235 506C235 507.105 234.105 508 233 508C231.895 508 231 507.105 231 506C231 504.895 231.895 504 233 504C234.105 504 235 504.895 235 506Z" fill="white"/>
<path d="M236 521C236 522.105 235.105 523 234 523C232.895 523 232 522.105 232 521C232 519.895 232.895 519 234 519C235.105 519 236 519.895 236 521Z" fill="white"/>
<path d="M233 528C233 529.105 232.105 530 231 530C229.895 530 229 529.105 229 528C229 526.895 229.895 526 231 526C232.105 526 233 526.895 233 528Z" fill="white"/>
<path d="M218 508C218 509.105 217.105 510 216 510C214.895 510 214 509.105 214 508C214 506.895 214.895 506 216 506C217.105 506 218 506.895 218 508Z" fill="white"/>
<path d="M220 530C220 531.105 219.105 532 218 532C216.895 532 216 531.105 216 530C216 528.895 216.895 528 218 528C219.105 528 220 528.895 220 530Z" fill="white"/>
<path d="M248 540C248 541.105 247.105 542 246 542C244.895 542 244 541.105 244 540C244 538.895 244.895 538 246 538C247.105 538 248 538.895 248 540Z" fill="white"/>
<path d="M240 555C240 556.105 239.105 557 238 557C236.895 557 236 556.105 236 555C236 553.895 236.895 553 238 553C239.105 553 240 553.895 240 555Z" fill="white"/>
<path d="M250 547C250 548.105 249.105 549 248 549C246.895 549 246 548.105 246 547C246 545.895 246.895 545 248 545C249.105 545 250 545.895 250 547Z" fill="white"/>
<path d="M316 483C316 484.105 315.105 485 314 485C312.895 485 312 484.105 312 483C312 481.895 312.895 481 314 481C315.105 481 316 481.895 316 483Z" fill="white"/>
<path d="M321 483C321 484.105 320.105 485 319 485C317.895 485 317 484.105 317 483C317 481.895 317.895 481 319 481C320.105 481 321 481.895 321 483Z" fill="white"/>
<path d="M351 429C351 430.105 350.105 431 349 431C347.895 431 347 430.105 347 429C347 427.895 347.895 427 349 427C350.105 427 351 427.895 351 429Z" fill="white"/>
<path d="M363 410C363 411.105 362.105 412 361 412C359.895 412 359 411.105 359 410C359 408.895 359.895 408 361 408C362.105 408 363 408.895 363 410Z" fill="white"/>
<path d="M371 369C371 370.105 370.105 371 369 371C367.895 371 367 370.105 367 369C367 367.895 367.895 367 369 367C370.105 367 371 367.895 371 369Z" fill="white"/>
<path d="M383 349C383 350.105 382.105 351 381 351C379.895 351 379 350.105 379 349C379 347.895 379.895 347 381 347C382.105 347 383 347.895 383 349Z" fill="white"/>
<path d="M384 301C384 302.105 383.105 303 382 303C380.895 303 380 302.105 380 301C380 299.895 380.895 299 382 299C383.105 299 384 299.895 384 301Z" fill="white"/>
<path d="M385 240C385 241.105 384.105 242 383 242C381.895 242 381 241.105 381 240C381 238.895 381.895 238 383 238C384.105 238 385 238.895 385 240Z" fill="white"/>
<path d="M378 175C378 176.105 377.105 177 376 177C374.895 177 374 176.105 374 175C374 173.895 374.895 173 376 173C377.105 173 378 173.895 378 175Z" fill="white"/>
<path d="M213 560C213 561.105 212.105 562 211 562C209.895 562 209 561.105 209 560C209 558.895 209.895 558 211 558C212.105 558 213 558.895 213 560Z" fill="white"/>
<path d="M215 544C215 545.105 214.105 546 213 546C211.895 546 211 545.105 211 544C211 542.895 211.895 542 213 542C214.105 542 215 542.895 215 544Z" fill="white"/>
<path d="M226 565C226 566.105 225.105 567 224 567C222.895 567 222 566.105 222 565C222 563.895 222.895 563 224 563C225.105 563 226 563.895 226 565Z" fill="white"/>
<path d="M199 579C199 580.105 198.105 581 197 581C195.895 581 195 580.105 195 579C195 577.895 195.895 577 197 577C198.105 577 199 577.895 199 579Z" fill="white"/>
<path d="M190 585C190 586.105 189.105 587 188 587C186.895 587 186 586.105 186 585C186 583.895 186.895 583 188 583C189.105 583 190 583.895 190 585Z" fill="white"/>
<path d="M208 593C208 594.105 207.105 595 206 595C204.895 595 204 594.105 204 593C204 591.895 204.895 591 206 591C207.105 591 208 591.895 208 593Z" fill="white"/>
<path d="M226 591C226 592.105 225.105 593 224 593C222.895 593 222 592.105 222 591C222 589.895 222.895 589 224 589C225.105 589 226 589.895 226 591Z" fill="white"/>
<path d="M233 589C233 590.105 232.105 591 231 591C229.895 591 229 590.105 229 589C229 587.895 229.895 587 231 587C232.105 587 233 587.895 233 589Z" fill="white"/>
<path d="M254 563C254 564.105 253.105 565 252 565C250.895 565 250 564.105 250 563C250 561.895 250.895 561 252 561C253.105 561 254 561.895 254 563Z" fill="white"/>
<path d="M249 569C249 570.105 248.105 571 247 571C245.895 571 245 570.105 245 569C245 567.895 245.895 567 247 567C248.105 567 249 567.895 249 569Z" fill="white"/>
<path d="M237 584C237 585.105 236.105 586 235 586C233.895 586 233 585.105 233 584C233 582.895 233.895 582 235 582C236.105 582 237 582.895 237 584Z" fill="white"/>
<path d="M189 611C189 612.105 188.105 613 187 613C185.895 613 185 612.105 185 611C185 609.895 185.895 609 187 609C188.105 609 189 609.895 189 611Z" fill="white"/>
<path d="M178 608C178 609.105 177.105 610 176 610C174.895 610 174 609.105 174 608C174 606.895 174.895 606 176 606C177.105 606 178 606.895 178 608Z" fill="white"/>
<path d="M181 642C181 643.105 180.105 644 179 644C177.895 644 177 643.105 177 642C177 640.895 177.895 640 179 640C180.105 640 181 640.895 181 642Z" fill="white"/>
<path d="M176 648C176 649.105 175.105 650 174 650C172.895 650 172 649.105 172 648C172 646.895 172.895 646 174 646C175.105 646 176 646.895 176 648Z" fill="white"/>
<path d="M163 660C163 661.105 162.105 662 161 662C159.895 662 159 661.105 159 660C159 658.895 159.895 658 161 658C162.105 658 163 658.895 163 660Z" fill="white"/>
<path d="M155 665C155 666.105 154.105 667 153 667C151.895 667 151 666.105 151 665C151 663.895 151.895 663 153 663C154.105 663 155 663.895 155 665Z" fill="white"/>
<path d="M160 649C160 650.105 159.105 651 158 651C156.895 651 156 650.105 156 649C156 647.895 156.895 647 158 647C159.105 647 160 647.895 160 649Z" fill="white"/>
<path d="M150 636C150 637.105 149.105 638 148 638C146.895 638 146 637.105 146 636C146 634.895 146.895 634 148 634C149.105 634 150 634.895 150 636Z" fill="white"/>
<path d="M166 622C166 623.105 165.105 624 164 624C162.895 624 162 623.105 162 622C162 620.895 162.895 620 164 620C165.105 620 166 620.895 166 622Z" fill="white"/>
<path d="M130 646C130 647.105 129.105 648 128 648C126.895 648 126 647.105 126 646C126 644.895 126.895 644 128 644C129.105 644 130 644.895 130 646Z" fill="white"/>
<path d="M121 644C121 645.105 120.105 646 119 646C117.895 646 117 645.105 117 644C117 642.895 117.895 642 119 642C120.105 642 121 642.895 121 644Z" fill="white"/>
<path d="M121 680C121 681.105 120.105 682 119 682C117.895 682 117 681.105 117 680C117 678.895 117.895 678 119 678C120.105 678 121 678.895 121 680Z" fill="white"/>
<path d="M144 670C144 671.105 143.105 672 142 672C140.895 672 140 671.105 140 670C140 668.895 140.895 668 142 668C143.105 668 144 668.895 144 670Z" fill="white"/>
<path d="M116 680C116 681.105 115.105 682 114 682C112.895 682 112 681.105 112 680C112 678.895 112.895 678 114 678C115.105 678 116 678.895 116 680Z" fill="white"/>
<path d="M93 675C93 676.105 92.1046 677 91 677C89.8954 677 89 676.105 89 675C89 673.895 89.8954 673 91 673C92.1046 673 93 673.895 93 675Z" fill="white"/>
<path d="M82 668C82 669.105 81.1046 670 80 670C78.8954 670 78 669.105 78 668C78 666.895 78.8954 666 80 666C81.1046 666 82 666.895 82 668Z" fill="white"/>
<path d="M72 676C72 677.105 71.1046 678 70 678C68.8954 678 68 677.105 68 676C68 674.895 68.8954 674 70 674C71.1046 674 72 674.895 72 676Z" fill="white"/>
<path d="M75 655C75 656.105 74.1046 657 73 657C71.8954 657 71 656.105 71 655C71 653.895 71.8954 653 73 653C74.1046 653 75 653.895 75 655Z" fill="white"/>
<path d="M65 668C65 669.105 64.1046 670 63 670C61.8954 670 61 669.105 61 668C61 666.895 61.8954 666 63 666C64.1046 666 65 666.895 65 668Z" fill="white"/>
<path d="M95 642C95 643.105 94.1046 644 93 644C91.8954 644 91 643.105 91 642C91 640.895 91.8954 640 93 640C94.1046 640 95 640.895 95 642Z" fill="white"/>
<path d="M98 620C98 621.105 97.1046 622 96 622C94.8954 622 94 621.105 94 620C94 618.895 94.8954 618 96 618C97.1046 618 98 618.895 98 620Z" fill="white"/>
<path d="M116 600C116 601.105 115.105 602 114 602C112.895 602 112 601.105 112 600C112 598.895 112.895 598 114 598C115.105 598 116 598.895 116 600Z" fill="white"/>
<path d="M149 583C149 584.105 148.105 585 147 585C145.895 585 145 584.105 145 583C145 581.895 145.895 581 147 581C148.105 581 149 581.895 149 583Z" fill="white"/>
<path d="M116 609C116 610.105 115.105 611 114 611C112.895 611 112 610.105 112 609C112 607.895 112.895 607 114 607C115.105 607 116 607.895 116 609Z" fill="white"/>
<path d="M175 593C175 594.105 174.105 595 173 595C171.895 595 171 594.105 171 593C171 591.895 171.895 591 173 591C174.105 591 175 591.895 175 593Z" fill="white"/>
<path d="M149 578C149 579.105 148.105 580 147 580C145.895 580 145 579.105 145 578C145 576.895 145.895 576 147 576C148.105 576 149 576.895 149 578Z" fill="white"/>
<path d="M178 565C178 566.105 177.105 567 176 567C174.895 567 174 566.105 174 565C174 563.895 174.895 563 176 563C177.105 563 178 563.895 178 565Z" fill="white"/>
<path d="M149 563C149 564.105 148.105 565 147 565C145.895 565 145 564.105 145 563C145 561.895 145.895 561 147 561C148.105 561 149 561.895 149 563Z" fill="white"/>
<path d="M149 553C149 554.105 148.105 555 147 555C145.895 555 145 554.105 145 553C145 551.895 145.895 551 147 551C148.105 551 149 551.895 149 553Z" fill="white"/>
<path d="M193 540C193 541.105 192.105 542 191 542C189.895 542 189 541.105 189 540C189 538.895 189.895 538 191 538C192.105 538 193 538.895 193 540Z" fill="white"/>
<path d="M183 549C183 550.105 182.105 551 181 551C179.895 551 179 550.105 179 549C179 547.895 179.895 547 181 547C182.105 547 183 547.895 183 549Z" fill="white"/>
<path d="M189 538C189 539.105 188.105 540 187 540C185.895 540 185 539.105 185 538C185 536.895 185.895 536 187 536C188.105 536 189 536.895 189 538Z" fill="white"/>
<path d="M188 528C188 529.105 187.105 530 186 530C184.895 530 184 529.105 184 528C184 526.895 184.895 526 186 526C187.105 526 188 526.895 188 528Z" fill="white"/>
<path d="M189 518C189 519.105 188.105 520 187 520C185.895 520 185 519.105 185 518C185 516.895 185.895 516 187 516C188.105 516 189 516.895 189 518Z" fill="white"/>
<path d="M208 518C208 519.105 207.105 520 206 520C204.895 520 204 519.105 204 518C204 516.895 204.895 516 206 516C207.105 516 208 516.895 208 518Z" fill="white"/>
<path d="M209 511C209 512.105 208.105 513 207 513C205.895 513 205 512.105 205 511C205 509.895 205.895 509 207 509C208.105 509 209 509.895 209 511Z" fill="white"/>
<path d="M212 467C212 468.105 211.105 469 210 469C208.895 469 208 468.105 208 467C208 465.895 208.895 465 210 465C211.105 465 212 465.895 212 467Z" fill="white"/>
<path d="M200 474C200 475.105 199.105 476 198 476C196.895 476 196 475.105 196 474C196 472.895 196.895 472 198 472C199.105 472 200 472.895 200 474Z" fill="white"/>
<path d="M213 441C213 442.105 212.105 443 211 443C209.895 443 209 442.105 209 441C209 439.895 209.895 439 211 439C212.105 439 213 439.895 213 441Z" fill="white"/>
<path d="M53 669C53 670.105 52.1046 671 51 671C49.8954 671 49 670.105 49 669C49 667.895 49.8954 667 51 667C52.1046 667 53 667.895 53 669Z" fill="white"/>
<path d="M54 676C54 677.105 53.1046 678 52 678C50.8954 678 50 677.105 50 676C50 674.895 50.8954 674 52 674C53.1046 674 54 674.895 54 676Z" fill="white"/>
<path d="M43 697C43 698.105 42.1046 699 41 699C39.8954 699 39 698.105 39 697C39 695.895 39.8954 695 41 695C42.1046 695 43 695.895 43 697Z" fill="white"/>
<path d="M53 694C53 695.105 52.1046 696 51 696C49.8954 696 49 695.105 49 694C49 692.895 49.8954 692 51 692C52.1046 692 53 692.895 53 694Z" fill="white"/>
<path d="M59 688C59 689.105 58.1046 690 57 690C55.8954 690 55 689.105 55 688C55 686.895 55.8954 686 57 686C58.1046 686 59 686.895 59 688Z" fill="white"/>
<path d="M44 713C44 714.105 43.1046 715 42 715C40.8954 715 40 714.105 40 713C40 711.895 40.8954 711 42 711C43.1046 711 44 711.895 44 713Z" fill="white"/>
<path d="M19 695C19 696.105 18.1046 697 17 697C15.8954 697 15 696.105 15 695C15 693.895 15.8954 693 17 693C18.1046 693 19 693.895 19 695Z" fill="white"/>
<path d="M18 706C18 707.105 17.1046 708 16 708C14.8954 708 14 707.105 14 706C14 704.895 14.8954 704 16 704C17.1046 704 18 704.895 18 706Z" fill="white"/>
<path d="M14 716C14 717.105 13.1046 718 12 718C10.8954 718 10 717.105 10 716C10 714.895 10.8954 714 12 714C13.1046 714 14 714.895 14 716Z" fill="white"/>
<path d="M4 731C4 732.105 3.10457 733 2 733C0.89543 733 0 732.105 0 731C0 729.895 0.89543 729 2 729C3.10457 729 4 729.895 4 731Z" fill="white"/>
<path d="M11 765C11 766.105 10.1046 767 9 767C7.89543 767 7 766.105 7 765C7 763.895 7.89543 763 9 763C10.1046 763 11 763.895 11 765Z" fill="white"/>
<path d="M27 792C27 793.105 26.1046 794 25 794C23.8954 794 23 793.105 23 792C23 790.895 23.8954 790 25 790C26.1046 790 27 790.895 27 792Z" fill="white"/>
<path d="M32 821C32 822.105 31.1046 823 30 823C28.8954 823 28 822.105 28 821C28 819.895 28.8954 819 30 819C31.1046 819 32 819.895 32 821Z" fill="white"/>
<path d="M219 489C219 490.105 218.105 491 217 491C215.895 491 215 490.105 215 489C215 487.895 215.895 487 217 487C218.105 487 219 487.895 219 489Z" fill="white"/>
<path d="M234 364C234 365.105 233.105 366 232 366C230.895 366 230 365.105 230 364C230 362.895 230.895 362 232 362C233.105 362 234 362.895 234 364Z" fill="white"/>
<path d="M229 368C229 369.105 228.105 370 227 370C225.895 370 225 369.105 225 368C225 366.895 225.895 366 227 366C228.105 366 229 366.895 229 368Z" fill="white"/>
<path d="M245 359C245 360.105 244.105 361 243 361C241.895 361 241 360.105 241 359C241 357.895 241.895 357 243 357C244.105 357 245 357.895 245 359Z" fill="white"/>
<path d="M223 344C223 345.105 222.105 346 221 346C219.895 346 219 345.105 219 344C219 342.895 219.895 342 221 342C222.105 342 223 342.895 223 344Z" fill="white"/>
<path d="M234 334C234 335.105 233.105 336 232 336C230.895 336 230 335.105 230 334C230 332.895 230.895 332 232 332C233.105 332 234 332.895 234 334Z" fill="white"/>
<path d="M228 355C228 356.105 227.105 357 226 357C224.895 357 224 356.105 224 355C224 353.895 224.895 353 226 353C227.105 353 228 353.895 228 355Z" fill="white"/>
<path d="M198 374C198 375.105 197.105 376 196 376C194.895 376 194 375.105 194 374C194 372.895 194.895 372 196 372C197.105 372 198 372.895 198 374Z" fill="white"/>
<path d="M195 395C195 396.105 194.105 397 193 397C191.895 397 191 396.105 191 395C191 393.895 191.895 393 193 393C194.105 393 195 393.895 195 395Z" fill="white"/>
<path d="M219 378C219 379.105 218.105 380 217 380C215.895 380 215 379.105 215 378C215 376.895 215.895 376 217 376C218.105 376 219 376.895 219 378Z" fill="white"/>
<path d="M208 389C208 390.105 207.105 391 206 391C204.895 391 204 390.105 204 389C204 387.895 204.895 387 206 387C207.105 387 208 387.895 208 389Z" fill="white"/>
<path d="M210 395C210 396.105 209.105 397 208 397C206.895 397 206 396.105 206 395C206 393.895 206.895 393 208 393C209.105 393 210 393.895 210 395Z" fill="white"/>
<path d="M194 417C194 418.105 193.105 419 192 419C190.895 419 190 418.105 190 417C190 415.895 190.895 415 192 415C193.105 415 194 415.895 194 417Z" fill="white"/>
<path d="M200 430C200 431.105 199.105 432 198 432C196.895 432 196 431.105 196 430C196 428.895 196.895 428 198 428C199.105 428 200 428.895 200 430Z" fill="white"/>
<path d="M186 439C186 440.105 185.105 441 184 441C182.895 441 182 440.105 182 439C182 437.895 182.895 437 184 437C185.105 437 186 437.895 186 439Z" fill="white"/>
<path d="M183 455C183 456.105 182.105 457 181 457C179.895 457 179 456.105 179 455C179 453.895 179.895 453 181 453C182.105 453 183 453.895 183 455Z" fill="white"/>
<path d="M166 476C166 477.105 165.105 478 164 478C162.895 478 162 477.105 162 476C162 474.895 162.895 474 164 474C165.105 474 166 474.895 166 476Z" fill="white"/>
<path d="M157 499C157 500.105 156.105 501 155 501C153.895 501 153 500.105 153 499C153 497.895 153.895 497 155 497C156.105 497 157 497.895 157 499Z" fill="white"/>
<path d="M153 521C153 522.105 152.105 523 151 523C149.895 523 149 522.105 149 521C149 519.895 149.895 519 151 519C152.105 519 153 519.895 153 521Z" fill="white"/>
<path d="M181 466C181 467.105 180.105 468 179 468C177.895 468 177 467.105 177 466C177 464.895 177.895 464 179 464C180.105 464 181 464.895 181 466Z" fill="white"/>
<path d="M266 385C266 386.105 265.105 387 264 387C262.895 387 262 386.105 262 385C262 383.895 262.895 383 264 383C265.105 383 266 383.895 266 385Z" fill="white"/>
<circle cx="284" cy="209" r="2" fill="white"/>
<circle cx="306" cy="143" r="2" fill="white"/>
</svg>
