<svg width="311" height="551" viewBox="0 0 311 551" fill="none" xmlns="http://www.w3.org/2000/svg">
<g opacity="0.5">
<path d="M174.07 40.1701L182.104 26.78" stroke="white" stroke-width="0.5"/>
<path d="M187.843 36.8227L182.104 26.7801L198.173 23.4326" stroke="white" stroke-width="0.5"/>
<path d="M208.215 16.7376L204.868 8.03406" stroke="white" stroke-width="0.5"/>
<path d="M204.868 8.03406L215.58 15.3986" stroke="white" stroke-width="0.5"/>
<path d="M221.605 13.3901L204.868 8.03406" stroke="white" stroke-width="0.5"/>
<path d="M235.665 2.00854L242.36 35.4836" stroke="white" stroke-width="0.5"/>
<path d="M259.767 35.4836L235.665 2.00854" stroke="white" stroke-width="0.5"/>
<path d="M278.513 33.4751L283.199 27.4496" stroke="white" stroke-width="0.5"/>
<path d="M294.581 51.5517L283.869 27.4496" stroke="white" stroke-width="0.5"/>
<path d="M294.581 51.5516L304.624 60.9247" stroke="white" stroke-width="0.5"/>
<path d="M294.581 51.5516L277.843 33.4751" stroke="white" stroke-width="0.5"/>
<path d="M260.436 66.2806L283.199 81.6792" stroke="white" stroke-width="0.5"/>
<path d="M228.97 54.2296L239.682 58.2466" stroke="white" stroke-width="0.5"/>
<path d="M182.774 51.5516L178.757 58.2467" stroke="white" stroke-width="0.5"/>
<path d="M182.774 51.5517L202.189 50.2126" stroke="white" stroke-width="0.5"/>
<path d="M174.74 44.8566L170.054 53.5601" stroke="white" stroke-width="0.5"/>
<path d="M151.307 87.7047L112.476 153.985" stroke="white" stroke-width="0.5"/>
<path d="M112.476 153.985L99.7559 206.876" stroke="white" stroke-width="0.5"/>
<path d="M99.7559 206.876V251.733" stroke="white" stroke-width="0.5"/>
<path d="M99.7559 251.733L107.12 273.826" stroke="white" stroke-width="0.5"/>
<path d="M107.12 273.826L99.7559 228.3" stroke="white" stroke-width="0.5"/>
<path d="M99.7559 228.3L103.773 181.435" stroke="white" stroke-width="0.5"/>
<path d="M103.773 181.435L112.476 153.985" stroke="white" stroke-width="0.5"/>
<path d="M112.476 153.985L132.561 125.197" stroke="white" stroke-width="0.5"/>
<path d="M132.562 125.197L151.308 87.7047" stroke="white" stroke-width="0.5"/>
<path d="M172.062 101.764L182.105 118.502" stroke="white" stroke-width="0.5"/>
<path d="M182.105 118.502L171.393 149.299" stroke="white" stroke-width="0.5"/>
<path d="M171.393 149.299L151.308 194.156" stroke="white" stroke-width="0.5"/>
<path d="M151.307 194.156L147.96 229.639" stroke="white" stroke-width="0.5"/>
<path d="M147.96 229.639L164.028 261.775" stroke="white" stroke-width="0.5"/>
<path d="M164.028 261.775L171.392 283.199" stroke="white" stroke-width="0.5"/>
<path d="M171.393 283.199L161.35 297.259" stroke="white" stroke-width="0.5"/>
<path d="M161.35 297.259L146.621 307.971" stroke="white" stroke-width="0.5"/>
<path d="M146.621 307.971L144.612 327.386" stroke="white" stroke-width="0.5"/>
<path d="M144.612 327.386L156.663 348.141" stroke="white" stroke-width="0.5"/>
<path d="M156.663 348.141L153.985 352.828" stroke="white" stroke-width="0.5"/>
<path d="M153.985 352.827L165.367 362.2" stroke="white" stroke-width="0.5"/>
<path d="M165.367 362.201L168.715 376.93" stroke="white" stroke-width="0.5"/>
<path d="M168.714 376.93L154.655 394.671" stroke="white" stroke-width="0.5"/>
<path d="M154.655 394.337L137.917 397.015" stroke="white" stroke-width="0.5"/>
<path d="M137.917 397.015L124.527 409.735" stroke="white" stroke-width="0.5"/>
<path d="M125.197 409.4L119.841 429.82" stroke="white" stroke-width="0.5"/>
<path d="M119.841 429.82L108.459 442.541" stroke="white" stroke-width="0.5"/>
<path d="M108.459 442.541L79.6709 455.261" stroke="white" stroke-width="0.5"/>
<path d="M79.6705 455.261L59.5854 451.244" stroke="white" stroke-width="0.5"/>
<path d="M59.5859 451.244L45.5264 452.583" stroke="white" stroke-width="0.5"/>
<path d="M45.5261 452.583L34.1445 464.634" stroke="white" stroke-width="0.5"/>
<path d="M34.1447 464.634L28.1191 478.024" stroke="white" stroke-width="0.5"/>
<path d="M28.1193 478.024L7.36475 479.363" stroke="white" stroke-width="0.5"/>
<path d="M7.36438 479.363L1.33887 488.736" stroke="white" stroke-width="0.5"/>
<path d="M1.33887 488.736L6.02538 512.169" stroke="white" stroke-width="0.5"/>
<path d="M16.7374 530.245L1.33887 488.736" stroke="white" stroke-width="0.5"/>
<path d="M1.33887 488.736L11.3814 465.304" stroke="white" stroke-width="0.5"/>
<path d="M11.3813 465.304L33.4749 447.897" stroke="white" stroke-width="0.5"/>
<path d="M34.1445 447.897L62.2636 417.1" stroke="white" stroke-width="0.5"/>
<path d="M62.2637 417.1L76.3232 401.032" stroke="white" stroke-width="0.5"/>
<path d="M76.3232 401.032L98.4168 389.65" stroke="white" stroke-width="0.5"/>
<path d="M98.417 389.65V370.234" stroke="white" stroke-width="0.5"/>
<path d="M98.417 370.234L124.528 347.471" stroke="white" stroke-width="0.5"/>
<path d="M124.527 347.471L132.561 317.679L140.261 312.657" stroke="white" stroke-width="0.5"/>
<path d="M132.562 318.013L140.596 294.581" stroke="white" stroke-width="0.5"/>
<path d="M140.595 294.581L144.612 279.852" stroke="white" stroke-width="0.5"/>
<path d="M144.612 279.852L149.968 283.869" stroke="white" stroke-width="0.5"/>
<path d="M149.969 283.869L146.621 294.581" stroke="white" stroke-width="0.5"/>
<path d="M146.621 294.581L140.595 311.988" stroke="white" stroke-width="0.5"/>
<path d="M149.968 283.869L162.019 297.259" stroke="white" stroke-width="0.5"/>
<path d="M149.968 283.869L154.655 269.809" stroke="white" stroke-width="0.5"/>
<path d="M154.655 269.809L164.697 265.123" stroke="white" stroke-width="0.5"/>
<path d="M144.612 279.852L146.621 260.436" stroke="white" stroke-width="0.5"/>
<path d="M146.621 260.436L157.333 249.724" stroke="white" stroke-width="0.5"/>
<path d="M144.612 279.852L149.968 265.792" stroke="white" stroke-width="0.5"/>
<path d="M149.968 265.792L160.68 255.75" stroke="white" stroke-width="0.5"/>
<path d="M161.35 297.259L168.715 303.954" stroke="white" stroke-width="0.5"/>
<path d="M168.714 303.954L164.697 314.666" stroke="white" stroke-width="0.5"/>
<path d="M164.698 314.666L156.664 327.386" stroke="white" stroke-width="0.5"/>
<path d="M156.664 326.047V348.141" stroke="white" stroke-width="0.5"/>
<path d="M158.672 322.03L151.977 311.318" stroke="white" stroke-width="0.5"/>
<path d="M164.028 315.335L154.655 307.301" stroke="white" stroke-width="0.5"/>
<path d="M167.375 308.64L160.011 303.954" stroke="white" stroke-width="0.5"/>
<path d="M156.663 332.073L148.629 318.683" stroke="white" stroke-width="0.5"/>
<path d="M156.663 338.768L147.96 326.047" stroke="white" stroke-width="0.5"/>
<path d="M156.664 348.141L162.02 345.463" stroke="white" stroke-width="0.5"/>
<path d="M162.02 345.463L156.664 331.403" stroke="white" stroke-width="0.5"/>
<path d="M153.985 352.827L143.273 338.768" stroke="white" stroke-width="0.5"/>
<path d="M165.367 380.277L146.621 354.836" stroke="white" stroke-width="0.5"/>
<path d="M157.333 390.989L141.935 363.539" stroke="white" stroke-width="0.5"/>
<path d="M149.968 395.676L141.265 375.591" stroke="white" stroke-width="0.5"/>
<path d="M133.231 366.887L131.222 386.972" stroke="white" stroke-width="0.5"/>
<path d="M133.231 366.887L137.917 345.463" stroke="white" stroke-width="0.5"/>
<path d="M140.595 311.988L137.917 345.463" stroke="white" stroke-width="0.5"/>
<path d="M137.917 342.115L124.527 352.827" stroke="white" stroke-width="0.5"/>
<path d="M125.866 358.853L137.917 346.132" stroke="white" stroke-width="0.5"/>
<path d="M98.417 370.235L127.206 362.201" stroke="white" stroke-width="0.5"/>
<path d="M98.417 376.26L121.18 366.887" stroke="white" stroke-width="0.5"/>
<path d="M98.417 386.303L117.833 378.269" stroke="white" stroke-width="0.5"/>
<path d="M133.231 366.887L116.493 396.345" stroke="white" stroke-width="0.5"/>
<path d="M116.493 396.345L76.3232 407.392" stroke="white" stroke-width="0.5"/>
<path d="M116.493 396.345L79.6709 431.159" stroke="white" stroke-width="0.5"/>
<path d="M79.3359 431.494L53.5601 447.227" stroke="white" stroke-width="0.5"/>
<path d="M45.5264 452.583L62.2639 429.82" stroke="white" stroke-width="0.5"/>
<path d="M62.2637 429.82L64.2722 415.091" stroke="white" stroke-width="0.5"/>
<path d="M6.02539 512.169L16.7374 530.245" stroke="white" stroke-width="0.5"/>
<path d="M16.7373 530.245L20.0848 549.661" stroke="white" stroke-width="0.5"/>
<path d="M259.767 35.4836L283.199 27.4496" stroke="white" stroke-width="0.5"/>
<path d="M147.291 60.2551L151.308 87.7047" stroke="white" stroke-width="0.5"/>
<path d="M151.308 87.7047L154.655 64.9417" stroke="white" stroke-width="0.5"/>
<path d="M154.655 65.2095L175.298 68.9587L194.825 60.9247" stroke="white" stroke-width="0.5"/>
<path d="M194.825 60.9247L219.046 70.9672L244.368 66.5039" stroke="white" stroke-width="0.5"/>
<path d="M244.368 66.9502L261.565 79.049L283.199 81.6792" stroke="white" stroke-width="0.5"/>
<path d="M283.199 81.6792L295.25 95.0692" stroke="white" stroke-width="0.5"/>
<path d="M295.25 95.0693L309.31 94.3998" stroke="white" stroke-width="0.5"/>
<path d="M283.869 81.6793L283.199 68.9587" stroke="white" stroke-width="0.5"/>
<path d="M244.368 66.9501L260.436 66.2806" stroke="white" stroke-width="0.5"/>
<path d="M244.368 66.2807L239.012 58.2467" stroke="white" stroke-width="0.5"/>
<path d="M194.825 60.9247L202.19 50.2126" stroke="white" stroke-width="0.5"/>
<path d="M245.707 66.9502L230.309 54.8992" stroke="white" stroke-width="0.5"/>
<path d="M195.494 60.9247C195.032 60.4836 186.821 54.4922 182.774 51.5516" stroke="white" stroke-width="0.5"/>
<path d="M195.494 60.2552L178.757 58.2467" stroke="white" stroke-width="0.5"/>
<path d="M154.655 66.2807L156.663 58.2467" stroke="white" stroke-width="0.5"/>
<path d="M151.308 87.7047L164.698 103.103" stroke="white" stroke-width="0.5"/>
<path d="M172.062 101.764L154.655 64.9417" stroke="white" stroke-width="0.5"/>
<path d="M172.062 101.764L164.028 104.442" stroke="white" stroke-width="0.5"/>
<path d="M172.062 101.764L197.503 104.442" stroke="white" stroke-width="0.5"/>
<path d="M172.062 101.764L198.842 111.807" stroke="white" stroke-width="0.5"/>
<path d="M270.479 121.18L240.351 121.849" stroke="white" stroke-width="0.5"/>
<path d="M270.479 121.18L295.25 112.476" stroke="white" stroke-width="0.5"/>
<path d="M295.25 112.476L309.31 94.3998" stroke="white" stroke-width="0.5"/>
<path d="M147.291 60.2551L162.02 43.5176" stroke="white" stroke-width="0.5"/>
<path d="M162.02 43.5176L182.105 26.78" stroke="white" stroke-width="0.5"/>
<path d="M182.104 26.7801L204.868 8.03406" stroke="white" stroke-width="0.5"/>
<path d="M204.868 8.03406L235.665 2.00854" stroke="white" stroke-width="0.5"/>
<path d="M235.665 2.00854L283.869 27.4496" stroke="white" stroke-width="0.5"/>
<path d="M283.869 27.4496L305.293 60.9247" stroke="white" stroke-width="0.5"/>
<path d="M305.293 60.9247L309.31 94.3998" stroke="white" stroke-width="0.5"/>
<path d="M309.31 94.3997L288.555 63.6027" stroke="white" stroke-width="0.5"/>
<path d="M288.555 63.6027L249.055 46.8651" stroke="white" stroke-width="0.5"/>
<path d="M249.055 46.8651L214.91 40.8396" stroke="white" stroke-width="0.5"/>
<path d="M214.91 40.8396L175.41 44.8566" stroke="white" stroke-width="0.5"/>
<path d="M175.41 44.8566L147.291 59.5856" stroke="white" stroke-width="0.5"/>
<path d="M223.614 345.463L225.622 318.013" stroke="white" stroke-width="0.5"/>
<path d="M225.622 318.013L218.927 287.216" stroke="white" stroke-width="0.5"/>
<path d="M218.927 287.216L222.275 222.944" stroke="white" stroke-width="0.5"/>
<path d="M222.274 222.944L234.325 172.731" stroke="white" stroke-width="0.5"/>
<path d="M235.665 172.731L258.428 141.934" stroke="white" stroke-width="0.5"/>
<path d="M258.428 141.934L279.852 124.527" stroke="white" stroke-width="0.5"/>
<path d="M287.886 101.095L283.199 127.205" stroke="white" stroke-width="0.5"/>
<path d="M289.225 107.79L295.25 95.0692" stroke="white" stroke-width="0.5"/>
<path d="M295.25 95.0692L287.886 101.095" stroke="white" stroke-width="0.5"/>
<path d="M287.886 101.095L271.148 121.18" stroke="white" stroke-width="0.5"/>
<path d="M287.886 101.095L280.521 124.527" stroke="white" stroke-width="0.5"/>
<path d="M184.782 74.9842L154.655 64.9417" stroke="white" stroke-width="0.5"/>
<path d="M184.782 74.9842L174.07 68.2892" stroke="white" stroke-width="0.5"/>
<path d="M184.782 74.9843C184.336 74.9843 173.438 77.2159 168.045 78.3318" stroke="white" stroke-width="0.5"/>
<path d="M281.86 128.544L234.326 172.731" stroke="white" stroke-width="0.5"/>
<path d="M225.622 222.944L234.326 172.731" stroke="white" stroke-width="0.5"/>
<path d="M225.622 222.944L218.258 255.75" stroke="white" stroke-width="0.5"/>
<path d="M218.258 255.75V287.216" stroke="white" stroke-width="0.5"/>
<path d="M273.157 88.3742L283.199 81.6792" stroke="white" stroke-width="0.5"/>
<path d="M273.157 88.3743L260.436 101.095" stroke="white" stroke-width="0.5"/>
<path d="M260.436 101.095L257.089 107.79" stroke="white" stroke-width="0.5"/>
<path d="M257.089 107.79L240.351 121.849" stroke="white" stroke-width="0.5"/>
<path d="M260.436 91.0522L283.869 81.6792" stroke="white" stroke-width="0.5"/>
<path d="M260.436 91.7218L241.021 121.849" stroke="white" stroke-width="0.5"/>
<path d="M243.699 105.781L251.063 84.3572" stroke="white" stroke-width="0.5"/>
<path d="M243.699 105.781L232.317 129.883" stroke="white" stroke-width="0.5"/>
<path d="M232.317 129.883L241.021 121.849" stroke="white" stroke-width="0.5"/>
<path d="M233.656 82.3488L232.317 99.7558" stroke="white" stroke-width="0.5"/>
<path d="M232.317 99.7557L226.961 157.333" stroke="white" stroke-width="0.5"/>
<path d="M189.469 81.0098L174.74 87.0353" stroke="white" stroke-width="0.5"/>
<path d="M175.41 87.0353L172.062 101.764" stroke="white" stroke-width="0.5"/>
<path d="M197.503 72.3062L205.537 95.7387" stroke="white" stroke-width="0.5"/>
<path d="M205.537 95.7388L199.512 124.527" stroke="white" stroke-width="0.5"/>
<path d="M199.511 124.527L184.113 155.994" stroke="white" stroke-width="0.5"/>
<path d="M190.808 139.256L184.783 154.655" stroke="white" stroke-width="0.5"/>
<path d="M198.842 140.595L179.426 180.765" stroke="white" stroke-width="0.5"/>
<path d="M208.884 133.231L202.859 150.638" stroke="white" stroke-width="0.5"/>
<path d="M202.859 150.638L186.122 180.096" stroke="white" stroke-width="0.5"/>
<path d="M216.918 123.188L222.944 83.6877" stroke="white" stroke-width="0.5"/>
<path d="M222.274 112.476L222.944 83.6877" stroke="white" stroke-width="0.5"/>
<path d="M210.223 153.985L203.528 195.494" stroke="white" stroke-width="0.5"/>
<path d="M203.528 194.825L213.571 179.427" stroke="white" stroke-width="0.5"/>
<path d="M213.571 179.427L220.266 133.9" stroke="white" stroke-width="0.5"/>
<path d="M220.266 133.9L222.275 111.807" stroke="white" stroke-width="0.5"/>
<path d="M223.613 137.248L222.274 170.723" stroke="white" stroke-width="0.5"/>
<path d="M222.274 170.723L226.961 157.333" stroke="white" stroke-width="0.5"/>
<path d="M222.275 170.723L213.571 179.426" stroke="white" stroke-width="0.5"/>
<path d="M232.317 129.883L226.961 157.333" stroke="white" stroke-width="0.5"/>
<path d="M271.148 121.18L237.003 146.621" stroke="white" stroke-width="0.5"/>
<path d="M237.004 146.621L225.622 184.113" stroke="white" stroke-width="0.5"/>
<path d="M225.622 184.113L216.918 217.588" stroke="white" stroke-width="0.5"/>
<path d="M216.918 217.588L198.842 255.08" stroke="white" stroke-width="0.5"/>
<path d="M198.842 255.08L180.766 293.242" stroke="white" stroke-width="0.5"/>
<path d="M180.766 292.572V332.742" stroke="white" stroke-width="0.5"/>
<path d="M180.766 332.742L194.156 368.896" stroke="white" stroke-width="0.5"/>
<path d="M164.697 104.442L144.612 125.866" stroke="white" stroke-width="0.5"/>
<path d="M144.612 125.866L131.222 167.375" stroke="white" stroke-width="0.5"/>
<path d="M131.222 167.375L126.536 210.224" stroke="white" stroke-width="0.5"/>
<path d="M126.536 210.224L119.171 241.69" stroke="white" stroke-width="0.5"/>
<path d="M119.172 241.69L93.7305 274.496" stroke="white" stroke-width="0.5"/>
<path d="M93.73 274.496L79.001 307.301" stroke="white" stroke-width="0.5"/>
<path d="M79.0012 307.301L76.3232 354.836" stroke="white" stroke-width="0.5"/>
<path d="M76.3232 354.836L89.0438 390.32" stroke="white" stroke-width="0.5"/>
<path d="M89.0439 390.32L74.9844 356.844" stroke="white" stroke-width="0.5"/>
<path d="M74.9844 356.844L79.0014 307.301" stroke="white" stroke-width="0.5"/>
<path d="M93.7305 274.496L122.519 228.3" stroke="white" stroke-width="0.5"/>
<path d="M172.062 101.764L167.375 133.9" stroke="white" stroke-width="0.5"/>
<path d="M167.375 133.9L139.256 180.766" stroke="white" stroke-width="0.5"/>
<path d="M139.256 180.766L109.798 216.249" stroke="white" stroke-width="0.5"/>
<path d="M109.798 216.249L81.6792 265.123" stroke="white" stroke-width="0.5"/>
<path d="M81.3444 265.458L62.9331 301.945" stroke="white" stroke-width="0.5"/>
<path d="M62.933 301.945L58.916 366.887" stroke="white" stroke-width="0.5"/>
<path d="M45.5264 452.583L48.8739 437.854" stroke="white" stroke-width="0.5"/>
<path d="M37.4922 461.287L42.1787 447.227" stroke="white" stroke-width="0.5"/>
<path d="M27.4497 478.024V466.643" stroke="white" stroke-width="0.5"/>
<path d="M27.4497 466.643L34.1447 452.583" stroke="white" stroke-width="0.5"/>
<path d="M10.7119 471.999L33.475 447.897" stroke="white" stroke-width="0.5"/>
<path d="M76.3232 454.592L85.0268 433.168" stroke="white" stroke-width="0.5"/>
<path d="M95.0693 448.566L99.0863 426.473" stroke="white" stroke-width="0.5"/>
<path d="M102.434 445.219L105.781 433.837" stroke="white" stroke-width="0.5"/>
<path d="M107.79 442.206L109.799 416.43" stroke="white" stroke-width="0.5"/>
<path d="M116.493 433.837L117.832 407.057" stroke="white" stroke-width="0.5"/>
<path d="M125.197 409.066L125.866 392.328" stroke="white" stroke-width="0.5"/>
<path d="M149.968 378.938L182.104 353.497" stroke="white" stroke-width="0.5"/>
<path d="M182.104 353.497L210.224 323.369" stroke="white" stroke-width="0.5"/>
<path d="M210.224 323.369L233.656 287.886" stroke="white" stroke-width="0.5"/>
<path d="M233.656 287.886L247.046 246.377" stroke="white" stroke-width="0.5"/>
<path d="M247.716 246.377L256.419 201.52" stroke="white" stroke-width="0.5"/>
<path d="M256.419 201.52L253.741 162.689" stroke="white" stroke-width="0.5"/>
<path d="M253.741 162.689L251.063 117.832" stroke="white" stroke-width="0.5"/>
<path d="M257.089 107.79L251.063 117.832" stroke="white" stroke-width="0.5"/>
<path d="M251.063 117.832L257.089 160.68" stroke="white" stroke-width="0.5"/>
<path d="M257.089 160.68L255.08 201.52" stroke="white" stroke-width="0.5"/>
<path d="M255.08 201.52L254.411 232.987" stroke="white" stroke-width="0.5"/>
<path d="M254.411 232.987L247.716 246.377" stroke="white" stroke-width="0.5"/>
<path d="M247.716 246.377L242.36 273.826" stroke="white" stroke-width="0.5"/>
<path d="M242.36 273.826L233.656 287.886" stroke="white" stroke-width="0.5"/>
<path d="M233.656 287.886L213.571 323.369" stroke="white" stroke-width="0.5"/>
<path d="M213.571 323.369L182.104 353.497" stroke="white" stroke-width="0.5"/>
<path d="M171.393 283.199L170.054 263.784" stroke="white" stroke-width="0.5"/>
<path d="M170.053 263.784L164.697 265.123" stroke="white" stroke-width="0.5"/>
<path d="M170.054 263.784L184.113 251.733" stroke="white" stroke-width="0.5"/>
<path d="M176.079 258.428L180.766 241.69" stroke="white" stroke-width="0.5"/>
<path d="M184.113 251.733L185.452 228.3" stroke="white" stroke-width="0.5"/>
<path d="M185.452 228.3L192.147 215.58" stroke="white" stroke-width="0.5"/>
<path d="M185.452 239.682L198.842 224.953" stroke="white" stroke-width="0.5"/>
<path d="M198.842 224.953L203.528 195.495" stroke="white" stroke-width="0.5"/>
<path d="M203.529 194.825L186.122 212.902" stroke="white" stroke-width="0.5"/>
<path d="M186.121 212.902L174.74 218.258" stroke="white" stroke-width="0.5"/>
<path d="M174.74 218.258C174.296 217.722 157.148 216.695 148.629 216.249" stroke="white" stroke-width="0.5"/>
<path d="M148.629 216.249L139.926 224.953" stroke="white" stroke-width="0.5"/>
<path d="M148.629 216.249L167.375 201.52" stroke="white" stroke-width="0.5"/>
<path d="M167.375 201.52L174.071 188.13" stroke="white" stroke-width="0.5"/>
<path d="M174.07 188.13L186.121 201.52" stroke="white" stroke-width="0.5"/>
<path d="M186.122 201.52V212.902" stroke="white" stroke-width="0.5"/>
<path d="M174.07 188.13L168.714 179.427" stroke="white" stroke-width="0.5"/>
<path d="M168.714 179.426L172.731 170.053" stroke="white" stroke-width="0.5"/>
<path d="M168.714 179.426L182.774 163.358" stroke="white" stroke-width="0.5"/>
<path d="M185.452 201.52L187.461 185.452" stroke="white" stroke-width="0.5"/>
<path d="M186.122 212.902L192.147 196.833" stroke="white" stroke-width="0.5"/>
<path d="M176.079 221.605L188.13 217.588" stroke="white" stroke-width="0.5"/>
<path d="M151.308 245.707L162.02 239.682" stroke="white" stroke-width="0.5"/>
<path d="M162.02 239.682L174.74 218.258" stroke="white" stroke-width="0.5"/>
<path d="M167.375 218.258L129.214 265.123" stroke="white" stroke-width="0.5"/>
<path d="M129.214 265.123L131.222 250.394" stroke="white" stroke-width="0.5"/>
<path d="M131.222 250.394L155.324 222.944" stroke="white" stroke-width="0.5"/>
<path d="M129.214 265.123L128.544 278.847" stroke="white" stroke-width="0.5"/>
<path d="M127.875 280.521L137.918 259.767" stroke="white" stroke-width="0.5"/>
<path d="M127.875 280.521L123.188 293.911" stroke="white" stroke-width="0.5"/>
<path d="M123.188 293.911L121.18 304.623" stroke="white" stroke-width="0.5"/>
<path d="M121.18 304.623L132.561 287.886" stroke="white" stroke-width="0.5"/>
<path d="M132.562 287.886L139.926 265.123" stroke="white" stroke-width="0.5"/>
<path d="M139.926 265.123L144.612 252.402" stroke="white" stroke-width="0.5"/>
<path d="M121.18 304.623L109.798 318.683" stroke="white" stroke-width="0.5"/>
<path d="M109.799 318.683L103.104 334.081" stroke="white" stroke-width="0.5"/>
<path d="M103.964 334.751L101.764 348.141M132.561 287.886L119.912 311.876" stroke="white" stroke-width="0.5"/>
<path d="M109.798 318.683L119.841 311.988" stroke="white" stroke-width="0.5"/>
<path d="M163.358 261.775L172.062 245.038" stroke="white" stroke-width="0.5"/>
<path d="M168.714 263.784L174.74 248.385" stroke="white" stroke-width="0.5"/>
<path d="M167.376 133.9L157.333 157.333" stroke="white" stroke-width="0.5"/>
<path d="M156.663 157.333L139.256 180.765" stroke="white" stroke-width="0.5"/>
<circle cx="162.02" cy="42.1786" r="1.339" fill="white"/>
<circle cx="182.105" cy="25.4411" r="1.339" fill="white"/>
<circle cx="203.528" cy="6.69496" r="1.339" fill="white"/>
<circle cx="234.995" cy="1.339" r="1.339" fill="white"/>
<circle cx="277.843" cy="32.1361" r="1.339" fill="white"/>
<circle cx="282.53" cy="26.78" r="1.339" fill="white"/>
<circle cx="303.954" cy="59.5857" r="1.339" fill="white"/>
<circle cx="293.242" cy="51.5517" r="1.339" fill="white"/>
<circle cx="309.31" cy="93.0608" r="1.339" fill="white"/>
<circle cx="248.385" cy="45.5261" r="1.339" fill="white"/>
<circle cx="241.69" cy="34.8141" r="1.339" fill="white"/>
<circle cx="259.097" cy="34.8141" r="1.339" fill="white"/>
<circle cx="221.605" cy="13.39" r="1.339" fill="white"/>
<circle cx="216.249" cy="15.3986" r="1.339" fill="white"/>
<circle cx="198.842" cy="23.4325" r="1.339" fill="white"/>
<circle cx="188.799" cy="36.8226" r="1.339" fill="white"/>
<circle cx="173.401" cy="40.1701" r="1.339" fill="white"/>
<circle cx="208.215" cy="16.7376" r="1.339" fill="white"/>
<circle cx="287.216" cy="62.2637" r="1.339" fill="white"/>
<circle cx="213.571" cy="40.1701" r="1.339" fill="white"/>
<circle cx="169.384" cy="52.8906" r="1.339" fill="white"/>
<circle cx="173.401" cy="44.8566" r="1.339" fill="white"/>
<circle cx="154.655" cy="64.9417" r="1.339" fill="white"/>
<circle cx="193.486" cy="59.5857" r="1.339" fill="white"/>
<circle cx="173.401" cy="68.2892" r="1.339" fill="white"/>
<circle cx="243.699" cy="65.6112" r="1.339" fill="white"/>
<circle cx="259.767" cy="79.0012" r="1.339" fill="white"/>
<circle cx="218.257" cy="69.6282" r="1.339" fill="white"/>
<circle cx="282.53" cy="81.6792" r="1.339" fill="white"/>
<circle cx="293.911" cy="93.7302" r="1.339" fill="white"/>
<circle cx="269.809" cy="119.841" r="1.339" fill="white"/>
<circle cx="240.351" cy="120.51" r="1.339" fill="white"/>
<circle cx="293.911" cy="112.476" r="1.339" fill="white"/>
<circle cx="151.307" cy="86.3657" r="1.339" fill="white"/>
<circle cx="145.951" cy="58.9162" r="1.339" fill="white"/>
<circle cx="163.359" cy="103.103" r="1.339" fill="white"/>
<circle cx="172.062" cy="100.425" r="1.339" fill="white"/>
<circle cx="198.842" cy="110.468" r="1.339" fill="white"/>
<circle cx="196.834" cy="103.103" r="1.339" fill="white"/>
<circle cx="131.892" cy="126.536" r="1.339" fill="white"/>
<path d="M145.951 125.866C145.951 126.606 145.352 127.205 144.612 127.205C143.873 127.205 143.273 126.606 143.273 125.866C143.273 125.127 143.873 124.527 144.612 124.527C145.352 124.527 145.951 125.127 145.951 125.866Z" fill="white"/>
<path d="M169.384 134.57C169.384 135.309 168.785 135.909 168.045 135.909C167.306 135.909 166.706 135.309 166.706 134.57C166.706 133.83 167.306 133.231 168.045 133.231C168.785 133.231 169.384 133.83 169.384 134.57Z" fill="white"/>
<path d="M111.137 216.919C111.137 217.658 110.538 218.258 109.798 218.258C109.059 218.258 108.459 217.658 108.459 216.919C108.459 216.179 109.059 215.58 109.798 215.58C110.538 215.58 111.137 216.179 111.137 216.919Z" fill="white"/>
<path d="M83.0183 264.453C83.0183 265.193 82.4188 265.792 81.6793 265.792C80.9398 265.792 80.3403 265.193 80.3403 264.453C80.3403 263.714 80.9398 263.114 81.6793 263.114C82.4188 263.114 83.0183 263.714 83.0183 264.453Z" fill="white"/>
<path d="M65.6111 301.945C65.6111 302.685 65.0116 303.284 64.2721 303.284C63.5326 303.284 62.9331 302.685 62.9331 301.945C62.9331 301.206 63.5326 300.606 64.2721 300.606C65.0116 300.606 65.6111 301.206 65.6111 301.945Z" fill="white"/>
<path d="M60.9246 367.557C60.9246 368.296 60.3251 368.896 59.5856 368.896C58.8461 368.896 58.2466 368.296 58.2466 367.557C58.2466 366.817 58.8461 366.218 59.5856 366.218C60.3251 366.218 60.9246 366.817 60.9246 367.557Z" fill="white"/>
<path d="M140.595 180.766C140.595 181.505 139.996 182.105 139.256 182.105C138.517 182.105 137.917 181.505 137.917 180.766C137.917 180.026 138.517 179.427 139.256 179.427C139.996 179.427 140.595 180.026 140.595 180.766Z" fill="white"/>
<path d="M133.231 167.376C133.231 168.115 132.631 168.715 131.892 168.715C131.152 168.715 130.553 168.115 130.553 167.376C130.553 166.636 131.152 166.036 131.892 166.036C132.631 166.036 133.231 166.636 133.231 167.376Z" fill="white"/>
<path d="M127.205 210.224C127.205 210.963 126.606 211.563 125.866 211.563C125.127 211.563 124.527 210.963 124.527 210.224C124.527 209.484 125.127 208.885 125.866 208.885C126.606 208.885 127.205 209.484 127.205 210.224Z" fill="white"/>
<path d="M122.519 229.639C122.519 230.379 121.919 230.978 121.18 230.978C120.44 230.978 119.841 230.379 119.841 229.639C119.841 228.9 120.44 228.3 121.18 228.3C121.919 228.3 122.519 228.9 122.519 229.639Z" fill="white"/>
<path d="M120.511 241.69C120.511 242.43 119.911 243.029 119.172 243.029C118.432 243.029 117.833 242.43 117.833 241.69C117.833 240.951 118.432 240.351 119.172 240.351C119.911 240.351 120.511 240.951 120.511 241.69Z" fill="white"/>
<path d="M95.7386 273.826C95.7386 274.566 95.1391 275.165 94.3996 275.165C93.66 275.165 93.0605 274.566 93.0605 273.826C93.0605 273.087 93.66 272.487 94.3996 272.487C95.1391 272.487 95.7386 273.087 95.7386 273.826Z" fill="white"/>
<path d="M81.0096 307.971C81.0096 308.71 80.4101 309.31 79.6705 309.31C78.931 309.31 78.3315 308.71 78.3315 307.971C78.3315 307.231 78.931 306.632 79.6705 306.632C80.4101 306.632 81.0096 307.231 81.0096 307.971Z" fill="white"/>
<path d="M77.6624 354.166C77.6624 354.906 77.0629 355.505 76.3234 355.505C75.5839 355.505 74.9844 354.906 74.9844 354.166C74.9844 353.427 75.5839 352.827 76.3234 352.827C77.0629 352.827 77.6624 353.427 77.6624 354.166Z" fill="white"/>
<path d="M76.9929 357.514C76.9929 358.253 76.3935 358.853 75.6539 358.853C74.9144 358.853 74.3149 358.253 74.3149 357.514C74.3149 356.774 74.9144 356.175 75.6539 356.175C76.3935 356.175 76.9929 356.774 76.9929 357.514Z" fill="white"/>
<path d="M91.052 390.989C91.052 391.729 90.4525 392.328 89.713 392.328C88.9735 392.328 88.374 391.729 88.374 390.989C88.374 390.25 88.9735 389.65 89.713 389.65C90.4525 389.65 91.052 390.25 91.052 390.989Z" fill="white"/>
<circle cx="111.807" cy="153.316" r="1.339" fill="white"/>
<circle cx="104.443" cy="182.105" r="1.339" fill="white"/>
<circle cx="99.756" cy="206.207" r="1.339" fill="white"/>
<path d="M101.764 227.631C101.764 228.37 101.165 228.97 100.425 228.97C99.6859 228.97 99.0864 228.37 99.0864 227.631C99.0864 226.891 99.6859 226.292 100.425 226.292C101.165 226.292 101.764 226.891 101.764 227.631Z" fill="white"/>
<path d="M101.095 251.063C101.095 251.803 100.496 252.402 99.756 252.402C99.0165 252.402 98.417 251.803 98.417 251.063C98.417 250.324 99.0165 249.724 99.756 249.724C100.496 249.724 101.095 250.324 101.095 251.063Z" fill="white"/>
<path d="M108.459 274.496C108.459 275.235 107.86 275.835 107.12 275.835C106.381 275.835 105.781 275.235 105.781 274.496C105.781 273.756 106.381 273.157 107.12 273.157C107.86 273.157 108.459 273.756 108.459 274.496Z" fill="white"/>
<circle cx="182.774" cy="51.5517" r="1.339" fill="white"/>
<circle cx="178.757" cy="58.2467" r="1.339" fill="white"/>
<circle cx="155.994" cy="58.2467" r="1.339" fill="white"/>
<circle cx="201.52" cy="49.5431" r="1.339" fill="white"/>
<circle cx="228.97" cy="54.8992" r="1.339" fill="white"/>
<circle cx="239.012" cy="58.2467" r="1.339" fill="white"/>
<circle cx="259.767" cy="65.6112" r="1.339" fill="white"/>
<circle cx="282.53" cy="68.9586" r="1.339" fill="white"/>
<circle cx="189.469" cy="79.6707" r="1.339" fill="white"/>
<circle cx="196.834" cy="72.3062" r="1.339" fill="white"/>
<circle cx="222.944" cy="83.0182" r="1.339" fill="white"/>
<circle cx="231.648" cy="99.7558" r="1.339" fill="white"/>
<circle cx="175.409" cy="86.3657" r="1.339" fill="white"/>
<circle cx="168.714" cy="79.0012" r="1.339" fill="white"/>
<circle cx="185.452" cy="75.6537" r="1.339" fill="white"/>
<circle cx="251.733" cy="83.6878" r="1.339" fill="white"/>
<circle cx="243.699" cy="106.451" r="1.339" fill="white"/>
<circle cx="231.648" cy="129.883" r="1.339" fill="white"/>
<circle cx="259.767" cy="90.3827" r="1.339" fill="white"/>
<circle cx="256.419" cy="107.12" r="1.339" fill="white"/>
<circle cx="259.767" cy="99.7558" r="1.339" fill="white"/>
<circle cx="273.157" cy="89.0437" r="1.339" fill="white"/>
<circle cx="287.216" cy="100.425" r="1.339" fill="white"/>
<circle cx="289.894" cy="107.12" r="1.339" fill="white"/>
<circle cx="279.852" cy="123.858" r="1.339" fill="white"/>
<circle cx="282.53" cy="128.544" r="1.339" fill="white"/>
<circle cx="259.097" cy="141.934" r="1.339" fill="white"/>
<circle cx="234.995" cy="172.731" r="1.339" fill="white"/>
<circle cx="222.944" cy="223.614" r="1.339" fill="white"/>
<circle cx="218.257" cy="256.419" r="1.339" fill="white"/>
<circle cx="237.004" cy="146.621" r="1.339" fill="white"/>
<circle cx="226.292" cy="183.443" r="1.339" fill="white"/>
<circle cx="216.919" cy="216.919" r="1.339" fill="white"/>
<circle cx="199.511" cy="254.411" r="1.339" fill="white"/>
<circle cx="180.096" cy="291.903" r="1.339" fill="white"/>
<circle cx="180.096" cy="333.412" r="1.339" fill="white"/>
<circle cx="193.486" cy="368.226" r="1.339" fill="white"/>
<circle cx="218.257" cy="287.216" r="1.339" fill="white"/>
<circle cx="224.953" cy="318.013" r="1.339" fill="white"/>
<circle cx="223.613" cy="345.463" r="1.339" fill="white"/>
<circle cx="216.919" cy="123.188" r="1.339" fill="white"/>
<circle cx="208.215" cy="133.231" r="1.339" fill="white"/>
<circle cx="199.511" cy="140.595" r="1.339" fill="white"/>
<circle cx="223.613" cy="137.248" r="1.339" fill="white"/>
<circle cx="226.961" cy="157.333" r="1.339" fill="white"/>
<circle cx="210.224" cy="153.985" r="1.339" fill="white"/>
<circle cx="203.528" cy="150.638" r="1.339" fill="white"/>
<circle cx="186.791" cy="180.766" r="1.339" fill="white"/>
<circle cx="180.096" cy="180.766" r="1.339" fill="white"/>
<path d="M222.944 170.723C222.944 171.462 222.345 172.062 221.605 172.062C220.866 172.062 220.266 171.462 220.266 170.723C220.266 169.983 220.866 169.384 221.605 169.384C222.345 169.384 222.944 169.983 222.944 170.723Z" fill="white"/>
<circle cx="213.571" cy="178.757" r="1.339" fill="white"/>
<circle cx="203.528" cy="194.825" r="1.339" fill="white"/>
<circle cx="222.944" cy="112.476" r="1.339" fill="white"/>
<circle cx="233.656" cy="83.0182" r="1.339" fill="white"/>
<circle cx="199.511" cy="123.858" r="1.339" fill="white"/>
<circle cx="185.452" cy="155.324" r="1.339" fill="white"/>
<path d="M159.342 158.002C159.342 158.742 158.742 159.341 158.003 159.341C157.263 159.341 156.664 158.742 156.664 158.002C156.664 157.263 157.263 156.663 158.003 156.663C158.742 156.663 159.342 157.263 159.342 158.002Z" fill="white"/>
<path d="M174.74 169.384C174.74 170.123 174.141 170.723 173.401 170.723C172.662 170.723 172.062 170.123 172.062 169.384C172.062 168.644 172.662 168.045 173.401 168.045C174.141 168.045 174.74 168.644 174.74 169.384Z" fill="white"/>
<path d="M184.782 162.689C184.782 163.428 184.183 164.028 183.443 164.028C182.704 164.028 182.104 163.428 182.104 162.689C182.104 161.949 182.704 161.35 183.443 161.35C184.183 161.35 184.782 161.949 184.782 162.689Z" fill="white"/>
<path d="M170.723 179.427C170.723 180.166 170.123 180.766 169.384 180.766C168.644 180.766 168.045 180.166 168.045 179.427C168.045 178.687 168.644 178.088 169.384 178.088C170.123 178.088 170.723 178.687 170.723 179.427Z" fill="white"/>
<path d="M174.74 188.13C174.74 188.87 174.141 189.469 173.401 189.469C172.662 189.469 172.062 188.87 172.062 188.13C172.062 187.391 172.662 186.791 173.401 186.791C174.141 186.791 174.74 187.391 174.74 188.13Z" fill="white"/>
<path d="M188.13 186.121C188.13 186.861 187.531 187.46 186.791 187.46C186.052 187.46 185.452 186.861 185.452 186.121C185.452 185.382 186.052 184.782 186.791 184.782C187.531 184.782 188.13 185.382 188.13 186.121Z" fill="white"/>
<path d="M193.486 196.834C193.486 197.573 192.887 198.173 192.147 198.173C191.408 198.173 190.808 197.573 190.808 196.834C190.808 196.094 191.408 195.495 192.147 195.495C192.887 195.495 193.486 196.094 193.486 196.834Z" fill="white"/>
<path d="M187.461 201.52C187.461 202.26 186.861 202.859 186.122 202.859C185.382 202.859 184.783 202.26 184.783 201.52C184.783 200.781 185.382 200.181 186.122 200.181C186.861 200.181 187.461 200.781 187.461 201.52Z" fill="white"/>
<path d="M187.461 212.902C187.461 213.641 186.861 214.241 186.122 214.241C185.382 214.241 184.783 213.641 184.783 212.902C184.783 212.162 185.382 211.563 186.122 211.563C186.861 211.563 187.461 212.162 187.461 212.902Z" fill="white"/>
<path d="M176.748 217.588C176.748 218.328 176.149 218.927 175.409 218.927C174.67 218.927 174.07 218.328 174.07 217.588C174.07 216.849 174.67 216.249 175.409 216.249C176.149 216.249 176.748 216.849 176.748 217.588Z" fill="white"/>
<path d="M177.418 222.944C177.418 223.684 176.818 224.283 176.079 224.283C175.339 224.283 174.74 223.684 174.74 222.944C174.74 222.205 175.339 221.605 176.079 221.605C176.818 221.605 177.418 222.205 177.418 222.944Z" fill="white"/>
<path d="M190.138 217.588C190.138 218.328 189.539 218.927 188.799 218.927C188.06 218.927 187.46 218.328 187.46 217.588C187.46 216.849 188.06 216.249 188.799 216.249C189.539 216.249 190.138 216.849 190.138 217.588Z" fill="white"/>
<path d="M170.053 217.588C170.053 218.328 169.454 218.927 168.714 218.927C167.975 218.927 167.375 218.328 167.375 217.588C167.375 216.849 167.975 216.249 168.714 216.249C169.454 216.249 170.053 216.849 170.053 217.588Z" fill="white"/>
<path d="M194.156 216.249C194.156 216.989 193.556 217.588 192.817 217.588C192.077 217.588 191.478 216.989 191.478 216.249C191.478 215.51 192.077 214.91 192.817 214.91C193.556 214.91 194.156 215.51 194.156 216.249Z" fill="white"/>
<path d="M187.461 229.639C187.461 230.379 186.861 230.978 186.122 230.978C185.382 230.978 184.783 230.379 184.783 229.639C184.783 228.9 185.382 228.3 186.122 228.3C186.861 228.3 187.461 228.9 187.461 229.639Z" fill="white"/>
<path d="M186.791 240.351C186.791 241.091 186.191 241.69 185.452 241.69C184.712 241.69 184.113 241.091 184.113 240.351C184.113 239.612 184.712 239.012 185.452 239.012C186.191 239.012 186.791 239.612 186.791 240.351Z" fill="white"/>
<path d="M200.85 225.622C200.85 226.362 200.251 226.961 199.511 226.961C198.772 226.961 198.172 226.362 198.172 225.622C198.172 224.883 198.772 224.283 199.511 224.283C200.251 224.283 200.85 224.883 200.85 225.622Z" fill="white"/>
<path d="M185.452 251.063C185.452 251.803 184.852 252.402 184.113 252.402C183.373 252.402 182.774 251.803 182.774 251.063C182.774 250.324 183.373 249.724 184.113 249.724C184.852 249.724 185.452 250.324 185.452 251.063Z" fill="white"/>
<path d="M181.435 241.021C181.435 241.76 180.835 242.36 180.096 242.36C179.356 242.36 178.757 241.76 178.757 241.021C178.757 240.281 179.356 239.682 180.096 239.682C180.835 239.682 181.435 240.281 181.435 241.021Z" fill="white"/>
<path d="M176.748 249.724C176.748 250.464 176.149 251.063 175.409 251.063C174.67 251.063 174.07 250.464 174.07 249.724C174.07 248.985 174.67 248.385 175.409 248.385C176.149 248.385 176.748 248.985 176.748 249.724Z" fill="white"/>
<path d="M173.401 244.368C173.401 245.108 172.802 245.707 172.062 245.707C171.323 245.707 170.723 245.108 170.723 244.368C170.723 243.629 171.323 243.029 172.062 243.029C172.802 243.029 173.401 243.629 173.401 244.368Z" fill="white"/>
<path d="M170.723 264.453C170.723 265.193 170.123 265.792 169.384 265.792C168.644 265.792 168.045 265.193 168.045 264.453C168.045 263.714 168.644 263.114 169.384 263.114C170.123 263.114 170.723 263.714 170.723 264.453Z" fill="white"/>
<path d="M166.706 264.453C166.706 265.193 166.106 265.792 165.367 265.792C164.627 265.792 164.028 265.193 164.028 264.453C164.028 263.714 164.627 263.114 165.367 263.114C166.106 263.114 166.706 263.714 166.706 264.453Z" fill="white"/>
<path d="M164.698 261.106C164.698 261.845 164.098 262.445 163.359 262.445C162.619 262.445 162.02 261.845 162.02 261.106C162.02 260.366 162.619 259.767 163.359 259.767C164.098 259.767 164.698 260.366 164.698 261.106Z" fill="white"/>
<path d="M161.35 256.419C161.35 257.159 160.75 257.758 160.011 257.758C159.271 257.758 158.672 257.159 158.672 256.419C158.672 255.68 159.271 255.08 160.011 255.08C160.75 255.08 161.35 255.68 161.35 256.419Z" fill="white"/>
<path d="M159.342 249.724C159.342 250.464 158.742 251.063 158.003 251.063C157.263 251.063 156.664 250.464 156.664 249.724C156.664 248.985 157.263 248.385 158.003 248.385C158.742 248.385 159.342 248.985 159.342 249.724Z" fill="white"/>
<path d="M147.29 260.436C147.29 261.176 146.691 261.775 145.951 261.775C145.212 261.775 144.612 261.176 144.612 260.436C144.612 259.697 145.212 259.097 145.951 259.097C146.691 259.097 147.29 259.697 147.29 260.436Z" fill="white"/>
<path d="M150.638 266.462C150.638 267.201 150.038 267.801 149.299 267.801C148.559 267.801 147.96 267.201 147.96 266.462C147.96 265.722 148.559 265.123 149.299 265.123C150.038 265.123 150.638 265.722 150.638 266.462Z" fill="white"/>
<path d="M156.663 270.479C156.663 271.218 156.064 271.818 155.324 271.818C154.585 271.818 153.985 271.218 153.985 270.479C153.985 269.739 154.585 269.14 155.324 269.14C156.064 269.14 156.663 269.739 156.663 270.479Z" fill="white"/>
<path d="M145.951 279.182C145.951 279.922 145.352 280.521 144.612 280.521C143.873 280.521 143.273 279.922 143.273 279.182C143.273 278.443 143.873 277.843 144.612 277.843C145.352 277.843 145.951 278.443 145.951 279.182Z" fill="white"/>
<path d="M150.638 284.538C150.638 285.278 150.038 285.877 149.299 285.877C148.559 285.877 147.96 285.278 147.96 284.538C147.96 283.799 148.559 283.199 149.299 283.199C150.038 283.199 150.638 283.799 150.638 284.538Z" fill="white"/>
<path d="M163.359 297.928C163.359 298.668 162.759 299.267 162.02 299.267C161.28 299.267 160.681 298.668 160.681 297.928C160.681 297.189 161.28 296.589 162.02 296.589C162.759 296.589 163.359 297.189 163.359 297.928Z" fill="white"/>
<path d="M173.401 283.869C173.401 284.608 172.802 285.208 172.062 285.208C171.323 285.208 170.723 284.608 170.723 283.869C170.723 283.129 171.323 282.53 172.062 282.53C172.802 282.53 173.401 283.129 173.401 283.869Z" fill="white"/>
<path d="M170.723 303.284C170.723 304.024 170.123 304.623 169.384 304.623C168.644 304.623 168.045 304.024 168.045 303.284C168.045 302.545 168.644 301.945 169.384 301.945C170.123 301.945 170.723 302.545 170.723 303.284Z" fill="white"/>
<path d="M168.045 308.64C168.045 309.38 167.446 309.979 166.706 309.979C165.967 309.979 165.367 309.38 165.367 308.64C165.367 307.901 165.967 307.301 166.706 307.301C167.446 307.301 168.045 307.901 168.045 308.64Z" fill="white"/>
<path d="M161.35 304.623C161.35 305.363 160.75 305.962 160.011 305.962C159.271 305.962 158.672 305.363 158.672 304.623C158.672 303.884 159.271 303.284 160.011 303.284C160.75 303.284 161.35 303.884 161.35 304.623Z" fill="white"/>
<path d="M156.663 307.971C156.663 308.71 156.064 309.31 155.324 309.31C154.585 309.31 153.985 308.71 153.985 307.971C153.985 307.231 154.585 306.632 155.324 306.632C156.064 306.632 156.663 307.231 156.663 307.971Z" fill="white"/>
<path d="M153.986 311.988C153.986 312.727 153.386 313.327 152.647 313.327C151.907 313.327 151.308 312.727 151.308 311.988C151.308 311.248 151.907 310.649 152.647 310.649C153.386 310.649 153.986 311.248 153.986 311.988Z" fill="white"/>
<path d="M160.68 322.03C160.68 322.77 160.081 323.369 159.341 323.369C158.602 323.369 158.002 322.77 158.002 322.03C158.002 321.291 158.602 320.691 159.341 320.691C160.081 320.691 160.68 321.291 160.68 322.03Z" fill="white"/>
<path d="M159.342 326.717C159.342 327.456 158.742 328.056 158.003 328.056C157.263 328.056 156.664 327.456 156.664 326.717C156.664 325.977 157.263 325.378 158.003 325.378C158.742 325.378 159.342 325.977 159.342 326.717Z" fill="white"/>
<path d="M150.638 320.022C150.638 320.761 150.038 321.361 149.299 321.361C148.559 321.361 147.96 320.761 147.96 320.022C147.96 319.282 148.559 318.683 149.299 318.683C150.038 318.683 150.638 319.282 150.638 320.022Z" fill="white"/>
<path d="M149.969 326.717C149.969 327.456 149.369 328.056 148.63 328.056C147.89 328.056 147.291 327.456 147.291 326.717C147.291 325.977 147.89 325.378 148.63 325.378C149.369 325.378 149.969 325.977 149.969 326.717Z" fill="white"/>
<path d="M147.96 307.971C147.96 308.71 147.36 309.31 146.621 309.31C145.881 309.31 145.282 308.71 145.282 307.971C145.282 307.231 145.881 306.632 146.621 306.632C147.36 306.632 147.96 307.231 147.96 307.971Z" fill="white"/>
<path d="M159.342 332.073C159.342 332.812 158.742 333.412 158.003 333.412C157.263 333.412 156.664 332.812 156.664 332.073C156.664 331.333 157.263 330.734 158.003 330.734C158.742 330.734 159.342 331.333 159.342 332.073Z" fill="white"/>
<path d="M164.028 346.802C164.028 347.541 163.429 348.141 162.689 348.141C161.95 348.141 161.35 347.541 161.35 346.802C161.35 346.062 161.95 345.463 162.689 345.463C163.429 345.463 164.028 346.062 164.028 346.802Z" fill="white"/>
<path d="M157.333 338.768C157.333 339.507 156.733 340.107 155.994 340.107C155.254 340.107 154.655 339.507 154.655 338.768C154.655 338.028 155.254 337.429 155.994 337.429C156.733 337.429 157.333 338.028 157.333 338.768Z" fill="white"/>
<path d="M158.002 348.81C158.002 349.55 157.403 350.149 156.663 350.149C155.924 350.149 155.324 349.55 155.324 348.81C155.324 348.071 155.924 347.471 156.663 347.471C157.403 347.471 158.002 348.071 158.002 348.81Z" fill="white"/>
<path d="M155.994 353.497C155.994 354.236 155.394 354.836 154.655 354.836C153.915 354.836 153.316 354.236 153.316 353.497C153.316 352.757 153.915 352.158 154.655 352.158C155.394 352.158 155.994 352.757 155.994 353.497Z" fill="white"/>
<path d="M145.951 340.107C145.951 340.846 145.352 341.446 144.612 341.446C143.873 341.446 143.273 340.846 143.273 340.107C143.273 339.367 143.873 338.768 144.612 338.768C145.352 338.768 145.951 339.367 145.951 340.107Z" fill="white"/>
<path d="M147.29 354.836C147.29 355.575 146.691 356.175 145.951 356.175C145.212 356.175 144.612 355.575 144.612 354.836C144.612 354.096 145.212 353.497 145.951 353.497C146.691 353.497 147.29 354.096 147.29 354.836Z" fill="white"/>
<path d="M166.036 361.531C166.036 362.271 165.437 362.87 164.697 362.87C163.958 362.87 163.358 362.271 163.358 361.531C163.358 360.792 163.958 360.192 164.697 360.192C165.437 360.192 166.036 360.792 166.036 361.531Z" fill="white"/>
<path d="M160.68 371.574C160.68 372.313 160.081 372.913 159.341 372.913C158.602 372.913 158.002 372.313 158.002 371.574C158.002 370.834 158.602 370.234 159.341 370.234C160.081 370.234 160.68 370.834 160.68 371.574Z" fill="white"/>
<path d="M167.375 366.217C167.375 366.957 166.776 367.556 166.036 367.556C165.297 367.556 164.697 366.957 164.697 366.217C164.697 365.478 165.297 364.878 166.036 364.878C166.776 364.878 167.375 365.478 167.375 366.217Z" fill="white"/>
<path d="M211.563 323.369C211.563 324.109 210.963 324.708 210.224 324.708C209.484 324.708 208.885 324.109 208.885 323.369C208.885 322.63 209.484 322.03 210.224 322.03C210.963 322.03 211.563 322.63 211.563 323.369Z" fill="white"/>
<path d="M214.91 323.369C214.91 324.109 214.31 324.708 213.571 324.708C212.831 324.708 212.232 324.109 212.232 323.369C212.232 322.63 212.831 322.03 213.571 322.03C214.31 322.03 214.91 322.63 214.91 323.369Z" fill="white"/>
<path d="M234.995 287.216C234.995 287.956 234.396 288.555 233.656 288.555C232.917 288.555 232.317 287.956 232.317 287.216C232.317 286.477 232.917 285.877 233.656 285.877C234.396 285.877 234.995 286.477 234.995 287.216Z" fill="white"/>
<path d="M243.029 274.496C243.029 275.235 242.43 275.835 241.69 275.835C240.951 275.835 240.351 275.235 240.351 274.496C240.351 273.756 240.951 273.157 241.69 273.157C242.43 273.157 243.029 273.756 243.029 274.496Z" fill="white"/>
<path d="M248.385 247.046C248.385 247.786 247.786 248.385 247.046 248.385C246.307 248.385 245.707 247.786 245.707 247.046C245.707 246.307 246.307 245.707 247.046 245.707C247.786 245.707 248.385 246.307 248.385 247.046Z" fill="white"/>
<path d="M256.419 233.656C256.419 234.396 255.82 234.995 255.08 234.995C254.341 234.995 253.741 234.396 253.741 233.656C253.741 232.917 254.341 232.317 255.08 232.317C255.82 232.317 256.419 232.917 256.419 233.656Z" fill="white"/>
<path d="M257.089 201.52C257.089 202.26 256.489 202.859 255.75 202.859C255.01 202.859 254.411 202.26 254.411 201.52C254.411 200.781 255.01 200.181 255.75 200.181C256.489 200.181 257.089 200.781 257.089 201.52Z" fill="white"/>
<path d="M257.758 160.68C257.758 161.42 257.159 162.019 256.419 162.019C255.68 162.019 255.08 161.42 255.08 160.68C255.08 159.941 255.68 159.341 256.419 159.341C257.159 159.341 257.758 159.941 257.758 160.68Z" fill="white"/>
<path d="M253.072 117.163C253.072 117.902 252.472 118.502 251.733 118.502C250.993 118.502 250.394 117.902 250.394 117.163C250.394 116.423 250.993 115.824 251.733 115.824C252.472 115.824 253.072 116.423 253.072 117.163Z" fill="white"/>
<path d="M142.604 374.921C142.604 375.661 142.004 376.26 141.265 376.26C140.525 376.26 139.926 375.661 139.926 374.921C139.926 374.182 140.525 373.582 141.265 373.582C142.004 373.582 142.604 374.182 142.604 374.921Z" fill="white"/>
<path d="M143.943 364.209C143.943 364.949 143.343 365.548 142.604 365.548C141.864 365.548 141.265 364.949 141.265 364.209C141.265 363.469 141.864 362.87 142.604 362.87C143.343 362.87 143.943 363.469 143.943 364.209Z" fill="white"/>
<path d="M151.307 378.269C151.307 379.008 150.708 379.608 149.968 379.608C149.229 379.608 148.629 379.008 148.629 378.269C148.629 377.529 149.229 376.93 149.968 376.93C150.708 376.93 151.307 377.529 151.307 378.269Z" fill="white"/>
<path d="M133.231 387.642C133.231 388.381 132.631 388.981 131.892 388.981C131.152 388.981 130.553 388.381 130.553 387.642C130.553 386.902 131.152 386.303 131.892 386.303C132.631 386.303 133.231 386.902 133.231 387.642Z" fill="white"/>
<path d="M127.205 391.659C127.205 392.398 126.606 392.998 125.866 392.998C125.127 392.998 124.527 392.398 124.527 391.659C124.527 390.919 125.127 390.32 125.866 390.32C126.606 390.32 127.205 390.919 127.205 391.659Z" fill="white"/>
<path d="M139.256 397.015C139.256 397.754 138.657 398.354 137.917 398.354C137.178 398.354 136.578 397.754 136.578 397.015C136.578 396.275 137.178 395.676 137.917 395.676C138.657 395.676 139.256 396.275 139.256 397.015Z" fill="white"/>
<path d="M151.307 395.676C151.307 396.415 150.708 397.015 149.968 397.015C149.229 397.015 148.629 396.415 148.629 395.676C148.629 394.936 149.229 394.337 149.968 394.337C150.708 394.337 151.307 394.936 151.307 395.676Z" fill="white"/>
<path d="M155.994 394.337C155.994 395.076 155.394 395.676 154.655 395.676C153.915 395.676 153.316 395.076 153.316 394.337C153.316 393.597 153.915 392.998 154.655 392.998C155.394 392.998 155.994 393.597 155.994 394.337Z" fill="white"/>
<path d="M170.053 376.93C170.053 377.669 169.454 378.269 168.714 378.269C167.975 378.269 167.375 377.669 167.375 376.93C167.375 376.19 167.975 375.591 168.714 375.591C169.454 375.591 170.053 376.19 170.053 376.93Z" fill="white"/>
<path d="M166.706 380.947C166.706 381.686 166.106 382.286 165.367 382.286C164.627 382.286 164.028 381.686 164.028 380.947C164.028 380.207 164.627 379.608 165.367 379.608C166.106 379.608 166.706 380.207 166.706 380.947Z" fill="white"/>
<path d="M158.672 390.989C158.672 391.729 158.073 392.328 157.333 392.328C156.594 392.328 155.994 391.729 155.994 390.989C155.994 390.25 156.594 389.65 157.333 389.65C158.073 389.65 158.672 390.25 158.672 390.989Z" fill="white"/>
<path d="M126.536 409.066C126.536 409.805 125.936 410.405 125.197 410.405C124.457 410.405 123.858 409.805 123.858 409.066C123.858 408.326 124.457 407.727 125.197 407.727C125.936 407.727 126.536 408.326 126.536 409.066Z" fill="white"/>
<path d="M119.171 407.057C119.171 407.797 118.572 408.396 117.832 408.396C117.093 408.396 116.493 407.797 116.493 407.057C116.493 406.318 117.093 405.718 117.832 405.718C118.572 405.718 119.171 406.318 119.171 407.057Z" fill="white"/>
<path d="M121.18 429.82C121.18 430.56 120.58 431.159 119.841 431.159C119.101 431.159 118.502 430.56 118.502 429.82C118.502 429.081 119.101 428.481 119.841 428.481C120.58 428.481 121.18 429.081 121.18 429.82Z" fill="white"/>
<path d="M117.832 433.837C117.832 434.577 117.233 435.176 116.493 435.176C115.754 435.176 115.154 434.577 115.154 433.837C115.154 433.098 115.754 432.498 116.493 432.498C117.233 432.498 117.832 433.098 117.832 433.837Z" fill="white"/>
<path d="M109.129 441.871C109.129 442.611 108.529 443.21 107.79 443.21C107.05 443.21 106.451 442.611 106.451 441.871C106.451 441.132 107.05 440.532 107.79 440.532C108.529 440.532 109.129 441.132 109.129 441.871Z" fill="white"/>
<path d="M103.773 445.219C103.773 445.958 103.173 446.558 102.434 446.558C101.694 446.558 101.095 445.958 101.095 445.219C101.095 444.479 101.694 443.88 102.434 443.88C103.173 443.88 103.773 444.479 103.773 445.219Z" fill="white"/>
<path d="M107.12 434.507C107.12 435.246 106.521 435.846 105.781 435.846C105.042 435.846 104.442 435.246 104.442 434.507C104.442 433.767 105.042 433.168 105.781 433.168C106.521 433.168 107.12 433.767 107.12 434.507Z" fill="white"/>
<path d="M100.425 425.803C100.425 426.543 99.8256 427.142 99.0861 427.142C98.3466 427.142 97.7471 426.543 97.7471 425.803C97.7471 425.064 98.3466 424.464 99.0861 424.464C99.8256 424.464 100.425 425.064 100.425 425.803Z" fill="white"/>
<path d="M111.137 416.43C111.137 417.17 110.538 417.769 109.798 417.769C109.059 417.769 108.459 417.17 108.459 416.43C108.459 415.691 109.059 415.091 109.798 415.091C110.538 415.091 111.137 415.691 111.137 416.43Z" fill="white"/>
<path d="M87.0354 432.498C87.0354 433.238 86.4359 433.837 85.6964 433.837C84.9569 433.837 84.3574 433.238 84.3574 432.498C84.3574 431.759 84.9569 431.159 85.6964 431.159C86.4359 431.159 87.0354 431.759 87.0354 432.498Z" fill="white"/>
<path d="M81.0096 431.159C81.0096 431.899 80.4101 432.498 79.6705 432.498C78.931 432.498 78.3315 431.899 78.3315 431.159C78.3315 430.42 78.931 429.82 79.6705 429.82C80.4101 429.82 81.0096 430.42 81.0096 431.159Z" fill="white"/>
<path d="M81.0096 455.261C81.0096 456.001 80.4101 456.6 79.6705 456.6C78.931 456.6 78.3315 456.001 78.3315 455.261C78.3315 454.522 78.931 453.922 79.6705 453.922C80.4101 453.922 81.0096 454.522 81.0096 455.261Z" fill="white"/>
<path d="M96.4085 448.566C96.4085 449.306 95.809 449.905 95.0695 449.905C94.33 449.905 93.7305 449.306 93.7305 448.566C93.7305 447.827 94.33 447.227 95.0695 447.227C95.809 447.227 96.4085 447.827 96.4085 448.566Z" fill="white"/>
<path d="M77.6624 455.261C77.6624 456.001 77.0629 456.6 76.3234 456.6C75.5839 456.6 74.9844 456.001 74.9844 455.261C74.9844 454.522 75.5839 453.922 76.3234 453.922C77.0629 453.922 77.6624 454.522 77.6624 455.261Z" fill="white"/>
<path d="M62.2635 451.914C62.2635 452.653 61.664 453.253 60.9245 453.253C60.1849 453.253 59.5854 452.653 59.5854 451.914C59.5854 451.174 60.1849 450.575 60.9245 450.575C61.664 450.575 62.2635 451.174 62.2635 451.914Z" fill="white"/>
<path d="M54.8992 447.227C54.8992 447.967 54.2997 448.566 53.5602 448.566C52.8207 448.566 52.2212 447.967 52.2212 447.227C52.2212 446.488 52.8207 445.888 53.5602 445.888C54.2997 445.888 54.8992 446.488 54.8992 447.227Z" fill="white"/>
<path d="M48.2044 452.583C48.2044 453.323 47.6049 453.922 46.8654 453.922C46.1259 453.922 45.5264 453.323 45.5264 452.583C45.5264 451.844 46.1259 451.244 46.8654 451.244C47.6049 451.244 48.2044 451.844 48.2044 452.583Z" fill="white"/>
<path d="M50.2127 438.524C50.2127 439.263 49.6132 439.863 48.8737 439.863C48.1342 439.863 47.5347 439.263 47.5347 438.524C47.5347 437.784 48.1342 437.185 48.8737 437.185C49.6132 437.185 50.2127 437.784 50.2127 438.524Z" fill="white"/>
<path d="M43.5179 447.227C43.5179 447.967 42.9184 448.566 42.1788 448.566C41.4393 448.566 40.8398 447.967 40.8398 447.227C40.8398 446.488 41.4393 445.888 42.1788 445.888C42.9184 445.888 43.5179 446.488 43.5179 447.227Z" fill="white"/>
<path d="M63.6028 429.82C63.6028 430.56 63.0033 431.159 62.2638 431.159C61.5243 431.159 60.9248 430.56 60.9248 429.82C60.9248 429.081 61.5243 428.481 62.2638 428.481C63.0033 428.481 63.6028 429.081 63.6028 429.82Z" fill="white"/>
<path d="M65.6111 415.091C65.6111 415.831 65.0116 416.43 64.2721 416.43C63.5326 416.43 62.9331 415.831 62.9331 415.091C62.9331 414.352 63.5326 413.752 64.2721 413.752C65.0116 413.752 65.6111 414.352 65.6111 415.091Z" fill="white"/>
<path d="M77.6624 401.701C77.6624 402.441 77.0629 403.04 76.3234 403.04C75.5839 403.04 74.9844 402.441 74.9844 401.701C74.9844 400.962 75.5839 400.362 76.3234 400.362C77.0629 400.362 77.6624 400.962 77.6624 401.701Z" fill="white"/>
<path d="M99.7556 390.32C99.7556 391.059 99.1562 391.659 98.4166 391.659C97.6771 391.659 97.0776 391.059 97.0776 390.32C97.0776 389.58 97.6771 388.981 98.4166 388.981C99.1562 388.981 99.7556 389.58 99.7556 390.32Z" fill="white"/>
<path d="M77.6624 407.727C77.6624 408.466 77.0629 409.066 76.3234 409.066C75.5839 409.066 74.9844 408.466 74.9844 407.727C74.9844 406.987 75.5839 406.388 76.3234 406.388C77.0629 406.388 77.6624 406.987 77.6624 407.727Z" fill="white"/>
<path d="M117.163 397.015C117.163 397.754 116.563 398.354 115.824 398.354C115.084 398.354 114.485 397.754 114.485 397.015C114.485 396.275 115.084 395.676 115.824 395.676C116.563 395.676 117.163 396.275 117.163 397.015Z" fill="white"/>
<path d="M99.7556 386.972C99.7556 387.712 99.1562 388.311 98.4166 388.311C97.6771 388.311 97.0776 387.712 97.0776 386.972C97.0776 386.233 97.6771 385.633 98.4166 385.633C99.1562 385.633 99.7556 386.233 99.7556 386.972Z" fill="white"/>
<path d="M119.171 378.269C119.171 379.008 118.572 379.608 117.832 379.608C117.093 379.608 116.493 379.008 116.493 378.269C116.493 377.529 117.093 376.93 117.832 376.93C118.572 376.93 119.171 377.529 119.171 378.269Z" fill="white"/>
<path d="M99.7556 376.93C99.7556 377.669 99.1562 378.269 98.4166 378.269C97.6771 378.269 97.0776 377.669 97.0776 376.93C97.0776 376.19 97.6771 375.591 98.4166 375.591C99.1562 375.591 99.7556 376.19 99.7556 376.93Z" fill="white"/>
<path d="M99.7556 370.235C99.7556 370.974 99.1562 371.574 98.4166 371.574C97.6771 371.574 97.0776 370.974 97.0776 370.235C97.0776 369.495 97.6771 368.896 98.4166 368.896C99.1562 368.896 99.7556 369.495 99.7556 370.235Z" fill="white"/>
<path d="M129.214 361.531C129.214 362.271 128.614 362.87 127.875 362.87C127.135 362.87 126.536 362.271 126.536 361.531C126.536 360.792 127.135 360.192 127.875 360.192C128.614 360.192 129.214 360.792 129.214 361.531Z" fill="white"/>
<path d="M122.519 367.557C122.519 368.296 121.919 368.896 121.18 368.896C120.44 368.896 119.841 368.296 119.841 367.557C119.841 366.817 120.44 366.218 121.18 366.218C121.919 366.218 122.519 366.817 122.519 367.557Z" fill="white"/>
<path d="M126.536 360.192C126.536 360.931 125.936 361.531 125.197 361.531C124.457 361.531 123.858 360.931 123.858 360.192C123.858 359.452 124.457 358.853 125.197 358.853C125.936 358.853 126.536 359.452 126.536 360.192Z" fill="white"/>
<path d="M125.866 353.497C125.866 354.236 125.267 354.836 124.527 354.836C123.788 354.836 123.188 354.236 123.188 353.497C123.188 352.757 123.788 352.158 124.527 352.158C125.267 352.158 125.866 352.757 125.866 353.497Z" fill="white"/>
<path d="M126.536 346.802C126.536 347.541 125.936 348.141 125.197 348.141C124.457 348.141 123.858 347.541 123.858 346.802C123.858 346.062 124.457 345.463 125.197 345.463C125.936 345.463 126.536 346.062 126.536 346.802Z" fill="white"/>
<path d="M139.256 346.802C139.256 347.541 138.657 348.141 137.917 348.141C137.178 348.141 136.578 347.541 136.578 346.802C136.578 346.062 137.178 345.463 137.917 345.463C138.657 345.463 139.256 346.062 139.256 346.802Z" fill="white"/>
<path d="M139.926 342.115C139.926 342.855 139.327 343.454 138.587 343.454C137.848 343.454 137.248 342.855 137.248 342.115C137.248 341.376 137.848 340.776 138.587 340.776C139.327 340.776 139.926 341.376 139.926 342.115Z" fill="white"/>
<path d="M141.934 312.657C141.934 313.397 141.335 313.996 140.595 313.996C139.856 313.996 139.256 313.397 139.256 312.657C139.256 311.918 139.856 311.318 140.595 311.318C141.335 311.318 141.934 311.918 141.934 312.657Z" fill="white"/>
<path d="M133.9 317.344C133.9 318.083 133.301 318.683 132.561 318.683C131.822 318.683 131.222 318.083 131.222 317.344C131.222 316.604 131.822 316.005 132.561 316.005C133.301 316.005 133.9 316.604 133.9 317.344Z" fill="white"/>
<path d="M142.604 295.25C142.604 295.99 142.004 296.589 141.265 296.589C140.525 296.589 139.926 295.99 139.926 295.25C139.926 294.511 140.525 293.911 141.265 293.911C142.004 293.911 142.604 294.511 142.604 295.25Z" fill="white"/>
<path d="M35.4837 447.897C35.4837 448.636 34.8842 449.236 34.1447 449.236C33.4052 449.236 32.8057 448.636 32.8057 447.897C32.8057 447.157 33.4052 446.558 34.1447 446.558C34.8842 446.558 35.4837 447.157 35.4837 447.897Z" fill="white"/>
<path d="M36.1531 452.583C36.1531 453.323 35.5536 453.922 34.8141 453.922C34.0746 453.922 33.4751 453.323 33.4751 452.583C33.4751 451.844 34.0746 451.244 34.8141 451.244C35.5536 451.244 36.1531 451.844 36.1531 452.583Z" fill="white"/>
<path d="M28.7884 466.643C28.7884 467.382 28.1889 467.982 27.4494 467.982C26.7098 467.982 26.1104 467.382 26.1104 466.643C26.1104 465.903 26.7098 465.304 27.4494 465.304C28.1889 465.304 28.7884 465.903 28.7884 466.643Z" fill="white"/>
<path d="M35.4837 464.634C35.4837 465.374 34.8842 465.973 34.1447 465.973C33.4052 465.973 32.8057 465.374 32.8057 464.634C32.8057 463.895 33.4052 463.295 34.1447 463.295C34.8842 463.295 35.4837 463.895 35.4837 464.634Z" fill="white"/>
<path d="M39.5008 460.617C39.5008 461.357 38.9013 461.956 38.1618 461.956C37.4222 461.956 36.8228 461.357 36.8228 460.617C36.8228 459.878 37.4222 459.278 38.1618 459.278C38.9013 459.278 39.5008 459.878 39.5008 460.617Z" fill="white"/>
<path d="M29.4583 477.355C29.4583 478.094 28.8588 478.694 28.1193 478.694C27.3798 478.694 26.7803 478.094 26.7803 477.355C26.7803 476.615 27.3798 476.016 28.1193 476.016C28.8588 476.016 29.4583 476.615 29.4583 477.355Z" fill="white"/>
<path d="M12.7205 465.304C12.7205 466.043 12.121 466.643 11.3815 466.643C10.642 466.643 10.0425 466.043 10.0425 465.304C10.0425 464.564 10.642 463.965 11.3815 463.965C12.121 463.965 12.7205 464.564 12.7205 465.304Z" fill="white"/>
<path d="M12.0511 472.668C12.0511 473.408 11.4516 474.007 10.7121 474.007C9.97254 474.007 9.37305 473.408 9.37305 472.668C9.37305 471.929 9.97254 471.329 10.7121 471.329C11.4516 471.329 12.0511 471.929 12.0511 472.668Z" fill="white"/>
<path d="M9.37283 479.363C9.37283 480.103 8.77334 480.702 8.03383 480.702C7.29432 480.702 6.69482 480.103 6.69482 479.363C6.69482 478.624 7.29432 478.024 8.03383 478.024C8.77334 478.024 9.37283 478.624 9.37283 479.363Z" fill="white"/>
<path d="M2.67801 489.406C2.67801 490.145 2.07852 490.745 1.339 490.745C0.599492 490.745 0 490.145 0 489.406C0 488.666 0.599492 488.067 1.339 488.067C2.07852 488.067 2.67801 488.666 2.67801 489.406Z" fill="white"/>
<path d="M7.36453 512.169C7.36453 512.908 6.76504 513.508 6.02553 513.508C5.28602 513.508 4.68652 512.908 4.68652 512.169C4.68652 511.429 5.28602 510.83 6.02553 510.83C6.76504 510.83 7.36453 511.429 7.36453 512.169Z" fill="white"/>
<path d="M18.0764 530.245C18.0764 530.985 17.477 531.584 16.7374 531.584C15.9979 531.584 15.3984 530.985 15.3984 530.245C15.3984 529.506 15.9979 528.906 16.7374 528.906C17.477 528.906 18.0764 529.506 18.0764 530.245Z" fill="white"/>
<path d="M21.4241 549.661C21.4241 550.401 20.8246 551 20.0851 551C19.3456 551 18.7461 550.401 18.7461 549.661C18.7461 548.922 19.3456 548.322 20.0851 548.322C20.8246 548.322 21.4241 548.922 21.4241 549.661Z" fill="white"/>
<path d="M146.621 327.386C146.621 328.126 146.021 328.725 145.282 328.725C144.542 328.725 143.943 328.126 143.943 327.386C143.943 326.647 144.542 326.047 145.282 326.047C146.021 326.047 146.621 326.647 146.621 327.386Z" fill="white"/>
<path d="M156.663 243.699C156.663 244.438 156.064 245.038 155.324 245.038C154.585 245.038 153.985 244.438 153.985 243.699C153.985 242.959 154.585 242.36 155.324 242.36C156.064 242.36 156.663 242.959 156.663 243.699Z" fill="white"/>
<path d="M153.316 246.377C153.316 247.116 152.716 247.716 151.977 247.716C151.237 247.716 150.638 247.116 150.638 246.377C150.638 245.637 151.237 245.038 151.977 245.038C152.716 245.038 153.316 245.637 153.316 246.377Z" fill="white"/>
<path d="M164.028 240.351C164.028 241.091 163.429 241.69 162.689 241.69C161.95 241.69 161.35 241.091 161.35 240.351C161.35 239.612 161.95 239.012 162.689 239.012C163.429 239.012 164.028 239.612 164.028 240.351Z" fill="white"/>
<path d="M149.299 230.309C149.299 231.048 148.7 231.648 147.96 231.648C147.221 231.648 146.621 231.048 146.621 230.309C146.621 229.569 147.221 228.97 147.96 228.97C148.7 228.97 149.299 229.569 149.299 230.309Z" fill="white"/>
<path d="M156.663 223.614C156.663 224.353 156.064 224.953 155.324 224.953C154.585 224.953 153.985 224.353 153.985 223.614C153.985 222.874 154.585 222.275 155.324 222.275C156.064 222.275 156.663 222.874 156.663 223.614Z" fill="white"/>
<path d="M152.646 237.673C152.646 238.413 152.047 239.012 151.307 239.012C150.568 239.012 149.968 238.413 149.968 237.673C149.968 236.934 150.568 236.334 151.307 236.334C152.047 236.334 152.646 236.934 152.646 237.673Z" fill="white"/>
<path d="M132.561 250.394C132.561 251.133 131.962 251.733 131.222 251.733C130.483 251.733 129.883 251.133 129.883 250.394C129.883 249.654 130.483 249.055 131.222 249.055C131.962 249.055 132.561 249.654 132.561 250.394Z" fill="white"/>
<path d="M130.553 264.453C130.553 265.193 129.954 265.792 129.214 265.792C128.474 265.792 127.875 265.193 127.875 264.453C127.875 263.714 128.474 263.114 129.214 263.114C129.954 263.114 130.553 263.714 130.553 264.453Z" fill="white"/>
<path d="M146.621 253.072C146.621 253.811 146.021 254.411 145.282 254.411C144.542 254.411 143.943 253.811 143.943 253.072C143.943 252.332 144.542 251.733 145.282 251.733C146.021 251.733 146.621 252.332 146.621 253.072Z" fill="white"/>
<path d="M139.256 260.436C139.256 261.176 138.657 261.775 137.917 261.775C137.178 261.775 136.578 261.176 136.578 260.436C136.578 259.697 137.178 259.097 137.917 259.097C138.657 259.097 139.256 259.697 139.256 260.436Z" fill="white"/>
<path d="M140.595 264.453C140.595 265.193 139.996 265.792 139.256 265.792C138.517 265.792 137.917 265.193 137.917 264.453C137.917 263.714 138.517 263.114 139.256 263.114C139.996 263.114 140.595 263.714 140.595 264.453Z" fill="white"/>
<path d="M129.884 279.182C129.884 279.922 129.284 280.521 128.545 280.521C127.805 280.521 127.206 279.922 127.206 279.182C127.206 278.443 127.805 277.843 128.545 277.843C129.284 277.843 129.884 278.443 129.884 279.182Z" fill="white"/>
<path d="M133.9 287.886C133.9 288.625 133.301 289.225 132.561 289.225C131.822 289.225 131.222 288.625 131.222 287.886C131.222 287.146 131.822 286.547 132.561 286.547C133.301 286.547 133.9 287.146 133.9 287.886Z" fill="white"/>
<path d="M124.527 293.911C124.527 294.651 123.928 295.25 123.188 295.25C122.449 295.25 121.849 294.651 121.849 293.911C121.849 293.172 122.449 292.572 123.188 292.572C123.928 292.572 124.527 293.172 124.527 293.911Z" fill="white"/>
<path d="M122.519 304.623C122.519 305.363 121.919 305.962 121.18 305.962C120.44 305.962 119.841 305.363 119.841 304.623C119.841 303.884 120.44 303.284 121.18 303.284C121.919 303.284 122.519 303.884 122.519 304.623Z" fill="white"/>
<path d="M111.137 318.683C111.137 319.422 110.538 320.022 109.798 320.022C109.059 320.022 108.459 319.422 108.459 318.683C108.459 317.943 109.059 317.344 109.798 317.344C110.538 317.344 111.137 317.943 111.137 318.683Z" fill="white"/>
<path d="M105.112 334.081C105.112 334.821 104.512 335.42 103.773 335.42C103.033 335.42 102.434 334.821 102.434 334.081C102.434 333.342 103.033 332.742 103.773 332.742C104.512 332.742 105.112 333.342 105.112 334.081Z" fill="white"/>
<path d="M102.434 348.81C102.434 349.55 101.834 350.149 101.095 350.149C100.355 350.149 99.7559 349.55 99.7559 348.81C99.7559 348.071 100.355 347.471 101.095 347.471C101.834 347.471 102.434 348.071 102.434 348.81Z" fill="white"/>
<path d="M121.18 311.988C121.18 312.727 120.58 313.327 119.841 313.327C119.101 313.327 118.502 312.727 118.502 311.988C118.502 311.248 119.101 310.649 119.841 310.649C120.58 310.649 121.18 311.248 121.18 311.988Z" fill="white"/>
<path d="M178.088 257.758C178.088 258.498 177.488 259.097 176.749 259.097C176.009 259.097 175.41 258.498 175.41 257.758C175.41 257.019 176.009 256.419 176.749 256.419C177.488 256.419 178.088 257.019 178.088 257.758Z" fill="white"/>
<circle cx="190.138" cy="139.926" r="1.339" fill="white"/>
<circle cx="204.867" cy="95.7388" r="1.339" fill="white"/>
</g>
</svg>
