<svg width="490" height="81" viewBox="0 0 490 81" fill="none" xmlns="http://www.w3.org/2000/svg">
<path d="M489 1C358.994 8.84148 178.865 25.6293 1 45.586M489 1.1595C359.539 9.98428 179.31 26.1939 1 43.5908M489 1.57637C357.991 7.63943 178.052 25.5941 1 50.4609M489 1.71291C360.114 11.5859 179.78 27.2279 1 42.0087M489 2.1717C357.534 7.43654 177.684 25.9693 1 53.1663M489 2.72412C360.718 13.7121 180.275 28.8023 1 40.9207M489 4.25439C361.353 16.4258 180.797 30.9856 1 40.4053M489 6.35197C362.018 19.7773 181.345 33.8332 1 40.5277M489 9.06073C362.713 23.8126 181.92 37.3965 1 41.3486M489 14.4281C363.44 30.5811 182.522 43.7303 1 44.9321M489 30.3272C364.197 47.9583 183.15 60.7152 1 59.1677M489 46.956C364.987 66.1445 183.807 78.5566 1 74.2693M489 64.2969C365.81 85.1247 184.492 97.2446 1 90.2353M489 82.3379C366.666 104.89 185.205 116.775 1 107.069M489 101.065C367.556 125.428 185.948 137.142 1 124.772M489 120.466C368.481 146.73 186.72 158.339 1 143.346M489 140.525C369.444 168.784 187.524 180.361 1 162.79M489 161.232C370.444 191.584 188.359 203.206 1 183.108" stroke="#505050" stroke-width="0.5"/>
</svg>
