<svg width="490" height="165" viewBox="0 0 490 165" fill="none" xmlns="http://www.w3.org/2000/svg">
<path opacity="0.6" d="M1 0.905273C82.0083 11.6069 159.733 26.0665 225.116 45.3824C308.345 69.9701 400.436 79.8923 489 81.2552M1 1.33623C80.0596 11.3088 155.891 24.9355 219.978 43.32C304.753 67.4635 398.781 77.5891 489 79.4103M1 1.96827C77.9863 11.1855 151.809 23.9476 214.507 41.3585C300.926 64.9992 397.024 75.3799 489 77.7361M1 2.85888C75.789 11.2989 147.488 23.1693 208.702 39.5685C296.863 62.6423 395.167 73.3386 489 76.3152M1 4.06931C73.4683 11.7152 142.93 22.6718 202.563 38.0252C292.565 60.4629 393.212 71.5448 489 75.2363M1 5.65886C71.0252 12.4991 138.138 22.5251 196.09 36.8034C288.03 58.5302 391.158 70.0783 489 74.5882M1 7.67842C68.4605 13.7073 133.113 22.7914 189.284 35.9708C283.26 56.9061 389.01 69.0124 489 74.4541M1 10.1747C65.7753 15.3927 127.859 23.5301 182.143 35.5922C278.252 55.6497 386.767 68.4187 489 74.9152M1 13.1807C62.9708 17.5952 122.377 24.7877 174.67 35.7205C273.008 54.8078 384.432 68.3576 489 76.0417M1 16.7218C60.0486 20.3475 116.672 26.6039 166.862 36.4023C267.526 54.421 382.008 68.8843 489 77.8986M1 22.8272C57.0102 25.6866 110.746 31.0234 158.721 39.6899C261.807 56.5354 379.497 72.0604 489 82.5572M1 39.3507C53.8576 41.4749 104.602 45.9167 150.246 53.462C255.851 69.0236 376.9 85.7753 489 97.9165M1 56.4679C50.593 57.8969 98.2451 61.4768 141.437 67.9211C249.657 82.0815 374.221 100.243 489 114.199M1 74.1396C47.2189 74.9227 91.678 77.6831 132.294 83.0563C243.226 95.6922 371.463 115.465 489 131.417M1 92.3276C43.738 92.524 84.905 94.5171 122.818 98.8604C236.557 109.842 368.628 131.448 489 149.584M1 110.992C40.1536 110.671 77.9307 111.959 113.008 115.326C220.836 123.822 345.267 144.704 460.848 164.017M1 130.093C36.4691 129.334 70.7594 129.99 102.864 132.447C179.87 137.118 265.408 149.564 350.258 164M1 149.586C32.6886 148.479 63.3957 148.588 92.387 150.216C137.186 152.105 184.895 157.122 233.708 163.991" stroke="white" stroke-width="0.5"/>
</svg>
