<svg width="490" height="80" viewBox="0 0 490 80" fill="none" xmlns="http://www.w3.org/2000/svg">
<path d="M19.0073 10.5349C13.238 7.23551 7.23149 4.09244 1 1.10104M1 1C12.217 5.88016 22.7578 11.2223 32.5586 17.0517C162.327 99.8177 329.535 135.451 489 135.346M1 1.46156C17.6267 7.95891 32.8801 15.408 46.5708 23.8847C173.552 107.557 334.378 146.166 489 149.196M1 1.69751C2.65663 2.56746 4.29624 3.4488 5.91846 4.34155C140.734 84.7177 320.531 114.11 489 108.276M1 2.54359C23.4693 10.354 43.6257 19.7914 61.0435 31.027C185.05 115.382 339.443 156.836 489 163.147M1 2.83501C137.307 78.3793 319.59 103.436 489 95.2045M1 3.3642C139.258 66.1347 321.825 82.1857 489 70.3028M1 3.45556C138.282 72.3888 320.708 92.7414 489 82.5263M1 4.29908C29.7492 13.0917 55.0125 24.3747 75.9771 38.4764C196.812 123.266 344.724 167.405 489 177.11M1 6.76813C36.4671 16.1907 67.0549 29.1553 91.3721 46.2264C204.035 127.713 338.718 173.942 472 189.204M1 9.98538C43.6199 19.6691 79.7632 34.1325 107.228 54.2726C196.424 120.718 298.486 165.122 402.5 189.255M1 12.4687C140.23 69.5064 322.934 81.6343 489 68.3734M1 13.979C51.2021 23.5426 93.1455 39.3055 123.544 62.6114C198.419 120.015 281.711 161.931 367.372 189.206M1 22.9969C141.19 74.7123 324.031 83.2716 489 68.8971M1 32.9963C142.136 79.7798 325.113 85.1015 489 69.8532M1 42.5116C143.063 84.7338 326.175 87.1258 489 71.2201M1 51.5765C143.966 89.5883 327.216 89.3367 489 72.9672M1 60.2057C144.844 94.3382 328.231 91.7079 489 75.0466M1 68.4075C145.693 98.9734 329.217 94.2082 489 77.4054M1 76.1727C146.511 103.466 330.173 96.7918 489 79.9786M1 83.4871C147.296 107.787 331.094 99.4093 489 82.6972M1 90.3365C148.045 111.903 331.978 102.013 489 85.4953" stroke="#505050" stroke-width="0.5"/>
</svg>
