<svg width="300" height="270" viewBox="0 0 300 270" fill="none" xmlns="http://www.w3.org/2000/svg">
<path d="M165.319 249.782C154.222 255.595 145.239 256.124 134.142 249.782L23.6989 183.728C19.4715 179.501 18.9522 173.692 23.699 171.046L134.142 105.52C144.71 99.1787 154.222 99.7071 165.319 105.52L269.949 166.29C282.632 173.16 278.933 180.558 267.836 187.956L165.319 249.782Z" fill="#CECECE" stroke="white" stroke-width="0.5"/>
<g filter="url(#filter0_f_342_1646)">
<path d="M118.406 102.839C127.131 97.4063 136.912 97.0266 148.047 98.7272C160.925 100.694 172.763 106.777 183.306 114.43L197.943 125.054C222.92 143.184 240.224 177.052 214.939 194.75C180.239 219.037 116.926 220.675 108.048 214.386L69.2034 191.199C61.8154 186.788 57.2908 178.818 57.2908 170.214C57.2908 167.23 57.837 164.272 58.9025 161.486L60.0774 158.413C62.6648 151.646 66.9489 145.657 72.518 141.023L118.406 102.839Z" fill="#7A7A7A"/>
</g>
<g filter="url(#filter1_d_342_1646)">
<path d="M273.12 168.403C280.295 175.333 278.565 179.543 268.893 187.427V202.752L277.348 197.996C279.689 195.895 280.073 194.452 279.99 191.654V180.029C279.916 173.107 277.993 170.943 273.12 168.403Z" fill="white"/>
</g>
<g filter="url(#filter2_d_342_1646)">
<path d="M51.1776 199.581V214.906L23.1706 197.996C20.5284 195.882 20.0001 193.768 20 190.069V176.858C21.0569 179.501 22.6422 182.671 24.2275 183.2L51.1776 199.581Z" fill="white"/>
</g>
<g filter="url(#filter3_d_342_1646)">
<path d="M64.3884 222.831V208.035L72.8434 213.32V228.116L64.3884 222.831Z" fill="white"/>
</g>
<path d="M51.1775 214.905L133.613 264.578M133.613 264.578V249.59M133.613 264.578C143.22 270.418 155.808 270.391 165.319 264.578M165.319 264.578L167.736 263.136M165.319 264.578V262.464M165.319 249.782V253.481M255.682 210.637L268.893 187.427V191.654M255.682 210.637L259.381 208.429M255.682 210.637L252.073 212.792M259.381 208.429L268.893 191.654M259.381 208.429L263.08 206.221M268.893 191.654V195.353M268.893 195.353L263.08 206.221M268.893 195.353V199.052M263.08 206.221L265.986 204.486M265.986 204.486L268.893 202.751V199.052M265.986 204.486L268.893 199.052M252.073 212.792L264.665 190.069M252.073 212.792L248.812 214.738M248.812 214.738L260.438 192.711M248.812 214.738L244.585 217.262M244.585 217.262L255.153 195.882M244.585 217.262L240.357 219.785M240.357 219.785L250.397 198.524M240.357 219.785L236.658 221.993M236.658 221.993L245.641 201.166M236.658 221.993L232.132 224.695M232.132 224.695L240.885 204.337M232.132 224.695L227.286 227.588M227.286 227.588L236.13 206.979M227.286 227.588L223.447 229.879M223.447 229.879L231.374 210.149M223.447 229.879L219.748 232.088M219.748 232.088L227.286 212.263M219.748 232.088L216.049 234.296M216.049 234.296L222.39 215.434M216.049 234.296L212.237 236.571M212.237 236.571L218.163 218.076M212.237 236.571L208.651 238.712M208.651 238.712L213.935 220.718M208.651 238.712L205.48 240.605M205.48 240.605L209.708 223.36M205.48 240.605L201.781 242.813M201.781 242.813L205.48 225.474M201.781 242.813L197.188 245.555M197.188 245.555L201.781 227.588M197.188 245.555L192.798 248.175M192.798 248.175L197.188 230.504M192.798 248.175L188.336 250.839M188.336 250.839L192.798 233.401M188.336 250.839L183.909 253.481M183.909 253.481C183.834 253.058 186.985 241.679 188.57 236.043M183.909 253.481L179.059 256.377M179.059 256.377L183.286 239.213M179.059 256.377L175.057 258.765M175.057 258.765L179.587 241.327M175.057 258.765L171.132 261.108M171.132 261.108L175.36 243.969M171.132 261.108L167.736 263.136M167.736 263.136L171.661 246.083M165.319 262.464L168.49 248.175M165.319 262.464V253.481M165.319 253.481L166.376 249.254" stroke="white" stroke-width="0.5"/>
<path d="M186.255 174.222C178.331 177.774 169.358 180.202 159.322 181.219C155.825 181.574 152.199 181.758 148.443 181.758C144.317 181.758 140.348 181.536 136.534 181.11C126.696 180.009 117.894 177.543 110.115 173.989C95.9893 167.533 85.2382 157.486 77.7928 145.503C74.7522 140.609 72.263 135.392 70.3203 129.965C70.1123 129.384 69.9106 128.8 69.7151 128.214C65.8255 116.559 64.4144 104.004 65.4362 91.6381C66.3394 80.7077 69.1436 69.9256 73.8174 60.0445C76.0508 55.3226 78.7111 50.8066 81.7948 46.5783C85.079 42.0754 88.8434 37.8989 93.0839 34.1481C100.691 27.4195 109.83 22.0608 120.478 18.6445C122.984 17.8403 125.574 17.1438 128.247 16.5624C134.521 15.1975 141.255 14.4668 148.443 14.4668C156.23 14.4668 163.484 15.3244 170.199 16.9169C183.54 20.0809 194.755 26.1457 203.802 34.1481C207.88 37.7547 211.517 41.7549 214.71 46.0604C217.957 50.4371 220.744 55.1293 223.069 60.0445C227.742 69.9256 230.547 80.7077 231.45 91.6381C232.283 101.722 231.499 111.932 229.071 121.678C228.522 123.883 227.889 126.064 227.171 128.214C225.15 134.271 222.459 140.085 219.093 145.503C211.557 157.632 200.635 167.777 186.255 174.222Z" fill="#CECECE"/>
<path d="M148.443 26.8971C149.798 26.8971 150.917 27.0908 151.808 27.415M148.443 26.8971C147.004 26.8971 145.855 27.0908 144.97 27.415M148.443 26.8971V19.1281M148.443 14.4668V19.1281M148.443 14.4668C138.193 14.4668 128.867 15.9527 120.478 18.6445M148.443 14.4668C171.703 14.4668 190.201 22.1181 203.802 34.1481M151.808 27.415C156.895 22.3155 161.912 17.5744 170.199 16.9169C217.33 34.1023 188.838 68.8492 148.443 68.8492C108.048 68.8492 84.2229 39.3273 120.478 18.6445M151.808 27.415C153.025 27.8579 153.816 28.5442 154.198 29.3124M144.97 27.415C140.031 22.3201 135.498 19.1281 128.247 16.5624M144.97 27.415C143.761 27.8579 143.044 28.5442 142.749 29.3124M148.443 19.1281C114.778 20.164 117.369 48.65 148.443 48.65C181.592 48.65 179.002 18.6102 148.443 19.1281ZM142.749 29.3124C116.724 26.9769 103.306 30.6466 81.7948 46.5783M142.749 29.3124C142.535 29.8706 142.543 30.4721 142.749 31.0549M81.7948 46.5783C85.079 42.0754 88.8434 37.8989 93.0839 34.1481M81.7948 46.5783C78.7111 50.8066 76.0508 55.3226 73.8174 60.0445M154.198 29.3124C184.282 28.0938 197.329 32 214.71 46.0604M154.198 29.3124C154.473 29.8661 154.535 30.4622 154.391 31.0405M214.71 46.0604C211.517 41.7548 207.88 37.7547 203.802 34.1481M214.71 46.0604C217.957 50.4371 220.744 55.1293 223.069 60.0445M154.391 31.0405C203.346 48.1321 225.099 83.3512 227.171 128.214M154.391 31.0405C154.2 31.8105 153.643 32.5487 152.736 33.1122M227.171 128.214C227.889 126.064 228.522 123.883 229.071 121.678M227.171 128.214C225.15 134.271 222.459 140.085 219.093 145.503M152.736 33.1122C200.757 76.1002 209.044 149.646 186.255 174.222M152.736 33.1122C151.927 33.6152 150.838 33.979 149.482 34.1023M186.255 174.222C178.331 177.774 169.358 180.202 159.322 181.219M186.255 174.222C200.635 167.777 211.557 157.632 219.093 145.503M149.482 34.1023C149.151 34.1323 148.805 34.1481 148.443 34.1481C147.894 34.1481 147.376 34.0998 146.892 34.0112M149.482 34.1023C166.573 89.0484 172.271 165.702 159.322 181.219M159.322 181.219C155.825 181.574 152.199 181.758 148.443 181.758C144.317 181.758 140.348 181.536 136.534 181.11M146.892 34.0112C133.944 85.4229 123.068 149.646 136.534 181.11M146.892 34.0112C145.862 33.8226 144.988 33.4509 144.303 32.9722M136.534 181.11C126.696 180.009 117.894 177.543 110.115 173.989M144.303 32.9722C104.94 63.67 84.7409 146.02 110.115 173.989M144.303 32.9722C143.53 32.4328 142.996 31.7575 142.749 31.0549M110.115 173.989C95.9894 167.533 85.2382 157.486 77.7928 145.503M142.749 31.0549C98.7249 45.0245 69.6721 79.8345 70.3203 129.965M70.3203 129.965C70.1123 129.384 69.9106 128.8 69.7151 128.214M70.3203 129.965C72.263 135.392 74.7522 140.609 77.7928 145.503M120.478 18.6445C109.83 22.0608 100.691 27.4195 93.0839 34.1481M93.0839 34.1481C70.7568 61.5982 103.386 89.5072 148.443 89.5072C187.809 89.5072 227.689 66.2596 203.802 34.1481M73.8174 60.0445C65.6366 89.5072 105.458 113.391 148.443 113.391C189.88 113.391 227.171 96.2994 223.069 60.0445M73.8174 60.0445C69.1436 69.9256 66.3394 80.7077 65.4362 91.6381M223.069 60.0445C227.742 69.9256 230.547 80.7077 231.45 91.6381M231.45 91.6381C224.063 122.714 184.701 135.662 148.443 135.662C113.745 135.662 73.8174 122.714 65.4362 91.6381M231.45 91.6381C232.283 101.722 231.499 111.932 229.071 121.678M65.4362 91.6381C64.4144 104.004 65.8255 116.559 69.7151 128.214M229.071 121.678C209.249 145.596 188.326 155.861 148.443 155.861C115.817 155.861 88.8843 145.503 69.7151 128.214M219.093 145.503C196.613 165.702 179.004 171.917 148.443 171.917C117.882 171.917 99.2429 163.63 77.7928 145.503" stroke="#4E4E4E" stroke-width="0.5"/>
<path d="M192.988 69.3665H177.45V84.3864H192.988V69.3665Z" fill="white"/>
<path d="M246.334 150.681V136.179H261.872V150.681H246.334Z" fill="white"/>
<path d="M180.04 140.323V125.303H195.577V140.323H180.04Z" fill="white"/>
<path d="M93.0277 140.841H107.53V154.307H93.0277V140.841Z" fill="white"/>
<path d="M113.227 87.494V71.9561H128.765V87.494H113.227Z" fill="white"/>
<path d="M98.207 104.586V91.1195H112.709V104.586H98.207Z" fill="white"/>
<path d="M229.761 1V14.9841H244.263V1H229.761Z" fill="white"/>
<path d="M69.203 9.80478V24.3068H54.1831V9.80478H69.203Z" fill="white"/>
<path d="M177.45 84.3864H192.988V69.3665H177.45V84.3864ZM177.45 84.3864L170.199 92.6732M205.418 111.837L246.334 136.179M246.334 136.179V150.681H261.872V136.179H246.334ZM171.235 118.052L180.04 125.303M180.04 125.303V140.323H195.577V125.303H180.04ZM118.406 124.785L107.53 140.841M107.53 140.841H93.0277V154.307H107.53V140.841ZM206.972 36.737L229.761 14.9841M229.761 14.9841V1H244.263V14.9841H229.761ZM85.7767 40.3625L69.203 24.3068M69.203 24.3068V9.80478H54.1831V24.3068H69.203ZM113.227 71.9561V87.494H128.765V71.9561H113.227ZM98.207 91.1195V104.586H112.709V91.1195H98.207Z" stroke="white"/>
<defs>
<filter id="filter0_f_342_1646" x="41.2908" y="81.8301" width="202.045" height="151.681" filterUnits="userSpaceOnUse" color-interpolation-filters="sRGB">
<feFlood flood-opacity="0" result="BackgroundImageFix"/>
<feBlend mode="normal" in="SourceGraphic" in2="BackgroundImageFix" result="shape"/>
<feGaussianBlur stdDeviation="8" result="effect1_foregroundBlur_342_1646"/>
</filter>
<filter id="filter1_d_342_1646" x="248.893" y="148.403" width="51.1074" height="74.3486" filterUnits="userSpaceOnUse" color-interpolation-filters="sRGB">
<feFlood flood-opacity="0" result="BackgroundImageFix"/>
<feColorMatrix in="SourceAlpha" type="matrix" values="0 0 0 0 0 0 0 0 0 0 0 0 0 0 0 0 0 0 127 0" result="hardAlpha"/>
<feOffset/>
<feGaussianBlur stdDeviation="10"/>
<feComposite in2="hardAlpha" operator="out"/>
<feColorMatrix type="matrix" values="0 0 0 0 1 0 0 0 0 1 0 0 0 0 1 0 0 0 1 0"/>
<feBlend mode="normal" in2="BackgroundImageFix" result="effect1_dropShadow_342_1646"/>
<feBlend mode="normal" in="SourceGraphic" in2="effect1_dropShadow_342_1646" result="shape"/>
</filter>
<filter id="filter2_d_342_1646" x="0" y="156.858" width="71.1777" height="78.0469" filterUnits="userSpaceOnUse" color-interpolation-filters="sRGB">
<feFlood flood-opacity="0" result="BackgroundImageFix"/>
<feColorMatrix in="SourceAlpha" type="matrix" values="0 0 0 0 0 0 0 0 0 0 0 0 0 0 0 0 0 0 127 0" result="hardAlpha"/>
<feOffset/>
<feGaussianBlur stdDeviation="10"/>
<feComposite in2="hardAlpha" operator="out"/>
<feColorMatrix type="matrix" values="0 0 0 0 1 0 0 0 0 1 0 0 0 0 1 0 0 0 1 0"/>
<feBlend mode="normal" in2="BackgroundImageFix" result="effect1_dropShadow_342_1646"/>
<feBlend mode="normal" in="SourceGraphic" in2="effect1_dropShadow_342_1646" result="shape"/>
</filter>
<filter id="filter3_d_342_1646" x="44.3884" y="188.035" width="48.4548" height="60.0801" filterUnits="userSpaceOnUse" color-interpolation-filters="sRGB">
<feFlood flood-opacity="0" result="BackgroundImageFix"/>
<feColorMatrix in="SourceAlpha" type="matrix" values="0 0 0 0 0 0 0 0 0 0 0 0 0 0 0 0 0 0 127 0" result="hardAlpha"/>
<feOffset/>
<feGaussianBlur stdDeviation="10"/>
<feComposite in2="hardAlpha" operator="out"/>
<feColorMatrix type="matrix" values="0 0 0 0 1 0 0 0 0 1 0 0 0 0 1 0 0 0 1 0"/>
<feBlend mode="normal" in2="BackgroundImageFix" result="effect1_dropShadow_342_1646"/>
<feBlend mode="normal" in="SourceGraphic" in2="effect1_dropShadow_342_1646" result="shape"/>
</filter>
</defs>
</svg>
