<svg width="288" height="265" viewBox="0 0 288 265" fill="none" xmlns="http://www.w3.org/2000/svg">
<path d="M158.613 246.081C148.028 251.625 139.459 252.129 128.874 246.081L23.5286 183.075C19.4962 179.043 19.0009 173.502 23.5287 170.978L128.874 108.476C138.955 102.428 148.028 102.932 158.613 108.476L258.414 166.442C270.511 172.994 266.983 180.051 256.398 187.107L158.613 246.081Z" fill="#CECECE" stroke="white" stroke-width="0.5"/>
<g opacity="0.5" filter="url(#filter0_f_512_211)">
<path d="M113.864 105.919C121.95 100.883 130.988 100.399 141.236 101.863C154.133 103.706 165.963 109.856 176.506 117.509L187.903 125.782C212.88 143.912 229.879 177.913 204.078 194.85C170.628 216.809 112.296 218.205 103.984 212.317L66.9322 190.2C59.8851 185.993 55.5693 178.391 55.5693 170.184C55.5693 167.338 56.0904 164.516 57.1067 161.858L58.2273 158.927C60.6954 152.472 64.7817 146.761 70.0938 142.34L113.864 105.919Z" fill="#7A7A7A"/>
</g>
<g filter="url(#filter1_d_512_211)">
<path d="M261.438 168.456C268.281 175.066 266.631 179.081 257.405 186.602V201.219L265.47 196.683C267.703 194.679 268.069 193.303 267.99 190.634V179.545C267.919 172.943 266.085 170.879 261.438 168.456Z" fill="white"/>
</g>
<g filter="url(#filter2_d_512_211)">
<path d="M49.7387 198.196V212.814L23.0243 196.684C20.504 194.668 20.0001 192.652 20 189.124V176.522C21.0081 179.043 22.5202 182.067 24.0324 182.571L49.7387 198.196Z" fill="white"/>
</g>
<g filter="url(#filter3_d_512_211)">
<path d="M62.3403 220.373V206.26L70.4051 211.3V225.413L62.3403 220.373Z" fill="white"/>
</g>
<path d="M49.7383 212.813L128.369 260.193M128.369 260.193V245.897M128.369 260.193C137.533 265.764 149.539 265.738 158.612 260.193M158.612 260.193L160.917 258.817M158.612 260.193V258.177M158.612 246.08V249.608M244.804 208.742L257.405 186.603V190.635M244.804 208.742L248.332 206.636M244.804 208.742L241.362 210.797M248.332 206.636L257.405 190.635M248.332 206.636L251.86 204.53M257.405 190.635V194.163M257.405 194.163L251.86 204.53M257.405 194.163V197.692M251.86 204.53L254.633 202.875M254.633 202.875L257.405 201.22V197.692M254.633 202.875L257.405 197.692M241.362 210.797L253.373 189.123M241.362 210.797L238.251 212.653M238.251 212.653L249.34 191.643M238.251 212.653L234.219 215.061M234.219 215.061L244.3 194.667M234.219 215.061L230.187 217.468M230.187 217.468L239.763 197.187M230.187 217.468L226.658 219.574M226.658 219.574L235.227 199.708M226.658 219.574L222.341 222.151M222.341 222.151L230.691 202.732M222.341 222.151L217.719 224.91M217.719 224.91L226.154 205.252M217.719 224.91L214.057 227.096M214.057 227.096L221.618 208.276M214.057 227.096L210.529 229.202M210.529 229.202L217.719 210.293M210.529 229.202L207 231.308M207 231.308L213.049 213.317M207 231.308L203.364 233.479M203.364 233.479L209.017 215.837M203.364 233.479L199.944 235.521M199.944 235.521L204.984 218.357M199.944 235.521L196.92 237.326M196.92 237.326L200.952 220.878M196.92 237.326L193.391 239.432M193.391 239.432L196.92 222.894M193.391 239.432L189.01 242.048M189.01 242.048L193.391 224.91M189.01 242.048L184.822 244.547M184.822 244.547L189.01 227.692M184.822 244.547L180.566 247.088M180.566 247.088L184.822 230.454M180.566 247.088L176.344 249.608M176.344 249.608C176.272 249.205 179.278 238.351 180.79 232.975M176.344 249.608L171.717 252.37M171.717 252.37L175.75 235.999M171.717 252.37L167.9 254.649M167.9 254.649L172.221 238.015M167.9 254.649L164.157 256.883M164.157 256.883L168.189 240.535M164.157 256.883L160.917 258.817M160.917 258.817L164.661 242.552M158.612 258.177L161.636 244.547M158.612 258.177V249.608M158.612 249.608L159.62 245.576" stroke="white" stroke-width="0.5"/>
<g filter="url(#filter4_f_512_211)">
<ellipse cx="134.852" cy="189.973" rx="38.617" ry="23.5714" transform="rotate(11.8463 134.852 189.973)" fill="#7A7A7A"/>
</g>
<g filter="url(#filter5_f_512_211)">
<ellipse cx="164.943" cy="155.872" rx="38.617" ry="23.5714" transform="rotate(11.8463 164.943 155.872)" fill="#7A7A7A"/>
</g>
<path d="M166.443 166.5C174.445 173.805 206.55 176.816 216.595 162.989M218.1 170.512C204.559 183.552 189.012 184.053 173.465 179.539" stroke="white" stroke-width="0.5"/>
<path d="M177.477 164.995V169.509M182.492 165.998C182.492 166.4 182.492 168.506 182.492 169.509M187.507 167.001V169.509M192.021 167.001V170.011M197.036 166.5V170.011M202.051 165.998V169.007M206.565 164.494V167.503M212.082 162.989V164.995" stroke="white" stroke-width="0.5"/>
<path d="M176.976 174.025V179.04M181.991 175.028V179.541M187.006 175.529V179.541M192.021 176.532V179.541M197.036 176.532V179.04M201.55 175.529V178.037M206.064 175.028V176.532M211.079 173.021V174.025" stroke="white" stroke-width="0.5"/>
<g filter="url(#filter6_d_512_211)">
<path d="M169.453 171.515V158.977L172.462 160.481V176.53L169.453 171.515Z" fill="white"/>
</g>
<path d="M144.107 118.355C144.052 128.457 132.039 138.917 110.774 138.917C90.318 138.917 79.7934 129.469 79.379 119.86M144.107 118.355C144.159 108.921 133.782 99.7988 110.774 99.7983C89.3489 99.7979 78.9501 109.916 79.379 119.86M144.107 118.355V141.425M79.379 119.86V144.434M114.787 171.015C85.1974 169.009 79.379 158.979 79.379 150.954C79.379 161.533 80.6532 169.216 88.2065 173.884M110.273 179.039C109.59 179.002 108.921 178.96 108.267 178.913M93.2217 162.489C82.057 154.577 83.6928 142.93 95.2277 138.917M83.1913 141.927C96.7323 129.389 125.82 127.383 139.863 141.927M130.836 140.422C139.863 146.441 140.752 153.901 133.343 160.483M144.107 150.954V154.966M144.107 162.489V154.966M138.86 162.489C141.415 159.78 142.593 158.146 144.107 154.966M88.2065 171.015V173.884M88.2065 173.884C89.6405 174.77 91.3008 175.548 93.2217 176.216M93.2217 172.018V176.216M93.2217 176.216C94.7277 176.74 96.3939 177.196 98.2369 177.585M98.2369 173.884V177.585M98.2369 177.585C99.7813 177.911 101.45 178.189 103.252 178.42M103.252 173.884V178.42M103.252 178.42C104.82 178.62 106.49 178.785 108.267 178.913M108.267 175.027V178.913M121.008 76.7294C119.834 66.527 131.267 55.6656 154.407 55.6656C174.894 55.6656 185.432 65.4877 185.441 75.2248M121.008 76.7294C122.047 85.7644 132.973 94.2826 154.407 94.2826C175.288 94.2826 185.45 84.7948 185.441 75.2248M121.008 76.7294V94.2826M185.441 75.2248V124.374M142.371 39.617C120.245 39.617 108.81 29.4546 109.08 19.5562M164.939 34.1003C170.477 30.4085 173.488 25.4815 173.803 20.5592M173.803 20.5592C174.43 10.7704 164.396 1 142.371 1C120.144 1 109.337 10.1591 109.08 19.5562M173.803 20.5592C173.803 30.5896 174.468 32.5957 169.954 38.6139C156.915 51.1519 128.328 53.6595 112.279 38.6139C109.08 34.1003 109.08 30.5896 109.08 19.5562" stroke="white" stroke-width="0.5"/>
<path d="M130.334 202.108V207.123M134.848 203.612V208.627M139.863 204.615V208.126M144.879 204.615V208.126M149.894 204.114V207.624M154.407 204.114V207.123M159.423 203.111V205.117M163.936 201.104V202.108" stroke="white" stroke-width="0.5"/>
<path d="M170.455 198.597C160.654 211.665 135.216 213.875 118.798 205.225" stroke="white" stroke-width="0.5"/>
<g filter="url(#filter7_d_512_211)">
<path d="M122.309 206.623V198.097C123.312 198.599 124.081 198.965 125.318 199.1V208.127C123.968 207.719 123.297 207.396 122.309 206.623Z" fill="white"/>
<path d="M169.452 201.106V192.079C172.63 188.305 173.571 185.908 173.966 181.547V193.583C173.966 196.592 172.209 198.364 169.452 201.106Z" fill="white"/>
</g>
<g filter="url(#filter8_d_512_211)">
<path d="M216.596 172.018V153.462C219.774 149.687 220.714 147.291 221.109 142.93V154.966C221.109 157.975 223.617 169.009 216.596 172.018Z" fill="white"/>
</g>
<path d="M190.016 124.375C143.374 124.375 146.884 162.49 190.016 162.49C231.139 161.487 231.139 124.375 190.016 124.375Z" fill="#CECECE" stroke="white" stroke-width="0.5"/>
<path d="M199.041 129.39C167.948 122.87 153.303 143.736 169.452 154.968M182.492 158.979C201.936 161.1 227.629 149.45 207.568 132.9" stroke="#4E4E4E" stroke-width="0.5"/>
<g filter="url(#filter9_d_512_211)">
<path d="M155.911 163.994V143.432C157.012 151.137 160.178 153.817 166.443 157.976V169.009C162.38 166.193 160.066 165.196 155.911 163.994Z" fill="white"/>
</g>
<path d="M141.87 162.487C98.852 162.566 99.8368 201.178 141.87 201.104C183.902 201.031 183.495 162.411 141.87 162.487Z" fill="#CECECE" stroke="white" stroke-width="0.5"/>
<path d="M151.9 167.506C121.306 159.982 105.258 182.049 122.31 193.084" stroke="#4E4E4E" stroke-width="0.5"/>
<path d="M160.425 171.015C176.474 182.55 162.308 199.103 135.349 197.094" stroke="#4E4E4E" stroke-width="0.5"/>
<g filter="url(#filter10_d_512_211)">
<path d="M109.772 195.59C109.271 191.077 108.769 187.065 109.271 180.545C109.271 187.566 112.165 190.425 118.799 196.092V205.621C113.44 202.336 111.915 200.501 109.772 195.59Z" fill="white"/>
</g>
<defs>
<filter id="filter0_f_512_211" x="39.5693" y="85.1406" width="193.364" height="146.157" filterUnits="userSpaceOnUse" color-interpolation-filters="sRGB">
<feFlood flood-opacity="0" result="BackgroundImageFix"/>
<feBlend mode="normal" in="SourceGraphic" in2="BackgroundImageFix" result="shape"/>
<feGaussianBlur stdDeviation="8" result="effect1_foregroundBlur_512_211"/>
</filter>
<filter id="filter1_d_512_211" x="237.405" y="148.456" width="50.5947" height="72.7627" filterUnits="userSpaceOnUse" color-interpolation-filters="sRGB">
<feFlood flood-opacity="0" result="BackgroundImageFix"/>
<feColorMatrix in="SourceAlpha" type="matrix" values="0 0 0 0 0 0 0 0 0 0 0 0 0 0 0 0 0 0 127 0" result="hardAlpha"/>
<feOffset/>
<feGaussianBlur stdDeviation="10"/>
<feComposite in2="hardAlpha" operator="out"/>
<feColorMatrix type="matrix" values="0 0 0 0 1 0 0 0 0 1 0 0 0 0 1 0 0 0 1 0"/>
<feBlend mode="normal" in2="BackgroundImageFix" result="effect1_dropShadow_512_211"/>
<feBlend mode="normal" in="SourceGraphic" in2="effect1_dropShadow_512_211" result="shape"/>
</filter>
<filter id="filter2_d_512_211" x="0" y="156.522" width="69.7388" height="76.291" filterUnits="userSpaceOnUse" color-interpolation-filters="sRGB">
<feFlood flood-opacity="0" result="BackgroundImageFix"/>
<feColorMatrix in="SourceAlpha" type="matrix" values="0 0 0 0 0 0 0 0 0 0 0 0 0 0 0 0 0 0 127 0" result="hardAlpha"/>
<feOffset/>
<feGaussianBlur stdDeviation="10"/>
<feComposite in2="hardAlpha" operator="out"/>
<feColorMatrix type="matrix" values="0 0 0 0 1 0 0 0 0 1 0 0 0 0 1 0 0 0 1 0"/>
<feBlend mode="normal" in2="BackgroundImageFix" result="effect1_dropShadow_512_211"/>
<feBlend mode="normal" in="SourceGraphic" in2="effect1_dropShadow_512_211" result="shape"/>
</filter>
<filter id="filter3_d_512_211" x="42.3403" y="186.26" width="48.0649" height="59.1533" filterUnits="userSpaceOnUse" color-interpolation-filters="sRGB">
<feFlood flood-opacity="0" result="BackgroundImageFix"/>
<feColorMatrix in="SourceAlpha" type="matrix" values="0 0 0 0 0 0 0 0 0 0 0 0 0 0 0 0 0 0 127 0" result="hardAlpha"/>
<feOffset/>
<feGaussianBlur stdDeviation="10"/>
<feComposite in2="hardAlpha" operator="out"/>
<feColorMatrix type="matrix" values="0 0 0 0 1 0 0 0 0 1 0 0 0 0 1 0 0 0 1 0"/>
<feBlend mode="normal" in2="BackgroundImageFix" result="effect1_dropShadow_512_211"/>
<feBlend mode="normal" in="SourceGraphic" in2="effect1_dropShadow_512_211" result="shape"/>
</filter>
<filter id="filter4_f_512_211" x="86.7451" y="155.573" width="96.2144" height="68.8008" filterUnits="userSpaceOnUse" color-interpolation-filters="sRGB">
<feFlood flood-opacity="0" result="BackgroundImageFix"/>
<feBlend mode="normal" in="SourceGraphic" in2="BackgroundImageFix" result="shape"/>
<feGaussianBlur stdDeviation="5" result="effect1_foregroundBlur_512_211"/>
</filter>
<filter id="filter5_f_512_211" x="116.836" y="121.472" width="96.2144" height="68.8008" filterUnits="userSpaceOnUse" color-interpolation-filters="sRGB">
<feFlood flood-opacity="0" result="BackgroundImageFix"/>
<feBlend mode="normal" in="SourceGraphic" in2="BackgroundImageFix" result="shape"/>
<feGaussianBlur stdDeviation="5" result="effect1_foregroundBlur_512_211"/>
</filter>
<filter id="filter6_d_512_211" x="149.453" y="138.977" width="43.0093" height="57.5527" filterUnits="userSpaceOnUse" color-interpolation-filters="sRGB">
<feFlood flood-opacity="0" result="BackgroundImageFix"/>
<feColorMatrix in="SourceAlpha" type="matrix" values="0 0 0 0 0 0 0 0 0 0 0 0 0 0 0 0 0 0 127 0" result="hardAlpha"/>
<feOffset/>
<feGaussianBlur stdDeviation="10"/>
<feComposite in2="hardAlpha" operator="out"/>
<feColorMatrix type="matrix" values="0 0 0 0 1 0 0 0 0 1 0 0 0 0 1 0 0 0 1 0"/>
<feBlend mode="normal" in2="BackgroundImageFix" result="effect1_dropShadow_512_211"/>
<feBlend mode="normal" in="SourceGraphic" in2="effect1_dropShadow_512_211" result="shape"/>
</filter>
<filter id="filter7_d_512_211" x="102.309" y="161.547" width="91.6562" height="66.5801" filterUnits="userSpaceOnUse" color-interpolation-filters="sRGB">
<feFlood flood-opacity="0" result="BackgroundImageFix"/>
<feColorMatrix in="SourceAlpha" type="matrix" values="0 0 0 0 0 0 0 0 0 0 0 0 0 0 0 0 0 0 127 0" result="hardAlpha"/>
<feOffset/>
<feGaussianBlur stdDeviation="10"/>
<feComposite in2="hardAlpha" operator="out"/>
<feColorMatrix type="matrix" values="0 0 0 0 1 0 0 0 0 1 0 0 0 0 1 0 0 0 1 0"/>
<feBlend mode="normal" in2="BackgroundImageFix" result="effect1_dropShadow_512_211"/>
<feBlend mode="normal" in="SourceGraphic" in2="effect1_dropShadow_512_211" result="shape"/>
</filter>
<filter id="filter8_d_512_211" x="196.596" y="122.93" width="44.9492" height="69.0879" filterUnits="userSpaceOnUse" color-interpolation-filters="sRGB">
<feFlood flood-opacity="0" result="BackgroundImageFix"/>
<feColorMatrix in="SourceAlpha" type="matrix" values="0 0 0 0 0 0 0 0 0 0 0 0 0 0 0 0 0 0 127 0" result="hardAlpha"/>
<feOffset/>
<feGaussianBlur stdDeviation="10"/>
<feComposite in2="hardAlpha" operator="out"/>
<feColorMatrix type="matrix" values="0 0 0 0 1 0 0 0 0 1 0 0 0 0 1 0 0 0 1 0"/>
<feBlend mode="normal" in2="BackgroundImageFix" result="effect1_dropShadow_512_211"/>
<feBlend mode="normal" in="SourceGraphic" in2="effect1_dropShadow_512_211" result="shape"/>
</filter>
<filter id="filter9_d_512_211" x="135.911" y="123.432" width="50.5317" height="65.5771" filterUnits="userSpaceOnUse" color-interpolation-filters="sRGB">
<feFlood flood-opacity="0" result="BackgroundImageFix"/>
<feColorMatrix in="SourceAlpha" type="matrix" values="0 0 0 0 0 0 0 0 0 0 0 0 0 0 0 0 0 0 127 0" result="hardAlpha"/>
<feOffset/>
<feGaussianBlur stdDeviation="10"/>
<feComposite in2="hardAlpha" operator="out"/>
<feColorMatrix type="matrix" values="0 0 0 0 1 0 0 0 0 1 0 0 0 0 1 0 0 0 1 0"/>
<feBlend mode="normal" in2="BackgroundImageFix" result="effect1_dropShadow_512_211"/>
<feBlend mode="normal" in="SourceGraphic" in2="effect1_dropShadow_512_211" result="shape"/>
</filter>
<filter id="filter10_d_512_211" x="89.063" y="160.545" width="49.7358" height="65.0762" filterUnits="userSpaceOnUse" color-interpolation-filters="sRGB">
<feFlood flood-opacity="0" result="BackgroundImageFix"/>
<feColorMatrix in="SourceAlpha" type="matrix" values="0 0 0 0 0 0 0 0 0 0 0 0 0 0 0 0 0 0 127 0" result="hardAlpha"/>
<feOffset/>
<feGaussianBlur stdDeviation="10"/>
<feComposite in2="hardAlpha" operator="out"/>
<feColorMatrix type="matrix" values="0 0 0 0 1 0 0 0 0 1 0 0 0 0 1 0 0 0 1 0"/>
<feBlend mode="normal" in2="BackgroundImageFix" result="effect1_dropShadow_512_211"/>
<feBlend mode="normal" in="SourceGraphic" in2="effect1_dropShadow_512_211" result="shape"/>
</filter>
</defs>
</svg>
