<svg width="295" height="300" viewBox="0 0 295 300" fill="none" xmlns="http://www.w3.org/2000/svg">
<path d="M162.525 280.426C151.641 286.127 142.831 286.646 131.947 280.426L23.6281 215.642C19.4819 211.496 18.9726 205.799 23.6282 203.204L131.947 138.938C142.312 132.719 151.641 133.237 162.525 138.938L265.143 198.539C277.582 205.277 273.954 212.533 263.07 219.788L162.525 280.426Z" fill="#CECECE" stroke="white" stroke-width="0.5"/>
<g opacity="0.5" filter="url(#filter0_f_512_141)">
<path d="M116.513 136.308C124.972 131.041 134.443 130.617 145.208 132.219C158.094 134.136 169.929 140.246 180.473 147.899L193.76 157.544C218.737 175.674 235.92 209.596 210.42 226.983C176.23 250.295 114.997 251.832 106.354 245.71L68.2568 222.969C61.0108 218.643 56.5732 210.826 56.5732 202.387C56.5732 199.461 57.109 196.56 58.154 193.827L59.3063 190.813C61.844 184.176 66.0456 178.303 71.5077 173.758L116.513 136.308Z" fill="#7A7A7A"/>
</g>
<g filter="url(#filter1_d_512_141)">
<path d="M268.252 200.611C275.289 207.407 273.592 211.537 264.106 219.269V234.299L272.398 229.635C274.694 227.575 275.071 226.159 274.99 223.415V212.013C274.917 205.225 273.031 203.102 268.252 200.611Z" fill="white"/>
</g>
<g filter="url(#filter2_d_512_141)">
<path d="M50.5781 231.191V246.221L23.1096 229.636C20.5182 227.563 20.0001 225.49 20 221.862V208.905C21.0365 211.497 22.5914 214.606 24.1462 215.125L50.5781 231.191Z" fill="white"/>
</g>
<g filter="url(#filter3_d_512_141)">
<path d="M63.5356 253.993V239.481L71.828 244.664V259.176L63.5356 253.993Z" fill="white"/>
</g>
<path d="M50.5776 246.22L131.428 294.937M131.428 294.937V280.238M131.428 294.937C140.85 300.665 153.196 300.638 162.525 294.937M162.525 294.937L164.895 293.522M162.525 294.937V292.864M162.525 280.426V284.054M251.149 242.034L264.106 219.27V223.416M251.149 242.034L254.777 239.868M251.149 242.034L247.61 244.147M254.777 239.868L264.106 223.416M254.777 239.868L258.405 237.703M264.106 223.416V227.044M264.106 227.044L258.405 237.703M264.106 227.044V230.672M258.405 237.703L261.255 236.001M261.255 236.001L264.106 234.299V230.672M261.255 236.001L264.106 230.672M247.61 244.147L259.96 221.861M247.61 244.147L244.412 246.056M244.412 246.056L255.814 224.452M244.412 246.056L240.265 248.531M240.265 248.531L250.631 227.562M240.265 248.531L236.119 251.006M236.119 251.006L245.966 230.153M236.119 251.006L232.491 253.171M232.491 253.171L241.302 232.745M232.491 253.171L228.052 255.821M228.052 255.821L236.637 235.854M228.052 255.821L223.3 258.658M223.3 258.658L231.973 238.446M223.3 258.658L219.534 260.906M219.534 260.906L227.309 241.555M219.534 260.906L215.907 263.071M215.907 263.071L223.3 243.628M215.907 263.071L212.279 265.237M212.279 265.237L218.498 246.738M212.279 265.237L208.54 267.469M208.54 267.469L214.352 249.329M208.54 267.469L205.023 269.568M205.023 269.568L210.206 251.921M205.023 269.568L201.913 271.425M201.913 271.425L206.059 254.512M201.913 271.425L198.285 273.59M198.285 273.59L201.913 256.585M198.285 273.59L193.78 276.28M193.78 276.28L198.285 258.658M193.78 276.28L189.475 278.85M189.475 278.85L193.78 261.519M189.475 278.85L185.098 281.462M185.098 281.462L189.475 264.359M185.098 281.462L180.757 284.054M180.757 284.054C180.683 283.639 183.774 272.479 185.328 266.951M180.757 284.054L176 286.894M176 286.894L180.146 270.06M176 286.894L172.075 289.236M172.075 289.236L176.518 272.133M172.075 289.236L168.225 291.534M168.225 291.534L172.372 274.725M168.225 291.534L164.895 293.522M164.895 293.522L168.744 276.798M162.525 292.864L165.634 278.85M162.525 292.864V284.054M162.525 284.054L163.561 279.907" stroke="white" stroke-width="0.5"/>
<g filter="url(#filter4_f_512_141)">
<path d="M56.2929 92.4219L46.186 98.3941L121.988 144.794C127.041 148.01 137.607 142.037 132.554 138.822L56.2929 92.4219Z" fill="#222222"/>
</g>
<g filter="url(#filter5_f_512_141)">
<path d="M222.137 134.227C223.975 132.849 223.056 131.011 220.759 129.633L202.842 119.067L137.607 83.2334V91.0433L211.111 135.605C212.949 137.443 214.787 138.821 217.084 137.443L222.137 134.227Z" fill="#222222"/>
</g>
<path d="M87.9914 213.244V181.086C87.9914 176.492 87.0726 173.548 82.0191 170.52C75.1001 166.374 72.8311 163.169 72.8311 158.116V141.118M107.286 178.329V161.791M122.447 170.979V191.652C122.447 196.246 121.068 198.822 117.393 201.3C111.859 205.03 107.286 207.731 107.286 213.244V224.27M126.581 213.244V204.975C126.581 202.218 127.329 200.381 129.797 198.543C134.247 195.23 138.526 193.03 138.526 188.436V179.708M150.011 180.626V195.327C150.011 201.3 151.389 205.434 156.902 208.65C161.496 210.947 165.171 214.622 165.171 220.135V236.214M165.171 189.355V173.276M184.466 161.791V182.923C184.466 188.896 187.222 191.193 191.817 194.409C200.086 198.543 203.761 203.137 203.761 208.191V212.785M203.761 189.355V176.032C203.761 172.357 205.139 169.601 208.814 167.304C218.496 161.921 223.056 158.116 223.056 153.062V138.361" stroke="white" stroke-width="0.5"/>
<path d="M39.2949 102.53C28.2695 108.502 29.1884 114.933 39.2949 120.906L130.716 176.034C142.202 182.466 150.93 182.466 160.578 176.034L255.215 119.068C262.106 114.932 263.025 109.419 255.215 104.367L154.605 40.9695C150.471 37.7521 146.336 38.2119 142.661 40.9695L39.2949 102.53Z" fill="#969696" stroke="white" stroke-width="0.5"/>
<path d="M78.8037 98.3935V62.1007C78.8037 57.0475 82.4789 51.994 90.7482 57.0472L115.556 71.7482C128.419 79.558 129.797 84.6114 129.797 91.0431V129.174C129.797 133.768 123.825 136.065 118.772 133.768L85.2354 113.554C80.1819 109.879 78.8037 105.285 78.8037 98.3935Z" fill="#CECECE" stroke="white" stroke-width="0.5"/>
<path d="M82.939 55.2081L89.83 51.5328C94.8835 49.237 96.7211 50.1563 101.315 53.3704L127.501 68.992C135.77 73.1267 138.067 80.9364 138.067 87.8275V122.283C138.067 125.039 137.608 126.877 135.311 128.714L127.042 133.768C129.339 132.39 129.798 130.552 129.798 128.255V90.5839C129.339 83.2335 126.934 78.8139 118.313 73.586L89.83 56.5881C87.1115 55.2289 85.5967 54.8291 82.939 55.2081Z" stroke="white" stroke-width="0.5"/>
<path d="M89.3696 56.1296L97.6389 51.0762M93.0449 58.4266L101.314 53.3732M96.2607 60.2642L104.53 55.2108M99.9359 62.5613L108.205 57.5078M107.286 66.6959L115.096 61.6424M103.152 64.3989L111.421 59.3454M110.502 68.9929L118.771 63.9395M114.637 71.2899L121.987 65.7771M118.771 73.5869L125.662 68.0741M121.068 75.4246L129.338 69.9117M124.284 78.181L132.554 72.6681M126.581 80.478L134.851 75.4246M128.419 83.6938L136.229 78.6404M129.338 86.4502L137.607 81.8562M129.797 90.5849L138.066 85.9908M129.797 95.1789L138.066 90.1255M129.797 98.8541L138.066 94.2601M129.797 102.989L138.066 97.9353M129.797 107.123L138.066 102.07M129.797 111.258L138.066 106.205M129.797 115.393L138.066 110.339M129.797 119.987C130.165 119.987 135.463 116.311 138.066 114.474M129.797 123.662L138.066 118.608M129.797 128.256L138.066 122.743" stroke="white" stroke-width="0.5"/>
<path d="M137.606 83.233L196.41 118.607C208.871 127.32 218.879 126.876 221.218 120.445C230.406 95.1775 219.381 74.0449 198.248 60.7221C195.032 15.7007 163.103 -6.51628 148.173 14.3202C138.985 1.45802 119.231 2.83733 119.231 24.4294C107.286 16.6173 102.692 23.0484 99.9353 31.7798C97.6387 40.9679 100.674 52.3697 105.908 56.1282L127.5 68.9915C134.391 73.1261 136.335 76.5529 137.606 83.233Z" fill="#CECECE" stroke="white" stroke-width="0.5"/>
<path d="M220.3 122.281C227.462 117.495 230.407 114.012 232.704 109.418C235.92 87.3668 228.865 67.8892 206.518 56.5867C206.977 22.5927 179.872 -13.7002 155.524 7.43059C146.336 1.45834 140.821 -2.10493 128.419 6.97269M120.609 16.1608C116.934 15.2419 111.979 16.607 107.746 21.2142" stroke="white" stroke-width="0.5"/>
<path d="M110.042 20.7543L116.474 16.1603M113.718 21.6732L120.149 16.6197M116.934 23.0514L119.231 21.2137M133.013 6.05344L140.363 1.4594M137.147 6.51284L143.579 1.4594M140.823 7.89105L147.714 2.83761M144.038 10.1881L150.929 4.67523M146.335 12.0257L154.145 6.51284M158.28 6.97224L166.549 1.4594M163.333 6.51284L170.684 1M168.387 7.43165L176.197 1.91881M172.062 9.26926L179.872 3.29702M174.818 10.6475L183.088 5.13463M177.575 12.9445L185.844 7.43165M180.331 15.2415L188.6 9.72866M182.169 17.5385L190.897 12.0257M184.466 19.8355L192.735 14.3227M186.303 22.592L194.573 17.0791M188.141 25.3484L196.41 19.8355M189.519 28.1048L197.789 22.1326M190.897 31.3206L199.167 24.889M192.276 33.6176L201.004 28.1048M193.194 36.8335L201.923 31.78M194.573 40.0493L202.842 34.5364M195.492 42.8057L203.761 37.2929M196.41 46.4809L204.68 40.9681M196.87 49.2374L205.598 44.1839M197.329 52.9126L206.058 47.3997M197.789 56.5878L206.058 51.075M198.248 60.263L206.517 54.7502M201.004 62.56L207.895 57.5066M203.761 64.3977L211.111 59.3442M206.517 66.6947L214.327 61.1818M208.814 68.5323L217.083 63.4789M211.111 70.8293L219.38 65.7759M213.408 73.1263L221.677 68.0729M215.246 75.8827C215.613 75.8827 221.218 72.5138 223.975 70.8293M217.083 78.6392L225.812 73.1263M218.921 81.3956L227.65 75.8827M220.299 84.152L229.028 78.6392M221.677 87.3678L230.406 81.3956M222.596 90.1242L231.325 84.6114M223.515 93.3401L232.244 87.8272M223.975 96.5559L232.703 91.5025M224.434 99.7717L233.163 94.2589M224.434 103.906L233.622 97.9341M224.434 107.122L233.163 102.069M223.515 111.716C223.883 111.716 230.1 108.041 233.163 106.203M222.596 115.851L232.703 109.419M221.677 119.067L229.487 114.473" stroke="white" stroke-width="0.5"/>
<ellipse cx="145.417" cy="226.107" rx="3.21582" ry="2.29702" fill="white"/>
<ellipse cx="127.041" cy="191.193" rx="3.21582" ry="2.29702" fill="white"/>
<ellipse cx="184.006" cy="178.33" rx="3.21582" ry="2.29702" fill="white"/>
<path d="M206.978 214.163C206.978 215.432 205.538 216.46 203.762 216.46C201.986 216.46 200.546 215.432 200.546 214.163C200.546 212.895 201.986 211.866 203.762 211.866C205.538 211.866 206.978 212.895 206.978 214.163Z" fill="white"/>
<path d="M206.978 191.193C206.978 192.461 205.538 193.49 203.762 193.49C201.986 193.49 200.546 192.461 200.546 191.193C200.546 189.924 201.986 188.896 203.762 188.896C205.538 188.896 206.978 189.924 206.978 191.193Z" fill="white"/>
<path d="M168.388 238.052C168.388 239.321 166.948 240.349 165.172 240.349C163.396 240.349 161.956 239.321 161.956 238.052C161.956 236.783 163.396 235.755 165.172 235.755C166.948 235.755 168.388 236.783 168.388 238.052Z" fill="white"/>
<path d="M129.798 214.163C129.798 215.432 128.358 216.46 126.582 216.46C124.806 216.46 123.366 215.432 123.366 214.163C123.366 212.895 124.806 211.866 126.582 211.866C128.358 211.866 129.798 212.895 129.798 214.163Z" fill="white"/>
<path d="M91.2075 214.163C91.2075 215.432 89.7678 216.46 87.9917 216.46C86.2157 216.46 84.7759 215.432 84.7759 214.163C84.7759 212.895 86.2157 211.866 87.9917 211.866C89.7678 211.866 91.2075 212.895 91.2075 214.163Z" fill="white"/>
<path d="M110.503 179.248C110.503 180.517 109.063 181.545 107.287 181.545C105.511 181.545 104.071 180.517 104.071 179.248C104.071 177.98 105.511 176.951 107.287 176.951C109.063 176.951 110.503 177.98 110.503 179.248Z" fill="white"/>
<path d="M110.503 226.107C110.503 227.375 109.063 228.404 107.287 228.404C105.511 228.404 104.071 227.375 104.071 226.107C104.071 224.838 105.511 223.81 107.287 223.81C109.063 223.81 110.503 224.838 110.503 226.107Z" fill="white"/>
<path d="M168.388 190.735C168.388 192.003 166.948 193.032 165.172 193.032C163.396 193.032 161.956 192.003 161.956 190.735C161.956 189.466 163.396 188.438 165.172 188.438C166.948 188.438 168.388 189.466 168.388 190.735Z" fill="white"/>
<ellipse cx="146.335" cy="156.277" rx="3.21582" ry="2.29702" fill="white"/>
<ellipse cx="164.712" cy="144.334" rx="3.21582" ry="2.29702" fill="white"/>
<ellipse opacity="0.4" cx="126.122" cy="237.134" rx="3.21582" ry="2.29702" fill="white"/>
<ellipse opacity="0.4" cx="146.335" cy="249.078" rx="3.21582" ry="2.29702" fill="white"/>
<ellipse opacity="0.4" cx="146.335" cy="202.22" rx="3.21582" ry="2.29702" fill="white"/>
<ellipse opacity="0.4" cx="106.826" cy="202.22" rx="3.21582" ry="2.29702" fill="white"/>
<ellipse opacity="0.4" cx="68.2368" cy="202.22" rx="3.21582" ry="2.29702" fill="white"/>
<ellipse opacity="0.4" cx="88.4502" cy="190.275" rx="3.21582" ry="2.29702" fill="white"/>
<ellipse opacity="0.4" cx="184.925" cy="226.108" rx="3.21582" ry="2.29702" fill="white"/>
<ellipse opacity="0.4" cx="165.63" cy="214.162" rx="3.21582" ry="2.29702" fill="white"/>
<ellipse opacity="0.4" cx="184.006" cy="202.22" rx="3.21582" ry="2.29702" fill="white"/>
<ellipse opacity="0.4" cx="223.515" cy="202.22" rx="3.21582" ry="2.29702" fill="white"/>
<ellipse cx="184.006" cy="133.308" rx="3.21582" ry="2.29702" fill="white"/>
<ellipse cx="165.63" cy="121.364" rx="3.21582" ry="2.29702" fill="white"/>
<ellipse cx="146.335" cy="133.308" rx="3.21582" ry="2.29702" fill="white"/>
<ellipse cx="146.335" cy="109.419" rx="3.21582" ry="2.29702" fill="white"/>
<path d="M174.818 74.5054L184.006 80.0183V66.6956C184.006 60.2648 174.818 57.5078 174.818 61.6421V74.5054Z" stroke="#969696" stroke-width="0.5"/>
<path d="M179.872 96.0978L184.006 80.0187L174.818 74.5059L171.603 91.5038L179.872 96.0978Z" stroke="#969696" stroke-width="0.5"/>
<path d="M184.007 92.4224V80.0186L179.872 96.0977L184.007 92.4224Z" fill="#969696"/>
<path d="M181.71 65.7775L177.116 63.4805V65.3181L181.71 67.6151V65.7775Z" fill="#505050"/>
<path d="M161.037 66.814L170.225 72.3269V59.0042C170.225 52.5734 161.037 49.8164 161.037 53.9507V66.814Z" stroke="#969696" stroke-width="0.5"/>
<path d="M166.091 88.4074L170.225 72.3283L161.037 66.8154L157.821 83.8134L166.091 88.4074Z" stroke="#969696" stroke-width="0.5"/>
<path d="M170.225 84.731V72.3271L166.09 88.4063L170.225 84.731Z" fill="#969696"/>
<path d="M167.928 58.0861L163.334 55.7891V57.6267L167.928 59.9237V58.0861Z" fill="#505050"/>
<path d="M155.524 74.5052V63.0201L146.336 57.0479V70.83C146.336 74.9646 155.524 80.9368 155.524 74.5052Z" stroke="#969696" stroke-width="0.5"/>
<path d="M146.336 57.0463L155.524 63.0186L151.848 48.7771L143.579 43.7236L146.336 57.0463Z" stroke="#969696" stroke-width="0.5"/>
<path d="M155.524 47.3994L151.849 48.7776L155.524 63.0191V47.3994Z" fill="#969696"/>
<path d="M147.714 41.8867C146.489 42.4993 143.947 43.7243 143.579 43.7243L151.848 48.7778L155.524 47.3996L147.714 41.8867Z" stroke="#969696" stroke-width="0.5"/>
<path d="M141.282 65.3167V53.8316L132.094 47.8594V61.6415C132.094 65.7761 141.282 71.7483 141.282 65.3167Z" stroke="#969696" stroke-width="0.5"/>
<path d="M132.094 47.8579L141.282 53.8301L137.607 39.5886L129.338 34.5352L132.094 47.8579Z" stroke="#969696" stroke-width="0.5"/>
<path d="M141.283 38.2109L137.607 39.5891L141.283 53.8307V38.2109Z" fill="#969696"/>
<path d="M133.473 32.6982C132.247 33.3108 129.705 34.5359 129.338 34.5359L137.607 39.5893L141.282 38.2111L133.473 32.6982Z" stroke="#969696" stroke-width="0.5"/>
<g filter="url(#filter6_f_512_141)">
<ellipse cx="108.274" cy="93.4651" rx="17.0877" ry="11.9501" transform="rotate(-112.23 108.274 93.4651)" fill="#7A7A7A"/>
</g>
<path d="M99.091 107.936C96.4789 106.088 95.4394 104.933 94.0463 102.74C97.2393 103.167 99.5696 102.14 101.299 99.2815C102.958 103.609 101.424 106.735 99.091 107.936Z" fill="white"/>
<path d="M99.3027 96.3036C98.3657 99.4906 94.6913 100.745 91.8705 98.8464C90.7089 95.7605 90.492 94.1746 90.6286 91.5193C93.2143 94.6806 94.9447 96.0005 99.3027 96.3036Z" fill="white"/>
<path d="M91.28 87.8717C92.2973 90.8373 96.1386 93.8032 99.2578 92.8582C96.2454 89.6992 95.0607 87.6416 94.489 83.0964C92.8322 84.2201 91.787 86.0151 91.28 87.8717Z" fill="white"/>
<path d="M97.3771 81.5861C96.5845 85.1264 97.8935 88.4153 101.276 91.1261C100.487 86.2735 101.141 84.5033 103.115 82.045C100.653 81.2003 99.4485 81.2569 97.3771 81.5861Z" fill="white"/>
<path d="M106.407 83.6682C103.404 84.8959 102.918 88.7445 104.28 92.0427C106.277 89.0175 107.834 88.3356 111.34 88.8273C109.715 86.4106 108.659 85.2623 106.407 83.6682Z" fill="white"/>
<path d="M113.15 92.541C109.379 90.7008 107.216 92.0796 106.305 95.0912C110.018 95.4249 111.78 96.5283 114.555 99.5539C114.49 96.9785 114.276 95.4747 113.15 92.541Z" fill="white"/>
<path d="M111.032 108.086C110.252 103.527 109.177 101.432 106.292 98.3953C109.331 97.7305 112.713 99.8119 113.878 103.377C113.243 105.605 112.581 106.604 111.032 108.086Z" fill="white"/>
<path d="M108.368 109.67C108.481 104.972 107.014 102.306 104.19 100.162C104.955 104.443 104.594 106.499 102.496 109.596C104.865 110.362 106.153 110.396 108.368 109.67Z" fill="white"/>
<defs>
<filter id="filter0_f_512_141" x="40.5732" y="115.396" width="198.432" height="149.38" filterUnits="userSpaceOnUse" color-interpolation-filters="sRGB">
<feFlood flood-opacity="0" result="BackgroundImageFix"/>
<feBlend mode="normal" in="SourceGraphic" in2="BackgroundImageFix" result="shape"/>
<feGaussianBlur stdDeviation="8" result="effect1_foregroundBlur_512_141"/>
</filter>
<filter id="filter1_d_512_141" x="244.106" y="180.611" width="50.8936" height="73.6875" filterUnits="userSpaceOnUse" color-interpolation-filters="sRGB">
<feFlood flood-opacity="0" result="BackgroundImageFix"/>
<feColorMatrix in="SourceAlpha" type="matrix" values="0 0 0 0 0 0 0 0 0 0 0 0 0 0 0 0 0 0 127 0" result="hardAlpha"/>
<feOffset/>
<feGaussianBlur stdDeviation="10"/>
<feComposite in2="hardAlpha" operator="out"/>
<feColorMatrix type="matrix" values="0 0 0 0 1 0 0 0 0 1 0 0 0 0 1 0 0 0 1 0"/>
<feBlend mode="normal" in2="BackgroundImageFix" result="effect1_dropShadow_512_141"/>
<feBlend mode="normal" in="SourceGraphic" in2="effect1_dropShadow_512_141" result="shape"/>
</filter>
<filter id="filter2_d_512_141" x="0" y="188.905" width="70.5781" height="77.3154" filterUnits="userSpaceOnUse" color-interpolation-filters="sRGB">
<feFlood flood-opacity="0" result="BackgroundImageFix"/>
<feColorMatrix in="SourceAlpha" type="matrix" values="0 0 0 0 0 0 0 0 0 0 0 0 0 0 0 0 0 0 127 0" result="hardAlpha"/>
<feOffset/>
<feGaussianBlur stdDeviation="10"/>
<feComposite in2="hardAlpha" operator="out"/>
<feColorMatrix type="matrix" values="0 0 0 0 1 0 0 0 0 1 0 0 0 0 1 0 0 0 1 0"/>
<feBlend mode="normal" in2="BackgroundImageFix" result="effect1_dropShadow_512_141"/>
<feBlend mode="normal" in="SourceGraphic" in2="effect1_dropShadow_512_141" result="shape"/>
</filter>
<filter id="filter3_d_512_141" x="43.5356" y="219.481" width="48.2925" height="59.6943" filterUnits="userSpaceOnUse" color-interpolation-filters="sRGB">
<feFlood flood-opacity="0" result="BackgroundImageFix"/>
<feColorMatrix in="SourceAlpha" type="matrix" values="0 0 0 0 0 0 0 0 0 0 0 0 0 0 0 0 0 0 127 0" result="hardAlpha"/>
<feOffset/>
<feGaussianBlur stdDeviation="10"/>
<feComposite in2="hardAlpha" operator="out"/>
<feColorMatrix type="matrix" values="0 0 0 0 1 0 0 0 0 1 0 0 0 0 1 0 0 0 1 0"/>
<feBlend mode="normal" in2="BackgroundImageFix" result="effect1_dropShadow_512_141"/>
<feBlend mode="normal" in="SourceGraphic" in2="effect1_dropShadow_512_141" result="shape"/>
</filter>
<filter id="filter4_f_512_141" x="36.186" y="82.4219" width="107.703" height="73.2949" filterUnits="userSpaceOnUse" color-interpolation-filters="sRGB">
<feFlood flood-opacity="0" result="BackgroundImageFix"/>
<feBlend mode="normal" in="SourceGraphic" in2="BackgroundImageFix" result="shape"/>
<feGaussianBlur stdDeviation="5" result="effect1_foregroundBlur_512_141"/>
</filter>
<filter id="filter5_f_512_141" x="127.607" y="73.2334" width="105.508" height="74.7695" filterUnits="userSpaceOnUse" color-interpolation-filters="sRGB">
<feFlood flood-opacity="0" result="BackgroundImageFix"/>
<feBlend mode="normal" in="SourceGraphic" in2="BackgroundImageFix" result="shape"/>
<feGaussianBlur stdDeviation="5" result="effect1_foregroundBlur_512_141"/>
</filter>
<filter id="filter6_f_512_141" x="85.46" y="67.0098" width="45.6289" height="52.9102" filterUnits="userSpaceOnUse" color-interpolation-filters="sRGB">
<feFlood flood-opacity="0" result="BackgroundImageFix"/>
<feBlend mode="normal" in="SourceGraphic" in2="BackgroundImageFix" result="shape"/>
<feGaussianBlur stdDeviation="5" result="effect1_foregroundBlur_512_141"/>
</filter>
</defs>
</svg>
