<svg width="490" height="128" viewBox="0 0 490 128" fill="none" xmlns="http://www.w3.org/2000/svg">
<path d="M489 1C413.591 13.9531 337.901 34.6033 264.38 62.5966C192.398 86.9474 100.718 105.772 2.1123 115.05L0.5 115M488.876 3.25177C409.292 15.9616 329.412 36.6889 251.962 64.2132C182.845 85.9675 95.4434 103.453 1.229 112.945M489 7.97894C405.3 20.5109 321.327 41.3938 240.053 68.235C173.939 87.5516 90.9852 103.688 1.37158 113.243M489 9.23032C417.957 22.4839 346.675 43.0782 277.308 71.2631C219.526 92.226 149.141 109.026 72.6611 119.687L19.5 127.5M489 13.1317C401.361 25.5624 313.524 46.6873 228.653 72.61C165.471 89.7043 86.8163 104.528 1.68701 113.996L0.5 114M489 18.2076C422.477 31.7954 355.777 52.3218 290.745 80.4159C250.507 96.0385 204.205 109.34 153.998 119.687C153.2 119.687 130.667 124.896 119.5 127.5M489 18.5963C397.552 30.9999 306.04 52.4843 217.761 77.2901C157.427 92.3684 82.8999 105.929 2.1123 115.187L0.5 115.5M489 24.2854C393.869 36.7306 298.875 58.7086 207.379 82.223C149.96 95.4426 79.6163 107.764 3.26221 116.708L0.5 117M489 28.0138C427.158 41.9388 365.209 62.34 304.69 90.0429C277.905 101.151 248.452 111.091 216.958 119.687C199.856 123.614 189.66 125.198 170.941 127.5M489 30.1087C390.308 42.6541 292.028 65.2707 197.505 87.3438C143.166 98.8375 77.189 109.933 5.5 118.465L0.5 119M489 35.9821C386.868 48.6741 285.499 72.078 188.142 92.5852C138.552 102.194 79.2217 111.792 14.7007 119.687L1.37158 121.5M489 38.7494C432.004 52.9741 374.972 73.1437 319.145 100.138C303.312 107.138 286.554 113.679 269 119.727C258.802 123.209 253.391 124.855 244 127.5M488.971 41.8251C383.529 54.6971 279.279 79.0319 179.287 97.8728C137.332 105.298 88.3726 112.933 35.1904 119.725L2.5 124M489 47.5479C380.35 60.6164 273.398 86.0251 170.941 103.13C137.2 108.568 98.9094 114.274 57.5283 119.687M489 50.5255C437.02 64.9626 385.068 84.7414 334.108 110.694C327.549 113.78 320.832 116.779 313.967 119.687C304.241 123.467 298.808 125.5 289.5 127.5M489 53.0919C377.278 66.3628 267.831 92.9665 163.104 108.288C138.076 111.95 110.534 115.827 81.0786 119.687L27.5 127.5M489 63.4656C443.459 77.5803 397.991 96.1204 353.26 119.748C346.411 123.625 342.826 125.316 337 127.5M489 77.7042C456.073 89.11 423.215 103.009 390.682 119.687M489 93.392C468.942 101.162 448.922 109.927 429 119.759L414 127.5M489 110.686C482.294 113.59 475.594 116.613 468.902 119.759L453 127.5M57.5283 119.725L6 126.5M390.682 119.759L376.5 127.5" stroke="#505050" stroke-width="0.5"/>
</svg>
