<svg width="296" height="309" viewBox="0 0 296 309" fill="none" xmlns="http://www.w3.org/2000/svg">
<path d="M126.74 229.627H117.794V238.573H136.184V221.674H126.74V229.627Z" fill="white"/>
<path d="M8.44934 176.445V184.398H0V176.445H8.44934Z" fill="white"/>
<path d="M136.184 93.4431V85.4908H144.633V93.4431H136.184Z" fill="white"/>
<path d="M59.1454 81.5146V98.4133H50.199V106.863H42.2467V98.4133H50.199V81.5146H59.1454Z" fill="white"/>
<path d="M236.254 130.545L247.685 123.089M249.673 122.095L253.649 119.61M255.14 118.616L257.625 117.125M213.888 92.2741L225.319 85.3158M227.804 83.8247L231.283 81.3396M232.774 80.3456L234.266 79.3516" stroke="white" stroke-width="0.5"/>
<path d="M150.519 22.8629V9.9404M150.519 7.4553V4.47318M150.519 2.4851V0M93.3617 67.942C92.9641 67.5444 85.2437 62.8061 81.4332 60.4867M78.9481 58.9956L75.966 57.0076M74.4749 56.0135L72.9839 55.0195" stroke="white" stroke-width="0.5"/>
<path d="M239.533 219.2H230.587V228.146H248.977V211.248H239.533V219.2Z" fill="white"/>
<path d="M121.243 166.019V173.971H112.793V166.019H121.243Z" fill="white"/>
<path d="M248.977 83.0164V75.0641H257.426V83.0164H248.977Z" fill="white"/>
<path d="M171.939 71.0879V87.9866H162.992V96.4359H155.04V87.9866H162.992V71.0879H171.939Z" fill="white"/>
<path d="M172.957 289.189C162.066 294.894 153.249 295.413 142.357 289.189L33.9608 224.359C29.8116 220.209 29.302 214.508 33.9608 211.911L142.357 147.599C152.73 141.376 162.066 141.894 172.957 147.599L275.648 207.243C288.096 213.986 284.465 221.247 273.574 228.508L172.957 289.189Z" fill="#0F0E0E" stroke="white" stroke-width="0.5"/>
<g filter="url(#filter0_d_405_22516)">
<path d="M278.76 209.317C285.802 216.118 284.104 220.25 274.611 227.989V243.029L282.91 238.361C285.207 236.3 285.584 234.883 285.503 232.138V220.728C285.43 213.934 283.543 211.81 278.76 209.317Z" fill="#F73737"/>
</g>
<g filter="url(#filter1_d_405_22516)">
<path d="M60.9307 239.919V254.959L33.4427 238.363C30.8494 236.288 30.3309 234.214 30.3308 230.583V217.617C31.3681 220.21 32.924 223.322 34.48 223.841L60.9307 239.919Z" fill="#F73737"/>
</g>
<g filter="url(#filter2_d_405_22516)">
<path d="M73.8966 262.738V248.216L82.1949 253.402V267.924L73.8966 262.738Z" fill="#F73737"/>
</g>
<path d="M60.9302 254.959L141.838 303.711M141.838 303.711V289.001M141.838 303.711C151.267 309.443 163.622 309.416 172.957 303.711M172.957 303.711L175.329 302.295M172.957 303.711V301.637M172.957 289.189V292.82M261.645 250.77L274.611 227.989V232.138M261.645 250.77L265.276 248.603M261.645 250.77L258.103 252.884M265.276 248.603L274.611 232.138M265.276 248.603L268.906 246.435M274.611 232.138V235.769M274.611 235.769L268.906 246.435M274.611 235.769V239.399M268.906 246.435L271.759 244.733M271.759 244.733L274.611 243.03V239.399M271.759 244.733L274.611 239.399M258.103 252.884L270.462 230.582M258.103 252.884L254.903 254.795M254.903 254.795L266.313 233.176M254.903 254.795L250.754 257.271M250.754 257.271L261.126 236.288M250.754 257.271L246.604 259.748M246.604 259.748L256.459 238.881M246.604 259.748L242.974 261.915M242.974 261.915L251.791 241.474M242.974 261.915L238.531 264.567M238.531 264.567L247.123 244.586M238.531 264.567L233.776 267.406M233.776 267.406L242.455 247.179M233.776 267.406L230.008 269.655M230.008 269.655L237.787 250.291M230.008 269.655L226.377 271.823M226.377 271.823L233.776 252.365M226.377 271.823L222.747 273.99M222.747 273.99L228.971 255.477M222.747 273.99L219.005 276.223M219.005 276.223L224.821 258.071M219.005 276.223L215.486 278.324M215.486 278.324L220.672 260.664M215.486 278.324L212.374 280.182M212.374 280.182L216.523 263.257M212.374 280.182L208.743 282.349M208.743 282.349L212.374 265.332M208.743 282.349L204.235 285.04M204.235 285.04L208.743 267.406M204.235 285.04L199.927 287.612M199.927 287.612L204.235 270.269M199.927 287.612L195.547 290.226M195.547 290.226L199.927 273.111M195.547 290.226L191.203 292.82M191.203 292.82C191.128 292.405 194.221 281.237 195.777 275.704M191.203 292.82L186.442 295.662M186.442 295.662L190.591 278.816M186.442 295.662L182.514 298.006M182.514 298.006L186.96 280.891M182.514 298.006L178.662 300.306M178.662 300.306L182.811 283.484M178.662 300.306L175.329 302.295M175.329 302.295L179.181 285.559M172.957 301.637L176.069 287.612M172.957 301.637V292.82M172.957 292.82L173.994 288.67" stroke="white" stroke-width="0.5"/>
<g filter="url(#filter3_f_405_22516)">
<path d="M146.915 224.164C126.537 224.164 102.841 224.164 86.2535 215.159C64.3534 191.254 93.7257 174.049 113.466 155.964C133.207 137.879 174.303 139.597 196.203 163.502C218.103 187.406 166.656 206.079 146.915 224.164Z" fill="#222222"/>
</g>
<path d="M71.0883 119.518L93.9655 104.485L139.066 132.591L203.776 94.6804V84.8758L193.318 77.0322L220.117 94.6804L122.725 150.893L71.0883 119.518Z" fill="#222222" stroke="white" stroke-width="0.5"/>
<path d="M71.0883 141.742V119.519L122.725 150.893V175.731L71.0883 141.742Z" fill="#161616" stroke="white" stroke-width="0.5"/>
<path d="M122.725 150.892V175.73L220.117 118.864V94.6797L122.725 150.892Z" fill="#150F0F" stroke="white" stroke-width="0.5"/>
<path d="M77.6246 159.39V146.317L122.725 175.731L131.876 170.502V190.765L77.6246 159.39Z" fill="#161616" stroke="white" stroke-width="0.5"/>
<path d="M229.268 135.859L131.876 190.764V170.502L220.117 118.864V112.328H229.268V135.859Z" fill="#150F0F" stroke="white" stroke-width="0.5"/>
<path d="M161.944 192.726L110.306 219.525L152.793 245.016L201.815 214.949L161.944 192.726Z" fill="#222222" stroke="white" stroke-width="0.5"/>
<g filter="url(#filter4_d_405_22516)">
<path d="M123.379 220.178L151.485 203.184L164.558 200.569L193.318 214.949L153.446 238.48L123.379 220.178Z" fill="#F63737"/>
</g>
<path d="M151.485 213.642V179.653L164.558 172.463V212.988L170.441 213.642L174.363 211.027V215.603L176.977 216.91V220.832L175.67 221.486L173.709 223.446L169.134 222.793V226.061H165.212L162.597 223.446L161.944 228.675H159.983L158.022 231.29V227.368L155.407 226.061L154.1 231.29L151.485 222.793L148.871 231.29L147.564 224.754L143.642 228.675V222.139L148.871 216.91L151.485 213.642Z" fill="#150F0F" stroke="white" stroke-width="0.2"/>
<path d="M99.8483 71.8027L114.694 63.2741L160.835 36.7665L166.977 33.2383L203.123 54.1546L136.64 94.68L99.8483 71.8027Z" fill="#222222" stroke="white" stroke-width="0.5"/>
<path d="M173.709 44.35L135.798 66.5736V82.9145L114.228 71.1491V52.8473L151.485 31.2773L173.709 44.35Z" fill="#161616"/>
<path d="M135.798 66.5736L173.709 44.35L151.485 31.2773L114.228 52.8473M135.798 66.5736L114.228 52.8473M135.798 66.5736V82.9145L114.228 71.1491V52.8473" stroke="white" stroke-width="0.5"/>
<path d="M135.798 82.9141V66.5732L173.709 44.3496V59.3832L135.798 82.9141Z" fill="#150F0F" stroke="white" stroke-width="0.5"/>
<path d="M99.8483 87.49V71.8027L136.452 94.68V111.021L99.8483 87.49Z" fill="#161616" stroke="white" stroke-width="0.5"/>
<path d="M203.122 69.8415L136.452 111.021V94.6797L203.122 54.1543V69.8415Z" fill="#150F0F" stroke="white" stroke-width="0.5"/>
<path d="M86.1218 88.798L99.8482 78.3398V87.4907L136.452 111.022L192.664 76.3789L203.776 84.8762L139.066 122.133L86.1218 88.798Z" fill="#222222" stroke="white" stroke-width="0.5"/>
<path d="M86.1218 99.255V88.7969L139.066 122.132V132.59L86.1218 99.255Z" fill="#161616" stroke="white" stroke-width="0.5"/>
<path d="M139.066 122.133V132.591L203.776 94.6805V84.876L139.066 122.133Z" fill="#150F0F" stroke="white" stroke-width="0.5"/>
<path d="M204.463 230.574H195.517V239.521H213.907V222.622H204.463V230.574Z" fill="white"/>
<path d="M78.9704 160.186L60.5807 171.12M58.5926 172.611L55.1135 174.599M53.6224 175.593L52.1313 176.587M123.693 197.625L111.268 205.081M108.783 206.075L106.795 207.566M105.304 208.56L103.813 209.554" stroke="white" stroke-width="0.5"/>
<defs>
<filter id="filter0_d_405_22516" x="264.611" y="199.317" width="30.9016" height="53.7119" filterUnits="userSpaceOnUse" color-interpolation-filters="sRGB">
<feFlood flood-opacity="0" result="BackgroundImageFix"/>
<feColorMatrix in="SourceAlpha" type="matrix" values="0 0 0 0 0 0 0 0 0 0 0 0 0 0 0 0 0 0 127 0" result="hardAlpha"/>
<feOffset/>
<feGaussianBlur stdDeviation="5"/>
<feComposite in2="hardAlpha" operator="out"/>
<feColorMatrix type="matrix" values="0 0 0 0 0.966667 0 0 0 0 0.2175 0 0 0 0 0.2175 0 0 0 1 0"/>
<feBlend mode="normal" in2="BackgroundImageFix" result="effect1_dropShadow_405_22516"/>
<feBlend mode="normal" in="SourceGraphic" in2="effect1_dropShadow_405_22516" result="shape"/>
</filter>
<filter id="filter1_d_405_22516" x="20.3308" y="207.617" width="50.6" height="57.3418" filterUnits="userSpaceOnUse" color-interpolation-filters="sRGB">
<feFlood flood-opacity="0" result="BackgroundImageFix"/>
<feColorMatrix in="SourceAlpha" type="matrix" values="0 0 0 0 0 0 0 0 0 0 0 0 0 0 0 0 0 0 127 0" result="hardAlpha"/>
<feOffset/>
<feGaussianBlur stdDeviation="5"/>
<feComposite in2="hardAlpha" operator="out"/>
<feColorMatrix type="matrix" values="0 0 0 0 0.966667 0 0 0 0 0.2175 0 0 0 0 0.2175 0 0 0 1 0"/>
<feBlend mode="normal" in2="BackgroundImageFix" result="effect1_dropShadow_405_22516"/>
<feBlend mode="normal" in="SourceGraphic" in2="effect1_dropShadow_405_22516" result="shape"/>
</filter>
<filter id="filter2_d_405_22516" x="63.8966" y="238.216" width="28.2983" height="39.708" filterUnits="userSpaceOnUse" color-interpolation-filters="sRGB">
<feFlood flood-opacity="0" result="BackgroundImageFix"/>
<feColorMatrix in="SourceAlpha" type="matrix" values="0 0 0 0 0 0 0 0 0 0 0 0 0 0 0 0 0 0 127 0" result="hardAlpha"/>
<feOffset/>
<feGaussianBlur stdDeviation="5"/>
<feComposite in2="hardAlpha" operator="out"/>
<feColorMatrix type="matrix" values="0 0 0 0 0.966667 0 0 0 0 0.2175 0 0 0 0 0.2175 0 0 0 1 0"/>
<feBlend mode="normal" in2="BackgroundImageFix" result="effect1_dropShadow_405_22516"/>
<feBlend mode="normal" in="SourceGraphic" in2="effect1_dropShadow_405_22516" result="shape"/>
</filter>
<filter id="filter3_f_405_22516" x="68.4902" y="133.795" width="143.039" height="100.368" filterUnits="userSpaceOnUse" color-interpolation-filters="sRGB">
<feFlood flood-opacity="0" result="BackgroundImageFix"/>
<feBlend mode="normal" in="SourceGraphic" in2="BackgroundImageFix" result="shape"/>
<feGaussianBlur stdDeviation="5" result="effect1_foregroundBlur_405_22516"/>
</filter>
<filter id="filter4_d_405_22516" x="103.379" y="180.569" width="109.939" height="77.9111" filterUnits="userSpaceOnUse" color-interpolation-filters="sRGB">
<feFlood flood-opacity="0" result="BackgroundImageFix"/>
<feColorMatrix in="SourceAlpha" type="matrix" values="0 0 0 0 0 0 0 0 0 0 0 0 0 0 0 0 0 0 127 0" result="hardAlpha"/>
<feOffset/>
<feGaussianBlur stdDeviation="10"/>
<feComposite in2="hardAlpha" operator="out"/>
<feColorMatrix type="matrix" values="0 0 0 0 0.966667 0 0 0 0 0.2175 0 0 0 0 0.2175 0 0 0 1 0"/>
<feBlend mode="normal" in2="BackgroundImageFix" result="effect1_dropShadow_405_22516"/>
<feBlend mode="normal" in="SourceGraphic" in2="effect1_dropShadow_405_22516" result="shape"/>
</filter>
</defs>
</svg>
