<svg width="490" height="135" viewBox="0 0 490 135" fill="none" xmlns="http://www.w3.org/2000/svg">
<path d="M27.0251 59.7062C138.082 39.0532 311.97 11.8074 489 1M18.772 143.039C19.7665 142.744 20.7665 142.449 21.7717 142.153C132.525 109.539 308.433 69.6241 489 46.4866M1 52.6469C12.8668 51.9059 24.1968 51.2417 34.9397 50.6603C146.98 43.1561 316.742 30.3871 489 32.5911M1 52.781C13.2599 52.1452 24.9608 51.6062 36.0481 51.1698C148.273 45.6526 317.375 35.0886 489 39.192M1 52.885C12.452 52.0395 23.3913 51.2522 33.7712 50.5286L43.8804 49.664C155.746 40.0923 321.193 25.9357 489 26.1508M1 53.217C13.6313 52.6863 25.6825 52.2729 37.0957 51.9828C149.507 48.3819 317.962 39.9489 489 45.8652M1 53.558C9.46299 52.8299 17.6384 52.1258 25.5068 51.448L32.5422 50.842C144.225 39.1706 315.335 21.7924 489 19.9522M1 53.8828C13.9812 53.4558 26.363 53.1672 38.0837 53.023C150.681 51.2629 318.503 44.8811 489 52.5205M1 54.7117C14.3093 54.3861 27.0015 54.2204 39.0112 54.2204C151.793 54.2204 318.999 49.804 489 59.0738M1 54.7261C11.5576 53.6798 21.6549 52.6578 31.2534 51.6655C142.766 37.8231 314.563 18.0517 489 14.0737M1 56.4362C11.0782 55.2964 20.7244 54.1664 29.9043 53.0513C141.255 36.9856 313.743 14.7686 489 8.58105M1 58.7309C10.5772 57.5044 19.7523 56.2751 28.4949 55.0475C139.693 36.7103 312.879 12.0004 489 3.53503M1 79.0833C9.51147 77.7117 17.684 76.3177 25.4949 74.9052C136.423 51.8959 311.017 22.0755 489 8.86572M1 95.2087C8.94717 93.7828 16.5885 92.3281 23.9048 90.8478C134.717 65.4451 310.022 33.0153 489 17.3467M1 112.013C8.36213 110.548 15.4522 109.05 22.2544 107.522C132.966 79.6919 308.986 44.6218 489 26.4415M1 129.481C7.7566 127.996 14.2753 126.475 20.5435 124.921C131.171 94.6335 307.909 56.8952 489 36.154M82.9824 142.153C191.904 111.575 338.715 78.7474 489 57.4405M207.128 142.153C293.018 119.525 390.144 97.9345 489 81.2217M270 142.138C339.15 124.429 413.536 107.839 489 94.0546M333.178 142.216C383.61 129.67 436.022 117.912 489 107.518M397.835 142.153C427.842 134.929 458.32 128.046 489 121.613M489 69.0172C365.342 88.2369 244.209 115.177 144.5 142.24" stroke="#505050" stroke-width="0.5"/>
</svg>
