<svg width="490" height="52" viewBox="0 0 490 52" fill="none" xmlns="http://www.w3.org/2000/svg">
<path d="M378.66 49.3851C414.835 42.7131 451.777 36.3722 489 30.406M1 1C118.569 5.33267 232.574 8.75153 327.483 13.3905C380.091 15.9619 434.427 17.161 489 17.2312M1 5.93295C120.574 9.87475 236.865 11.7033 333.758 13.8181C384.36 14.9225 436.55 14.967 489 14.1584M1 6.3109C116.461 11.1474 228.081 16.1801 320.95 23.2947C375.646 27.4849 432.219 29.9445 489 30.9595M1 12.094C114.25 17.5431 223.385 24.2047 314.16 33.734C371.022 39.7032 429.927 43.5334 489 45.5593M1 13.2088C122.481 16.8753 240.957 17.145 339.776 16.6996C388.452 16.4802 438.588 15.4719 489 13.8499M1 18.3643C111.93 24.5288 218.485 32.8252 307.114 44.6963C363.977 52.3127 422.896 57.5203 482 60.6673M1 20.7547C124.291 24.2621 244.85 23.0116 345.537 19.9831C392.367 18.5745 440.54 16.6107 489 14.2397M1 25.145C109.5 32.12 213.379 42.0475 299.809 56.1755C309.679 57.789 319.612 59.3217 329.598 60.7757M1 28.5038C126.008 31.9675 248.547 29.2421 351.04 23.6204C396.105 21.1486 442.405 18.3219 489 15.2651M1 32.4594C90.1905 39.0854 175.947 48.314 251.061 60.7837M1 36.3877C127.636 39.9199 252.05 35.7709 356.286 27.5592C399.666 24.1418 444.184 20.5399 489 16.8588M1 40.3328C62.2542 45.577 121.733 52.3308 177.076 60.7842M1 44.3275C129.175 48.036 255.362 42.5197 361.276 31.7348C403.052 27.4808 445.877 23.1866 489 18.9402M1 48.7926C36.2373 52.2558 70.8328 56.3105 104.332 60.9898M1 52.2443C130.63 56.2301 258.484 49.4076 366.008 36.0795C406.261 31.0899 447.483 26.1808 489 21.4262M3.5 58.1542C10.8188 58.9837 18.1068 59.8428 25.3601 60.7317M6.76782 60.2384C39.5031 61.2365 72.1222 61.4627 104.332 60.9898M104.332 60.9898C199.079 59.5986 290.284 52.158 370.482 40.5193C409.294 34.8867 449.001 29.435 489 24.2264M250.149 60.7953C293.665 56.8106 335.465 51.4633 374.7 44.9779C412.152 38.7871 450.433 32.86 489 27.2485" stroke="#505050" stroke-width="0.5"/>
</svg>
