<svg width="490" height="107" viewBox="0 0 490 107" fill="none" xmlns="http://www.w3.org/2000/svg">
<path d="M1.00098 1C20.501 7.28792 38.7112 14.4484 55.3499 22.5679C179.796 83.2963 334.225 114.042 489 123.166M1.00098 2.09454C17.0984 7.30949 32.2688 13.1342 46.3457 19.6197C172.046 78.2015 330.441 107.441 489 115.952M1.00098 3.31495C13.5433 7.39272 25.4896 11.8509 36.7566 16.7149C163.733 72.8899 326.408 100.512 489 108.458M1.00098 4.67639C9.85456 7.56046 18.3922 10.6397 26.5828 13.9236C154.847 67.4127 322.13 93.3089 489 100.756M1.00098 6.18753C6.05401 7.83284 10.9971 9.54377 15.824 11.3222C145.38 61.8268 317.607 85.8898 489 92.925M1.00098 7.83913C2.16712 8.21738 3.32699 8.59924 4.48047 8.98473C135.321 56.1868 312.845 78.313 489 85.0469M1.00098 9.71099C132.407 51.3845 311.677 70.7694 489 77.1976M1.00098 11.2907C132.802 46.7478 312.181 63.2297 489 69.4533M1.00098 12.426C133.346 41.9057 312.788 55.689 489 61.8807M1.00098 13.0944C134.034 36.8864 313.493 48.2028 489 54.5444M1 26.8615C135.8 40.3143 315.17 47.4788 489 54.6936M1.10229 48.638C138.102 53.3311 317.194 57.4877 489 66.3656M1.10229 58.8242C139.341 59.7794 318.276 62.8837 489 72.8954M1 68.5626C140.564 66.2133 319.367 68.5685 489 79.9177M1 77.8775C141.935 72.6617 320.543 74.5729 489 87.4569M1 86.8039C143.353 79.1543 321.754 80.9226 489 95.5396M1 95.3897C144.809 85.7307 322.993 87.6524 489 104.198M1 103.685C146.292 92.4294 324.257 94.7942 489 113.463M1 111.745C147.795 99.2931 325.539 102.384 489 123.367M1 119.631C149.312 106.367 326.837 110.458 489 133.946" stroke="#505050" stroke-width="0.5"/>
</svg>
