<svg width="342" height="217" viewBox="0 0 342 217" fill="none" xmlns="http://www.w3.org/2000/svg">
<path d="M160.887 76.7081C137.49 71.7368 138.037 98.1108 142.17 111.802L149.773 116.482C142.094 98.3306 143.924 76.7081 160.301 82.2651C176.094 87.6236 193.641 111.802 189.547 140.463L194.226 143.095C203 121.161 183.99 84.3121 160.887 76.7081Z" fill="#150F0F" stroke="white" stroke-width="0.5"/>
<path d="M186.33 138.416L190.132 135.784M183.99 136.954L190.132 133.152M181.65 135.784L190.132 130.52M179.311 134.322L190.132 127.888M177.264 132.859L189.839 125.548M174.924 131.689L189.547 122.916M172.877 130.227L188.962 120.576M170.83 129.057L188.377 117.944M168.49 127.595L187.792 115.897M166.151 126.425L187.207 113.557M164.396 125.255L186.33 111.218M162.056 123.501L185.452 109.171M159.717 122.331L184.575 107.123M157.377 120.869L183.698 105.076M155.622 119.406L182.528 103.029M153.283 117.944L181.358 101.274M150.943 116.774C151.177 116.54 170.537 104.979 180.188 99.2273M150.943 113.85L179.018 97.1801M150.358 111.803C150.826 111.335 168.685 100.69 177.556 95.4254M149.773 109.463L175.801 93.6707M149.188 107.123L174.339 91.916M148.311 104.784L172.584 90.1613M148.311 102.152L170.83 88.699M147.726 100.105L169.075 87.2367M147.434 97.765L167.028 85.7745M147.434 94.8405L164.981 84.3122M147.434 91.916L162.641 83.1424M148.018 88.9914L159.132 81.9726M148.896 86.3594L156.207 81.3877" stroke="white" stroke-width="0.5"/>
<path d="M152.99 118.236C146.627 104.031 146.556 93.3778 151.528 82.2646C145.094 85.7741 142.462 98.3495 149.773 116.482L152.99 118.236Z" fill="#161616" stroke="white" stroke-width="0.5"/>
<g filter="url(#filter0_d_331_380)">
<path d="M200.367 139.293L194.226 142.803C194.873 140.998 195.259 139.912 195.981 137.831L201.245 134.614C201.158 136.36 200.959 137.386 200.367 139.293Z" fill="#F73737"/>
<path d="M196.566 131.397C196.551 129.15 196.461 128.143 196.273 126.425L201.537 122.916C201.811 124.634 201.892 125.694 201.83 127.888L196.566 131.397Z" fill="#F73737"/>
</g>
<path d="M160.594 72.9062C178.434 72.9062 197.15 96.3024 201.537 122.916M201.83 127.887C201.604 131.035 201.479 132.712 201.245 134.906" stroke="white" stroke-width="0.5"/>
<g filter="url(#filter1_d_331_380)">
<path d="M162.641 72.6134C159.993 73.706 158.857 74.5874 156.792 76.1228C153.361 76.0002 151.391 76.2623 147.726 77.8775C154.035 72.9989 157.215 72.3424 162.641 72.6134Z" fill="#F73737"/>
</g>
<path d="M152.99 118.236L194.226 143.094M194.226 143.094C149.774 155.962 104.371 128.788 140.999 110.925M194.226 143.094C220.547 135.783 223.471 115.604 198.32 109.755" stroke="white" stroke-width="0.5"/>
<path d="M142.463 83.7273C85.4332 92.2084 65.2546 136.076 142.463 153.038C191.009 161.812 257.396 145.727 250.669 112.973C246.345 91.916 213.665 82.7398 179.896 81.3877" stroke="white" stroke-width="0.5"/>
<path d="M271.433 138.414L268.799 145.433L277.867 144.263L279.622 138.414H271.433Z" fill="white"/>
<path d="M77.5376 68.518H86.3112L83.3867 74.6612L74.9055 74.0763L77.5376 68.518Z" fill="white"/>
<path d="M68.1772 77.584C-7.85839 125.546 134.272 208.895 268.799 145.433M268.799 145.433L271.433 138.414H279.622L277.867 144.263L268.799 145.433ZM286.641 130.81C331.678 79.0476 193.933 22.6045 86.3112 68.518M86.3112 68.518H77.5376L74.9055 74.0763L83.3866 74.6612L86.3112 68.518Z" stroke="white" stroke-width="0.5"/>
<path d="M144.802 205.68C162.615 206.97 172.55 207.194 190.132 206.265M144.802 209.189C162.831 210.646 172.791 210.804 190.132 209.189M144.802 212.406C162.831 213.37 172.79 213.463 190.132 212.406" stroke="white" stroke-width="0.5"/>
<path d="M236.339 196.029V209.189C292.49 192.519 344.373 161.558 341.037 105.661" stroke="white" stroke-width="0.5"/>
<path d="M333.141 144.85V131.105C335.48 127.303 340.159 115.898 341.037 107.124C341.534 122.486 339.228 130.642 333.141 144.85Z" fill="#161616" stroke="white" stroke-width="0.5"/>
<path d="M244.528 197.491V203.633M250.084 195.737V201.878M255.933 193.982V200.123M261.49 191.935V198.076M267.339 189.595V195.737M272.895 186.963V193.105M278.745 184.331V190.473M284.009 181.407V187.548M290.15 178.19V184.331M295.707 174.388V180.529" stroke="white" stroke-width="0.5"/>
<path d="M226.981 195.737V183.161L236.339 196.029V209.189L226.981 195.737Z" fill="#161616" stroke="white" stroke-width="0.5"/>
<path d="M84.5565 202.171V189.011C124.689 201.57 148.75 204.937 195.396 202.171V215.331C150.766 216.886 125.918 216.886 84.5565 202.171Z" stroke="white" stroke-width="0.5"/>
<path d="M96.547 177.604L84.5565 189.01C126.117 201.732 150.243 205.224 195.396 202.17L191.594 188.133C153.58 190.108 132.703 188.264 96.547 177.604Z" fill="#0F0E0E" stroke="white" stroke-width="0.5"/>
<g filter="url(#filter2_d_331_380)">
<path d="M91.8671 196.321C88.9429 196.321 88.9432 200.416 91.8671 200.416C94.4998 200.416 94.4998 196.321 91.8671 196.321Z" fill="#F73737"/>
<path d="M107.66 200.708C104.736 200.708 104.736 204.802 107.66 204.802C110.293 204.802 110.293 200.708 107.66 200.708Z" fill="#F73737"/>
<path d="M115.556 202.17C112.632 202.17 112.632 206.265 115.556 206.265C118.189 206.265 118.189 202.17 115.556 202.17Z" fill="#F73737"/>
</g>
<path d="M123.596 203.925C120.672 203.925 120.672 208.02 123.596 208.02C126.229 208.02 126.229 203.925 123.596 203.925Z" stroke="white" stroke-width="0.5"/>
<path d="M131.346 205.095C128.422 205.095 128.422 209.189 131.346 209.189C133.979 209.189 133.979 205.095 131.346 205.095Z" stroke="white" stroke-width="0.5"/>
<path d="M100.056 198.661C97.1321 198.661 97.1324 202.755 100.056 202.755C102.689 202.755 102.689 198.661 100.056 198.661Z" stroke="white" stroke-width="0.5"/>
<path d="M162.64 13.8462C4.13218 24.667 -21.6037 124.978 67.0083 166.214L53.2642 174.972C-8.44333 137.246 -16.9245 77.001 41.8585 36.6414C123.16 -15.9996 236.339 -5.47054 300.386 36.6414C394.556 105.66 305.943 180.82 236.339 196.028L226.98 183.176C403.914 139.585 317.056 3.30469 162.64 13.8462Z" fill="#0F0E0E" stroke="white" stroke-width="0.5"/>
<path d="M2.08432 98.3506C-1.71689 130.228 2.08432 150.699 53.2634 187.841V174.973C11.4433 149.063 0.783254 118.822 2.08432 98.3506Z" stroke="white" stroke-width="0.5"/>
<path d="M3.25476 126.717V119.698L4.71702 123.793V131.689L3.25476 126.717Z" fill="white"/>
<path d="M7.93399 139.293V132.274L9.98116 135.783V143.679L7.93399 139.293Z" fill="white"/>
<path d="M14.0755 149.528V141.925L15.8302 145.142V152.16L14.0755 149.528Z" fill="white"/>
<path d="M20.8019 157.425V150.991L22.5566 153.915V160.057L20.8019 157.425Z" fill="white"/>
<path d="M3.25476 126.717V119.698L4.71702 123.793V131.689L3.25476 126.717Z" stroke="white" stroke-width="0.5"/>
<path d="M7.93399 139.293V132.274L9.98116 135.783V143.679L7.93399 139.293Z" stroke="white" stroke-width="0.5"/>
<path d="M14.0755 149.528V141.925L15.8302 145.142V152.16L14.0755 149.528Z" stroke="white" stroke-width="0.5"/>
<path d="M20.8019 157.425V150.991L22.5566 153.915V160.057L20.8019 157.425Z" stroke="white" stroke-width="0.5"/>
<path d="M39.2264 177.019V165.321L52.9716 174.972V187.548L39.2264 177.019Z" fill="#161616" stroke="white" stroke-width="0.5"/>
<path d="M67.3018 179.36V166.199L53.2641 174.973V187.841L67.3018 179.36Z" fill="#161616" stroke="white" stroke-width="0.5"/>
<path d="M16.7076 106.247C23.8866 71.4572 69.0565 27.2846 177.264 26.4072C246.575 26.4072 322.612 62.6713 324.66 110.048" stroke="white" stroke-width="0.5"/>
<path d="M46.2454 62.3778V50.0948C23.4341 68.5193 16.1227 84.6042 16.7077 105.953C21.3868 86.9438 31.0377 75.2457 46.2454 62.3778Z" fill="#161616"/>
<path d="M53.849 56.8212V44.8307L59.1131 41.3213V53.6043L53.849 56.8212Z" fill="#161616"/>
<path d="M46.2454 62.3778V50.0948C23.4341 68.5193 16.1227 84.6042 16.7077 105.953C21.3868 86.9438 31.0377 75.2457 46.2454 62.3778Z" stroke="white" stroke-width="0.5"/>
<path d="M53.849 56.8212V44.8307L59.1131 41.3213V53.6043L53.849 56.8212Z" stroke="white" stroke-width="0.5"/>
<g filter="url(#filter3_d_331_380)">
<path d="M66.4244 42.4909V39.5664L68.4716 38.3966V41.3211L66.4244 42.4909Z" fill="#F73737"/>
<path d="M66.4244 47.1702V44.2457L68.4716 43.0758V46.0004L66.4244 47.1702Z" fill="#F73737"/>
<path d="M71.981 39.8589V36.9344L74.0282 35.7645V38.6891L71.981 39.8589Z" fill="#F73737"/>
<path d="M71.981 44.5381V41.6136L74.0282 40.4438V43.3683L71.981 44.5381Z" fill="#F73737"/>
<path d="M77.5376 37.5193V34.5947L79.5848 33.4249V36.3495L77.5376 37.5193Z" fill="#F73737"/>
<path d="M77.5376 42.1985V39.274L79.5848 38.1042V41.0287L77.5376 42.1985Z" fill="#F73737"/>
<path d="M83.0942 35.1796V32.2551L85.1414 31.0853V34.0098L83.0942 35.1796Z" fill="#F73737"/>
<path d="M83.0942 39.8589V36.9344L85.1414 35.7645V38.6891L83.0942 39.8589Z" fill="#F73737"/>
<path d="M88.3583 33.4249V30.5004L90.4055 29.3306V32.2551L88.3583 33.4249Z" fill="#F73737"/>
<path d="M88.3583 38.1042V35.1796L90.4055 34.0098V36.9344L88.3583 38.1042Z" fill="#F73737"/>
<path d="M94.2074 31.3778V28.4532L96.2545 27.2834V30.208L94.2074 31.3778Z" fill="#F73737"/>
<path d="M94.2074 36.057V33.1325L96.2545 31.9627V34.8872L94.2074 36.057Z" fill="#F73737"/>
<path d="M99.764 29.6231V26.6985L101.811 25.5287V28.4532L99.764 29.6231Z" fill="#F73737"/>
<path d="M99.764 34.3023V31.3778L101.811 30.208V33.1325L99.764 34.3023Z" fill="#F73737"/>
<path d="M105.321 28.1608V25.2363L107.368 24.0665V26.991L105.321 28.1608Z" fill="#F73737"/>
<path d="M105.321 32.84V29.9155L107.368 28.7457V31.6702L105.321 32.84Z" fill="#F73737"/>
<path d="M110.877 26.4061V23.4816L112.924 22.3118V25.2363L110.877 26.4061Z" fill="#F73737"/>
<path d="M110.877 31.0853V28.1608L112.924 26.991V29.9155L110.877 31.0853Z" fill="#F73737"/>
<path d="M116.141 25.5287V22.6042L118.188 21.4344V24.3589L116.141 25.5287Z" fill="#F73737"/>
<path d="M116.141 30.208V27.2834L118.188 26.1136V29.0382L116.141 30.208Z" fill="#F73737"/>
<path d="M121.99 23.774V20.8495L124.037 19.6797V22.6042L121.99 23.774Z" fill="#F73737"/>
<path d="M121.99 28.4532V25.5287L124.037 24.3589V27.2834L121.99 28.4532Z" fill="#F73737"/>
</g>
<path d="M196.566 24.0664V18.5098L202.415 19.0947V24.6513L196.566 24.0664Z" fill="white"/>
<path d="M208.849 25.8211V19.972L214.698 20.8494V26.406L208.849 25.8211Z" fill="white"/>
<path d="M220.839 27.2833V22.0192L226.981 23.189V28.7456L220.839 27.2833Z" fill="white"/>
<path d="M57.6509 179.359C66.6538 184.532 72.4523 187.128 84.5565 191.058M64.0848 175.558C73.1185 180.22 78.3455 182.454 88.0659 185.501M229.613 192.52C216.171 195.458 208.524 196.851 193.934 197.199M233.122 197.784C218.85 200.652 210.698 201.991 195.396 203.048" stroke="white" stroke-width="0.5"/>
<g filter="url(#filter4_d_331_380)">
<path d="M233.414 30.5014V24.6523L239.264 26.1146V31.9636L233.414 30.5014Z" fill="#F73737"/>
</g>
<path d="M298.631 65.3025V52.4346C301.197 54.7815 302.618 56.1062 305.065 58.5761V71.1515C302.499 68.722 301.09 67.4415 298.631 65.3025Z" fill="#161616"/>
<path d="M306.82 72.9062V60.6232C308.66 62.46 309.759 63.7855 311.792 66.4723V78.4628L306.82 72.9062Z" fill="#161616"/>
<path d="M313.254 80.51V68.5194C314.727 70.6782 315.607 72.098 317.348 74.9534V86.6515C315.795 83.9808 314.897 82.6223 313.254 80.51Z" fill="#161616"/>
<path d="M319.688 91.0382V79.3402L319.735 79.4493C320.689 81.6695 321.238 82.9485 322.027 85.1892V96.5948C321.149 94.2612 320.643 93.0185 319.688 91.0382Z" fill="#161616"/>
<path d="M298.631 65.3025V52.4346C301.197 54.7815 302.618 56.1062 305.065 58.5761V71.1515C302.499 68.722 301.09 67.4415 298.631 65.3025Z" stroke="white" stroke-width="0.5"/>
<path d="M306.82 72.9062V60.6232C308.66 62.46 309.759 63.7855 311.792 66.4723V78.4628L306.82 72.9062Z" stroke="white" stroke-width="0.5"/>
<path d="M313.254 80.51V68.5194C314.727 70.6782 315.607 72.098 317.348 74.9534V86.6515C315.795 83.9808 314.897 82.6223 313.254 80.51Z" stroke="white" stroke-width="0.5"/>
<path d="M319.688 91.0382V79.3402L319.735 79.4493C320.689 81.6695 321.238 82.9485 322.027 85.1892V96.5948C321.149 94.2612 320.643 93.0185 319.688 91.0382Z" stroke="white" stroke-width="0.5"/>
<defs>
<filter id="filter0_d_331_380" x="174.226" y="102.916" width="47.6236" height="59.8867" filterUnits="userSpaceOnUse" color-interpolation-filters="sRGB">
<feFlood flood-opacity="0" result="BackgroundImageFix"/>
<feColorMatrix in="SourceAlpha" type="matrix" values="0 0 0 0 0 0 0 0 0 0 0 0 0 0 0 0 0 0 127 0" result="hardAlpha"/>
<feOffset/>
<feGaussianBlur stdDeviation="10"/>
<feComposite in2="hardAlpha" operator="out"/>
<feColorMatrix type="matrix" values="0 0 0 0 0.966667 0 0 0 0 0.2175 0 0 0 0 0.2175 0 0 0 1 0"/>
<feBlend mode="normal" in2="BackgroundImageFix" result="effect1_dropShadow_331_380"/>
<feBlend mode="normal" in="SourceGraphic" in2="effect1_dropShadow_331_380" result="shape"/>
</filter>
<filter id="filter1_d_331_380" x="127.726" y="52.5615" width="54.915" height="45.3164" filterUnits="userSpaceOnUse" color-interpolation-filters="sRGB">
<feFlood flood-opacity="0" result="BackgroundImageFix"/>
<feColorMatrix in="SourceAlpha" type="matrix" values="0 0 0 0 0 0 0 0 0 0 0 0 0 0 0 0 0 0 127 0" result="hardAlpha"/>
<feOffset/>
<feGaussianBlur stdDeviation="10"/>
<feComposite in2="hardAlpha" operator="out"/>
<feColorMatrix type="matrix" values="0 0 0 0 0.966667 0 0 0 0 0.2175 0 0 0 0 0.2175 0 0 0 1 0"/>
<feBlend mode="normal" in2="BackgroundImageFix" result="effect1_dropShadow_331_380"/>
<feBlend mode="normal" in="SourceGraphic" in2="effect1_dropShadow_331_380" result="shape"/>
</filter>
<filter id="filter2_d_331_380" x="79.6741" y="186.321" width="47.8568" height="29.9434" filterUnits="userSpaceOnUse" color-interpolation-filters="sRGB">
<feFlood flood-opacity="0" result="BackgroundImageFix"/>
<feColorMatrix in="SourceAlpha" type="matrix" values="0 0 0 0 0 0 0 0 0 0 0 0 0 0 0 0 0 0 127 0" result="hardAlpha"/>
<feOffset/>
<feGaussianBlur stdDeviation="5"/>
<feComposite in2="hardAlpha" operator="out"/>
<feColorMatrix type="matrix" values="0 0 0 0 0.966667 0 0 0 0 0.2175 0 0 0 0 0.2175 0 0 0 1 0"/>
<feBlend mode="normal" in2="BackgroundImageFix" result="effect1_dropShadow_331_380"/>
<feBlend mode="normal" in="SourceGraphic" in2="effect1_dropShadow_331_380" result="shape"/>
</filter>
<filter id="filter3_d_331_380" x="56.4244" y="9.67969" width="77.613" height="47.4902" filterUnits="userSpaceOnUse" color-interpolation-filters="sRGB">
<feFlood flood-opacity="0" result="BackgroundImageFix"/>
<feColorMatrix in="SourceAlpha" type="matrix" values="0 0 0 0 0 0 0 0 0 0 0 0 0 0 0 0 0 0 127 0" result="hardAlpha"/>
<feOffset/>
<feGaussianBlur stdDeviation="5"/>
<feComposite in2="hardAlpha" operator="out"/>
<feColorMatrix type="matrix" values="0 0 0 0 0.966667 0 0 0 0 0.2175 0 0 0 0 0.2175 0 0 0 1 0"/>
<feBlend mode="normal" in2="BackgroundImageFix" result="effect1_dropShadow_331_380"/>
<feBlend mode="normal" in="SourceGraphic" in2="effect1_dropShadow_331_380" result="shape"/>
</filter>
<filter id="filter4_d_331_380" x="223.414" y="14.6523" width="25.849" height="27.3115" filterUnits="userSpaceOnUse" color-interpolation-filters="sRGB">
<feFlood flood-opacity="0" result="BackgroundImageFix"/>
<feColorMatrix in="SourceAlpha" type="matrix" values="0 0 0 0 0 0 0 0 0 0 0 0 0 0 0 0 0 0 127 0" result="hardAlpha"/>
<feOffset/>
<feGaussianBlur stdDeviation="5"/>
<feComposite in2="hardAlpha" operator="out"/>
<feColorMatrix type="matrix" values="0 0 0 0 0.966667 0 0 0 0 0.2175 0 0 0 0 0.2175 0 0 0 1 0"/>
<feBlend mode="normal" in2="BackgroundImageFix" result="effect1_dropShadow_331_380"/>
<feBlend mode="normal" in="SourceGraphic" in2="effect1_dropShadow_331_380" result="shape"/>
</filter>
</defs>
</svg>
