<svg width="490" height="142" viewBox="0 0 490 142" fill="none" xmlns="http://www.w3.org/2000/svg">
<path d="M1 5.05766C183.353 -5.35712 367.726 2.15476 489 52.7206M1 12.7786C182.801 0.00259495 366.84 5.03819 489 52.7993M1 12.9217C183.836 7.17909 368.354 19.3688 488.384 74.6364C488.589 74.7385 488.794 74.8406 489 74.9425M1 18.5517C178.878 15.1837 358.241 28.6962 478.06 82.0888C481.665 83.8162 485.312 85.5071 489 87.162M1.01318 21.1118C182.172 5.96866 365.812 8.47249 489 53.2398M1 24.5642C174.151 23.3934 348.646 38.0995 468.196 89.709C474.98 92.837 481.918 95.836 489 98.7091M1 30.0598C181.449 12.5484 364.653 12.4754 489 54.09M1 30.8933C169.656 31.7492 339.564 47.5267 458.795 97.4445C468.543 101.769 478.622 105.828 489 109.63M1 37.46C165.393 40.179 330.988 56.914 449.854 105.23C462.362 110.569 475.433 115.468 489 119.953M1 39.6234C180.672 19.7539 363.394 17.0745 489 55.4029M1 44.1828C161.362 48.6085 322.911 66.1946 441.374 113C456.447 119.186 472.362 124.736 489 129.695M1 49.8063C179.845 27.5941 362.051 22.2895 489 57.2252M1 50.9731C157.561 56.9567 315.326 75.2951 433.354 120.678C450.804 127.566 469.416 133.603 489 138.861M1 57.7404C153.991 65.1402 308.225 84.14 425.796 128.188C443.871 135.053 463.23 141.005 483.652 146.128M0.993164 60.6111C178.974 36.0765 360.643 28.138 489 59.6015M1 64.4003C150.65 73.0824 301.602 92.6602 418.7 135.461C430.126 139.638 442.078 143.45 454.5 146.919M1 72.0366C178.086 45.2067 359.193 34.6372 489 62.5715M1 84.0911C177.175 54.9944 357.714 41.8034 489 66.1746M1 96.7743C176.255 65.4433 356.22 49.6481 489 70.4408M1 110.088C175.334 76.5575 354.726 58.1817 489 75.3979M1 124.035C174.418 88.3411 353.241 67.4134 489 81.0697" stroke="#505050" stroke-width="0.5"/>
</svg>
