<svg width="258" height="263" viewBox="0 0 258 263" fill="none" xmlns="http://www.w3.org/2000/svg">
<path d="M144.202 243.678C133.19 249.446 124.275 249.97 113.264 243.678L3.67035 178.131C-0.524623 173.937 -1.03987 168.172 3.67043 165.547L113.264 100.525C123.751 94.2324 133.19 94.7568 144.202 100.525L248.027 160.827C260.612 167.644 256.941 174.985 245.929 182.326L144.202 243.678Z" fill="#0F0E0E" stroke="white" stroke-width="0.5"/>
<path d="M251.173 162.925C258.293 169.801 256.576 173.979 246.979 181.802V197.009L255.368 192.29C257.691 190.205 258.073 188.773 257.99 185.997V174.461C257.916 167.593 256.009 165.445 251.173 162.925Z" fill="#F73737"/>
<path d="M30.9378 193.862V209.069L3.14622 192.289C0.524312 190.192 5.72738e-05 188.094 0 184.424V171.314C1.04874 173.936 2.62185 177.083 4.19496 177.607L30.9378 193.862Z" fill="#F73737"/>
<path d="M44.0469 216.934V202.252L52.4368 207.496V222.178L44.0469 216.934Z" fill="#F73737"/>
<path d="M30.9375 209.069L112.739 258.36M112.739 258.36V243.487M112.739 258.36C122.272 264.155 134.763 264.128 144.201 258.36M144.201 258.36L146.6 256.928M144.201 258.36V256.262M144.201 243.677V247.348M233.869 204.834L246.978 181.802V185.997M233.869 204.834L237.539 202.643M233.869 204.834L230.288 206.972M237.539 202.643L246.978 185.997M237.539 202.643L241.21 200.452M246.978 185.997V189.667M246.978 189.667L241.21 200.452M246.978 189.667V193.338M241.21 200.452L244.094 198.73M244.094 198.73L246.978 197.008V193.338M244.094 198.73L246.978 193.338M230.288 206.972L242.783 184.424M230.288 206.972L227.052 208.903M227.052 208.903L238.588 187.045M227.052 208.903L222.857 211.407M222.857 211.407L233.344 190.192M222.857 211.407L218.662 213.911M218.662 213.911L228.625 192.814M218.662 213.911L214.991 216.102M214.991 216.102L223.906 195.435M214.991 216.102L210.5 218.784M210.5 218.784L219.186 198.582M210.5 218.784L205.692 221.654M205.692 221.654L214.467 201.203M205.692 221.654L201.882 223.928M201.882 223.928L209.748 204.35M201.882 223.928L198.211 226.119M198.211 226.119L205.692 206.447M198.211 226.119L194.541 228.31M194.541 228.31L200.833 209.593M194.541 228.31L190.758 230.568M190.758 230.568L196.638 212.215M190.758 230.568L187.2 232.692M187.2 232.692L192.443 214.837M187.2 232.692L184.053 234.57M184.053 234.57L188.248 217.459M184.053 234.57L180.383 236.762M180.383 236.762L184.053 219.556M180.383 236.762L175.825 239.482M175.825 239.482L180.383 221.654M175.825 239.482L171.469 242.083M171.469 242.083L175.825 224.548M171.469 242.083L167.041 244.726M167.041 244.726L171.469 227.422M167.041 244.726L162.648 247.348M162.648 247.348C162.573 246.928 165.701 235.637 167.274 230.044M162.648 247.348L157.835 250.221M157.835 250.221L162.03 233.19M157.835 250.221L153.864 252.592M153.864 252.592L158.359 235.287M153.864 252.592L149.969 254.917M149.969 254.917L154.164 237.909M149.969 254.917L146.6 256.928M146.6 256.928L150.494 240.007M144.201 256.262L147.348 242.083M144.201 256.262V247.348M144.201 247.348L145.25 243.153" stroke="white" stroke-width="0.5"/>
<g filter="url(#filter0_f_331_505)">
<path d="M233.5 162.316L148.5 218C135.115 223.782 127.386 225.086 112.5 218L21 162.316L60.765 132.116L116.112 125L233.5 162.316Z" fill="#222222"/>
</g>
<path d="M112 197C124 204 134 204.5 145.5 197L221 152.296V69L142 115.5C131.589 120.858 125.672 120.73 115 115.5L38 69.5V153.5L112 197Z" fill="#150F0F"/>
<path d="M221.5 152L221 152.296M221 152.296L145.5 197C134 204.5 124 204 112 197L38 153.5V69.5L115 115.5C125.672 120.73 131.589 120.858 142 115.5L221 69V152.296Z" stroke="white" stroke-width="0.5"/>
<path d="M62.502 113.5C56.5004 113.5 58 123.5 65.002 125.5C71 125.5 66.5 113.5 62.502 113.5Z" fill="#150F0F" stroke="white" stroke-width="0.5"/>
<path d="M71.5 107L60.5 114C65.5 111.5 69 120 67.5 124.5L80.5 116.5C80.5 111.5 78 107 71.5 107Z" fill="#161616" stroke="white" stroke-width="0.5"/>
<path d="M78.5 110L67 117.5L67.5 118.5L79 111.5L78.5 110Z" fill="#F73737"/>
<path d="M80 113L68 120.5C68.1031 121.83 68.1301 122.582 68 124L80.5 116.5C80.523 114.922 80.3858 114.181 80 113Z" fill="#F73737"/>
<path d="M70.9997 150.499C61.1194 139.61 58.4122 133.059 59.4997 120.499C58 117.5 59 114 61.5 113.5L71.5 106.999C76 106.5 79.4969 109.599 80.5 115C88.867 121.208 92.5 129 94.5 136C96.2143 142 97 146 101 146C101 137 97.8105 129.068 91 119C79.5 102 60.5 93.4996 53.5001 106.999C47 125 51.0729 140.435 66.0001 157.999C74.5 168 80.5 159.999 70.9997 150.499Z" stroke="white" stroke-width="0.5"/>
<path d="M89.5 135C86.8658 127.073 84.2454 123.427 78 118L80.5 116.5V115C90.4648 123.13 91.457 127.761 94.5 136C95.9703 143.286 97.3462 145.612 101 146C98.5 152.5 90.5 145 89.5 135Z" fill="#161616" stroke="white" stroke-width="0.2"/>
<path d="M75.4992 161.5C56.645 141.853 51.903 130.019 53.4992 107.5C50 117 48.0002 127 54.4993 141C65.4993 160 71.7395 164.241 75.4992 161.5Z" fill="#161616" stroke="white" stroke-width="0.2"/>
<path d="M67.5 133V128.5L69 132L70.5 130.5V134.5M72.5 136.5L73 135.167M75 138.5L74.5 135.5M74.5 135.5L74 132.5L73 135.167M74.5 135.5L73 135.167M77.5 134.5L78.5 137.75M79.5 141L78.5 137.75M78.5 137.75L76.5 139.5L80 136.5" stroke="white" stroke-width="0.5"/>
<path d="M117 122.5V195M141 122V194.5" stroke="white" stroke-width="0.5"/>
<path d="M228.5 143V60.5C228.043 63.9706 226.213 65.8192 221 69V153C225.5 150 228.5 148.5 228.5 143Z" fill="#F73737"/>
<path d="M28.4995 141.5V60C28.9688 64.1847 32.0278 66.3035 38.4995 70V154.5C29.9021 149.512 28.4996 147 28.4995 141.5Z" fill="#F73737"/>
<path d="M43 156.5V73L50 77V161L43 156.5Z" fill="#F73737"/>
<path d="M53.5 107V79L55.5 80.5V104.5C54.6958 105.2 54.2619 105.716 53.5 107Z" fill="#F73737"/>
<path d="M53.5 163V138.5C54.1032 141.019 54.5031 142.233 55.5 143.5V164.5L53.5 163Z" fill="#F73737"/>
<path d="M34.6633 67.2818C27.9028 63.3383 26.361 57.3827 34.6633 52.7818L110.663 7.78178C124.462 -1.76042 132.371 -0.746572 146.663 7.78178L222.663 53.2818C230.163 58.2822 231.164 62.2822 222.663 67.7818L145.663 113.282C132.163 121.782 123.663 120.782 111.663 113.282L34.6633 67.2818Z" fill="#0F0E0E" stroke="white" stroke-width="0.5"/>
<path d="M205 154V142C205 138.5 212.5 135 212.5 139.5V152C212.5 155.5 205 159 205 154Z" fill="#150F0F" stroke="white" stroke-width="0.5"/>
<path d="M184.5 121.667V109.667C184.5 106.167 192 102.667 192 107.167V119.667C192 123.167 184.5 126.667 184.5 121.667Z" fill="#150F0F" stroke="white" stroke-width="0.5"/>
<path d="M163.5 164.667V152.667C163.5 149.167 171 145.667 171 150.167V162.667C171 166.167 163.5 169.667 163.5 164.667Z" fill="#150F0F" stroke="white" stroke-width="0.5"/>
<path d="M199.5 140.001C199.5 138.5 202.5 139.5 205 141.501V156C202.5 156 199.5 154.5 199.5 151.5V140.001Z" fill="#161616" stroke="white" stroke-width="0.5"/>
<path d="M179 107.668C179 106.167 182 107.167 184.5 109.168V123.667C182 123.667 179 122.167 179 119.167V107.668Z" fill="#161616" stroke="white" stroke-width="0.5"/>
<path d="M158 150.668C158 149.167 161 150.167 163.5 152.168V166.667C161 166.667 158 165.167 158 162.167V150.668Z" fill="#161616" stroke="white" stroke-width="0.5"/>
<path d="M199.5 139.5C202 134.5 208.5 133.999 212 138C209 136.5 206.325 138.582 205 141.5C203.5 140 201.5 139 199.5 139.5Z" fill="#161616" stroke="white" stroke-width="0.5"/>
<path d="M179 107.167C181.5 102.167 188 101.666 191.5 105.667C188.5 104.167 185.825 106.249 184.5 109.167C183 107.667 181 106.667 179 107.167Z" fill="#161616" stroke="white" stroke-width="0.5"/>
<path d="M158 150.167C160.5 145.167 167 144.666 170.5 148.667C167.5 147.167 164.825 149.249 163.5 152.167C162 150.667 160 149.667 158 150.167Z" fill="#161616" stroke="white" stroke-width="0.5"/>
<path d="M179.001 160.5V120C179.001 122.5 182.5 124.5 187 124.5V155.5C187 161.5 186.5 165 183.501 166.5C179.351 167.772 179.001 165.5 179.001 160.5Z" stroke="white" stroke-width="0.5"/>
<path d="M184 128.5C184 160 183.5 163 179 164C180 169 187 167.5 187 158V124.5C183 124.5 179 122.5 179 120V128.5H184Z" fill="#161616" stroke="white" stroke-width="0.2"/>
<path d="M199.5 140.001V97.0007C199.5 91.5 207.5 87.0002 207.5 93.5007V135.5" stroke="white" stroke-width="0.5"/>
<path d="M204 135.501V90.5015C206 90.0006 207.5 90.5001 207.5 93.5015V135.501C206.134 135.082 205.367 135.181 204 135.501Z" fill="#161616" stroke="white" stroke-width="0.2"/>
<path d="M158 163V175C158 181.5 166 178 166 173V167" stroke="white" stroke-width="0.5"/>
<path d="M163 171H158V163.5C159 165.5 161.404 166.652 166 167.5V173C166 178 159 180 158.5 176.5C161.141 174.979 162.007 173.684 163 171Z" fill="#161616" stroke="white" stroke-width="0.2"/>
<path d="M163 115V146C164.172 145.817 164.829 145.798 166 146V122.5C166 118 165.5 115 163 115Z" fill="#161616" stroke="white" stroke-width="0.2"/>
<path d="M158 150.999V121.499C158 115.5 166 111.5 166 119.499V146" stroke="white" stroke-width="0.5"/>
<g filter="url(#filter1_f_331_505)">
<ellipse cx="128.5" cy="64.1602" rx="28.5" ry="16.8633" fill="#222222"/>
</g>
<path d="M111.884 44.579C116.385 42.1533 118.825 41.4125 123.088 40.7632C120.415 44.7062 120.53 48.2984 123.852 52.0835C116.124 51.9397 112.266 48.2676 111.884 44.579Z" fill="white"/>
<path d="M129.709 51.0659C125.38 48.1404 125.762 42.6711 130.473 40C135.971 40.1301 138.556 40.6935 142.569 42.2895C136.057 43.9794 132.927 45.5351 129.709 51.0659Z" fill="white"/>
<path d="M147.79 45.0878C142.569 44.8334 135.566 48.2676 135.057 52.8466C141.835 50.5982 145.759 50.1492 153.138 51.8291C152.448 49.065 150.336 46.7413 147.79 45.0878Z" fill="white"/>
<path d="M153.647 56.4081C148.681 53.4826 142.777 53.4365 136.458 56.4081C144.448 57.9673 146.768 59.7675 149.318 63.6582C152.176 60.8925 152.848 59.2896 153.647 56.4081Z" fill="white"/>
<path d="M144.734 67.0924C144.734 62.5134 139.099 59.8243 133.147 59.8423C136.558 64.0662 136.628 66.4642 133.657 70.781C138.413 69.9491 140.852 69.1827 144.734 67.0924Z" fill="white"/>
<path d="M126.781 71.1626C132.001 67.2196 131.237 63.6582 127.163 60.8599C124.305 65.5314 121.489 67.2445 115.067 69.2547C119.084 70.5437 121.541 71.067 126.781 71.1626Z" fill="white"/>
<path d="M104.117 60.0967C111.649 61.5127 115.561 61.2265 122.07 59.0792C121.178 63.4038 115.831 66.7108 109.592 66.3292C106.553 64.31 105.428 62.9116 104.117 60.0967Z" fill="white"/>
<path d="M103.353 55.7721C110.534 58.4266 115.576 57.9344 120.669 55.3905C113.577 54.1032 110.63 52.5349 107.173 48.1404C104.495 50.826 103.629 52.4906 103.353 55.7721Z" fill="white"/>
<defs>
<filter id="filter0_f_331_505" x="11" y="115" width="232.5" height="117.838" filterUnits="userSpaceOnUse" color-interpolation-filters="sRGB">
<feFlood flood-opacity="0" result="BackgroundImageFix"/>
<feBlend mode="normal" in="SourceGraphic" in2="BackgroundImageFix" result="shape"/>
<feGaussianBlur stdDeviation="5" result="effect1_foregroundBlur_331_505"/>
</filter>
<filter id="filter1_f_331_505" x="90" y="37.2969" width="77" height="53.7266" filterUnits="userSpaceOnUse" color-interpolation-filters="sRGB">
<feFlood flood-opacity="0" result="BackgroundImageFix"/>
<feBlend mode="normal" in="SourceGraphic" in2="BackgroundImageFix" result="shape"/>
<feGaussianBlur stdDeviation="5" result="effect1_foregroundBlur_331_505"/>
</filter>
</defs>
</svg>
