<svg width="490" height="193" viewBox="0 0 490 193" fill="none" xmlns="http://www.w3.org/2000/svg">
<path d="M1 2C4.94975 1.6822 6.24002 1.60648 9.02539 1.54221C111.017 -0.619303 305.307 3.00313 489 24.8888M1.00021 5.99985C4.28079 5.79558 6.02418 5.69065 8.76486 5.55556C110.576 2.60377 305.314 4.76477 489 25.5142M1.0001 10.5002L8.48741 10.0645C110.102 6.25877 305.322 6.82926 489 26.3554M1.00024 15.5L8.19312 15.1392C109.596 10.4132 305.333 9.25665 489 27.4701M1.00039 21.4999C3.23437 21.2446 4.76999 21.1198 7.88174 20.8559C109.057 15.1404 305.346 12.1118 489 28.9207M1.00024 28C3.1112 27.6811 4.6565 27.5356 7.55347 27.2887C108.482 20.5115 305.362 15.4563 489 30.7664M1.00049 35L7.2085 34.5052C107.872 26.5904 305.38 19.3439 489 33.0582M1.00049 43.5C3.00049 43 3.88381 42.8839 6.84619 42.5702C107.225 33.438 305.4 23.8239 489 35.8432M1.00049 52L6.46729 51.536C106.54 41.1026 305.422 28.9317 489 39.1543M1.00024 62L6.07153 61.4507C105.815 49.6278 305.447 34.6964 489 43.0185M1.00039 75.0002L5.65859 74.3662C105.049 61.0603 305.473 43.149 489 49.4649M1.00032 98.9998C1.96302 98.6623 3.12158 98.4843 5.14794 98.173L5.22884 98.1606C104.24 83.2727 305.5 62.1442 489 66.3467M1 124C2.09287 123.625 2.88766 123.426 4.78223 123.037C103.386 106.462 305.526 81.8592 489 83.8404M1.00021 150C2.16043 149.56 2.88826 149.33 4.31857 148.983C102.484 130.61 305.551 102.253 489 101.905M1.00029 176.5L3.83769 175.993C101.532 155.703 305.571 123.289 489 120.504M59.8223 192C167.759 170.413 335.917 144.041 489 139.596M201.817 191.905C291.179 176.629 393.188 163.301 489 159.138M357 191.937C401.144 186.139 445.734 181.611 489 179.086" stroke="white" stroke-width="0.5"/>
</svg>
