<svg width="267" height="276" viewBox="0 0 267 276" fill="none" xmlns="http://www.w3.org/2000/svg">
<path d="M146.4 258.329C136.747 263.385 128.934 263.844 119.281 258.329L23.2172 200.874C19.5401 197.197 19.0885 192.145 23.2173 189.843L119.281 132.848C128.474 127.332 136.747 127.792 146.4 132.848L237.408 185.706C248.439 191.682 245.222 198.116 235.569 204.551L146.4 258.329Z" fill="#0F0E0E" stroke="white" stroke-width="0.5"/>
<g filter="url(#filter0_d_331_889)">
<path d="M240.166 187.545C246.407 193.572 244.902 197.234 236.489 204.092V217.421L243.843 213.285C245.879 211.458 246.214 210.202 246.142 207.769V197.657C246.077 191.637 244.405 189.754 240.166 187.545Z" fill="#F73737"/>
</g>
<g filter="url(#filter1_d_331_889)">
<path d="M47.1185 214.663V227.992L22.7578 213.284C20.4596 211.445 20.0001 209.607 20 206.389V194.898C20.9193 197.197 22.2982 199.954 23.6771 200.414L47.1185 214.663Z" fill="#F73737"/>
</g>
<g filter="url(#filter2_d_331_889)">
<path d="M58.6093 234.886V222.017L65.9634 226.613V239.483L58.6093 234.886Z" fill="#F73737"/>
</g>
<path d="M47.1183 227.993L118.822 271.199M118.822 271.199V258.162M118.822 271.199C127.178 276.279 138.126 276.255 146.4 271.199M146.4 271.199L148.502 269.944M146.4 271.199V269.36M146.4 258.329V261.546M224.998 224.281L236.489 204.092V207.769M224.998 224.281L228.215 222.36M224.998 224.281L221.859 226.154M228.215 222.36L236.489 207.769M228.215 222.36L231.433 220.439M236.489 207.769V210.986M236.489 210.986L231.433 220.439M236.489 210.986V214.204M231.433 220.439L233.961 218.93M233.961 218.93L236.489 217.421V214.204M233.961 218.93L236.489 214.204M221.859 226.154L232.811 206.39M221.859 226.154L219.022 227.847M219.022 227.847L229.134 208.688M219.022 227.847L215.345 230.042M215.345 230.042L224.538 211.446M215.345 230.042L211.668 232.237M211.668 232.237L220.401 213.744M211.668 232.237L208.451 234.158M208.451 234.158L216.265 216.042M208.451 234.158L204.514 236.508M204.514 236.508L212.128 218.8M204.514 236.508L200.299 239.024M200.299 239.024L207.991 221.098M200.299 239.024L196.96 241.017M196.96 241.017L203.854 223.856M196.96 241.017L193.742 242.938M193.742 242.938L200.299 225.695M193.742 242.938L190.525 244.859M190.525 244.859L196.041 228.453M190.525 244.859L187.209 246.838M187.209 246.838L192.363 230.751M187.209 246.838L184.09 248.7M184.09 248.7L188.686 233.049M184.09 248.7L181.332 250.346M181.332 250.346L185.009 235.347M181.332 250.346L178.115 252.267M178.115 252.267L181.332 237.186M178.115 252.267L174.119 254.652M174.119 254.652L178.115 239.024M174.119 254.652L170.301 256.931M170.301 256.931L174.119 241.561M170.301 256.931L166.419 259.248M166.419 259.248L170.301 244.08M166.419 259.248L162.57 261.546M162.57 261.546C162.504 261.179 165.245 251.281 166.624 246.378M162.57 261.546L158.35 264.065M158.35 264.065L162.027 249.136M158.35 264.065L154.87 266.143M154.87 266.143L158.81 250.975M154.87 266.143L151.456 268.181M151.456 268.181L155.133 253.273M151.456 268.181L148.502 269.944M148.502 269.944L151.915 255.111M146.4 269.36L149.158 256.931M146.4 269.36V261.546M146.4 261.546L147.319 257.869" stroke="white" stroke-width="0.5"/>
<g filter="url(#filter3_f_331_889)">
<path d="M150.168 218.291C165.946 210.84 169.89 198.568 163.754 190.679C155.357 206.26 146.769 209.423 129.131 211.717C105.025 209.963 94.9451 195.5 92.3154 179.284C89.8005 168.987 93.7161 166.264 99.7661 160.877C96.3326 157.587 94.7072 155.604 92.7537 151.673L46.2965 178.846C50.5406 181.231 59.1886 181.95 59.883 180.599C62.0744 194.186 91.5265 208.386 91.8771 209.087C115.394 225.175 133.952 223.988 150.168 218.291Z" fill="#222222"/>
</g>
<path d="M129.569 197.691C93.192 195.938 82.2351 173.148 100.643 161.753C104.734 164.461 107.415 165.833 113.353 167.889V176.216C113.353 187.611 147.976 188.488 147.976 176.216V166.574C153.004 164.996 155.622 163.96 159.81 161.753C179.532 176.216 162.001 199.254 129.569 197.691Z" stroke="white" stroke-width="0.5"/>
<path d="M92.7537 179.723C98.4512 220.921 158.933 225.303 167.699 179.723C156.742 207.334 98.4512 199.445 92.7537 179.723Z" stroke="white" stroke-width="0.5"/>
<path d="M130.009 189.802C127.379 189.802 127.379 193.309 130.009 193.309C132.639 193.309 132.639 189.802 130.009 189.802Z" fill="white"/>
<path d="M140.966 188.488C138.336 188.488 138.336 191.994 140.966 191.994C143.596 191.994 143.596 188.488 140.966 188.488Z" fill="white"/>
<path d="M150.608 184.543C147.978 184.543 147.978 188.049 150.608 188.049C153.238 188.049 153.238 184.543 150.608 184.543Z" fill="white"/>
<path d="M157.182 179.284C154.552 179.284 154.552 182.79 157.182 182.79C159.812 182.79 159.812 179.284 157.182 179.284Z" fill="white"/>
<path d="M158.935 172.271C156.305 172.271 156.306 175.778 158.935 175.778C161.565 175.778 161.565 172.271 158.935 172.271Z" fill="white"/>
<path d="M157.182 165.697C154.552 165.697 154.552 169.203 157.182 169.203C159.812 169.203 159.812 165.697 157.182 165.697Z" fill="white"/>
<path d="M119.052 188.049C116.422 188.049 116.422 191.556 119.052 191.556C121.681 191.556 121.681 188.049 119.052 188.049Z" fill="white"/>
<path d="M109.847 184.105C107.218 184.105 107.218 187.611 109.847 187.611C112.477 187.611 112.477 184.105 109.847 184.105Z" fill="white"/>
<path d="M103.273 178.846C100.643 178.846 100.643 182.352 103.273 182.352C105.902 182.352 105.902 178.846 103.273 178.846Z" fill="white"/>
<path d="M101.081 172.271C98.4511 172.271 98.4513 175.778 101.081 175.778C103.711 175.778 103.711 172.271 101.081 172.271Z" fill="white"/>
<path d="M103.273 165.697C100.643 165.697 100.643 169.203 103.273 169.203C105.902 169.203 105.902 165.697 103.273 165.697Z" fill="white"/>
<path d="M130.009 189.802C127.379 189.802 127.379 193.309 130.009 193.309C132.639 193.309 132.639 189.802 130.009 189.802Z" stroke="white" stroke-width="0.5"/>
<path d="M140.966 188.488C138.336 188.488 138.336 191.994 140.966 191.994C143.596 191.994 143.596 188.488 140.966 188.488Z" stroke="white" stroke-width="0.5"/>
<path d="M150.608 184.543C147.978 184.543 147.978 188.049 150.608 188.049C153.238 188.049 153.238 184.543 150.608 184.543Z" stroke="white" stroke-width="0.5"/>
<path d="M157.182 179.284C154.552 179.284 154.552 182.79 157.182 182.79C159.812 182.79 159.812 179.284 157.182 179.284Z" stroke="white" stroke-width="0.5"/>
<path d="M158.935 172.271C156.305 172.271 156.306 175.778 158.935 175.778C161.565 175.778 161.565 172.271 158.935 172.271Z" stroke="white" stroke-width="0.5"/>
<path d="M157.182 165.697C154.552 165.697 154.552 169.203 157.182 169.203C159.812 169.203 159.812 165.697 157.182 165.697Z" stroke="white" stroke-width="0.5"/>
<path d="M119.052 188.049C116.422 188.049 116.422 191.556 119.052 191.556C121.681 191.556 121.681 188.049 119.052 188.049Z" stroke="white" stroke-width="0.5"/>
<path d="M109.847 184.105C107.218 184.105 107.218 187.611 109.847 187.611C112.477 187.611 112.477 184.105 109.847 184.105Z" stroke="white" stroke-width="0.5"/>
<path d="M103.273 178.846C100.643 178.846 100.643 182.352 103.273 182.352C105.902 182.352 105.902 178.846 103.273 178.846Z" stroke="white" stroke-width="0.5"/>
<path d="M101.081 172.271C98.4511 172.271 98.4513 175.778 101.081 175.778C103.711 175.778 103.711 172.271 101.081 172.271Z" stroke="white" stroke-width="0.5"/>
<path d="M103.273 165.697C100.643 165.697 100.643 169.203 103.273 169.203C105.902 169.203 105.902 165.697 103.273 165.697Z" stroke="white" stroke-width="0.5"/>
<path d="M92.7537 149.043L96.2599 141.593C123.132 146.916 137.961 146.165 164.193 141.593L167.26 149.043C165.507 174.463 96.2599 177.093 92.7537 149.043Z" stroke="white" stroke-width="0.5"/>
<path d="M94.9451 144.222L96.2599 141.593C109.846 145.537 141.841 147.729 164.193 141.593C150.168 157.371 113.791 159.124 94.9451 144.222Z" stroke="white" stroke-width="0.5"/>
<path d="M103.272 131.598C16.4098 114.34 29.6419 33.2314 128.693 32.0234C223.904 32.0234 248.781 110.828 156.742 130.718C151.822 122.225 143.155 117.487 128.693 117.487C116.859 117.487 106.778 123.623 103.272 131.598Z" fill="#150F0F" stroke="white" stroke-width="0.5"/>
<path d="M89.2469 128.005C83.5495 88.1242 175.587 92.0684 171.643 126.69M80.4815 124.939C55.9391 70.1573 202.761 64.4594 179.97 123.625M73.4702 121.435C17.3705 35.5305 242.644 42.9809 187.422 120.121M45.8583 85.4934C73.9114 101.159 84.2815 111.131 97.1365 130.197M104.149 129.759C93.2663 101.609 84.5966 85.9121 55.5003 58.3204M111.161 122.309C105.982 90.6449 100.102 72.8173 80.4815 40.7893M112.038 32.9004C120.116 68.5453 123.819 88.1321 120.803 118.364M148.853 33.3387C142.15 64.8433 135.4 80.8731 139.649 118.364M179.97 41.6659C165.572 71.4074 152.878 84.6576 149.729 122.747M204.076 58.7586C179.348 81.7502 167.366 96.096 155.865 129.321M214.156 85.9317C193.119 93.3824 169.452 118.802 163.316 129.321" stroke="white" stroke-width="0.5"/>
<path d="M103.272 131.516C110.723 114.857 145.785 110.913 156.742 130.639C136.44 134.341 124.681 134.217 103.272 131.516Z" fill="#F73737"/>
<path d="M129.13 145.537C60.3213 142.031 42.7902 112.667 45.4196 85.0552C50.6792 115.734 79.1671 132.389 129.13 133.704C176.902 134.142 217.662 108.722 214.156 79.7959C225.113 129.321 167.26 145.537 129.13 145.537Z" fill="#161616" stroke="white" stroke-width="0.5"/>
<path d="M74.3454 56.1311C41.9138 54.8148 70.5153 92.7416 95.3826 92.0697C116.859 92.0699 94.7509 55.8536 74.3454 56.1311Z" fill="#161616" stroke="white" stroke-width="0.5"/>
<path d="M129.569 90.7519C113.791 87.2457 112.476 120.117 129.569 128.882C141.402 134.95 147.538 96.0116 129.569 90.7519Z" fill="#161616" stroke="white" stroke-width="0.5"/>
<path d="M167.26 66.6407C145.785 64.8874 153.674 104.339 176.026 109.153C192.68 113.543 185.668 68.8387 167.26 66.6407Z" fill="#161616" stroke="white" stroke-width="0.5"/>
<path d="M140.963 2.22142C119.927 7.48072 111.599 49.5551 130.445 46.9255C154.55 42.1038 162.439 -3.91532 140.963 2.22142Z" fill="#161616" stroke="white" stroke-width="0.5"/>
<path d="M130.445 97.3269C126.062 97.3269 124.747 106.531 130.445 111.79C136.581 116.611 137.896 97.7652 130.445 97.3269Z" fill="white"/>
<path d="M121.241 110.037C124.6 107.972 127.394 109.843 129.568 113.105C130.737 114.858 133.513 120.555 132.636 123.623C127.815 124.938 121.679 116.611 121.241 110.037Z" fill="white"/>
<path d="M165.069 76.2897C155.865 72.7831 157.618 89.4379 166.384 92.0676C171.205 93.5139 174.272 82.8638 165.069 76.2897Z" fill="white"/>
<path d="M177.34 81.1107C171.205 81.9872 169.89 96.8886 175.587 104.339C182.715 100.794 183.038 89.8762 177.34 81.1107Z" fill="white"/>
<path d="M138.334 8.79526C128.254 12.3015 127.377 28.5176 135.704 25.888C143.155 23.5354 147.099 7.04178 138.334 8.79526Z" fill="white"/>
<path d="M126.062 39.0361C129.339 30.3894 141.84 21.9434 146.661 26.7644C140.964 38.1596 132.358 43.9191 126.062 39.0361Z" fill="white"/>
<path d="M74.3458 80.6723C76.572 76.2802 91.4385 75.8513 97.5743 83.3019C93.1916 91.1909 82.673 88.9995 74.3458 80.6723Z" fill="white"/>
<path d="M76.5371 61.3882C65.0669 61.3882 73.8721 73.444 82.673 75.413C92.7539 76.2895 85.7413 61.3882 76.5371 61.3882Z" fill="white"/>
<path d="M130.008 4.84629C139.211 -1.72344 143.156 0.0309444 147.977 2.22011C140.087 0.0296569 130.935 6.0496 125.186 15.8076C122.276 21.0743 121.383 24.1708 120.365 29.8324C119.207 37.5427 120.365 41.2275 122.996 44.7335C111.295 35.3231 119.489 13.1776 130.008 4.84629Z" fill="#161616" stroke="white" stroke-width="0.5"/>
<path d="M140.526 99.0802C137.607 92.9368 135.266 92.0678 129.569 90.7529C134.011 92.3934 135.856 94.2271 138.334 98.6419C139.418 101.113 139.899 102.745 140.526 106.093C141.253 112.916 140.771 114.899 140.087 118.803C138.417 125.112 137.044 126.792 134.39 128.883C138.773 127.13 142.456 121.425 142.717 120.117C144.47 111.352 143.594 106.093 140.526 99.0802Z" fill="#161616" stroke="white" stroke-width="0.5"/>
<path d="M154.989 70.153C161.183 64.522 163.707 65.1805 168.137 66.6468C163.511 66.3904 161.149 66.7447 158.057 69.7159C156.082 71.6135 153.435 76.1368 154.989 84.6172C156.659 91.6826 158.214 95.0372 162.002 99.9568C166.407 104.994 169.434 107.079 176.026 109.161C169.891 109.161 163.754 108.722 156.742 97.3272C151.483 86.8086 149.291 75.8517 154.989 70.153Z" fill="#161616" stroke="white" stroke-width="0.5"/>
<path d="M75.2227 53.0628C68.4269 52.6175 66.2936 54.811 62.5175 58.7554C71.2823 53.4999 82.6105 56.0762 90.5623 62.7027C101.081 71.4682 104.149 79.3572 104.149 85.0547C105.927 77.8445 104.455 74.1847 99.7661 67.962C90.7668 57.7122 85.303 54.3755 75.2227 53.0628Z" fill="#161616"/>
<path d="M62.5127 58.7603C66.2918 54.8129 68.424 52.6173 75.2227 53.0628C85.303 54.3755 90.7668 57.7122 99.7661 67.962C104.455 74.1847 105.927 77.8445 104.149 85.0547C104.149 79.3572 101.081 71.4682 90.5623 62.7027C82.6091 56.075 71.2782 53.4989 62.5127 58.7582" stroke="white" stroke-width="0.5"/>
<path d="M116.859 168.328V181.476M119.927 168.766V183.229M114.667 179.723V167.889M123.433 184.105V169.204M126.939 184.982V169.204M130.445 184.982V169.204M133.513 184.982V169.204M136.581 184.544V168.766M140.087 183.667V168.328M143.594 182.352V167.451M146.662 179.723V167.013" stroke="white" stroke-width="0.5"/>
<defs>
<filter id="filter0_d_331_889" x="216.489" y="167.545" width="49.6613" height="69.876" filterUnits="userSpaceOnUse" color-interpolation-filters="sRGB">
<feFlood flood-opacity="0" result="BackgroundImageFix"/>
<feColorMatrix in="SourceAlpha" type="matrix" values="0 0 0 0 0 0 0 0 0 0 0 0 0 0 0 0 0 0 127 0" result="hardAlpha"/>
<feOffset/>
<feGaussianBlur stdDeviation="10"/>
<feComposite in2="hardAlpha" operator="out"/>
<feColorMatrix type="matrix" values="0 0 0 0 0.966667 0 0 0 0 0.2175 0 0 0 0 0.2175 0 0 0 1 0"/>
<feBlend mode="normal" in2="BackgroundImageFix" result="effect1_dropShadow_331_889"/>
<feBlend mode="normal" in="SourceGraphic" in2="effect1_dropShadow_331_889" result="shape"/>
</filter>
<filter id="filter1_d_331_889" x="0" y="174.898" width="67.1185" height="73.0938" filterUnits="userSpaceOnUse" color-interpolation-filters="sRGB">
<feFlood flood-opacity="0" result="BackgroundImageFix"/>
<feColorMatrix in="SourceAlpha" type="matrix" values="0 0 0 0 0 0 0 0 0 0 0 0 0 0 0 0 0 0 127 0" result="hardAlpha"/>
<feOffset/>
<feGaussianBlur stdDeviation="10"/>
<feComposite in2="hardAlpha" operator="out"/>
<feColorMatrix type="matrix" values="0 0 0 0 0.966667 0 0 0 0 0.2175 0 0 0 0 0.2175 0 0 0 1 0"/>
<feBlend mode="normal" in2="BackgroundImageFix" result="effect1_dropShadow_331_889"/>
<feBlend mode="normal" in="SourceGraphic" in2="effect1_dropShadow_331_889" result="shape"/>
</filter>
<filter id="filter2_d_331_889" x="38.6093" y="202.017" width="47.3541" height="57.4658" filterUnits="userSpaceOnUse" color-interpolation-filters="sRGB">
<feFlood flood-opacity="0" result="BackgroundImageFix"/>
<feColorMatrix in="SourceAlpha" type="matrix" values="0 0 0 0 0 0 0 0 0 0 0 0 0 0 0 0 0 0 127 0" result="hardAlpha"/>
<feOffset/>
<feGaussianBlur stdDeviation="10"/>
<feComposite in2="hardAlpha" operator="out"/>
<feColorMatrix type="matrix" values="0 0 0 0 0.966667 0 0 0 0 0.2175 0 0 0 0 0.2175 0 0 0 1 0"/>
<feBlend mode="normal" in2="BackgroundImageFix" result="effect1_dropShadow_331_889"/>
<feBlend mode="normal" in="SourceGraphic" in2="effect1_dropShadow_331_889" result="shape"/>
</filter>
<filter id="filter3_f_331_889" x="36.2965" y="141.673" width="140.211" height="90.4727" filterUnits="userSpaceOnUse" color-interpolation-filters="sRGB">
<feFlood flood-opacity="0" result="BackgroundImageFix"/>
<feBlend mode="normal" in="SourceGraphic" in2="BackgroundImageFix" result="shape"/>
<feGaussianBlur stdDeviation="5" result="effect1_foregroundBlur_331_889"/>
</filter>
</defs>
</svg>
