<svg width="490" height="140" viewBox="0 0 490 140" fill="none" xmlns="http://www.w3.org/2000/svg">
<path opacity="0.6" d="M1.0061 51.7801C130.234 55.8022 246.735 47.8165 310.926 35.3692C357.736 28.7195 419.723 21.0851 489.006 14.8525M1.0061 51.9369C129.048 57.1793 244.188 51.564 307.971 39.8382C355.539 33.327 418.621 25.6373 489.006 19.247M1.0061 52.1616C131.357 55.0371 249.16 44.6979 313.735 31.5494C359.833 24.7785 420.779 17.1918 489.006 11.0892M1.0061 52.7139C127.798 59.2475 241.519 56.0073 304.872 45.0211C353.241 38.668 417.473 30.9138 489.006 24.3318M1.0061 52.9977C132.417 54.802 251.462 42.1384 316.4 28.311C361.826 21.4343 421.787 13.8894 489.006 7.89363M1.0061 54.1986C133.415 55.0079 253.64 40.0612 318.92 25.5794C363.716 18.6106 422.745 11.1026 489.006 5.19469M1.0061 54.1817C126.483 62.0738 238.728 61.2016 301.628 50.9708C350.846 44.7975 416.282 36.9677 489.006 30.1525M1.0061 55.6745C134.351 55.5653 255.695 38.3891 321.295 23.279C365.5 16.2305 423.653 8.7551 489.006 2.91962M1.0061 56.4058C125.103 65.7189 235.817 67.1955 298.239 57.734C348.355 51.7649 415.049 43.8456 489.006 36.7468M1.0061 57.3418C135.227 56.39 257.626 37.0497 323.525 21.3395C367.179 14.2222 424.51 6.7759 489.006 1M1 61.4571C123.654 72.2487 232.783 76.0439 294.705 67.3629C345.771 61.6253 413.776 53.5993 489.006 46.1554M1.0061 77.2361C122.145 89.5559 229.631 95.6272 291.026 87.7363C343.098 82.2607 412.464 74.1069 489.006 66.2427M1.0061 93.9641C120.565 107.856 226.358 116.151 287.202 109.057C340.34 103.877 411.115 95.5692 489.006 87.1925M1.0061 111.652C118.917 127.15 222.966 137.606 283.234 131.313C337.5 126.469 409.73 117.974 489.006 108.971M1.0061 130.314C21.731 133.369 42.0123 136.279 61.6876 138.966" stroke="white" stroke-width="0.5"/>
</svg>
