<svg width="290" height="261" viewBox="0 0 290 261" fill="none" xmlns="http://www.w3.org/2000/svg">
<path d="M160.909 240.058C149.385 246.095 140.056 246.643 128.532 240.058L13.8409 171.463C9.45079 167.073 8.91158 161.041 13.841 158.293L128.532 90.2469C139.507 83.6619 149.385 84.2107 160.909 90.2469L269.563 153.354C282.733 160.488 278.892 168.171 267.368 175.853L160.909 240.058Z" fill="#0F0E0E" stroke="white" stroke-width="0.5"/>
<g filter="url(#filter0_d_331_593)">
<path d="M272.856 155.549C280.306 162.745 278.509 167.117 268.465 175.304V191.218L277.246 186.279C279.676 184.098 280.076 182.6 279.989 179.694V167.622C279.912 160.434 277.916 158.186 272.856 155.549Z" fill="#F73737"/>
</g>
<g filter="url(#filter1_d_331_593)">
<path d="M42.3768 187.927V203.841L13.2926 186.28C10.5487 184.085 10.0001 181.89 10 178.049V164.33C11.0975 167.074 12.7438 170.366 14.3901 170.915L42.3768 187.927Z" fill="#F73737"/>
</g>
<g filter="url(#filter2_d_331_593)">
<path d="M56.0957 212.071V196.706L64.8759 202.194V217.559L56.0957 212.071Z" fill="#F73737"/>
</g>
<path d="M42.3761 203.84L127.983 255.424M127.983 255.424V239.859M127.983 255.424C137.959 261.488 151.03 261.46 160.908 255.424M160.908 255.424L163.418 253.925M160.908 255.424V253.229M160.908 240.058V243.9M254.746 199.408L268.465 175.305V179.695M254.746 199.408L258.587 197.115M254.746 199.408L250.999 201.645M258.587 197.115L268.465 179.695M258.587 197.115L262.429 194.822M268.465 179.695V183.536M268.465 183.536L262.429 194.822M268.465 183.536V187.377M262.429 194.822L265.447 193.02M265.447 193.02L268.465 191.219V187.377M265.447 193.02L268.465 187.377M250.999 201.645L264.075 178.048M250.999 201.645L247.612 203.667M247.612 203.667L259.685 180.792M247.612 203.667L243.222 206.287M243.222 206.287L254.197 184.085M243.222 206.287L238.832 208.908M238.832 208.908L249.258 186.829M238.832 208.908L234.991 211.201M234.991 211.201L244.32 189.572M234.991 211.201L230.29 214.007M230.29 214.007L239.381 192.865M230.29 214.007L225.258 217.01M225.258 217.01L234.442 195.609M225.258 217.01L221.272 219.39M221.272 219.39L229.503 198.901M221.272 219.39L217.43 221.683M217.43 221.683L225.258 201.096M217.43 221.683L213.589 223.976M213.589 223.976L220.174 204.389M213.589 223.976L209.631 226.339M209.631 226.339L215.784 207.133M209.631 226.339L205.906 228.562M205.906 228.562L211.394 209.877M205.906 228.562L202.614 230.528M202.614 230.528L207.004 212.62M202.614 230.528L198.773 232.821M198.773 232.821L202.614 214.815M198.773 232.821L194.003 235.668M194.003 235.668L198.773 217.01M194.003 235.668L189.444 238.39M189.444 238.39L194.003 220.039M189.444 238.39L184.81 241.156M184.81 241.156L189.444 223.047M184.81 241.156L180.213 243.9M180.213 243.9C180.134 243.461 183.407 231.644 185.054 225.791M180.213 243.9L175.176 246.907M175.176 246.907L179.566 229.083M175.176 246.907L171.02 249.387M171.02 249.387L175.725 231.278M171.02 249.387L166.945 251.82M166.945 251.82L171.335 234.022M166.945 251.82L163.418 253.925M163.418 253.925L167.493 236.217M160.908 253.229L164.201 238.39M160.908 253.229V243.9M160.908 243.9L162.006 239.51" stroke="white" stroke-width="0.5"/>
<g filter="url(#filter3_f_331_593)">
<path d="M22.6219 150.268L145 86.6094L256.951 157.402L145 226L22.6219 150.268Z" fill="#222222"/>
</g>
<path d="M77.5 167.828L29.2073 138.743C42.2558 132.494 47.8659 127.768 53.3537 117.89C61.2346 105.437 65.094 100.248 71.4635 92.646C79.1464 84.9631 83.5366 87.054 93.9635 92.646C101.477 96.6753 105.684 96.0071 113.171 91.5484C120.327 86.5407 121.997 82.9206 124.146 76.1828C131.268 57.0399 137.866 44.3535 148.293 31.7315C152.134 26.2435 160.725 23.4996 165.305 31.7315C170.823 41.6498 174.154 48.6706 180.122 61.3656C182.866 68.4998 188.903 69.0486 191.098 76.1827C193.412 83.7045 210.74 109.466 214.695 111.304C224.938 108.564 229.559 108.673 236.098 111.304C245.976 121.731 247.622 129.414 259.695 138.743L213.049 165.633L191.098 161.243L168.598 194.719L143.903 208.438L121.403 194.719L99.4513 175.511L77.5 167.828Z" fill="#150F0F" stroke="white" stroke-width="0.5"/>
<path d="M52.2561 153.013L98.6281 125.025M145 97.037C147.542 93.8169 148.666 90.8367 149.939 82.7687C152.82 56.9764 154.512 42.7407 160.915 27.3418M145 97.037C144.122 96.1589 128.903 87.1589 121.403 82.7687L145 97.037ZM145 97.037L167.774 110.894M145 97.037L98.6281 125.025M236.098 152.464L213.323 138.607M190.549 124.75L214.146 111.305M190.549 124.75C187.729 126.182 186.082 126.488 182.866 124.75C179.049 122.688 175.586 121.661 171.342 121.676M190.549 124.75L167.774 110.894M190.549 124.75L213.323 138.607M145 124.75C149.39 126.671 154.355 125.644 160.366 123.378C164.734 122.254 168.246 121.688 171.342 121.676M145 124.75L95.061 93.1955M145 124.75L167.774 110.894M145 124.75L121.951 141.488M167.774 110.894C170.164 108.88 171.163 106.335 172.988 101.976C177.026 87.2727 179.406 79.2138 186.707 69.5979M76.4025 88.8052L98.6281 125.025M98.6281 125.025L121.951 141.488M121.951 141.488C119.302 142.308 117.783 142.524 114.817 140.939C109.136 137.128 105.92 135.222 100 133.256M121.951 141.488L145 152.425M100 133.256C96.3405 133.255 93.5932 133.841 84.0854 138.744C79.1464 139.293 75.8968 138.744 73.1098 135.452C67.254 129.407 63.6072 125.787 53.9025 117.342M100 133.256C95.9622 137.545 93.5439 140.928 89.0244 148.622C83.4922 159.056 80.5067 162.621 75.3049 166.732M100 133.256C106.7 142.234 110.543 148.098 117.561 160.696C118.81 162.428 119.93 163.83 121.951 165.493M168.598 194.72L145 180.061M145 180.061L132.378 172.22C127.146 169.246 124.059 167.227 121.951 165.493M145 180.061L121.403 194.72M145 180.061L167.774 166.243M213.323 138.607L236.098 111.305M213.323 138.607L190.549 152.425M214.146 164.537L190.549 152.425M190.549 152.425L171.342 121.676M190.549 152.425L167.774 166.243M171.342 121.676C161.11 134.732 155.369 141.954 145 152.425M167.774 166.243C170.663 167.546 172.099 167.134 174.634 166.243C181.121 162.747 184.754 160.85 191.098 161.244M167.774 166.243L145 152.425M145 152.425L121.951 165.493M121.951 165.493L99.4513 175.513" stroke="white" stroke-width="0.5"/>
<circle cx="235.549" cy="112.402" r="3.84147" fill="white"/>
<circle cx="170.793" cy="122.281" r="3.84147" fill="white"/>
<circle cx="99.4513" cy="134.354" r="3.84147" fill="white"/>
<circle cx="144.451" cy="181.548" r="3.84147" fill="white"/>
<circle cx="76.4025" cy="89.3542" r="3.84147" fill="white"/>
<rect x="92.3171" y="59.1709" width="14.2683" height="14.2683" fill="white"/>
<rect x="69.2683" y="6.48828" width="14.2683" height="14.2683" fill="white"/>
<rect x="164.756" y="1" width="14.2683" height="14.2683" fill="white"/>
<rect x="229.512" y="47.0977" width="14.2683" height="14.2683" fill="white"/>
<rect x="138.415" y="138.195" width="14.2683" height="14.2683" fill="white"/>
<rect x="110.976" y="66.8535" width="12.0732" height="1.09756" fill="white"/>
<rect x="110.976" y="71.2441" width="12.0732" height="1.09756" fill="white"/>
<path d="M111.524 64.1099V59.1709H126.342V64.1099H111.524Z" stroke="white" stroke-width="0.5"/>
<path d="M99.4513 76.1826V128.866" stroke="white" stroke-width="0.5"/>
<rect x="87.9269" y="14.1709" width="12.0732" height="1.09756" fill="white"/>
<rect x="183.415" y="8.68262" width="12.0732" height="1.09756" fill="white"/>
<rect x="248.171" y="54.7803" width="12.0732" height="1.09756" fill="white"/>
<rect x="157.073" y="145.878" width="12.0732" height="1.09756" fill="white"/>
<rect x="87.9269" y="18.5605" width="12.0732" height="1.09756" fill="white"/>
<rect x="183.415" y="13.0732" width="12.0732" height="1.09756" fill="white"/>
<rect x="248.171" y="59.1709" width="12.0732" height="1.09756" fill="white"/>
<rect x="157.073" y="150.269" width="12.0732" height="1.09756" fill="white"/>
<path d="M88.4756 11.4273V6.48828H103.293V11.4273H88.4756Z" stroke="white" stroke-width="0.5"/>
<path d="M183.964 5.93903V1H198.781V5.93903H183.964Z" stroke="white" stroke-width="0.5"/>
<path d="M248.72 52.0367V47.0977H263.537V52.0367H248.72Z" stroke="white" stroke-width="0.5"/>
<path d="M157.622 143.134V138.195H172.439V143.134H157.622Z" stroke="white" stroke-width="0.5"/>
<path d="M145 155.207V174.963M170.793 117.341V18.5605M236.098 106.914V65.7557" stroke="white" stroke-width="0.5"/>
<path d="M76.4025 83.866V24.5977" stroke="white" stroke-width="0.5"/>
<defs>
<filter id="filter0_d_331_593" x="258.465" y="145.549" width="31.5345" height="55.6689" filterUnits="userSpaceOnUse" color-interpolation-filters="sRGB">
<feFlood flood-opacity="0" result="BackgroundImageFix"/>
<feColorMatrix in="SourceAlpha" type="matrix" values="0 0 0 0 0 0 0 0 0 0 0 0 0 0 0 0 0 0 127 0" result="hardAlpha"/>
<feOffset/>
<feGaussianBlur stdDeviation="5"/>
<feComposite in2="hardAlpha" operator="out"/>
<feColorMatrix type="matrix" values="0 0 0 0 0.966667 0 0 0 0 0.2175 0 0 0 0 0.2175 0 0 0 1 0"/>
<feBlend mode="normal" in2="BackgroundImageFix" result="effect1_dropShadow_331_593"/>
<feBlend mode="normal" in="SourceGraphic" in2="effect1_dropShadow_331_593" result="shape"/>
</filter>
<filter id="filter1_d_331_593" x="0" y="154.33" width="52.3768" height="59.5107" filterUnits="userSpaceOnUse" color-interpolation-filters="sRGB">
<feFlood flood-opacity="0" result="BackgroundImageFix"/>
<feColorMatrix in="SourceAlpha" type="matrix" values="0 0 0 0 0 0 0 0 0 0 0 0 0 0 0 0 0 0 127 0" result="hardAlpha"/>
<feOffset/>
<feGaussianBlur stdDeviation="5"/>
<feComposite in2="hardAlpha" operator="out"/>
<feColorMatrix type="matrix" values="0 0 0 0 0.966667 0 0 0 0 0.2175 0 0 0 0 0.2175 0 0 0 1 0"/>
<feBlend mode="normal" in2="BackgroundImageFix" result="effect1_dropShadow_331_593"/>
<feBlend mode="normal" in="SourceGraphic" in2="effect1_dropShadow_331_593" result="shape"/>
</filter>
<filter id="filter2_d_331_593" x="46.0957" y="186.706" width="28.7802" height="40.8525" filterUnits="userSpaceOnUse" color-interpolation-filters="sRGB">
<feFlood flood-opacity="0" result="BackgroundImageFix"/>
<feColorMatrix in="SourceAlpha" type="matrix" values="0 0 0 0 0 0 0 0 0 0 0 0 0 0 0 0 0 0 127 0" result="hardAlpha"/>
<feOffset/>
<feGaussianBlur stdDeviation="5"/>
<feComposite in2="hardAlpha" operator="out"/>
<feColorMatrix type="matrix" values="0 0 0 0 0.966667 0 0 0 0 0.2175 0 0 0 0 0.2175 0 0 0 1 0"/>
<feBlend mode="normal" in2="BackgroundImageFix" result="effect1_dropShadow_331_593"/>
<feBlend mode="normal" in="SourceGraphic" in2="effect1_dropShadow_331_593" result="shape"/>
</filter>
<filter id="filter3_f_331_593" x="6.62195" y="70.6094" width="266.329" height="171.391" filterUnits="userSpaceOnUse" color-interpolation-filters="sRGB">
<feFlood flood-opacity="0" result="BackgroundImageFix"/>
<feBlend mode="normal" in="SourceGraphic" in2="BackgroundImageFix" result="shape"/>
<feGaussianBlur stdDeviation="8" result="effect1_foregroundBlur_331_593"/>
</filter>
</defs>
</svg>
