<svg width="306" height="285" viewBox="0 0 306 285" fill="none" xmlns="http://www.w3.org/2000/svg">
<path d="M168.673 265.15C157.32 271.097 148.129 271.638 136.776 265.15L23.7841 197.572C19.4591 193.247 18.9278 187.304 23.7842 184.597L136.776 117.559C147.588 111.071 157.32 111.612 168.673 117.559L275.717 179.731C288.692 186.759 284.908 194.328 273.555 201.897L168.673 265.15Z" fill="#0F0E0E" stroke="white" stroke-width="0.5"/>
<g filter="url(#filter0_d_342_1632)">
<path d="M278.962 181.894C286.302 188.983 284.532 193.29 274.637 201.356V217.034L283.287 212.169C285.682 210.02 286.075 208.543 285.99 205.681V193.787C285.914 186.706 283.947 184.492 278.962 181.894Z" fill="#F73737"/>
</g>
<g filter="url(#filter1_d_342_1632)">
<path d="M51.8971 213.79V229.468L23.2438 212.168C20.5406 210.006 20.0001 207.843 20 204.059V190.543C21.0813 193.246 22.7031 196.49 24.325 197.031L51.8971 213.79Z" fill="#F73737"/>
</g>
<g filter="url(#filter2_d_342_1632)">
<path d="M65.4127 237.578V222.44L74.0628 227.847V242.984L65.4127 237.578Z" fill="#F73737"/>
</g>
<path d="M51.8969 229.468L136.235 280.287M136.235 280.287V264.954M136.235 280.287C146.064 286.262 158.941 286.234 168.673 280.287M168.673 280.287L171.145 278.811M168.673 280.287V278.125M168.673 265.15V268.934M261.12 225.102L274.636 201.355V205.681M261.12 225.102L264.905 222.843M261.12 225.102L257.428 227.306M264.905 222.843L274.636 205.681M264.905 222.843L268.689 220.584M274.636 205.681V209.465M274.636 209.465L268.689 220.584M274.636 209.465V213.249M268.689 220.584L271.663 218.809M271.663 218.809L274.636 217.034V213.249M271.663 218.809L274.636 213.249M257.428 227.306L270.311 204.059M257.428 227.306L254.092 229.297M254.092 229.297L265.986 206.762M254.092 229.297L249.767 231.879M249.767 231.879L260.58 210.006M249.767 231.879L245.442 234.461M245.442 234.461L255.714 212.709M245.442 234.461L241.658 236.72M241.658 236.72L250.848 215.412M241.658 236.72L237.027 239.484M237.027 239.484L245.983 218.656M237.027 239.484L232.07 242.443M232.07 242.443L241.117 221.359M232.07 242.443L228.142 244.788M228.142 244.788L236.251 224.603M228.142 244.788L224.358 247.047M224.358 247.047L232.07 226.765M224.358 247.047L220.573 249.306M220.573 249.306L227.061 230.009M220.573 249.306L216.673 251.634M216.673 251.634L222.736 232.712M216.673 251.634L213.004 253.824M213.004 253.824L218.411 235.415M213.004 253.824L209.761 255.76M209.761 255.76L214.086 238.118M209.761 255.76L205.976 258.019M205.976 258.019L209.761 240.281M205.976 258.019L201.277 260.825M201.277 260.825L205.976 242.443M201.277 260.825L196.785 263.506M196.785 263.506L201.277 245.427M196.785 263.506L192.22 266.231M192.22 266.231L196.785 248.39M192.22 266.231L187.692 268.934M187.692 268.934C187.614 268.502 190.839 256.86 192.46 251.093M187.692 268.934L182.729 271.897M182.729 271.897L187.054 254.337M182.729 271.897L178.635 274.34M178.635 274.34L183.27 256.5M178.635 274.34L174.62 276.737M174.62 276.737L178.945 259.203M174.62 276.737L171.145 278.811M171.145 278.811L175.16 261.365M168.673 278.125L171.917 263.506M168.673 278.125V268.934M168.673 268.934L169.754 264.609" stroke="white" stroke-width="0.5"/>
<path d="M220.5 27.5625L225.5 32.837M225.5 32.837C224.433 34.5943 222.448 35.493 219.5 34.5616C209.5 30.0628 209.5 17.562 219.5 19.0616C225.707 20.7865 227.871 28.9318 225.5 32.837ZM219.5 71.5625H212.256M212.256 71.5625C211.161 67.1984 213.576 63.1732 219.5 64.0616C225.707 65.7865 227.871 73.9318 225.5 77.837C224.433 79.5943 222.448 80.493 219.5 79.5616C215.424 77.7279 213.01 74.565 212.256 71.5625ZM219.5 49.0625L223.5 44.0092M223.5 44.0092C226.523 47.2218 227.257 52.4441 225.5 55.3379C224.433 57.0952 222.448 57.9939 219.5 57.0625C209.5 52.5637 209.5 40.0629 219.5 41.5625C221.107 42.0092 222.443 42.8865 223.5 44.0092Z" stroke="white" stroke-width="0.5"/>
<path d="M235 34.0625V27.5625L239.5 30.0625V36.5625L235 34.0625Z" fill="white"/>
<path d="M235 45.0625V39.0625L239.5 41.5625V47.5625L235 45.0625Z" fill="white"/>
<path d="M235 57.0625V51.0625L239.5 53.0625V59.0625L235 57.0625Z" fill="white"/>
<path d="M243.5 39.0625V32.5625L248 35.0625V41.5625L243.5 39.0625Z" fill="white"/>
<path d="M243.5 50.5625V44.0625L248 46.5625V53.0625L243.5 50.5625Z" fill="white"/>
<path d="M243.5 62.0625V55.5625L248 58.0625V64.5625L243.5 62.0625Z" fill="white"/>
<path d="M252 45.5625V39.0625L256.5 41.5625V48.0625L252 45.5625Z" fill="white"/>
<path d="M252 57.0625V50.5625L256.5 53.0625V59.5625L252 57.0625Z" fill="white"/>
<path d="M252 68.5625V62.0625L256.5 64.5625V71.0625L252 68.5625Z" fill="white"/>
<path d="M260.242 53.0625V46.5625L263 50.0625V56.5625L260.242 53.0625Z" fill="white"/>
<path d="M260.242 64.0625V57.5625L263 61.0625V67.5625L260.242 64.0625Z" fill="white"/>
<path d="M263 79.0625L260.242 75.5625V72.3125V69.0625L263 72.5625V79.0625Z" fill="white"/>
<path d="M266.5 61.5625V55.5625L268.5 59.0625V64.5625L266.5 61.5625Z" fill="white"/>
<path d="M266.5 73.0625V67.0625L268.5 70.5625V76.0625L266.5 73.0625Z" fill="white"/>
<path d="M266.5 84.0625V78.0625L268.5 81.5625V87.0625L266.5 84.0625Z" fill="white"/>
<g filter="url(#filter3_d_342_1632)">
<path d="M235 57.0625V51.0625L239.5 53.0625V59.0625L235 57.0625Z" fill="#F73737"/>
<path d="M243.5 39.0625V32.5625L248 35.0625V41.5625L243.5 39.0625Z" fill="#F73737"/>
<path d="M252 57.0625V50.5625L256.5 53.0625V59.5625L252 57.0625Z" fill="#F73737"/>
<path d="M260.242 75.5625V69.0625L263 72.5625V79.0625L260.242 75.5625Z" fill="#F73737"/>
<path d="M266.5 61.5625V55.5625L268.5 59.0625V64.5625L266.5 61.5625Z" fill="#F73737"/>
</g>
<path d="M233.5 86.5625V69.5625L237.5 71.5625V88.0625M241.5 90.5625V81.0625L245 83.0625V93.0625M248.5 95.5625V80.5625L252 83.0625V98.5625M256.5 102.062V80.5625L260 84.0625V106.562M263.5 109.062V93.0625L267 96.5625V104.562" stroke="white" stroke-width="0.5"/>
<path d="M95.4886 102.562C99.5 80.5625 115.489 76.5625 135.989 69.5625C138.482 78.2961 143.5 83.0625 153 84.0625C167.496 83.2669 172.215 79.8424 176 69.5625C240 84.5625 226 135.062 156.989 141.562C114.999 141.562 93 120.562 95.4886 102.562Z" fill="#161616" stroke="white" stroke-width="0.5"/>
<path d="M127.5 102.062C131.003 93.1983 140.5 86.5494 154.5 86.5494C195.5 85.5625 198.5 123.062 154.5 122.549C140.5 122.549 122.362 115.062 127.5 102.062Z" fill="#181313" stroke="white" stroke-width="0.5"/>
<g filter="url(#filter4_f_342_1632)">
<path d="M119.501 80.0622C100 91.5622 115.5 103.062 127.001 104.562C129.327 94.5752 137.5 87.5625 153 86.5625V84.0624C148.759 83.5784 146.357 82.8106 142 79.5622C133.187 76.4875 128.5 76.0624 119.501 80.0622Z" fill="#222222"/>
</g>
<path d="M130.5 114.559C134.5 97.0625 177 96.0616 182 114.559M150 122.562L146.5 87.5625M162.5 122.062L166 87.5625M137.5 119.062L130 97.5625M174.5 119.062L182.5 95.5625M139.5 120.062C149.2 114.559 161 114.062 172.5 120.062" stroke="white" stroke-width="0.5"/>
<path d="M97 113.562L99.4136 118.115C119.956 150.472 196.336 148.695 215 112.562L176 188.062C170 204.562 144.5 204.562 136.5 188.062L99.4136 118.115C98.4937 116.666 97.6858 115.148 97 113.562Z" fill="#150F0F" stroke="white" stroke-width="0.5"/>
<g filter="url(#filter5_f_342_1632)">
<path d="M164.5 212.062C179 208.062 178.5 200.562 174 192.062C165.5 205.062 144 201.562 137 189.062L108 135.062L54 166.562C62.5672 181.011 82.2956 187.425 120 201.562C144.152 212.594 152.628 213.591 164.5 212.062Z" fill="#222222"/>
</g>
<path d="M148.5 150.063C143 150.063 143 152.063 143 156.063V217.562C143 221.562 144.5 223.892 152 223.562C195.078 221.667 209 215.903 233 205.062C268.113 189.202 276.5 161.063 276.5 156.063V75.5625C276.5 90.0195 270.35 102.631 260 113.166C236.702 136.878 192.121 150.063 148.5 150.063Z" fill="#161616" stroke="white" stroke-width="0.5"/>
<path d="M208.5 8.56234C253 21.5623 276.5 49.0623 276.5 75.5623C275.5 93.5625 270.413 101.616 260 113.165C255 104.562 228.205 88.1492 210.5 83.5623C203.5 81.5623 203.5 79.5623 203.5 75.5623V11.0623C203.5 8.56234 204.5 7.06233 208.5 8.56234Z" stroke="white" stroke-width="0.5"/>
<path d="M81.5 203.562V139.562C81.5 137.062 78.5 135.062 74 133.062C48.5 117.562 33.5 106.062 28.5 75.0625V142.062C28.5 169.562 37.5 184.062 73.5 206.562C79.5 211.062 81.5 208.062 81.5 203.562Z" fill="#161616" stroke="white" stroke-width="0.5"/>
<circle cx="151.5" cy="160.562" r="1.5" fill="white"/>
<circle cx="71.5" cy="139.562" r="1.5" fill="white"/>
<circle cx="71.5" cy="154.562" r="1.5" fill="white"/>
<circle cx="71.5" cy="168.562" r="1.5" fill="white"/>
<path d="M276.5 92.0625C274.995 99.2545 272.231 105.929 268.381 112.062M151.5 173.562C217.5 173.562 265.5 147.562 276.5 106.062M151.5 186.562C216.5 190.062 276.5 150.562 276.5 117.562M151.5 200.562C237 198.562 276.5 157.562 276.5 131.062M276.5 144.062C276.5 151.753 273.699 159.732 268.381 167.438M170.5 159.498C164.28 160.102 157.933 160.459 151.5 160.562V214.562C158.042 214.434 164.38 214.046 170.5 213.424M170.5 159.498V213.424M170.5 159.498C176.988 158.868 183.337 157.968 189.5 156.806M170.5 213.424C177.091 212.754 183.43 211.812 189.5 210.63M189.5 156.806V210.63M189.5 156.806C195.704 155.636 201.72 154.199 207.5 152.503M189.5 210.63C195.795 209.404 201.801 207.92 207.5 206.213M207.5 152.503V206.213M207.5 152.503C213.349 150.787 218.956 148.804 224.272 146.562M207.5 206.213C213.429 204.438 219.026 202.421 224.272 200.203M224.272 146.562V200.203M224.272 146.562C230.046 144.128 235.476 141.387 240.5 138.348M224.272 200.203C230.129 197.726 235.548 194.997 240.5 192.073M240.5 138.348V192.073M240.5 138.348C246.113 134.954 251.217 131.188 255.725 127.062M240.5 192.073C246.21 188.702 251.299 185.069 255.725 181.262M255.725 127.062V181.262M255.725 127.062C260.714 122.497 264.973 117.492 268.381 112.062M255.725 181.262C260.858 176.846 265.099 172.194 268.381 167.438M268.381 112.062V167.438" stroke="white" stroke-width="0.5"/>
<circle cx="71.5" cy="182.562" r="1.5" fill="white"/>
<circle cx="71.5" cy="198.562" r="1.5" fill="white"/>
<circle cx="56.5" cy="130.562" r="1.5" fill="white"/>
<circle cx="56.5" cy="145.562" r="1.5" fill="white"/>
<circle cx="56.5" cy="159.562" r="1.5" fill="white"/>
<circle cx="56.5" cy="173.562" r="1.5" fill="white"/>
<circle cx="56.5" cy="189.562" r="1.5" fill="white"/>
<circle cx="44.5" cy="119.562" r="1.5" fill="white"/>
<circle cx="44.5" cy="134.562" r="1.5" fill="white"/>
<circle cx="44.5" cy="148.562" r="1.5" fill="white"/>
<circle cx="44.5" cy="162.562" r="1.5" fill="white"/>
<circle cx="44.5" cy="178.562" r="1.5" fill="white"/>
<circle cx="34.5" cy="105.562" r="1.5" fill="white"/>
<circle cx="34.5" cy="120.562" r="1.5" fill="white"/>
<circle cx="34.5" cy="134.562" r="1.5" fill="white"/>
<circle cx="34.5" cy="148.562" r="1.5" fill="white"/>
<circle cx="34.5" cy="164.562" r="1.5" fill="white"/>
<path d="M139 1.06283C63 5.06283 28.5 48.0628 28.5 75.0628C31.0692 92.2019 35.4014 100.125 46 112.562C68.8754 90.0698 87.5 84.0625 111.5 79.0625C124.25 72.7721 131.852 70.6257 145.5 67.0625V8.06283C145.5 3.06283 145.5 0.56267 139 1.06283Z" stroke="white" stroke-width="0.5"/>
<path d="M28.5 143.062C29.5057 151.528 31.5545 158.614 34.5 164.719M71.5 182.562C50 170.062 35.7144 163.448 28.5 129.562M71.5 168.562C52.5 157.062 36.5 150.19 28.5 115.562M71.5 154.562C52.5 143.062 36.6057 136.49 28.5 101.562M28.5 85.5625C30.0797 93.3329 32.0972 99.7008 34.5 105.044M56.5 189.255C61.0868 192.49 66.1141 195.518 71.5 198.562V139.562C66.181 136.238 61.1514 133.33 56.5 130.195M56.5 189.255V130.195M56.5 189.255C52.063 186.126 48.0383 182.803 44.5 179.084M56.5 130.195C52.1439 127.259 48.1195 124.124 44.5 120.264M44.5 179.084V120.264M44.5 179.084C40.5141 174.894 37.1454 170.203 34.5 164.719M44.5 120.264C40.6896 116.2 37.3279 111.332 34.5 105.044M34.5 105.044V164.719" stroke="white" stroke-width="0.5"/>
<path d="M46.5 84.5625V105.062" stroke="white" stroke-width="0.5"/>
<path d="M51.5 79.0625V99.5625" stroke="white" stroke-width="0.5"/>
<path d="M58.5 74.0625V94.5625" stroke="white" stroke-width="0.5"/>
<path d="M65.5 69.0625V89.5625" stroke="white" stroke-width="0.5"/>
<path d="M72.5 65.0625V85.5625" stroke="white" stroke-width="0.5"/>
<path d="M80.5 61.0625V81.5625" stroke="white" stroke-width="0.5"/>
<path d="M88.5 58.0625V78.5625" stroke="white" stroke-width="0.5"/>
<path d="M96.5 55.0625V75.5625" stroke="white" stroke-width="0.5"/>
<path d="M48 96.0625C48 94.5625 45 94.5625 45 96.0625V99.5625C45 101.062 48 101.062 48 99.5625V96.0625Z" fill="#F73737"/>
<path d="M53 87.1875C53 85.6875 50 85.6875 50 87.1875V90.6875C50 92.1875 53 92.1875 53 90.6875V87.1875Z" fill="white"/>
<path d="M107 69.0625L115.5 67.0625M107 65.5625L115.5 63.5625M107 62.5625L115.5 60.5625M104.5 54.0631C104.5 52.5631 118.5 48.0625 118.5 51.0631V68.0625C118.5 71.0625 104.5 75.0625 104.5 71.5625V54.0631Z" stroke="white" stroke-width="0.5"/>
<path d="M107 59.0625V55.5625L115.5 53.0625V57.0625L107 59.0625Z" fill="white"/>
<path d="M124 65.5625L132 64.5625M123.5 62.5727L132 61.5625M121 50.0728C121 48.0716 135 45.562 135 48.5625V65.0727C135 68.0727 121 71.5625 121 68.0625V50.0728Z" stroke="white" stroke-width="0.5"/>
<path d="M132.5 57.5625L123.5 58.5625V52.0625L132.5 51.0625V57.5625Z" fill="white"/>
<path d="M104.5 19.0625V45.5625L134.5 40.0625V38.5625M104.5 19.0625L134.5 13.5625V38.5625M104.5 19.0625C108.713 21.8102 110.501 24.2196 112 31.0625C112.767 34.5625 116 34.0625 117 31.0625L119 21.5625C119.5 17.0625 122 19.0625 122 22.0625L123 31.0625C123 33.5625 125 35.0625 126.5 33.0625C128.984 28.4168 130.116 27.3305 131 32.0625C131.377 35.8079 133.792 40.2259 134.5 38.5625M125.5 18.0625L131 17.5625M107.5 42.0625L112.5 40.5625" stroke="white" stroke-width="0.5"/>
<path d="M82.5011 55.5661V53.0661C71.0677 53.2958 70.1678 41.5627 79.5 31.0627C85.8018 23.9723 96.5 25.0627 95.5 35.0661H98.5C98.5 17.5629 80.0911 21.0629 72.0011 36.5661C66.0001 48.0661 73.5 57.0661 82.5011 55.5661Z" fill="white"/>
<path d="M48.5 75.0625C40.054 74.2458 43.4999 61.0625 49.5 51.0625L45.9999 49.0625C37.5001 61.5625 36 81.5625 49.5 77.5625L48.5 75.0625Z" fill="white"/>
<path d="M47.5 50.0628C57.5 37.0629 67.5 48.062 53 71.5628" stroke="white" stroke-width="0.5"/>
<path d="M97 35.0625C95.61 42.3048 94.8134 46.3593 87 52.0625" stroke="white" stroke-width="0.5"/>
<path d="M60 85.5625C60 84.0625 57 84.0625 57 85.5625V89.0625C57 90.5625 60 90.5625 60 89.0625V85.5625Z" fill="#F73737"/>
<path d="M67 73.1875C67 71.6875 64 71.6875 64 73.1875V76.6875C64 78.1875 67 78.1875 67 76.6875V73.1875Z" fill="white"/>
<path d="M74 76.5625C74 75.0625 71 75.0625 71 76.5625V80.0625C71 81.5625 74 81.5625 74 80.0625V76.5625Z" fill="#F73737"/>
<path d="M82 63.1875C82 61.6875 79 61.6875 79 63.1875V66.6875C79 68.1875 82 68.1875 82 66.6875V63.1875Z" fill="white"/>
<path d="M90 66.1875C90 64.6875 87 64.6875 87 66.1875V69.6875C87 71.1875 90 71.1875 90 69.6875V66.1875Z" fill="#F73737"/>
<path d="M98 59.1875C98 57.6875 95 57.6875 95 59.1875V62.6875C95 64.1875 98 64.1875 98 62.6875V59.1875Z" fill="white"/>
<circle cx="151.5" cy="173.562" r="1.5" fill="white"/>
<circle cx="151.5" cy="186.562" r="1.5" fill="white"/>
<circle cx="151.5" cy="200.562" r="1.5" fill="white"/>
<circle cx="151.5" cy="214.562" r="1.5" fill="white"/>
<circle cx="189.5" cy="210.562" r="1.5" fill="white"/>
<circle cx="189.5" cy="196.562" r="1.5" fill="white"/>
<circle cx="189.5" cy="183.562" r="1.5" fill="white"/>
<circle cx="189.5" cy="170.562" r="1.5" fill="white"/>
<circle cx="189.5" cy="156.562" r="1.5" fill="white"/>
<circle cx="170.5" cy="159.562" r="1.5" fill="white"/>
<circle cx="170.5" cy="172.562" r="1.5" fill="white"/>
<circle cx="170.5" cy="185.562" r="1.5" fill="white"/>
<circle cx="170.5" cy="199.562" r="1.5" fill="white"/>
<circle cx="170.5" cy="213.562" r="1.5" fill="white"/>
<circle cx="207.5" cy="206.562" r="1.5" fill="white"/>
<circle cx="207.5" cy="192.562" r="1.5" fill="white"/>
<circle cx="207.5" cy="179.562" r="1.5" fill="white"/>
<circle cx="207.5" cy="166.562" r="1.5" fill="white"/>
<circle cx="207.5" cy="152.562" r="1.5" fill="white"/>
<circle cx="224.5" cy="200.562" r="1.5" fill="white"/>
<circle cx="224.5" cy="186.562" r="1.5" fill="white"/>
<circle cx="224.5" cy="173.562" r="1.5" fill="white"/>
<circle cx="224.5" cy="160.562" r="1.5" fill="white"/>
<circle cx="224.5" cy="146.562" r="1.5" fill="white"/>
<path d="M241.5 138.562C241.5 139.391 240.828 140.062 240 140.062C239.172 140.062 238.5 139.391 238.5 138.562C238.5 137.734 239.172 137.062 240 137.062C240.828 137.062 241.5 137.734 241.5 138.562Z" fill="white"/>
<path d="M241.5 152.062C241.5 152.891 240.828 153.562 240 153.562C239.172 153.562 238.5 152.891 238.5 152.062C238.5 151.234 239.172 150.562 240 150.562C240.828 150.562 241.5 151.234 241.5 152.062Z" fill="white"/>
<path d="M241.5 165.062C241.5 165.891 240.828 166.562 240 166.562C239.172 166.562 238.5 165.891 238.5 165.062C238.5 164.234 239.172 163.562 240 163.562C240.828 163.562 241.5 164.234 241.5 165.062Z" fill="white"/>
<path d="M241.5 178.562C241.5 179.391 240.828 180.062 240 180.062C239.172 180.062 238.5 179.391 238.5 178.562C238.5 177.734 239.172 177.062 240 177.062C240.828 177.062 241.5 177.734 241.5 178.562Z" fill="white"/>
<path d="M241.5 192.062C241.5 192.891 240.828 193.562 240 193.562C239.172 193.562 238.5 192.891 238.5 192.062C238.5 191.234 239.172 190.562 240 190.562C240.828 190.562 241.5 191.234 241.5 192.062Z" fill="white"/>
<path d="M257 126.562C257 127.391 256.328 128.062 255.5 128.062C254.672 128.062 254 127.391 254 126.562C254 125.734 254.672 125.062 255.5 125.062C256.328 125.062 257 125.734 257 126.562Z" fill="white"/>
<path d="M257 140.562C257 141.391 256.328 142.062 255.5 142.062C254.672 142.062 254 141.391 254 140.562C254 139.734 254.672 139.062 255.5 139.062C256.328 139.062 257 139.734 257 140.562Z" fill="white"/>
<path d="M257 153.562C257 154.391 256.328 155.062 255.5 155.062C254.672 155.062 254 154.391 254 153.562C254 152.734 254.672 152.062 255.5 152.062C256.328 152.062 257 152.734 257 153.562Z" fill="white"/>
<path d="M257 167.562C257 168.391 256.328 169.062 255.5 169.062C254.672 169.062 254 168.391 254 167.562C254 166.734 254.672 166.062 255.5 166.062C256.328 166.062 257 166.734 257 167.562Z" fill="white"/>
<path d="M155.5 42.0625C130 42.0625 127 84.0625 155.5 84.0625C184 84.0625 185 42.0625 155.5 42.0625Z" fill="#161616" stroke="white" stroke-width="0.5"/>
<g filter="url(#filter6_f_342_1632)">
<path d="M152.999 42.0625C131.5 56.5625 143.5 82.5625 168.999 80.0625C135 99.0625 121.5 48.5625 152.999 42.0625Z" fill="#222222"/>
</g>
<path d="M172.001 54.0625C163 54.0625 158.5 77.5625 168.501 80.0625C176.5 76.0625 181.5 56.5625 172.001 54.0625Z" stroke="white" stroke-width="0.5"/>
<g filter="url(#filter7_d_342_1632)">
<path d="M164.5 61.5631C173 59.0627 170.5 75.0625 163 70.0631C162.822 66.2409 163.328 64.4928 164.5 61.5631Z" fill="#F73737"/>
</g>
<path d="M257 180.562C257 181.391 256.328 182.062 255.5 182.062C254.672 182.062 254 181.391 254 180.562C254 179.734 254.672 179.062 255.5 179.062C256.328 179.062 257 179.734 257 180.562Z" fill="white"/>
<path d="M270 112.562C270 113.391 269.328 114.062 268.5 114.062C267.672 114.062 267 113.391 267 112.562C267 111.734 267.672 111.062 268.5 111.062C269.328 111.062 270 111.734 270 112.562Z" fill="white"/>
<path d="M270 126.562C270 127.391 269.328 128.062 268.5 128.062C267.672 128.062 267 127.391 267 126.562C267 125.734 267.672 125.062 268.5 125.062C269.328 125.062 270 125.734 270 126.562Z" fill="white"/>
<path d="M270 139.562C270 140.391 269.328 141.062 268.5 141.062C267.672 141.062 267 140.391 267 139.562C267 138.734 267.672 138.062 268.5 138.062C269.328 138.062 270 138.734 270 139.562Z" fill="white"/>
<path d="M270 153.562C270 154.391 269.328 155.062 268.5 155.062C267.672 155.062 267 154.391 267 153.562C267 152.734 267.672 152.062 268.5 152.062C269.328 152.062 270 152.734 270 153.562Z" fill="white"/>
<path d="M270 166.562C270 167.391 269.328 168.062 268.5 168.062C267.672 168.062 267 167.391 267 166.562C267 165.734 267.672 165.062 268.5 165.062C269.328 165.062 270 165.734 270 166.562Z" fill="white"/>
<defs>
<filter id="filter0_d_342_1632" x="254.637" y="161.894" width="51.3636" height="75.1406" filterUnits="userSpaceOnUse" color-interpolation-filters="sRGB">
<feFlood flood-opacity="0" result="BackgroundImageFix"/>
<feColorMatrix in="SourceAlpha" type="matrix" values="0 0 0 0 0 0 0 0 0 0 0 0 0 0 0 0 0 0 127 0" result="hardAlpha"/>
<feOffset/>
<feGaussianBlur stdDeviation="10"/>
<feComposite in2="hardAlpha" operator="out"/>
<feColorMatrix type="matrix" values="0 0 0 0 0.966667 0 0 0 0 0.2175 0 0 0 0 0.2175 0 0 0 1 0"/>
<feBlend mode="normal" in2="BackgroundImageFix" result="effect1_dropShadow_342_1632"/>
<feBlend mode="normal" in="SourceGraphic" in2="effect1_dropShadow_342_1632" result="shape"/>
</filter>
<filter id="filter1_d_342_1632" x="0" y="170.543" width="71.8971" height="78.9248" filterUnits="userSpaceOnUse" color-interpolation-filters="sRGB">
<feFlood flood-opacity="0" result="BackgroundImageFix"/>
<feColorMatrix in="SourceAlpha" type="matrix" values="0 0 0 0 0 0 0 0 0 0 0 0 0 0 0 0 0 0 127 0" result="hardAlpha"/>
<feOffset/>
<feGaussianBlur stdDeviation="10"/>
<feComposite in2="hardAlpha" operator="out"/>
<feColorMatrix type="matrix" values="0 0 0 0 0.966667 0 0 0 0 0.2175 0 0 0 0 0.2175 0 0 0 1 0"/>
<feBlend mode="normal" in2="BackgroundImageFix" result="effect1_dropShadow_342_1632"/>
<feBlend mode="normal" in="SourceGraphic" in2="effect1_dropShadow_342_1632" result="shape"/>
</filter>
<filter id="filter2_d_342_1632" x="45.4127" y="202.44" width="48.65" height="60.5439" filterUnits="userSpaceOnUse" color-interpolation-filters="sRGB">
<feFlood flood-opacity="0" result="BackgroundImageFix"/>
<feColorMatrix in="SourceAlpha" type="matrix" values="0 0 0 0 0 0 0 0 0 0 0 0 0 0 0 0 0 0 127 0" result="hardAlpha"/>
<feOffset/>
<feGaussianBlur stdDeviation="10"/>
<feComposite in2="hardAlpha" operator="out"/>
<feColorMatrix type="matrix" values="0 0 0 0 0.966667 0 0 0 0 0.2175 0 0 0 0 0.2175 0 0 0 1 0"/>
<feBlend mode="normal" in2="BackgroundImageFix" result="effect1_dropShadow_342_1632"/>
<feBlend mode="normal" in="SourceGraphic" in2="effect1_dropShadow_342_1632" result="shape"/>
</filter>
<filter id="filter3_d_342_1632" x="225" y="22.5625" width="53.5" height="66.5" filterUnits="userSpaceOnUse" color-interpolation-filters="sRGB">
<feFlood flood-opacity="0" result="BackgroundImageFix"/>
<feColorMatrix in="SourceAlpha" type="matrix" values="0 0 0 0 0 0 0 0 0 0 0 0 0 0 0 0 0 0 127 0" result="hardAlpha"/>
<feOffset/>
<feGaussianBlur stdDeviation="5"/>
<feComposite in2="hardAlpha" operator="out"/>
<feColorMatrix type="matrix" values="0 0 0 0 0.966667 0 0 0 0 0.2175 0 0 0 0 0.2175 0 0 0 1 0"/>
<feBlend mode="normal" in2="BackgroundImageFix" result="effect1_dropShadow_342_1632"/>
<feBlend mode="normal" in="SourceGraphic" in2="effect1_dropShadow_342_1632" result="shape"/>
</filter>
<filter id="filter4_f_342_1632" x="100.214" y="67.1592" width="62.7861" height="47.4033" filterUnits="userSpaceOnUse" color-interpolation-filters="sRGB">
<feFlood flood-opacity="0" result="BackgroundImageFix"/>
<feBlend mode="normal" in="SourceGraphic" in2="BackgroundImageFix" result="shape"/>
<feGaussianBlur stdDeviation="5" result="effect1_foregroundBlur_342_1632"/>
</filter>
<filter id="filter5_f_342_1632" x="44" y="125.062" width="142.795" height="97.5625" filterUnits="userSpaceOnUse" color-interpolation-filters="sRGB">
<feFlood flood-opacity="0" result="BackgroundImageFix"/>
<feBlend mode="normal" in="SourceGraphic" in2="BackgroundImageFix" result="shape"/>
<feGaussianBlur stdDeviation="5" result="effect1_foregroundBlur_342_1632"/>
</filter>
<filter id="filter6_f_342_1632" x="131.225" y="38.0625" width="41.7747" height="50.249" filterUnits="userSpaceOnUse" color-interpolation-filters="sRGB">
<feFlood flood-opacity="0" result="BackgroundImageFix"/>
<feBlend mode="normal" in="SourceGraphic" in2="BackgroundImageFix" result="shape"/>
<feGaussianBlur stdDeviation="2" result="effect1_foregroundBlur_342_1632"/>
</filter>
<filter id="filter7_d_342_1632" x="152.965" y="51.2959" width="26.877" height="29.7412" filterUnits="userSpaceOnUse" color-interpolation-filters="sRGB">
<feFlood flood-opacity="0" result="BackgroundImageFix"/>
<feColorMatrix in="SourceAlpha" type="matrix" values="0 0 0 0 0 0 0 0 0 0 0 0 0 0 0 0 0 0 127 0" result="hardAlpha"/>
<feOffset/>
<feGaussianBlur stdDeviation="5"/>
<feComposite in2="hardAlpha" operator="out"/>
<feColorMatrix type="matrix" values="0 0 0 0 0.966667 0 0 0 0 0.2175 0 0 0 0 0.2175 0 0 0 1 0"/>
<feBlend mode="normal" in2="BackgroundImageFix" result="effect1_dropShadow_342_1632"/>
<feBlend mode="normal" in="SourceGraphic" in2="effect1_dropShadow_342_1632" result="shape"/>
</filter>
</defs>
</svg>
