<svg width="490" height="148" viewBox="0 0 490 148" fill="none" xmlns="http://www.w3.org/2000/svg">
<path d="M323.79 160.88C340.426 157.028 358.999 153.498 379.238 150.307C411.873 145.161 448.84 140.897 489 137.59M304.259 178.011C343.047 166.436 393.189 157.123 450.933 150.29C462.794 148.887 474.976 147.588 487.446 146.395M1 8.67958C158.194 -3.5365 349.343 -4.65428 489 31.5504M1 10.6007C159.008 -1.70405 350.541 -3.2015 489 32.6312M1 12.8724C159.89 0.446511 351.842 -1.50885 489 33.8525M1 15.5619C160.841 2.97509 353.249 0.468433 489 35.2358M1 18.7405C161.865 5.94436 354.766 2.77477 489 36.7965M1 22.4777C162.961 9.41376 356.393 5.44777 489 38.5365M1 31.8685C165.372 18.0429 359.966 11.9726 489 42.4429M1 37.6218C165.786 23.3484 359.791 15.903 486.94 44.0213C487.625 44.2005 488.312 44.3791 489 44.5573M1 44.1288C161.19 29.7461 347.872 20.7843 473.257 43.357C478.41 44.5121 483.659 45.6428 489 46.7496M1 53.4265C156.337 38.8639 335.511 28.2993 458.989 45.2409C468.639 47.0216 478.652 48.7317 489 50.3751M1 73.3742C151.223 58.5524 322.722 46.2991 444.137 57.5519C458.284 59.5671 473.27 61.4663 489 63.2615M1 94.15C145.843 78.9804 309.519 64.9544 428.699 70.4921C447.316 72.3132 467.494 74.0003 489 75.5804M1 115.713C140.195 100.098 295.921 84.2188 412.676 84.0511C435.707 85.2147 461.308 86.284 489 87.3097M1 138.018C134.278 121.85 281.945 104.043 396.069 98.2213C423.433 98.2327 454.699 98.2801 489 98.4482M81 150.296C184.534 136.353 290.601 122.023 378.876 112.995C410.469 111.332 447.66 109.96 489 109.011M222.5 150.322C270.961 142.59 317.881 135.074 361.099 128.367C396.783 124.482 440.153 121.308 488.944 119.029M314 150.311C323.715 148.305 333.3 146.309 342.737 144.33C382.395 137.65 432.277 132.303 489 128.536" stroke="#505050" stroke-width="0.5"/>
</svg>
