<svg width="305" height="319" viewBox="0 0 305 319" fill="none" xmlns="http://www.w3.org/2000/svg">
<path d="M115.17 271.788C109.191 268.3 110.686 264.314 115.17 261.574L141.825 245.133C147.536 241.86 152.288 241.147 158.267 245.133L187.912 262.82C190.652 265.56 190.403 268.799 187.912 270.542L158.267 288.23C152.786 291.219 147.555 291.219 142.074 288.23L115.17 271.788Z" fill="#CECECE" stroke="white" stroke-width="0.5"/>
<g filter="url(#filter0_f_877_86)">
<path d="M127.875 264.565C123.141 267.524 118.246 265.742 114.422 262.074L127.376 254.103C131.362 257.839 131.86 262.074 127.875 264.565Z" fill="#7A7A7A"/>
</g>
<g filter="url(#filter1_f_877_86)">
<path d="M152.039 254.599C145.811 255.347 142.26 251.951 138.338 247.375C142.672 244.32 146.309 242.393 150.544 242.393C152.901 242.578 154.117 242.873 156.025 243.887C158.765 248.371 157.769 253.354 152.039 254.599Z" fill="#7A7A7A"/>
</g>
<g filter="url(#filter2_f_877_86)">
<path d="M141.825 279.014C135.348 275.277 136.345 267.056 144.565 266.06C146.099 268.582 147.903 269.073 151.79 269.298C158.018 271.54 157.769 276.024 155.776 280.259C154.032 283.249 150.793 284.245 147.804 282.75L141.825 279.014Z" fill="#7A7A7A"/>
</g>
<g filter="url(#filter3_f_877_86)">
<path d="M167.983 262.324C163.747 259.334 163.498 253.605 167.733 250.864L183.677 260.331C184.673 264.317 181.933 266.559 178.694 266.559C174.937 266.041 172.678 265.34 167.983 262.324Z" fill="#7A7A7A"/>
</g>
<path d="M184 277L158.018 292.965C152.786 295.954 147.804 296.203 142.822 292.965L116.913 277.52" stroke="white" stroke-width="0.5"/>
<path d="M114.921 256.346C110.441 258.497 108.936 263.214 114.671 266.559L141.078 282.503C147.804 286.489 154.281 285.991 159.513 282.503L186.168 266.559C191.399 263.321 191.15 259.086 186.168 256.595L159.513 240.402C152.105 235.455 148.17 236.207 141.327 240.402L114.921 256.346Z" stroke="white" stroke-width="0.5"/>
<g filter="url(#filter4_d_877_86)">
<path d="M110.935 272.038V261.326C111.073 264.095 112.679 265.561 116.913 267.932V277.519L111.931 274.28C110.935 273.533 110.935 272.786 110.935 272.038Z" fill="white"/>
</g>
<g filter="url(#filter5_d_877_86)">
<path d="M119.654 279.261V269.546L122.394 271.29V281.005L119.654 279.261Z" fill="white"/>
</g>
<g filter="url(#filter6_d_877_86)">
<path d="M124.636 282.003V272.632L126.131 273.533V283L124.636 282.003Z" fill="white"/>
</g>
<path d="M140.58 289.974V284.493H141.327V289.974H140.58Z" fill="white"/>
<path d="M159.014 289.974V284.493H159.762V289.974H159.014Z" fill="white"/>
<g filter="url(#filter7_d_877_86)">
<path d="M183.677 277.519V268.052C188.441 265.288 189.595 263.894 190.154 261.575V270.792C190.154 273.533 188.659 274.529 183.677 277.519Z" fill="white"/>
</g>
<path d="M80.7919 101.642V99.1512L83.283 101.642H80.7919Z" fill="white"/>
<path d="M76.806 99.4003V96.9092L79.2972 99.4003H76.806Z" fill="white"/>
<path d="M80.7919 101.642V99.1512L83.283 101.642H80.7919Z" stroke="white" stroke-width="0.5"/>
<path d="M76.806 99.4003V96.9092L79.2972 99.4003H76.806Z" stroke="white" stroke-width="0.5"/>
<path d="M280.085 128.797L262.397 138.762L244.71 128.548L262.397 117.587L280.085 128.797Z" fill="#969696" stroke="white" stroke-width="0.5"/>
<path d="M244.71 128.547L262.398 138.761V160.683L244.71 150.22V128.547Z" fill="#CECECE" stroke="white" stroke-width="0.5"/>
<path d="M280.085 149.971V128.796L262.398 138.761V160.683L280.085 149.971Z" fill="#969696" stroke="white" stroke-width="0.5"/>
<path d="M271.366 139.51L266.882 142.001V147.232L271.366 144.492V139.51Z" fill="#505050" stroke="white" stroke-width="0.5"/>
<path d="M275.601 136.77L271.366 139.51V144.492L266.882 147.232V152.464L275.601 146.983V136.77Z" fill="#CECECE" stroke="white" stroke-width="0.5"/>
<path d="M304 74.4885L286.312 84.4532L268.625 74.2394L286.312 63.2783L304 74.4885Z" fill="#969696" stroke="white" stroke-width="0.5"/>
<path d="M268.626 74.2402L286.313 84.454V106.376L268.626 95.9133V74.2402Z" fill="#CECECE" stroke="white" stroke-width="0.5"/>
<path d="M304 95.6622V74.4873L286.313 84.4519V106.374L304 95.6622Z" fill="#969696" stroke="white" stroke-width="0.5"/>
<path d="M295.281 85.2012L290.797 87.6923V92.9238L295.281 90.1835V85.2012Z" fill="#505050" stroke="white" stroke-width="0.5"/>
<path d="M299.516 82.4609L295.281 85.2012V90.1835L290.797 92.9238V98.1552L299.516 92.6747V82.4609Z" fill="#CECECE" stroke="white" stroke-width="0.5"/>
<path d="M199.371 31.1409L181.684 41.1055L163.997 30.8918L181.684 19.9307L199.371 31.1409Z" fill="#969696" stroke="white" stroke-width="0.5"/>
<path d="M163.997 30.8906L181.684 41.1044V63.0266L163.997 52.5637V30.8906Z" fill="#CECECE" stroke="white" stroke-width="0.5"/>
<path d="M199.371 52.3145V31.1396L181.684 41.1043V63.0265L199.371 52.3145Z" fill="#969696" stroke="white" stroke-width="0.5"/>
<path d="M190.652 41.8535L186.168 44.3447V49.5761L190.652 46.8358V41.8535Z" fill="#505050" stroke="white" stroke-width="0.5"/>
<path d="M194.887 39.1133L190.652 41.8536V46.8359L186.168 49.5761V54.8076L194.887 49.327V39.1133Z" fill="#CECECE" stroke="white" stroke-width="0.5"/>
<path d="M131.113 63.5296L113.426 73.4942L95.7386 63.2804L113.426 52.3193L131.113 63.5296Z" fill="#969696" stroke="white" stroke-width="0.5"/>
<path d="M95.7385 63.2793L113.426 73.493V95.4152L95.7385 84.9524V63.2793Z" fill="#CECECE" stroke="white" stroke-width="0.5"/>
<path d="M131.113 84.7032V63.5283L113.426 73.493V95.4152L131.113 84.7032Z" fill="#969696" stroke="white" stroke-width="0.5"/>
<path d="M122.394 74.2422L117.91 76.7333V81.9648L122.394 79.2245V74.2422Z" fill="#505050" stroke="white" stroke-width="0.5"/>
<path d="M126.629 71.501L122.394 74.2413V79.2236L117.91 81.9638V87.1953L126.629 81.7147V71.501Z" fill="#CECECE" stroke="white" stroke-width="0.5"/>
<path d="M67.8377 124.812L50.1505 134.776L32.4633 124.563L50.1505 113.602L67.8377 124.812Z" fill="#969696" stroke="white" stroke-width="0.5"/>
<path d="M32.4633 124.562L50.1505 134.776V156.698L32.4633 146.236V124.562Z" fill="#CECECE" stroke="white" stroke-width="0.5"/>
<path d="M67.6872 146.175V125L50 134.965V156.887L67.6872 146.175Z" fill="#969696" stroke="white" stroke-width="0.5"/>
<path d="M59.1187 135.524L54.6346 138.016V143.247L59.1187 140.507V135.524Z" fill="#505050" stroke="white" stroke-width="0.5"/>
<path d="M63.3537 132.784L59.1187 135.524V140.507L54.6346 143.247V148.478L63.3537 142.998V132.784Z" fill="#CECECE" stroke="white" stroke-width="0.5"/>
<path d="M228.769 102.889L211.082 112.854L193.394 102.64L211.082 91.6787L228.769 102.889Z" fill="#969696" stroke="white" stroke-width="0.5"/>
<path d="M193.394 102.639L211.082 112.852V134.775L193.394 124.312V102.639Z" fill="#CECECE" stroke="white" stroke-width="0.5"/>
<path d="M228.769 124.063V102.888L211.082 112.852V134.775L228.769 124.063Z" fill="#969696" stroke="white" stroke-width="0.5"/>
<path d="M206.242 121.451L206.304 116.321L201.762 113.726L201.916 118.978L206.242 121.451Z" fill="#505050" stroke="white" stroke-width="0.5"/>
<path d="M206.52 126.487L206.242 121.45L201.917 118.978L201.763 113.725L197.221 111.129L197.652 121.419L206.52 126.487Z" fill="#CECECE" stroke="white" stroke-width="0.5"/>
<path d="M253.681 15.1995L235.993 25.1641L218.306 14.9504L235.993 3.98926L253.681 15.1995Z" fill="#969696" stroke="white" stroke-width="0.5"/>
<path d="M218.306 14.9492L235.993 25.163V47.0852L218.306 36.6223V14.9492Z" fill="#CECECE" stroke="white" stroke-width="0.5"/>
<path d="M253.681 36.3731V15.1982L235.993 25.1629V47.0851L253.681 36.3731Z" fill="#969696" stroke="white" stroke-width="0.5"/>
<path d="M231.154 33.7613L231.216 28.632L226.674 26.0362L226.828 31.289L231.154 33.7613Z" fill="#505050" stroke="white" stroke-width="0.5"/>
<path d="M231.432 38.7975L231.154 33.7609L226.828 31.2887L226.674 26.0358L222.132 23.44L222.564 33.7294L231.432 38.7975Z" fill="#CECECE" stroke="white" stroke-width="0.5"/>
<path d="M95.7407 12.2102L78.0534 22.1749L60.3662 11.9611L78.0534 1L95.7407 12.2102Z" fill="#969696" stroke="white" stroke-width="0.5"/>
<path d="M60.3662 11.96L78.0534 22.1737V44.0959L60.3662 33.633V11.96Z" fill="#CECECE" stroke="white" stroke-width="0.5"/>
<path d="M95.7407 33.3838V12.209L78.0535 22.1736V44.0958L95.7407 33.3838Z" fill="#969696" stroke="white" stroke-width="0.5"/>
<path d="M73.2137 30.772L73.2759 25.6428L68.7339 23.0469L68.888 28.2998L73.2137 30.772Z" fill="#505050" stroke="white" stroke-width="0.5"/>
<path d="M73.4918 35.8082L73.2141 30.7717L68.8884 28.2994L68.7343 23.0466L64.1924 20.4507L64.6242 30.7401L73.4918 35.8082Z" fill="#CECECE" stroke="white" stroke-width="0.5"/>
<path d="M52.8933 52.0667L35.206 62.0313L17.5188 51.8175L35.206 40.8564L52.8933 52.0667Z" fill="#969696" stroke="white" stroke-width="0.5"/>
<path d="M17.5188 51.8164L35.206 62.0302V83.9524L17.5188 73.4895V51.8164Z" fill="#CECECE" stroke="white" stroke-width="0.5"/>
<path d="M52.8934 73.2403V52.0654L35.2062 62.0301V83.9523L52.8934 73.2403Z" fill="#969696" stroke="white" stroke-width="0.5"/>
<path d="M30.3663 70.6285L30.4285 65.4992L25.8865 62.9034L26.0406 68.1562L30.3663 70.6285Z" fill="#505050" stroke="white" stroke-width="0.5"/>
<path d="M30.6443 75.6647L30.3666 70.6281L26.0409 68.1558L25.8868 62.903L21.3448 60.3071L21.7766 70.5966L30.6443 75.6647Z" fill="#CECECE" stroke="white" stroke-width="0.5"/>
<path d="M67.5886 71.998L78.0515 78.2259V76.4821L67.5886 70.0051V68.2612L78.0515 74.4891V64.2754" stroke="white" stroke-width="0.5"/>
<path d="M68.3359 67.2654V65.2725L69.8306 66.2689V68.2619L68.3359 67.2654Z" fill="white"/>
<path d="M71.5744 69.0092V67.0163L73.0691 68.0127V70.0057L71.5744 69.0092Z" fill="white"/>
<path d="M74.5638 70.753V68.7601L76.0585 69.7565V71.7495L74.5638 70.753Z" fill="white"/>
<path d="M68.3359 67.2654V65.2725L69.8306 66.2689V68.2619L68.3359 67.2654Z" stroke="white" stroke-width="0.5"/>
<path d="M71.5744 69.0092V67.0163L73.0691 68.0127V70.0057L71.5744 69.0092Z" stroke="white" stroke-width="0.5"/>
<path d="M74.5638 70.753V68.7601L76.0585 69.7565V71.7495L74.5638 70.753Z" stroke="white" stroke-width="0.5"/>
<path d="M98.7282 46.09C96.7351 46.09 96.2369 50.0758 98.23 49.3285C99.9737 48.5811 100.472 46.0901 98.7282 46.09Z" stroke="white" stroke-width="0.5"/>
<path d="M103.461 43.1006C101.468 43.1006 100.97 47.0864 102.963 46.3391C104.707 45.5917 105.205 43.1007 103.461 43.1006Z" stroke="white" stroke-width="0.5"/>
<path d="M219.573 156.946C217.579 156.946 217.081 160.932 219.074 160.185C220.818 159.438 221.316 156.947 219.573 156.946Z" fill="white"/>
<path d="M224.306 153.957C222.313 153.957 221.814 157.943 223.807 157.196C225.551 156.448 226.049 153.957 224.306 153.957Z" fill="white"/>
<path d="M219.573 156.946C217.579 156.946 217.081 160.932 219.074 160.185C220.818 159.438 221.316 156.947 219.573 156.946Z" stroke="white" stroke-width="0.5"/>
<path d="M224.306 153.957C222.313 153.957 221.814 157.943 223.807 157.196C225.551 156.448 226.049 153.957 224.306 153.957Z" stroke="white" stroke-width="0.5"/>
<path d="M238.482 142.498L236.738 143.744V145.737L238.482 144.491V142.498Z" fill="white"/>
<path d="M238.482 145.737L236.738 146.982V148.975L238.482 147.729V145.737Z" fill="white"/>
<path d="M238.482 148.726L236.738 149.972V151.964L238.482 150.719V148.726Z" fill="white"/>
<path d="M238.482 142.498L236.738 143.744V145.737L238.482 144.491V142.498Z" stroke="white" stroke-width="0.5"/>
<path d="M238.482 145.737L236.738 146.982V148.975L238.482 147.729V145.737Z" stroke="white" stroke-width="0.5"/>
<path d="M238.482 148.726L236.738 149.972V151.964L238.482 150.719V148.726Z" stroke="white" stroke-width="0.5"/>
<path d="M118.159 38.1191L115.668 39.863V43.5997L118.159 41.8559V38.1191Z" fill="white"/>
<path d="M115.419 46.0909L124.387 40.6103M115.419 48.0838L124.387 42.6032M115.419 50.0767L124.387 44.8453M115.668 39.863L118.159 38.1191V41.8559L115.668 43.5997V39.863Z" stroke="white" stroke-width="0.5"/>
<path d="M251.436 102.64L248.945 104.383V108.12L251.436 106.376V102.64Z" fill="white"/>
<path d="M248.696 110.611L257.664 105.131M248.696 112.604L257.664 107.124M248.696 114.597L257.664 109.366M248.945 104.383L251.436 102.64V106.376L248.945 108.12V104.383Z" stroke="white" stroke-width="0.5"/>
<path opacity="0.3" d="M3.81496 230.686C0.57645 228.693 -0.420156 226.451 3.81496 224.209L146.309 138.015C149.548 135.772 151.622 136.281 154.53 138.015L297.523 224.458C300.014 225.953 300.263 228.444 297.523 230.188L155.028 316.382C151.541 318.624 149.548 318.624 146.06 316.631L3.81496 230.686Z" stroke="white" stroke-width="0.5"/>
<path opacity="0.7" d="M35.6681 240.553C33.1274 238.994 32.3456 237.241 35.6681 235.488L147.458 168.083C149.999 166.329 151.626 166.727 153.908 168.083L266.089 235.682C268.043 236.851 268.239 238.799 266.089 240.163L154.299 307.568C151.562 309.321 149.999 309.321 147.263 307.763L35.6681 240.553Z" stroke="white" stroke-width="0.5"/>
<path d="M188.161 150.719L170.474 160.684L152.786 150.47L170.474 139.509L188.161 150.719Z" fill="#969696" stroke="white" stroke-width="0.5"/>
<path d="M152.786 150.469L170.473 160.683V182.605L152.786 172.142V150.469Z" fill="#CECECE" stroke="white" stroke-width="0.5"/>
<path d="M188.161 171.893V150.718L170.473 160.682V182.605L188.161 171.893Z" fill="#969696" stroke="white" stroke-width="0.5"/>
<path d="M179.441 161.431L174.957 163.922V169.153L179.441 166.413V161.431Z" fill="#505050" stroke="white" stroke-width="0.5"/>
<path d="M183.676 158.69L179.441 161.431V166.413L174.957 169.153V174.385L183.676 168.904V158.69Z" fill="#CECECE" stroke="white" stroke-width="0.5"/>
<path d="M133.606 137.763L115.919 147.728L98.2313 137.514L115.919 126.553L133.606 137.763Z" fill="#969696" stroke="white" stroke-width="0.5"/>
<path d="M98.2313 137.513L115.919 147.726V169.649L98.2313 159.186V137.513Z" fill="#CECECE" stroke="white" stroke-width="0.5"/>
<path d="M133.606 158.937V137.762L115.919 147.726V169.649L133.606 158.937Z" fill="#969696" stroke="white" stroke-width="0.5"/>
<path d="M111.079 156.325L111.141 151.196L106.599 148.6L106.753 153.853L111.079 156.325Z" fill="#505050" stroke="white" stroke-width="0.5"/>
<path d="M111.357 161.361L111.079 156.324L106.753 153.852L106.599 148.599L102.057 146.003L102.489 156.293L111.357 161.361Z" fill="#CECECE" stroke="white" stroke-width="0.5"/>
<path d="M92.7514 188.088L75.0642 198.053L57.377 187.839L75.0642 176.878L92.7514 188.088Z" fill="#969696" stroke="white" stroke-width="0.5"/>
<path d="M57.377 187.838L75.0642 198.052V219.974L57.377 209.511V187.838Z" fill="#CECECE" stroke="white" stroke-width="0.5"/>
<path d="M92.7516 209.262V188.087L75.0643 198.052V219.974L92.7516 209.262Z" fill="#969696" stroke="white" stroke-width="0.5"/>
<path d="M70.2244 206.65L70.2866 201.521L65.7447 198.925L65.8988 204.178L70.2244 206.65Z" fill="#505050" stroke="white" stroke-width="0.5"/>
<path d="M70.5024 211.686L70.2247 206.65L65.899 204.177L65.7449 198.924L61.203 196.329L61.6348 206.618L70.5024 211.686Z" fill="#CECECE" stroke="white" stroke-width="0.5"/>
<path d="M235.744 194.066L218.057 204.03L200.37 193.817L218.057 182.855L235.744 194.066Z" fill="#969696" stroke="white" stroke-width="0.5"/>
<path d="M200.37 193.815L218.057 204.029V225.951L200.37 215.489V193.815Z" fill="#CECECE" stroke="white" stroke-width="0.5"/>
<path d="M235.744 215.239V194.064L218.057 204.029V225.951L235.744 215.239Z" fill="#969696" stroke="white" stroke-width="0.5"/>
<path d="M213.217 212.627L213.279 207.498L208.737 204.902L208.892 210.155L213.217 212.627Z" fill="#505050" stroke="white" stroke-width="0.5"/>
<path d="M213.495 217.664L213.218 212.627L208.892 210.155L208.738 204.902L204.196 202.306L204.628 212.596L213.495 217.664Z" fill="#CECECE" stroke="white" stroke-width="0.5"/>
<path opacity="0.2" d="M66.9535 244.572C65.1048 243.434 64.5358 242.155 66.9535 240.875L148.299 191.682C150.147 190.402 151.332 190.692 152.992 191.682L234.621 241.017C236.043 241.871 236.186 243.292 234.621 244.288L153.276 293.481C151.285 294.761 150.147 294.761 148.156 293.623L66.9535 244.572Z" stroke="white" stroke-width="0.5"/>
<path opacity="0.7" d="M96.2836 249.126C95.0835 248.387 94.7142 247.557 96.2836 246.726L149.087 214.798C150.287 213.967 151.055 214.155 152.133 214.798L205.121 246.819C206.044 247.372 206.136 248.295 205.121 248.941L152.318 280.87C151.025 281.7 150.287 281.7 148.994 280.962L96.2836 249.126Z" stroke="white" stroke-width="0.5"/>
<path d="M149.548 66.7666V64.0264L151.541 65.2719V68.0122L149.548 66.7666Z" fill="white"/>
<path d="M153.285 69.0087V66.2684L155.278 67.514V70.2543L153.285 69.0087Z" fill="white"/>
<path d="M149.548 71.2507V68.5105L151.541 69.756V72.4963L149.548 71.2507Z" fill="white"/>
<path d="M149.548 66.7666V64.0264L151.541 65.2719V68.0122L149.548 66.7666Z" stroke="white" stroke-width="0.5"/>
<path d="M153.285 69.0087V66.2684L155.278 67.514V70.2543L153.285 69.0087Z" stroke="white" stroke-width="0.5"/>
<path d="M149.548 71.2507V68.5105L151.541 69.756V72.4963L149.548 71.2507Z" stroke="white" stroke-width="0.5"/>
<path d="M30.3204 149.058L32.6315 147.586L32.6518 149.936L30.3407 151.408L30.3204 149.058Z" fill="white"/>
<path d="M30.4372 153.414L32.7483 151.942L32.7687 154.292L30.4576 155.765L30.4372 153.414Z" fill="white"/>
<path d="M26.5386 151.468L28.8497 149.995L28.87 152.345L26.5589 153.818L26.5386 151.468Z" fill="white"/>
<path d="M30.3204 149.058L32.6315 147.586L32.6518 149.936L30.3407 151.408L30.3204 149.058Z" stroke="white" stroke-width="0.5"/>
<path d="M30.4372 153.414L32.7483 151.942L32.7687 154.292L30.4576 155.765L30.4372 153.414Z" stroke="white" stroke-width="0.5"/>
<path d="M26.5386 151.468L28.8497 149.995L28.87 152.345L26.5589 153.818L26.5386 151.468Z" stroke="white" stroke-width="0.5"/>
<path d="M186.666 76.9814V87.1952L197.378 80.7182V82.7111L186.666 88.939V90.9319L197.378 84.704" stroke="white" stroke-width="0.5"/>
<path d="M188.41 84.2036V82.2106L190.154 81.2142V83.2071L188.41 84.2036Z" fill="white"/>
<path d="M191.399 82.4598V80.4668L193.143 79.4704V81.4633L191.399 82.4598Z" fill="white"/>
<path d="M194.389 80.716V78.723L196.133 77.7266V79.7195L194.389 80.716Z" fill="white"/>
<path d="M188.41 84.2036V82.2106L190.154 81.2142V83.2071L188.41 84.2036Z" stroke="white" stroke-width="0.5"/>
<path d="M191.399 82.4598V80.4668L193.143 79.4704V81.4633L191.399 82.4598Z" stroke="white" stroke-width="0.5"/>
<path d="M194.389 80.716V78.723L196.133 77.7266V79.7195L194.389 80.716Z" stroke="white" stroke-width="0.5"/>
<path d="M51.396 106.625V104.633L53.1398 103.636V105.629L51.396 106.625Z" fill="white"/>
<path d="M54.3854 104.882V102.889L56.1292 101.892V103.885L54.3854 104.882Z" fill="white"/>
<path d="M57.3748 103.138V101.145L59.1186 100.148V102.141L57.3748 103.138Z" fill="white"/>
<path d="M51.396 106.625V104.633L53.1398 103.636V105.629L51.396 106.625Z" stroke="white" stroke-width="0.5"/>
<path d="M54.3854 104.882V102.889L56.1292 101.892V103.885L54.3854 104.882Z" stroke="white" stroke-width="0.5"/>
<path d="M57.3748 103.138V101.145L59.1186 100.148V102.141L57.3748 103.138Z" stroke="white" stroke-width="0.5"/>
<path d="M239.479 52.8174L238.233 56.8032L241.222 55.0594L239.479 52.8174Z" fill="white"/>
<path d="M238.233 61.5364L239.479 57.5506L241.222 59.7926L238.233 61.5364Z" fill="white"/>
<path d="M239.479 52.8174L238.233 56.8032L241.222 55.0594L239.479 52.8174Z" stroke="white" stroke-width="0.5"/>
<path d="M238.233 61.5364L239.479 57.5506L241.222 59.7926L238.233 61.5364Z" stroke="white" stroke-width="0.5"/>
<path d="M142.074 108.618V106.127H144.316L142.074 108.618Z" fill="white"/>
<path d="M138.338 110.611V108.12H140.58L138.338 110.611Z" fill="white"/>
<path d="M142.074 108.618V106.127H144.316L142.074 108.618Z" stroke="white" stroke-width="0.5"/>
<path d="M138.338 110.611V108.12H140.58L138.338 110.611Z" stroke="white" stroke-width="0.5"/>
<path d="M115.17 116.839V114.597H116.166V116.091L115.17 116.839Z" fill="white"/>
<path d="M117.412 115.344V111.856H118.408V114.597L117.412 115.344Z" fill="white"/>
<path d="M119.654 114.098V109.365H120.65V113.351L119.654 114.098Z" fill="white"/>
<path d="M115.17 116.839V114.597H116.166V116.091L115.17 116.839Z" stroke="white" stroke-width="0.5"/>
<path d="M117.412 115.344V111.856H118.408V114.597L117.412 115.344Z" stroke="white" stroke-width="0.5"/>
<path d="M119.654 114.098V109.365H120.65V113.351L119.654 114.098Z" stroke="white" stroke-width="0.5"/>
<path d="M38.9404 176.876V174.634H39.9369V176.128L38.9404 176.876Z" fill="white"/>
<path d="M41.1825 175.381V171.894H42.1789V174.634L41.1825 175.381Z" fill="white"/>
<path d="M43.4245 174.136V169.402H44.421V173.388L43.4245 174.136Z" fill="white"/>
<path d="M38.9404 176.876V174.634H39.9369V176.128L38.9404 176.876Z" stroke="white" stroke-width="0.5"/>
<path d="M41.1825 175.381V171.894H42.1789V174.634L41.1825 175.381Z" stroke="white" stroke-width="0.5"/>
<path d="M43.4245 174.136V169.402H44.421V173.388L43.4245 174.136Z" stroke="white" stroke-width="0.5"/>
<path d="M79.7954 164.42V160.684L82.0375 162.178V165.915L79.7954 164.42Z" fill="white" stroke="white" stroke-width="0.5"/>
<path d="M171.968 117.336V113.6L174.21 115.094V118.831L171.968 117.336Z" fill="white" stroke="white" stroke-width="0.5"/>
<path d="M79.7954 166.663L88.2654 171.895M79.7954 168.905L88.2654 173.887M79.7954 171.147L88.2654 176.129" stroke="white" stroke-width="0.5"/>
<path d="M171.968 119.578L180.438 124.81M171.968 121.82L180.438 126.802M171.968 124.062L180.438 129.045" stroke="white" stroke-width="0.5"/>
<path d="M150.546 138.014C148.553 136.768 148.553 140.006 150.546 141.252C152.29 142.342 152.29 139.508 150.546 138.014Z" fill="white"/>
<path d="M150.544 142.747C148.551 141.501 148.551 144.74 150.544 145.985C152.288 147.075 152.288 144.242 150.544 142.747Z" fill="white"/>
<path d="M150.546 138.014C148.553 136.768 148.553 140.006 150.546 141.252C152.29 142.342 152.29 139.508 150.546 138.014Z" stroke="white" stroke-width="0.5"/>
<path d="M150.544 142.747C148.551 141.501 148.551 144.74 150.544 145.985C152.288 147.075 152.288 144.242 150.544 142.747Z" stroke="white" stroke-width="0.5"/>
<path d="M208.339 147.977V143.991L209.336 144.24V148.475L208.339 147.977Z" fill="white"/>
<path d="M210.581 148.974V146.731L211.329 146.981V149.223L210.581 148.974Z" fill="white"/>
<path d="M212.823 149.97V148.475L213.571 148.724V150.219L212.823 149.97Z" fill="white"/>
<path d="M208.339 147.977V143.991L209.336 144.24V148.475L208.339 147.977Z" stroke="white" stroke-width="0.5"/>
<path d="M210.581 148.974V146.731L211.329 146.981V149.223L210.581 148.974Z" stroke="white" stroke-width="0.5"/>
<path d="M212.823 149.97V148.475L213.571 148.724V150.219L212.823 149.97Z" stroke="white" stroke-width="0.5"/>
<path d="M74.813 187.337V165.415C74.813 160.931 74.813 158.689 68.5851 163.173L39.9368 180.612C36.2 183.103 34.7053 182.106 34.7053 178.37V146.732C34.7053 145.486 35.1006 144.639 36.6982 143.493L41.4315 140.504" stroke="white" stroke-width="0.5"/>
<path d="M76.0585 187.587C76.0585 188.275 75.5009 188.833 74.813 188.833C74.125 188.833 73.5674 188.275 73.5674 187.587C73.5674 186.899 74.125 186.342 74.813 186.342C75.5009 186.342 76.0585 186.899 76.0585 187.587Z" fill="white"/>
<path d="M50.3996 124.064V114.846C50.3996 112.106 50.6487 111.11 52.3925 109.864L72.0727 98.1555M72.0727 98.1555L104.707 78.4753M72.0727 98.1555L115.668 124.811M115.668 124.811V121.074C115.668 119.579 116.166 118.583 117.412 117.836L146.807 100.398M115.668 124.811V137.267M146.807 100.398V144.242C146.807 145.986 146.807 146.982 148.053 147.73L152.537 150.47M146.807 100.398V66.0195C146.807 63.5284 147.057 62.2828 149.049 61.0372L171.719 47.3359M170.473 149.722V130.541C170.473 128.548 170.972 127.8 172.965 129.295L211.578 152.712C214.567 154.456 216.311 154.456 218.802 152.712L234.247 143.245M234.247 143.245V129.544C234.247 127.8 233.998 126.804 232.254 125.807L221.293 118.832M234.247 143.245V155.95M234.247 155.95L252.682 144.989M234.247 155.95V168.904C234.247 171.645 233.998 172.89 232.005 174.136L221.044 180.862C218.802 182.357 218.055 183.104 218.055 184.848V193.816M262.148 127.551V103.138C262.148 100.398 262.646 99.4011 264.888 97.9064L276.099 90.9311M193.641 102.39L185.67 97.6573C183.677 96.4117 184.673 94.6679 187.164 93.4223L233.998 65.0231C235.244 64.2757 235.493 63.5284 235.493 61.5355V46.8376M113.426 63.0302V47.0867C113.426 46.1699 112.928 45.0938 111.931 44.3465L103.614 39.2215M87.2687 29.1504L103.614 39.2215M103.614 39.2215L67.5886 61.0372C64.8483 62.5319 64.101 63.7775 64.101 65.5213V76.7315C64.101 78.4753 62.3572 79.4718 60.6133 78.2262L44.6699 68.2616" stroke="white" stroke-width="0.5"/>
<circle cx="172.217" cy="47.0864" r="1.24558" fill="white"/>
<path d="M116.914 137.266C116.914 137.954 116.356 138.512 115.668 138.512C114.98 138.512 114.422 137.954 114.422 137.266C114.422 136.578 114.98 136.021 115.668 136.021C116.356 136.021 116.914 136.578 116.914 137.266Z" fill="white"/>
<path d="M51.6451 124.311C51.6451 124.999 51.0874 125.557 50.3995 125.557C49.7116 125.557 49.1539 124.999 49.1539 124.311C49.1539 123.623 49.7116 123.065 50.3995 123.065C51.0874 123.065 51.6451 123.623 51.6451 124.311Z" fill="white"/>
<path d="M45.1683 67.7632C45.1683 68.4511 44.6106 69.0087 43.9227 69.0087C43.2348 69.0087 42.6771 68.4511 42.6771 67.7632C42.6771 67.0752 43.2348 66.5176 43.9227 66.5176C44.6106 66.5176 45.1683 67.0752 45.1683 67.7632Z" fill="white"/>
<path d="M114.672 63.5288C114.672 64.2167 114.114 64.7744 113.426 64.7744C112.738 64.7744 112.18 64.2167 112.18 63.5288C112.18 62.8409 112.738 62.2832 113.426 62.2832C114.114 62.2832 114.672 62.8409 114.672 63.5288Z" fill="white"/>
<path d="M88.0162 28.6518C88.0162 29.3397 87.4585 29.8974 86.7706 29.8974C86.0827 29.8974 85.525 29.3397 85.525 28.6518C85.525 27.9639 86.0827 27.4062 86.7706 27.4062C87.4585 27.4062 88.0162 27.9639 88.0162 28.6518Z" fill="white"/>
<path d="M222.289 118.582C222.289 119.27 221.732 119.828 221.044 119.828C220.356 119.828 219.798 119.27 219.798 118.582C219.798 117.895 220.356 117.337 221.044 117.337C221.732 117.337 222.289 117.895 222.289 118.582Z" fill="white"/>
<path d="M171.719 150.221C171.719 150.909 171.161 151.467 170.473 151.467C169.786 151.467 169.228 150.909 169.228 150.221C169.228 149.533 169.786 148.976 170.473 148.976C171.161 148.976 171.719 149.533 171.719 150.221Z" fill="white"/>
<path d="M219.3 194.314C219.3 195.002 218.743 195.56 218.055 195.56C217.367 195.56 216.809 195.002 216.809 194.314C216.809 193.626 217.367 193.068 218.055 193.068C218.743 193.068 219.3 193.626 219.3 194.314Z" fill="white"/>
<path d="M254.675 144.492C254.675 145.18 254.117 145.737 253.429 145.737C252.741 145.737 252.184 145.18 252.184 144.492C252.184 143.804 252.741 143.246 253.429 143.246C254.117 143.246 254.675 143.804 254.675 144.492Z" fill="white"/>
<path d="M263.394 128.298C263.394 128.986 262.836 129.544 262.148 129.544C261.46 129.544 260.903 128.986 260.903 128.298C260.903 127.61 261.46 127.053 262.148 127.053C262.836 127.053 263.394 127.61 263.394 128.298Z" fill="white"/>
<path d="M278.092 90.4331C278.092 91.121 277.534 91.6787 276.846 91.6787C276.158 91.6787 275.6 91.121 275.6 90.4331C275.6 89.7452 276.158 89.1875 276.846 89.1875C277.534 89.1875 278.092 89.7452 278.092 90.4331Z" fill="white"/>
<path d="M150.546 255.844C141.827 255.844 141.079 269.296 150.546 269.296C159.015 269.296 158.765 255.844 150.546 255.844Z" fill="white"/>
<path d="M177.449 239.652C168.73 239.652 167.982 253.104 177.449 253.104C185.918 253.104 185.669 239.652 177.449 239.652Z" fill="white"/>
<path d="M150.546 227.445C141.827 227.445 141.079 240.898 150.546 240.898C159.015 240.898 158.765 227.445 150.546 227.445Z" fill="white"/>
<path d="M123.64 239.652C114.921 239.652 114.173 253.104 123.64 253.104C132.109 253.104 131.859 239.652 123.64 239.652Z" fill="white"/>
<defs>
<filter id="filter0_f_877_86" x="104.422" y="244.103" width="36.2042" height="31.9492" filterUnits="userSpaceOnUse" color-interpolation-filters="sRGB">
<feFlood flood-opacity="0" result="BackgroundImageFix"/>
<feBlend mode="normal" in="SourceGraphic" in2="BackgroundImageFix" result="shape"/>
<feGaussianBlur stdDeviation="5" result="effect1_foregroundBlur_877_86"/>
</filter>
<filter id="filter1_f_877_86" x="128.338" y="232.393" width="39.1486" height="32.3105" filterUnits="userSpaceOnUse" color-interpolation-filters="sRGB">
<feFlood flood-opacity="0" result="BackgroundImageFix"/>
<feBlend mode="normal" in="SourceGraphic" in2="BackgroundImageFix" result="shape"/>
<feGaussianBlur stdDeviation="5" result="effect1_foregroundBlur_877_86"/>
</filter>
<filter id="filter2_f_877_86" x="127.595" y="256.06" width="39.438" height="37.3779" filterUnits="userSpaceOnUse" color-interpolation-filters="sRGB">
<feFlood flood-opacity="0" result="BackgroundImageFix"/>
<feBlend mode="normal" in="SourceGraphic" in2="BackgroundImageFix" result="shape"/>
<feGaussianBlur stdDeviation="5" result="effect1_foregroundBlur_877_86"/>
</filter>
<filter id="filter3_f_877_86" x="154.679" y="240.864" width="39.2054" height="35.6943" filterUnits="userSpaceOnUse" color-interpolation-filters="sRGB">
<feFlood flood-opacity="0" result="BackgroundImageFix"/>
<feBlend mode="normal" in="SourceGraphic" in2="BackgroundImageFix" result="shape"/>
<feGaussianBlur stdDeviation="5" result="effect1_foregroundBlur_877_86"/>
</filter>
<filter id="filter4_d_877_86" x="90.9347" y="241.326" width="45.9788" height="56.1924" filterUnits="userSpaceOnUse" color-interpolation-filters="sRGB">
<feFlood flood-opacity="0" result="BackgroundImageFix"/>
<feColorMatrix in="SourceAlpha" type="matrix" values="0 0 0 0 0 0 0 0 0 0 0 0 0 0 0 0 0 0 127 0" result="hardAlpha"/>
<feOffset/>
<feGaussianBlur stdDeviation="10"/>
<feComposite in2="hardAlpha" operator="out"/>
<feColorMatrix type="matrix" values="0 0 0 0 1 0 0 0 0 1 0 0 0 0 1 0 0 0 1 0"/>
<feBlend mode="normal" in2="BackgroundImageFix" result="effect1_dropShadow_877_86"/>
<feBlend mode="normal" in="SourceGraphic" in2="effect1_dropShadow_877_86" result="shape"/>
</filter>
<filter id="filter5_d_877_86" x="99.6538" y="249.546" width="42.7402" height="51.459" filterUnits="userSpaceOnUse" color-interpolation-filters="sRGB">
<feFlood flood-opacity="0" result="BackgroundImageFix"/>
<feColorMatrix in="SourceAlpha" type="matrix" values="0 0 0 0 0 0 0 0 0 0 0 0 0 0 0 0 0 0 127 0" result="hardAlpha"/>
<feOffset/>
<feGaussianBlur stdDeviation="10"/>
<feComposite in2="hardAlpha" operator="out"/>
<feColorMatrix type="matrix" values="0 0 0 0 1 0 0 0 0 1 0 0 0 0 1 0 0 0 1 0"/>
<feBlend mode="normal" in2="BackgroundImageFix" result="effect1_dropShadow_877_86"/>
<feBlend mode="normal" in="SourceGraphic" in2="effect1_dropShadow_877_86" result="shape"/>
</filter>
<filter id="filter6_d_877_86" x="104.636" y="252.632" width="41.4948" height="50.3682" filterUnits="userSpaceOnUse" color-interpolation-filters="sRGB">
<feFlood flood-opacity="0" result="BackgroundImageFix"/>
<feColorMatrix in="SourceAlpha" type="matrix" values="0 0 0 0 0 0 0 0 0 0 0 0 0 0 0 0 0 0 127 0" result="hardAlpha"/>
<feOffset/>
<feGaussianBlur stdDeviation="10"/>
<feComposite in2="hardAlpha" operator="out"/>
<feColorMatrix type="matrix" values="0 0 0 0 1 0 0 0 0 1 0 0 0 0 1 0 0 0 1 0"/>
<feBlend mode="normal" in2="BackgroundImageFix" result="effect1_dropShadow_877_86"/>
<feBlend mode="normal" in="SourceGraphic" in2="effect1_dropShadow_877_86" result="shape"/>
</filter>
<filter id="filter7_d_877_86" x="163.677" y="241.575" width="46.4771" height="55.9434" filterUnits="userSpaceOnUse" color-interpolation-filters="sRGB">
<feFlood flood-opacity="0" result="BackgroundImageFix"/>
<feColorMatrix in="SourceAlpha" type="matrix" values="0 0 0 0 0 0 0 0 0 0 0 0 0 0 0 0 0 0 127 0" result="hardAlpha"/>
<feOffset/>
<feGaussianBlur stdDeviation="10"/>
<feComposite in2="hardAlpha" operator="out"/>
<feColorMatrix type="matrix" values="0 0 0 0 1 0 0 0 0 1 0 0 0 0 1 0 0 0 1 0"/>
<feBlend mode="normal" in2="BackgroundImageFix" result="effect1_dropShadow_877_86"/>
<feBlend mode="normal" in="SourceGraphic" in2="effect1_dropShadow_877_86" result="shape"/>
</filter>
</defs>
</svg>
