<svg width="243" height="282" viewBox="0 0 243 282" fill="none" xmlns="http://www.w3.org/2000/svg">
<path d="M135.43 263.138C125.088 268.555 116.716 269.048 106.374 263.138L3.44708 201.579C-0.49271 197.639 -0.97661 192.226 3.44716 189.759L106.374 128.693C116.223 122.783 125.088 123.276 135.43 128.693L232.939 185.327C244.759 191.729 241.311 198.624 230.969 205.519L135.43 263.138Z" fill="#0F0E0E" stroke="white" stroke-width="0.5"/>
<path d="M235.895 187.297C242.581 193.755 240.969 197.678 231.955 205.026V219.308L239.835 214.875C242.016 212.918 242.374 211.573 242.297 208.966V198.131C242.228 191.681 240.436 189.664 235.895 187.297Z" fill="#F73737"/>
<path d="M29.0559 216.353V230.635L2.95483 214.876C0.492419 212.906 5.37898e-05 210.936 0 207.489V195.177C0.984945 197.639 2.46236 200.594 3.93978 201.086L29.0559 216.353Z" fill="#F73737"/>
<path d="M41.3676 238.022V224.232L49.2471 229.157V242.946L41.3676 238.022Z" fill="#F73737"/>
<path d="M29.0555 230.634L105.881 276.926M105.881 276.926V262.959M105.881 276.926C114.834 282.369 126.565 282.344 135.43 276.926M135.43 276.926L137.682 275.582M135.43 276.926V274.956M135.43 263.137V266.584M219.642 226.656L231.954 205.025V208.965M219.642 226.656L223.09 224.599M219.642 226.656L216.279 228.664M223.09 224.599L231.954 208.965M223.09 224.599L226.537 222.541M231.954 208.965V212.412M231.954 212.412L226.537 222.541M231.954 212.412V215.86M226.537 222.541L229.246 220.924M229.246 220.924L231.954 219.307V215.86M229.246 220.924L231.954 215.86M216.279 228.664L228.014 207.488M216.279 228.664L213.24 230.478M213.24 230.478L224.075 209.95M213.24 230.478L209.3 232.83M209.3 232.83L219.15 212.905M209.3 232.83L205.361 235.182M205.361 235.182L214.718 215.367M205.361 235.182L201.913 237.24M201.913 237.24L210.285 217.83M201.913 237.24L197.695 239.758M197.695 239.758L205.853 220.785M197.695 239.758L193.179 242.453M193.179 242.453L201.421 223.247M193.179 242.453L189.602 244.589M189.602 244.589L196.989 226.202M189.602 244.589L186.154 246.647M186.154 246.647L193.179 228.172M186.154 246.647L182.707 248.705M182.707 248.705L188.617 231.126M182.707 248.705L179.154 250.825M179.154 250.825L184.677 233.589M179.154 250.825L175.812 252.82M175.812 252.82L180.737 236.051M175.812 252.82L172.858 254.584M172.858 254.584L176.797 238.514M172.858 254.584L169.41 256.642M169.41 256.642L172.858 240.483M169.41 256.642L165.129 259.197M165.129 259.197L169.41 242.453M165.129 259.197L161.038 261.64M161.038 261.64L165.129 245.171M161.038 261.64L156.88 264.122M156.88 264.122L161.038 247.87M156.88 264.122L152.755 266.584M152.755 266.584C152.684 266.19 155.621 255.586 157.098 250.333M152.755 266.584L148.234 269.283M148.234 269.283L152.174 253.288M148.234 269.283L144.505 271.509M144.505 271.509L148.726 255.258M144.505 271.509L140.847 273.693M140.847 273.693L144.787 257.72M140.847 273.693L137.682 275.582M137.682 275.582L141.339 259.69M135.43 274.956L138.384 261.64M135.43 274.956V266.584M135.43 266.584L136.415 262.645" stroke="white" stroke-width="0.5"/>
<path d="M37.0972 89.6946V66.2154L105.657 107.069C117.166 113.591 123.408 113.168 134.301 107.069L209.904 61.5195V93.4513L131.484 140.41C123.031 144.636 117.866 145.106 108.474 140.41L38.9755 99.5559L33.8101 97.6776L37.0972 89.6946Z" fill="#161616"/>
<path d="M37.0972 144.636V114.113L105.657 155.437C116.457 161.541 123.97 161.541 134.301 155.906L209.904 110.356V141.349L131.953 187.838C126.318 191.125 118.335 192.534 108.944 187.838L103.946 185.02L103.778 161.072L44.1409 124.914L39.9147 126.322V142.758L42.2626 144.167V147.923L38.9755 147.454V146.045L37.0972 144.636Z" fill="#161616"/>
<path d="M37.5667 184.081V160.602L106.126 201.926C117.565 208.152 123.928 207.821 135.24 201.926L210.844 155.906V187.838L131.484 235.266C123.97 239.492 116.999 239.665 108.474 235.266L34.2796 190.186L37.5667 184.081Z" fill="#161616"/>
<path d="M37.0972 89.6946V66.2154L105.657 107.069C117.166 113.591 123.408 113.168 134.301 107.069L209.904 61.5195V93.4513L131.484 140.41C123.031 144.636 117.866 145.106 108.474 140.41L38.9755 99.5559L33.8101 97.6776L37.0972 89.6946Z" stroke="white" stroke-width="0.5"/>
<path d="M37.0972 144.636V114.113L105.657 155.437C116.457 161.541 123.97 161.541 134.301 155.906L209.904 110.356V141.349L131.953 187.838C126.318 191.125 118.335 192.534 108.944 187.838L103.946 185.02L103.778 161.072L44.1409 124.914L39.9147 126.322V142.758L42.2626 144.167V147.923L38.9755 147.454V146.045L37.0972 144.636Z" stroke="white" stroke-width="0.5"/>
<path d="M37.5667 184.081V160.602L106.126 201.926C117.565 208.152 123.928 207.821 135.24 201.926L210.844 155.906V187.838L131.484 235.266C123.97 239.492 116.999 239.665 108.474 235.266L34.2796 190.186L37.5667 184.081Z" stroke="white" stroke-width="0.5"/>
<g filter="url(#filter0_f_331_799)">
<path d="M212.722 192.064L209.435 188.777L134.771 233.388C123.409 241.773 116.91 240.907 105.187 233.388L33.3403 189.716L25.3574 181.733L12.209 190.186L30.9924 201.456L27.2357 204.273C24.4182 207.561 27.7053 210.848 31.9316 207.561L36.6274 204.273L95.3256 239.962L91.5689 242.779C88.2818 245.127 90.6297 248.884 95.3256 245.597L100.491 242.31L104.717 245.127C116.869 253.399 123.901 252.373 136.649 245.127L210.374 201.456C214.712 198.557 215.539 195.821 212.722 192.064Z" fill="#222222"/>
</g>
<path d="M39.915 126.322V142.758L100.961 178.916V163.419L39.915 126.322Z" fill="#111010" stroke="white" stroke-width="0.5"/>
<path d="M47.4276 135.713C44.7184 134.808 44.1406 139.939 47.4276 141.348C50.2457 142.288 50.2457 136.653 47.4276 135.713Z" fill="white"/>
<path d="M54.472 139.94C51.7628 139.036 51.185 144.166 54.472 145.575C57.2901 146.515 57.2901 140.88 54.472 139.94Z" fill="white"/>
<path d="M61.5158 144.166C58.8066 143.262 58.2288 148.393 61.5158 149.801C64.3339 150.742 64.3338 145.107 61.5158 144.166Z" fill="white"/>
<path d="M79.3599 160.602V156.376L95.3258 166.237V170.464L79.3599 160.602Z" stroke="white" stroke-width="0.5"/>
<path d="M44.1413 124.914L39.915 126.323L100.961 163.42V178.916L103.779 178.447V161.072L44.1413 124.914Z" fill="#161616" stroke="white" stroke-width="0.5"/>
<path d="M100.961 163.419L103.778 161.071" stroke="white" stroke-width="0.5"/>
<path d="M210.844 187.838L133.362 234.327C124.44 239.962 115.988 239.962 107.066 234.327L100.491 230.57L32.8711 189.247" stroke="white" stroke-width="0.5"/>
<path d="M32.8709 141.819V111.296C30.5229 109.887 28.722 108.097 27.2358 105.191V135.245C27.2358 138.532 29.7422 140.046 32.8709 141.819Z" fill="#F73737"/>
<path d="M32.8709 168.585V157.784C30.5229 156.376 28.722 154.585 27.2358 151.68V173.281C27.2358 173.281 30.0534 169.054 32.8709 168.585Z" fill="#F73737"/>
<path d="M32.8709 74.6678V63.8673C30.5229 62.4585 28.722 60.6679 27.2358 57.7627V79.3636C27.2358 79.3636 30.0534 75.1373 32.8709 74.6678Z" fill="#F73737"/>
<path d="M35.2188 112.704V143.027L37.5667 144.636V114.113L35.2188 112.704Z" fill="#F73737"/>
<path d="M35.2188 159.193V167.646L37.5667 165.768V160.602L35.2188 159.193Z" fill="#F73737"/>
<path d="M35.2188 172.342V185.02L37.5667 183.612V171.402L35.2188 172.342Z" fill="#F73737"/>
<path d="M35.2188 65.2764V73.7289L37.5667 71.8506V66.6851L35.2188 65.2764Z" fill="#F73737"/>
<path d="M35.2188 78.4245V91.1033L37.5667 89.6946V77.4854L35.2188 78.4245Z" fill="#F73737"/>
<path d="M210.374 141.818V109.887C213.15 108.111 214.02 106.153 214.6 102.843V133.835C214.6 139.001 213.661 139.94 210.374 141.818Z" fill="#F73737"/>
<path d="M210.374 188.777V156.376C213.15 154.6 214.02 153.112 214.6 149.802V180.794C214.6 185.96 213.661 186.899 210.374 188.777Z" fill="#F73737"/>
<path d="M32.4012 157.315C24.888 153.089 26.2967 147.454 34.2797 144.167L38.9756 146.045V151.68L107.535 193.473C115.988 198.169 124.44 198.169 132.423 193.473L202.391 152.15V145.576L207.557 143.697C216.948 147.924 215.54 153.559 208.965 157.315L136.649 200.987C125.073 207.754 118.181 208.993 104.248 200.987L32.4012 157.315Z" fill="#0F0E0E" stroke="white" stroke-width="0.5"/>
<path d="M32.4012 110.826C24.888 106.6 26.2967 100.965 34.2797 97.6776L38.9756 99.5559V105.191L107.535 146.984C115.988 151.68 124.44 151.68 132.423 146.984L202.391 105.661V99.0863L207.557 97.208C216.948 101.434 215.54 107.069 208.965 110.826L136.649 154.497C125.073 161.264 118.181 162.503 104.248 154.497L32.4012 110.826Z" fill="#0F0E0E" stroke="white" stroke-width="0.5"/>
<path d="M32.8703 63.3978C27.2361 59.6411 23.4793 54.006 32.8703 49.3102L105.657 6.10835C116.927 -0.466191 123.971 -0.935338 135.71 6.10835L210.374 50.2494C216.949 53.5367 214.601 58.7021 210.374 61.5194L132.423 108.478C123.501 113.174 117.866 112.704 108.474 108.478L32.8703 63.3978Z" fill="#0F0E0E" stroke="white" stroke-width="0.5"/>
<g filter="url(#filter1_f_331_799)">
<ellipse cx="120.683" cy="61.6705" rx="26.7664" ry="15.8375" fill="#222222"/>
</g>
<path d="M105.078 43.28C109.305 41.0018 111.597 40.3061 115.601 39.6962C113.09 43.3994 113.198 46.7731 116.318 50.3279C109.06 50.1929 105.436 46.7442 105.078 43.28Z" fill="white"/>
<path d="M121.819 49.3723C117.753 46.6248 118.112 41.4881 122.537 38.9795C127.7 39.1017 130.128 39.6308 133.897 41.1297C127.781 42.7168 124.841 44.1779 121.819 49.3723Z" fill="white"/>
<path d="M138.8 43.7578C133.897 43.5189 127.32 46.7442 126.841 51.0447C133.207 48.933 136.893 48.5113 143.822 50.089C143.175 47.493 141.191 45.3107 138.8 43.7578Z" fill="white"/>
<path d="M144.3 54.3895C139.637 51.642 134.092 51.5987 128.157 54.3895C135.661 55.8539 137.84 57.5445 140.235 61.1985C142.919 58.6011 143.55 57.0957 144.3 54.3895Z" fill="white"/>
<path d="M135.93 64.4239C135.93 60.1234 130.637 57.5979 125.048 57.6148C128.251 61.5817 128.317 63.8339 125.526 67.8881C129.993 67.1068 132.284 66.387 135.93 64.4239Z" fill="white"/>
<path d="M119.069 68.2465C123.972 64.5433 123.254 61.1985 119.427 58.5705C116.743 62.9578 114.099 64.5667 108.067 66.4547C111.84 67.6653 114.148 68.1567 119.069 68.2465Z" fill="white"/>
<path d="M97.7832 57.8537C104.857 59.1836 108.531 58.9148 114.644 56.8981C113.807 60.9596 108.785 64.0655 102.925 63.7071C100.071 61.8107 99.0147 60.4973 97.7832 57.8537Z" fill="white"/>
<path d="M97.0657 53.7922C103.81 56.2852 108.546 55.823 113.329 53.4338C106.668 52.2248 103.901 50.7519 100.653 46.6248C98.1381 49.147 97.325 50.7103 97.0657 53.7922Z" fill="white"/>
<path d="M210.374 93.9209V61.5195C213.15 59.7437 214.02 58.2556 214.6 54.9453V85.9379C214.6 91.1034 213.661 92.0425 210.374 93.9209Z" fill="#F73737"/>
<path d="M46.0195 177.036C46.0195 173.75 49.7762 175.629 49.7762 178.914V190.184C49.7762 192.064 46.0195 192.064 46.0195 188.306V177.036Z" fill="white"/>
<path d="M52.5937 180.794C52.5937 177.508 56.3504 179.387 56.3504 182.672V193.942C56.3504 195.822 52.5937 195.822 52.5937 192.064V180.794Z" fill="white"/>
<path d="M59.1679 185.49C59.1679 182.204 62.9246 184.082 62.9246 187.368V198.638C62.9246 200.518 59.1679 200.518 59.1679 196.76V185.49Z" fill="white"/>
<path d="M66.2117 188.306C66.2117 185.02 69.9684 186.899 69.9684 190.184V201.454C69.9684 203.334 66.2117 203.334 66.2117 199.576V188.306Z" fill="white"/>
<path d="M72.3163 193.003C72.3163 189.717 76.073 191.596 76.073 194.881V206.151C76.073 208.031 72.3163 208.031 72.3163 204.273V193.003Z" fill="white"/>
<path d="M78.8905 196.76C78.8905 193.474 82.6472 195.352 82.6472 198.638V209.908C82.6472 211.788 78.8905 211.788 78.8905 208.03V196.76Z" fill="white"/>
<path d="M85.4647 200.516C85.4647 197.231 89.2214 199.109 89.2214 202.395V213.665C89.2214 215.544 85.4647 215.544 85.4647 211.786V200.516Z" fill="white"/>
<path d="M92.5085 204.273V211.317L95.7956 209.439V204.743C95.7956 202.864 92.5085 201.454 92.5085 204.273Z" fill="white"/>
<path d="M201.922 127.053C201.922 123.856 198.247 125.684 198.247 128.88V139.844C198.247 141.673 201.922 141.673 201.922 138.017V127.053Z" fill="white"/>
<path d="M195.491 130.709C195.491 127.512 191.816 129.34 191.816 132.536V143.5C191.816 145.329 195.491 145.329 195.491 141.673V130.709Z" fill="white"/>
<path d="M189.059 135.277C189.059 132.081 185.384 133.908 185.384 137.105V148.069C185.384 149.897 189.059 149.897 189.059 146.241V135.277Z" fill="white"/>
<path d="M182.169 138.017C182.169 134.821 178.494 136.648 178.494 139.844V150.809C178.494 152.637 182.169 152.637 182.169 148.981V138.017Z" fill="white"/>
<path d="M176.197 142.587C176.197 139.39 172.522 141.218 172.522 144.414V155.378C172.522 157.207 176.197 157.207 176.197 153.551V142.587Z" fill="white"/>
<path d="M169.765 146.241C169.765 143.045 166.09 144.872 166.09 148.069V159.033C166.09 160.861 169.765 160.861 169.765 157.206V146.241Z" fill="white"/>
<path d="M163.334 149.896C163.334 146.7 159.659 148.527 159.659 151.723V162.688C159.659 164.516 163.334 164.516 163.334 160.86V149.896Z" fill="white"/>
<path d="M156.372 153.551C156.372 150.354 152.697 152.182 152.697 155.378V166.342C152.697 168.171 156.372 168.171 156.372 164.515V153.551Z" fill="white"/>
<path d="M150.268 157.206C150.268 154.009 146.592 155.836 146.592 159.033V169.997C146.592 171.826 150.268 171.826 150.268 168.17V157.206Z" fill="white"/>
<path d="M143.612 160.86C143.612 157.664 139.937 159.491 139.937 162.688V173.652C139.937 175.48 143.612 175.48 143.612 171.824V160.86Z" fill="white"/>
<path d="M46.0195 82.0193C46.0195 78.7337 49.7762 80.6121 49.7762 83.8977V95.1677C49.7762 97.0473 46.0195 97.0473 46.0195 93.2894V82.0193Z" fill="white"/>
<path d="M52.5937 85.7773C52.5937 82.4916 56.3504 84.37 56.3504 87.6556V98.9256C56.3504 100.805 52.5937 100.805 52.5937 97.0473V85.7773Z" fill="white"/>
<path d="M59.1679 90.4731C59.1679 87.1874 62.9246 89.0658 62.9246 92.3514V103.621C62.9246 105.501 59.1679 105.501 59.1679 101.743V90.4731Z" fill="white"/>
<path d="M66.2117 93.2894C66.2117 90.0037 69.9684 91.8821 69.9684 95.1677V106.438C69.9684 108.317 66.2117 108.317 66.2117 104.559V93.2894Z" fill="white"/>
<path d="M72.3163 97.9865C72.3163 94.7008 76.073 96.5792 76.073 99.8648V111.135C76.073 113.014 72.3163 113.014 72.3163 109.257V97.9865Z" fill="white"/>
<path d="M78.8905 101.743C78.8905 98.4575 82.6472 100.336 82.6472 103.621V114.892C82.6472 116.771 78.8905 116.771 78.8905 113.013V101.743Z" fill="white"/>
<path d="M85.4647 105.5C85.4647 102.214 89.2214 104.093 89.2214 107.378V118.648C89.2214 120.528 85.4647 120.528 85.4647 116.77V105.5Z" fill="white"/>
<path d="M92.5085 109.257V116.3L95.7956 113.643V109.726C95.7956 107.848 92.5085 106.438 92.5085 109.257Z" fill="white"/>
<path d="M109.413 230.101V208.97M131.953 230.101V208.97" stroke="white" stroke-width="0.5"/>
<path d="M109.413 185.021V163.89M131.953 185.021V163.89" stroke="white" stroke-width="0.5"/>
<path d="M109.413 135.245V114.113M131.953 135.245V114.113" stroke="white" stroke-width="0.5"/>
<path d="M140.406 209.907C141.345 206.62 143.224 204.272 146.041 202.863M143.224 209.907C143.732 207.946 144.203 206.953 146.041 205.681M145.102 210.377C145.34 209.458 145.571 208.968 146.511 208.498M147.919 201.924C150.242 201.37 151.359 201.507 153.085 202.394M154.494 203.802C155.902 206.62 155.501 208.879 154.494 211.785M153.554 214.603C152.464 218.18 150.737 219.768 147.45 221.177M145.102 222.116C143.224 222.586 141.572 222.44 139.936 221.177M139.467 212.255C138.643 215.37 138.544 217.049 139.467 219.768M147.919 204.742C149.19 204.071 149.91 204.067 151.206 204.742M144.163 213.194C144.009 214.354 144.184 214.901 145.102 215.542M141.345 212.724C140.801 214.632 140.79 215.65 141.345 217.42M142.284 218.359C143.568 218.981 144.163 219.299 145.571 218.829M147.919 208.029C149.798 208.029 150.267 209.907 149.798 211.316M151.676 206.62C152.615 208.029 152.615 209.907 151.676 211.316M146.98 215.072C148.141 214.552 148.564 214.146 148.859 213.194M150.737 214.133C150.182 216.337 149.424 217.159 147.45 217.89M163.885 195.35C164.824 192.063 166.703 189.715 169.52 188.307M166.703 195.35C167.211 193.389 167.682 192.397 169.52 191.124M168.581 195.82C168.819 194.902 169.051 194.411 169.99 193.942M171.399 187.367C173.721 186.814 174.838 186.95 176.564 187.837M177.973 189.246C179.382 192.063 178.98 194.323 177.973 197.229M177.034 200.046C175.943 203.623 174.216 205.212 170.929 206.62M168.581 207.56C166.703 208.029 165.051 207.884 163.416 206.62M162.946 197.698C162.123 200.813 162.023 202.493 162.946 205.212M171.399 190.185C172.67 189.515 173.389 189.511 174.686 190.185M167.642 198.638C167.488 199.798 167.663 200.344 168.581 200.985M164.824 198.168C164.28 200.075 164.269 201.093 164.824 202.864M165.764 203.803C167.047 204.425 167.642 204.742 169.051 204.273M171.399 193.472C173.277 193.472 173.747 195.35 173.277 196.759M175.155 192.063C176.094 193.472 176.094 195.35 175.155 196.759M170.459 200.516C171.62 199.995 172.043 199.59 172.338 198.638M174.216 199.577C173.661 201.781 172.903 202.602 170.929 203.333M186.895 180.795C187.834 177.508 189.712 175.16 192.53 173.751M189.712 180.795C190.221 178.834 190.691 177.841 192.53 176.568M191.591 181.264C191.828 180.346 192.06 179.855 193 179.386M194.408 172.812C196.731 172.258 197.848 172.395 199.574 173.281M200.982 174.69C202.391 177.508 201.99 179.767 200.982 182.673M200.043 185.49C198.953 189.067 197.226 190.656 193.939 192.065M191.591 193.004C189.712 193.473 188.061 193.328 186.425 192.065M185.956 183.143C185.132 186.258 185.033 187.937 185.956 190.656M194.408 175.629C195.679 174.959 196.399 174.955 197.695 175.629M190.652 184.082C190.498 185.242 190.673 185.788 191.591 186.43M187.834 183.612C187.29 185.519 187.279 186.537 187.834 188.308M188.773 189.247C190.057 189.869 190.652 190.186 192.06 189.717M194.408 178.916C196.287 178.916 196.756 180.795 196.287 182.203M198.165 177.508C199.104 178.916 199.104 180.795 198.165 182.203M193.469 185.96C194.63 185.439 195.053 185.034 195.347 184.082M197.226 185.021C196.671 187.225 195.913 188.047 193.939 188.778" stroke="white" stroke-width="0.5"/>
<path d="M140.406 114.91C141.345 111.623 143.224 109.275 146.041 107.866M143.224 114.91C143.732 112.949 144.203 111.956 146.041 110.684M145.102 115.379C145.34 114.461 145.571 113.971 146.511 113.501M147.919 106.927C150.242 106.373 151.359 106.51 153.085 107.396M154.494 108.805C155.902 111.623 155.501 113.882 154.494 116.788M153.554 119.606C152.464 123.182 150.737 124.771 147.45 126.18M145.102 127.119C143.224 127.589 141.572 127.443 139.936 126.18M139.467 117.258C138.643 120.373 138.544 122.052 139.467 124.771M147.919 109.744C149.19 109.074 149.91 109.07 151.206 109.744M144.163 118.197C144.009 119.357 144.184 119.904 145.102 120.545M141.345 117.727C140.801 119.635 140.79 120.653 141.345 122.423M142.284 123.362C143.568 123.984 144.163 124.302 145.571 123.832M147.919 113.032C149.798 113.032 150.267 114.91 149.798 116.319M151.676 111.623C152.615 113.032 152.615 114.91 151.676 116.319M146.98 120.075C148.141 119.554 148.564 119.149 148.859 118.197M150.737 119.136C150.182 121.34 149.424 122.162 147.45 122.893M163.885 100.353C164.824 97.0662 166.703 94.7183 169.52 93.3096M166.703 100.353C167.211 98.3924 167.682 97.3995 169.52 96.1271M168.581 100.823C168.819 99.9047 169.051 99.4142 169.99 98.9446M171.399 92.3704C173.721 91.8169 174.838 91.9533 176.564 92.84M177.973 94.2487C179.382 97.0663 178.98 99.3256 177.973 102.232M177.034 105.049C175.943 108.626 174.216 110.215 170.929 111.623M168.581 112.563C166.703 113.032 165.051 112.887 163.416 111.623M162.946 102.701C162.123 105.816 162.023 107.496 162.946 110.215M171.399 95.1879C172.67 94.5176 173.389 94.5138 174.686 95.1879M167.642 103.64C167.488 104.801 167.663 105.347 168.581 105.988M164.824 103.171C164.28 105.078 164.269 106.096 164.824 107.867M165.764 108.806C167.047 109.428 167.642 109.745 169.051 109.275M171.399 98.475C173.277 98.475 173.747 100.353 173.277 101.762M175.155 97.0663C176.094 98.475 176.094 100.353 175.155 101.762M170.459 105.519C171.62 104.998 172.043 104.592 172.338 103.64M174.216 104.58C173.661 106.784 172.903 107.605 170.929 108.336M186.895 85.7976C187.834 82.5105 189.712 80.1625 192.53 78.7538M189.712 85.7976C190.221 83.8366 190.691 82.8437 192.53 81.5713M191.591 86.2671C191.828 85.349 192.06 84.8584 193 84.3888M194.408 77.8146C196.731 77.2611 197.848 77.3976 199.574 78.2842M200.982 79.693C202.391 82.5105 201.99 84.7699 200.982 87.6759M200.043 90.4934C198.953 94.0702 197.226 95.6589 193.939 97.0676M191.591 98.0068C189.712 98.4764 188.061 98.331 186.425 97.0676M185.956 88.1455C185.132 91.2605 185.033 92.9399 185.956 95.6589M194.408 80.6321C195.679 79.9619 196.399 79.958 197.695 80.6321M190.652 89.0847C190.498 90.2448 190.673 90.7912 191.591 91.4326M187.834 88.6151C187.29 90.5224 187.279 91.5403 187.834 93.3109M188.773 94.2501C190.057 94.8719 190.652 95.1893 192.06 94.7197M194.408 83.9192C196.287 83.9192 196.756 85.7976 196.287 87.2063M198.165 82.5105C199.104 83.9192 199.104 85.7976 198.165 87.2063M193.469 90.963C194.63 90.4422 195.053 90.0367 195.347 89.0847M197.226 90.0238C196.671 92.2279 195.913 93.0495 193.939 93.7805" stroke="white" stroke-width="0.5"/>
<path d="M109.883 141.35L38.9756 99.5565V105.192L106.126 146.045C116.372 151.29 122.338 152.223 133.832 146.045L202.391 105.661V99.0869L131.014 141.35C122.889 145.437 118.244 144.835 109.883 141.35Z" fill="#222222"/>
<path d="M131.014 188.308C122.889 192.395 118.244 191.794 109.883 188.308C105.657 186.546 103.778 185.96 103.778 183.143V178.447H100.491L42.2627 144.167V148.452L38.9756 146.515V151.68L106.126 192.534C115.988 198.639 125.379 198.169 133.832 192.534L202.391 152.15V146.045L131.014 188.308Z" fill="#222222"/>
<path d="M104.248 132.896V112.704C93.1847 117.91 94.8564 119.748 94.8564 123.035C95.3701 119.239 96.9845 118.034 101.431 116.93V129.14L100.491 131.018V132.896L95.7956 137.123L104.248 132.896Z" stroke="white" stroke-width="0.5"/>
<path d="M99.0824 111.765C101.84 110.258 104.248 110.357 104.248 112.704C94.2243 117.492 94.8562 119.279 94.8561 123.035L89.6907 123.974C89.2212 118.809 91.4047 116.484 99.0824 111.765Z" stroke="white" stroke-width="0.5"/>
<path d="M94.8562 123.036L94.3866 132.427L101.43 129.14L100.491 131.019V132.897L95.7954 137.123C92.5083 138.532 90.1604 137.123 89.2212 134.306L89.6908 121.627" stroke="white" stroke-width="0.5"/>
<path d="M104.248 228.285V208.093C93.1847 213.298 94.8564 215.137 94.8564 218.424C95.3701 214.627 96.9845 213.423 101.431 212.319V224.528L100.491 226.407V228.285L95.7956 232.511L104.248 228.285Z" stroke="white" stroke-width="0.5"/>
<path d="M99.0824 207.154C101.84 205.646 104.248 205.745 104.248 208.093C94.2243 212.881 94.8562 214.667 94.8561 218.424L89.6907 219.363C89.2212 214.198 91.4047 211.872 99.0824 207.154Z" stroke="white" stroke-width="0.5"/>
<path d="M94.8562 218.423L94.3866 227.815L101.43 224.528L100.491 226.406V228.285L95.7954 232.511C92.5083 233.92 90.1604 232.511 89.2212 229.693L89.6908 217.015" stroke="white" stroke-width="0.5"/>
<path d="M40.3845 187.901V167.709C29.3212 172.915 30.9928 174.753 30.9928 178.04C31.5065 174.244 33.1209 173.039 37.567 171.935V184.144L36.6278 186.023V187.901L31.932 192.127L40.3845 187.901Z" stroke="white" stroke-width="0.5"/>
<path d="M35.2188 166.77C37.9769 165.263 40.3843 165.362 40.3843 167.709C30.3607 172.497 30.9926 174.283 30.9925 178.04L25.8272 178.979C25.3576 173.814 27.5411 171.489 35.2188 166.77Z" stroke="white" stroke-width="0.5"/>
<path d="M30.9926 178.04L30.523 187.431L37.5668 184.144L36.6276 186.023V187.901L31.9317 192.127C28.6446 193.536 26.2967 192.127 25.3575 189.31L25.8271 176.631" stroke="white" stroke-width="0.5"/>
<path d="M40.3845 93.9842V73.792C29.3212 78.9976 30.9928 80.8358 30.9928 84.1229C31.5065 80.3267 33.1209 79.1223 37.567 78.0183V90.2275L36.6278 92.1058V93.9842L31.932 98.2104L40.3845 93.9842Z" stroke="white" stroke-width="0.5"/>
<path d="M35.2188 72.8532C37.9769 71.3456 40.3843 71.4445 40.3843 73.7923C30.3607 78.5803 30.9926 80.3664 30.9925 84.1231L25.8272 85.0623C25.3576 79.8968 27.5411 77.5717 35.2188 72.8532Z" stroke="white" stroke-width="0.5"/>
<path d="M30.9926 84.1226L30.523 93.5143L37.5668 90.2272L36.6276 92.1056V93.9839L31.9317 98.2102C28.6446 99.6189 26.2967 98.2102 25.3575 95.3927L25.8271 82.7139" stroke="white" stroke-width="0.5"/>
<defs>
<filter id="filter0_f_331_799" x="2.20898" y="171.733" width="222.154" height="89.2197" filterUnits="userSpaceOnUse" color-interpolation-filters="sRGB">
<feFlood flood-opacity="0" result="BackgroundImageFix"/>
<feBlend mode="normal" in="SourceGraphic" in2="BackgroundImageFix" result="shape"/>
<feGaussianBlur stdDeviation="5" result="effect1_foregroundBlur_331_799"/>
</filter>
<filter id="filter1_f_331_799" x="83.917" y="35.833" width="73.5327" height="51.6748" filterUnits="userSpaceOnUse" color-interpolation-filters="sRGB">
<feFlood flood-opacity="0" result="BackgroundImageFix"/>
<feBlend mode="normal" in="SourceGraphic" in2="BackgroundImageFix" result="shape"/>
<feGaussianBlur stdDeviation="5" result="effect1_foregroundBlur_331_799"/>
</filter>
</defs>
</svg>
