<svg width="152" height="148" viewBox="0 0 152 148" fill="none" xmlns="http://www.w3.org/2000/svg">
<path d="M26.5287 82.5617L1 97.1317V130.628L29.7009 146.549L57.3444 130.628M58.7039 107.796V97.1317L47.9789 90.9733M29.7009 112.603L52.3595 100.286M29.7009 112.603L8.0997 100.286M29.7009 112.603V138.739M23.0544 134.383L8.0997 125.971V122.817M8.0997 119.212V115.307M8.0997 112.002V108.097M61.2719 119.813H46.4683M83.9305 119.813H69.1269M106.891 119.813H92.0876M93.145 107.346V97.2819L103.87 91.4239M99.6405 100.887L121.997 113.354M121.997 113.354V139.039M121.997 113.354L144.656 100.887M125.622 82.5617L151 97.2819V130.327L121.997 147L94.9577 131.529M130.305 133.932L143.598 125.971V123.718M143.598 119.813V116.058M143.598 112.453V108.397M64.5952 61.2325L75.9245 68.2922L87.4048 61.2325M75.9245 61.2325V33.7449M75.9245 33.7449L53.4169 21.2778M75.9245 33.7449L98.5831 21.2778M46.9215 47.2634V17.823L75.9245 1L105.079 17.823V47.2634M89.5196 17.823L75.9245 9.86214L73.9607 10.7634M71.0906 12.5658L67.1631 14.6687M64.5952 16.321L60.5166 18.4239M30.1541 96.2305L38.0091 83.463M41.9366 76.5535L49.7915 63.786M53.4169 56.4259L61.2719 43.6584M113.689 83.0123L121.544 96.8313M110.215 77.3045L102.208 63.1852M90.8792 43.5082L98.7341 57.3272M62.3293 113.354C54.4743 113.354 55.3807 125.971 62.3293 125.971H68.0695C75.6224 125.971 76.3776 113.354 68.0695 113.354H62.3293ZM84.9879 113.354C77.1329 113.354 78.0393 125.971 84.9879 125.971H90.7281C98.281 125.971 99.0363 113.354 90.7281 113.354H84.9879ZM32.4199 79.858C29.852 86.7675 40.2749 90.9733 43.7492 85.716L46.9215 79.858C50.3958 72.9486 39.9728 67.5412 35.5921 74.1502L32.4199 79.858ZM43.7492 60.6317C41.1813 67.5412 51.6042 71.7469 55.0786 66.4897L58.2508 60.6317C61.7251 53.7222 51.3021 48.3148 46.9215 54.9239L43.7492 60.6317ZM104.776 79.7078C102.36 73.5494 112.329 69.0432 115.804 74L119.278 79.7078C123.054 86.7675 110.97 91.4239 107.495 84.965L104.776 79.7078ZM93.145 59.7305C90.7281 53.572 100.698 49.0658 104.172 54.0226L107.647 59.7305C111.423 66.7901 99.3384 71.4465 95.8641 64.9877L93.145 59.7305Z" stroke="white"/>
</svg>
