<svg width="30" height="30" viewBox="0 0 30 30" fill="none" xmlns="http://www.w3.org/2000/svg">
<g clip-path="url(#clip0_136_961)">
<path fill-rule="evenodd" clip-rule="evenodd" d="M13.6522 0.0574298C9.89994 0.432547 6.51592 2.09919 4.00271 4.80991C1.94127 7.03343 0.653262 9.71468 0.163301 12.8027C-0.0202734 13.9595 -0.0200391 16.0731 0.16377 17.2074C0.726973 20.683 2.31158 23.6808 4.80984 25.9971C7.03336 28.0586 9.71461 29.3466 12.8026 29.8365C13.9594 30.0201 16.073 30.0199 17.2073 29.8361C21.0893 29.207 24.3821 27.2964 26.7761 24.2838C28.3646 22.2849 29.4241 19.8406 29.8226 17.2558C29.8872 16.8369 29.9404 16.3572 29.9406 16.1899C29.941 16.0226 29.9677 15.8695 29.9999 15.8496C30.0347 15.828 30.0585 15.4572 30.0585 14.9344C30.0585 14.3634 30.038 14.0682 29.9999 14.0917C29.9637 14.1141 29.9411 14.0092 29.9406 13.8169C29.9404 13.6458 29.8884 13.1714 29.8253 12.7627C29.2401 8.97124 27.2881 5.61124 24.2838 3.22378C22.2869 1.63694 19.8613 0.584656 17.2557 0.174852C16.3912 0.0388556 14.4656 -0.0238397 13.6522 0.0574298ZM13.9745 2.37973C10.7846 2.71448 8.21467 3.91085 6.0627 6.06276C4.12084 8.00462 2.90572 10.4022 2.48057 13.1306C2.33666 14.0541 2.33666 15.9458 2.48057 16.8693C2.90572 19.5977 4.12084 21.9953 6.0627 23.9371C8.00455 25.879 10.4021 27.0941 13.1305 27.5193C14.0541 27.6632 15.9457 27.6632 16.8693 27.5193C19.5976 27.0941 21.9952 25.879 23.9371 23.9371C25.8789 21.9953 27.094 19.5977 27.5192 16.8693C27.6631 15.9458 27.6631 14.0541 27.5192 13.1306C27.094 10.4022 25.8789 8.00462 23.9371 6.06276C22.012 4.13772 19.5922 2.90415 16.9324 2.49194C16.3413 2.4003 14.4587 2.32888 13.9745 2.37973ZM20.3905 9.97044C20.2298 10.0156 19.403 10.8093 16.568 13.6401L12.9505 17.2522L11.441 15.7526C10.6108 14.9278 9.85148 14.2124 9.75369 14.1628C9.30586 13.9355 8.82334 13.9915 8.45672 14.3135C8.2152 14.5255 8.03027 14.8855 8.02887 15.1464C8.02606 15.6549 8.05107 15.6859 10.1861 17.8289C11.5784 19.2264 12.2964 19.9055 12.4707 19.9899C12.8213 20.1597 13.2595 20.1142 13.6059 19.8723C13.7442 19.7757 15.6404 17.9082 17.8197 15.7224C22.1633 11.3657 22.0324 11.518 21.951 10.913C21.8528 10.1833 21.1482 9.75768 20.3905 9.97044ZM0.0234375 14.9999C0.0234375 15.4995 0.0324609 15.7038 0.043418 15.4541C0.0544336 15.2043 0.0544336 14.7956 0.043418 14.5458C0.0324609 14.2961 0.0234375 14.5004 0.0234375 14.9999Z" fill="white"/>
</g>
<defs>
<clipPath id="clip0_136_961">
<rect width="30" height="30" fill="white"/>
</clipPath>
</defs>
</svg>
