<svg width="182" height="42" viewBox="0 0 182 42" fill="none" xmlns="http://www.w3.org/2000/svg">
<path d="M5.60567 13.5746H0.881348V30.5034C0.881348 42.7079 17.0228 42.3142 22.9282 39.5584V13.5746H18.2039V37.1962H11.1174C7.57413 37.1962 5.60567 34.4403 5.60567 31.2908V13.5746Z" fill="white"/>
<path d="M63.0849 13.5746H58.3606V30.5034C58.3606 43.1016 74.026 42.7981 80.4074 39.5584V13.5746H75.6831V37.1962H68.5966C65.0534 37.1962 63.0849 34.4403 63.0849 31.2908V13.5746Z" fill="white"/>
<path d="M138.28 13.5746H133.556V30.5034C133.556 43.1016 149.697 42.3142 155.603 39.5584V13.5746H150.878V37.1962H143.792C140.249 37.1962 138.28 34.4403 138.28 31.2908V13.5746Z" fill="white"/>
<path d="M118.202 13.5746V5.70074H114.265V33.2593C114.265 39.9521 120.564 42.3142 128.438 40.3457V37.1962H122.139C119.383 37.1962 118.202 35.6214 118.202 33.2593V17.5115H128.438V13.5746H118.202Z" fill="white"/>
<path d="M104.029 40.3457H108.36V22.6296C108.36 13.1809 95.7614 10.0314 87.4939 15.9368V40.3457H91.4308V17.5115C98.1236 15.5431 104.029 17.1178 104.029 22.2359V40.3457Z" fill="white"/>
<path d="M30.0147 39.1647V1.37012H33.9516V14.7557C55.211 8.0629 58.3755 30.7448 47.3372 39.1647C43.4002 41.5268 34.3453 41.5268 30.0147 39.1647Z" fill="white"/>
<path d="M5.60567 13.5746H0.881348V30.5034C0.881348 42.7079 17.0228 42.3142 22.9282 39.5584V13.5746H18.2039V37.1962H11.1174C7.57413 37.1962 5.60567 34.4403 5.60567 31.2908V13.5746Z" stroke="white"/>
<path d="M63.0849 13.5746H58.3606V30.5034C58.3606 43.1016 74.026 42.7981 80.4074 39.5584V13.5746H75.6831V37.1962H68.5966C65.0534 37.1962 63.0849 34.4403 63.0849 31.2908V13.5746Z" stroke="white"/>
<path d="M138.28 13.5746H133.556V30.5034C133.556 43.1016 149.697 42.3142 155.603 39.5584V13.5746H150.878V37.1962H143.792C140.249 37.1962 138.28 34.4403 138.28 31.2908V13.5746Z" stroke="white"/>
<path d="M118.202 13.5746V5.70074H114.265V33.2593C114.265 39.9521 120.564 42.3142 128.438 40.3457V37.1962H122.139C119.383 37.1962 118.202 35.6214 118.202 33.2593V17.5115H128.438V13.5746H118.202Z" stroke="white"/>
<path d="M104.029 40.3457H108.36V22.6296C108.36 13.1809 95.7614 10.0314 87.4939 15.9368V40.3457H91.4308V17.5115C98.1236 15.5431 104.029 17.1178 104.029 22.2359V40.3457Z" stroke="white"/>
<path d="M30.0147 39.1647V1.37012H33.9516V14.7557C55.211 8.0629 58.3755 30.7448 47.3372 39.1647C43.4002 41.5268 34.3453 41.5268 30.0147 39.1647Z" stroke="white"/>
<path d="M33.9512 36.0149V19.0861C45.762 10.0317 56.3917 29.3236 43.7935 36.0149C40.644 37.5901 36.3133 36.8027 33.9512 36.0149Z" fill="black"/>
<path fill-rule="evenodd" clip-rule="evenodd" d="M170.577 3.37616C166.991 3.63214 163.794 5.68432 162.035 8.85953C160.297 11.9984 160.299 15.9719 162.039 19.0967C162.891 20.6258 164.04 21.8699 165.501 22.8438C169.022 25.1909 173.661 25.182 177.19 22.8212C179.928 20.9898 181.732 17.8736 181.885 14.7132C181.9 14.4217 181.927 14.1831 181.946 14.1831C181.965 14.1831 181.981 14.0661 181.981 13.9232C181.98 13.7401 181.968 13.6817 181.94 13.7257C181.912 13.769 181.899 13.693 181.899 13.4762C181.898 13.3047 181.879 12.9959 181.856 12.7901C181.378 8.46388 178.252 4.82744 174.048 3.70528C173.405 3.53363 172.743 3.42697 171.994 3.37466C171.302 3.32626 171.276 3.3263 170.577 3.37616ZM174.455 6.65483C174.068 6.75163 173.714 7.02919 173.528 7.3828C173.43 7.56925 173.418 7.63828 173.418 8.00819C173.418 8.36355 173.432 8.45029 173.514 8.60485C173.778 9.09971 174.226 9.37577 174.771 9.37802C175.052 9.37914 175.119 9.36305 175.37 9.23431C175.894 8.96569 176.166 8.48734 176.125 7.90669C176.082 7.30504 175.719 6.85405 175.138 6.68107C174.906 6.61192 174.664 6.60261 174.455 6.65483ZM170.64 8.11901C170.223 8.16612 169.595 8.32346 169.175 8.48605C168.645 8.69109 168.645 8.59482 169.171 9.54671C169.424 10.0041 169.645 10.3928 169.661 10.4104C169.678 10.4281 169.814 10.3964 169.964 10.34C170.456 10.1542 170.861 10.0955 171.486 10.1195C172.148 10.1451 172.488 10.2287 173.045 10.5036C174.146 11.0469 174.949 12.1327 175.143 13.3401L175.192 13.6425L175.86 13.6423C176.227 13.6421 176.678 13.6303 176.862 13.6159L177.196 13.5899L177.163 13.2939C177.029 12.1073 176.518 10.9677 175.711 10.054L175.475 9.78647L175.257 9.84331C174.57 10.0219 173.777 9.78285 173.333 9.26317C173.154 9.05318 172.948 8.64747 172.915 8.43956C172.89 8.28537 172.889 8.28438 172.594 8.22026C171.923 8.07414 171.314 8.04262 170.64 8.11901ZM167.793 9.26134C167.399 9.54921 166.774 10.204 166.483 10.6337C166.17 11.0945 165.884 11.6735 165.74 12.1345L165.633 12.477L165.818 12.665C166.519 13.3781 166.52 14.5668 165.82 15.2787L165.632 15.47L165.74 15.8141C166.048 16.8012 166.765 17.8539 167.58 18.5167C167.735 18.6424 167.911 18.7769 167.971 18.8158L168.082 18.8863L168.585 18.047C168.861 17.5854 169.082 17.1924 169.076 17.1738C169.069 17.1552 168.95 17.0407 168.81 16.9193C167.923 16.1486 167.467 15.1485 167.467 13.9752C167.467 12.7947 167.956 11.7389 168.846 10.996C168.977 10.8866 169.085 10.7836 169.085 10.7671C169.085 10.7325 168.091 9.06852 168.071 9.06852C168.063 9.06852 167.938 9.1553 167.793 9.26134ZM164.067 12.6398C163.695 12.7608 163.346 13.0684 163.188 13.4138C163.113 13.5785 163.093 13.6952 163.093 13.9752C163.093 14.2551 163.113 14.3718 163.188 14.5365C163.307 14.7983 163.57 15.0724 163.839 15.2151C164.021 15.3118 164.094 15.3254 164.44 15.3259C164.775 15.3265 164.865 15.3113 165.041 15.2246C165.875 14.8143 166.082 13.6832 165.443 13.0267C165.16 12.7365 164.909 12.6267 164.502 12.6154C164.32 12.6103 164.124 12.6213 164.067 12.6398ZM160.721 13.9752C160.721 14.1238 160.729 14.1846 160.738 14.1103C160.747 14.036 160.747 13.9143 160.738 13.84C160.729 13.7657 160.721 13.8265 160.721 13.9752ZM175.143 14.6102C174.949 15.8176 174.146 16.9035 173.045 17.4467C172.488 17.7216 172.148 17.8052 171.486 17.8308C170.861 17.8549 170.456 17.7961 169.964 17.6103C169.814 17.5539 169.678 17.5222 169.661 17.5399C169.645 17.5575 169.424 17.9462 169.171 18.4036C168.645 19.3554 168.645 19.2593 169.174 19.4639C170.016 19.7894 171.016 19.9316 171.851 19.8443C172.118 19.8164 172.461 19.7652 172.613 19.7305C172.886 19.6683 172.89 19.6653 172.915 19.5116C172.948 19.3029 173.154 18.8975 173.333 18.6872C173.777 18.1676 174.57 17.9284 175.256 18.1069L175.474 18.1636L175.703 17.9094C176.494 17.0294 177.03 15.8348 177.163 14.6564L177.196 14.3605L176.862 14.3344C176.678 14.32 176.227 14.3082 175.86 14.3081L175.192 14.3078L175.143 14.6102ZM174.465 18.5918C174.06 18.694 173.716 18.967 173.513 19.3477C173.432 19.4997 173.418 19.5882 173.418 19.9421C173.418 20.312 173.43 20.3811 173.528 20.5675C173.986 21.4368 175.16 21.5846 175.8 20.8536C176.231 20.3613 176.244 19.5896 175.83 19.0795C175.513 18.6887 174.921 18.477 174.465 18.5918Z" fill="white"/>
</svg>
