<svg width="152" height="148" viewBox="0 0 152 148" fill="none" xmlns="http://www.w3.org/2000/svg">
<path d="M47.3693 147L48.3029 146.533V137.184M47.3693 147L36.944 140.923V113.344M47.3693 147V98.3853L39.1224 103.216M36.944 101.969L39.1224 103.216M36.944 101.969V103.527M36.944 101.969L31.3423 98.5171M39.1224 103.216V101.969M48.3029 96.8271L39.1224 101.969M48.3029 96.8271L37.722 91.0619L37.2552 91.3161M48.3029 96.8271V137.184M39.1224 101.969L28.8527 95.8922M28.8527 95.8922V96.9829L31.3423 98.5171M28.8527 95.8922L30.2531 95.1295M38.3444 107.111L45.8133 111.318M45.8133 112.876L38.3444 108.513M38.3444 109.916L45.8133 114.279M45.8133 115.681L38.3444 111.318M37.2552 91.3161L36.4772 91.7398M37.2552 91.3161V87.1665M37.2552 76.1035L49.5477 83.2711M37.2552 76.1035V83.8943M37.2552 76.1035L40.3672 74.3133M49.5477 83.2711V138.118M49.5477 83.2711L151 24.6841M49.5477 138.118L48.3029 137.184M49.5477 138.118L151 79.5315V24.6841M151 24.6841L138.396 17.5165L127.504 23.7492M127.504 23.7492L126.415 22.9701L123.303 24.7753M127.504 23.7492L137.151 29.5144M52.8154 65.6638L51.8817 67.6894M52.8154 65.6638L63.2407 72.0523M52.8154 65.6638L58.2614 62.5047M51.8817 67.6894L62.7739 73.9221M51.8817 67.6894L50.2566 68.6243M137.151 29.5144L63.2407 72.0523M137.151 29.5144L138.241 30.4493L62.7739 73.9221M63.2407 72.0523L62.7739 73.9221M58.3369 112.876C53.9701 103.582 59.8792 83.1133 77.0892 72.9872C84.9618 68.8498 90.1497 70.5104 92.5021 75.1686M58.3369 112.876C60.9584 118.455 67.2831 120.007 77.0892 112.876C91.8548 101.387 96.7053 83.4923 92.5021 75.1686M58.3369 112.876C66.0415 135.625 105.876 99.1644 92.5021 75.1686M87.5662 89.1921C88.4604 91.9868 87.5717 94.6356 84.0913 100.723C83.4762 98.5061 82.9596 97.1457 81.6017 95.2689C80.392 93.5971 79.7344 95.1131 80.0456 95.8922C80.9967 97.6944 81.0812 98.9091 80.9793 101.19C80.175 107.692 77.2108 109.023 71.332 110.851C74.0662 106.638 74.7179 104.473 75.3776 100.723C73.5104 103.995 71.7622 106.482 68.6867 109.137C65.2635 111.63 62.7672 106.841 62.9295 103.995C66.7077 103.267 68.4252 102.257 70.8651 99.476C68.0643 100.255 67.1307 100.411 65.2635 100.255C61.529 99.6318 62.9295 92.7759 67.2863 87.3223C68.1931 91.0707 69.038 92.1931 70.8651 93.2433C71.7988 93.2433 70.5539 91.5293 70.3983 90.127C69.8859 85.5087 70.924 83.5449 73.0436 81.0896C76.1249 78.0639 77.5432 77.7634 80.0456 77.3501C77.3633 81.747 76.4989 84.0224 76 87.7898C78.9541 82.3969 80.4299 80.6166 82.8465 78.9082C86.2501 76.8198 87.9813 80.4664 88.6037 84.0502C84.874 85.2278 83.2004 86.0591 80.8237 87.7898C80.0456 88.413 80.3568 89.1921 81.4461 88.7247C84.1782 87.1971 87.0177 87.4781 87.5662 89.1921ZM87.5662 89.1921C87.5496 89.1402 87.584 89.2441 87.5662 89.1921ZM106.876 84.206C102.51 74.9122 108.419 54.443 125.629 44.317C133.501 40.1796 138.689 41.8402 141.041 46.4984M106.876 84.206C109.498 89.7851 115.823 91.3369 125.629 84.206C140.394 72.7169 145.245 54.8221 141.041 46.4984M106.876 84.206C114.581 106.955 154.415 70.4941 141.041 46.4984M136.106 60.5219C137 63.3166 136.111 65.9654 132.631 72.0523C132.016 69.8358 131.499 68.4755 130.141 66.5987C128.931 64.9269 128.274 66.4429 128.585 67.222C129.536 69.0242 129.621 70.2389 129.519 72.5197C128.714 79.0217 125.75 80.3524 119.871 82.1804C122.606 77.9678 123.257 75.8024 123.917 72.0523C122.05 75.3244 120.302 77.8117 117.226 80.4664C113.803 82.9594 111.307 78.1704 111.469 75.3244C115.247 74.5963 116.965 73.5872 119.405 70.8058C116.604 71.5848 115.67 71.7407 113.803 71.5848C110.068 70.9616 111.469 64.1057 115.826 58.6521C116.733 62.4005 117.577 63.5228 119.405 64.5731C120.338 64.5731 119.093 62.8591 118.938 61.4568C118.425 56.8385 119.463 54.8746 121.583 52.4194C124.664 49.3936 126.083 49.0932 128.585 48.6798C125.903 53.0768 125.038 55.3522 124.539 59.1195C127.494 53.7267 128.969 51.9464 131.386 50.238C134.79 48.1495 136.521 51.7962 137.143 55.3799C133.413 56.5576 131.74 57.3889 129.363 59.1195C128.585 59.7428 128.896 60.5219 129.985 60.0544C132.718 58.5269 135.557 58.8079 136.106 60.5219ZM136.106 60.5219C136.089 60.47 136.123 60.5739 136.106 60.5219ZM19.5166 130.639L20.4502 130.172V120.823M19.5166 130.639L9.09129 124.562V85.6083M19.5166 130.639V82.0245L11.2697 86.8549M9.09129 85.6083L11.2697 86.8549M9.09129 85.6083L1 80.6222V79.5315M11.2697 86.8549V85.6083M20.4502 80.4664L11.2697 85.6083M20.4502 80.4664L9.86929 74.7012L9.55809 74.8707M20.4502 80.4664V120.823M11.2697 85.6083L1 79.5315M1 79.5315L9.40249 74.9554L9.55809 74.8707M10.4917 90.7503L17.9606 94.9573M17.9606 96.5155L10.4917 92.1526M10.4917 93.555L17.9606 97.9178M17.9606 99.3202L10.4917 94.9573M20.4502 120.823L21.8506 121.758M9.55809 59.587L21.8506 66.7545M9.55809 59.587L24.1846 51.1729M9.55809 59.587V74.8707M21.8506 66.7545L123.303 8.16756M21.8506 66.7545V121.758M123.303 8.16756L110.699 1L99.8071 7.23266M123.303 8.16756V24.7753M99.8071 7.23266L98.7178 6.45358L25.1183 49.1473M99.8071 7.23266L109.454 12.9979M25.1183 49.1473L24.1846 51.1729M25.1183 49.1473L35.5436 55.5358M24.1846 51.1729L35.0768 57.4055M109.454 12.9979L35.5436 55.5358M109.454 12.9979L110.544 13.9328L35.0768 57.4055M35.5436 55.5358L35.0768 57.4055M21.8506 121.758L36.944 113.344M36.944 113.344V103.527M64.6343 58.8079C62.9295 54.2892 55.7235 52.9757 48.1473 57.4055C40.2116 62.0456 35.0768 69.2476 30.8755 80.778C29.1639 86.2316 28.8527 91.3161 30.2531 95.1295M64.6343 58.8079L58.2614 62.5047M64.6343 58.8079L80.5125 49.5973M30.2531 95.1295L36.4772 91.7398M36.944 103.527C34.2222 102.441 32.9874 101.326 31.3423 98.5171M36.4772 91.7398C35.4986 90.4273 35.1271 89.5816 34.9212 87.7898C35.8766 87.6934 36.3917 87.5726 37.2552 87.1665M37.2552 87.1665V83.8943M37.2552 83.8943C33.9147 81.7655 35.3051 78.3603 39.7448 70.9616C39.9246 72.3568 40.0565 73.098 40.3672 74.3133M40.3672 74.3133L42.6724 72.9872M42.6724 72.9872C42.6558 66.5324 44.5685 62.7033 52.5042 61.1451C50.69 64.0803 49.6392 65.7397 48.6314 69.5592M42.6724 72.9872L48.6314 69.5592M48.6314 69.5592L50.2566 68.6243M50.2566 68.6243C51.8417 65.1472 55.9274 60.5219 58.2614 62.5047M80.5125 49.5973C84.7137 35.2796 104.786 18.2956 113.344 30.5521M80.5125 49.5973L86.1141 46.3479M113.344 30.5521L106.654 34.4333M113.344 30.5521L123.303 24.7753M86.1141 46.3479C86.8344 44.6798 87.3168 43.9257 88.2925 42.9146C88.2521 43.8496 88.278 44.3131 88.4481 44.9939M86.1141 46.3479L88.4481 44.9939M88.4481 44.9939L91.249 43.3692M91.249 43.3692C91.3311 37.9152 93.8942 34.6564 101.052 32.9424C99.571 35.0828 98.7456 36.3142 97.473 39.7588M91.249 43.3692L97.473 39.7588M97.473 39.7588L99.9627 38.3146M99.9627 38.3146C103.166 34.5908 105.098 32.7866 106.654 34.4333M99.9627 38.3146L106.654 34.4333M42.0788 115.058C40.5228 114.279 40.5228 116.772 42.0788 117.862C43.4126 118.797 43.7905 116.148 42.0788 115.058ZM40.056 120.511C40.056 117.239 44.1017 119.265 44.1017 122.693V131.418C44.2573 134.535 40.056 132.509 40.056 129.393V120.511ZM42.0788 134.379C40.5228 133.6 40.5228 136.093 42.0788 137.184C43.4126 138.118 43.7905 135.47 42.0788 134.379ZM75.5332 91.841C72.5768 93.555 73.5875 97.2732 75.5332 96.5155C78.334 95.4248 78.4896 90.5945 75.5332 91.841ZM75.5332 89.3479C70.3983 92.4642 69.6203 101.969 75.5332 98.8527C81.1504 95.8922 81.1815 85.92 75.5332 89.3479ZM124.073 63.1708C121.116 64.8847 122.127 68.6029 124.073 67.8453C126.873 66.7545 127.029 61.9242 124.073 63.1708ZM124.073 60.6777C118.938 63.794 118.16 73.2988 124.073 70.1825C129.69 67.222 129.721 57.2497 124.073 60.6777ZM14.2261 98.6969C12.6701 97.9178 12.6701 100.411 14.2261 101.502C15.5599 102.436 15.9378 99.7876 14.2261 98.6969ZM12.2033 104.15C12.2033 100.878 16.249 102.904 16.249 106.332V115.058C16.4046 118.174 12.2033 116.148 12.2033 113.032V104.15ZM14.2261 118.018C12.6701 117.239 12.6701 119.732 14.2261 120.823C15.5599 121.758 15.9378 119.109 14.2261 118.018Z" stroke="white"/>
</svg>
