<svg width="273" height="76" viewBox="0 0 273 76" fill="none" xmlns="http://www.w3.org/2000/svg">
<path opacity="0.6" fill-rule="evenodd" clip-rule="evenodd" d="M97.7865 30.2764V60.5528H105H112.214V49.0987C112.214 42.799 112.364 36.8943 112.547 35.9775C113.248 32.4627 116.702 30.3729 119.731 31.6311C122.678 32.855 122.901 34.0028 122.901 47.9487V60.5828L130.249 60.4338L137.596 60.2849L137.575 45.2806C137.561 35.0665 137.346 29.5653 136.9 28.0488C135.809 24.3358 133.092 20.8318 130.126 19.3137C125.187 16.7849 116.657 17.7355 113.85 21.1276C113.466 21.5911 112.941 21.9705 112.683 21.9705C112.425 21.9705 112.214 17.0271 112.214 10.9852V0H105H97.7865V30.2764ZM254.921 1.2057C254.661 1.8691 251.332 9.8969 247.525 19.0457C243.717 28.194 240.434 36.2122 240.228 36.8633L239.853 38.0464L248.573 38.0438L257.292 38.0411L262.205 26.1208C264.907 19.5644 268.441 11.0051 270.059 7.10022L273 0H264.197C255.566 0 255.386 0.023578 254.921 1.2057ZM61.6235 18.4547C58.3479 19.4819 55.9658 21.1206 52.9702 24.4076C47.3503 30.5743 45.8921 40.132 49.211 49.0542C50.8151 53.3674 56.2463 58.9168 60.1145 60.1954C66.5267 62.3153 72.0563 61.7794 76.1569 58.6403L78.5497 56.8087V58.681V60.5528H85.4964H92.443V39.654V18.7553H85.4964H78.5497V20.3511V21.9469L76.0303 20.3441C74.6441 19.4632 72.6606 18.505 71.6218 18.2157C69.0409 17.4965 64.3193 17.6096 61.6235 18.4547ZM156.566 18.5425C148.315 20.7562 142.587 27.3206 140.995 36.3879C139.823 43.0573 142.399 50.643 147.443 55.3742C156.244 63.6297 170.505 63.4931 179.133 55.0709C189.154 45.2887 186.445 26.6459 174.082 20.3056C169.097 17.7489 162.135 17.0486 156.566 18.5425ZM203.602 18.5425C201.993 18.9761 199.7 19.9047 198.507 20.6056C195.39 22.4378 191.452 26.8758 189.792 30.4275C188.498 33.1953 188.36 34.0891 188.36 39.6653C188.36 45.5443 188.443 46.0073 190.092 49.3671C198.812 67.1311 226.701 64.7572 231.616 45.8326C235.5 30.8787 225.287 17.5978 210.001 17.7254C208.091 17.7409 205.211 18.109 203.602 18.5425ZM-0.000488281 19.2172C-0.000488281 19.4717 3.88267 28.8156 8.62882 39.982C13.3744 51.1489 17.2619 60.526 17.2667 60.8207C17.2715 61.1155 15.9131 64.5005 14.2481 68.3427C12.583 72.1848 11.221 75.5072 11.221 75.7253C11.221 75.9428 14.7354 76.0548 19.0316 75.9734L26.8418 75.825L38.5233 47.692C44.9484 32.2189 50.2102 19.378 50.2172 19.1572C50.2236 18.9364 46.7652 18.7553 42.5321 18.7553H34.8352L30.1521 30.5202C27.576 36.9908 25.3103 42.1871 25.1169 42.067C24.9234 41.9475 22.7406 36.6532 20.2655 30.3021L15.7657 18.7553H7.88286C3.5471 18.7553 -0.000488281 18.9632 -0.000488281 19.2172ZM65.9448 32.0935C61.7966 34.6303 60.4848 39.0024 62.5928 43.2647C64.8216 47.7708 70.2133 49.47 74.4865 47.0136C80.0828 43.7957 79.9508 34.8838 74.2642 32.019C71.811 30.7828 68.0331 30.8166 65.9448 32.0935ZM159.354 31.9408C156.714 33.2917 155.317 35.6238 155.076 39.0833C154.845 42.3912 155.964 44.6756 158.876 46.8389C161.041 48.4476 165.324 48.3844 167.666 46.7092C174.251 41.9984 171.653 31.9081 163.685 31.2549C161.97 31.1145 160.521 31.3438 159.354 31.9408ZM206.133 32.1546C203.358 33.6663 201.788 36.8633 202.119 40.3244C202.386 43.1072 203.519 45.0486 205.932 46.855C207.987 48.394 212.556 48.3854 214.638 46.8389C219.847 42.9684 219.883 36.3654 214.716 32.5281C212.626 30.9762 208.617 30.8015 206.133 32.1546ZM240.192 42.5568C236.803 44.0739 234.582 47.5924 234.582 51.4431C234.582 55.1834 236.653 58.5626 240.032 60.3325C242.348 61.5457 246.694 61.295 249.235 59.8015C255.562 56.0831 255.332 46.0684 248.848 42.9207C246.212 41.641 242.579 41.4888 240.192 42.5568Z" fill="white"/>
</svg>
